M48
;DRILL file {KiCad (5.0.1-3-g963ef8bb5)} date 2019 April 30, Tuesday 16:07:31
;FORMAT={-:-/ absolute / metric / decimal}
FMAT,2
METRIC,TZ
T1C0.300
T2C1.000
T3C1.016
T4C1.020
T5C1.350
T6C3.200
%
G90
G05
M71
T1
X64.516Y-80.137
X64.516Y-93.091
X64.643Y-67.945
X64.643Y-106.299
X64.643Y-118.999
X66.319Y-85.801
X66.319Y-98.73
X66.345Y-73.431
X66.396Y-111.633
X68.072Y-66.548
X68.072Y-78.867
X68.072Y-91.948
X68.072Y-105.029
X68.341Y-118.456
X71.247Y-51.283
X72.136Y-62.611
X72.136Y-75.184
X72.136Y-88.011
X72.136Y-100.584
X72.136Y-112.903
X73.67Y-51.186
X73.711Y-52.578
X76.327Y-52.603
X76.796Y-57.287
X77.724Y-110.998
X77.978Y-75.311
X78.105Y-62.865
X78.117Y-89.777
X78.167Y-103.251
X79.756Y-61.341
X80.01Y-92.837
X80.289Y-57.887
X80.856Y-61.92
X81.382Y-52.603
X81.658Y-86.995
X82.058Y-92.371
X82.268Y-57.638
X82.296Y-61.074
X82.458Y-93.268
X82.931Y-66.548
X83.023Y-105.029
X83.693Y-65.913
X83.693Y-76.962
X83.693Y-78.486
X84.074Y-98.171
X84.074Y-99.822
X84.15Y-61.277
X85.09Y-94.504
X85.217Y-90.551
X85.434Y-101.346
X86.188Y-102.616
X86.233Y-61.087
X86.487Y-52.629
X86.487Y-57.658
X86.487Y-83.439
X86.538Y-51.054
X86.952Y-94.741
X87.249Y-92.329
X87.503Y-102.743
X87.757Y-94.361
X87.884Y-91.313
X88.108Y-82.901
X88.265Y-76.454
X88.646Y-104.394
X88.656Y-86.106
X88.965Y-77.278
X89.154Y-90.551
X89.281Y-85.09
X90.297Y-73.152
X90.297Y-86.36
X90.551Y-95.885
X90.551Y-97.282
X91.059Y-77.343
X91.11Y-61.189
X91.18Y-91.83
X91.313Y-51.943
X92.342Y-64.453
X93.091Y-89.027
X93.218Y-77.978
X93.218Y-94.996
X93.599Y-76.962
X93.624Y-49.327
X93.726Y-94.234
X93.853Y-60.02
X94.107Y-97.917
X95.072Y-51.943
X95.701Y-58.542
X96.242Y-114.173
X96.393Y-85.979
X96.52Y-92.837
X97.003Y-61.671
X97.028Y-100.711
X97.028Y-106.045
X97.155Y-90.297
X97.282Y-103.759
X97.409Y-88.519
X97.409Y-85.852
X97.409Y-86.741
X97.79Y-84.455
X97.79Y-101.473
X98.298Y-98.806
X98.425Y-105.664
X98.908Y-62.332
X99.289Y-49.927
X99.822Y-92.71
X99.834Y-90.043
X100.66Y-58.318
X100.686Y-59.182
X100.838Y-98.806
X101.032Y-61.417
X101.346Y-90.551
X101.505Y-62.062
X101.727Y-96.52
X101.778Y-49.011
X102.235Y-103.886
X102.743Y-102.997
X102.87Y-92.964
X103.013Y-79.121
X103.124Y-93.726
X103.286Y-95.377
X103.286Y-96.266
X103.886Y-106.426
X104.013Y-89.535
X104.191Y-49.657
X104.775Y-85.471
X104.775Y-91.059
X105.41Y-84.074
X105.41Y-94.361
X105.41Y-99.441
X105.41Y-107.95
X106.045Y-90.805
X107.061Y-116.522
X107.086Y-112.954
X107.188Y-93.497
X107.188Y-111.735
X107.442Y-114.427
X107.886Y-117.475
X107.95Y-85.217
X107.95Y-115.189
X108.356Y-82.245
X108.89Y-117.5
X109.201Y-78.848
X109.728Y-113.55
X109.867Y-90.932
X109.982Y-81.026
X110.236Y-102.516
X110.998Y-89.154
X111.252Y-75.844
X114.808Y-74.803
X114.808Y-88.138
X114.808Y-114.554
X114.808Y-125.984
X114.809Y-101.967
X118.745Y-121.158
X118.872Y-69.342
X118.872Y-82.423
X118.872Y-95.758
X118.872Y-108.712
X120.472Y-114.757
X120.574Y-102.032
X120.599Y-63.17
X120.599Y-75.997
X120.599Y-89.433
X122.301Y-119.634
X122.428Y-68.072
X122.428Y-81.153
X122.428Y-94.361
X122.428Y-107.188
X128.27Y-57.912
X128.918Y-56.406
X130.008Y-55.148
X132.057Y-54.089
T2
X52.4Y-48.87
X52.4Y-51.41
X52.4Y-53.95
X52.4Y-56.49
X52.4Y-59.03
X52.4Y-61.57
X105.41Y-122.809
X107.95Y-122.809
T3
X62.357Y-53.213
X62.357Y-55.753
X64.897Y-53.213
X64.897Y-55.753
X67.437Y-53.213
X67.437Y-55.753
X69.977Y-53.213
X69.977Y-55.753
X72.517Y-53.213
X72.517Y-55.753
X75.057Y-53.213
X75.057Y-55.753
X77.597Y-53.213
X77.597Y-55.753
X80.137Y-53.213
X80.137Y-55.753
X82.677Y-53.213
X82.677Y-55.753
X85.217Y-53.213
X85.217Y-55.753
X87.757Y-53.213
X87.757Y-55.753
X90.297Y-53.213
X90.297Y-55.753
X92.837Y-53.213
X92.837Y-55.753
X95.377Y-53.213
X95.377Y-55.753
X97.917Y-53.213
X97.917Y-55.753
X100.457Y-53.213
X100.457Y-55.753
X102.997Y-53.213
X102.997Y-55.753
X105.537Y-53.213
X105.537Y-55.753
X108.077Y-53.213
X108.077Y-55.753
X110.617Y-53.213
X110.617Y-55.753
X113.157Y-53.213
X113.157Y-55.753
X115.697Y-53.213
X115.697Y-55.753
X118.237Y-53.213
X118.237Y-55.753
X120.777Y-53.213
X120.777Y-55.753
X123.317Y-53.213
X123.317Y-55.753
X125.857Y-53.213
X125.857Y-55.753
X62.357Y-48.133
X62.357Y-50.673
X64.897Y-48.133
X64.897Y-50.673
X67.437Y-48.133
X67.437Y-50.673
X69.977Y-48.133
X69.977Y-50.673
X72.517Y-48.133
X72.517Y-50.673
X75.057Y-48.133
X75.057Y-50.673
X77.597Y-48.133
X77.597Y-50.673
X80.137Y-48.133
X80.137Y-50.673
X82.677Y-48.133
X82.677Y-50.673
X85.217Y-48.133
X85.217Y-50.673
X87.757Y-48.133
X87.757Y-50.673
X90.297Y-48.133
X90.297Y-50.673
X92.837Y-48.133
X92.837Y-50.673
X95.377Y-48.133
X95.377Y-50.673
X97.917Y-48.133
X97.917Y-50.673
X100.457Y-48.133
X100.457Y-50.673
X102.997Y-48.133
X102.997Y-50.673
X105.537Y-48.133
X105.537Y-50.673
X108.077Y-48.133
X108.077Y-50.673
X110.617Y-48.133
X110.617Y-50.673
X113.157Y-48.133
X113.157Y-50.673
X115.697Y-48.133
X115.697Y-50.673
X118.237Y-48.133
X118.237Y-50.673
X120.777Y-48.133
X120.777Y-50.673
X123.317Y-48.133
X123.317Y-50.673
X125.857Y-48.133
X125.857Y-50.673
T4
X92.992Y-122.682
X96.492Y-122.682
T5
X130.556Y-117.323
X130.556Y-121.133
X130.556Y-92.05
X130.556Y-95.86
X130.556Y-104.75
X130.556Y-108.56
X56.413Y-91.948
X56.413Y-95.758
X130.556Y-79.096
X130.556Y-82.906
X130.556Y-66.015
X130.556Y-69.825
X56.413Y-104.775
X56.413Y-108.585
X56.413Y-66.421
X56.413Y-70.231
X56.413Y-79.121
X56.413Y-82.931
X56.413Y-117.348
X56.413Y-121.158
T6
X130.937Y-48.133
X53.467Y-133.858
X133.477Y-133.858
X57.277Y-48.133
T0
M30
