%TF.GenerationSoftware,KiCad,Pcbnew,(5.0.1-3-g963ef8bb5)*%
%TF.CreationDate,2019-04-30T16:07:28+02:00*%
%TF.ProjectId,OIBUS_MOSFET_driver_module,4F494255535F4D4F534645545F647269,rev?*%
%TF.SameCoordinates,Original*%
%TF.FileFunction,Copper,L1,Top,Signal*%
%TF.FilePolarity,Positive*%
%FSLAX46Y46*%
G04 Gerber Fmt 4.6, Leading zero omitted, Abs format (unit mm)*
G04 Created by KiCad (PCBNEW (5.0.1-3-g963ef8bb5)) date 2019 April 30, Tuesday 16:07:28*
%MOMM*%
%LPD*%
G01*
G04 APERTURE LIST*
%ADD10C,0.200000*%
%ADD11C,0.150000*%
%ADD12C,1.000000*%
%ADD13C,0.600000*%
%ADD14R,0.750000X0.800000*%
%ADD15R,1.400000X1.200000*%
%ADD16R,1.700000X2.250000*%
%ADD17R,3.500000X1.600000*%
%ADD18R,1.600000X3.500000*%
%ADD19R,0.800000X0.750000*%
%ADD20R,0.700000X0.450000*%
%ADD21R,0.900000X1.200000*%
%ADD22C,1.524000*%
%ADD23R,1.524000X1.524000*%
%ADD24C,5.600000*%
%ADD25O,1.700000X1.700000*%
%ADD26R,1.700000X1.700000*%
%ADD27R,2.025000X2.025000*%
%ADD28C,2.025000*%
%ADD29R,1.500000X1.000000*%
%ADD30C,0.500000*%
%ADD31R,0.900000X0.500000*%
%ADD32R,0.700000X1.300000*%
%ADD33R,0.800000X0.800000*%
%ADD34R,0.500000X0.900000*%
%ADD35R,1.700000X0.900000*%
%ADD36R,0.550000X1.050000*%
%ADD37R,0.400000X1.060000*%
%ADD38R,0.250000X1.300000*%
%ADD39R,1.300000X0.250000*%
%ADD40R,1.530000X1.530000*%
%ADD41C,1.530000*%
%ADD42C,0.875000*%
%ADD43R,0.650000X1.650000*%
%ADD44R,0.800000X0.900000*%
%ADD45C,0.400000*%
%ADD46C,0.600000*%
%ADD47C,0.250000*%
%ADD48C,2.000000*%
%ADD49C,5.000000*%
%ADD50C,0.254000*%
G04 APERTURE END LIST*
D10*
X138557000Y-44248000D02*
X138557000Y-137737999D01*
X138557000Y-137737999D02*
G75*
G02X137357000Y-138937999I-1200000J0D01*
G01*
X48387000Y-137738000D02*
X48387000Y-79629000D01*
X49587000Y-138938000D02*
G75*
G02X48387000Y-137738000I0J1200000D01*
G01*
X83257000Y-138937999D02*
X49587000Y-138938000D01*
X84457000Y-137737999D02*
G75*
G02X83257000Y-138937999I-1200000J0D01*
G01*
X84457000Y-137217999D02*
X84457000Y-137737999D01*
X84457000Y-137217999D02*
G75*
G02X85657000Y-136017999I1200000J0D01*
G01*
X103577000Y-136017999D02*
X85657000Y-136017999D01*
X105977000Y-138937999D02*
G75*
G02X104777000Y-137737999I0J1200000D01*
G01*
X137357000Y-138937999D02*
X105977000Y-138937999D01*
X103577000Y-136017999D02*
G75*
G02X104777000Y-137217999I0J-1200000D01*
G01*
X104777000Y-137737999D02*
X104777000Y-137217999D01*
X137357000Y-43048000D02*
G75*
G02X138557000Y-44248000I0J-1200000D01*
G01*
X105977000Y-43048000D02*
X137357000Y-43048000D01*
X104777000Y-44248000D02*
G75*
G02X105977000Y-43048000I1200000J0D01*
G01*
X104777000Y-44768035D02*
X104777000Y-44248000D01*
X104777000Y-44768035D02*
G75*
G02X103577000Y-45968035I-1200000J0D01*
G01*
X85657000Y-45968032D02*
X103577000Y-45968035D01*
X85657000Y-45968032D02*
G75*
G02X84457001Y-44768032I1J1200000D01*
G01*
X84457000Y-44248030D02*
X84457001Y-44768032D01*
X83257001Y-43048030D02*
G75*
G02X84457000Y-44248030I-1J-1200000D01*
G01*
X49587001Y-43048001D02*
X83257001Y-43048030D01*
X48387000Y-44248001D02*
G75*
G02X49587001Y-43048001I1200000J0D01*
G01*
X48386999Y-79658000D02*
X48387000Y-44248001D01*
D11*
G36*
X137676164Y-50477644D02*
X137700433Y-50481244D01*
X137724231Y-50487205D01*
X137747331Y-50495470D01*
X137769509Y-50505960D01*
X137790553Y-50518573D01*
X137810258Y-50533187D01*
X137828437Y-50549663D01*
X137844913Y-50567842D01*
X137859527Y-50587547D01*
X137872140Y-50608591D01*
X137882630Y-50630769D01*
X137890895Y-50653869D01*
X137896856Y-50677667D01*
X137900456Y-50701936D01*
X137901660Y-50726440D01*
X137901660Y-51226440D01*
X137900456Y-51250944D01*
X137896856Y-51275213D01*
X137890895Y-51299011D01*
X137882630Y-51322111D01*
X137872140Y-51344289D01*
X137859527Y-51365333D01*
X137844913Y-51385038D01*
X137828437Y-51403217D01*
X137810258Y-51419693D01*
X137790553Y-51434307D01*
X137769509Y-51446920D01*
X137747331Y-51457410D01*
X137724231Y-51465675D01*
X137700433Y-51471636D01*
X137676164Y-51475236D01*
X137651660Y-51476440D01*
X135451660Y-51476440D01*
X135427156Y-51475236D01*
X135402887Y-51471636D01*
X135379089Y-51465675D01*
X135355989Y-51457410D01*
X135333811Y-51446920D01*
X135312767Y-51434307D01*
X135293062Y-51419693D01*
X135274883Y-51403217D01*
X135258407Y-51385038D01*
X135243793Y-51365333D01*
X135231180Y-51344289D01*
X135220690Y-51322111D01*
X135212425Y-51299011D01*
X135206464Y-51275213D01*
X135202864Y-51250944D01*
X135201660Y-51226440D01*
X135201660Y-50726440D01*
X135202864Y-50701936D01*
X135206464Y-50677667D01*
X135212425Y-50653869D01*
X135220690Y-50630769D01*
X135231180Y-50608591D01*
X135243793Y-50587547D01*
X135258407Y-50567842D01*
X135274883Y-50549663D01*
X135293062Y-50533187D01*
X135312767Y-50518573D01*
X135333811Y-50505960D01*
X135355989Y-50495470D01*
X135379089Y-50487205D01*
X135402887Y-50481244D01*
X135427156Y-50477644D01*
X135451660Y-50476440D01*
X137651660Y-50476440D01*
X137676164Y-50477644D01*
X137676164Y-50477644D01*
G37*
D12*
X136551660Y-50976440D03*
D11*
G36*
X137676164Y-57927644D02*
X137700433Y-57931244D01*
X137724231Y-57937205D01*
X137747331Y-57945470D01*
X137769509Y-57955960D01*
X137790553Y-57968573D01*
X137810258Y-57983187D01*
X137828437Y-57999663D01*
X137844913Y-58017842D01*
X137859527Y-58037547D01*
X137872140Y-58058591D01*
X137882630Y-58080769D01*
X137890895Y-58103869D01*
X137896856Y-58127667D01*
X137900456Y-58151936D01*
X137901660Y-58176440D01*
X137901660Y-58676440D01*
X137900456Y-58700944D01*
X137896856Y-58725213D01*
X137890895Y-58749011D01*
X137882630Y-58772111D01*
X137872140Y-58794289D01*
X137859527Y-58815333D01*
X137844913Y-58835038D01*
X137828437Y-58853217D01*
X137810258Y-58869693D01*
X137790553Y-58884307D01*
X137769509Y-58896920D01*
X137747331Y-58907410D01*
X137724231Y-58915675D01*
X137700433Y-58921636D01*
X137676164Y-58925236D01*
X137651660Y-58926440D01*
X135451660Y-58926440D01*
X135427156Y-58925236D01*
X135402887Y-58921636D01*
X135379089Y-58915675D01*
X135355989Y-58907410D01*
X135333811Y-58896920D01*
X135312767Y-58884307D01*
X135293062Y-58869693D01*
X135274883Y-58853217D01*
X135258407Y-58835038D01*
X135243793Y-58815333D01*
X135231180Y-58794289D01*
X135220690Y-58772111D01*
X135212425Y-58749011D01*
X135206464Y-58725213D01*
X135202864Y-58700944D01*
X135201660Y-58676440D01*
X135201660Y-58176440D01*
X135202864Y-58151936D01*
X135206464Y-58127667D01*
X135212425Y-58103869D01*
X135220690Y-58080769D01*
X135231180Y-58058591D01*
X135243793Y-58037547D01*
X135258407Y-58017842D01*
X135274883Y-57999663D01*
X135293062Y-57983187D01*
X135312767Y-57968573D01*
X135333811Y-57955960D01*
X135355989Y-57945470D01*
X135379089Y-57937205D01*
X135402887Y-57931244D01*
X135427156Y-57927644D01*
X135451660Y-57926440D01*
X137651660Y-57926440D01*
X137676164Y-57927644D01*
X137676164Y-57927644D01*
G37*
D12*
X136551660Y-58426440D03*
D11*
G36*
X134066363Y-52527162D02*
X134080924Y-52529322D01*
X134095203Y-52532899D01*
X134109063Y-52537858D01*
X134122370Y-52544152D01*
X134134996Y-52551720D01*
X134146819Y-52560488D01*
X134157726Y-52570374D01*
X134167612Y-52581281D01*
X134176380Y-52593104D01*
X134183948Y-52605730D01*
X134190242Y-52619037D01*
X134195201Y-52632897D01*
X134198778Y-52647176D01*
X134200938Y-52661737D01*
X134201660Y-52676440D01*
X134201660Y-52976440D01*
X134200938Y-52991143D01*
X134198778Y-53005704D01*
X134195201Y-53019983D01*
X134190242Y-53033843D01*
X134183948Y-53047150D01*
X134176380Y-53059776D01*
X134167612Y-53071599D01*
X134157726Y-53082506D01*
X134146819Y-53092392D01*
X134134996Y-53101160D01*
X134122370Y-53108728D01*
X134109063Y-53115022D01*
X134095203Y-53119981D01*
X134080924Y-53123558D01*
X134066363Y-53125718D01*
X134051660Y-53126440D01*
X132651660Y-53126440D01*
X132636957Y-53125718D01*
X132622396Y-53123558D01*
X132608117Y-53119981D01*
X132594257Y-53115022D01*
X132580950Y-53108728D01*
X132568324Y-53101160D01*
X132556501Y-53092392D01*
X132545594Y-53082506D01*
X132535708Y-53071599D01*
X132526940Y-53059776D01*
X132519372Y-53047150D01*
X132513078Y-53033843D01*
X132508119Y-53019983D01*
X132504542Y-53005704D01*
X132502382Y-52991143D01*
X132501660Y-52976440D01*
X132501660Y-52676440D01*
X132502382Y-52661737D01*
X132504542Y-52647176D01*
X132508119Y-52632897D01*
X132513078Y-52619037D01*
X132519372Y-52605730D01*
X132526940Y-52593104D01*
X132535708Y-52581281D01*
X132545594Y-52570374D01*
X132556501Y-52560488D01*
X132568324Y-52551720D01*
X132580950Y-52544152D01*
X132594257Y-52537858D01*
X132608117Y-52532899D01*
X132622396Y-52529322D01*
X132636957Y-52527162D01*
X132651660Y-52526440D01*
X134051660Y-52526440D01*
X134066363Y-52527162D01*
X134066363Y-52527162D01*
G37*
D13*
X133351660Y-52826440D03*
D11*
G36*
X134066363Y-53777162D02*
X134080924Y-53779322D01*
X134095203Y-53782899D01*
X134109063Y-53787858D01*
X134122370Y-53794152D01*
X134134996Y-53801720D01*
X134146819Y-53810488D01*
X134157726Y-53820374D01*
X134167612Y-53831281D01*
X134176380Y-53843104D01*
X134183948Y-53855730D01*
X134190242Y-53869037D01*
X134195201Y-53882897D01*
X134198778Y-53897176D01*
X134200938Y-53911737D01*
X134201660Y-53926440D01*
X134201660Y-54226440D01*
X134200938Y-54241143D01*
X134198778Y-54255704D01*
X134195201Y-54269983D01*
X134190242Y-54283843D01*
X134183948Y-54297150D01*
X134176380Y-54309776D01*
X134167612Y-54321599D01*
X134157726Y-54332506D01*
X134146819Y-54342392D01*
X134134996Y-54351160D01*
X134122370Y-54358728D01*
X134109063Y-54365022D01*
X134095203Y-54369981D01*
X134080924Y-54373558D01*
X134066363Y-54375718D01*
X134051660Y-54376440D01*
X132651660Y-54376440D01*
X132636957Y-54375718D01*
X132622396Y-54373558D01*
X132608117Y-54369981D01*
X132594257Y-54365022D01*
X132580950Y-54358728D01*
X132568324Y-54351160D01*
X132556501Y-54342392D01*
X132545594Y-54332506D01*
X132535708Y-54321599D01*
X132526940Y-54309776D01*
X132519372Y-54297150D01*
X132513078Y-54283843D01*
X132508119Y-54269983D01*
X132504542Y-54255704D01*
X132502382Y-54241143D01*
X132501660Y-54226440D01*
X132501660Y-53926440D01*
X132502382Y-53911737D01*
X132504542Y-53897176D01*
X132508119Y-53882897D01*
X132513078Y-53869037D01*
X132519372Y-53855730D01*
X132526940Y-53843104D01*
X132535708Y-53831281D01*
X132545594Y-53820374D01*
X132556501Y-53810488D01*
X132568324Y-53801720D01*
X132580950Y-53794152D01*
X132594257Y-53787858D01*
X132608117Y-53782899D01*
X132622396Y-53779322D01*
X132636957Y-53777162D01*
X132651660Y-53776440D01*
X134051660Y-53776440D01*
X134066363Y-53777162D01*
X134066363Y-53777162D01*
G37*
D13*
X133351660Y-54076440D03*
D11*
G36*
X134066363Y-55027162D02*
X134080924Y-55029322D01*
X134095203Y-55032899D01*
X134109063Y-55037858D01*
X134122370Y-55044152D01*
X134134996Y-55051720D01*
X134146819Y-55060488D01*
X134157726Y-55070374D01*
X134167612Y-55081281D01*
X134176380Y-55093104D01*
X134183948Y-55105730D01*
X134190242Y-55119037D01*
X134195201Y-55132897D01*
X134198778Y-55147176D01*
X134200938Y-55161737D01*
X134201660Y-55176440D01*
X134201660Y-55476440D01*
X134200938Y-55491143D01*
X134198778Y-55505704D01*
X134195201Y-55519983D01*
X134190242Y-55533843D01*
X134183948Y-55547150D01*
X134176380Y-55559776D01*
X134167612Y-55571599D01*
X134157726Y-55582506D01*
X134146819Y-55592392D01*
X134134996Y-55601160D01*
X134122370Y-55608728D01*
X134109063Y-55615022D01*
X134095203Y-55619981D01*
X134080924Y-55623558D01*
X134066363Y-55625718D01*
X134051660Y-55626440D01*
X132651660Y-55626440D01*
X132636957Y-55625718D01*
X132622396Y-55623558D01*
X132608117Y-55619981D01*
X132594257Y-55615022D01*
X132580950Y-55608728D01*
X132568324Y-55601160D01*
X132556501Y-55592392D01*
X132545594Y-55582506D01*
X132535708Y-55571599D01*
X132526940Y-55559776D01*
X132519372Y-55547150D01*
X132513078Y-55533843D01*
X132508119Y-55519983D01*
X132504542Y-55505704D01*
X132502382Y-55491143D01*
X132501660Y-55476440D01*
X132501660Y-55176440D01*
X132502382Y-55161737D01*
X132504542Y-55147176D01*
X132508119Y-55132897D01*
X132513078Y-55119037D01*
X132519372Y-55105730D01*
X132526940Y-55093104D01*
X132535708Y-55081281D01*
X132545594Y-55070374D01*
X132556501Y-55060488D01*
X132568324Y-55051720D01*
X132580950Y-55044152D01*
X132594257Y-55037858D01*
X132608117Y-55032899D01*
X132622396Y-55029322D01*
X132636957Y-55027162D01*
X132651660Y-55026440D01*
X134051660Y-55026440D01*
X134066363Y-55027162D01*
X134066363Y-55027162D01*
G37*
D13*
X133351660Y-55326440D03*
D11*
G36*
X134066363Y-56277162D02*
X134080924Y-56279322D01*
X134095203Y-56282899D01*
X134109063Y-56287858D01*
X134122370Y-56294152D01*
X134134996Y-56301720D01*
X134146819Y-56310488D01*
X134157726Y-56320374D01*
X134167612Y-56331281D01*
X134176380Y-56343104D01*
X134183948Y-56355730D01*
X134190242Y-56369037D01*
X134195201Y-56382897D01*
X134198778Y-56397176D01*
X134200938Y-56411737D01*
X134201660Y-56426440D01*
X134201660Y-56726440D01*
X134200938Y-56741143D01*
X134198778Y-56755704D01*
X134195201Y-56769983D01*
X134190242Y-56783843D01*
X134183948Y-56797150D01*
X134176380Y-56809776D01*
X134167612Y-56821599D01*
X134157726Y-56832506D01*
X134146819Y-56842392D01*
X134134996Y-56851160D01*
X134122370Y-56858728D01*
X134109063Y-56865022D01*
X134095203Y-56869981D01*
X134080924Y-56873558D01*
X134066363Y-56875718D01*
X134051660Y-56876440D01*
X132651660Y-56876440D01*
X132636957Y-56875718D01*
X132622396Y-56873558D01*
X132608117Y-56869981D01*
X132594257Y-56865022D01*
X132580950Y-56858728D01*
X132568324Y-56851160D01*
X132556501Y-56842392D01*
X132545594Y-56832506D01*
X132535708Y-56821599D01*
X132526940Y-56809776D01*
X132519372Y-56797150D01*
X132513078Y-56783843D01*
X132508119Y-56769983D01*
X132504542Y-56755704D01*
X132502382Y-56741143D01*
X132501660Y-56726440D01*
X132501660Y-56426440D01*
X132502382Y-56411737D01*
X132504542Y-56397176D01*
X132508119Y-56382897D01*
X132513078Y-56369037D01*
X132519372Y-56355730D01*
X132526940Y-56343104D01*
X132535708Y-56331281D01*
X132545594Y-56320374D01*
X132556501Y-56310488D01*
X132568324Y-56301720D01*
X132580950Y-56294152D01*
X132594257Y-56287858D01*
X132608117Y-56282899D01*
X132622396Y-56279322D01*
X132636957Y-56277162D01*
X132651660Y-56276440D01*
X134051660Y-56276440D01*
X134066363Y-56277162D01*
X134066363Y-56277162D01*
G37*
D13*
X133351660Y-56576440D03*
D14*
X89916000Y-106033000D03*
X89916000Y-104533000D03*
D15*
X91737000Y-104483000D03*
X93937000Y-104483000D03*
X93937000Y-106083000D03*
X91737000Y-106083000D03*
D16*
X60071000Y-70503000D03*
X60071000Y-66403000D03*
D17*
X98900000Y-114681000D03*
X104300000Y-114681000D03*
D18*
X93091000Y-117254000D03*
X93091000Y-111854000D03*
D14*
X92329000Y-65671000D03*
X92329000Y-67171000D03*
X88265000Y-73926000D03*
X88265000Y-75426000D03*
X95758000Y-104533000D03*
X95758000Y-106033000D03*
D19*
X95770000Y-102616000D03*
X97270000Y-102616000D03*
X85483000Y-99822000D03*
X86983000Y-99822000D03*
D14*
X90297000Y-87515000D03*
X90297000Y-89015000D03*
D19*
X86983000Y-98171000D03*
X85483000Y-98171000D03*
X101334000Y-91821000D03*
X99834000Y-91821000D03*
X100826000Y-102539800D03*
X99326000Y-102539800D03*
X99326000Y-103886000D03*
X100826000Y-103886000D03*
D16*
X126873000Y-104630000D03*
X126873000Y-108730000D03*
X126873000Y-121303000D03*
X126873000Y-117203000D03*
X126873000Y-69995000D03*
X126873000Y-65895000D03*
X126873000Y-96030000D03*
X126873000Y-91930000D03*
X60071000Y-91803000D03*
X60071000Y-95903000D03*
X60071000Y-121430000D03*
X60071000Y-117330000D03*
X60071000Y-108857000D03*
X60071000Y-104757000D03*
D20*
X97018600Y-58775600D03*
X99018600Y-58125600D03*
X99018600Y-59425600D03*
D21*
X100966000Y-119634000D03*
X104266000Y-119634000D03*
D16*
X126873000Y-78976000D03*
X126873000Y-83076000D03*
X60071000Y-78976000D03*
X60071000Y-83076000D03*
D22*
X62357000Y-48133001D03*
D23*
X62357000Y-50673001D03*
D22*
X64897000Y-48133001D03*
X64897000Y-50673001D03*
X67437000Y-48133001D03*
X67437000Y-50673001D03*
X69977000Y-48133001D03*
X69977000Y-50673001D03*
X72517000Y-48133001D03*
X72517000Y-50673001D03*
X75057000Y-48133001D03*
X75057000Y-50673001D03*
X77597000Y-48133001D03*
X77597000Y-50673001D03*
X80137000Y-48133001D03*
X80137000Y-50673001D03*
X82677000Y-48133001D03*
X82677000Y-50673001D03*
X85217000Y-48133001D03*
X85217000Y-50673001D03*
X87757000Y-48133001D03*
X87757000Y-50673001D03*
X90297000Y-48133001D03*
X90297000Y-50673001D03*
X92837000Y-48133001D03*
X92837000Y-50673001D03*
X95377000Y-48133001D03*
X95377000Y-50673001D03*
X97917000Y-48133001D03*
X97917000Y-50673001D03*
X100457000Y-48133001D03*
X100457000Y-50673001D03*
X102997000Y-48133001D03*
X102997000Y-50673001D03*
X105537000Y-48133001D03*
X105537000Y-50673001D03*
X108077000Y-48133001D03*
X108077000Y-50673001D03*
X110617000Y-48133001D03*
X110617000Y-50673001D03*
X113157000Y-48133001D03*
X113157000Y-50673001D03*
X115697000Y-48133001D03*
X115697000Y-50673001D03*
X118237000Y-48133001D03*
X118237000Y-50673001D03*
X120777000Y-48133001D03*
X120777000Y-50673001D03*
X123317000Y-48133001D03*
X123317000Y-50673001D03*
X125857000Y-48133001D03*
X125857000Y-50673001D03*
X125857000Y-55753000D03*
X125857000Y-53213000D03*
X123317000Y-55753000D03*
X123317000Y-53213000D03*
X120777000Y-55753000D03*
X120777000Y-53213000D03*
X118237000Y-55753000D03*
X118237000Y-53213000D03*
X115697000Y-55753000D03*
X115697000Y-53213000D03*
X113157000Y-55753000D03*
X113157000Y-53213000D03*
X110617000Y-55753000D03*
X110617000Y-53213000D03*
X108077000Y-55753000D03*
X108077000Y-53213000D03*
X105537000Y-55753000D03*
X105537000Y-53213000D03*
X102997000Y-55753000D03*
X102997000Y-53213000D03*
X100457000Y-55753000D03*
X100457000Y-53213000D03*
X97917000Y-55753000D03*
X97917000Y-53213000D03*
X95377000Y-55753000D03*
X95377000Y-53213000D03*
X92837000Y-55753000D03*
X92837000Y-53213000D03*
X90297000Y-55753000D03*
X90297000Y-53213000D03*
X87757000Y-55753000D03*
X87757000Y-53213000D03*
X85217000Y-55753000D03*
X85217000Y-53213000D03*
X82677000Y-55753000D03*
X82677000Y-53213000D03*
X80137000Y-55753000D03*
X80137000Y-53213000D03*
X77597000Y-55753000D03*
X77597000Y-53213000D03*
X75057000Y-55753000D03*
X75057000Y-53213000D03*
X72517000Y-55753000D03*
X72517000Y-53213000D03*
X69977000Y-55753000D03*
X69977000Y-53213000D03*
X67437000Y-55753000D03*
X67437000Y-53213000D03*
X64897000Y-55753000D03*
X64897000Y-53213000D03*
D23*
X62357000Y-55753000D03*
D22*
X62357000Y-53213000D03*
D24*
X57277000Y-48133000D03*
X133477000Y-133858000D03*
X53467000Y-133858000D03*
X130937000Y-48133000D03*
D25*
X52400200Y-48869600D03*
X52400200Y-51409600D03*
X52400200Y-53949600D03*
X52400200Y-56489600D03*
X52400200Y-59029600D03*
D26*
X52400200Y-61569600D03*
D25*
X105410000Y-122809000D03*
D26*
X107950000Y-122809000D03*
D27*
X130556000Y-108559600D03*
D28*
X130556000Y-104749600D03*
X130556000Y-117322600D03*
D27*
X130556000Y-121132600D03*
X130556000Y-69824600D03*
D28*
X130556000Y-66014600D03*
X130556000Y-92049600D03*
D27*
X130556000Y-95859600D03*
X56413400Y-66421000D03*
D28*
X56413400Y-70231000D03*
X56413400Y-95758000D03*
D27*
X56413400Y-91948000D03*
X56413400Y-117348000D03*
D28*
X56413400Y-121158000D03*
X56413400Y-108585000D03*
D27*
X56413400Y-104775000D03*
D28*
X130556000Y-79095600D03*
D27*
X130556000Y-82905600D03*
X56413400Y-79121000D03*
D28*
X56413400Y-82931000D03*
D29*
X106934000Y-87757000D03*
D30*
X106934000Y-89057000D03*
D11*
G36*
X107683398Y-89057000D02*
X107683398Y-89081534D01*
X107678588Y-89130365D01*
X107669016Y-89178490D01*
X107654772Y-89225445D01*
X107635995Y-89270778D01*
X107612864Y-89314051D01*
X107585604Y-89354850D01*
X107554476Y-89392779D01*
X107519779Y-89427476D01*
X107481850Y-89458604D01*
X107441051Y-89485864D01*
X107397778Y-89508995D01*
X107352445Y-89527772D01*
X107305490Y-89542016D01*
X107257365Y-89551588D01*
X107208534Y-89556398D01*
X107184000Y-89556398D01*
X107184000Y-89557000D01*
X106684000Y-89557000D01*
X106684000Y-89556398D01*
X106659466Y-89556398D01*
X106610635Y-89551588D01*
X106562510Y-89542016D01*
X106515555Y-89527772D01*
X106470222Y-89508995D01*
X106426949Y-89485864D01*
X106386150Y-89458604D01*
X106348221Y-89427476D01*
X106313524Y-89392779D01*
X106282396Y-89354850D01*
X106255136Y-89314051D01*
X106232005Y-89270778D01*
X106213228Y-89225445D01*
X106198984Y-89178490D01*
X106189412Y-89130365D01*
X106184602Y-89081534D01*
X106184602Y-89057000D01*
X106184000Y-89057000D01*
X106184000Y-88507000D01*
X107684000Y-88507000D01*
X107684000Y-89057000D01*
X107683398Y-89057000D01*
X107683398Y-89057000D01*
G37*
D30*
X106934000Y-86457000D03*
D11*
G36*
X106184000Y-87007000D02*
X106184000Y-86457000D01*
X106184602Y-86457000D01*
X106184602Y-86432466D01*
X106189412Y-86383635D01*
X106198984Y-86335510D01*
X106213228Y-86288555D01*
X106232005Y-86243222D01*
X106255136Y-86199949D01*
X106282396Y-86159150D01*
X106313524Y-86121221D01*
X106348221Y-86086524D01*
X106386150Y-86055396D01*
X106426949Y-86028136D01*
X106470222Y-86005005D01*
X106515555Y-85986228D01*
X106562510Y-85971984D01*
X106610635Y-85962412D01*
X106659466Y-85957602D01*
X106684000Y-85957602D01*
X106684000Y-85957000D01*
X107184000Y-85957000D01*
X107184000Y-85957602D01*
X107208534Y-85957602D01*
X107257365Y-85962412D01*
X107305490Y-85971984D01*
X107352445Y-85986228D01*
X107397778Y-86005005D01*
X107441051Y-86028136D01*
X107481850Y-86055396D01*
X107519779Y-86086524D01*
X107554476Y-86121221D01*
X107585604Y-86159150D01*
X107612864Y-86199949D01*
X107635995Y-86243222D01*
X107654772Y-86288555D01*
X107669016Y-86335510D01*
X107678588Y-86383635D01*
X107683398Y-86432466D01*
X107683398Y-86457000D01*
X107684000Y-86457000D01*
X107684000Y-87007000D01*
X106184000Y-87007000D01*
X106184000Y-87007000D01*
G37*
D30*
X106934000Y-81377000D03*
D11*
G36*
X106184000Y-81927000D02*
X106184000Y-81377000D01*
X106184602Y-81377000D01*
X106184602Y-81352466D01*
X106189412Y-81303635D01*
X106198984Y-81255510D01*
X106213228Y-81208555D01*
X106232005Y-81163222D01*
X106255136Y-81119949D01*
X106282396Y-81079150D01*
X106313524Y-81041221D01*
X106348221Y-81006524D01*
X106386150Y-80975396D01*
X106426949Y-80948136D01*
X106470222Y-80925005D01*
X106515555Y-80906228D01*
X106562510Y-80891984D01*
X106610635Y-80882412D01*
X106659466Y-80877602D01*
X106684000Y-80877602D01*
X106684000Y-80877000D01*
X107184000Y-80877000D01*
X107184000Y-80877602D01*
X107208534Y-80877602D01*
X107257365Y-80882412D01*
X107305490Y-80891984D01*
X107352445Y-80906228D01*
X107397778Y-80925005D01*
X107441051Y-80948136D01*
X107481850Y-80975396D01*
X107519779Y-81006524D01*
X107554476Y-81041221D01*
X107585604Y-81079150D01*
X107612864Y-81119949D01*
X107635995Y-81163222D01*
X107654772Y-81208555D01*
X107669016Y-81255510D01*
X107678588Y-81303635D01*
X107683398Y-81352466D01*
X107683398Y-81377000D01*
X107684000Y-81377000D01*
X107684000Y-81927000D01*
X106184000Y-81927000D01*
X106184000Y-81927000D01*
G37*
D30*
X106934000Y-83977000D03*
D11*
G36*
X107683398Y-83977000D02*
X107683398Y-84001534D01*
X107678588Y-84050365D01*
X107669016Y-84098490D01*
X107654772Y-84145445D01*
X107635995Y-84190778D01*
X107612864Y-84234051D01*
X107585604Y-84274850D01*
X107554476Y-84312779D01*
X107519779Y-84347476D01*
X107481850Y-84378604D01*
X107441051Y-84405864D01*
X107397778Y-84428995D01*
X107352445Y-84447772D01*
X107305490Y-84462016D01*
X107257365Y-84471588D01*
X107208534Y-84476398D01*
X107184000Y-84476398D01*
X107184000Y-84477000D01*
X106684000Y-84477000D01*
X106684000Y-84476398D01*
X106659466Y-84476398D01*
X106610635Y-84471588D01*
X106562510Y-84462016D01*
X106515555Y-84447772D01*
X106470222Y-84428995D01*
X106426949Y-84405864D01*
X106386150Y-84378604D01*
X106348221Y-84347476D01*
X106313524Y-84312779D01*
X106282396Y-84274850D01*
X106255136Y-84234051D01*
X106232005Y-84190778D01*
X106213228Y-84145445D01*
X106198984Y-84098490D01*
X106189412Y-84050365D01*
X106184602Y-84001534D01*
X106184602Y-83977000D01*
X106184000Y-83977000D01*
X106184000Y-83427000D01*
X107684000Y-83427000D01*
X107684000Y-83977000D01*
X107683398Y-83977000D01*
X107683398Y-83977000D01*
G37*
D29*
X106934000Y-82677000D03*
D31*
X106426000Y-97040000D03*
X106426000Y-98540000D03*
D32*
X99126000Y-100838000D03*
X101026000Y-100838000D03*
D33*
X128270000Y-112128400D03*
X128270000Y-113728400D03*
X128574800Y-126326800D03*
X128574800Y-124726800D03*
X128320800Y-75196600D03*
X128320800Y-73596600D03*
X128295400Y-101053800D03*
X128295400Y-99453800D03*
X60604400Y-61557000D03*
X60604400Y-63157000D03*
X58572400Y-86601400D03*
X58572400Y-88201400D03*
X58547000Y-113728400D03*
X58547000Y-112128400D03*
X58470800Y-101003000D03*
X58470800Y-99403000D03*
X76162000Y-45212000D03*
X77762000Y-45212000D03*
X128270000Y-86677600D03*
X128270000Y-88277600D03*
X58521600Y-75425200D03*
X58521600Y-73825200D03*
D31*
X126339600Y-112153000D03*
X126339600Y-113653000D03*
D34*
X118884000Y-107188000D03*
X120384000Y-107188000D03*
D31*
X126288800Y-126302200D03*
X126288800Y-124802200D03*
D34*
X120257000Y-119761000D03*
X118757000Y-119761000D03*
D31*
X126415800Y-73646600D03*
X126415800Y-75146600D03*
D34*
X118884000Y-68072000D03*
X120384000Y-68072000D03*
D31*
X126263400Y-100978400D03*
X126263400Y-99478400D03*
D34*
X120384000Y-94361000D03*
X118884000Y-94361000D03*
D31*
X62280800Y-61683200D03*
X62280800Y-63183200D03*
D34*
X68060000Y-68199000D03*
X66560000Y-68199000D03*
D31*
X60198000Y-86524400D03*
X60198000Y-88024400D03*
D34*
X66540238Y-93452488D03*
X68040238Y-93452488D03*
D31*
X60198000Y-113653000D03*
X60198000Y-112153000D03*
D34*
X68122620Y-119456583D03*
X66622620Y-119456583D03*
D31*
X60121800Y-99503800D03*
X60121800Y-101003800D03*
D34*
X66598866Y-106530810D03*
X68098866Y-106530810D03*
X111875000Y-114046000D03*
X110375000Y-114046000D03*
X111875000Y-126492000D03*
X110375000Y-126492000D03*
X112764000Y-74803000D03*
X111264000Y-74803000D03*
X110375000Y-101219000D03*
X111875000Y-101219000D03*
X75450000Y-62865000D03*
X76950000Y-62865000D03*
X76950000Y-88265000D03*
X75450000Y-88265000D03*
X76950000Y-113030000D03*
X75450000Y-113030000D03*
X75450000Y-100711000D03*
X76950000Y-100711000D03*
D35*
X91059000Y-68654000D03*
X91059000Y-71554000D03*
X93599000Y-68654000D03*
X93599000Y-71554000D03*
D34*
X72910000Y-45212000D03*
X74410000Y-45212000D03*
D31*
X126288800Y-86702200D03*
X126288800Y-88202200D03*
X60553600Y-75476800D03*
X60553600Y-73976800D03*
D34*
X118872000Y-81153000D03*
X120372000Y-81153000D03*
X68037985Y-80439617D03*
X66537985Y-80439617D03*
X111391000Y-88138000D03*
X112891000Y-88138000D03*
X75450000Y-75311000D03*
X76950000Y-75311000D03*
D36*
X124267000Y-105821000D03*
X123317000Y-105821000D03*
X122367000Y-105821000D03*
X122367000Y-103221000D03*
X123317000Y-103221000D03*
X124267000Y-103221000D03*
X124140000Y-115637000D03*
X123190000Y-115637000D03*
X122240000Y-115637000D03*
X122240000Y-118237000D03*
X123190000Y-118237000D03*
X124140000Y-118237000D03*
X124267000Y-64232000D03*
X123317000Y-64232000D03*
X122367000Y-64232000D03*
X122367000Y-66832000D03*
X123317000Y-66832000D03*
X124267000Y-66832000D03*
X124267000Y-92994000D03*
X123317000Y-92994000D03*
X122367000Y-92994000D03*
X122367000Y-90394000D03*
X123317000Y-90394000D03*
X124267000Y-90394000D03*
X62677000Y-69312000D03*
X63627000Y-69312000D03*
X64577000Y-69312000D03*
X64577000Y-71912000D03*
X63627000Y-71912000D03*
X62677000Y-71912000D03*
X62677000Y-97312000D03*
X63627000Y-97312000D03*
X64577000Y-97312000D03*
X64577000Y-94712000D03*
X63627000Y-94712000D03*
X62677000Y-94712000D03*
X62677000Y-123220000D03*
X63627000Y-123220000D03*
X64577000Y-123220000D03*
X64577000Y-120620000D03*
X63627000Y-120620000D03*
X62677000Y-120620000D03*
X62677000Y-107793000D03*
X63627000Y-107793000D03*
X64577000Y-107793000D03*
X64577000Y-110393000D03*
X63627000Y-110393000D03*
X62677000Y-110393000D03*
X124267000Y-77313000D03*
X123317000Y-77313000D03*
X122367000Y-77313000D03*
X122367000Y-79913000D03*
X123317000Y-79913000D03*
X124267000Y-79913000D03*
X62677000Y-81758000D03*
X63627000Y-81758000D03*
X64577000Y-81758000D03*
X64577000Y-84358000D03*
X63627000Y-84358000D03*
X62677000Y-84358000D03*
D37*
X91349000Y-73322000D03*
X91999000Y-73322000D03*
X92659000Y-73322000D03*
X93309000Y-73322000D03*
X93309000Y-75522000D03*
X92659000Y-75522000D03*
X91999000Y-75522000D03*
X91349000Y-75522000D03*
D38*
X90595000Y-99473000D03*
X91095000Y-99473000D03*
X91595000Y-99473000D03*
X92095000Y-99473000D03*
X92595000Y-99473000D03*
X93095000Y-99473000D03*
X93595000Y-99473000D03*
X94095000Y-99473000D03*
X94595000Y-99473000D03*
X95095000Y-99473000D03*
X95595000Y-99473000D03*
X96095000Y-99473000D03*
D39*
X97695000Y-97873000D03*
X97695000Y-97373000D03*
X97695000Y-96873000D03*
X97695000Y-96373000D03*
X97695000Y-95873000D03*
X97695000Y-95373000D03*
X97695000Y-94873000D03*
X97695000Y-94373000D03*
X97695000Y-93873000D03*
X97695000Y-93373000D03*
X97695000Y-92873000D03*
X97695000Y-92373000D03*
D38*
X96095000Y-90773000D03*
X95595000Y-90773000D03*
X95095000Y-90773000D03*
X94595000Y-90773000D03*
X94095000Y-90773000D03*
X93595000Y-90773000D03*
X93095000Y-90773000D03*
X92595000Y-90773000D03*
X92095000Y-90773000D03*
X91595000Y-90773000D03*
X91095000Y-90773000D03*
X90595000Y-90773000D03*
D39*
X88995000Y-92373000D03*
X88995000Y-92873000D03*
X88995000Y-93373000D03*
X88995000Y-93873000D03*
X88995000Y-94373000D03*
X88995000Y-94873000D03*
X88995000Y-95373000D03*
X88995000Y-95873000D03*
X88995000Y-96373000D03*
X88995000Y-96873000D03*
X88995000Y-97373000D03*
X88995000Y-97873000D03*
D40*
X92992000Y-122682000D03*
D41*
X96492000Y-122682000D03*
D11*
G36*
X129563691Y-53564053D02*
X129584926Y-53567203D01*
X129605750Y-53572419D01*
X129625962Y-53579651D01*
X129645368Y-53588830D01*
X129663781Y-53599866D01*
X129681024Y-53612654D01*
X129696930Y-53627070D01*
X129711346Y-53642976D01*
X129724134Y-53660219D01*
X129735170Y-53678632D01*
X129744349Y-53698038D01*
X129751581Y-53718250D01*
X129756797Y-53739074D01*
X129759947Y-53760309D01*
X129761000Y-53781750D01*
X129761000Y-54219250D01*
X129759947Y-54240691D01*
X129756797Y-54261926D01*
X129751581Y-54282750D01*
X129744349Y-54302962D01*
X129735170Y-54322368D01*
X129724134Y-54340781D01*
X129711346Y-54358024D01*
X129696930Y-54373930D01*
X129681024Y-54388346D01*
X129663781Y-54401134D01*
X129645368Y-54412170D01*
X129625962Y-54421349D01*
X129605750Y-54428581D01*
X129584926Y-54433797D01*
X129563691Y-54436947D01*
X129542250Y-54438000D01*
X129029750Y-54438000D01*
X129008309Y-54436947D01*
X128987074Y-54433797D01*
X128966250Y-54428581D01*
X128946038Y-54421349D01*
X128926632Y-54412170D01*
X128908219Y-54401134D01*
X128890976Y-54388346D01*
X128875070Y-54373930D01*
X128860654Y-54358024D01*
X128847866Y-54340781D01*
X128836830Y-54322368D01*
X128827651Y-54302962D01*
X128820419Y-54282750D01*
X128815203Y-54261926D01*
X128812053Y-54240691D01*
X128811000Y-54219250D01*
X128811000Y-53781750D01*
X128812053Y-53760309D01*
X128815203Y-53739074D01*
X128820419Y-53718250D01*
X128827651Y-53698038D01*
X128836830Y-53678632D01*
X128847866Y-53660219D01*
X128860654Y-53642976D01*
X128875070Y-53627070D01*
X128890976Y-53612654D01*
X128908219Y-53599866D01*
X128926632Y-53588830D01*
X128946038Y-53579651D01*
X128966250Y-53572419D01*
X128987074Y-53567203D01*
X129008309Y-53564053D01*
X129029750Y-53563000D01*
X129542250Y-53563000D01*
X129563691Y-53564053D01*
X129563691Y-53564053D01*
G37*
D42*
X129286000Y-54000500D03*
D11*
G36*
X129563691Y-51989053D02*
X129584926Y-51992203D01*
X129605750Y-51997419D01*
X129625962Y-52004651D01*
X129645368Y-52013830D01*
X129663781Y-52024866D01*
X129681024Y-52037654D01*
X129696930Y-52052070D01*
X129711346Y-52067976D01*
X129724134Y-52085219D01*
X129735170Y-52103632D01*
X129744349Y-52123038D01*
X129751581Y-52143250D01*
X129756797Y-52164074D01*
X129759947Y-52185309D01*
X129761000Y-52206750D01*
X129761000Y-52644250D01*
X129759947Y-52665691D01*
X129756797Y-52686926D01*
X129751581Y-52707750D01*
X129744349Y-52727962D01*
X129735170Y-52747368D01*
X129724134Y-52765781D01*
X129711346Y-52783024D01*
X129696930Y-52798930D01*
X129681024Y-52813346D01*
X129663781Y-52826134D01*
X129645368Y-52837170D01*
X129625962Y-52846349D01*
X129605750Y-52853581D01*
X129584926Y-52858797D01*
X129563691Y-52861947D01*
X129542250Y-52863000D01*
X129029750Y-52863000D01*
X129008309Y-52861947D01*
X128987074Y-52858797D01*
X128966250Y-52853581D01*
X128946038Y-52846349D01*
X128926632Y-52837170D01*
X128908219Y-52826134D01*
X128890976Y-52813346D01*
X128875070Y-52798930D01*
X128860654Y-52783024D01*
X128847866Y-52765781D01*
X128836830Y-52747368D01*
X128827651Y-52727962D01*
X128820419Y-52707750D01*
X128815203Y-52686926D01*
X128812053Y-52665691D01*
X128811000Y-52644250D01*
X128811000Y-52206750D01*
X128812053Y-52185309D01*
X128815203Y-52164074D01*
X128820419Y-52143250D01*
X128827651Y-52123038D01*
X128836830Y-52103632D01*
X128847866Y-52085219D01*
X128860654Y-52067976D01*
X128875070Y-52052070D01*
X128890976Y-52037654D01*
X128908219Y-52024866D01*
X128926632Y-52013830D01*
X128946038Y-52004651D01*
X128966250Y-51997419D01*
X128987074Y-51992203D01*
X129008309Y-51989053D01*
X129029750Y-51988000D01*
X129542250Y-51988000D01*
X129563691Y-51989053D01*
X129563691Y-51989053D01*
G37*
D42*
X129286000Y-52425500D03*
D11*
G36*
X82573691Y-61514053D02*
X82594926Y-61517203D01*
X82615750Y-61522419D01*
X82635962Y-61529651D01*
X82655368Y-61538830D01*
X82673781Y-61549866D01*
X82691024Y-61562654D01*
X82706930Y-61577070D01*
X82721346Y-61592976D01*
X82734134Y-61610219D01*
X82745170Y-61628632D01*
X82754349Y-61648038D01*
X82761581Y-61668250D01*
X82766797Y-61689074D01*
X82769947Y-61710309D01*
X82771000Y-61731750D01*
X82771000Y-62169250D01*
X82769947Y-62190691D01*
X82766797Y-62211926D01*
X82761581Y-62232750D01*
X82754349Y-62252962D01*
X82745170Y-62272368D01*
X82734134Y-62290781D01*
X82721346Y-62308024D01*
X82706930Y-62323930D01*
X82691024Y-62338346D01*
X82673781Y-62351134D01*
X82655368Y-62362170D01*
X82635962Y-62371349D01*
X82615750Y-62378581D01*
X82594926Y-62383797D01*
X82573691Y-62386947D01*
X82552250Y-62388000D01*
X82039750Y-62388000D01*
X82018309Y-62386947D01*
X81997074Y-62383797D01*
X81976250Y-62378581D01*
X81956038Y-62371349D01*
X81936632Y-62362170D01*
X81918219Y-62351134D01*
X81900976Y-62338346D01*
X81885070Y-62323930D01*
X81870654Y-62308024D01*
X81857866Y-62290781D01*
X81846830Y-62272368D01*
X81837651Y-62252962D01*
X81830419Y-62232750D01*
X81825203Y-62211926D01*
X81822053Y-62190691D01*
X81821000Y-62169250D01*
X81821000Y-61731750D01*
X81822053Y-61710309D01*
X81825203Y-61689074D01*
X81830419Y-61668250D01*
X81837651Y-61648038D01*
X81846830Y-61628632D01*
X81857866Y-61610219D01*
X81870654Y-61592976D01*
X81885070Y-61577070D01*
X81900976Y-61562654D01*
X81918219Y-61549866D01*
X81936632Y-61538830D01*
X81956038Y-61529651D01*
X81976250Y-61522419D01*
X81997074Y-61517203D01*
X82018309Y-61514053D01*
X82039750Y-61513000D01*
X82552250Y-61513000D01*
X82573691Y-61514053D01*
X82573691Y-61514053D01*
G37*
D42*
X82296000Y-61950500D03*
D11*
G36*
X82573691Y-63089053D02*
X82594926Y-63092203D01*
X82615750Y-63097419D01*
X82635962Y-63104651D01*
X82655368Y-63113830D01*
X82673781Y-63124866D01*
X82691024Y-63137654D01*
X82706930Y-63152070D01*
X82721346Y-63167976D01*
X82734134Y-63185219D01*
X82745170Y-63203632D01*
X82754349Y-63223038D01*
X82761581Y-63243250D01*
X82766797Y-63264074D01*
X82769947Y-63285309D01*
X82771000Y-63306750D01*
X82771000Y-63744250D01*
X82769947Y-63765691D01*
X82766797Y-63786926D01*
X82761581Y-63807750D01*
X82754349Y-63827962D01*
X82745170Y-63847368D01*
X82734134Y-63865781D01*
X82721346Y-63883024D01*
X82706930Y-63898930D01*
X82691024Y-63913346D01*
X82673781Y-63926134D01*
X82655368Y-63937170D01*
X82635962Y-63946349D01*
X82615750Y-63953581D01*
X82594926Y-63958797D01*
X82573691Y-63961947D01*
X82552250Y-63963000D01*
X82039750Y-63963000D01*
X82018309Y-63961947D01*
X81997074Y-63958797D01*
X81976250Y-63953581D01*
X81956038Y-63946349D01*
X81936632Y-63937170D01*
X81918219Y-63926134D01*
X81900976Y-63913346D01*
X81885070Y-63898930D01*
X81870654Y-63883024D01*
X81857866Y-63865781D01*
X81846830Y-63847368D01*
X81837651Y-63827962D01*
X81830419Y-63807750D01*
X81825203Y-63786926D01*
X81822053Y-63765691D01*
X81821000Y-63744250D01*
X81821000Y-63306750D01*
X81822053Y-63285309D01*
X81825203Y-63264074D01*
X81830419Y-63243250D01*
X81837651Y-63223038D01*
X81846830Y-63203632D01*
X81857866Y-63185219D01*
X81870654Y-63167976D01*
X81885070Y-63152070D01*
X81900976Y-63137654D01*
X81918219Y-63124866D01*
X81936632Y-63113830D01*
X81956038Y-63104651D01*
X81976250Y-63097419D01*
X81997074Y-63092203D01*
X82018309Y-63089053D01*
X82039750Y-63088000D01*
X82552250Y-63088000D01*
X82573691Y-63089053D01*
X82573691Y-63089053D01*
G37*
D42*
X82296000Y-63525500D03*
D11*
G36*
X80033691Y-67534053D02*
X80054926Y-67537203D01*
X80075750Y-67542419D01*
X80095962Y-67549651D01*
X80115368Y-67558830D01*
X80133781Y-67569866D01*
X80151024Y-67582654D01*
X80166930Y-67597070D01*
X80181346Y-67612976D01*
X80194134Y-67630219D01*
X80205170Y-67648632D01*
X80214349Y-67668038D01*
X80221581Y-67688250D01*
X80226797Y-67709074D01*
X80229947Y-67730309D01*
X80231000Y-67751750D01*
X80231000Y-68189250D01*
X80229947Y-68210691D01*
X80226797Y-68231926D01*
X80221581Y-68252750D01*
X80214349Y-68272962D01*
X80205170Y-68292368D01*
X80194134Y-68310781D01*
X80181346Y-68328024D01*
X80166930Y-68343930D01*
X80151024Y-68358346D01*
X80133781Y-68371134D01*
X80115368Y-68382170D01*
X80095962Y-68391349D01*
X80075750Y-68398581D01*
X80054926Y-68403797D01*
X80033691Y-68406947D01*
X80012250Y-68408000D01*
X79499750Y-68408000D01*
X79478309Y-68406947D01*
X79457074Y-68403797D01*
X79436250Y-68398581D01*
X79416038Y-68391349D01*
X79396632Y-68382170D01*
X79378219Y-68371134D01*
X79360976Y-68358346D01*
X79345070Y-68343930D01*
X79330654Y-68328024D01*
X79317866Y-68310781D01*
X79306830Y-68292368D01*
X79297651Y-68272962D01*
X79290419Y-68252750D01*
X79285203Y-68231926D01*
X79282053Y-68210691D01*
X79281000Y-68189250D01*
X79281000Y-67751750D01*
X79282053Y-67730309D01*
X79285203Y-67709074D01*
X79290419Y-67688250D01*
X79297651Y-67668038D01*
X79306830Y-67648632D01*
X79317866Y-67630219D01*
X79330654Y-67612976D01*
X79345070Y-67597070D01*
X79360976Y-67582654D01*
X79378219Y-67569866D01*
X79396632Y-67558830D01*
X79416038Y-67549651D01*
X79436250Y-67542419D01*
X79457074Y-67537203D01*
X79478309Y-67534053D01*
X79499750Y-67533000D01*
X80012250Y-67533000D01*
X80033691Y-67534053D01*
X80033691Y-67534053D01*
G37*
D42*
X79756000Y-67970500D03*
D11*
G36*
X80033691Y-65959053D02*
X80054926Y-65962203D01*
X80075750Y-65967419D01*
X80095962Y-65974651D01*
X80115368Y-65983830D01*
X80133781Y-65994866D01*
X80151024Y-66007654D01*
X80166930Y-66022070D01*
X80181346Y-66037976D01*
X80194134Y-66055219D01*
X80205170Y-66073632D01*
X80214349Y-66093038D01*
X80221581Y-66113250D01*
X80226797Y-66134074D01*
X80229947Y-66155309D01*
X80231000Y-66176750D01*
X80231000Y-66614250D01*
X80229947Y-66635691D01*
X80226797Y-66656926D01*
X80221581Y-66677750D01*
X80214349Y-66697962D01*
X80205170Y-66717368D01*
X80194134Y-66735781D01*
X80181346Y-66753024D01*
X80166930Y-66768930D01*
X80151024Y-66783346D01*
X80133781Y-66796134D01*
X80115368Y-66807170D01*
X80095962Y-66816349D01*
X80075750Y-66823581D01*
X80054926Y-66828797D01*
X80033691Y-66831947D01*
X80012250Y-66833000D01*
X79499750Y-66833000D01*
X79478309Y-66831947D01*
X79457074Y-66828797D01*
X79436250Y-66823581D01*
X79416038Y-66816349D01*
X79396632Y-66807170D01*
X79378219Y-66796134D01*
X79360976Y-66783346D01*
X79345070Y-66768930D01*
X79330654Y-66753024D01*
X79317866Y-66735781D01*
X79306830Y-66717368D01*
X79297651Y-66697962D01*
X79290419Y-66677750D01*
X79285203Y-66656926D01*
X79282053Y-66635691D01*
X79281000Y-66614250D01*
X79281000Y-66176750D01*
X79282053Y-66155309D01*
X79285203Y-66134074D01*
X79290419Y-66113250D01*
X79297651Y-66093038D01*
X79306830Y-66073632D01*
X79317866Y-66055219D01*
X79330654Y-66037976D01*
X79345070Y-66022070D01*
X79360976Y-66007654D01*
X79378219Y-65994866D01*
X79396632Y-65983830D01*
X79416038Y-65974651D01*
X79436250Y-65967419D01*
X79457074Y-65962203D01*
X79478309Y-65959053D01*
X79499750Y-65958000D01*
X80012250Y-65958000D01*
X80033691Y-65959053D01*
X80033691Y-65959053D01*
G37*
D42*
X79756000Y-66395500D03*
D11*
G36*
X84478691Y-61641053D02*
X84499926Y-61644203D01*
X84520750Y-61649419D01*
X84540962Y-61656651D01*
X84560368Y-61665830D01*
X84578781Y-61676866D01*
X84596024Y-61689654D01*
X84611930Y-61704070D01*
X84626346Y-61719976D01*
X84639134Y-61737219D01*
X84650170Y-61755632D01*
X84659349Y-61775038D01*
X84666581Y-61795250D01*
X84671797Y-61816074D01*
X84674947Y-61837309D01*
X84676000Y-61858750D01*
X84676000Y-62296250D01*
X84674947Y-62317691D01*
X84671797Y-62338926D01*
X84666581Y-62359750D01*
X84659349Y-62379962D01*
X84650170Y-62399368D01*
X84639134Y-62417781D01*
X84626346Y-62435024D01*
X84611930Y-62450930D01*
X84596024Y-62465346D01*
X84578781Y-62478134D01*
X84560368Y-62489170D01*
X84540962Y-62498349D01*
X84520750Y-62505581D01*
X84499926Y-62510797D01*
X84478691Y-62513947D01*
X84457250Y-62515000D01*
X83944750Y-62515000D01*
X83923309Y-62513947D01*
X83902074Y-62510797D01*
X83881250Y-62505581D01*
X83861038Y-62498349D01*
X83841632Y-62489170D01*
X83823219Y-62478134D01*
X83805976Y-62465346D01*
X83790070Y-62450930D01*
X83775654Y-62435024D01*
X83762866Y-62417781D01*
X83751830Y-62399368D01*
X83742651Y-62379962D01*
X83735419Y-62359750D01*
X83730203Y-62338926D01*
X83727053Y-62317691D01*
X83726000Y-62296250D01*
X83726000Y-61858750D01*
X83727053Y-61837309D01*
X83730203Y-61816074D01*
X83735419Y-61795250D01*
X83742651Y-61775038D01*
X83751830Y-61755632D01*
X83762866Y-61737219D01*
X83775654Y-61719976D01*
X83790070Y-61704070D01*
X83805976Y-61689654D01*
X83823219Y-61676866D01*
X83841632Y-61665830D01*
X83861038Y-61656651D01*
X83881250Y-61649419D01*
X83902074Y-61644203D01*
X83923309Y-61641053D01*
X83944750Y-61640000D01*
X84457250Y-61640000D01*
X84478691Y-61641053D01*
X84478691Y-61641053D01*
G37*
D42*
X84201000Y-62077500D03*
D11*
G36*
X84478691Y-63216053D02*
X84499926Y-63219203D01*
X84520750Y-63224419D01*
X84540962Y-63231651D01*
X84560368Y-63240830D01*
X84578781Y-63251866D01*
X84596024Y-63264654D01*
X84611930Y-63279070D01*
X84626346Y-63294976D01*
X84639134Y-63312219D01*
X84650170Y-63330632D01*
X84659349Y-63350038D01*
X84666581Y-63370250D01*
X84671797Y-63391074D01*
X84674947Y-63412309D01*
X84676000Y-63433750D01*
X84676000Y-63871250D01*
X84674947Y-63892691D01*
X84671797Y-63913926D01*
X84666581Y-63934750D01*
X84659349Y-63954962D01*
X84650170Y-63974368D01*
X84639134Y-63992781D01*
X84626346Y-64010024D01*
X84611930Y-64025930D01*
X84596024Y-64040346D01*
X84578781Y-64053134D01*
X84560368Y-64064170D01*
X84540962Y-64073349D01*
X84520750Y-64080581D01*
X84499926Y-64085797D01*
X84478691Y-64088947D01*
X84457250Y-64090000D01*
X83944750Y-64090000D01*
X83923309Y-64088947D01*
X83902074Y-64085797D01*
X83881250Y-64080581D01*
X83861038Y-64073349D01*
X83841632Y-64064170D01*
X83823219Y-64053134D01*
X83805976Y-64040346D01*
X83790070Y-64025930D01*
X83775654Y-64010024D01*
X83762866Y-63992781D01*
X83751830Y-63974368D01*
X83742651Y-63954962D01*
X83735419Y-63934750D01*
X83730203Y-63913926D01*
X83727053Y-63892691D01*
X83726000Y-63871250D01*
X83726000Y-63433750D01*
X83727053Y-63412309D01*
X83730203Y-63391074D01*
X83735419Y-63370250D01*
X83742651Y-63350038D01*
X83751830Y-63330632D01*
X83762866Y-63312219D01*
X83775654Y-63294976D01*
X83790070Y-63279070D01*
X83805976Y-63264654D01*
X83823219Y-63251866D01*
X83841632Y-63240830D01*
X83861038Y-63231651D01*
X83881250Y-63224419D01*
X83902074Y-63219203D01*
X83923309Y-63216053D01*
X83944750Y-63215000D01*
X84457250Y-63215000D01*
X84478691Y-63216053D01*
X84478691Y-63216053D01*
G37*
D42*
X84201000Y-63652500D03*
D11*
G36*
X86383691Y-63216053D02*
X86404926Y-63219203D01*
X86425750Y-63224419D01*
X86445962Y-63231651D01*
X86465368Y-63240830D01*
X86483781Y-63251866D01*
X86501024Y-63264654D01*
X86516930Y-63279070D01*
X86531346Y-63294976D01*
X86544134Y-63312219D01*
X86555170Y-63330632D01*
X86564349Y-63350038D01*
X86571581Y-63370250D01*
X86576797Y-63391074D01*
X86579947Y-63412309D01*
X86581000Y-63433750D01*
X86581000Y-63871250D01*
X86579947Y-63892691D01*
X86576797Y-63913926D01*
X86571581Y-63934750D01*
X86564349Y-63954962D01*
X86555170Y-63974368D01*
X86544134Y-63992781D01*
X86531346Y-64010024D01*
X86516930Y-64025930D01*
X86501024Y-64040346D01*
X86483781Y-64053134D01*
X86465368Y-64064170D01*
X86445962Y-64073349D01*
X86425750Y-64080581D01*
X86404926Y-64085797D01*
X86383691Y-64088947D01*
X86362250Y-64090000D01*
X85849750Y-64090000D01*
X85828309Y-64088947D01*
X85807074Y-64085797D01*
X85786250Y-64080581D01*
X85766038Y-64073349D01*
X85746632Y-64064170D01*
X85728219Y-64053134D01*
X85710976Y-64040346D01*
X85695070Y-64025930D01*
X85680654Y-64010024D01*
X85667866Y-63992781D01*
X85656830Y-63974368D01*
X85647651Y-63954962D01*
X85640419Y-63934750D01*
X85635203Y-63913926D01*
X85632053Y-63892691D01*
X85631000Y-63871250D01*
X85631000Y-63433750D01*
X85632053Y-63412309D01*
X85635203Y-63391074D01*
X85640419Y-63370250D01*
X85647651Y-63350038D01*
X85656830Y-63330632D01*
X85667866Y-63312219D01*
X85680654Y-63294976D01*
X85695070Y-63279070D01*
X85710976Y-63264654D01*
X85728219Y-63251866D01*
X85746632Y-63240830D01*
X85766038Y-63231651D01*
X85786250Y-63224419D01*
X85807074Y-63219203D01*
X85828309Y-63216053D01*
X85849750Y-63215000D01*
X86362250Y-63215000D01*
X86383691Y-63216053D01*
X86383691Y-63216053D01*
G37*
D42*
X86106000Y-63652500D03*
D11*
G36*
X86383691Y-61641053D02*
X86404926Y-61644203D01*
X86425750Y-61649419D01*
X86445962Y-61656651D01*
X86465368Y-61665830D01*
X86483781Y-61676866D01*
X86501024Y-61689654D01*
X86516930Y-61704070D01*
X86531346Y-61719976D01*
X86544134Y-61737219D01*
X86555170Y-61755632D01*
X86564349Y-61775038D01*
X86571581Y-61795250D01*
X86576797Y-61816074D01*
X86579947Y-61837309D01*
X86581000Y-61858750D01*
X86581000Y-62296250D01*
X86579947Y-62317691D01*
X86576797Y-62338926D01*
X86571581Y-62359750D01*
X86564349Y-62379962D01*
X86555170Y-62399368D01*
X86544134Y-62417781D01*
X86531346Y-62435024D01*
X86516930Y-62450930D01*
X86501024Y-62465346D01*
X86483781Y-62478134D01*
X86465368Y-62489170D01*
X86445962Y-62498349D01*
X86425750Y-62505581D01*
X86404926Y-62510797D01*
X86383691Y-62513947D01*
X86362250Y-62515000D01*
X85849750Y-62515000D01*
X85828309Y-62513947D01*
X85807074Y-62510797D01*
X85786250Y-62505581D01*
X85766038Y-62498349D01*
X85746632Y-62489170D01*
X85728219Y-62478134D01*
X85710976Y-62465346D01*
X85695070Y-62450930D01*
X85680654Y-62435024D01*
X85667866Y-62417781D01*
X85656830Y-62399368D01*
X85647651Y-62379962D01*
X85640419Y-62359750D01*
X85635203Y-62338926D01*
X85632053Y-62317691D01*
X85631000Y-62296250D01*
X85631000Y-61858750D01*
X85632053Y-61837309D01*
X85635203Y-61816074D01*
X85640419Y-61795250D01*
X85647651Y-61775038D01*
X85656830Y-61755632D01*
X85667866Y-61737219D01*
X85680654Y-61719976D01*
X85695070Y-61704070D01*
X85710976Y-61689654D01*
X85728219Y-61676866D01*
X85746632Y-61665830D01*
X85766038Y-61656651D01*
X85786250Y-61649419D01*
X85807074Y-61644203D01*
X85828309Y-61641053D01*
X85849750Y-61640000D01*
X86362250Y-61640000D01*
X86383691Y-61641053D01*
X86383691Y-61641053D01*
G37*
D42*
X86106000Y-62077500D03*
D11*
G36*
X103274691Y-57450053D02*
X103295926Y-57453203D01*
X103316750Y-57458419D01*
X103336962Y-57465651D01*
X103356368Y-57474830D01*
X103374781Y-57485866D01*
X103392024Y-57498654D01*
X103407930Y-57513070D01*
X103422346Y-57528976D01*
X103435134Y-57546219D01*
X103446170Y-57564632D01*
X103455349Y-57584038D01*
X103462581Y-57604250D01*
X103467797Y-57625074D01*
X103470947Y-57646309D01*
X103472000Y-57667750D01*
X103472000Y-58105250D01*
X103470947Y-58126691D01*
X103467797Y-58147926D01*
X103462581Y-58168750D01*
X103455349Y-58188962D01*
X103446170Y-58208368D01*
X103435134Y-58226781D01*
X103422346Y-58244024D01*
X103407930Y-58259930D01*
X103392024Y-58274346D01*
X103374781Y-58287134D01*
X103356368Y-58298170D01*
X103336962Y-58307349D01*
X103316750Y-58314581D01*
X103295926Y-58319797D01*
X103274691Y-58322947D01*
X103253250Y-58324000D01*
X102740750Y-58324000D01*
X102719309Y-58322947D01*
X102698074Y-58319797D01*
X102677250Y-58314581D01*
X102657038Y-58307349D01*
X102637632Y-58298170D01*
X102619219Y-58287134D01*
X102601976Y-58274346D01*
X102586070Y-58259930D01*
X102571654Y-58244024D01*
X102558866Y-58226781D01*
X102547830Y-58208368D01*
X102538651Y-58188962D01*
X102531419Y-58168750D01*
X102526203Y-58147926D01*
X102523053Y-58126691D01*
X102522000Y-58105250D01*
X102522000Y-57667750D01*
X102523053Y-57646309D01*
X102526203Y-57625074D01*
X102531419Y-57604250D01*
X102538651Y-57584038D01*
X102547830Y-57564632D01*
X102558866Y-57546219D01*
X102571654Y-57528976D01*
X102586070Y-57513070D01*
X102601976Y-57498654D01*
X102619219Y-57485866D01*
X102637632Y-57474830D01*
X102657038Y-57465651D01*
X102677250Y-57458419D01*
X102698074Y-57453203D01*
X102719309Y-57450053D01*
X102740750Y-57449000D01*
X103253250Y-57449000D01*
X103274691Y-57450053D01*
X103274691Y-57450053D01*
G37*
D42*
X102997000Y-57886500D03*
D11*
G36*
X103274691Y-59025053D02*
X103295926Y-59028203D01*
X103316750Y-59033419D01*
X103336962Y-59040651D01*
X103356368Y-59049830D01*
X103374781Y-59060866D01*
X103392024Y-59073654D01*
X103407930Y-59088070D01*
X103422346Y-59103976D01*
X103435134Y-59121219D01*
X103446170Y-59139632D01*
X103455349Y-59159038D01*
X103462581Y-59179250D01*
X103467797Y-59200074D01*
X103470947Y-59221309D01*
X103472000Y-59242750D01*
X103472000Y-59680250D01*
X103470947Y-59701691D01*
X103467797Y-59722926D01*
X103462581Y-59743750D01*
X103455349Y-59763962D01*
X103446170Y-59783368D01*
X103435134Y-59801781D01*
X103422346Y-59819024D01*
X103407930Y-59834930D01*
X103392024Y-59849346D01*
X103374781Y-59862134D01*
X103356368Y-59873170D01*
X103336962Y-59882349D01*
X103316750Y-59889581D01*
X103295926Y-59894797D01*
X103274691Y-59897947D01*
X103253250Y-59899000D01*
X102740750Y-59899000D01*
X102719309Y-59897947D01*
X102698074Y-59894797D01*
X102677250Y-59889581D01*
X102657038Y-59882349D01*
X102637632Y-59873170D01*
X102619219Y-59862134D01*
X102601976Y-59849346D01*
X102586070Y-59834930D01*
X102571654Y-59819024D01*
X102558866Y-59801781D01*
X102547830Y-59783368D01*
X102538651Y-59763962D01*
X102531419Y-59743750D01*
X102526203Y-59722926D01*
X102523053Y-59701691D01*
X102522000Y-59680250D01*
X102522000Y-59242750D01*
X102523053Y-59221309D01*
X102526203Y-59200074D01*
X102531419Y-59179250D01*
X102538651Y-59159038D01*
X102547830Y-59139632D01*
X102558866Y-59121219D01*
X102571654Y-59103976D01*
X102586070Y-59088070D01*
X102601976Y-59073654D01*
X102619219Y-59060866D01*
X102637632Y-59049830D01*
X102657038Y-59040651D01*
X102677250Y-59033419D01*
X102698074Y-59028203D01*
X102719309Y-59025053D01*
X102740750Y-59024000D01*
X103253250Y-59024000D01*
X103274691Y-59025053D01*
X103274691Y-59025053D01*
G37*
D42*
X102997000Y-59461500D03*
D11*
G36*
X105814691Y-59025053D02*
X105835926Y-59028203D01*
X105856750Y-59033419D01*
X105876962Y-59040651D01*
X105896368Y-59049830D01*
X105914781Y-59060866D01*
X105932024Y-59073654D01*
X105947930Y-59088070D01*
X105962346Y-59103976D01*
X105975134Y-59121219D01*
X105986170Y-59139632D01*
X105995349Y-59159038D01*
X106002581Y-59179250D01*
X106007797Y-59200074D01*
X106010947Y-59221309D01*
X106012000Y-59242750D01*
X106012000Y-59680250D01*
X106010947Y-59701691D01*
X106007797Y-59722926D01*
X106002581Y-59743750D01*
X105995349Y-59763962D01*
X105986170Y-59783368D01*
X105975134Y-59801781D01*
X105962346Y-59819024D01*
X105947930Y-59834930D01*
X105932024Y-59849346D01*
X105914781Y-59862134D01*
X105896368Y-59873170D01*
X105876962Y-59882349D01*
X105856750Y-59889581D01*
X105835926Y-59894797D01*
X105814691Y-59897947D01*
X105793250Y-59899000D01*
X105280750Y-59899000D01*
X105259309Y-59897947D01*
X105238074Y-59894797D01*
X105217250Y-59889581D01*
X105197038Y-59882349D01*
X105177632Y-59873170D01*
X105159219Y-59862134D01*
X105141976Y-59849346D01*
X105126070Y-59834930D01*
X105111654Y-59819024D01*
X105098866Y-59801781D01*
X105087830Y-59783368D01*
X105078651Y-59763962D01*
X105071419Y-59743750D01*
X105066203Y-59722926D01*
X105063053Y-59701691D01*
X105062000Y-59680250D01*
X105062000Y-59242750D01*
X105063053Y-59221309D01*
X105066203Y-59200074D01*
X105071419Y-59179250D01*
X105078651Y-59159038D01*
X105087830Y-59139632D01*
X105098866Y-59121219D01*
X105111654Y-59103976D01*
X105126070Y-59088070D01*
X105141976Y-59073654D01*
X105159219Y-59060866D01*
X105177632Y-59049830D01*
X105197038Y-59040651D01*
X105217250Y-59033419D01*
X105238074Y-59028203D01*
X105259309Y-59025053D01*
X105280750Y-59024000D01*
X105793250Y-59024000D01*
X105814691Y-59025053D01*
X105814691Y-59025053D01*
G37*
D42*
X105537000Y-59461500D03*
D11*
G36*
X105814691Y-57450053D02*
X105835926Y-57453203D01*
X105856750Y-57458419D01*
X105876962Y-57465651D01*
X105896368Y-57474830D01*
X105914781Y-57485866D01*
X105932024Y-57498654D01*
X105947930Y-57513070D01*
X105962346Y-57528976D01*
X105975134Y-57546219D01*
X105986170Y-57564632D01*
X105995349Y-57584038D01*
X106002581Y-57604250D01*
X106007797Y-57625074D01*
X106010947Y-57646309D01*
X106012000Y-57667750D01*
X106012000Y-58105250D01*
X106010947Y-58126691D01*
X106007797Y-58147926D01*
X106002581Y-58168750D01*
X105995349Y-58188962D01*
X105986170Y-58208368D01*
X105975134Y-58226781D01*
X105962346Y-58244024D01*
X105947930Y-58259930D01*
X105932024Y-58274346D01*
X105914781Y-58287134D01*
X105896368Y-58298170D01*
X105876962Y-58307349D01*
X105856750Y-58314581D01*
X105835926Y-58319797D01*
X105814691Y-58322947D01*
X105793250Y-58324000D01*
X105280750Y-58324000D01*
X105259309Y-58322947D01*
X105238074Y-58319797D01*
X105217250Y-58314581D01*
X105197038Y-58307349D01*
X105177632Y-58298170D01*
X105159219Y-58287134D01*
X105141976Y-58274346D01*
X105126070Y-58259930D01*
X105111654Y-58244024D01*
X105098866Y-58226781D01*
X105087830Y-58208368D01*
X105078651Y-58188962D01*
X105071419Y-58168750D01*
X105066203Y-58147926D01*
X105063053Y-58126691D01*
X105062000Y-58105250D01*
X105062000Y-57667750D01*
X105063053Y-57646309D01*
X105066203Y-57625074D01*
X105071419Y-57604250D01*
X105078651Y-57584038D01*
X105087830Y-57564632D01*
X105098866Y-57546219D01*
X105111654Y-57528976D01*
X105126070Y-57513070D01*
X105141976Y-57498654D01*
X105159219Y-57485866D01*
X105177632Y-57474830D01*
X105197038Y-57465651D01*
X105217250Y-57458419D01*
X105238074Y-57453203D01*
X105259309Y-57450053D01*
X105280750Y-57449000D01*
X105793250Y-57449000D01*
X105814691Y-57450053D01*
X105814691Y-57450053D01*
G37*
D42*
X105537000Y-57886500D03*
D11*
G36*
X108354691Y-57450053D02*
X108375926Y-57453203D01*
X108396750Y-57458419D01*
X108416962Y-57465651D01*
X108436368Y-57474830D01*
X108454781Y-57485866D01*
X108472024Y-57498654D01*
X108487930Y-57513070D01*
X108502346Y-57528976D01*
X108515134Y-57546219D01*
X108526170Y-57564632D01*
X108535349Y-57584038D01*
X108542581Y-57604250D01*
X108547797Y-57625074D01*
X108550947Y-57646309D01*
X108552000Y-57667750D01*
X108552000Y-58105250D01*
X108550947Y-58126691D01*
X108547797Y-58147926D01*
X108542581Y-58168750D01*
X108535349Y-58188962D01*
X108526170Y-58208368D01*
X108515134Y-58226781D01*
X108502346Y-58244024D01*
X108487930Y-58259930D01*
X108472024Y-58274346D01*
X108454781Y-58287134D01*
X108436368Y-58298170D01*
X108416962Y-58307349D01*
X108396750Y-58314581D01*
X108375926Y-58319797D01*
X108354691Y-58322947D01*
X108333250Y-58324000D01*
X107820750Y-58324000D01*
X107799309Y-58322947D01*
X107778074Y-58319797D01*
X107757250Y-58314581D01*
X107737038Y-58307349D01*
X107717632Y-58298170D01*
X107699219Y-58287134D01*
X107681976Y-58274346D01*
X107666070Y-58259930D01*
X107651654Y-58244024D01*
X107638866Y-58226781D01*
X107627830Y-58208368D01*
X107618651Y-58188962D01*
X107611419Y-58168750D01*
X107606203Y-58147926D01*
X107603053Y-58126691D01*
X107602000Y-58105250D01*
X107602000Y-57667750D01*
X107603053Y-57646309D01*
X107606203Y-57625074D01*
X107611419Y-57604250D01*
X107618651Y-57584038D01*
X107627830Y-57564632D01*
X107638866Y-57546219D01*
X107651654Y-57528976D01*
X107666070Y-57513070D01*
X107681976Y-57498654D01*
X107699219Y-57485866D01*
X107717632Y-57474830D01*
X107737038Y-57465651D01*
X107757250Y-57458419D01*
X107778074Y-57453203D01*
X107799309Y-57450053D01*
X107820750Y-57449000D01*
X108333250Y-57449000D01*
X108354691Y-57450053D01*
X108354691Y-57450053D01*
G37*
D42*
X108077000Y-57886500D03*
D11*
G36*
X108354691Y-59025053D02*
X108375926Y-59028203D01*
X108396750Y-59033419D01*
X108416962Y-59040651D01*
X108436368Y-59049830D01*
X108454781Y-59060866D01*
X108472024Y-59073654D01*
X108487930Y-59088070D01*
X108502346Y-59103976D01*
X108515134Y-59121219D01*
X108526170Y-59139632D01*
X108535349Y-59159038D01*
X108542581Y-59179250D01*
X108547797Y-59200074D01*
X108550947Y-59221309D01*
X108552000Y-59242750D01*
X108552000Y-59680250D01*
X108550947Y-59701691D01*
X108547797Y-59722926D01*
X108542581Y-59743750D01*
X108535349Y-59763962D01*
X108526170Y-59783368D01*
X108515134Y-59801781D01*
X108502346Y-59819024D01*
X108487930Y-59834930D01*
X108472024Y-59849346D01*
X108454781Y-59862134D01*
X108436368Y-59873170D01*
X108416962Y-59882349D01*
X108396750Y-59889581D01*
X108375926Y-59894797D01*
X108354691Y-59897947D01*
X108333250Y-59899000D01*
X107820750Y-59899000D01*
X107799309Y-59897947D01*
X107778074Y-59894797D01*
X107757250Y-59889581D01*
X107737038Y-59882349D01*
X107717632Y-59873170D01*
X107699219Y-59862134D01*
X107681976Y-59849346D01*
X107666070Y-59834930D01*
X107651654Y-59819024D01*
X107638866Y-59801781D01*
X107627830Y-59783368D01*
X107618651Y-59763962D01*
X107611419Y-59743750D01*
X107606203Y-59722926D01*
X107603053Y-59701691D01*
X107602000Y-59680250D01*
X107602000Y-59242750D01*
X107603053Y-59221309D01*
X107606203Y-59200074D01*
X107611419Y-59179250D01*
X107618651Y-59159038D01*
X107627830Y-59139632D01*
X107638866Y-59121219D01*
X107651654Y-59103976D01*
X107666070Y-59088070D01*
X107681976Y-59073654D01*
X107699219Y-59060866D01*
X107717632Y-59049830D01*
X107737038Y-59040651D01*
X107757250Y-59033419D01*
X107778074Y-59028203D01*
X107799309Y-59025053D01*
X107820750Y-59024000D01*
X108333250Y-59024000D01*
X108354691Y-59025053D01*
X108354691Y-59025053D01*
G37*
D42*
X108077000Y-59461500D03*
D11*
G36*
X110894691Y-57450053D02*
X110915926Y-57453203D01*
X110936750Y-57458419D01*
X110956962Y-57465651D01*
X110976368Y-57474830D01*
X110994781Y-57485866D01*
X111012024Y-57498654D01*
X111027930Y-57513070D01*
X111042346Y-57528976D01*
X111055134Y-57546219D01*
X111066170Y-57564632D01*
X111075349Y-57584038D01*
X111082581Y-57604250D01*
X111087797Y-57625074D01*
X111090947Y-57646309D01*
X111092000Y-57667750D01*
X111092000Y-58105250D01*
X111090947Y-58126691D01*
X111087797Y-58147926D01*
X111082581Y-58168750D01*
X111075349Y-58188962D01*
X111066170Y-58208368D01*
X111055134Y-58226781D01*
X111042346Y-58244024D01*
X111027930Y-58259930D01*
X111012024Y-58274346D01*
X110994781Y-58287134D01*
X110976368Y-58298170D01*
X110956962Y-58307349D01*
X110936750Y-58314581D01*
X110915926Y-58319797D01*
X110894691Y-58322947D01*
X110873250Y-58324000D01*
X110360750Y-58324000D01*
X110339309Y-58322947D01*
X110318074Y-58319797D01*
X110297250Y-58314581D01*
X110277038Y-58307349D01*
X110257632Y-58298170D01*
X110239219Y-58287134D01*
X110221976Y-58274346D01*
X110206070Y-58259930D01*
X110191654Y-58244024D01*
X110178866Y-58226781D01*
X110167830Y-58208368D01*
X110158651Y-58188962D01*
X110151419Y-58168750D01*
X110146203Y-58147926D01*
X110143053Y-58126691D01*
X110142000Y-58105250D01*
X110142000Y-57667750D01*
X110143053Y-57646309D01*
X110146203Y-57625074D01*
X110151419Y-57604250D01*
X110158651Y-57584038D01*
X110167830Y-57564632D01*
X110178866Y-57546219D01*
X110191654Y-57528976D01*
X110206070Y-57513070D01*
X110221976Y-57498654D01*
X110239219Y-57485866D01*
X110257632Y-57474830D01*
X110277038Y-57465651D01*
X110297250Y-57458419D01*
X110318074Y-57453203D01*
X110339309Y-57450053D01*
X110360750Y-57449000D01*
X110873250Y-57449000D01*
X110894691Y-57450053D01*
X110894691Y-57450053D01*
G37*
D42*
X110617000Y-57886500D03*
D11*
G36*
X110894691Y-59025053D02*
X110915926Y-59028203D01*
X110936750Y-59033419D01*
X110956962Y-59040651D01*
X110976368Y-59049830D01*
X110994781Y-59060866D01*
X111012024Y-59073654D01*
X111027930Y-59088070D01*
X111042346Y-59103976D01*
X111055134Y-59121219D01*
X111066170Y-59139632D01*
X111075349Y-59159038D01*
X111082581Y-59179250D01*
X111087797Y-59200074D01*
X111090947Y-59221309D01*
X111092000Y-59242750D01*
X111092000Y-59680250D01*
X111090947Y-59701691D01*
X111087797Y-59722926D01*
X111082581Y-59743750D01*
X111075349Y-59763962D01*
X111066170Y-59783368D01*
X111055134Y-59801781D01*
X111042346Y-59819024D01*
X111027930Y-59834930D01*
X111012024Y-59849346D01*
X110994781Y-59862134D01*
X110976368Y-59873170D01*
X110956962Y-59882349D01*
X110936750Y-59889581D01*
X110915926Y-59894797D01*
X110894691Y-59897947D01*
X110873250Y-59899000D01*
X110360750Y-59899000D01*
X110339309Y-59897947D01*
X110318074Y-59894797D01*
X110297250Y-59889581D01*
X110277038Y-59882349D01*
X110257632Y-59873170D01*
X110239219Y-59862134D01*
X110221976Y-59849346D01*
X110206070Y-59834930D01*
X110191654Y-59819024D01*
X110178866Y-59801781D01*
X110167830Y-59783368D01*
X110158651Y-59763962D01*
X110151419Y-59743750D01*
X110146203Y-59722926D01*
X110143053Y-59701691D01*
X110142000Y-59680250D01*
X110142000Y-59242750D01*
X110143053Y-59221309D01*
X110146203Y-59200074D01*
X110151419Y-59179250D01*
X110158651Y-59159038D01*
X110167830Y-59139632D01*
X110178866Y-59121219D01*
X110191654Y-59103976D01*
X110206070Y-59088070D01*
X110221976Y-59073654D01*
X110239219Y-59060866D01*
X110257632Y-59049830D01*
X110277038Y-59040651D01*
X110297250Y-59033419D01*
X110318074Y-59028203D01*
X110339309Y-59025053D01*
X110360750Y-59024000D01*
X110873250Y-59024000D01*
X110894691Y-59025053D01*
X110894691Y-59025053D01*
G37*
D42*
X110617000Y-59461500D03*
D11*
G36*
X113434691Y-59025053D02*
X113455926Y-59028203D01*
X113476750Y-59033419D01*
X113496962Y-59040651D01*
X113516368Y-59049830D01*
X113534781Y-59060866D01*
X113552024Y-59073654D01*
X113567930Y-59088070D01*
X113582346Y-59103976D01*
X113595134Y-59121219D01*
X113606170Y-59139632D01*
X113615349Y-59159038D01*
X113622581Y-59179250D01*
X113627797Y-59200074D01*
X113630947Y-59221309D01*
X113632000Y-59242750D01*
X113632000Y-59680250D01*
X113630947Y-59701691D01*
X113627797Y-59722926D01*
X113622581Y-59743750D01*
X113615349Y-59763962D01*
X113606170Y-59783368D01*
X113595134Y-59801781D01*
X113582346Y-59819024D01*
X113567930Y-59834930D01*
X113552024Y-59849346D01*
X113534781Y-59862134D01*
X113516368Y-59873170D01*
X113496962Y-59882349D01*
X113476750Y-59889581D01*
X113455926Y-59894797D01*
X113434691Y-59897947D01*
X113413250Y-59899000D01*
X112900750Y-59899000D01*
X112879309Y-59897947D01*
X112858074Y-59894797D01*
X112837250Y-59889581D01*
X112817038Y-59882349D01*
X112797632Y-59873170D01*
X112779219Y-59862134D01*
X112761976Y-59849346D01*
X112746070Y-59834930D01*
X112731654Y-59819024D01*
X112718866Y-59801781D01*
X112707830Y-59783368D01*
X112698651Y-59763962D01*
X112691419Y-59743750D01*
X112686203Y-59722926D01*
X112683053Y-59701691D01*
X112682000Y-59680250D01*
X112682000Y-59242750D01*
X112683053Y-59221309D01*
X112686203Y-59200074D01*
X112691419Y-59179250D01*
X112698651Y-59159038D01*
X112707830Y-59139632D01*
X112718866Y-59121219D01*
X112731654Y-59103976D01*
X112746070Y-59088070D01*
X112761976Y-59073654D01*
X112779219Y-59060866D01*
X112797632Y-59049830D01*
X112817038Y-59040651D01*
X112837250Y-59033419D01*
X112858074Y-59028203D01*
X112879309Y-59025053D01*
X112900750Y-59024000D01*
X113413250Y-59024000D01*
X113434691Y-59025053D01*
X113434691Y-59025053D01*
G37*
D42*
X113157000Y-59461500D03*
D11*
G36*
X113434691Y-57450053D02*
X113455926Y-57453203D01*
X113476750Y-57458419D01*
X113496962Y-57465651D01*
X113516368Y-57474830D01*
X113534781Y-57485866D01*
X113552024Y-57498654D01*
X113567930Y-57513070D01*
X113582346Y-57528976D01*
X113595134Y-57546219D01*
X113606170Y-57564632D01*
X113615349Y-57584038D01*
X113622581Y-57604250D01*
X113627797Y-57625074D01*
X113630947Y-57646309D01*
X113632000Y-57667750D01*
X113632000Y-58105250D01*
X113630947Y-58126691D01*
X113627797Y-58147926D01*
X113622581Y-58168750D01*
X113615349Y-58188962D01*
X113606170Y-58208368D01*
X113595134Y-58226781D01*
X113582346Y-58244024D01*
X113567930Y-58259930D01*
X113552024Y-58274346D01*
X113534781Y-58287134D01*
X113516368Y-58298170D01*
X113496962Y-58307349D01*
X113476750Y-58314581D01*
X113455926Y-58319797D01*
X113434691Y-58322947D01*
X113413250Y-58324000D01*
X112900750Y-58324000D01*
X112879309Y-58322947D01*
X112858074Y-58319797D01*
X112837250Y-58314581D01*
X112817038Y-58307349D01*
X112797632Y-58298170D01*
X112779219Y-58287134D01*
X112761976Y-58274346D01*
X112746070Y-58259930D01*
X112731654Y-58244024D01*
X112718866Y-58226781D01*
X112707830Y-58208368D01*
X112698651Y-58188962D01*
X112691419Y-58168750D01*
X112686203Y-58147926D01*
X112683053Y-58126691D01*
X112682000Y-58105250D01*
X112682000Y-57667750D01*
X112683053Y-57646309D01*
X112686203Y-57625074D01*
X112691419Y-57604250D01*
X112698651Y-57584038D01*
X112707830Y-57564632D01*
X112718866Y-57546219D01*
X112731654Y-57528976D01*
X112746070Y-57513070D01*
X112761976Y-57498654D01*
X112779219Y-57485866D01*
X112797632Y-57474830D01*
X112817038Y-57465651D01*
X112837250Y-57458419D01*
X112858074Y-57453203D01*
X112879309Y-57450053D01*
X112900750Y-57449000D01*
X113413250Y-57449000D01*
X113434691Y-57450053D01*
X113434691Y-57450053D01*
G37*
D42*
X113157000Y-57886500D03*
D11*
G36*
X116101691Y-57450053D02*
X116122926Y-57453203D01*
X116143750Y-57458419D01*
X116163962Y-57465651D01*
X116183368Y-57474830D01*
X116201781Y-57485866D01*
X116219024Y-57498654D01*
X116234930Y-57513070D01*
X116249346Y-57528976D01*
X116262134Y-57546219D01*
X116273170Y-57564632D01*
X116282349Y-57584038D01*
X116289581Y-57604250D01*
X116294797Y-57625074D01*
X116297947Y-57646309D01*
X116299000Y-57667750D01*
X116299000Y-58105250D01*
X116297947Y-58126691D01*
X116294797Y-58147926D01*
X116289581Y-58168750D01*
X116282349Y-58188962D01*
X116273170Y-58208368D01*
X116262134Y-58226781D01*
X116249346Y-58244024D01*
X116234930Y-58259930D01*
X116219024Y-58274346D01*
X116201781Y-58287134D01*
X116183368Y-58298170D01*
X116163962Y-58307349D01*
X116143750Y-58314581D01*
X116122926Y-58319797D01*
X116101691Y-58322947D01*
X116080250Y-58324000D01*
X115567750Y-58324000D01*
X115546309Y-58322947D01*
X115525074Y-58319797D01*
X115504250Y-58314581D01*
X115484038Y-58307349D01*
X115464632Y-58298170D01*
X115446219Y-58287134D01*
X115428976Y-58274346D01*
X115413070Y-58259930D01*
X115398654Y-58244024D01*
X115385866Y-58226781D01*
X115374830Y-58208368D01*
X115365651Y-58188962D01*
X115358419Y-58168750D01*
X115353203Y-58147926D01*
X115350053Y-58126691D01*
X115349000Y-58105250D01*
X115349000Y-57667750D01*
X115350053Y-57646309D01*
X115353203Y-57625074D01*
X115358419Y-57604250D01*
X115365651Y-57584038D01*
X115374830Y-57564632D01*
X115385866Y-57546219D01*
X115398654Y-57528976D01*
X115413070Y-57513070D01*
X115428976Y-57498654D01*
X115446219Y-57485866D01*
X115464632Y-57474830D01*
X115484038Y-57465651D01*
X115504250Y-57458419D01*
X115525074Y-57453203D01*
X115546309Y-57450053D01*
X115567750Y-57449000D01*
X116080250Y-57449000D01*
X116101691Y-57450053D01*
X116101691Y-57450053D01*
G37*
D42*
X115824000Y-57886500D03*
D11*
G36*
X116101691Y-59025053D02*
X116122926Y-59028203D01*
X116143750Y-59033419D01*
X116163962Y-59040651D01*
X116183368Y-59049830D01*
X116201781Y-59060866D01*
X116219024Y-59073654D01*
X116234930Y-59088070D01*
X116249346Y-59103976D01*
X116262134Y-59121219D01*
X116273170Y-59139632D01*
X116282349Y-59159038D01*
X116289581Y-59179250D01*
X116294797Y-59200074D01*
X116297947Y-59221309D01*
X116299000Y-59242750D01*
X116299000Y-59680250D01*
X116297947Y-59701691D01*
X116294797Y-59722926D01*
X116289581Y-59743750D01*
X116282349Y-59763962D01*
X116273170Y-59783368D01*
X116262134Y-59801781D01*
X116249346Y-59819024D01*
X116234930Y-59834930D01*
X116219024Y-59849346D01*
X116201781Y-59862134D01*
X116183368Y-59873170D01*
X116163962Y-59882349D01*
X116143750Y-59889581D01*
X116122926Y-59894797D01*
X116101691Y-59897947D01*
X116080250Y-59899000D01*
X115567750Y-59899000D01*
X115546309Y-59897947D01*
X115525074Y-59894797D01*
X115504250Y-59889581D01*
X115484038Y-59882349D01*
X115464632Y-59873170D01*
X115446219Y-59862134D01*
X115428976Y-59849346D01*
X115413070Y-59834930D01*
X115398654Y-59819024D01*
X115385866Y-59801781D01*
X115374830Y-59783368D01*
X115365651Y-59763962D01*
X115358419Y-59743750D01*
X115353203Y-59722926D01*
X115350053Y-59701691D01*
X115349000Y-59680250D01*
X115349000Y-59242750D01*
X115350053Y-59221309D01*
X115353203Y-59200074D01*
X115358419Y-59179250D01*
X115365651Y-59159038D01*
X115374830Y-59139632D01*
X115385866Y-59121219D01*
X115398654Y-59103976D01*
X115413070Y-59088070D01*
X115428976Y-59073654D01*
X115446219Y-59060866D01*
X115464632Y-59049830D01*
X115484038Y-59040651D01*
X115504250Y-59033419D01*
X115525074Y-59028203D01*
X115546309Y-59025053D01*
X115567750Y-59024000D01*
X116080250Y-59024000D01*
X116101691Y-59025053D01*
X116101691Y-59025053D01*
G37*
D42*
X115824000Y-59461500D03*
D11*
G36*
X118514691Y-59025053D02*
X118535926Y-59028203D01*
X118556750Y-59033419D01*
X118576962Y-59040651D01*
X118596368Y-59049830D01*
X118614781Y-59060866D01*
X118632024Y-59073654D01*
X118647930Y-59088070D01*
X118662346Y-59103976D01*
X118675134Y-59121219D01*
X118686170Y-59139632D01*
X118695349Y-59159038D01*
X118702581Y-59179250D01*
X118707797Y-59200074D01*
X118710947Y-59221309D01*
X118712000Y-59242750D01*
X118712000Y-59680250D01*
X118710947Y-59701691D01*
X118707797Y-59722926D01*
X118702581Y-59743750D01*
X118695349Y-59763962D01*
X118686170Y-59783368D01*
X118675134Y-59801781D01*
X118662346Y-59819024D01*
X118647930Y-59834930D01*
X118632024Y-59849346D01*
X118614781Y-59862134D01*
X118596368Y-59873170D01*
X118576962Y-59882349D01*
X118556750Y-59889581D01*
X118535926Y-59894797D01*
X118514691Y-59897947D01*
X118493250Y-59899000D01*
X117980750Y-59899000D01*
X117959309Y-59897947D01*
X117938074Y-59894797D01*
X117917250Y-59889581D01*
X117897038Y-59882349D01*
X117877632Y-59873170D01*
X117859219Y-59862134D01*
X117841976Y-59849346D01*
X117826070Y-59834930D01*
X117811654Y-59819024D01*
X117798866Y-59801781D01*
X117787830Y-59783368D01*
X117778651Y-59763962D01*
X117771419Y-59743750D01*
X117766203Y-59722926D01*
X117763053Y-59701691D01*
X117762000Y-59680250D01*
X117762000Y-59242750D01*
X117763053Y-59221309D01*
X117766203Y-59200074D01*
X117771419Y-59179250D01*
X117778651Y-59159038D01*
X117787830Y-59139632D01*
X117798866Y-59121219D01*
X117811654Y-59103976D01*
X117826070Y-59088070D01*
X117841976Y-59073654D01*
X117859219Y-59060866D01*
X117877632Y-59049830D01*
X117897038Y-59040651D01*
X117917250Y-59033419D01*
X117938074Y-59028203D01*
X117959309Y-59025053D01*
X117980750Y-59024000D01*
X118493250Y-59024000D01*
X118514691Y-59025053D01*
X118514691Y-59025053D01*
G37*
D42*
X118237000Y-59461500D03*
D11*
G36*
X118514691Y-57450053D02*
X118535926Y-57453203D01*
X118556750Y-57458419D01*
X118576962Y-57465651D01*
X118596368Y-57474830D01*
X118614781Y-57485866D01*
X118632024Y-57498654D01*
X118647930Y-57513070D01*
X118662346Y-57528976D01*
X118675134Y-57546219D01*
X118686170Y-57564632D01*
X118695349Y-57584038D01*
X118702581Y-57604250D01*
X118707797Y-57625074D01*
X118710947Y-57646309D01*
X118712000Y-57667750D01*
X118712000Y-58105250D01*
X118710947Y-58126691D01*
X118707797Y-58147926D01*
X118702581Y-58168750D01*
X118695349Y-58188962D01*
X118686170Y-58208368D01*
X118675134Y-58226781D01*
X118662346Y-58244024D01*
X118647930Y-58259930D01*
X118632024Y-58274346D01*
X118614781Y-58287134D01*
X118596368Y-58298170D01*
X118576962Y-58307349D01*
X118556750Y-58314581D01*
X118535926Y-58319797D01*
X118514691Y-58322947D01*
X118493250Y-58324000D01*
X117980750Y-58324000D01*
X117959309Y-58322947D01*
X117938074Y-58319797D01*
X117917250Y-58314581D01*
X117897038Y-58307349D01*
X117877632Y-58298170D01*
X117859219Y-58287134D01*
X117841976Y-58274346D01*
X117826070Y-58259930D01*
X117811654Y-58244024D01*
X117798866Y-58226781D01*
X117787830Y-58208368D01*
X117778651Y-58188962D01*
X117771419Y-58168750D01*
X117766203Y-58147926D01*
X117763053Y-58126691D01*
X117762000Y-58105250D01*
X117762000Y-57667750D01*
X117763053Y-57646309D01*
X117766203Y-57625074D01*
X117771419Y-57604250D01*
X117778651Y-57584038D01*
X117787830Y-57564632D01*
X117798866Y-57546219D01*
X117811654Y-57528976D01*
X117826070Y-57513070D01*
X117841976Y-57498654D01*
X117859219Y-57485866D01*
X117877632Y-57474830D01*
X117897038Y-57465651D01*
X117917250Y-57458419D01*
X117938074Y-57453203D01*
X117959309Y-57450053D01*
X117980750Y-57449000D01*
X118493250Y-57449000D01*
X118514691Y-57450053D01*
X118514691Y-57450053D01*
G37*
D42*
X118237000Y-57886500D03*
D11*
G36*
X92479691Y-58771053D02*
X92500926Y-58774203D01*
X92521750Y-58779419D01*
X92541962Y-58786651D01*
X92561368Y-58795830D01*
X92579781Y-58806866D01*
X92597024Y-58819654D01*
X92612930Y-58834070D01*
X92627346Y-58849976D01*
X92640134Y-58867219D01*
X92651170Y-58885632D01*
X92660349Y-58905038D01*
X92667581Y-58925250D01*
X92672797Y-58946074D01*
X92675947Y-58967309D01*
X92677000Y-58988750D01*
X92677000Y-59426250D01*
X92675947Y-59447691D01*
X92672797Y-59468926D01*
X92667581Y-59489750D01*
X92660349Y-59509962D01*
X92651170Y-59529368D01*
X92640134Y-59547781D01*
X92627346Y-59565024D01*
X92612930Y-59580930D01*
X92597024Y-59595346D01*
X92579781Y-59608134D01*
X92561368Y-59619170D01*
X92541962Y-59628349D01*
X92521750Y-59635581D01*
X92500926Y-59640797D01*
X92479691Y-59643947D01*
X92458250Y-59645000D01*
X91945750Y-59645000D01*
X91924309Y-59643947D01*
X91903074Y-59640797D01*
X91882250Y-59635581D01*
X91862038Y-59628349D01*
X91842632Y-59619170D01*
X91824219Y-59608134D01*
X91806976Y-59595346D01*
X91791070Y-59580930D01*
X91776654Y-59565024D01*
X91763866Y-59547781D01*
X91752830Y-59529368D01*
X91743651Y-59509962D01*
X91736419Y-59489750D01*
X91731203Y-59468926D01*
X91728053Y-59447691D01*
X91727000Y-59426250D01*
X91727000Y-58988750D01*
X91728053Y-58967309D01*
X91731203Y-58946074D01*
X91736419Y-58925250D01*
X91743651Y-58905038D01*
X91752830Y-58885632D01*
X91763866Y-58867219D01*
X91776654Y-58849976D01*
X91791070Y-58834070D01*
X91806976Y-58819654D01*
X91824219Y-58806866D01*
X91842632Y-58795830D01*
X91862038Y-58786651D01*
X91882250Y-58779419D01*
X91903074Y-58774203D01*
X91924309Y-58771053D01*
X91945750Y-58770000D01*
X92458250Y-58770000D01*
X92479691Y-58771053D01*
X92479691Y-58771053D01*
G37*
D42*
X92202000Y-59207500D03*
D11*
G36*
X92479691Y-57196053D02*
X92500926Y-57199203D01*
X92521750Y-57204419D01*
X92541962Y-57211651D01*
X92561368Y-57220830D01*
X92579781Y-57231866D01*
X92597024Y-57244654D01*
X92612930Y-57259070D01*
X92627346Y-57274976D01*
X92640134Y-57292219D01*
X92651170Y-57310632D01*
X92660349Y-57330038D01*
X92667581Y-57350250D01*
X92672797Y-57371074D01*
X92675947Y-57392309D01*
X92677000Y-57413750D01*
X92677000Y-57851250D01*
X92675947Y-57872691D01*
X92672797Y-57893926D01*
X92667581Y-57914750D01*
X92660349Y-57934962D01*
X92651170Y-57954368D01*
X92640134Y-57972781D01*
X92627346Y-57990024D01*
X92612930Y-58005930D01*
X92597024Y-58020346D01*
X92579781Y-58033134D01*
X92561368Y-58044170D01*
X92541962Y-58053349D01*
X92521750Y-58060581D01*
X92500926Y-58065797D01*
X92479691Y-58068947D01*
X92458250Y-58070000D01*
X91945750Y-58070000D01*
X91924309Y-58068947D01*
X91903074Y-58065797D01*
X91882250Y-58060581D01*
X91862038Y-58053349D01*
X91842632Y-58044170D01*
X91824219Y-58033134D01*
X91806976Y-58020346D01*
X91791070Y-58005930D01*
X91776654Y-57990024D01*
X91763866Y-57972781D01*
X91752830Y-57954368D01*
X91743651Y-57934962D01*
X91736419Y-57914750D01*
X91731203Y-57893926D01*
X91728053Y-57872691D01*
X91727000Y-57851250D01*
X91727000Y-57413750D01*
X91728053Y-57392309D01*
X91731203Y-57371074D01*
X91736419Y-57350250D01*
X91743651Y-57330038D01*
X91752830Y-57310632D01*
X91763866Y-57292219D01*
X91776654Y-57274976D01*
X91791070Y-57259070D01*
X91806976Y-57244654D01*
X91824219Y-57231866D01*
X91842632Y-57220830D01*
X91862038Y-57211651D01*
X91882250Y-57204419D01*
X91903074Y-57199203D01*
X91924309Y-57196053D01*
X91945750Y-57195000D01*
X92458250Y-57195000D01*
X92479691Y-57196053D01*
X92479691Y-57196053D01*
G37*
D42*
X92202000Y-57632500D03*
D43*
X112903000Y-111327000D03*
X114173000Y-111327000D03*
X114173000Y-104827000D03*
X112903000Y-104827000D03*
X112903000Y-123773000D03*
X114173000Y-123773000D03*
X114173000Y-117273000D03*
X112903000Y-117273000D03*
X112903000Y-65584000D03*
X114173000Y-65584000D03*
X114173000Y-72084000D03*
X112903000Y-72084000D03*
X112903000Y-98500000D03*
X114173000Y-98500000D03*
X114173000Y-92000000D03*
X112903000Y-92000000D03*
X74041000Y-72084000D03*
X72771000Y-72084000D03*
X72771000Y-65584000D03*
X74041000Y-65584000D03*
X74041000Y-97484000D03*
X72771000Y-97484000D03*
X72771000Y-90984000D03*
X74041000Y-90984000D03*
X74041000Y-122249000D03*
X72771000Y-122249000D03*
X72771000Y-115749000D03*
X74041000Y-115749000D03*
X74041000Y-103430000D03*
X72771000Y-103430000D03*
X72771000Y-109930000D03*
X74041000Y-109930000D03*
X113030000Y-78792000D03*
X114300000Y-78792000D03*
X114300000Y-85292000D03*
X113030000Y-85292000D03*
X74041000Y-78030000D03*
X72771000Y-78030000D03*
X72771000Y-84530000D03*
X74041000Y-84530000D03*
D12*
X59385200Y-134162800D03*
X105422700Y-70571360D03*
X125984000Y-134874000D03*
X59055000Y-57277000D03*
D44*
X119634000Y-105648000D03*
X118684000Y-103648000D03*
X120584000Y-103648000D03*
X119507000Y-118221000D03*
X118557000Y-116221000D03*
X120457000Y-116221000D03*
X119634000Y-66532000D03*
X118684000Y-64532000D03*
X120584000Y-64532000D03*
X120584000Y-90821000D03*
X118684000Y-90821000D03*
X119634000Y-92821000D03*
X67310000Y-69993000D03*
X68260000Y-71993000D03*
X66360000Y-71993000D03*
X66328238Y-97246488D03*
X68228238Y-97246488D03*
X67278238Y-95246488D03*
X67372620Y-121250583D03*
X68322620Y-123250583D03*
X66422620Y-123250583D03*
X66398866Y-110324810D03*
X68298866Y-110324810D03*
X67348866Y-108324810D03*
X120584000Y-77613000D03*
X118684000Y-77613000D03*
X119634000Y-79613000D03*
X66337985Y-84360617D03*
X68237985Y-84360617D03*
X67287985Y-82360617D03*
D11*
G36*
X131072451Y-56616933D02*
X131093686Y-56620083D01*
X131114510Y-56625299D01*
X131134722Y-56632531D01*
X131154128Y-56641710D01*
X131172541Y-56652746D01*
X131189784Y-56665534D01*
X131205690Y-56679950D01*
X131220106Y-56695856D01*
X131232894Y-56713099D01*
X131243930Y-56731512D01*
X131253109Y-56750918D01*
X131260341Y-56771130D01*
X131265557Y-56791954D01*
X131268707Y-56813189D01*
X131269760Y-56834630D01*
X131269760Y-57272130D01*
X131268707Y-57293571D01*
X131265557Y-57314806D01*
X131260341Y-57335630D01*
X131253109Y-57355842D01*
X131243930Y-57375248D01*
X131232894Y-57393661D01*
X131220106Y-57410904D01*
X131205690Y-57426810D01*
X131189784Y-57441226D01*
X131172541Y-57454014D01*
X131154128Y-57465050D01*
X131134722Y-57474229D01*
X131114510Y-57481461D01*
X131093686Y-57486677D01*
X131072451Y-57489827D01*
X131051010Y-57490880D01*
X130538510Y-57490880D01*
X130517069Y-57489827D01*
X130495834Y-57486677D01*
X130475010Y-57481461D01*
X130454798Y-57474229D01*
X130435392Y-57465050D01*
X130416979Y-57454014D01*
X130399736Y-57441226D01*
X130383830Y-57426810D01*
X130369414Y-57410904D01*
X130356626Y-57393661D01*
X130345590Y-57375248D01*
X130336411Y-57355842D01*
X130329179Y-57335630D01*
X130323963Y-57314806D01*
X130320813Y-57293571D01*
X130319760Y-57272130D01*
X130319760Y-56834630D01*
X130320813Y-56813189D01*
X130323963Y-56791954D01*
X130329179Y-56771130D01*
X130336411Y-56750918D01*
X130345590Y-56731512D01*
X130356626Y-56713099D01*
X130369414Y-56695856D01*
X130383830Y-56679950D01*
X130399736Y-56665534D01*
X130416979Y-56652746D01*
X130435392Y-56641710D01*
X130454798Y-56632531D01*
X130475010Y-56625299D01*
X130495834Y-56620083D01*
X130517069Y-56616933D01*
X130538510Y-56615880D01*
X131051010Y-56615880D01*
X131072451Y-56616933D01*
X131072451Y-56616933D01*
G37*
D42*
X130794760Y-57053380D03*
D11*
G36*
X131072451Y-58191933D02*
X131093686Y-58195083D01*
X131114510Y-58200299D01*
X131134722Y-58207531D01*
X131154128Y-58216710D01*
X131172541Y-58227746D01*
X131189784Y-58240534D01*
X131205690Y-58254950D01*
X131220106Y-58270856D01*
X131232894Y-58288099D01*
X131243930Y-58306512D01*
X131253109Y-58325918D01*
X131260341Y-58346130D01*
X131265557Y-58366954D01*
X131268707Y-58388189D01*
X131269760Y-58409630D01*
X131269760Y-58847130D01*
X131268707Y-58868571D01*
X131265557Y-58889806D01*
X131260341Y-58910630D01*
X131253109Y-58930842D01*
X131243930Y-58950248D01*
X131232894Y-58968661D01*
X131220106Y-58985904D01*
X131205690Y-59001810D01*
X131189784Y-59016226D01*
X131172541Y-59029014D01*
X131154128Y-59040050D01*
X131134722Y-59049229D01*
X131114510Y-59056461D01*
X131093686Y-59061677D01*
X131072451Y-59064827D01*
X131051010Y-59065880D01*
X130538510Y-59065880D01*
X130517069Y-59064827D01*
X130495834Y-59061677D01*
X130475010Y-59056461D01*
X130454798Y-59049229D01*
X130435392Y-59040050D01*
X130416979Y-59029014D01*
X130399736Y-59016226D01*
X130383830Y-59001810D01*
X130369414Y-58985904D01*
X130356626Y-58968661D01*
X130345590Y-58950248D01*
X130336411Y-58930842D01*
X130329179Y-58910630D01*
X130323963Y-58889806D01*
X130320813Y-58868571D01*
X130319760Y-58847130D01*
X130319760Y-58409630D01*
X130320813Y-58388189D01*
X130323963Y-58366954D01*
X130329179Y-58346130D01*
X130336411Y-58325918D01*
X130345590Y-58306512D01*
X130356626Y-58288099D01*
X130369414Y-58270856D01*
X130383830Y-58254950D01*
X130399736Y-58240534D01*
X130416979Y-58227746D01*
X130435392Y-58216710D01*
X130454798Y-58207531D01*
X130475010Y-58200299D01*
X130495834Y-58195083D01*
X130517069Y-58191933D01*
X130538510Y-58190880D01*
X131051010Y-58190880D01*
X131072451Y-58191933D01*
X131072451Y-58191933D01*
G37*
D42*
X130794760Y-58628380D03*
D13*
X96242000Y-114173000D03*
X118872000Y-108712000D03*
X122428000Y-107188000D03*
X122428000Y-68072000D03*
X118872000Y-69342000D03*
X118872000Y-82423000D03*
X122428000Y-81153000D03*
X118872000Y-95758000D03*
X122428000Y-94361000D03*
X122301000Y-119634000D03*
X118745000Y-121158000D03*
X64643000Y-67945000D03*
X68072000Y-66548000D03*
X64516000Y-80137000D03*
X68072000Y-78867000D03*
X68072000Y-91948000D03*
X64516000Y-93091000D03*
X64643000Y-106299000D03*
X68072000Y-105029000D03*
X64643000Y-118999000D03*
X68341437Y-118456010D03*
X66395600Y-111633000D03*
X66319400Y-98729800D03*
X66319400Y-85801200D03*
X66344800Y-73431400D03*
X120599200Y-63169800D03*
X120599200Y-75996800D03*
X120599200Y-89433400D03*
X120573800Y-102031800D03*
X120472200Y-114757200D03*
X72136000Y-62611000D03*
X72136000Y-75184000D03*
X72136000Y-88011000D03*
X72136000Y-100584000D03*
X72136000Y-112903000D03*
X114808000Y-114554000D03*
X114808000Y-88138000D03*
X114808000Y-74803000D03*
X88646000Y-104394000D03*
X97028000Y-106045000D03*
X90551000Y-97282000D03*
X90551000Y-95885000D03*
X91179573Y-91830007D03*
X96520000Y-92837000D03*
X102235000Y-103886000D03*
X94107000Y-97917000D03*
X84074000Y-98171000D03*
X84074000Y-99822000D03*
X88265000Y-76454000D03*
X91059000Y-77343000D03*
X101346000Y-90551000D03*
X97282000Y-103759000D03*
X90297000Y-86360000D03*
X114808617Y-101966977D03*
X114808000Y-125983999D03*
X95701391Y-58542481D03*
X92341700Y-64452500D03*
X99834000Y-90043002D03*
X97409000Y-85852000D03*
X89281000Y-85090000D03*
X88965001Y-77277999D03*
X99822000Y-92710000D03*
X100838000Y-98806000D03*
X93853000Y-60020176D03*
X105410000Y-94361000D03*
X91313000Y-51943000D03*
X103285990Y-96266000D03*
X95072198Y-51943000D03*
X87503000Y-102743000D03*
X85433984Y-101346000D03*
X91109800Y-61188600D03*
X99288602Y-49926810D03*
X101777800Y-49010990D03*
X100660200Y-58318400D03*
X130007942Y-55147910D03*
X100685600Y-59182000D03*
X132057140Y-54089300D03*
X79756000Y-61341000D03*
X76796206Y-57286594D03*
X76326999Y-52603400D03*
X80289396Y-57886604D03*
X73710800Y-52578002D03*
X73670245Y-51185547D03*
X82296000Y-61074300D03*
X86487000Y-57658000D03*
X86233000Y-61087000D03*
X86487000Y-52628800D03*
X86537800Y-51054000D03*
X82268018Y-57637666D03*
X81381600Y-52603400D03*
X84150200Y-61277500D03*
X107950000Y-85217000D03*
X128270000Y-57912000D03*
X101505180Y-62062223D03*
X108356400Y-82245200D03*
X109982000Y-81026000D03*
X101032363Y-61416883D03*
X107188000Y-93497400D03*
X97002600Y-61671200D03*
X93624400Y-49326800D03*
X104190800Y-49657002D03*
X109866503Y-90932000D03*
X109201268Y-78848268D03*
X83693000Y-65913000D03*
X83693000Y-76962000D03*
X86487008Y-83439000D03*
X88108270Y-82901270D03*
X82931000Y-66548000D03*
X83693000Y-78486000D03*
X87249000Y-92329000D03*
X107442000Y-114427000D03*
X107061000Y-116522500D03*
X107950000Y-115189000D03*
X107886500Y-117475000D03*
X103124000Y-93726000D03*
X106045000Y-90805000D03*
X102870000Y-92964000D03*
X104775000Y-91059000D03*
X104775000Y-85470998D03*
X105410000Y-84074000D03*
X97028000Y-100711000D03*
X105410000Y-99441000D03*
X101727000Y-96520000D03*
X104013000Y-89535000D03*
X98907600Y-62331600D03*
X128917702Y-56405780D03*
X85217000Y-90551000D03*
X81657968Y-86995000D03*
X80010000Y-92837006D03*
X87757000Y-94361000D03*
X86952290Y-94741430D03*
X82057987Y-92370791D03*
X85090000Y-94503979D03*
X82457990Y-93267822D03*
X105410000Y-107950000D03*
X103886000Y-106426000D03*
X109728000Y-113550000D03*
X107188000Y-111734600D03*
X108889800Y-117500400D03*
X107086404Y-112953800D03*
X93091000Y-89027000D03*
X103012979Y-79121000D03*
X97789999Y-84454997D03*
X111252000Y-75844400D03*
X93726000Y-94234000D03*
X98298000Y-98806000D03*
X102743000Y-102997000D03*
X110235999Y-102515924D03*
X78105000Y-62865000D03*
X93218000Y-77978000D03*
X78117000Y-89777000D03*
X87884000Y-91313000D03*
X77724000Y-110998000D03*
X86187608Y-102616000D03*
X78167000Y-103251000D03*
X83023010Y-105029002D03*
X97790000Y-101473000D03*
X98425000Y-105664000D03*
X80856056Y-61920032D03*
X71246998Y-51282600D03*
X103285990Y-95377000D03*
X110998000Y-89154000D03*
X77978000Y-75311000D03*
X89154000Y-90551000D03*
X93218000Y-94996000D03*
X88655990Y-86106004D03*
X97155000Y-90297000D03*
X96393000Y-85979000D03*
X93599000Y-76962000D03*
X90297000Y-73152000D03*
X97409000Y-86741000D03*
X97408994Y-88519000D03*
D45*
X95250000Y-113181000D02*
X95250000Y-113157000D01*
X95250000Y-113157000D02*
X94615000Y-112522000D01*
X94615000Y-112522000D02*
X94107000Y-112522000D01*
X93439000Y-111854000D02*
X93091000Y-111854000D01*
X94107000Y-112522000D02*
X93439000Y-111854000D01*
X96750000Y-114681000D02*
X96242000Y-114173000D01*
X98900000Y-114681000D02*
X96750000Y-114681000D01*
X96242000Y-114173000D02*
X95250000Y-113181000D01*
X118884000Y-107188000D02*
X118884000Y-108700000D01*
X118884000Y-108700000D02*
X118872000Y-108712000D01*
D46*
X122367000Y-105821000D02*
X122367000Y-107127000D01*
D45*
X122367000Y-107127000D02*
X122428000Y-107188000D01*
D46*
X122367000Y-66832000D02*
X122367000Y-68011000D01*
D45*
X122367000Y-68011000D02*
X122428000Y-68072000D01*
X118884000Y-68072000D02*
X118884000Y-69330000D01*
X118884000Y-69330000D02*
X118872000Y-69342000D01*
X118872000Y-81153000D02*
X118872000Y-82423000D01*
D46*
X122367000Y-79913000D02*
X122367000Y-81092000D01*
D45*
X122367000Y-81092000D02*
X122428000Y-81153000D01*
X118884000Y-94361000D02*
X118884000Y-95746000D01*
X118884000Y-95746000D02*
X118872000Y-95758000D01*
D46*
X122367000Y-92994000D02*
X122367000Y-94300000D01*
D45*
X122367000Y-94300000D02*
X122428000Y-94361000D01*
D46*
X122240000Y-118237000D02*
X122240000Y-119573000D01*
D45*
X122240000Y-119573000D02*
X122301000Y-119634000D01*
X118757000Y-119761000D02*
X118757000Y-121146000D01*
X118757000Y-121146000D02*
X118745000Y-121158000D01*
D46*
X64577000Y-69312000D02*
X64577000Y-68011000D01*
D47*
X64577000Y-68011000D02*
X64643000Y-67945000D01*
X68060000Y-68199000D02*
X68060000Y-66560000D01*
X68060000Y-66560000D02*
X68072000Y-66548000D01*
D46*
X64577000Y-81758000D02*
X64577000Y-80198000D01*
D47*
X64577000Y-80198000D02*
X64516000Y-80137000D01*
X68037985Y-80439617D02*
X68037985Y-78901015D01*
X68037985Y-78901015D02*
X68072000Y-78867000D01*
X68040238Y-93452488D02*
X68040238Y-91979762D01*
X68040238Y-91979762D02*
X68072000Y-91948000D01*
D46*
X64577000Y-94712000D02*
X64577000Y-93152000D01*
D47*
X64577000Y-93152000D02*
X64516000Y-93091000D01*
D46*
X64577000Y-107793000D02*
X64577000Y-106365000D01*
D47*
X64577000Y-106365000D02*
X64643000Y-106299000D01*
X68098866Y-106530810D02*
X68098866Y-105055866D01*
X68098866Y-105055866D02*
X68072000Y-105029000D01*
D46*
X64577000Y-120620000D02*
X64577000Y-119065000D01*
D47*
X64577000Y-119065000D02*
X64643000Y-118999000D01*
D10*
X68122620Y-120106583D02*
X68122620Y-119456583D01*
X68122620Y-122150583D02*
X68122620Y-120106583D01*
X67022620Y-123250583D02*
X68122620Y-122150583D01*
X66422620Y-123250583D02*
X67022620Y-123250583D01*
D47*
X68122620Y-119456583D02*
X68122620Y-118674827D01*
X68122620Y-118674827D02*
X68341437Y-118456010D01*
D10*
X66398866Y-111629734D02*
X66395600Y-111633000D01*
X66398866Y-110324810D02*
X66398866Y-111629734D01*
X66328238Y-98720962D02*
X66319400Y-98729800D01*
X66328238Y-97246488D02*
X66328238Y-98720962D01*
X66337985Y-85782615D02*
X66319400Y-85801200D01*
X66337985Y-84360617D02*
X66337985Y-85782615D01*
X66360000Y-73416200D02*
X66344800Y-73431400D01*
X66360000Y-71993000D02*
X66360000Y-73416200D01*
X120584000Y-63185000D02*
X120599200Y-63169800D01*
X120584000Y-64532000D02*
X120584000Y-63185000D01*
X120584000Y-76012000D02*
X120599200Y-75996800D01*
X120584000Y-77613000D02*
X120584000Y-76012000D01*
X120584000Y-89448600D02*
X120599200Y-89433400D01*
X120584000Y-90821000D02*
X120584000Y-89448600D01*
X120584000Y-102042000D02*
X120573800Y-102031800D01*
X120584000Y-103648000D02*
X120584000Y-102042000D01*
X120457000Y-114772400D02*
X120472200Y-114757200D01*
X120457000Y-116221000D02*
X120457000Y-114772400D01*
D45*
X78867000Y-93345000D02*
X78867000Y-106807000D01*
X78867000Y-106807000D02*
X78867000Y-120523000D01*
X104300000Y-119600000D02*
X104266000Y-119634000D01*
X104300000Y-114681000D02*
X104300000Y-119600000D01*
X104300000Y-113481000D02*
X99658000Y-108839000D01*
X104300000Y-114681000D02*
X104300000Y-113481000D01*
X90551000Y-108839000D02*
X78232000Y-121158000D01*
X99658000Y-108839000D02*
X90551000Y-108839000D01*
X78867000Y-120523000D02*
X78232000Y-121158000D01*
X78867000Y-81280000D02*
X78867000Y-93345000D01*
X108966000Y-114701000D02*
X110978000Y-116713000D01*
X108966000Y-106279000D02*
X108966000Y-114701000D01*
X109151566Y-94488000D02*
X109151566Y-95377000D01*
X112903000Y-92000000D02*
X112834566Y-92000000D01*
X112204500Y-91948000D02*
X109156500Y-94996000D01*
X109151566Y-80730478D02*
X109165022Y-80717022D01*
X109151566Y-80899000D02*
X109151566Y-80730478D01*
X108482000Y-116713000D02*
X110978000Y-116713000D01*
X104300000Y-114681000D02*
X106450000Y-114681000D01*
X106450000Y-114681000D02*
X108482000Y-116713000D01*
X109166492Y-106078508D02*
X109166492Y-80913926D01*
X108966000Y-106279000D02*
X109166492Y-106078508D01*
X109166492Y-80913926D02*
X109151566Y-80899000D01*
X74601000Y-72644000D02*
X74041000Y-72084000D01*
X77343000Y-72644000D02*
X74601000Y-72644000D01*
X78867000Y-74168000D02*
X77343000Y-72644000D01*
X74601000Y-98044000D02*
X74041000Y-97484000D01*
X75966000Y-98044000D02*
X74601000Y-98044000D01*
X78867000Y-95143000D02*
X75966000Y-98044000D01*
X78867000Y-93345000D02*
X78867000Y-95143000D01*
X75966000Y-110490000D02*
X74601000Y-110490000D01*
X74601000Y-110490000D02*
X74041000Y-109930000D01*
X78867000Y-107589000D02*
X75966000Y-110490000D01*
X78867000Y-106807000D02*
X78867000Y-107589000D01*
X74601000Y-122809000D02*
X74041000Y-122249000D01*
X76581000Y-122809000D02*
X74601000Y-122809000D01*
X78232000Y-121158000D02*
X76581000Y-122809000D01*
X112343000Y-116713000D02*
X112903000Y-117273000D01*
X110978000Y-116713000D02*
X112343000Y-116713000D01*
X112343000Y-104267000D02*
X112903000Y-104827000D01*
X110978000Y-104267000D02*
X112343000Y-104267000D01*
X108966000Y-106279000D02*
X110978000Y-104267000D01*
X112851000Y-91948000D02*
X112903000Y-92000000D01*
X112204500Y-91948000D02*
X112851000Y-91948000D01*
X78867000Y-80429000D02*
X78867000Y-79629000D01*
X74766000Y-84530000D02*
X78867000Y-80429000D01*
X74041000Y-84530000D02*
X74766000Y-84530000D01*
X78867000Y-79629000D02*
X78867000Y-74168000D01*
X78867000Y-81280000D02*
X78867000Y-79629000D01*
X109151566Y-79887934D02*
X109151566Y-80899000D01*
X110045500Y-78994000D02*
X109151566Y-79887934D01*
X110045500Y-77175502D02*
X110045500Y-78994000D01*
X110097801Y-72395801D02*
X110047001Y-72446601D01*
X110097801Y-67765699D02*
X110097801Y-72395801D01*
X112077500Y-65786000D02*
X110097801Y-67765699D01*
X112077500Y-65684500D02*
X112077500Y-65786000D01*
X112178000Y-65584000D02*
X112077500Y-65684500D01*
X110047001Y-77174001D02*
X110045500Y-77175502D01*
X112903000Y-65584000D02*
X112178000Y-65584000D01*
X110047001Y-76534001D02*
X110047001Y-76009500D01*
X110047001Y-76009500D02*
X110047001Y-77174001D01*
X112305000Y-78792000D02*
X110047001Y-76534001D01*
X113030000Y-78792000D02*
X112305000Y-78792000D01*
X110047001Y-72446601D02*
X110047001Y-76009500D01*
D48*
X56787000Y-66403000D02*
X56769000Y-66421000D01*
X60071000Y-66403000D02*
X56787000Y-66403000D01*
X56914000Y-78976000D02*
X56769000Y-79121000D01*
X60071000Y-78976000D02*
X56914000Y-78976000D01*
X56914000Y-91803000D02*
X56769000Y-91948000D01*
X60071000Y-91803000D02*
X56914000Y-91803000D01*
X56787000Y-104757000D02*
X56769000Y-104775000D01*
X60071000Y-104757000D02*
X56787000Y-104757000D01*
X56787000Y-117330000D02*
X56769000Y-117348000D01*
X60071000Y-117330000D02*
X56787000Y-117330000D01*
X56769000Y-66421000D02*
X53756500Y-66421000D01*
X53756500Y-66421000D02*
X49687009Y-70490491D01*
X49687009Y-70490491D02*
X49687009Y-79121000D01*
X49687009Y-79121000D02*
X56769000Y-79121000D01*
X49687009Y-79121000D02*
X49687009Y-91917991D01*
X49717018Y-91948000D02*
X49687009Y-91917991D01*
X56769000Y-91948000D02*
X49717018Y-91948000D01*
X49717018Y-100735518D02*
X49717018Y-91948000D01*
X56769000Y-104775000D02*
X53756500Y-104775000D01*
X53756500Y-104775000D02*
X49717018Y-100735518D01*
X49717018Y-113308518D02*
X49717018Y-100735518D01*
X56769000Y-117348000D02*
X53756500Y-117348000D01*
X53756500Y-117348000D02*
X51851500Y-115443000D01*
X51851500Y-115443000D02*
X49717018Y-113308518D01*
D49*
X51181000Y-120939500D02*
X51181000Y-113919000D01*
X59055000Y-129667000D02*
X51851500Y-122463500D01*
D48*
X93091000Y-122583000D02*
X92992000Y-122682000D01*
X93091000Y-117254000D02*
X93091000Y-122583000D01*
D49*
X88519000Y-129667000D02*
X59055000Y-129667000D01*
X88519000Y-129667000D02*
X88519000Y-129540000D01*
X88519000Y-129540000D02*
X91567000Y-126492000D01*
D48*
X91947000Y-126492000D02*
X91567000Y-126492000D01*
X92992000Y-125447000D02*
X91947000Y-126492000D01*
X92992000Y-122682000D02*
X92992000Y-125447000D01*
D49*
X91947000Y-126492000D02*
X92072001Y-126366999D01*
X98934999Y-126366999D02*
X103378000Y-130810000D01*
D48*
X127018000Y-95885000D02*
X126873000Y-96030000D01*
X130175000Y-95885000D02*
X127018000Y-95885000D01*
X135750001Y-98447501D02*
X133187500Y-95885000D01*
X135750001Y-106022499D02*
X135750001Y-98447501D01*
X133187500Y-108585000D02*
X135750001Y-106022499D01*
X135623001Y-85366501D02*
X133187500Y-82931000D01*
X135623001Y-93449499D02*
X135623001Y-85366501D01*
X133187500Y-95885000D02*
X135623001Y-93449499D01*
X130175000Y-95885000D02*
X133187500Y-95885000D01*
X133187500Y-82931000D02*
X135496001Y-80622499D01*
D47*
X116713000Y-130195000D02*
X116713000Y-130810000D01*
D49*
X116713000Y-130810000D02*
X121539000Y-130810000D01*
D48*
X121539000Y-130810000D02*
X128270000Y-130810000D01*
X128270000Y-130810000D02*
X134747000Y-124333000D01*
X134747000Y-118618000D02*
X134747000Y-116169500D01*
D47*
X133096000Y-125984000D02*
X134747000Y-124333000D01*
D48*
X135496001Y-73520001D02*
X133350000Y-71374000D01*
D49*
X135953500Y-75628500D02*
X135953500Y-120726499D01*
D45*
X134227000Y-59805000D02*
X138049000Y-63627000D01*
X138049000Y-63627000D02*
X138049000Y-72517000D01*
X135953500Y-74612500D02*
X135953500Y-75628500D01*
X138049000Y-72517000D02*
X135953500Y-74612500D01*
D48*
X134747000Y-124333000D02*
X134747000Y-121539000D01*
X135496001Y-80622499D02*
X135496001Y-75692000D01*
X134747000Y-121539000D02*
X134747000Y-118618000D01*
X135496001Y-75692000D02*
X135496001Y-73520001D01*
D45*
X121285000Y-60579000D02*
X121539000Y-60579000D01*
D48*
X134620000Y-60579000D02*
X134716990Y-60579000D01*
X134716990Y-60579000D02*
X137256990Y-63119000D01*
D49*
X103378000Y-130810000D02*
X109728000Y-130810000D01*
X109728000Y-130810000D02*
X116713000Y-130810000D01*
D45*
X100966000Y-124335998D02*
X98934999Y-126366999D01*
X100966000Y-119634000D02*
X100966000Y-124335998D01*
X92837000Y-58789000D02*
X92637000Y-58789000D01*
X104847106Y-61341000D02*
X104140000Y-61341000D01*
X102997000Y-59805000D02*
X102997000Y-60198000D01*
X120523000Y-61341000D02*
X104847106Y-61341000D01*
X103640001Y-60841001D02*
X104140000Y-61341000D01*
X121285000Y-60579000D02*
X120523000Y-61341000D01*
X102997000Y-60198000D02*
X103640001Y-60841001D01*
D48*
X56769000Y-66421000D02*
X56769000Y-62484000D01*
X56769000Y-62484000D02*
X59731999Y-59521001D01*
X59731999Y-59521001D02*
X92084380Y-59521001D01*
X92084380Y-59521001D02*
X92100400Y-59537021D01*
D45*
X130794760Y-60533280D02*
X130840480Y-60579000D01*
X130794760Y-58628380D02*
X130794760Y-60533280D01*
D48*
X130840480Y-60579000D02*
X134620000Y-60579000D01*
X121285000Y-60579000D02*
X130840480Y-60579000D01*
X133187500Y-121158000D02*
X134747000Y-119598500D01*
X130175000Y-121158000D02*
X133187500Y-121158000D01*
X134747000Y-119598500D02*
X134747000Y-118618000D01*
X130030000Y-121303000D02*
X130175000Y-121158000D01*
X126873000Y-121303000D02*
X130030000Y-121303000D01*
X130556000Y-108559600D02*
X130530600Y-108585000D01*
X130581400Y-108585000D02*
X130556000Y-108559600D01*
X127018000Y-108585000D02*
X126873000Y-108730000D01*
X130530600Y-108585000D02*
X127018000Y-108585000D01*
X133187500Y-108585000D02*
X130581400Y-108585000D01*
X130530600Y-82931000D02*
X127018000Y-82931000D01*
X127018000Y-82931000D02*
X126873000Y-83076000D01*
X130556000Y-82905600D02*
X130530600Y-82931000D01*
X130581400Y-82931000D02*
X130556000Y-82905600D01*
X133187500Y-82931000D02*
X130581400Y-82931000D01*
X127018000Y-69850000D02*
X126873000Y-69995000D01*
X130530600Y-69850000D02*
X127018000Y-69850000D01*
X131800600Y-69824600D02*
X130556000Y-69824600D01*
X130556000Y-69824600D02*
X130530600Y-69850000D01*
X133350000Y-71374000D02*
X131800600Y-69824600D01*
D10*
X126415800Y-70452200D02*
X126873000Y-69995000D01*
X126415800Y-73646600D02*
X126415800Y-70452200D01*
X126873000Y-83076000D02*
X126873000Y-85445600D01*
X126288800Y-86029800D02*
X126288800Y-86702200D01*
X126873000Y-85445600D02*
X126288800Y-86029800D01*
X126263400Y-96639600D02*
X126873000Y-96030000D01*
X126263400Y-99478400D02*
X126263400Y-96639600D01*
X126873000Y-111619600D02*
X126339600Y-112153000D01*
X126873000Y-108730000D02*
X126873000Y-111619600D01*
X126288800Y-121887200D02*
X126873000Y-121303000D01*
X126288800Y-124802200D02*
X126288800Y-121887200D01*
X59918601Y-59521001D02*
X59731999Y-59521001D01*
X62080800Y-61683200D02*
X59918601Y-59521001D01*
X62280800Y-61683200D02*
X62080800Y-61683200D01*
X60553600Y-78493400D02*
X60071000Y-78976000D01*
X60553600Y-75476800D02*
X60553600Y-78493400D01*
X60198000Y-91676000D02*
X60071000Y-91803000D01*
X60198000Y-88024400D02*
X60198000Y-91676000D01*
X60121800Y-104706200D02*
X60071000Y-104757000D01*
X60121800Y-101003800D02*
X60121800Y-104706200D01*
X60198000Y-117203000D02*
X60071000Y-117330000D01*
X60198000Y-113653000D02*
X60198000Y-117203000D01*
D45*
X72136000Y-65024000D02*
X72136000Y-62611000D01*
X72136000Y-88011000D02*
X72136000Y-90424000D01*
X72136000Y-100584000D02*
X72136000Y-102870000D01*
D10*
X91687000Y-104533000D02*
X91737000Y-104483000D01*
X89916000Y-104533000D02*
X91687000Y-104533000D01*
X95708000Y-106083000D02*
X95758000Y-106033000D01*
X93937000Y-106083000D02*
X95708000Y-106083000D01*
D47*
X91737000Y-104483000D02*
X88735000Y-104483000D01*
X95758000Y-106033000D02*
X97016000Y-106033000D01*
X88995000Y-97373000D02*
X90460000Y-97373000D01*
X90460000Y-97373000D02*
X90551000Y-97282000D01*
X88995000Y-95873000D02*
X90539000Y-95873000D01*
X90539000Y-95873000D02*
X90551000Y-95885000D01*
X91095000Y-90773000D02*
X91095000Y-91745434D01*
X91095000Y-91745434D02*
X91179573Y-91830007D01*
X97695000Y-92873000D02*
X96556000Y-92873000D01*
X96556000Y-92873000D02*
X96520000Y-92837000D01*
D45*
X100826000Y-102616000D02*
X100826000Y-103886000D01*
X100826000Y-103886000D02*
X102235000Y-103886000D01*
D10*
X94095000Y-99473000D02*
X94095000Y-97929000D01*
X94095000Y-97929000D02*
X94107000Y-97917000D01*
X85483000Y-98171000D02*
X84074000Y-98171000D01*
X85483000Y-99822000D02*
X84074000Y-99822000D01*
D45*
X88265000Y-75426000D02*
X88265000Y-76454000D01*
X91999000Y-75522000D02*
X91999000Y-76403000D01*
X91999000Y-76403000D02*
X91059000Y-77343000D01*
X101334000Y-91821000D02*
X101334000Y-90563000D01*
X101334000Y-90563000D02*
X101346000Y-90551000D01*
D10*
X97270000Y-103747000D02*
X97282000Y-103759000D01*
X97270000Y-102616000D02*
X97270000Y-103747000D01*
X90297000Y-87515000D02*
X90297000Y-86360000D01*
D45*
X114808000Y-99060000D02*
X114808000Y-101966360D01*
X114808000Y-101966360D02*
X114808617Y-101966977D01*
X114808000Y-124333000D02*
X114808000Y-125983999D01*
X97018600Y-58775600D02*
X95934510Y-58775600D01*
X95934510Y-58775600D02*
X95701391Y-58542481D01*
D10*
X92329000Y-64465200D02*
X92341700Y-64452500D01*
X92329000Y-65671000D02*
X92329000Y-64465200D01*
D45*
X72696000Y-65584000D02*
X72136000Y-65024000D01*
X72771000Y-65584000D02*
X72696000Y-65584000D01*
X72696000Y-90984000D02*
X72136000Y-90424000D01*
X72771000Y-90984000D02*
X72696000Y-90984000D01*
X72696000Y-103430000D02*
X72136000Y-102870000D01*
X72771000Y-103430000D02*
X72696000Y-103430000D01*
X72136000Y-115443000D02*
X72442000Y-115749000D01*
X72442000Y-115749000D02*
X72771000Y-115749000D01*
X72136000Y-112903000D02*
X72136000Y-115443000D01*
X114248000Y-123773000D02*
X114808000Y-124333000D01*
X114173000Y-123773000D02*
X114248000Y-123773000D01*
X114808000Y-72326500D02*
X114565500Y-72084000D01*
X114565500Y-72084000D02*
X114173000Y-72084000D01*
X114808000Y-74803000D02*
X114808000Y-72326500D01*
X72136000Y-77395000D02*
X72771000Y-78030000D01*
X72136000Y-77089000D02*
X72136000Y-77395000D01*
X72136000Y-75184000D02*
X72136000Y-77089000D01*
X72136000Y-77089000D02*
X72136000Y-77470000D01*
X114173000Y-113919000D02*
X114808000Y-114554000D01*
X114173000Y-111327000D02*
X114173000Y-113919000D01*
X114733000Y-99060000D02*
X114173000Y-98500000D01*
X114808000Y-99060000D02*
X114733000Y-99060000D01*
X114300000Y-87630000D02*
X114808000Y-88138000D01*
X114300000Y-85292000D02*
X114300000Y-87630000D01*
D10*
X130937000Y-52092797D02*
X130937000Y-48133000D01*
X131670643Y-52826440D02*
X130937000Y-52092797D01*
X133601660Y-52826440D02*
X131670643Y-52826440D01*
X91459000Y-68654000D02*
X92329000Y-67784000D01*
X91059000Y-68654000D02*
X91459000Y-68654000D01*
X92329000Y-67771000D02*
X92329000Y-67171000D01*
X92329000Y-67784000D02*
X92329000Y-67771000D01*
X93199000Y-68654000D02*
X92329000Y-67784000D01*
X93599000Y-68654000D02*
X93199000Y-68654000D01*
X88697000Y-98171000D02*
X88995000Y-97873000D01*
X86983000Y-98171000D02*
X88697000Y-98171000D01*
X90595000Y-89313000D02*
X90297000Y-89015000D01*
X90595000Y-90773000D02*
X90595000Y-89313000D01*
D45*
X95377000Y-53213000D02*
X95377000Y-55753000D01*
D10*
X51528000Y-61595000D02*
X50546000Y-60613000D01*
X52578000Y-61595000D02*
X51528000Y-61595000D01*
X50546000Y-60613000D02*
X50546000Y-47244000D01*
X50546000Y-47244000D02*
X53594000Y-44196000D01*
X77762000Y-44612000D02*
X77762000Y-45212000D01*
X77346000Y-44196000D02*
X77762000Y-44612000D01*
X53594000Y-44196000D02*
X77346000Y-44196000D01*
D45*
X92658999Y-74591999D02*
X88930999Y-74591999D01*
X92659000Y-75522000D02*
X92658999Y-74591999D01*
D47*
X96981999Y-85424999D02*
X97109001Y-85552001D01*
X96981999Y-77181409D02*
X96981999Y-85424999D01*
X94392589Y-74591999D02*
X96981999Y-77181409D01*
X92658999Y-74591999D02*
X94392589Y-74591999D01*
X97109001Y-85552001D02*
X97409000Y-85852000D01*
X88965001Y-74626001D02*
X88773000Y-74434000D01*
D45*
X88930999Y-74591999D02*
X88773000Y-74434000D01*
D47*
X88965001Y-77277999D02*
X88965001Y-74626001D01*
D45*
X88773000Y-74434000D02*
X88265000Y-73926000D01*
D47*
X90297000Y-89015000D02*
X90297000Y-88990000D01*
X90297000Y-88990000D02*
X89281000Y-87974000D01*
X89281000Y-87974000D02*
X89281000Y-85090000D01*
X98247000Y-91821000D02*
X97695000Y-92373000D01*
X99834000Y-90043002D02*
X99834000Y-91821000D01*
X99834000Y-91821000D02*
X98247000Y-91821000D01*
D45*
X99834000Y-91821000D02*
X99834000Y-92698000D01*
X99834000Y-92698000D02*
X99822000Y-92710000D01*
X100838000Y-100650000D02*
X101026000Y-100838000D01*
X100838000Y-98806000D02*
X100838000Y-100650000D01*
D47*
X84333264Y-96294024D02*
X83610011Y-95570771D01*
X83610011Y-95570771D02*
X83610011Y-83107045D01*
X86333000Y-97546000D02*
X86220240Y-97546000D01*
X86983000Y-98171000D02*
X86958000Y-98171000D01*
X88965001Y-77702263D02*
X88965001Y-77277999D01*
X88965001Y-77752055D02*
X88965001Y-77702263D01*
X83610011Y-83107045D02*
X88965001Y-77752055D01*
X84968264Y-96294024D02*
X84333264Y-96294024D01*
X86220240Y-97546000D02*
X84968264Y-96294024D01*
X86958000Y-98171000D02*
X86333000Y-97546000D01*
D45*
X88265000Y-73926000D02*
X88265000Y-65608200D01*
X93853000Y-60020200D02*
X93853000Y-60020176D01*
X88265000Y-65608200D02*
X93853000Y-60020200D01*
D10*
X94314999Y-52200801D02*
X95327198Y-53213000D01*
X78362000Y-45212000D02*
X79759000Y-46609000D01*
X77762000Y-45212000D02*
X78362000Y-45212000D01*
X79759000Y-46609000D02*
X93091000Y-46609000D01*
X94314999Y-47832999D02*
X94314999Y-52200801D01*
X95327198Y-53213000D02*
X95377000Y-53213000D01*
X93091000Y-46609000D02*
X94314999Y-47832999D01*
X95708000Y-104483000D02*
X95758000Y-104533000D01*
X93937000Y-104483000D02*
X95708000Y-104483000D01*
X93937000Y-103633000D02*
X93095000Y-102791000D01*
X93095000Y-102791000D02*
X93095000Y-99473000D01*
X93937000Y-104483000D02*
X93937000Y-103633000D01*
X91687000Y-106033000D02*
X91737000Y-106083000D01*
X89916000Y-106033000D02*
X91687000Y-106033000D01*
X92911999Y-105858001D02*
X92911999Y-103244409D01*
X92911999Y-103244409D02*
X92595000Y-102927410D01*
X92595000Y-102927410D02*
X92595000Y-99473000D01*
X91737000Y-106083000D02*
X92687000Y-106083000D01*
X92687000Y-106083000D02*
X92911999Y-105858001D01*
X93595000Y-100323000D02*
X93595000Y-99473000D01*
X93595000Y-101041000D02*
X93595000Y-100323000D01*
X95170000Y-102616000D02*
X93595000Y-101041000D01*
X95770000Y-102616000D02*
X95170000Y-102616000D01*
X53086000Y-51943000D02*
X90888736Y-51943000D01*
X90888736Y-51943000D02*
X91313000Y-51943000D01*
X52578000Y-51435000D02*
X53086000Y-51943000D01*
X95770000Y-102616000D02*
X95770000Y-103191000D01*
X103343002Y-96747276D02*
X103285990Y-96690264D01*
X103285990Y-96690264D02*
X103285990Y-96266000D01*
X102489000Y-105029000D02*
X103343002Y-104174998D01*
X97608000Y-105029000D02*
X102489000Y-105029000D01*
X103343002Y-104174998D02*
X103343002Y-96747276D01*
X95770000Y-103191000D02*
X97608000Y-105029000D01*
X95496462Y-51943000D02*
X95072198Y-51943000D01*
X96647001Y-51943000D02*
X95496462Y-51943000D01*
X97917000Y-50673001D02*
X96647001Y-51943000D01*
X99152998Y-51908999D02*
X97917000Y-50673001D01*
X99152998Y-55973994D02*
X99152998Y-51908999D01*
X101295201Y-57143441D02*
X100966761Y-56815001D01*
X101387204Y-59647798D02*
X101387204Y-58639998D01*
X99787001Y-61248001D02*
X101387204Y-59647798D01*
X99787001Y-72043300D02*
X99787001Y-61248001D01*
X104413011Y-76669310D02*
X99787001Y-72043300D01*
X105410000Y-94361000D02*
X105410000Y-84962002D01*
X101295201Y-58547995D02*
X101295201Y-57143441D01*
X105410000Y-84962002D02*
X104413011Y-83965013D01*
X101387204Y-58639998D02*
X101295201Y-58547995D01*
X99994005Y-56815001D02*
X99152998Y-55973994D01*
X100966761Y-56815001D02*
X99994005Y-56815001D01*
X104413011Y-83965013D02*
X104413011Y-76669310D01*
X87850000Y-102743000D02*
X87503000Y-102743000D01*
X90595000Y-99473000D02*
X90595000Y-99998000D01*
X90595000Y-99998000D02*
X87850000Y-102743000D01*
X86958000Y-99822000D02*
X85434000Y-101346000D01*
X86983000Y-99822000D02*
X86958000Y-99822000D01*
X85434000Y-101346000D02*
X85433984Y-101346000D01*
X84582000Y-101346000D02*
X83185000Y-99949000D01*
X83185000Y-99949000D02*
X83185000Y-82550000D01*
X83185000Y-82550000D02*
X85471000Y-80264000D01*
X85471000Y-80264000D02*
X85471000Y-66827400D01*
X90809801Y-61488599D02*
X91109800Y-61188600D01*
X85471000Y-66827400D02*
X90809801Y-61488599D01*
X85434000Y-101346000D02*
X84582000Y-101346000D01*
X101353536Y-49010990D02*
X101777800Y-49010990D01*
X100006022Y-49209390D02*
X101155136Y-49209390D01*
X99288602Y-49926810D02*
X100006022Y-49209390D01*
X101155136Y-49209390D02*
X101353536Y-49010990D01*
D47*
X99326000Y-103886000D02*
X99326000Y-102616000D01*
X99126000Y-102416000D02*
X99326000Y-102616000D01*
X99126000Y-100838000D02*
X99126000Y-102416000D01*
D45*
X96540001Y-98422999D02*
X94744001Y-98422999D01*
X99326000Y-102616000D02*
X99326000Y-101208998D01*
X99326000Y-101208998D02*
X96540001Y-98422999D01*
D47*
X94595000Y-98572000D02*
X94744001Y-98422999D01*
X94595000Y-99473000D02*
X94595000Y-98572000D01*
D45*
X125682000Y-105821000D02*
X126873000Y-104630000D01*
X124267000Y-105821000D02*
X125682000Y-105821000D01*
X125464000Y-103221000D02*
X126873000Y-104630000D01*
X124267000Y-103221000D02*
X125464000Y-103221000D01*
X126383000Y-104140000D02*
X126873000Y-104630000D01*
X123825000Y-104140000D02*
X126383000Y-104140000D01*
X123317000Y-103221000D02*
X123317000Y-103632000D01*
X123317000Y-103632000D02*
X123825000Y-104140000D01*
X125712000Y-104630000D02*
X126873000Y-104630000D01*
X123970000Y-104630000D02*
X125712000Y-104630000D01*
X123317000Y-105821000D02*
X123317000Y-105283000D01*
X123317000Y-105283000D02*
X123970000Y-104630000D01*
D48*
X127018000Y-104775000D02*
X126873000Y-104630000D01*
X130530600Y-104775000D02*
X127018000Y-104775000D01*
X130556000Y-104749600D02*
X130530600Y-104775000D01*
D10*
X127670000Y-112128400D02*
X126971600Y-112826800D01*
X128270000Y-112128400D02*
X127670000Y-112128400D01*
X124267000Y-111320402D02*
X124267000Y-106546000D01*
X125773398Y-112826800D02*
X124267000Y-111320402D01*
X124267000Y-106546000D02*
X124267000Y-105821000D01*
X126971600Y-112826800D02*
X125773398Y-112826800D01*
X119634000Y-105648000D02*
X115985800Y-105648000D01*
X115164800Y-104827000D02*
X114173000Y-104827000D01*
X115985800Y-105648000D02*
X115164800Y-104827000D01*
X120384000Y-105798000D02*
X120234000Y-105648000D01*
X120384000Y-107188000D02*
X120384000Y-105798000D01*
X120234000Y-105648000D02*
X119634000Y-105648000D01*
X122367000Y-103515000D02*
X120234000Y-105648000D01*
X122367000Y-103221000D02*
X122367000Y-103515000D01*
D45*
X125307000Y-115637000D02*
X126873000Y-117203000D01*
X124140000Y-115637000D02*
X125307000Y-115637000D01*
X125839000Y-118237000D02*
X126873000Y-117203000D01*
X124140000Y-118237000D02*
X125839000Y-118237000D01*
X126256000Y-116586000D02*
X126873000Y-117203000D01*
X123190000Y-115637000D02*
X123190000Y-115824000D01*
X123952000Y-116586000D02*
X126256000Y-116586000D01*
X123190000Y-115824000D02*
X123952000Y-116586000D01*
X124986000Y-117203000D02*
X126873000Y-117203000D01*
X123190000Y-118237000D02*
X123190000Y-117983000D01*
X124968000Y-117221000D02*
X124986000Y-117203000D01*
X123952000Y-117221000D02*
X124968000Y-117221000D01*
X123190000Y-117983000D02*
X123952000Y-117221000D01*
D48*
X127018000Y-117348000D02*
X126873000Y-117203000D01*
X130530600Y-117348000D02*
X127018000Y-117348000D01*
X130556000Y-117322600D02*
X130530600Y-117348000D01*
D10*
X127974800Y-124726800D02*
X127174800Y-125526800D01*
X128574800Y-124726800D02*
X127974800Y-124726800D01*
X124140000Y-118962000D02*
X124140000Y-118237000D01*
X125773398Y-125526800D02*
X124140000Y-123893402D01*
X124140000Y-123893402D02*
X124140000Y-118962000D01*
X127174800Y-125526800D02*
X125773398Y-125526800D01*
X120381000Y-118221000D02*
X120107000Y-118221000D01*
X122240000Y-116362000D02*
X120381000Y-118221000D01*
X122240000Y-115637000D02*
X122240000Y-116362000D01*
X114173000Y-117773000D02*
X114173000Y-117273000D01*
X114698000Y-118298000D02*
X114173000Y-117773000D01*
X119430000Y-118298000D02*
X114698000Y-118298000D01*
X119507000Y-118221000D02*
X119430000Y-118298000D01*
X120107000Y-118221000D02*
X119507000Y-118221000D01*
X120257000Y-118371000D02*
X120107000Y-118221000D01*
X120257000Y-119761000D02*
X120257000Y-118371000D01*
D47*
X124267000Y-71244500D02*
X124267000Y-66832000D01*
D45*
X124267000Y-64232000D02*
X125210000Y-64232000D01*
X125875000Y-65895000D02*
X126873000Y-65895000D01*
X125607000Y-66163000D02*
X125875000Y-65895000D01*
X125607000Y-66167000D02*
X125607000Y-66163000D01*
X124267000Y-66832000D02*
X124942000Y-66832000D01*
X124942000Y-66832000D02*
X125607000Y-66167000D01*
X126637000Y-65659000D02*
X126873000Y-65895000D01*
X124206000Y-65659000D02*
X126637000Y-65659000D01*
X123317000Y-66832000D02*
X123317000Y-66548000D01*
X123317000Y-66548000D02*
X124206000Y-65659000D01*
X125857000Y-65278000D02*
X126256000Y-65278000D01*
X126256000Y-65278000D02*
X126873000Y-65895000D01*
X125210000Y-64232000D02*
X126256000Y-65278000D01*
X123317000Y-64232000D02*
X123317000Y-64643000D01*
X125730000Y-65405000D02*
X125857000Y-65278000D01*
X123317000Y-64643000D02*
X123698000Y-65024000D01*
X123698000Y-65024000D02*
X125222000Y-65024000D01*
X125603000Y-65405000D02*
X125730000Y-65405000D01*
X125222000Y-65024000D02*
X125603000Y-65405000D01*
D48*
X127018000Y-66040000D02*
X126873000Y-65895000D01*
X130530600Y-66040000D02*
X127018000Y-66040000D01*
X130556000Y-66014600D02*
X130530600Y-66040000D01*
D10*
X127120799Y-74196601D02*
X127720800Y-73596600D01*
X127720800Y-73596600D02*
X128320800Y-73596600D01*
X125725799Y-74196601D02*
X127120799Y-74196601D01*
X124267000Y-72737802D02*
X125725799Y-74196601D01*
X124267000Y-71244500D02*
X124267000Y-72737802D01*
X120792000Y-66532000D02*
X120234000Y-66532000D01*
X122367000Y-64957000D02*
X120792000Y-66532000D01*
X122367000Y-64232000D02*
X122367000Y-64957000D01*
X119034000Y-66532000D02*
X118687800Y-66878200D01*
X119634000Y-66532000D02*
X119034000Y-66532000D01*
X118687800Y-66878200D02*
X114858800Y-66878200D01*
X114173000Y-66084000D02*
X114173000Y-65584000D01*
X114858800Y-66769800D02*
X114173000Y-66084000D01*
X114858800Y-66878200D02*
X114858800Y-66769800D01*
X120234000Y-66532000D02*
X119634000Y-66532000D01*
X119934000Y-68072000D02*
X119608600Y-67746600D01*
X120384000Y-68072000D02*
X119934000Y-68072000D01*
X119634000Y-67721200D02*
X119634000Y-66532000D01*
X119608600Y-67746600D02*
X119634000Y-67721200D01*
D45*
X125337000Y-90394000D02*
X126873000Y-91930000D01*
X124267000Y-90394000D02*
X125337000Y-90394000D01*
X125809000Y-92994000D02*
X126873000Y-91930000D01*
X124267000Y-92994000D02*
X125809000Y-92994000D01*
X126256000Y-91313000D02*
X126873000Y-91930000D01*
X123698000Y-91313000D02*
X126256000Y-91313000D01*
X123317000Y-90394000D02*
X123317000Y-90932000D01*
X123317000Y-90932000D02*
X123698000Y-91313000D01*
X125621000Y-91930000D02*
X126873000Y-91930000D01*
X125603000Y-91948000D02*
X125621000Y-91930000D01*
X123952000Y-91948000D02*
X125603000Y-91948000D01*
X123317000Y-92994000D02*
X123317000Y-92583000D01*
X123317000Y-92583000D02*
X123952000Y-91948000D01*
D48*
X130200400Y-92049600D02*
X130175000Y-92075000D01*
X130556000Y-92049600D02*
X130200400Y-92049600D01*
X130436400Y-91930000D02*
X130556000Y-92049600D01*
X126873000Y-91930000D02*
X130436400Y-91930000D01*
D10*
X127695400Y-99453800D02*
X127047800Y-100101400D01*
X128295400Y-99453800D02*
X127695400Y-99453800D01*
X123317000Y-97772002D02*
X123317000Y-93719000D01*
X123317000Y-93719000D02*
X123317000Y-92994000D01*
X125646398Y-100101400D02*
X123317000Y-97772002D01*
X127047800Y-100101400D02*
X125646398Y-100101400D01*
X120234000Y-92821000D02*
X119634000Y-92821000D01*
X122367000Y-91119000D02*
X120665000Y-92821000D01*
X120665000Y-92821000D02*
X120234000Y-92821000D01*
X122367000Y-90394000D02*
X122367000Y-91119000D01*
X119634000Y-92821000D02*
X115554000Y-92821000D01*
X114733000Y-92000000D02*
X114173000Y-92000000D01*
X115554000Y-92821000D02*
X114733000Y-92000000D01*
X119634000Y-93471000D02*
X119634000Y-92821000D01*
X119934000Y-94361000D02*
X119634000Y-94061000D01*
X119634000Y-94061000D02*
X119634000Y-93471000D01*
X120384000Y-94361000D02*
X119934000Y-94361000D01*
D45*
X57041000Y-70503000D02*
X56769000Y-70231000D01*
X63627000Y-69562000D02*
X63627000Y-69312000D01*
X63627000Y-71662000D02*
X63627000Y-71912000D01*
X61262000Y-69312000D02*
X60071000Y-70503000D01*
X62677000Y-69312000D02*
X61262000Y-69312000D01*
X61480000Y-71912000D02*
X60071000Y-70503000D01*
X62677000Y-71912000D02*
X61480000Y-71912000D01*
X60561000Y-70503000D02*
X60071000Y-70503000D01*
X60833000Y-70231000D02*
X60561000Y-70503000D01*
X63246000Y-70231000D02*
X60833000Y-70231000D01*
X63627000Y-69850000D02*
X63246000Y-70231000D01*
X63627000Y-69312000D02*
X63627000Y-69850000D01*
X63627000Y-71912000D02*
X63627000Y-71501000D01*
X63627000Y-71501000D02*
X63119000Y-70993000D01*
X63119000Y-70993000D02*
X61341000Y-70993000D01*
X61341000Y-70993000D02*
X60960000Y-70993000D01*
D48*
X59799000Y-70231000D02*
X60071000Y-70503000D01*
X56413400Y-70231000D02*
X59799000Y-70231000D01*
D10*
X62677000Y-65829600D02*
X62677000Y-68587000D01*
X62677000Y-68587000D02*
X62677000Y-69312000D01*
X60604400Y-63757000D02*
X62677000Y-65829600D01*
X60604400Y-63157000D02*
X60604400Y-63757000D01*
X66710000Y-69993000D02*
X67310000Y-69993000D01*
X65771000Y-69993000D02*
X66710000Y-69993000D01*
X64577000Y-71187000D02*
X65771000Y-69993000D01*
X64577000Y-71912000D02*
X64577000Y-71187000D01*
X72771000Y-71584000D02*
X72771000Y-72084000D01*
X71180000Y-69993000D02*
X72771000Y-71584000D01*
X67310000Y-69993000D02*
X71180000Y-69993000D01*
X67010000Y-68199000D02*
X66560000Y-68199000D01*
X67310000Y-68499000D02*
X67010000Y-68199000D01*
X67310000Y-69993000D02*
X67310000Y-68499000D01*
D45*
X61262000Y-94712000D02*
X60071000Y-95903000D01*
X62677000Y-94712000D02*
X61262000Y-94712000D01*
X61480000Y-97312000D02*
X60071000Y-95903000D01*
X62677000Y-97312000D02*
X61480000Y-97312000D01*
X63627000Y-94712000D02*
X63627000Y-95123000D01*
X63246000Y-95631000D02*
X60343000Y-95631000D01*
X60343000Y-95631000D02*
X60071000Y-95903000D01*
X63627000Y-94712000D02*
X63627000Y-95250000D01*
X63627000Y-95250000D02*
X63246000Y-95631000D01*
X61214000Y-96266000D02*
X60851000Y-95903000D01*
X63119000Y-96266000D02*
X61214000Y-96266000D01*
X60851000Y-95903000D02*
X60071000Y-95903000D01*
X63627000Y-97312000D02*
X63627000Y-96774000D01*
X63627000Y-96774000D02*
X63119000Y-96266000D01*
D48*
X59926000Y-95758000D02*
X60071000Y-95903000D01*
X56413400Y-95758000D02*
X59926000Y-95758000D01*
D10*
X58572400Y-87601400D02*
X58848600Y-87325200D01*
X58572400Y-88201400D02*
X58572400Y-87601400D01*
X62677000Y-89263398D02*
X62677000Y-93987000D01*
X62677000Y-93987000D02*
X62677000Y-94712000D01*
X60738802Y-87325200D02*
X62677000Y-89263398D01*
X58848600Y-87325200D02*
X60738802Y-87325200D01*
X66678238Y-95246488D02*
X67278238Y-95246488D01*
X66392512Y-95246488D02*
X66678238Y-95246488D01*
X64577000Y-97062000D02*
X66392512Y-95246488D01*
X64577000Y-97312000D02*
X64577000Y-97062000D01*
X67278238Y-94596488D02*
X66788750Y-94107000D01*
X67278238Y-95246488D02*
X67278238Y-94596488D01*
X66544750Y-94107000D02*
X66540238Y-94102488D01*
X66540238Y-94102488D02*
X66540238Y-93452488D01*
X66788750Y-94107000D02*
X66544750Y-94107000D01*
X72771000Y-96984000D02*
X72771000Y-97484000D01*
X71033488Y-95246488D02*
X72771000Y-96984000D01*
X67278238Y-95246488D02*
X71033488Y-95246488D01*
D45*
X62677000Y-123220000D02*
X62677000Y-122970000D01*
X60881000Y-120620000D02*
X60071000Y-121430000D01*
X62677000Y-120620000D02*
X60881000Y-120620000D01*
X61861000Y-123220000D02*
X60071000Y-121430000D01*
X62677000Y-123220000D02*
X61861000Y-123220000D01*
X60180000Y-121539000D02*
X60071000Y-121430000D01*
X63246000Y-121539000D02*
X60180000Y-121539000D01*
X63627000Y-120620000D02*
X63627000Y-121158000D01*
X63627000Y-121158000D02*
X63246000Y-121539000D01*
X60561000Y-121920000D02*
X60071000Y-121430000D01*
X63246000Y-122174000D02*
X61595000Y-122174000D01*
X61341000Y-121920000D02*
X60561000Y-121920000D01*
X63627000Y-123220000D02*
X63627000Y-122555000D01*
X61595000Y-122174000D02*
X61341000Y-121920000D01*
X63627000Y-122555000D02*
X63246000Y-122174000D01*
D48*
X56685400Y-121430000D02*
X56413400Y-121158000D01*
X56413400Y-121158000D02*
X56769000Y-121158000D01*
X60071000Y-121430000D02*
X56685400Y-121430000D01*
D10*
X58547000Y-113728400D02*
X59474000Y-112801400D01*
X59474000Y-112801400D02*
X61620400Y-112801400D01*
X62677000Y-113858000D02*
X62677000Y-120620000D01*
X61620400Y-112801400D02*
X62677000Y-113858000D01*
X66772620Y-121250583D02*
X67372620Y-121250583D01*
X65821417Y-121250583D02*
X66772620Y-121250583D01*
X64577000Y-122495000D02*
X65821417Y-121250583D01*
X64577000Y-123220000D02*
X64577000Y-122495000D01*
X67372620Y-119756583D02*
X67372620Y-120600583D01*
X67372620Y-120600583D02*
X67372620Y-121250583D01*
X67072620Y-119456583D02*
X67372620Y-119756583D01*
X66622620Y-119456583D02*
X67072620Y-119456583D01*
X66622620Y-119456583D02*
X66622620Y-118806583D01*
X66622620Y-118806583D02*
X67573203Y-117856000D01*
X67573203Y-117856000D02*
X70332600Y-117856000D01*
X72771000Y-120294400D02*
X72771000Y-122249000D01*
X70332600Y-117856000D02*
X72771000Y-120294400D01*
D45*
X61135000Y-107793000D02*
X60071000Y-108857000D01*
X62677000Y-107793000D02*
X61135000Y-107793000D01*
X61607000Y-110393000D02*
X60071000Y-108857000D01*
X62677000Y-110393000D02*
X61607000Y-110393000D01*
X60216000Y-108712000D02*
X60071000Y-108857000D01*
X63119000Y-108712000D02*
X60216000Y-108712000D01*
X63627000Y-107793000D02*
X63627000Y-108204000D01*
X63627000Y-108204000D02*
X63119000Y-108712000D01*
X60561000Y-109347000D02*
X60071000Y-108857000D01*
X63627000Y-110393000D02*
X63627000Y-109982000D01*
X62992000Y-109347000D02*
X60561000Y-109347000D01*
X63627000Y-109982000D02*
X62992000Y-109347000D01*
D48*
X59799000Y-108585000D02*
X60071000Y-108857000D01*
X56413400Y-108585000D02*
X59799000Y-108585000D01*
D10*
X58470800Y-100403000D02*
X58747000Y-100126800D01*
X58470800Y-101003000D02*
X58470800Y-100403000D01*
X62677000Y-107068000D02*
X62677000Y-107793000D01*
X62677000Y-102318998D02*
X62677000Y-107068000D01*
X60484802Y-100126800D02*
X62677000Y-102318998D01*
X58747000Y-100126800D02*
X60484802Y-100126800D01*
X65052000Y-110393000D02*
X67120190Y-108324810D01*
X67120190Y-108324810D02*
X67348866Y-108324810D01*
X64577000Y-110393000D02*
X65052000Y-110393000D01*
X66598866Y-107321478D02*
X66598866Y-106530810D01*
X67348866Y-108071478D02*
X66598866Y-107321478D01*
X67348866Y-108324810D02*
X67348866Y-108071478D01*
X72771000Y-109430000D02*
X72771000Y-109930000D01*
X71665810Y-108324810D02*
X72771000Y-109430000D01*
X67348866Y-108324810D02*
X71665810Y-108324810D01*
X91999000Y-72094000D02*
X91999000Y-72592000D01*
X91999000Y-72592000D02*
X91999000Y-73322000D01*
X91459000Y-71554000D02*
X91999000Y-72094000D01*
X91059000Y-71554000D02*
X91459000Y-71554000D01*
X99018600Y-58125600D02*
X99287600Y-58394600D01*
X100584000Y-58394600D02*
X100660200Y-58318400D01*
X99287600Y-58394600D02*
X100584000Y-58394600D01*
X91459000Y-71554000D02*
X92959800Y-70053200D01*
X92959800Y-70053200D02*
X94125500Y-70053200D01*
X97653401Y-66525299D02*
X97653401Y-59318599D01*
X94125500Y-70053200D02*
X97653401Y-66525299D01*
X97653401Y-59318599D02*
X98790000Y-58182000D01*
X133601660Y-55326440D02*
X130186472Y-55326440D01*
X130186472Y-55326440D02*
X130007942Y-55147910D01*
X92659000Y-72592000D02*
X92659000Y-73322000D01*
X92659000Y-72094000D02*
X92659000Y-72592000D01*
X93199000Y-71554000D02*
X92659000Y-72094000D01*
X93599000Y-71554000D02*
X93199000Y-71554000D01*
X99262200Y-59182000D02*
X100685600Y-59182000D01*
X99018600Y-59425600D02*
X99262200Y-59182000D01*
X93999000Y-71554000D02*
X98053412Y-67499588D01*
X98053412Y-67499588D02*
X98053412Y-60815788D01*
X93599000Y-71554000D02*
X93999000Y-71554000D01*
X99018600Y-59850600D02*
X99018600Y-59425600D01*
X98053412Y-60815788D02*
X99018600Y-59850600D01*
X132070000Y-54076440D02*
X132057140Y-54089300D01*
X133601660Y-54076440D02*
X132070000Y-54076440D01*
D45*
X125210000Y-77313000D02*
X126873000Y-78976000D01*
X124267000Y-77313000D02*
X125210000Y-77313000D01*
X124267000Y-79913000D02*
X125192000Y-79913000D01*
X125192000Y-79913000D02*
X125603000Y-79502000D01*
X125603000Y-79502000D02*
X125730000Y-79502000D01*
X126256000Y-78976000D02*
X126873000Y-78976000D01*
X125730000Y-79502000D02*
X126256000Y-78976000D01*
X125730000Y-78232000D02*
X126474000Y-78976000D01*
X126474000Y-78976000D02*
X126873000Y-78976000D01*
X123825000Y-78232000D02*
X125730000Y-78232000D01*
X123317000Y-77313000D02*
X123317000Y-77724000D01*
X123317000Y-77724000D02*
X123825000Y-78232000D01*
X126637000Y-78740000D02*
X126873000Y-78976000D01*
X123317000Y-79913000D02*
X123317000Y-79502000D01*
X124079000Y-78740000D02*
X126637000Y-78740000D01*
X123317000Y-79502000D02*
X124079000Y-78740000D01*
D48*
X127018000Y-79121000D02*
X126873000Y-78976000D01*
X130530600Y-79121000D02*
X127018000Y-79121000D01*
X130556000Y-79095600D02*
X130530600Y-79121000D01*
D10*
X127670000Y-86677600D02*
X126946200Y-87401400D01*
X128270000Y-86677600D02*
X127670000Y-86677600D01*
X125747998Y-87401400D02*
X124267000Y-85920402D01*
X124267000Y-80638000D02*
X124267000Y-79913000D01*
X124267000Y-85920402D02*
X124267000Y-80638000D01*
X126946200Y-87401400D02*
X125747998Y-87401400D01*
D45*
X61389000Y-81758000D02*
X60071000Y-83076000D01*
X62677000Y-81758000D02*
X61389000Y-81758000D01*
X61353000Y-84358000D02*
X60071000Y-83076000D01*
X62677000Y-84358000D02*
X61353000Y-84358000D01*
X60597000Y-82550000D02*
X60071000Y-83076000D01*
X63500000Y-82550000D02*
X60597000Y-82550000D01*
X63627000Y-81758000D02*
X63627000Y-82423000D01*
X63627000Y-82423000D02*
X63500000Y-82550000D01*
X62756000Y-83076000D02*
X60071000Y-83076000D01*
X63627000Y-84358000D02*
X63627000Y-83947000D01*
X63627000Y-83947000D02*
X62756000Y-83076000D01*
D48*
X59926000Y-82931000D02*
X60071000Y-83076000D01*
X56413400Y-82931000D02*
X59926000Y-82931000D01*
D10*
X62677000Y-76360198D02*
X62677000Y-81033000D01*
X61243601Y-74926799D02*
X62677000Y-76360198D01*
X59620001Y-74926799D02*
X61243601Y-74926799D01*
X62677000Y-81033000D02*
X62677000Y-81758000D01*
X59121600Y-75425200D02*
X59620001Y-74926799D01*
X58521600Y-75425200D02*
X59121600Y-75425200D01*
X120792000Y-79613000D02*
X120234000Y-79613000D01*
X120234000Y-79613000D02*
X119634000Y-79613000D01*
X122367000Y-78038000D02*
X120792000Y-79613000D01*
X122367000Y-77313000D02*
X122367000Y-78038000D01*
X120372000Y-80953000D02*
X119759200Y-80340200D01*
X120372000Y-81153000D02*
X120372000Y-80953000D01*
X119634000Y-80263000D02*
X119634000Y-79613000D01*
X119711200Y-80340200D02*
X119634000Y-80263000D01*
X119759200Y-80340200D02*
X119711200Y-80340200D01*
X115960400Y-79613000D02*
X115139400Y-78792000D01*
X115139400Y-78792000D02*
X114300000Y-78792000D01*
X119634000Y-79613000D02*
X115960400Y-79613000D01*
X66324383Y-82360617D02*
X64577000Y-84108000D01*
X64577000Y-84108000D02*
X64577000Y-84358000D01*
X67287985Y-82360617D02*
X66324383Y-82360617D01*
X67287985Y-82310617D02*
X67287985Y-82360617D01*
X66537985Y-81560617D02*
X67287985Y-82310617D01*
X66537985Y-80439617D02*
X66537985Y-81560617D01*
X70057368Y-84530000D02*
X72771000Y-84530000D01*
X67887985Y-82360617D02*
X70057368Y-84530000D01*
X67287985Y-82360617D02*
X67887985Y-82360617D01*
X79756000Y-66433000D02*
X79756000Y-61341000D01*
X76326999Y-56817387D02*
X76326999Y-53027664D01*
X76796206Y-57286594D02*
X76326999Y-56817387D01*
X76326999Y-53027664D02*
X76326999Y-52603400D01*
X73710800Y-57073800D02*
X73710800Y-53002266D01*
X73710800Y-53002266D02*
X73710800Y-52578002D01*
X74523604Y-57886604D02*
X73710800Y-57073800D01*
X80289396Y-57886604D02*
X74523604Y-57886604D01*
X73670245Y-50761283D02*
X73670245Y-51185547D01*
X76534999Y-49611000D02*
X74547239Y-49611000D01*
X74547239Y-49611000D02*
X73670245Y-50487994D01*
X73670245Y-50487994D02*
X73670245Y-50761283D01*
X77597000Y-50673001D02*
X76534999Y-49611000D01*
X82296000Y-61988000D02*
X82296000Y-61074300D01*
X86233000Y-61988000D02*
X86106000Y-62115000D01*
X86233000Y-61087000D02*
X86233000Y-61988000D01*
X86487000Y-57658000D02*
X86487000Y-52628800D01*
X86537800Y-50629736D02*
X86537800Y-51054000D01*
X85852000Y-49326800D02*
X86537800Y-50012600D01*
X86537800Y-50012600D02*
X86537800Y-50629736D01*
X80137000Y-48133001D02*
X81330799Y-49326800D01*
X81330799Y-49326800D02*
X85852000Y-49326800D01*
X81381600Y-56751248D02*
X81381600Y-53027664D01*
X81381600Y-53027664D02*
X81381600Y-52603400D01*
X82268018Y-57637666D02*
X81381600Y-56751248D01*
X84201000Y-62115000D02*
X84201000Y-61328300D01*
X84201000Y-61328300D02*
X84150200Y-61277500D01*
X104474999Y-47623240D02*
X105027239Y-47071000D01*
X106934000Y-78624599D02*
X100187012Y-71877611D01*
X100187012Y-71877611D02*
X100187012Y-61413690D01*
X100187012Y-61413690D02*
X101787213Y-59813489D01*
X101695212Y-50195790D02*
X102696000Y-49195002D01*
X101787213Y-59813489D02*
X101787213Y-57737709D01*
X109855001Y-47371002D02*
X110617000Y-48133001D01*
X101695212Y-57645708D02*
X101695212Y-50195790D01*
X103599694Y-49195002D02*
X104474999Y-48319697D01*
X104474999Y-48319697D02*
X104474999Y-47623240D01*
X101787213Y-57737709D02*
X101695212Y-57645708D01*
X102696000Y-49195002D02*
X103599694Y-49195002D01*
X109554999Y-47071000D02*
X109855001Y-47371002D01*
X106934000Y-81377000D02*
X106934000Y-78624599D01*
X105027239Y-47071000D02*
X109554999Y-47071000D01*
X106934000Y-86457000D02*
X106934000Y-86233000D01*
X106934000Y-86233000D02*
X107950000Y-85217000D01*
X128270000Y-54054238D02*
X128270000Y-57912000D01*
X125950764Y-51735002D02*
X128270000Y-54054238D01*
X110617000Y-50673001D02*
X111679001Y-51735002D01*
X111679001Y-51735002D02*
X125950764Y-51735002D01*
X101505180Y-72251916D02*
X108356400Y-79103136D01*
X108356400Y-81820936D02*
X108356400Y-82245200D01*
X101505180Y-62062223D02*
X101505180Y-72251916D01*
X108356400Y-79103136D02*
X108356400Y-81820936D01*
X106426000Y-97040000D02*
X106426000Y-94259400D01*
X106426000Y-94259400D02*
X106888001Y-93797399D01*
X106888001Y-93797399D02*
X107188000Y-93497400D01*
X93200136Y-49326800D02*
X93624400Y-49326800D01*
X92506800Y-49326800D02*
X93200136Y-49326800D01*
X91724201Y-50109399D02*
X92506800Y-49326800D01*
X94191801Y-58860401D02*
X94191801Y-52668703D01*
X97002600Y-61671200D02*
X94191801Y-58860401D01*
X94191801Y-52668703D02*
X93436088Y-51912990D01*
X93436088Y-51912990D02*
X92503093Y-51912990D01*
X91724201Y-51134098D02*
X91724201Y-50109399D01*
X92503093Y-51912990D02*
X91724201Y-51134098D01*
X119461002Y-49357003D02*
X104490799Y-49357003D01*
X104490799Y-49357003D02*
X104190800Y-49657002D01*
X120777000Y-50673001D02*
X119461002Y-49357003D01*
X109982000Y-81026000D02*
X109982000Y-90816503D01*
X109982000Y-90816503D02*
X109866503Y-90932000D01*
X109201268Y-78424004D02*
X109201268Y-78848268D01*
X101032363Y-61416883D02*
X101846161Y-61416883D01*
X101846161Y-61416883D02*
X109201268Y-68771990D01*
X109201268Y-68771990D02*
X109201268Y-78424004D01*
X124078999Y-49911002D02*
X123317000Y-50673001D01*
X124379001Y-49611000D02*
X124078999Y-49911002D01*
X126884000Y-49611000D02*
X124379001Y-49611000D01*
X129286000Y-52013000D02*
X126884000Y-49611000D01*
X129286000Y-52463000D02*
X129286000Y-52013000D01*
D48*
X118237000Y-53213000D02*
X118237000Y-55753000D01*
X118237000Y-55753000D02*
X118237000Y-57150000D01*
X115697000Y-53213000D02*
X115697000Y-55753000D01*
X115697000Y-55753000D02*
X115697000Y-57150000D01*
X113157000Y-53213000D02*
X113157000Y-55753000D01*
X113157000Y-55753000D02*
X113157000Y-57150000D01*
X110617000Y-53213000D02*
X110617000Y-55753000D01*
X110617000Y-55753000D02*
X110617000Y-57150000D01*
X108077000Y-53213000D02*
X108077000Y-55753000D01*
X108077000Y-55753000D02*
X108077000Y-57150000D01*
X105537000Y-53213000D02*
X105537000Y-55753000D01*
X105537000Y-55753000D02*
X105537000Y-57150000D01*
D45*
X102797000Y-57924000D02*
X102997000Y-57924000D01*
D48*
X102997000Y-53213000D02*
X102997000Y-55753000D01*
X102997000Y-55753000D02*
X102997000Y-57150000D01*
D45*
X92837000Y-53213000D02*
X92837000Y-55372000D01*
D48*
X92837000Y-53213000D02*
X92837000Y-55753000D01*
X92837000Y-55753000D02*
X92837000Y-56830630D01*
X92644630Y-57023000D02*
X92837000Y-56830630D01*
D10*
X83693000Y-76962000D02*
X83693000Y-65913000D01*
X88995000Y-93373000D02*
X88145000Y-93373000D01*
X86487008Y-92525308D02*
X86487008Y-83863264D01*
X88145000Y-93373000D02*
X88132987Y-93360987D01*
X88132987Y-93360987D02*
X87322687Y-93360987D01*
X87322687Y-93360987D02*
X86487008Y-92525308D01*
X86487008Y-83863264D02*
X86487008Y-83439000D01*
X82931000Y-66548000D02*
X82931000Y-66802000D01*
X91595000Y-86388000D02*
X88408269Y-83201269D01*
X91595000Y-90773000D02*
X91595000Y-86388000D01*
X88408269Y-83201269D02*
X88108270Y-82901270D01*
X82931000Y-66802000D02*
X82931000Y-66548000D01*
X83393001Y-78186001D02*
X83693000Y-78486000D01*
X82931000Y-77724000D02*
X83393001Y-78186001D01*
X82931000Y-66548000D02*
X82931000Y-77724000D01*
X88951000Y-92329000D02*
X88995000Y-92373000D01*
X87249000Y-92329000D02*
X88951000Y-92329000D01*
X106934000Y-90665065D02*
X107788002Y-91519067D01*
X107741999Y-114127001D02*
X107442000Y-114427000D01*
X106934000Y-89057000D02*
X106934000Y-90665065D01*
X107788002Y-114080998D02*
X107741999Y-114127001D01*
X107788002Y-91519067D02*
X107788002Y-114080998D01*
X105410000Y-122809000D02*
X107061000Y-121158000D01*
X107061000Y-116946764D02*
X107061000Y-116522500D01*
X107061000Y-121158000D02*
X107061000Y-116946764D01*
X107950000Y-115189000D02*
X108249999Y-114889001D01*
X108249999Y-114889001D02*
X108249999Y-91705701D01*
X107781592Y-83977000D02*
X106934000Y-83977000D01*
X108666482Y-84861890D02*
X107781592Y-83977000D01*
X108666482Y-91289218D02*
X108666482Y-84861890D01*
X108249999Y-91705701D02*
X108666482Y-91289218D01*
X107950000Y-122809000D02*
X107950000Y-117538500D01*
X107950000Y-117538500D02*
X107886500Y-117475000D01*
X106837000Y-84074000D02*
X106934000Y-83977000D01*
X98545000Y-93873000D02*
X98565000Y-93853000D01*
X97695000Y-93873000D02*
X98545000Y-93873000D01*
X98565000Y-93853000D02*
X102997000Y-93853000D01*
X102997000Y-93853000D02*
X103124000Y-93726000D01*
X105984000Y-87757000D02*
X106934000Y-87757000D01*
X105883990Y-87857010D02*
X105984000Y-87757000D01*
X106045000Y-90805000D02*
X105883990Y-90643990D01*
X105883990Y-90643990D02*
X105883990Y-87857010D01*
X97695000Y-93373000D02*
X102461000Y-93373000D01*
X102461000Y-93373000D02*
X102870000Y-92964000D01*
X104775000Y-91059000D02*
X104775000Y-85470998D01*
X105984000Y-82677000D02*
X105410000Y-83251000D01*
X105410000Y-83649736D02*
X105410000Y-84074000D01*
X105410000Y-83251000D02*
X105410000Y-83649736D01*
X106934000Y-82677000D02*
X105984000Y-82677000D01*
X95669999Y-100363001D02*
X96017998Y-100711000D01*
X95669999Y-99479999D02*
X95669999Y-100363001D01*
X96017998Y-100711000D02*
X97028000Y-100711000D01*
X95663000Y-99473000D02*
X95669999Y-99479999D01*
X95595000Y-99473000D02*
X95663000Y-99473000D01*
X106311000Y-98540000D02*
X105410000Y-99441000D01*
X106426000Y-98540000D02*
X106311000Y-98540000D01*
X97695000Y-97373000D02*
X100874000Y-97373000D01*
X100874000Y-97373000D02*
X101727000Y-96520000D01*
X104013000Y-76834999D02*
X98907600Y-71729599D01*
X104013000Y-89535000D02*
X104013000Y-76834999D01*
X98907600Y-71729599D02*
X98907600Y-62755864D01*
X98907600Y-62755864D02*
X98907600Y-62331600D01*
X129286000Y-53963000D02*
X129286000Y-56037482D01*
X129286000Y-56037482D02*
X129217701Y-56105781D01*
X129217701Y-56105781D02*
X128917702Y-56405780D01*
X85979000Y-91313000D02*
X85979000Y-92583000D01*
X85217000Y-90551000D02*
X85979000Y-91313000D01*
X85979000Y-92583000D02*
X86995000Y-93599000D01*
X86995000Y-93599000D02*
X87122000Y-93726000D01*
X88145000Y-93873000D02*
X88032998Y-93760998D01*
X88032998Y-93760998D02*
X87156998Y-93760998D01*
X87156998Y-93760998D02*
X86995000Y-93599000D01*
X88995000Y-93873000D02*
X88145000Y-93873000D01*
X81657968Y-66042333D02*
X81657968Y-86697736D01*
X81796424Y-65903877D02*
X81657968Y-66042333D01*
X81657968Y-86697736D02*
X81657968Y-87122000D01*
X82296000Y-63938000D02*
X81657968Y-64576032D01*
X82296000Y-63488000D02*
X82296000Y-63938000D01*
X81657968Y-64576032D02*
X81657968Y-86995000D01*
X79756000Y-92583006D02*
X80010000Y-92837006D01*
X79756000Y-67933000D02*
X79756000Y-92583006D01*
X87769000Y-94373000D02*
X87757000Y-94361000D01*
X88995000Y-94373000D02*
X87769000Y-94373000D01*
X87171862Y-94961002D02*
X86952290Y-94741430D01*
X88995000Y-94873000D02*
X88133004Y-94873000D01*
X88045002Y-94961002D02*
X87171862Y-94961002D01*
X88133004Y-94873000D02*
X88045002Y-94961002D01*
X82257978Y-91746536D02*
X82057987Y-91946527D01*
X82057987Y-91946527D02*
X82057987Y-92370791D01*
X84201000Y-63615000D02*
X84201000Y-64065000D01*
X82257978Y-66008022D02*
X82257978Y-91746536D01*
X84201000Y-64065000D02*
X82257978Y-66008022D01*
X88995000Y-95373000D02*
X85959021Y-95373000D01*
X85959021Y-95373000D02*
X85389999Y-94803978D01*
X85389999Y-94803978D02*
X85090000Y-94503979D01*
X84308991Y-80860309D02*
X82657989Y-82511311D01*
X82657989Y-82511311D02*
X82657989Y-92643559D01*
X84308991Y-65862009D02*
X84308991Y-80860309D01*
X86106000Y-64065000D02*
X84308991Y-65862009D01*
X82657989Y-92643559D02*
X82457990Y-92843558D01*
X86106000Y-63615000D02*
X86106000Y-64065000D01*
X82457990Y-92843558D02*
X82457990Y-93267822D01*
X103886000Y-106001736D02*
X103886000Y-106426000D01*
X100076000Y-87884000D02*
X103886000Y-91694000D01*
X103886000Y-91694000D02*
X103886000Y-106001736D01*
X95095000Y-89944000D02*
X97155000Y-87884000D01*
X95095000Y-90773000D02*
X95095000Y-89944000D01*
X97155000Y-87884000D02*
X100076000Y-87884000D01*
D47*
X110224000Y-114046000D02*
X109728000Y-113550000D01*
X110375000Y-114046000D02*
X110224000Y-114046000D01*
D10*
X105410000Y-109956600D02*
X106888001Y-111434601D01*
X106888001Y-111434601D02*
X107188000Y-111734600D01*
X105410000Y-107950000D02*
X105410000Y-109956600D01*
X109189799Y-117800399D02*
X108889800Y-117500400D01*
X110375000Y-118985600D02*
X109189799Y-117800399D01*
X110375000Y-126492000D02*
X110375000Y-118985600D01*
X100311985Y-87483989D02*
X104775000Y-91947004D01*
X104775000Y-91947004D02*
X104775000Y-110642396D01*
X104775000Y-110642396D02*
X106786405Y-112653801D01*
X106786405Y-112653801D02*
X107086404Y-112953800D01*
X96989311Y-87483989D02*
X100311985Y-87483989D01*
X94595000Y-89878300D02*
X96989311Y-87483989D01*
X94595000Y-90773000D02*
X94595000Y-89878300D01*
X103012979Y-79232017D02*
X103012979Y-79121000D01*
X97789999Y-84454997D02*
X103012979Y-79232017D01*
X93091000Y-89027000D02*
X93091000Y-90769000D01*
X93091000Y-90769000D02*
X93095000Y-90773000D01*
X111264000Y-75832400D02*
X111252000Y-75844400D01*
X111264000Y-74803000D02*
X111264000Y-75832400D01*
X93726000Y-94234000D02*
X93726000Y-92329000D01*
X93595000Y-92198000D02*
X93595000Y-90773000D01*
X93726000Y-92329000D02*
X93595000Y-92198000D01*
X98298000Y-98806000D02*
X99695000Y-98806000D01*
X99695000Y-98806000D02*
X100584000Y-97917000D01*
X100584000Y-97917000D02*
X101346000Y-97917000D01*
X101346000Y-97917000D02*
X102362000Y-98933000D01*
X102362000Y-102616000D02*
X102743000Y-102997000D01*
X102362000Y-98933000D02*
X102362000Y-102616000D01*
X110375000Y-101219000D02*
X110375000Y-102376923D01*
X110375000Y-102376923D02*
X110235999Y-102515924D01*
X76950000Y-62865000D02*
X78105000Y-62865000D01*
X94095000Y-78855000D02*
X93517999Y-78277999D01*
X94095000Y-90773000D02*
X94095000Y-78855000D01*
X93517999Y-78277999D02*
X93218000Y-77978000D01*
X77851000Y-89511000D02*
X78117000Y-89777000D01*
X91467574Y-92430008D02*
X90525008Y-92430008D01*
X88308264Y-91313000D02*
X87884000Y-91313000D01*
X89408000Y-91313000D02*
X88308264Y-91313000D01*
X90525008Y-92430008D02*
X89408000Y-91313000D01*
X92095000Y-90773000D02*
X92095000Y-91802582D01*
X92095000Y-91802582D02*
X91467574Y-92430008D01*
X76950000Y-88465000D02*
X76950000Y-88265000D01*
X77851000Y-89366000D02*
X76950000Y-88465000D01*
X77851000Y-89511000D02*
X77851000Y-89366000D01*
X76950000Y-113030000D02*
X76950000Y-111772000D01*
X76950000Y-111772000D02*
X77724000Y-110998000D01*
X86487607Y-102316001D02*
X86187608Y-102616000D01*
X92595000Y-96208608D02*
X86487607Y-102316001D01*
X92595000Y-90773000D02*
X92595000Y-96208608D01*
D47*
X78117000Y-100711000D02*
X76950000Y-100711000D01*
D10*
X78167000Y-100761000D02*
X78117000Y-100711000D01*
X78167000Y-103251000D02*
X78167000Y-100761000D01*
X91095000Y-99473000D02*
X91095000Y-100323000D01*
X91095000Y-100323000D02*
X86388998Y-105029002D01*
X86388998Y-105029002D02*
X83447274Y-105029002D01*
X83447274Y-105029002D02*
X83023010Y-105029002D01*
X128194600Y-113653000D02*
X128270000Y-113728400D01*
X126339600Y-113653000D02*
X128194600Y-113653000D01*
X128550200Y-126302200D02*
X128574800Y-126326800D01*
X126288800Y-126302200D02*
X128550200Y-126302200D01*
X128270800Y-75146600D02*
X128320800Y-75196600D01*
X126415800Y-75146600D02*
X128270800Y-75146600D01*
X128220000Y-100978400D02*
X128295400Y-101053800D01*
X126263400Y-100978400D02*
X128220000Y-100978400D01*
X60604400Y-61706800D02*
X60604400Y-61557000D01*
X62080800Y-63183200D02*
X60604400Y-61706800D01*
X62280800Y-63183200D02*
X62080800Y-63183200D01*
X58649400Y-86524400D02*
X58572400Y-86601400D01*
X60198000Y-86524400D02*
X58649400Y-86524400D01*
X60173400Y-112128400D02*
X60198000Y-112153000D01*
X58547000Y-112128400D02*
X60173400Y-112128400D01*
X60021000Y-99403000D02*
X60121800Y-99503800D01*
X58470800Y-99403000D02*
X60021000Y-99403000D01*
X76162000Y-45212000D02*
X74410000Y-45212000D01*
X128194600Y-88202200D02*
X128270000Y-88277600D01*
X126288800Y-88202200D02*
X128194600Y-88202200D01*
X58673200Y-73976800D02*
X58521600Y-73825200D01*
X60553600Y-73976800D02*
X58673200Y-73976800D01*
D45*
X112828000Y-111327000D02*
X111875000Y-112280000D01*
X111875000Y-112280000D02*
X111875000Y-114046000D01*
X112903000Y-111327000D02*
X112828000Y-111327000D01*
X111875000Y-124726000D02*
X111875000Y-126492000D01*
X112828000Y-123773000D02*
X111875000Y-124726000D01*
X112903000Y-123773000D02*
X112828000Y-123773000D01*
D10*
X112903000Y-72898000D02*
X112903000Y-72084000D01*
X112764000Y-73037000D02*
X112903000Y-72898000D01*
X112764000Y-74803000D02*
X112764000Y-73037000D01*
D45*
X112828000Y-98500000D02*
X111875000Y-99453000D01*
X111875000Y-99453000D02*
X111875000Y-101219000D01*
X112903000Y-98500000D02*
X112828000Y-98500000D01*
D47*
X74041000Y-64509000D02*
X74041000Y-65584000D01*
X74041000Y-63774000D02*
X74041000Y-64509000D01*
X74950000Y-62865000D02*
X74041000Y-63774000D01*
X75450000Y-62865000D02*
X74950000Y-62865000D01*
X74950000Y-88265000D02*
X75450000Y-88265000D01*
X74041000Y-89174000D02*
X74950000Y-88265000D01*
X74041000Y-90984000D02*
X74041000Y-89174000D01*
X74041000Y-114674000D02*
X74041000Y-115749000D01*
X74041000Y-113939000D02*
X74041000Y-114674000D01*
X74950000Y-113030000D02*
X74041000Y-113939000D01*
X75450000Y-113030000D02*
X74950000Y-113030000D01*
X74041000Y-102355000D02*
X74041000Y-103430000D01*
X74041000Y-101620000D02*
X74041000Y-102355000D01*
X74950000Y-100711000D02*
X74041000Y-101620000D01*
X75450000Y-100711000D02*
X74950000Y-100711000D01*
D10*
X84582000Y-107823000D02*
X80856056Y-104097056D01*
X98425000Y-105664000D02*
X96266000Y-107823000D01*
X96266000Y-107823000D02*
X84582000Y-107823000D01*
X80856056Y-62344296D02*
X80856056Y-61920032D01*
X80856056Y-104097056D02*
X80856056Y-62344296D01*
X96214298Y-101473000D02*
X97365736Y-101473000D01*
X97365736Y-101473000D02*
X97790000Y-101473000D01*
X95095000Y-100353702D02*
X96214298Y-101473000D01*
X95095000Y-99473000D02*
X95095000Y-100353702D01*
X72910000Y-45862000D02*
X71246998Y-47525002D01*
X72910000Y-45212000D02*
X72910000Y-45862000D01*
X71246998Y-47525002D02*
X71246998Y-50858336D01*
X71246998Y-50858336D02*
X71246998Y-51282600D01*
X97695000Y-95373000D02*
X103281990Y-95373000D01*
X103281990Y-95373000D02*
X103285990Y-95377000D01*
X111391000Y-88138000D02*
X111391000Y-88788000D01*
X111391000Y-88788000D02*
X111025000Y-89154000D01*
X111025000Y-89154000D02*
X110998000Y-89154000D01*
D47*
X113030000Y-87999000D02*
X112891000Y-88138000D01*
X113030000Y-85292000D02*
X113030000Y-87999000D01*
X74041000Y-76955000D02*
X74041000Y-78030000D01*
X74041000Y-76220000D02*
X74041000Y-76955000D01*
X74950000Y-75311000D02*
X74041000Y-76220000D01*
X75450000Y-75311000D02*
X74950000Y-75311000D01*
D10*
X76950000Y-75311000D02*
X77978000Y-75311000D01*
X96095000Y-97873000D02*
X97695000Y-97873000D01*
X93218000Y-94996000D02*
X96095000Y-97873000D01*
X88655990Y-90052990D02*
X88655990Y-86530268D01*
X88655990Y-86530268D02*
X88655990Y-86106004D01*
X89154000Y-90551000D02*
X88655990Y-90052990D01*
X96095000Y-90773000D02*
X96679000Y-90773000D01*
X96679000Y-90773000D02*
X97155000Y-90297000D01*
X96393000Y-85554736D02*
X94615000Y-83776736D01*
X96393000Y-85979000D02*
X96393000Y-85554736D01*
X94615000Y-83776736D02*
X94615000Y-77978000D01*
X94615000Y-77978000D02*
X93599000Y-76962000D01*
X91186000Y-72517000D02*
X91349000Y-72680000D01*
X91349000Y-72680000D02*
X91349000Y-73322000D01*
X90507736Y-72517000D02*
X91186000Y-72517000D01*
X90297000Y-73152000D02*
X90297000Y-72727736D01*
X90297000Y-72727736D02*
X90507736Y-72517000D01*
X97108995Y-88818999D02*
X97408994Y-88519000D01*
X95595000Y-90009698D02*
X96785699Y-88818999D01*
X95595000Y-90773000D02*
X95595000Y-90009698D01*
X96785699Y-88818999D02*
X97108995Y-88818999D01*
X99630678Y-73322000D02*
X103612989Y-77304311D01*
X93309000Y-73322000D02*
X99630678Y-73322000D01*
X103612989Y-80537011D02*
X97708999Y-86441001D01*
X97708999Y-86441001D02*
X97409000Y-86741000D01*
X103612989Y-77304311D02*
X103612989Y-80537011D01*
X93309000Y-76252000D02*
X86849001Y-82711999D01*
X85309998Y-95469002D02*
X86213996Y-96373000D01*
X86849001Y-82711999D02*
X86071999Y-82711999D01*
X84435033Y-95229037D02*
X84674998Y-95469002D01*
X88145000Y-96373000D02*
X88995000Y-96373000D01*
X93309000Y-75522000D02*
X93309000Y-76252000D01*
X84435033Y-84348965D02*
X84435033Y-95229037D01*
X84674998Y-95469002D02*
X85309998Y-95469002D01*
X86213996Y-96373000D02*
X88145000Y-96373000D01*
X86071999Y-82711999D02*
X84435033Y-84348965D01*
X84509309Y-95869013D02*
X85144309Y-95869013D01*
X84035022Y-83317034D02*
X84035022Y-95394726D01*
X91349000Y-75852000D02*
X90949000Y-76252000D01*
X84035022Y-95394726D02*
X84509309Y-95869013D01*
X91349000Y-75522000D02*
X91349000Y-75852000D01*
X90949000Y-76403056D02*
X84035022Y-83317034D01*
X86148296Y-96873000D02*
X88145000Y-96873000D01*
X88145000Y-96873000D02*
X88995000Y-96873000D01*
X85144309Y-95869013D02*
X86148296Y-96873000D01*
X90949000Y-76252000D02*
X90949000Y-76403056D01*
D45*
X131271700Y-56576440D02*
X130794760Y-57053380D01*
X133601660Y-56576440D02*
X131271700Y-56576440D01*
D50*
G36*
X55626000Y-68218954D02*
X55583486Y-68227410D01*
X55459162Y-68310481D01*
X55201471Y-68417220D01*
X55004242Y-68614449D01*
X54879919Y-68697519D01*
X54796849Y-68821842D01*
X54599620Y-69019071D01*
X54492881Y-69276762D01*
X54409810Y-69401086D01*
X54380640Y-69547735D01*
X54273900Y-69805427D01*
X54273900Y-70084352D01*
X54244730Y-70231000D01*
X54273900Y-70377648D01*
X54273900Y-70656573D01*
X54380640Y-70914265D01*
X54409810Y-71060914D01*
X54492881Y-71185238D01*
X54599620Y-71442929D01*
X54796849Y-71640158D01*
X54879919Y-71764481D01*
X55004242Y-71847551D01*
X55201471Y-72044780D01*
X55459162Y-72151519D01*
X55583486Y-72234590D01*
X55626000Y-72243046D01*
X55626000Y-80918954D01*
X55583486Y-80927410D01*
X55459162Y-81010481D01*
X55201471Y-81117220D01*
X55004242Y-81314449D01*
X54879919Y-81397519D01*
X54796849Y-81521842D01*
X54599620Y-81719071D01*
X54492881Y-81976762D01*
X54409810Y-82101086D01*
X54380640Y-82247735D01*
X54273900Y-82505427D01*
X54273900Y-82784352D01*
X54244730Y-82931000D01*
X54273900Y-83077648D01*
X54273900Y-83356573D01*
X54380640Y-83614265D01*
X54409810Y-83760914D01*
X54492881Y-83885238D01*
X54599620Y-84142929D01*
X54796849Y-84340158D01*
X54879919Y-84464481D01*
X55004242Y-84547551D01*
X55201471Y-84744780D01*
X55459162Y-84851519D01*
X55583486Y-84934590D01*
X55626000Y-84943046D01*
X55626000Y-93745954D01*
X55583486Y-93754410D01*
X55459162Y-93837481D01*
X55201471Y-93944220D01*
X55004242Y-94141449D01*
X54879919Y-94224519D01*
X54796849Y-94348842D01*
X54599620Y-94546071D01*
X54492881Y-94803762D01*
X54409810Y-94928086D01*
X54380640Y-95074735D01*
X54273900Y-95332427D01*
X54273900Y-95611352D01*
X54244730Y-95758000D01*
X54273900Y-95904648D01*
X54273900Y-96183573D01*
X54380640Y-96441265D01*
X54409810Y-96587914D01*
X54492881Y-96712238D01*
X54599620Y-96969929D01*
X54796849Y-97167158D01*
X54879919Y-97291481D01*
X55004242Y-97374551D01*
X55201471Y-97571780D01*
X55459162Y-97678519D01*
X55583486Y-97761590D01*
X55626000Y-97770046D01*
X55626000Y-106572954D01*
X55583486Y-106581410D01*
X55459162Y-106664481D01*
X55201471Y-106771220D01*
X55004242Y-106968449D01*
X54879919Y-107051519D01*
X54796849Y-107175842D01*
X54599620Y-107373071D01*
X54492881Y-107630762D01*
X54409810Y-107755086D01*
X54380640Y-107901735D01*
X54273900Y-108159427D01*
X54273900Y-108438352D01*
X54244730Y-108585000D01*
X54273900Y-108731648D01*
X54273900Y-109010573D01*
X54380640Y-109268265D01*
X54409810Y-109414914D01*
X54492881Y-109539238D01*
X54599620Y-109796929D01*
X54796849Y-109994158D01*
X54879919Y-110118481D01*
X55004242Y-110201551D01*
X55201471Y-110398780D01*
X55459162Y-110505519D01*
X55583486Y-110588590D01*
X55626000Y-110597046D01*
X55626000Y-119145954D01*
X55583486Y-119154410D01*
X55459162Y-119237481D01*
X55201471Y-119344220D01*
X55004242Y-119541449D01*
X54879919Y-119624519D01*
X54796849Y-119748842D01*
X54599620Y-119946071D01*
X54492881Y-120203762D01*
X54409810Y-120328086D01*
X54380640Y-120474735D01*
X54273900Y-120732427D01*
X54273900Y-121011352D01*
X54244730Y-121158000D01*
X54273900Y-121304648D01*
X54273900Y-121583573D01*
X54380640Y-121841265D01*
X54409810Y-121987914D01*
X54492881Y-122112238D01*
X54599620Y-122369929D01*
X54796849Y-122567158D01*
X54879919Y-122691481D01*
X55004242Y-122774551D01*
X55068849Y-122839158D01*
X55151919Y-122963481D01*
X55626000Y-123280252D01*
X55626000Y-127078402D01*
X49614000Y-121177736D01*
X49614000Y-79508153D01*
X49613998Y-79508143D01*
X49613999Y-69357154D01*
X53520540Y-65656221D01*
X55626000Y-65539251D01*
X55626000Y-68218954D01*
X55626000Y-68218954D01*
G37*
X55626000Y-68218954D02*
X55583486Y-68227410D01*
X55459162Y-68310481D01*
X55201471Y-68417220D01*
X55004242Y-68614449D01*
X54879919Y-68697519D01*
X54796849Y-68821842D01*
X54599620Y-69019071D01*
X54492881Y-69276762D01*
X54409810Y-69401086D01*
X54380640Y-69547735D01*
X54273900Y-69805427D01*
X54273900Y-70084352D01*
X54244730Y-70231000D01*
X54273900Y-70377648D01*
X54273900Y-70656573D01*
X54380640Y-70914265D01*
X54409810Y-71060914D01*
X54492881Y-71185238D01*
X54599620Y-71442929D01*
X54796849Y-71640158D01*
X54879919Y-71764481D01*
X55004242Y-71847551D01*
X55201471Y-72044780D01*
X55459162Y-72151519D01*
X55583486Y-72234590D01*
X55626000Y-72243046D01*
X55626000Y-80918954D01*
X55583486Y-80927410D01*
X55459162Y-81010481D01*
X55201471Y-81117220D01*
X55004242Y-81314449D01*
X54879919Y-81397519D01*
X54796849Y-81521842D01*
X54599620Y-81719071D01*
X54492881Y-81976762D01*
X54409810Y-82101086D01*
X54380640Y-82247735D01*
X54273900Y-82505427D01*
X54273900Y-82784352D01*
X54244730Y-82931000D01*
X54273900Y-83077648D01*
X54273900Y-83356573D01*
X54380640Y-83614265D01*
X54409810Y-83760914D01*
X54492881Y-83885238D01*
X54599620Y-84142929D01*
X54796849Y-84340158D01*
X54879919Y-84464481D01*
X55004242Y-84547551D01*
X55201471Y-84744780D01*
X55459162Y-84851519D01*
X55583486Y-84934590D01*
X55626000Y-84943046D01*
X55626000Y-93745954D01*
X55583486Y-93754410D01*
X55459162Y-93837481D01*
X55201471Y-93944220D01*
X55004242Y-94141449D01*
X54879919Y-94224519D01*
X54796849Y-94348842D01*
X54599620Y-94546071D01*
X54492881Y-94803762D01*
X54409810Y-94928086D01*
X54380640Y-95074735D01*
X54273900Y-95332427D01*
X54273900Y-95611352D01*
X54244730Y-95758000D01*
X54273900Y-95904648D01*
X54273900Y-96183573D01*
X54380640Y-96441265D01*
X54409810Y-96587914D01*
X54492881Y-96712238D01*
X54599620Y-96969929D01*
X54796849Y-97167158D01*
X54879919Y-97291481D01*
X55004242Y-97374551D01*
X55201471Y-97571780D01*
X55459162Y-97678519D01*
X55583486Y-97761590D01*
X55626000Y-97770046D01*
X55626000Y-106572954D01*
X55583486Y-106581410D01*
X55459162Y-106664481D01*
X55201471Y-106771220D01*
X55004242Y-106968449D01*
X54879919Y-107051519D01*
X54796849Y-107175842D01*
X54599620Y-107373071D01*
X54492881Y-107630762D01*
X54409810Y-107755086D01*
X54380640Y-107901735D01*
X54273900Y-108159427D01*
X54273900Y-108438352D01*
X54244730Y-108585000D01*
X54273900Y-108731648D01*
X54273900Y-109010573D01*
X54380640Y-109268265D01*
X54409810Y-109414914D01*
X54492881Y-109539238D01*
X54599620Y-109796929D01*
X54796849Y-109994158D01*
X54879919Y-110118481D01*
X55004242Y-110201551D01*
X55201471Y-110398780D01*
X55459162Y-110505519D01*
X55583486Y-110588590D01*
X55626000Y-110597046D01*
X55626000Y-119145954D01*
X55583486Y-119154410D01*
X55459162Y-119237481D01*
X55201471Y-119344220D01*
X55004242Y-119541449D01*
X54879919Y-119624519D01*
X54796849Y-119748842D01*
X54599620Y-119946071D01*
X54492881Y-120203762D01*
X54409810Y-120328086D01*
X54380640Y-120474735D01*
X54273900Y-120732427D01*
X54273900Y-121011352D01*
X54244730Y-121158000D01*
X54273900Y-121304648D01*
X54273900Y-121583573D01*
X54380640Y-121841265D01*
X54409810Y-121987914D01*
X54492881Y-122112238D01*
X54599620Y-122369929D01*
X54796849Y-122567158D01*
X54879919Y-122691481D01*
X55004242Y-122774551D01*
X55068849Y-122839158D01*
X55151919Y-122963481D01*
X55626000Y-123280252D01*
X55626000Y-127078402D01*
X49614000Y-121177736D01*
X49614000Y-79508153D01*
X49613998Y-79508143D01*
X49613999Y-69357154D01*
X53520540Y-65656221D01*
X55626000Y-65539251D01*
X55626000Y-68218954D01*
G36*
X136562197Y-72987803D02*
X136564959Y-72990481D01*
X137330000Y-73710520D01*
X137330001Y-122932867D01*
X135673345Y-124624037D01*
X131318000Y-128858400D01*
X131318000Y-122780100D01*
X131694809Y-122780100D01*
X131928198Y-122683427D01*
X132106827Y-122504799D01*
X132203500Y-122271410D01*
X132203500Y-121418350D01*
X132044750Y-121259600D01*
X131318000Y-121259600D01*
X131318000Y-121005600D01*
X132044750Y-121005600D01*
X132203500Y-120846850D01*
X132203500Y-119993790D01*
X132106827Y-119760401D01*
X131928198Y-119581773D01*
X131694809Y-119485100D01*
X131318000Y-119485100D01*
X131318000Y-119360047D01*
X131360514Y-119351590D01*
X131543424Y-119229373D01*
X131767929Y-119136380D01*
X131939758Y-118964551D01*
X132064081Y-118881481D01*
X132147151Y-118757158D01*
X132369780Y-118534529D01*
X132476521Y-118276835D01*
X132559589Y-118152514D01*
X132588758Y-118005869D01*
X132695500Y-117748173D01*
X132695500Y-117469243D01*
X132724669Y-117322601D01*
X132695500Y-117175958D01*
X132695500Y-116897027D01*
X132588758Y-116639330D01*
X132559589Y-116492686D01*
X132476521Y-116368366D01*
X132369780Y-116110671D01*
X132172551Y-115913442D01*
X132089481Y-115789119D01*
X131965158Y-115706049D01*
X131767929Y-115508820D01*
X131510234Y-115402079D01*
X131385914Y-115319011D01*
X131318000Y-115305502D01*
X131318000Y-110207100D01*
X131694809Y-110207100D01*
X131928198Y-110110427D01*
X132106827Y-109931799D01*
X132203500Y-109698410D01*
X132203500Y-108845350D01*
X132044750Y-108686600D01*
X131318000Y-108686600D01*
X131318000Y-108432600D01*
X132044750Y-108432600D01*
X132203500Y-108273850D01*
X132203500Y-107420790D01*
X132106827Y-107187401D01*
X131928198Y-107008773D01*
X131694809Y-106912100D01*
X131318000Y-106912100D01*
X131318000Y-106787047D01*
X131360514Y-106778590D01*
X131543424Y-106656373D01*
X131767929Y-106563380D01*
X131939758Y-106391551D01*
X132064081Y-106308481D01*
X132147151Y-106184158D01*
X132369780Y-105961529D01*
X132476521Y-105703835D01*
X132559589Y-105579514D01*
X132588758Y-105432869D01*
X132695500Y-105175173D01*
X132695500Y-104896243D01*
X132724669Y-104749601D01*
X132695500Y-104602958D01*
X132695500Y-104324027D01*
X132588758Y-104066330D01*
X132559589Y-103919686D01*
X132476521Y-103795366D01*
X132369780Y-103537671D01*
X132172551Y-103340442D01*
X132089481Y-103216119D01*
X131965158Y-103133049D01*
X131767929Y-102935820D01*
X131510234Y-102829079D01*
X131385914Y-102746011D01*
X131318000Y-102732502D01*
X131318000Y-97507100D01*
X131694809Y-97507100D01*
X131928198Y-97410427D01*
X132106827Y-97231799D01*
X132203500Y-96998410D01*
X132203500Y-96145350D01*
X132044750Y-95986600D01*
X131318000Y-95986600D01*
X131318000Y-95732600D01*
X132044750Y-95732600D01*
X132203500Y-95573850D01*
X132203500Y-94720790D01*
X132106827Y-94487401D01*
X131928198Y-94308773D01*
X131694809Y-94212100D01*
X131318000Y-94212100D01*
X131318000Y-94066699D01*
X131385914Y-94053190D01*
X131510238Y-93970119D01*
X131767929Y-93863380D01*
X131965158Y-93666151D01*
X132089481Y-93583081D01*
X132172551Y-93458758D01*
X132369780Y-93261529D01*
X132476519Y-93003838D01*
X132559590Y-92879514D01*
X132588760Y-92732865D01*
X132695500Y-92475173D01*
X132695500Y-92196248D01*
X132724670Y-92049600D01*
X132695500Y-91902952D01*
X132695500Y-91624027D01*
X132588760Y-91366335D01*
X132559590Y-91219686D01*
X132476519Y-91095362D01*
X132369780Y-90837671D01*
X132172551Y-90640442D01*
X132089481Y-90516119D01*
X132017786Y-90468214D01*
X131969881Y-90396519D01*
X131845558Y-90313449D01*
X131767929Y-90235820D01*
X131666502Y-90193808D01*
X131318000Y-89960946D01*
X131318000Y-84553100D01*
X131694809Y-84553100D01*
X131928198Y-84456427D01*
X132106827Y-84277799D01*
X132203500Y-84044410D01*
X132203500Y-83191350D01*
X132044750Y-83032600D01*
X131318000Y-83032600D01*
X131318000Y-82778600D01*
X132044750Y-82778600D01*
X132203500Y-82619850D01*
X132203500Y-81766790D01*
X132106827Y-81533401D01*
X131928198Y-81354773D01*
X131694809Y-81258100D01*
X131318000Y-81258100D01*
X131318000Y-81133047D01*
X131360514Y-81124590D01*
X131543424Y-81002373D01*
X131767929Y-80909380D01*
X131939758Y-80737551D01*
X132064081Y-80654481D01*
X132147151Y-80530158D01*
X132369780Y-80307529D01*
X132476521Y-80049835D01*
X132559589Y-79925514D01*
X132588758Y-79778869D01*
X132695500Y-79521173D01*
X132695500Y-79242243D01*
X132724669Y-79095601D01*
X132695500Y-78948958D01*
X132695500Y-78670027D01*
X132588758Y-78412330D01*
X132559589Y-78265686D01*
X132476521Y-78141366D01*
X132369780Y-77883671D01*
X132172551Y-77686442D01*
X132089481Y-77562119D01*
X131965158Y-77479049D01*
X131767929Y-77281820D01*
X131510234Y-77175079D01*
X131385914Y-77092011D01*
X131318000Y-77078502D01*
X131318000Y-71472100D01*
X131694809Y-71472100D01*
X131928198Y-71375427D01*
X132106827Y-71196799D01*
X132203500Y-70963410D01*
X132203500Y-70110350D01*
X132044750Y-69951600D01*
X131318000Y-69951600D01*
X131318000Y-69697600D01*
X132044750Y-69697600D01*
X132203500Y-69538850D01*
X132203500Y-68707000D01*
X132281394Y-68707000D01*
X136562197Y-72987803D01*
X136562197Y-72987803D01*
G37*
X136562197Y-72987803D02*
X136564959Y-72990481D01*
X137330000Y-73710520D01*
X137330001Y-122932867D01*
X135673345Y-124624037D01*
X131318000Y-128858400D01*
X131318000Y-122780100D01*
X131694809Y-122780100D01*
X131928198Y-122683427D01*
X132106827Y-122504799D01*
X132203500Y-122271410D01*
X132203500Y-121418350D01*
X132044750Y-121259600D01*
X131318000Y-121259600D01*
X131318000Y-121005600D01*
X132044750Y-121005600D01*
X132203500Y-120846850D01*
X132203500Y-119993790D01*
X132106827Y-119760401D01*
X131928198Y-119581773D01*
X131694809Y-119485100D01*
X131318000Y-119485100D01*
X131318000Y-119360047D01*
X131360514Y-119351590D01*
X131543424Y-119229373D01*
X131767929Y-119136380D01*
X131939758Y-118964551D01*
X132064081Y-118881481D01*
X132147151Y-118757158D01*
X132369780Y-118534529D01*
X132476521Y-118276835D01*
X132559589Y-118152514D01*
X132588758Y-118005869D01*
X132695500Y-117748173D01*
X132695500Y-117469243D01*
X132724669Y-117322601D01*
X132695500Y-117175958D01*
X132695500Y-116897027D01*
X132588758Y-116639330D01*
X132559589Y-116492686D01*
X132476521Y-116368366D01*
X132369780Y-116110671D01*
X132172551Y-115913442D01*
X132089481Y-115789119D01*
X131965158Y-115706049D01*
X131767929Y-115508820D01*
X131510234Y-115402079D01*
X131385914Y-115319011D01*
X131318000Y-115305502D01*
X131318000Y-110207100D01*
X131694809Y-110207100D01*
X131928198Y-110110427D01*
X132106827Y-109931799D01*
X132203500Y-109698410D01*
X132203500Y-108845350D01*
X132044750Y-108686600D01*
X131318000Y-108686600D01*
X131318000Y-108432600D01*
X132044750Y-108432600D01*
X132203500Y-108273850D01*
X132203500Y-107420790D01*
X132106827Y-107187401D01*
X131928198Y-107008773D01*
X131694809Y-106912100D01*
X131318000Y-106912100D01*
X131318000Y-106787047D01*
X131360514Y-106778590D01*
X131543424Y-106656373D01*
X131767929Y-106563380D01*
X131939758Y-106391551D01*
X132064081Y-106308481D01*
X132147151Y-106184158D01*
X132369780Y-105961529D01*
X132476521Y-105703835D01*
X132559589Y-105579514D01*
X132588758Y-105432869D01*
X132695500Y-105175173D01*
X132695500Y-104896243D01*
X132724669Y-104749601D01*
X132695500Y-104602958D01*
X132695500Y-104324027D01*
X132588758Y-104066330D01*
X132559589Y-103919686D01*
X132476521Y-103795366D01*
X132369780Y-103537671D01*
X132172551Y-103340442D01*
X132089481Y-103216119D01*
X131965158Y-103133049D01*
X131767929Y-102935820D01*
X131510234Y-102829079D01*
X131385914Y-102746011D01*
X131318000Y-102732502D01*
X131318000Y-97507100D01*
X131694809Y-97507100D01*
X131928198Y-97410427D01*
X132106827Y-97231799D01*
X132203500Y-96998410D01*
X132203500Y-96145350D01*
X132044750Y-95986600D01*
X131318000Y-95986600D01*
X131318000Y-95732600D01*
X132044750Y-95732600D01*
X132203500Y-95573850D01*
X132203500Y-94720790D01*
X132106827Y-94487401D01*
X131928198Y-94308773D01*
X131694809Y-94212100D01*
X131318000Y-94212100D01*
X131318000Y-94066699D01*
X131385914Y-94053190D01*
X131510238Y-93970119D01*
X131767929Y-93863380D01*
X131965158Y-93666151D01*
X132089481Y-93583081D01*
X132172551Y-93458758D01*
X132369780Y-93261529D01*
X132476519Y-93003838D01*
X132559590Y-92879514D01*
X132588760Y-92732865D01*
X132695500Y-92475173D01*
X132695500Y-92196248D01*
X132724670Y-92049600D01*
X132695500Y-91902952D01*
X132695500Y-91624027D01*
X132588760Y-91366335D01*
X132559590Y-91219686D01*
X132476519Y-91095362D01*
X132369780Y-90837671D01*
X132172551Y-90640442D01*
X132089481Y-90516119D01*
X132017786Y-90468214D01*
X131969881Y-90396519D01*
X131845558Y-90313449D01*
X131767929Y-90235820D01*
X131666502Y-90193808D01*
X131318000Y-89960946D01*
X131318000Y-84553100D01*
X131694809Y-84553100D01*
X131928198Y-84456427D01*
X132106827Y-84277799D01*
X132203500Y-84044410D01*
X132203500Y-83191350D01*
X132044750Y-83032600D01*
X131318000Y-83032600D01*
X131318000Y-82778600D01*
X132044750Y-82778600D01*
X132203500Y-82619850D01*
X132203500Y-81766790D01*
X132106827Y-81533401D01*
X131928198Y-81354773D01*
X131694809Y-81258100D01*
X131318000Y-81258100D01*
X131318000Y-81133047D01*
X131360514Y-81124590D01*
X131543424Y-81002373D01*
X131767929Y-80909380D01*
X131939758Y-80737551D01*
X132064081Y-80654481D01*
X132147151Y-80530158D01*
X132369780Y-80307529D01*
X132476521Y-80049835D01*
X132559589Y-79925514D01*
X132588758Y-79778869D01*
X132695500Y-79521173D01*
X132695500Y-79242243D01*
X132724669Y-79095601D01*
X132695500Y-78948958D01*
X132695500Y-78670027D01*
X132588758Y-78412330D01*
X132559589Y-78265686D01*
X132476521Y-78141366D01*
X132369780Y-77883671D01*
X132172551Y-77686442D01*
X132089481Y-77562119D01*
X131965158Y-77479049D01*
X131767929Y-77281820D01*
X131510234Y-77175079D01*
X131385914Y-77092011D01*
X131318000Y-77078502D01*
X131318000Y-71472100D01*
X131694809Y-71472100D01*
X131928198Y-71375427D01*
X132106827Y-71196799D01*
X132203500Y-70963410D01*
X132203500Y-70110350D01*
X132044750Y-69951600D01*
X131318000Y-69951600D01*
X131318000Y-69697600D01*
X132044750Y-69697600D01*
X132203500Y-69538850D01*
X132203500Y-68707000D01*
X132281394Y-68707000D01*
X136562197Y-72987803D01*
G36*
X137330001Y-123042989D02*
X128948436Y-131539370D01*
X126767059Y-133159821D01*
X118606759Y-133222113D01*
X118185080Y-128643882D01*
X125292175Y-128269824D01*
X125349132Y-128252909D01*
X126301947Y-127701279D01*
X126738800Y-127701279D01*
X127178533Y-127613811D01*
X127305163Y-127529200D01*
X127355515Y-127529200D01*
X127362278Y-127539322D01*
X127735067Y-127788411D01*
X128174800Y-127875879D01*
X128974800Y-127875879D01*
X129414533Y-127788411D01*
X129787322Y-127539322D01*
X130036411Y-127166533D01*
X130123879Y-126726800D01*
X130123879Y-125926800D01*
X130044314Y-125526800D01*
X130123879Y-125126800D01*
X130123879Y-124326800D01*
X130097011Y-124191724D01*
X131260652Y-122858826D01*
X131570127Y-122780100D01*
X131694809Y-122780100D01*
X131893256Y-122697901D01*
X137330001Y-121314869D01*
X137330001Y-123042989D01*
X137330001Y-123042989D01*
G37*
X137330001Y-123042989D02*
X128948436Y-131539370D01*
X126767059Y-133159821D01*
X118606759Y-133222113D01*
X118185080Y-128643882D01*
X125292175Y-128269824D01*
X125349132Y-128252909D01*
X126301947Y-127701279D01*
X126738800Y-127701279D01*
X127178533Y-127613811D01*
X127305163Y-127529200D01*
X127355515Y-127529200D01*
X127362278Y-127539322D01*
X127735067Y-127788411D01*
X128174800Y-127875879D01*
X128974800Y-127875879D01*
X129414533Y-127788411D01*
X129787322Y-127539322D01*
X130036411Y-127166533D01*
X130123879Y-126726800D01*
X130123879Y-125926800D01*
X130044314Y-125526800D01*
X130123879Y-125126800D01*
X130123879Y-124326800D01*
X130097011Y-124191724D01*
X131260652Y-122858826D01*
X131570127Y-122780100D01*
X131694809Y-122780100D01*
X131893256Y-122697901D01*
X137330001Y-121314869D01*
X137330001Y-123042989D01*
G36*
X111640070Y-132641970D02*
X96892451Y-132192043D01*
X96990257Y-132094237D01*
X97394000Y-131119516D01*
X97394000Y-130064484D01*
X96990257Y-129089763D01*
X96244237Y-128343743D01*
X95269516Y-127940000D01*
X94214484Y-127940000D01*
X93239763Y-128343743D01*
X92493743Y-129089763D01*
X92090000Y-130064484D01*
X92090000Y-131119516D01*
X92478476Y-132057379D01*
X74796489Y-131517929D01*
X83912243Y-122967750D01*
X91592000Y-122967750D01*
X91592000Y-123573310D01*
X91688673Y-123806699D01*
X91867302Y-123985327D01*
X92100691Y-124082000D01*
X92706250Y-124082000D01*
X92865000Y-123923250D01*
X92865000Y-122809000D01*
X93119000Y-122809000D01*
X93119000Y-123923250D01*
X93277750Y-124082000D01*
X93883309Y-124082000D01*
X94116698Y-123985327D01*
X94295327Y-123806699D01*
X94392000Y-123573310D01*
X94392000Y-122967750D01*
X94233250Y-122809000D01*
X93119000Y-122809000D01*
X92865000Y-122809000D01*
X91750750Y-122809000D01*
X91592000Y-122967750D01*
X83912243Y-122967750D01*
X85167162Y-121790690D01*
X91592000Y-121790690D01*
X91592000Y-122396250D01*
X91750750Y-122555000D01*
X92865000Y-122555000D01*
X92865000Y-121440750D01*
X93119000Y-121440750D01*
X93119000Y-122555000D01*
X94233250Y-122555000D01*
X94392000Y-122396250D01*
X94392000Y-122305658D01*
X94600000Y-122305658D01*
X94600000Y-123058342D01*
X94888040Y-123753732D01*
X95420268Y-124285960D01*
X96115658Y-124574000D01*
X96868342Y-124574000D01*
X97563732Y-124285960D01*
X98095960Y-123753732D01*
X98384000Y-123058342D01*
X98384000Y-122305658D01*
X98095960Y-121610268D01*
X97563732Y-121078040D01*
X96868342Y-120790000D01*
X96115658Y-120790000D01*
X95420268Y-121078040D01*
X94888040Y-121610268D01*
X94600000Y-122305658D01*
X94392000Y-122305658D01*
X94392000Y-121790690D01*
X94295327Y-121557301D01*
X94116698Y-121378673D01*
X93883309Y-121282000D01*
X93277750Y-121282000D01*
X93119000Y-121440750D01*
X92865000Y-121440750D01*
X92706250Y-121282000D01*
X92100691Y-121282000D01*
X91867302Y-121378673D01*
X91688673Y-121557301D01*
X91592000Y-121790690D01*
X85167162Y-121790690D01*
X89699293Y-117539750D01*
X91656000Y-117539750D01*
X91656000Y-119130309D01*
X91752673Y-119363698D01*
X91931301Y-119542327D01*
X92164690Y-119639000D01*
X92805250Y-119639000D01*
X92964000Y-119480250D01*
X92964000Y-117381000D01*
X93218000Y-117381000D01*
X93218000Y-119480250D01*
X93376750Y-119639000D01*
X94017310Y-119639000D01*
X94250699Y-119542327D01*
X94429327Y-119363698D01*
X94526000Y-119130309D01*
X94526000Y-117539750D01*
X94367250Y-117381000D01*
X93218000Y-117381000D01*
X92964000Y-117381000D01*
X91814750Y-117381000D01*
X91656000Y-117539750D01*
X89699293Y-117539750D01*
X91656000Y-115704445D01*
X91656000Y-116968250D01*
X91814750Y-117127000D01*
X92964000Y-117127000D01*
X92964000Y-117107000D01*
X93218000Y-117107000D01*
X93218000Y-117127000D01*
X94367250Y-117127000D01*
X94526000Y-116968250D01*
X94526000Y-115377691D01*
X94505892Y-115329146D01*
X94754230Y-115318349D01*
X111640070Y-132641970D01*
X111640070Y-132641970D01*
G37*
X111640070Y-132641970D02*
X96892451Y-132192043D01*
X96990257Y-132094237D01*
X97394000Y-131119516D01*
X97394000Y-130064484D01*
X96990257Y-129089763D01*
X96244237Y-128343743D01*
X95269516Y-127940000D01*
X94214484Y-127940000D01*
X93239763Y-128343743D01*
X92493743Y-129089763D01*
X92090000Y-130064484D01*
X92090000Y-131119516D01*
X92478476Y-132057379D01*
X74796489Y-131517929D01*
X83912243Y-122967750D01*
X91592000Y-122967750D01*
X91592000Y-123573310D01*
X91688673Y-123806699D01*
X91867302Y-123985327D01*
X92100691Y-124082000D01*
X92706250Y-124082000D01*
X92865000Y-123923250D01*
X92865000Y-122809000D01*
X93119000Y-122809000D01*
X93119000Y-123923250D01*
X93277750Y-124082000D01*
X93883309Y-124082000D01*
X94116698Y-123985327D01*
X94295327Y-123806699D01*
X94392000Y-123573310D01*
X94392000Y-122967750D01*
X94233250Y-122809000D01*
X93119000Y-122809000D01*
X92865000Y-122809000D01*
X91750750Y-122809000D01*
X91592000Y-122967750D01*
X83912243Y-122967750D01*
X85167162Y-121790690D01*
X91592000Y-121790690D01*
X91592000Y-122396250D01*
X91750750Y-122555000D01*
X92865000Y-122555000D01*
X92865000Y-121440750D01*
X93119000Y-121440750D01*
X93119000Y-122555000D01*
X94233250Y-122555000D01*
X94392000Y-122396250D01*
X94392000Y-122305658D01*
X94600000Y-122305658D01*
X94600000Y-123058342D01*
X94888040Y-123753732D01*
X95420268Y-124285960D01*
X96115658Y-124574000D01*
X96868342Y-124574000D01*
X97563732Y-124285960D01*
X98095960Y-123753732D01*
X98384000Y-123058342D01*
X98384000Y-122305658D01*
X98095960Y-121610268D01*
X97563732Y-121078040D01*
X96868342Y-120790000D01*
X96115658Y-120790000D01*
X95420268Y-121078040D01*
X94888040Y-121610268D01*
X94600000Y-122305658D01*
X94392000Y-122305658D01*
X94392000Y-121790690D01*
X94295327Y-121557301D01*
X94116698Y-121378673D01*
X93883309Y-121282000D01*
X93277750Y-121282000D01*
X93119000Y-121440750D01*
X92865000Y-121440750D01*
X92706250Y-121282000D01*
X92100691Y-121282000D01*
X91867302Y-121378673D01*
X91688673Y-121557301D01*
X91592000Y-121790690D01*
X85167162Y-121790690D01*
X89699293Y-117539750D01*
X91656000Y-117539750D01*
X91656000Y-119130309D01*
X91752673Y-119363698D01*
X91931301Y-119542327D01*
X92164690Y-119639000D01*
X92805250Y-119639000D01*
X92964000Y-119480250D01*
X92964000Y-117381000D01*
X93218000Y-117381000D01*
X93218000Y-119480250D01*
X93376750Y-119639000D01*
X94017310Y-119639000D01*
X94250699Y-119542327D01*
X94429327Y-119363698D01*
X94526000Y-119130309D01*
X94526000Y-117539750D01*
X94367250Y-117381000D01*
X93218000Y-117381000D01*
X92964000Y-117381000D01*
X91814750Y-117381000D01*
X91656000Y-117539750D01*
X89699293Y-117539750D01*
X91656000Y-115704445D01*
X91656000Y-116968250D01*
X91814750Y-117127000D01*
X92964000Y-117127000D01*
X92964000Y-117107000D01*
X93218000Y-117107000D01*
X93218000Y-117127000D01*
X94367250Y-117127000D01*
X94526000Y-116968250D01*
X94526000Y-115377691D01*
X94505892Y-115329146D01*
X94754230Y-115318349D01*
X111640070Y-132641970D01*
G36*
X107166691Y-133150285D02*
X103722412Y-134795885D01*
X103697847Y-134790999D01*
X85536153Y-134790999D01*
X85506528Y-134796892D01*
X85479963Y-134798191D01*
X85457256Y-134803580D01*
X85434029Y-134801302D01*
X85198608Y-134845147D01*
X85075106Y-134880911D01*
X79189275Y-132031421D01*
X84441415Y-130064484D01*
X92090000Y-130064484D01*
X92090000Y-131119516D01*
X92493743Y-132094237D01*
X93239763Y-132840257D01*
X94214484Y-133244000D01*
X95269516Y-133244000D01*
X96244237Y-132840257D01*
X96990257Y-132094237D01*
X97394000Y-131119516D01*
X97394000Y-130064484D01*
X96990257Y-129089763D01*
X96244237Y-128343743D01*
X95269516Y-127940000D01*
X94214484Y-127940000D01*
X93239763Y-128343743D01*
X92493743Y-129089763D01*
X92090000Y-130064484D01*
X84441415Y-130064484D01*
X94794704Y-126187157D01*
X107166691Y-133150285D01*
X107166691Y-133150285D01*
G37*
X107166691Y-133150285D02*
X103722412Y-134795885D01*
X103697847Y-134790999D01*
X85536153Y-134790999D01*
X85506528Y-134796892D01*
X85479963Y-134798191D01*
X85457256Y-134803580D01*
X85434029Y-134801302D01*
X85198608Y-134845147D01*
X85075106Y-134880911D01*
X79189275Y-132031421D01*
X84441415Y-130064484D01*
X92090000Y-130064484D01*
X92090000Y-131119516D01*
X92493743Y-132094237D01*
X93239763Y-132840257D01*
X94214484Y-133244000D01*
X95269516Y-133244000D01*
X96244237Y-132840257D01*
X96990257Y-132094237D01*
X97394000Y-131119516D01*
X97394000Y-130064484D01*
X96990257Y-129089763D01*
X96244237Y-128343743D01*
X95269516Y-127940000D01*
X94214484Y-127940000D01*
X93239763Y-128343743D01*
X92493743Y-129089763D01*
X92090000Y-130064484D01*
X84441415Y-130064484D01*
X94794704Y-126187157D01*
X107166691Y-133150285D01*
G36*
X138130000Y-74718661D02*
X132120457Y-68820406D01*
X133452413Y-67004103D01*
X133473358Y-66959194D01*
X133477000Y-66929000D01*
X133477000Y-65659000D01*
X133467333Y-65610399D01*
X133431028Y-65561207D01*
X128986028Y-61878207D01*
X128942437Y-61854643D01*
X128905000Y-61849000D01*
X102882146Y-61849000D01*
X102235000Y-61201854D01*
X102235000Y-59309000D01*
X138130000Y-59309000D01*
X138130000Y-74718661D01*
X138130000Y-74718661D01*
G37*
X138130000Y-74718661D02*
X132120457Y-68820406D01*
X133452413Y-67004103D01*
X133473358Y-66959194D01*
X133477000Y-66929000D01*
X133477000Y-65659000D01*
X133467333Y-65610399D01*
X133431028Y-65561207D01*
X128986028Y-61878207D01*
X128942437Y-61854643D01*
X128905000Y-61849000D01*
X102882146Y-61849000D01*
X102235000Y-61201854D01*
X102235000Y-59309000D01*
X138130000Y-59309000D01*
X138130000Y-74718661D01*
M02*
