G04 #@! TF.GenerationSoftware,KiCad,Pcbnew,(5.0.1-3-g963ef8bb5)*
G04 #@! TF.CreationDate,2019-01-02T15:15:03+01:00*
G04 #@! TF.ProjectId,OIBUS_MOSFET_driver_module,4F494255535F4D4F534645545F647269,rev?*
G04 #@! TF.SameCoordinates,Original*
G04 #@! TF.FileFunction,Soldermask,Bot*
G04 #@! TF.FilePolarity,Negative*
%FSLAX46Y46*%
G04 Gerber Fmt 4.6, Leading zero omitted, Abs format (unit mm)*
G04 Created by KiCad (PCBNEW (5.0.1-3-g963ef8bb5)) date 2019 January 02, Wednesday 15:15:03*
%MOMM*%
%LPD*%
G01*
G04 APERTURE LIST*
%ADD10C,0.149860*%
G04 APERTURE END LIST*
D10*
G36*
X133982532Y-131051702D02*
X134308606Y-131116562D01*
X134827455Y-131331476D01*
X135224303Y-131596642D01*
X135294410Y-131643486D01*
X135691514Y-132040590D01*
X135691516Y-132040593D01*
X136003524Y-132507545D01*
X136218438Y-133026394D01*
X136328000Y-133577201D01*
X136328000Y-134138799D01*
X136218438Y-134689606D01*
X136003524Y-135208455D01*
X135693620Y-135672259D01*
X135691514Y-135675410D01*
X135294410Y-136072514D01*
X135294407Y-136072516D01*
X134827455Y-136384524D01*
X134308606Y-136599438D01*
X134033202Y-136654219D01*
X133757800Y-136709000D01*
X133196200Y-136709000D01*
X132920798Y-136654219D01*
X132645394Y-136599438D01*
X132126545Y-136384524D01*
X131659593Y-136072516D01*
X131659590Y-136072514D01*
X131262486Y-135675410D01*
X131260380Y-135672259D01*
X130950476Y-135208455D01*
X130735562Y-134689606D01*
X130626000Y-134138799D01*
X130626000Y-133577201D01*
X130735562Y-133026394D01*
X130950476Y-132507545D01*
X131262484Y-132040593D01*
X131262486Y-132040590D01*
X131659590Y-131643486D01*
X131729697Y-131596642D01*
X132126545Y-131331476D01*
X132645394Y-131116562D01*
X132971468Y-131051702D01*
X133196200Y-131007000D01*
X133757800Y-131007000D01*
X133982532Y-131051702D01*
X133982532Y-131051702D01*
G37*
G36*
X53972532Y-131051702D02*
X54298606Y-131116562D01*
X54817455Y-131331476D01*
X55214303Y-131596642D01*
X55284410Y-131643486D01*
X55681514Y-132040590D01*
X55681516Y-132040593D01*
X55993524Y-132507545D01*
X56208438Y-133026394D01*
X56318000Y-133577201D01*
X56318000Y-134138799D01*
X56208438Y-134689606D01*
X55993524Y-135208455D01*
X55683620Y-135672259D01*
X55681514Y-135675410D01*
X55284410Y-136072514D01*
X55284407Y-136072516D01*
X54817455Y-136384524D01*
X54298606Y-136599438D01*
X54023202Y-136654219D01*
X53747800Y-136709000D01*
X53186200Y-136709000D01*
X52910798Y-136654219D01*
X52635394Y-136599438D01*
X52116545Y-136384524D01*
X51649593Y-136072516D01*
X51649590Y-136072514D01*
X51252486Y-135675410D01*
X51250380Y-135672259D01*
X50940476Y-135208455D01*
X50725562Y-134689606D01*
X50616000Y-134138799D01*
X50616000Y-133577201D01*
X50725562Y-133026394D01*
X50940476Y-132507545D01*
X51252484Y-132040593D01*
X51252486Y-132040590D01*
X51649590Y-131643486D01*
X51719697Y-131596642D01*
X52116545Y-131331476D01*
X52635394Y-131116562D01*
X52961468Y-131051702D01*
X53186200Y-131007000D01*
X53747800Y-131007000D01*
X53972532Y-131051702D01*
X53972532Y-131051702D01*
G37*
G36*
X94947739Y-129026048D02*
X95201702Y-129076564D01*
X95488516Y-129195367D01*
X95746642Y-129367841D01*
X95966159Y-129587358D01*
X96138633Y-129845484D01*
X96257436Y-130132298D01*
X96318000Y-130436778D01*
X96318000Y-130747222D01*
X96257436Y-131051702D01*
X96138633Y-131338516D01*
X95966159Y-131596642D01*
X95746642Y-131816159D01*
X95488516Y-131988633D01*
X95201702Y-132107436D01*
X94947739Y-132157952D01*
X94897223Y-132168000D01*
X94586777Y-132168000D01*
X94536261Y-132157952D01*
X94282298Y-132107436D01*
X93995484Y-131988633D01*
X93737358Y-131816159D01*
X93517841Y-131596642D01*
X93345367Y-131338516D01*
X93226564Y-131051702D01*
X93166000Y-130747222D01*
X93166000Y-130436778D01*
X93226564Y-130132298D01*
X93345367Y-129845484D01*
X93517841Y-129587358D01*
X93737358Y-129367841D01*
X93995484Y-129195367D01*
X94282298Y-129076564D01*
X94536261Y-129026048D01*
X94586777Y-129016000D01*
X94897223Y-129016000D01*
X94947739Y-129026048D01*
X94947739Y-129026048D01*
G37*
G36*
X116025791Y-127582485D02*
X116059769Y-127592793D01*
X116091087Y-127609533D01*
X116118539Y-127632061D01*
X116141067Y-127659513D01*
X116157807Y-127690831D01*
X116168115Y-127724809D01*
X116172200Y-127766290D01*
X116172200Y-128367510D01*
X116168115Y-128408991D01*
X116157807Y-128442969D01*
X116141067Y-128474287D01*
X116118539Y-128501739D01*
X116091087Y-128524267D01*
X116059769Y-128541007D01*
X116025791Y-128551315D01*
X115984310Y-128555400D01*
X115308090Y-128555400D01*
X115266609Y-128551315D01*
X115232631Y-128541007D01*
X115201313Y-128524267D01*
X115173861Y-128501739D01*
X115151333Y-128474287D01*
X115134593Y-128442969D01*
X115124285Y-128408991D01*
X115120200Y-128367510D01*
X115120200Y-127766290D01*
X115124285Y-127724809D01*
X115134593Y-127690831D01*
X115151333Y-127659513D01*
X115173861Y-127632061D01*
X115201313Y-127609533D01*
X115232631Y-127592793D01*
X115266609Y-127582485D01*
X115308090Y-127578400D01*
X115984310Y-127578400D01*
X116025791Y-127582485D01*
X116025791Y-127582485D01*
G37*
G36*
X75030191Y-126617285D02*
X75064169Y-126627593D01*
X75095487Y-126644333D01*
X75122939Y-126666861D01*
X75145467Y-126694313D01*
X75162207Y-126725631D01*
X75172515Y-126759609D01*
X75176600Y-126801090D01*
X75176600Y-127402310D01*
X75172515Y-127443791D01*
X75162207Y-127477769D01*
X75145467Y-127509087D01*
X75122939Y-127536539D01*
X75095487Y-127559067D01*
X75064169Y-127575807D01*
X75030191Y-127586115D01*
X74988710Y-127590200D01*
X74312490Y-127590200D01*
X74271009Y-127586115D01*
X74237031Y-127575807D01*
X74205713Y-127559067D01*
X74178261Y-127536539D01*
X74155733Y-127509087D01*
X74138993Y-127477769D01*
X74128685Y-127443791D01*
X74124600Y-127402310D01*
X74124600Y-126801090D01*
X74128685Y-126759609D01*
X74138993Y-126725631D01*
X74155733Y-126694313D01*
X74178261Y-126666861D01*
X74205713Y-126644333D01*
X74237031Y-126627593D01*
X74271009Y-126617285D01*
X74312490Y-126613200D01*
X74988710Y-126613200D01*
X75030191Y-126617285D01*
X75030191Y-126617285D01*
G37*
G36*
X116025791Y-126007485D02*
X116059769Y-126017793D01*
X116091087Y-126034533D01*
X116118539Y-126057061D01*
X116141067Y-126084513D01*
X116157807Y-126115831D01*
X116168115Y-126149809D01*
X116172200Y-126191290D01*
X116172200Y-126792510D01*
X116168115Y-126833991D01*
X116157807Y-126867969D01*
X116141067Y-126899287D01*
X116118539Y-126926739D01*
X116091087Y-126949267D01*
X116059769Y-126966007D01*
X116025791Y-126976315D01*
X115984310Y-126980400D01*
X115308090Y-126980400D01*
X115266609Y-126976315D01*
X115232631Y-126966007D01*
X115201313Y-126949267D01*
X115173861Y-126926739D01*
X115151333Y-126899287D01*
X115134593Y-126867969D01*
X115124285Y-126833991D01*
X115120200Y-126792510D01*
X115120200Y-126191290D01*
X115124285Y-126149809D01*
X115134593Y-126115831D01*
X115151333Y-126084513D01*
X115173861Y-126057061D01*
X115201313Y-126034533D01*
X115232631Y-126017793D01*
X115266609Y-126007485D01*
X115308090Y-126003400D01*
X115984310Y-126003400D01*
X116025791Y-126007485D01*
X116025791Y-126007485D01*
G37*
G36*
X75030191Y-125042285D02*
X75064169Y-125052593D01*
X75095487Y-125069333D01*
X75122939Y-125091861D01*
X75145467Y-125119313D01*
X75162207Y-125150631D01*
X75172515Y-125184609D01*
X75176600Y-125226090D01*
X75176600Y-125827310D01*
X75172515Y-125868791D01*
X75162207Y-125902769D01*
X75145467Y-125934087D01*
X75122939Y-125961539D01*
X75095487Y-125984067D01*
X75064169Y-126000807D01*
X75030191Y-126011115D01*
X74988710Y-126015200D01*
X74312490Y-126015200D01*
X74271009Y-126011115D01*
X74237031Y-126000807D01*
X74205713Y-125984067D01*
X74178261Y-125961539D01*
X74155733Y-125934087D01*
X74138993Y-125902769D01*
X74128685Y-125868791D01*
X74124600Y-125827310D01*
X74124600Y-125226090D01*
X74128685Y-125184609D01*
X74138993Y-125150631D01*
X74155733Y-125119313D01*
X74178261Y-125091861D01*
X74205713Y-125069333D01*
X74237031Y-125052593D01*
X74271009Y-125042285D01*
X74312490Y-125038200D01*
X74988710Y-125038200D01*
X75030191Y-125042285D01*
X75030191Y-125042285D01*
G37*
G36*
X105520442Y-121914518D02*
X105586627Y-121921037D01*
X105699853Y-121955384D01*
X105756467Y-121972557D01*
X105895087Y-122046652D01*
X105912991Y-122056222D01*
X105948729Y-122085552D01*
X106050186Y-122168814D01*
X106133448Y-122270271D01*
X106162778Y-122306009D01*
X106162779Y-122306011D01*
X106246443Y-122462533D01*
X106246443Y-122462534D01*
X106297963Y-122632373D01*
X106315359Y-122809000D01*
X106297963Y-122985627D01*
X106272818Y-123068519D01*
X106246443Y-123155467D01*
X106172348Y-123294087D01*
X106162778Y-123311991D01*
X106133448Y-123347729D01*
X106050186Y-123449186D01*
X105948729Y-123532448D01*
X105912991Y-123561778D01*
X105912989Y-123561779D01*
X105756467Y-123645443D01*
X105699853Y-123662616D01*
X105586627Y-123696963D01*
X105520442Y-123703482D01*
X105454260Y-123710000D01*
X105365740Y-123710000D01*
X105299558Y-123703482D01*
X105233373Y-123696963D01*
X105120147Y-123662616D01*
X105063533Y-123645443D01*
X104907011Y-123561779D01*
X104907009Y-123561778D01*
X104871271Y-123532448D01*
X104769814Y-123449186D01*
X104686552Y-123347729D01*
X104657222Y-123311991D01*
X104647652Y-123294087D01*
X104573557Y-123155467D01*
X104547182Y-123068519D01*
X104522037Y-122985627D01*
X104504641Y-122809000D01*
X104522037Y-122632373D01*
X104573557Y-122462534D01*
X104573557Y-122462533D01*
X104657221Y-122306011D01*
X104657222Y-122306009D01*
X104686552Y-122270271D01*
X104769814Y-122168814D01*
X104871271Y-122085552D01*
X104907009Y-122056222D01*
X104924913Y-122046652D01*
X105063533Y-121972557D01*
X105120147Y-121955384D01*
X105233373Y-121921037D01*
X105299558Y-121914518D01*
X105365740Y-121908000D01*
X105454260Y-121908000D01*
X105520442Y-121914518D01*
X105520442Y-121914518D01*
G37*
G36*
X108851000Y-123710000D02*
X107049000Y-123710000D01*
X107049000Y-121908000D01*
X108851000Y-121908000D01*
X108851000Y-123710000D01*
X108851000Y-123710000D01*
G37*
G36*
X96730016Y-121897358D02*
X96730019Y-121897359D01*
X96730018Y-121897359D01*
X96878521Y-121958870D01*
X97012170Y-122048172D01*
X97125828Y-122161830D01*
X97215130Y-122295479D01*
X97219492Y-122306011D01*
X97276642Y-122443984D01*
X97308000Y-122601630D01*
X97308000Y-122762370D01*
X97276642Y-122920016D01*
X97276641Y-122920018D01*
X97215130Y-123068521D01*
X97125828Y-123202170D01*
X97012170Y-123315828D01*
X96878521Y-123405130D01*
X96755497Y-123456087D01*
X96730016Y-123466642D01*
X96572370Y-123498000D01*
X96411630Y-123498000D01*
X96253984Y-123466642D01*
X96228503Y-123456087D01*
X96105479Y-123405130D01*
X95971830Y-123315828D01*
X95858172Y-123202170D01*
X95768870Y-123068521D01*
X95707359Y-122920018D01*
X95707358Y-122920016D01*
X95676000Y-122762370D01*
X95676000Y-122601630D01*
X95707358Y-122443984D01*
X95764508Y-122306011D01*
X95768870Y-122295479D01*
X95858172Y-122161830D01*
X95971830Y-122048172D01*
X96105479Y-121958870D01*
X96253982Y-121897359D01*
X96253981Y-121897359D01*
X96253984Y-121897358D01*
X96411630Y-121866000D01*
X96572370Y-121866000D01*
X96730016Y-121897358D01*
X96730016Y-121897358D01*
G37*
G36*
X93808000Y-123498000D02*
X92176000Y-123498000D01*
X92176000Y-121866000D01*
X93808000Y-121866000D01*
X93808000Y-123498000D01*
X93808000Y-123498000D01*
G37*
G36*
X131238500Y-122221500D02*
X129111500Y-122221500D01*
X129111500Y-120094500D01*
X131238500Y-120094500D01*
X131238500Y-122221500D01*
X131238500Y-122221500D01*
G37*
G36*
X57079209Y-120135369D02*
X57079211Y-120135370D01*
X57079212Y-120135370D01*
X57272756Y-120215538D01*
X57272757Y-120215539D01*
X57446945Y-120331927D01*
X57595073Y-120480055D01*
X57595075Y-120480058D01*
X57711462Y-120654244D01*
X57791630Y-120847788D01*
X57832500Y-121053254D01*
X57832500Y-121262746D01*
X57791630Y-121468212D01*
X57711462Y-121661756D01*
X57711461Y-121661757D01*
X57595073Y-121835945D01*
X57446945Y-121984073D01*
X57446942Y-121984075D01*
X57272756Y-122100462D01*
X57079212Y-122180630D01*
X57079211Y-122180630D01*
X57079209Y-122180631D01*
X56873747Y-122221500D01*
X56664253Y-122221500D01*
X56458791Y-122180631D01*
X56458789Y-122180630D01*
X56458788Y-122180630D01*
X56265244Y-122100462D01*
X56091058Y-121984075D01*
X56091055Y-121984073D01*
X55942927Y-121835945D01*
X55826539Y-121661757D01*
X55826538Y-121661756D01*
X55746370Y-121468212D01*
X55705500Y-121262746D01*
X55705500Y-121053254D01*
X55746370Y-120847788D01*
X55826538Y-120654244D01*
X55942925Y-120480058D01*
X55942927Y-120480055D01*
X56091055Y-120331927D01*
X56265243Y-120215539D01*
X56265244Y-120215538D01*
X56458788Y-120135370D01*
X56458789Y-120135370D01*
X56458791Y-120135369D01*
X56664253Y-120094500D01*
X56873747Y-120094500D01*
X57079209Y-120135369D01*
X57079209Y-120135369D01*
G37*
G36*
X130485209Y-116325369D02*
X130485211Y-116325370D01*
X130485212Y-116325370D01*
X130678756Y-116405538D01*
X130678757Y-116405539D01*
X130852945Y-116521927D01*
X131001073Y-116670055D01*
X131001075Y-116670058D01*
X131117462Y-116844244D01*
X131197630Y-117037788D01*
X131238500Y-117243254D01*
X131238500Y-117452746D01*
X131197630Y-117658212D01*
X131117462Y-117851756D01*
X131117461Y-117851757D01*
X131001073Y-118025945D01*
X130852945Y-118174073D01*
X130852942Y-118174075D01*
X130678756Y-118290462D01*
X130485212Y-118370630D01*
X130485211Y-118370630D01*
X130485209Y-118370631D01*
X130279747Y-118411500D01*
X130070253Y-118411500D01*
X129864791Y-118370631D01*
X129864789Y-118370630D01*
X129864788Y-118370630D01*
X129671244Y-118290462D01*
X129497058Y-118174075D01*
X129497055Y-118174073D01*
X129348927Y-118025945D01*
X129232539Y-117851757D01*
X129232538Y-117851756D01*
X129152370Y-117658212D01*
X129111500Y-117452746D01*
X129111500Y-117243254D01*
X129152370Y-117037788D01*
X129232538Y-116844244D01*
X129348925Y-116670058D01*
X129348927Y-116670055D01*
X129497055Y-116521927D01*
X129671243Y-116405539D01*
X129671244Y-116405538D01*
X129864788Y-116325370D01*
X129864789Y-116325370D01*
X129864791Y-116325369D01*
X130070253Y-116284500D01*
X130279747Y-116284500D01*
X130485209Y-116325369D01*
X130485209Y-116325369D01*
G37*
G36*
X57832500Y-118411500D02*
X55705500Y-118411500D01*
X55705500Y-116284500D01*
X57832500Y-116284500D01*
X57832500Y-118411500D01*
X57832500Y-118411500D01*
G37*
G36*
X69150591Y-110501485D02*
X69184569Y-110511793D01*
X69215887Y-110528533D01*
X69243339Y-110551061D01*
X69265867Y-110578513D01*
X69282607Y-110609831D01*
X69292915Y-110643809D01*
X69297000Y-110685290D01*
X69297000Y-111361510D01*
X69292915Y-111402991D01*
X69282607Y-111436969D01*
X69265867Y-111468287D01*
X69243339Y-111495739D01*
X69215887Y-111518267D01*
X69184569Y-111535007D01*
X69150591Y-111545315D01*
X69109110Y-111549400D01*
X68507890Y-111549400D01*
X68466409Y-111545315D01*
X68432431Y-111535007D01*
X68401113Y-111518267D01*
X68373661Y-111495739D01*
X68351133Y-111468287D01*
X68334393Y-111436969D01*
X68324085Y-111402991D01*
X68320000Y-111361510D01*
X68320000Y-110685290D01*
X68324085Y-110643809D01*
X68334393Y-110609831D01*
X68351133Y-110578513D01*
X68373661Y-110551061D01*
X68401113Y-110528533D01*
X68432431Y-110511793D01*
X68466409Y-110501485D01*
X68507890Y-110497400D01*
X69109110Y-110497400D01*
X69150591Y-110501485D01*
X69150591Y-110501485D01*
G37*
G36*
X70725591Y-110501485D02*
X70759569Y-110511793D01*
X70790887Y-110528533D01*
X70818339Y-110551061D01*
X70840867Y-110578513D01*
X70857607Y-110609831D01*
X70867915Y-110643809D01*
X70872000Y-110685290D01*
X70872000Y-111361510D01*
X70867915Y-111402991D01*
X70857607Y-111436969D01*
X70840867Y-111468287D01*
X70818339Y-111495739D01*
X70790887Y-111518267D01*
X70759569Y-111535007D01*
X70725591Y-111545315D01*
X70684110Y-111549400D01*
X70082890Y-111549400D01*
X70041409Y-111545315D01*
X70007431Y-111535007D01*
X69976113Y-111518267D01*
X69948661Y-111495739D01*
X69926133Y-111468287D01*
X69909393Y-111436969D01*
X69899085Y-111402991D01*
X69895000Y-111361510D01*
X69895000Y-110685290D01*
X69899085Y-110643809D01*
X69909393Y-110609831D01*
X69926133Y-110578513D01*
X69948661Y-110551061D01*
X69976113Y-110528533D01*
X70007431Y-110511793D01*
X70041409Y-110501485D01*
X70082890Y-110497400D01*
X70684110Y-110497400D01*
X70725591Y-110501485D01*
X70725591Y-110501485D01*
G37*
G36*
X57079209Y-107562369D02*
X57079211Y-107562370D01*
X57079212Y-107562370D01*
X57272756Y-107642538D01*
X57272757Y-107642539D01*
X57446945Y-107758927D01*
X57595073Y-107907055D01*
X57595075Y-107907058D01*
X57711462Y-108081244D01*
X57791630Y-108274788D01*
X57791631Y-108274791D01*
X57832500Y-108480253D01*
X57832500Y-108689746D01*
X57791630Y-108895212D01*
X57711462Y-109088756D01*
X57596640Y-109260599D01*
X57595073Y-109262945D01*
X57446945Y-109411073D01*
X57446942Y-109411075D01*
X57272756Y-109527462D01*
X57079212Y-109607630D01*
X57079211Y-109607630D01*
X57079209Y-109607631D01*
X56873747Y-109648500D01*
X56664253Y-109648500D01*
X56458791Y-109607631D01*
X56458789Y-109607630D01*
X56458788Y-109607630D01*
X56265244Y-109527462D01*
X56091058Y-109411075D01*
X56091055Y-109411073D01*
X55942927Y-109262945D01*
X55941360Y-109260599D01*
X55826538Y-109088756D01*
X55746370Y-108895212D01*
X55705500Y-108689746D01*
X55705500Y-108480253D01*
X55746369Y-108274791D01*
X55746370Y-108274788D01*
X55826538Y-108081244D01*
X55942925Y-107907058D01*
X55942927Y-107907055D01*
X56091055Y-107758927D01*
X56265243Y-107642539D01*
X56265244Y-107642538D01*
X56458788Y-107562370D01*
X56458789Y-107562370D01*
X56458791Y-107562369D01*
X56664253Y-107521500D01*
X56873747Y-107521500D01*
X57079209Y-107562369D01*
X57079209Y-107562369D01*
G37*
G36*
X131238500Y-109648500D02*
X129111500Y-109648500D01*
X129111500Y-107521500D01*
X131238500Y-107521500D01*
X131238500Y-109648500D01*
X131238500Y-109648500D01*
G37*
G36*
X98931591Y-108151485D02*
X98965569Y-108161793D01*
X98996887Y-108178533D01*
X99024339Y-108201061D01*
X99046867Y-108228513D01*
X99063607Y-108259831D01*
X99073915Y-108293809D01*
X99078000Y-108335290D01*
X99078000Y-108936510D01*
X99073915Y-108977991D01*
X99063607Y-109011969D01*
X99046867Y-109043287D01*
X99024339Y-109070739D01*
X98996887Y-109093267D01*
X98965569Y-109110007D01*
X98931591Y-109120315D01*
X98890110Y-109124400D01*
X98213890Y-109124400D01*
X98172409Y-109120315D01*
X98138431Y-109110007D01*
X98107113Y-109093267D01*
X98079661Y-109070739D01*
X98057133Y-109043287D01*
X98040393Y-109011969D01*
X98030085Y-108977991D01*
X98026000Y-108936510D01*
X98026000Y-108335290D01*
X98030085Y-108293809D01*
X98040393Y-108259831D01*
X98057133Y-108228513D01*
X98079661Y-108201061D01*
X98107113Y-108178533D01*
X98138431Y-108161793D01*
X98172409Y-108151485D01*
X98213890Y-108147400D01*
X98890110Y-108147400D01*
X98931591Y-108151485D01*
X98931591Y-108151485D01*
G37*
G36*
X98931591Y-106576485D02*
X98965569Y-106586793D01*
X98996887Y-106603533D01*
X99024339Y-106626061D01*
X99046867Y-106653513D01*
X99063607Y-106684831D01*
X99073915Y-106718809D01*
X99078000Y-106760290D01*
X99078000Y-107361510D01*
X99073915Y-107402991D01*
X99063607Y-107436969D01*
X99046867Y-107468287D01*
X99024339Y-107495739D01*
X98996887Y-107518267D01*
X98965569Y-107535007D01*
X98931591Y-107545315D01*
X98890110Y-107549400D01*
X98213890Y-107549400D01*
X98172409Y-107545315D01*
X98138431Y-107535007D01*
X98107113Y-107518267D01*
X98079661Y-107495739D01*
X98057133Y-107468287D01*
X98040393Y-107436969D01*
X98030085Y-107402991D01*
X98026000Y-107361510D01*
X98026000Y-106760290D01*
X98030085Y-106718809D01*
X98040393Y-106684831D01*
X98057133Y-106653513D01*
X98079661Y-106626061D01*
X98107113Y-106603533D01*
X98138431Y-106586793D01*
X98172409Y-106576485D01*
X98213890Y-106572400D01*
X98890110Y-106572400D01*
X98931591Y-106576485D01*
X98931591Y-106576485D01*
G37*
G36*
X57832500Y-105838500D02*
X55705500Y-105838500D01*
X55705500Y-103711500D01*
X57832500Y-103711500D01*
X57832500Y-105838500D01*
X57832500Y-105838500D01*
G37*
G36*
X130485209Y-103752369D02*
X130485211Y-103752370D01*
X130485212Y-103752370D01*
X130678756Y-103832538D01*
X130678757Y-103832539D01*
X130852945Y-103948927D01*
X131001073Y-104097055D01*
X131001075Y-104097058D01*
X131117462Y-104271244D01*
X131197630Y-104464788D01*
X131238500Y-104670254D01*
X131238500Y-104879746D01*
X131197630Y-105085212D01*
X131117462Y-105278756D01*
X131117461Y-105278757D01*
X131001073Y-105452945D01*
X130852945Y-105601073D01*
X130852942Y-105601075D01*
X130678756Y-105717462D01*
X130485212Y-105797630D01*
X130485211Y-105797630D01*
X130485209Y-105797631D01*
X130279747Y-105838500D01*
X130070253Y-105838500D01*
X129864791Y-105797631D01*
X129864789Y-105797630D01*
X129864788Y-105797630D01*
X129671244Y-105717462D01*
X129497058Y-105601075D01*
X129497055Y-105601073D01*
X129348927Y-105452945D01*
X129232539Y-105278757D01*
X129232538Y-105278756D01*
X129152370Y-105085212D01*
X129111500Y-104879746D01*
X129111500Y-104670254D01*
X129152370Y-104464788D01*
X129232538Y-104271244D01*
X129348925Y-104097058D01*
X129348927Y-104097055D01*
X129497055Y-103948927D01*
X129671243Y-103832539D01*
X129671244Y-103832538D01*
X129864788Y-103752370D01*
X129864789Y-103752370D01*
X129864791Y-103752369D01*
X130070253Y-103711500D01*
X130279747Y-103711500D01*
X130485209Y-103752369D01*
X130485209Y-103752369D01*
G37*
G36*
X118172791Y-99706485D02*
X118206769Y-99716793D01*
X118238087Y-99733533D01*
X118265539Y-99756061D01*
X118288067Y-99783513D01*
X118304807Y-99814831D01*
X118315115Y-99848809D01*
X118319200Y-99890290D01*
X118319200Y-100566510D01*
X118315115Y-100607991D01*
X118304807Y-100641969D01*
X118288067Y-100673287D01*
X118265539Y-100700739D01*
X118238087Y-100723267D01*
X118206769Y-100740007D01*
X118172791Y-100750315D01*
X118131310Y-100754400D01*
X117530090Y-100754400D01*
X117488609Y-100750315D01*
X117454631Y-100740007D01*
X117423313Y-100723267D01*
X117395861Y-100700739D01*
X117373333Y-100673287D01*
X117356593Y-100641969D01*
X117346285Y-100607991D01*
X117342200Y-100566510D01*
X117342200Y-99890290D01*
X117346285Y-99848809D01*
X117356593Y-99814831D01*
X117373333Y-99783513D01*
X117395861Y-99756061D01*
X117423313Y-99733533D01*
X117454631Y-99716793D01*
X117488609Y-99706485D01*
X117530090Y-99702400D01*
X118131310Y-99702400D01*
X118172791Y-99706485D01*
X118172791Y-99706485D01*
G37*
G36*
X116597791Y-99706485D02*
X116631769Y-99716793D01*
X116663087Y-99733533D01*
X116690539Y-99756061D01*
X116713067Y-99783513D01*
X116729807Y-99814831D01*
X116740115Y-99848809D01*
X116744200Y-99890290D01*
X116744200Y-100566510D01*
X116740115Y-100607991D01*
X116729807Y-100641969D01*
X116713067Y-100673287D01*
X116690539Y-100700739D01*
X116663087Y-100723267D01*
X116631769Y-100740007D01*
X116597791Y-100750315D01*
X116556310Y-100754400D01*
X115955090Y-100754400D01*
X115913609Y-100750315D01*
X115879631Y-100740007D01*
X115848313Y-100723267D01*
X115820861Y-100700739D01*
X115798333Y-100673287D01*
X115781593Y-100641969D01*
X115771285Y-100607991D01*
X115767200Y-100566510D01*
X115767200Y-99890290D01*
X115771285Y-99848809D01*
X115781593Y-99814831D01*
X115798333Y-99783513D01*
X115820861Y-99756061D01*
X115848313Y-99733533D01*
X115879631Y-99716793D01*
X115913609Y-99706485D01*
X115955090Y-99702400D01*
X116556310Y-99702400D01*
X116597791Y-99706485D01*
X116597791Y-99706485D01*
G37*
G36*
X131238500Y-96948500D02*
X129111500Y-96948500D01*
X129111500Y-94821500D01*
X131238500Y-94821500D01*
X131238500Y-96948500D01*
X131238500Y-96948500D01*
G37*
G36*
X57079209Y-94735369D02*
X57079211Y-94735370D01*
X57079212Y-94735370D01*
X57272756Y-94815538D01*
X57444599Y-94930360D01*
X57446945Y-94931927D01*
X57595073Y-95080055D01*
X57595075Y-95080058D01*
X57711462Y-95254244D01*
X57791630Y-95447788D01*
X57832500Y-95653254D01*
X57832500Y-95862746D01*
X57791630Y-96068212D01*
X57711462Y-96261756D01*
X57711461Y-96261757D01*
X57595073Y-96435945D01*
X57446945Y-96584073D01*
X57446942Y-96584075D01*
X57272756Y-96700462D01*
X57079212Y-96780630D01*
X57079211Y-96780630D01*
X57079209Y-96780631D01*
X56873747Y-96821500D01*
X56664253Y-96821500D01*
X56458791Y-96780631D01*
X56458789Y-96780630D01*
X56458788Y-96780630D01*
X56265244Y-96700462D01*
X56091058Y-96584075D01*
X56091055Y-96584073D01*
X55942927Y-96435945D01*
X55826539Y-96261757D01*
X55826538Y-96261756D01*
X55746370Y-96068212D01*
X55705500Y-95862746D01*
X55705500Y-95653254D01*
X55746370Y-95447788D01*
X55826538Y-95254244D01*
X55942925Y-95080058D01*
X55942927Y-95080055D01*
X56091055Y-94931927D01*
X56093401Y-94930360D01*
X56265244Y-94815538D01*
X56458788Y-94735370D01*
X56458789Y-94735370D01*
X56458791Y-94735369D01*
X56664253Y-94694500D01*
X56873747Y-94694500D01*
X57079209Y-94735369D01*
X57079209Y-94735369D01*
G37*
G36*
X130485209Y-91052369D02*
X130485211Y-91052370D01*
X130485212Y-91052370D01*
X130678756Y-91132538D01*
X130678757Y-91132539D01*
X130852945Y-91248927D01*
X131001073Y-91397055D01*
X131001075Y-91397058D01*
X131117462Y-91571244D01*
X131197630Y-91764788D01*
X131238500Y-91970254D01*
X131238500Y-92179746D01*
X131197630Y-92385212D01*
X131117462Y-92578756D01*
X131117461Y-92578757D01*
X131001073Y-92752945D01*
X130852945Y-92901073D01*
X130852942Y-92901075D01*
X130678756Y-93017462D01*
X130485212Y-93097630D01*
X130485211Y-93097630D01*
X130485209Y-93097631D01*
X130279747Y-93138500D01*
X130070253Y-93138500D01*
X129864791Y-93097631D01*
X129864789Y-93097630D01*
X129864788Y-93097630D01*
X129671244Y-93017462D01*
X129497058Y-92901075D01*
X129497055Y-92901073D01*
X129348927Y-92752945D01*
X129232539Y-92578757D01*
X129232538Y-92578756D01*
X129152370Y-92385212D01*
X129111500Y-92179746D01*
X129111500Y-91970254D01*
X129152370Y-91764788D01*
X129232538Y-91571244D01*
X129348925Y-91397058D01*
X129348927Y-91397055D01*
X129497055Y-91248927D01*
X129671243Y-91132539D01*
X129671244Y-91132538D01*
X129864788Y-91052370D01*
X129864789Y-91052370D01*
X129864791Y-91052369D01*
X130070253Y-91011500D01*
X130279747Y-91011500D01*
X130485209Y-91052369D01*
X130485209Y-91052369D01*
G37*
G36*
X57832500Y-93011500D02*
X55705500Y-93011500D01*
X55705500Y-90884500D01*
X57832500Y-90884500D01*
X57832500Y-93011500D01*
X57832500Y-93011500D01*
G37*
G36*
X70725591Y-86498485D02*
X70759569Y-86508793D01*
X70790887Y-86525533D01*
X70818339Y-86548061D01*
X70840867Y-86575513D01*
X70857607Y-86606831D01*
X70867915Y-86640809D01*
X70872000Y-86682290D01*
X70872000Y-87358510D01*
X70867915Y-87399991D01*
X70857607Y-87433969D01*
X70840867Y-87465287D01*
X70818339Y-87492739D01*
X70790887Y-87515267D01*
X70759569Y-87532007D01*
X70725591Y-87542315D01*
X70684110Y-87546400D01*
X70082890Y-87546400D01*
X70041409Y-87542315D01*
X70007431Y-87532007D01*
X69976113Y-87515267D01*
X69948661Y-87492739D01*
X69926133Y-87465287D01*
X69909393Y-87433969D01*
X69899085Y-87399991D01*
X69895000Y-87358510D01*
X69895000Y-86682290D01*
X69899085Y-86640809D01*
X69909393Y-86606831D01*
X69926133Y-86575513D01*
X69948661Y-86548061D01*
X69976113Y-86525533D01*
X70007431Y-86508793D01*
X70041409Y-86498485D01*
X70082890Y-86494400D01*
X70684110Y-86494400D01*
X70725591Y-86498485D01*
X70725591Y-86498485D01*
G37*
G36*
X69150591Y-86498485D02*
X69184569Y-86508793D01*
X69215887Y-86525533D01*
X69243339Y-86548061D01*
X69265867Y-86575513D01*
X69282607Y-86606831D01*
X69292915Y-86640809D01*
X69297000Y-86682290D01*
X69297000Y-87358510D01*
X69292915Y-87399991D01*
X69282607Y-87433969D01*
X69265867Y-87465287D01*
X69243339Y-87492739D01*
X69215887Y-87515267D01*
X69184569Y-87532007D01*
X69150591Y-87542315D01*
X69109110Y-87546400D01*
X68507890Y-87546400D01*
X68466409Y-87542315D01*
X68432431Y-87532007D01*
X68401113Y-87515267D01*
X68373661Y-87492739D01*
X68351133Y-87465287D01*
X68334393Y-87433969D01*
X68324085Y-87399991D01*
X68320000Y-87358510D01*
X68320000Y-86682290D01*
X68324085Y-86640809D01*
X68334393Y-86606831D01*
X68351133Y-86575513D01*
X68373661Y-86548061D01*
X68401113Y-86525533D01*
X68432431Y-86508793D01*
X68466409Y-86498485D01*
X68507890Y-86494400D01*
X69109110Y-86494400D01*
X69150591Y-86498485D01*
X69150591Y-86498485D01*
G37*
G36*
X131238500Y-83994500D02*
X129111500Y-83994500D01*
X129111500Y-81867500D01*
X131238500Y-81867500D01*
X131238500Y-83994500D01*
X131238500Y-83994500D01*
G37*
G36*
X57079209Y-81908369D02*
X57079211Y-81908370D01*
X57079212Y-81908370D01*
X57272756Y-81988538D01*
X57272757Y-81988539D01*
X57446945Y-82104927D01*
X57595073Y-82253055D01*
X57595075Y-82253058D01*
X57711462Y-82427244D01*
X57791630Y-82620788D01*
X57832500Y-82826254D01*
X57832500Y-83035746D01*
X57791630Y-83241212D01*
X57711462Y-83434756D01*
X57711461Y-83434757D01*
X57595073Y-83608945D01*
X57446945Y-83757073D01*
X57446942Y-83757075D01*
X57272756Y-83873462D01*
X57079212Y-83953630D01*
X57079211Y-83953630D01*
X57079209Y-83953631D01*
X56873747Y-83994500D01*
X56664253Y-83994500D01*
X56458791Y-83953631D01*
X56458789Y-83953630D01*
X56458788Y-83953630D01*
X56265244Y-83873462D01*
X56091058Y-83757075D01*
X56091055Y-83757073D01*
X55942927Y-83608945D01*
X55826539Y-83434757D01*
X55826538Y-83434756D01*
X55746370Y-83241212D01*
X55705500Y-83035746D01*
X55705500Y-82826254D01*
X55746370Y-82620788D01*
X55826538Y-82427244D01*
X55942925Y-82253058D01*
X55942927Y-82253055D01*
X56091055Y-82104927D01*
X56265243Y-81988539D01*
X56265244Y-81988538D01*
X56458788Y-81908370D01*
X56458789Y-81908370D01*
X56458791Y-81908369D01*
X56664253Y-81867500D01*
X56873747Y-81867500D01*
X57079209Y-81908369D01*
X57079209Y-81908369D01*
G37*
G36*
X130485209Y-78098369D02*
X130485211Y-78098370D01*
X130485212Y-78098370D01*
X130678756Y-78178538D01*
X130678757Y-78178539D01*
X130852945Y-78294927D01*
X131001073Y-78443055D01*
X131001075Y-78443058D01*
X131117462Y-78617244D01*
X131197630Y-78810788D01*
X131238500Y-79016254D01*
X131238500Y-79225746D01*
X131197630Y-79431212D01*
X131117462Y-79624756D01*
X131117461Y-79624757D01*
X131001073Y-79798945D01*
X130852945Y-79947073D01*
X130852942Y-79947075D01*
X130678756Y-80063462D01*
X130485212Y-80143630D01*
X130485211Y-80143630D01*
X130485209Y-80143631D01*
X130279747Y-80184500D01*
X130070253Y-80184500D01*
X129864791Y-80143631D01*
X129864789Y-80143630D01*
X129864788Y-80143630D01*
X129671244Y-80063462D01*
X129497058Y-79947075D01*
X129497055Y-79947073D01*
X129348927Y-79798945D01*
X129232539Y-79624757D01*
X129232538Y-79624756D01*
X129152370Y-79431212D01*
X129111500Y-79225746D01*
X129111500Y-79016254D01*
X129152370Y-78810788D01*
X129232538Y-78617244D01*
X129348925Y-78443058D01*
X129348927Y-78443055D01*
X129497055Y-78294927D01*
X129671243Y-78178539D01*
X129671244Y-78178538D01*
X129864788Y-78098370D01*
X129864789Y-78098370D01*
X129864791Y-78098369D01*
X130070253Y-78057500D01*
X130279747Y-78057500D01*
X130485209Y-78098369D01*
X130485209Y-78098369D01*
G37*
G36*
X57832500Y-80184500D02*
X55705500Y-80184500D01*
X55705500Y-78057500D01*
X57832500Y-78057500D01*
X57832500Y-80184500D01*
X57832500Y-80184500D01*
G37*
G36*
X116623191Y-74306485D02*
X116657169Y-74316793D01*
X116688487Y-74333533D01*
X116715939Y-74356061D01*
X116738467Y-74383513D01*
X116755207Y-74414831D01*
X116765515Y-74448809D01*
X116769600Y-74490290D01*
X116769600Y-75166510D01*
X116765515Y-75207991D01*
X116755207Y-75241969D01*
X116738467Y-75273287D01*
X116715939Y-75300739D01*
X116688487Y-75323267D01*
X116657169Y-75340007D01*
X116623191Y-75350315D01*
X116581710Y-75354400D01*
X115980490Y-75354400D01*
X115939009Y-75350315D01*
X115905031Y-75340007D01*
X115873713Y-75323267D01*
X115846261Y-75300739D01*
X115823733Y-75273287D01*
X115806993Y-75241969D01*
X115796685Y-75207991D01*
X115792600Y-75166510D01*
X115792600Y-74490290D01*
X115796685Y-74448809D01*
X115806993Y-74414831D01*
X115823733Y-74383513D01*
X115846261Y-74356061D01*
X115873713Y-74333533D01*
X115905031Y-74316793D01*
X115939009Y-74306485D01*
X115980490Y-74302400D01*
X116581710Y-74302400D01*
X116623191Y-74306485D01*
X116623191Y-74306485D01*
G37*
G36*
X118198191Y-74306485D02*
X118232169Y-74316793D01*
X118263487Y-74333533D01*
X118290939Y-74356061D01*
X118313467Y-74383513D01*
X118330207Y-74414831D01*
X118340515Y-74448809D01*
X118344600Y-74490290D01*
X118344600Y-75166510D01*
X118340515Y-75207991D01*
X118330207Y-75241969D01*
X118313467Y-75273287D01*
X118290939Y-75300739D01*
X118263487Y-75323267D01*
X118232169Y-75340007D01*
X118198191Y-75350315D01*
X118156710Y-75354400D01*
X117555490Y-75354400D01*
X117514009Y-75350315D01*
X117480031Y-75340007D01*
X117448713Y-75323267D01*
X117421261Y-75300739D01*
X117398733Y-75273287D01*
X117381993Y-75241969D01*
X117371685Y-75207991D01*
X117367600Y-75166510D01*
X117367600Y-74490290D01*
X117371685Y-74448809D01*
X117381993Y-74414831D01*
X117398733Y-74383513D01*
X117421261Y-74356061D01*
X117448713Y-74333533D01*
X117480031Y-74316793D01*
X117514009Y-74306485D01*
X117555490Y-74302400D01*
X118156710Y-74302400D01*
X118198191Y-74306485D01*
X118198191Y-74306485D01*
G37*
G36*
X57079209Y-69208369D02*
X57079211Y-69208370D01*
X57079212Y-69208370D01*
X57272756Y-69288538D01*
X57272757Y-69288539D01*
X57446945Y-69404927D01*
X57595073Y-69553055D01*
X57595075Y-69553058D01*
X57711462Y-69727244D01*
X57791630Y-69920788D01*
X57832500Y-70126254D01*
X57832500Y-70335746D01*
X57791630Y-70541212D01*
X57711462Y-70734756D01*
X57711461Y-70734757D01*
X57595073Y-70908945D01*
X57446945Y-71057073D01*
X57446942Y-71057075D01*
X57272756Y-71173462D01*
X57079212Y-71253630D01*
X57079211Y-71253630D01*
X57079209Y-71253631D01*
X56873747Y-71294500D01*
X56664253Y-71294500D01*
X56458791Y-71253631D01*
X56458789Y-71253630D01*
X56458788Y-71253630D01*
X56265244Y-71173462D01*
X56091058Y-71057075D01*
X56091055Y-71057073D01*
X55942927Y-70908945D01*
X55826539Y-70734757D01*
X55826538Y-70734756D01*
X55746370Y-70541212D01*
X55705500Y-70335746D01*
X55705500Y-70126254D01*
X55746370Y-69920788D01*
X55826538Y-69727244D01*
X55942925Y-69553058D01*
X55942927Y-69553055D01*
X56091055Y-69404927D01*
X56265243Y-69288539D01*
X56265244Y-69288538D01*
X56458788Y-69208370D01*
X56458789Y-69208370D01*
X56458791Y-69208369D01*
X56664253Y-69167500D01*
X56873747Y-69167500D01*
X57079209Y-69208369D01*
X57079209Y-69208369D01*
G37*
G36*
X131238500Y-70913500D02*
X129111500Y-70913500D01*
X129111500Y-68786500D01*
X131238500Y-68786500D01*
X131238500Y-70913500D01*
X131238500Y-70913500D01*
G37*
G36*
X57832500Y-67484500D02*
X55705500Y-67484500D01*
X55705500Y-65357500D01*
X57832500Y-65357500D01*
X57832500Y-67484500D01*
X57832500Y-67484500D01*
G37*
G36*
X130485209Y-65017369D02*
X130485211Y-65017370D01*
X130485212Y-65017370D01*
X130678756Y-65097538D01*
X130678757Y-65097539D01*
X130852945Y-65213927D01*
X131001073Y-65362055D01*
X131001075Y-65362058D01*
X131117462Y-65536244D01*
X131197630Y-65729788D01*
X131238500Y-65935254D01*
X131238500Y-66144746D01*
X131197630Y-66350212D01*
X131117462Y-66543756D01*
X131117461Y-66543757D01*
X131001073Y-66717945D01*
X130852945Y-66866073D01*
X130852942Y-66866075D01*
X130678756Y-66982462D01*
X130485212Y-67062630D01*
X130485211Y-67062630D01*
X130485209Y-67062631D01*
X130279747Y-67103500D01*
X130070253Y-67103500D01*
X129864791Y-67062631D01*
X129864789Y-67062630D01*
X129864788Y-67062630D01*
X129671244Y-66982462D01*
X129497058Y-66866075D01*
X129497055Y-66866073D01*
X129348927Y-66717945D01*
X129232539Y-66543757D01*
X129232538Y-66543756D01*
X129152370Y-66350212D01*
X129111500Y-66144746D01*
X129111500Y-65935254D01*
X129152370Y-65729788D01*
X129232538Y-65536244D01*
X129348925Y-65362058D01*
X129348927Y-65362055D01*
X129497055Y-65213927D01*
X129671243Y-65097539D01*
X129671244Y-65097538D01*
X129864788Y-65017370D01*
X129864789Y-65017370D01*
X129864791Y-65017369D01*
X130070253Y-64976500D01*
X130279747Y-64976500D01*
X130485209Y-65017369D01*
X130485209Y-65017369D01*
G37*
G36*
X68680191Y-63549085D02*
X68714169Y-63559393D01*
X68745487Y-63576133D01*
X68772939Y-63598661D01*
X68795467Y-63626113D01*
X68812207Y-63657431D01*
X68822515Y-63691409D01*
X68826600Y-63732890D01*
X68826600Y-64334110D01*
X68822515Y-64375591D01*
X68812207Y-64409569D01*
X68795467Y-64440887D01*
X68772939Y-64468339D01*
X68745487Y-64490867D01*
X68714169Y-64507607D01*
X68680191Y-64517915D01*
X68638710Y-64522000D01*
X67962490Y-64522000D01*
X67921009Y-64517915D01*
X67887031Y-64507607D01*
X67855713Y-64490867D01*
X67828261Y-64468339D01*
X67805733Y-64440887D01*
X67788993Y-64409569D01*
X67778685Y-64375591D01*
X67774600Y-64334110D01*
X67774600Y-63732890D01*
X67778685Y-63691409D01*
X67788993Y-63657431D01*
X67805733Y-63626113D01*
X67828261Y-63598661D01*
X67855713Y-63576133D01*
X67887031Y-63559393D01*
X67921009Y-63549085D01*
X67962490Y-63545000D01*
X68638710Y-63545000D01*
X68680191Y-63549085D01*
X68680191Y-63549085D01*
G37*
G36*
X105662591Y-63320385D02*
X105696569Y-63330693D01*
X105727887Y-63347433D01*
X105755339Y-63369961D01*
X105777867Y-63397413D01*
X105794607Y-63428731D01*
X105804915Y-63462709D01*
X105809000Y-63504190D01*
X105809000Y-64105410D01*
X105804915Y-64146891D01*
X105794607Y-64180869D01*
X105777867Y-64212187D01*
X105755339Y-64239639D01*
X105727887Y-64262167D01*
X105696569Y-64278907D01*
X105662591Y-64289215D01*
X105621110Y-64293300D01*
X104944890Y-64293300D01*
X104903409Y-64289215D01*
X104869431Y-64278907D01*
X104838113Y-64262167D01*
X104810661Y-64239639D01*
X104788133Y-64212187D01*
X104771393Y-64180869D01*
X104761085Y-64146891D01*
X104757000Y-64105410D01*
X104757000Y-63504190D01*
X104761085Y-63462709D01*
X104771393Y-63428731D01*
X104788133Y-63397413D01*
X104810661Y-63369961D01*
X104838113Y-63347433D01*
X104869431Y-63330693D01*
X104903409Y-63320385D01*
X104944890Y-63316300D01*
X105621110Y-63316300D01*
X105662591Y-63320385D01*
X105662591Y-63320385D01*
G37*
G36*
X68680191Y-61974085D02*
X68714169Y-61984393D01*
X68745487Y-62001133D01*
X68772939Y-62023661D01*
X68795467Y-62051113D01*
X68812207Y-62082431D01*
X68822515Y-62116409D01*
X68826600Y-62157890D01*
X68826600Y-62759110D01*
X68822515Y-62800591D01*
X68812207Y-62834569D01*
X68795467Y-62865887D01*
X68772939Y-62893339D01*
X68745487Y-62915867D01*
X68714169Y-62932607D01*
X68680191Y-62942915D01*
X68638710Y-62947000D01*
X67962490Y-62947000D01*
X67921009Y-62942915D01*
X67887031Y-62932607D01*
X67855713Y-62915867D01*
X67828261Y-62893339D01*
X67805733Y-62865887D01*
X67788993Y-62834569D01*
X67778685Y-62800591D01*
X67774600Y-62759110D01*
X67774600Y-62157890D01*
X67778685Y-62116409D01*
X67788993Y-62082431D01*
X67805733Y-62051113D01*
X67828261Y-62023661D01*
X67855713Y-62001133D01*
X67887031Y-61984393D01*
X67921009Y-61974085D01*
X67962490Y-61970000D01*
X68638710Y-61970000D01*
X68680191Y-61974085D01*
X68680191Y-61974085D01*
G37*
G36*
X105662591Y-61745385D02*
X105696569Y-61755693D01*
X105727887Y-61772433D01*
X105755339Y-61794961D01*
X105777867Y-61822413D01*
X105794607Y-61853731D01*
X105804915Y-61887709D01*
X105809000Y-61929190D01*
X105809000Y-62530410D01*
X105804915Y-62571891D01*
X105794607Y-62605869D01*
X105777867Y-62637187D01*
X105755339Y-62664639D01*
X105727887Y-62687167D01*
X105696569Y-62703907D01*
X105662591Y-62714215D01*
X105621110Y-62718300D01*
X104944890Y-62718300D01*
X104903409Y-62714215D01*
X104869431Y-62703907D01*
X104838113Y-62687167D01*
X104810661Y-62664639D01*
X104788133Y-62637187D01*
X104771393Y-62605869D01*
X104761085Y-62571891D01*
X104757000Y-62530410D01*
X104757000Y-61929190D01*
X104761085Y-61887709D01*
X104771393Y-61853731D01*
X104788133Y-61822413D01*
X104810661Y-61794961D01*
X104838113Y-61772433D01*
X104869431Y-61755693D01*
X104903409Y-61745385D01*
X104944890Y-61741300D01*
X105621110Y-61741300D01*
X105662591Y-61745385D01*
X105662591Y-61745385D01*
G37*
G36*
X53301200Y-62470600D02*
X51499200Y-62470600D01*
X51499200Y-60668600D01*
X53301200Y-60668600D01*
X53301200Y-62470600D01*
X53301200Y-62470600D01*
G37*
G36*
X52510643Y-58135119D02*
X52576827Y-58141637D01*
X52690053Y-58175984D01*
X52746667Y-58193157D01*
X52885287Y-58267252D01*
X52903191Y-58276822D01*
X52938929Y-58306152D01*
X53040386Y-58389414D01*
X53123648Y-58490871D01*
X53152978Y-58526609D01*
X53152979Y-58526611D01*
X53236643Y-58683133D01*
X53236643Y-58683134D01*
X53288163Y-58852973D01*
X53305559Y-59029600D01*
X53288163Y-59206227D01*
X53253816Y-59319453D01*
X53236643Y-59376067D01*
X53162548Y-59514687D01*
X53152978Y-59532591D01*
X53123648Y-59568329D01*
X53040386Y-59669786D01*
X52938929Y-59753048D01*
X52903191Y-59782378D01*
X52903189Y-59782379D01*
X52746667Y-59866043D01*
X52690053Y-59883216D01*
X52576827Y-59917563D01*
X52510643Y-59924081D01*
X52444460Y-59930600D01*
X52355940Y-59930600D01*
X52289757Y-59924081D01*
X52223573Y-59917563D01*
X52110347Y-59883216D01*
X52053733Y-59866043D01*
X51897211Y-59782379D01*
X51897209Y-59782378D01*
X51861471Y-59753048D01*
X51760014Y-59669786D01*
X51676752Y-59568329D01*
X51647422Y-59532591D01*
X51637852Y-59514687D01*
X51563757Y-59376067D01*
X51546584Y-59319453D01*
X51512237Y-59206227D01*
X51494841Y-59029600D01*
X51512237Y-58852973D01*
X51563757Y-58683134D01*
X51563757Y-58683133D01*
X51647421Y-58526611D01*
X51647422Y-58526609D01*
X51676752Y-58490871D01*
X51760014Y-58389414D01*
X51861471Y-58306152D01*
X51897209Y-58276822D01*
X51915113Y-58267252D01*
X52053733Y-58193157D01*
X52110347Y-58175984D01*
X52223573Y-58141637D01*
X52289757Y-58135119D01*
X52355940Y-58128600D01*
X52444460Y-58128600D01*
X52510643Y-58135119D01*
X52510643Y-58135119D01*
G37*
G36*
X52510642Y-55595118D02*
X52576827Y-55601637D01*
X52690053Y-55635984D01*
X52746667Y-55653157D01*
X52885287Y-55727252D01*
X52903191Y-55736822D01*
X52938929Y-55766152D01*
X53040386Y-55849414D01*
X53123648Y-55950871D01*
X53152978Y-55986609D01*
X53152979Y-55986611D01*
X53236643Y-56143133D01*
X53236643Y-56143134D01*
X53288163Y-56312973D01*
X53305559Y-56489600D01*
X53288163Y-56666227D01*
X53253816Y-56779453D01*
X53236643Y-56836067D01*
X53162548Y-56974687D01*
X53152978Y-56992591D01*
X53123648Y-57028329D01*
X53040386Y-57129786D01*
X52938929Y-57213048D01*
X52903191Y-57242378D01*
X52903189Y-57242379D01*
X52746667Y-57326043D01*
X52690053Y-57343216D01*
X52576827Y-57377563D01*
X52510642Y-57384082D01*
X52444460Y-57390600D01*
X52355940Y-57390600D01*
X52289758Y-57384082D01*
X52223573Y-57377563D01*
X52110347Y-57343216D01*
X52053733Y-57326043D01*
X51897211Y-57242379D01*
X51897209Y-57242378D01*
X51861471Y-57213048D01*
X51760014Y-57129786D01*
X51676752Y-57028329D01*
X51647422Y-56992591D01*
X51637852Y-56974687D01*
X51563757Y-56836067D01*
X51546584Y-56779453D01*
X51512237Y-56666227D01*
X51494841Y-56489600D01*
X51512237Y-56312973D01*
X51563757Y-56143134D01*
X51563757Y-56143133D01*
X51647421Y-55986611D01*
X51647422Y-55986609D01*
X51676752Y-55950871D01*
X51760014Y-55849414D01*
X51861471Y-55766152D01*
X51897209Y-55736822D01*
X51915113Y-55727252D01*
X52053733Y-55653157D01*
X52110347Y-55635984D01*
X52223573Y-55601637D01*
X52289758Y-55595118D01*
X52355940Y-55588600D01*
X52444460Y-55588600D01*
X52510642Y-55595118D01*
X52510642Y-55595118D01*
G37*
G36*
X126094142Y-54971242D02*
X126242102Y-55032530D01*
X126375258Y-55121502D01*
X126488498Y-55234742D01*
X126577470Y-55367898D01*
X126638758Y-55515858D01*
X126670000Y-55672925D01*
X126670000Y-55833075D01*
X126638758Y-55990142D01*
X126577470Y-56138102D01*
X126488498Y-56271258D01*
X126375258Y-56384498D01*
X126242102Y-56473470D01*
X126094142Y-56534758D01*
X125937075Y-56566000D01*
X125776925Y-56566000D01*
X125619858Y-56534758D01*
X125471898Y-56473470D01*
X125338742Y-56384498D01*
X125225502Y-56271258D01*
X125136530Y-56138102D01*
X125075242Y-55990142D01*
X125044000Y-55833075D01*
X125044000Y-55672925D01*
X125075242Y-55515858D01*
X125136530Y-55367898D01*
X125225502Y-55234742D01*
X125338742Y-55121502D01*
X125471898Y-55032530D01*
X125619858Y-54971242D01*
X125776925Y-54940000D01*
X125937075Y-54940000D01*
X126094142Y-54971242D01*
X126094142Y-54971242D01*
G37*
G36*
X123554142Y-54971242D02*
X123702102Y-55032530D01*
X123835258Y-55121502D01*
X123948498Y-55234742D01*
X124037470Y-55367898D01*
X124098758Y-55515858D01*
X124130000Y-55672925D01*
X124130000Y-55833075D01*
X124098758Y-55990142D01*
X124037470Y-56138102D01*
X123948498Y-56271258D01*
X123835258Y-56384498D01*
X123702102Y-56473470D01*
X123554142Y-56534758D01*
X123397075Y-56566000D01*
X123236925Y-56566000D01*
X123079858Y-56534758D01*
X122931898Y-56473470D01*
X122798742Y-56384498D01*
X122685502Y-56271258D01*
X122596530Y-56138102D01*
X122535242Y-55990142D01*
X122504000Y-55833075D01*
X122504000Y-55672925D01*
X122535242Y-55515858D01*
X122596530Y-55367898D01*
X122685502Y-55234742D01*
X122798742Y-55121502D01*
X122931898Y-55032530D01*
X123079858Y-54971242D01*
X123236925Y-54940000D01*
X123397075Y-54940000D01*
X123554142Y-54971242D01*
X123554142Y-54971242D01*
G37*
G36*
X121014142Y-54971242D02*
X121162102Y-55032530D01*
X121295258Y-55121502D01*
X121408498Y-55234742D01*
X121497470Y-55367898D01*
X121558758Y-55515858D01*
X121590000Y-55672925D01*
X121590000Y-55833075D01*
X121558758Y-55990142D01*
X121497470Y-56138102D01*
X121408498Y-56271258D01*
X121295258Y-56384498D01*
X121162102Y-56473470D01*
X121014142Y-56534758D01*
X120857075Y-56566000D01*
X120696925Y-56566000D01*
X120539858Y-56534758D01*
X120391898Y-56473470D01*
X120258742Y-56384498D01*
X120145502Y-56271258D01*
X120056530Y-56138102D01*
X119995242Y-55990142D01*
X119964000Y-55833075D01*
X119964000Y-55672925D01*
X119995242Y-55515858D01*
X120056530Y-55367898D01*
X120145502Y-55234742D01*
X120258742Y-55121502D01*
X120391898Y-55032530D01*
X120539858Y-54971242D01*
X120696925Y-54940000D01*
X120857075Y-54940000D01*
X121014142Y-54971242D01*
X121014142Y-54971242D01*
G37*
G36*
X118474142Y-54971242D02*
X118622102Y-55032530D01*
X118755258Y-55121502D01*
X118868498Y-55234742D01*
X118957470Y-55367898D01*
X119018758Y-55515858D01*
X119050000Y-55672925D01*
X119050000Y-55833075D01*
X119018758Y-55990142D01*
X118957470Y-56138102D01*
X118868498Y-56271258D01*
X118755258Y-56384498D01*
X118622102Y-56473470D01*
X118474142Y-56534758D01*
X118317075Y-56566000D01*
X118156925Y-56566000D01*
X117999858Y-56534758D01*
X117851898Y-56473470D01*
X117718742Y-56384498D01*
X117605502Y-56271258D01*
X117516530Y-56138102D01*
X117455242Y-55990142D01*
X117424000Y-55833075D01*
X117424000Y-55672925D01*
X117455242Y-55515858D01*
X117516530Y-55367898D01*
X117605502Y-55234742D01*
X117718742Y-55121502D01*
X117851898Y-55032530D01*
X117999858Y-54971242D01*
X118156925Y-54940000D01*
X118317075Y-54940000D01*
X118474142Y-54971242D01*
X118474142Y-54971242D01*
G37*
G36*
X115934142Y-54971242D02*
X116082102Y-55032530D01*
X116215258Y-55121502D01*
X116328498Y-55234742D01*
X116417470Y-55367898D01*
X116478758Y-55515858D01*
X116510000Y-55672925D01*
X116510000Y-55833075D01*
X116478758Y-55990142D01*
X116417470Y-56138102D01*
X116328498Y-56271258D01*
X116215258Y-56384498D01*
X116082102Y-56473470D01*
X115934142Y-56534758D01*
X115777075Y-56566000D01*
X115616925Y-56566000D01*
X115459858Y-56534758D01*
X115311898Y-56473470D01*
X115178742Y-56384498D01*
X115065502Y-56271258D01*
X114976530Y-56138102D01*
X114915242Y-55990142D01*
X114884000Y-55833075D01*
X114884000Y-55672925D01*
X114915242Y-55515858D01*
X114976530Y-55367898D01*
X115065502Y-55234742D01*
X115178742Y-55121502D01*
X115311898Y-55032530D01*
X115459858Y-54971242D01*
X115616925Y-54940000D01*
X115777075Y-54940000D01*
X115934142Y-54971242D01*
X115934142Y-54971242D01*
G37*
G36*
X113394142Y-54971242D02*
X113542102Y-55032530D01*
X113675258Y-55121502D01*
X113788498Y-55234742D01*
X113877470Y-55367898D01*
X113938758Y-55515858D01*
X113970000Y-55672925D01*
X113970000Y-55833075D01*
X113938758Y-55990142D01*
X113877470Y-56138102D01*
X113788498Y-56271258D01*
X113675258Y-56384498D01*
X113542102Y-56473470D01*
X113394142Y-56534758D01*
X113237075Y-56566000D01*
X113076925Y-56566000D01*
X112919858Y-56534758D01*
X112771898Y-56473470D01*
X112638742Y-56384498D01*
X112525502Y-56271258D01*
X112436530Y-56138102D01*
X112375242Y-55990142D01*
X112344000Y-55833075D01*
X112344000Y-55672925D01*
X112375242Y-55515858D01*
X112436530Y-55367898D01*
X112525502Y-55234742D01*
X112638742Y-55121502D01*
X112771898Y-55032530D01*
X112919858Y-54971242D01*
X113076925Y-54940000D01*
X113237075Y-54940000D01*
X113394142Y-54971242D01*
X113394142Y-54971242D01*
G37*
G36*
X110854142Y-54971242D02*
X111002102Y-55032530D01*
X111135258Y-55121502D01*
X111248498Y-55234742D01*
X111337470Y-55367898D01*
X111398758Y-55515858D01*
X111430000Y-55672925D01*
X111430000Y-55833075D01*
X111398758Y-55990142D01*
X111337470Y-56138102D01*
X111248498Y-56271258D01*
X111135258Y-56384498D01*
X111002102Y-56473470D01*
X110854142Y-56534758D01*
X110697075Y-56566000D01*
X110536925Y-56566000D01*
X110379858Y-56534758D01*
X110231898Y-56473470D01*
X110098742Y-56384498D01*
X109985502Y-56271258D01*
X109896530Y-56138102D01*
X109835242Y-55990142D01*
X109804000Y-55833075D01*
X109804000Y-55672925D01*
X109835242Y-55515858D01*
X109896530Y-55367898D01*
X109985502Y-55234742D01*
X110098742Y-55121502D01*
X110231898Y-55032530D01*
X110379858Y-54971242D01*
X110536925Y-54940000D01*
X110697075Y-54940000D01*
X110854142Y-54971242D01*
X110854142Y-54971242D01*
G37*
G36*
X108314142Y-54971242D02*
X108462102Y-55032530D01*
X108595258Y-55121502D01*
X108708498Y-55234742D01*
X108797470Y-55367898D01*
X108858758Y-55515858D01*
X108890000Y-55672925D01*
X108890000Y-55833075D01*
X108858758Y-55990142D01*
X108797470Y-56138102D01*
X108708498Y-56271258D01*
X108595258Y-56384498D01*
X108462102Y-56473470D01*
X108314142Y-56534758D01*
X108157075Y-56566000D01*
X107996925Y-56566000D01*
X107839858Y-56534758D01*
X107691898Y-56473470D01*
X107558742Y-56384498D01*
X107445502Y-56271258D01*
X107356530Y-56138102D01*
X107295242Y-55990142D01*
X107264000Y-55833075D01*
X107264000Y-55672925D01*
X107295242Y-55515858D01*
X107356530Y-55367898D01*
X107445502Y-55234742D01*
X107558742Y-55121502D01*
X107691898Y-55032530D01*
X107839858Y-54971242D01*
X107996925Y-54940000D01*
X108157075Y-54940000D01*
X108314142Y-54971242D01*
X108314142Y-54971242D01*
G37*
G36*
X105774142Y-54971242D02*
X105922102Y-55032530D01*
X106055258Y-55121502D01*
X106168498Y-55234742D01*
X106257470Y-55367898D01*
X106318758Y-55515858D01*
X106350000Y-55672925D01*
X106350000Y-55833075D01*
X106318758Y-55990142D01*
X106257470Y-56138102D01*
X106168498Y-56271258D01*
X106055258Y-56384498D01*
X105922102Y-56473470D01*
X105774142Y-56534758D01*
X105617075Y-56566000D01*
X105456925Y-56566000D01*
X105299858Y-56534758D01*
X105151898Y-56473470D01*
X105018742Y-56384498D01*
X104905502Y-56271258D01*
X104816530Y-56138102D01*
X104755242Y-55990142D01*
X104724000Y-55833075D01*
X104724000Y-55672925D01*
X104755242Y-55515858D01*
X104816530Y-55367898D01*
X104905502Y-55234742D01*
X105018742Y-55121502D01*
X105151898Y-55032530D01*
X105299858Y-54971242D01*
X105456925Y-54940000D01*
X105617075Y-54940000D01*
X105774142Y-54971242D01*
X105774142Y-54971242D01*
G37*
G36*
X103234142Y-54971242D02*
X103382102Y-55032530D01*
X103515258Y-55121502D01*
X103628498Y-55234742D01*
X103717470Y-55367898D01*
X103778758Y-55515858D01*
X103810000Y-55672925D01*
X103810000Y-55833075D01*
X103778758Y-55990142D01*
X103717470Y-56138102D01*
X103628498Y-56271258D01*
X103515258Y-56384498D01*
X103382102Y-56473470D01*
X103234142Y-56534758D01*
X103077075Y-56566000D01*
X102916925Y-56566000D01*
X102759858Y-56534758D01*
X102611898Y-56473470D01*
X102478742Y-56384498D01*
X102365502Y-56271258D01*
X102276530Y-56138102D01*
X102215242Y-55990142D01*
X102184000Y-55833075D01*
X102184000Y-55672925D01*
X102215242Y-55515858D01*
X102276530Y-55367898D01*
X102365502Y-55234742D01*
X102478742Y-55121502D01*
X102611898Y-55032530D01*
X102759858Y-54971242D01*
X102916925Y-54940000D01*
X103077075Y-54940000D01*
X103234142Y-54971242D01*
X103234142Y-54971242D01*
G37*
G36*
X100694142Y-54971242D02*
X100842102Y-55032530D01*
X100975258Y-55121502D01*
X101088498Y-55234742D01*
X101177470Y-55367898D01*
X101238758Y-55515858D01*
X101270000Y-55672925D01*
X101270000Y-55833075D01*
X101238758Y-55990142D01*
X101177470Y-56138102D01*
X101088498Y-56271258D01*
X100975258Y-56384498D01*
X100842102Y-56473470D01*
X100694142Y-56534758D01*
X100537075Y-56566000D01*
X100376925Y-56566000D01*
X100219858Y-56534758D01*
X100071898Y-56473470D01*
X99938742Y-56384498D01*
X99825502Y-56271258D01*
X99736530Y-56138102D01*
X99675242Y-55990142D01*
X99644000Y-55833075D01*
X99644000Y-55672925D01*
X99675242Y-55515858D01*
X99736530Y-55367898D01*
X99825502Y-55234742D01*
X99938742Y-55121502D01*
X100071898Y-55032530D01*
X100219858Y-54971242D01*
X100376925Y-54940000D01*
X100537075Y-54940000D01*
X100694142Y-54971242D01*
X100694142Y-54971242D01*
G37*
G36*
X98154142Y-54971242D02*
X98302102Y-55032530D01*
X98435258Y-55121502D01*
X98548498Y-55234742D01*
X98637470Y-55367898D01*
X98698758Y-55515858D01*
X98730000Y-55672925D01*
X98730000Y-55833075D01*
X98698758Y-55990142D01*
X98637470Y-56138102D01*
X98548498Y-56271258D01*
X98435258Y-56384498D01*
X98302102Y-56473470D01*
X98154142Y-56534758D01*
X97997075Y-56566000D01*
X97836925Y-56566000D01*
X97679858Y-56534758D01*
X97531898Y-56473470D01*
X97398742Y-56384498D01*
X97285502Y-56271258D01*
X97196530Y-56138102D01*
X97135242Y-55990142D01*
X97104000Y-55833075D01*
X97104000Y-55672925D01*
X97135242Y-55515858D01*
X97196530Y-55367898D01*
X97285502Y-55234742D01*
X97398742Y-55121502D01*
X97531898Y-55032530D01*
X97679858Y-54971242D01*
X97836925Y-54940000D01*
X97997075Y-54940000D01*
X98154142Y-54971242D01*
X98154142Y-54971242D01*
G37*
G36*
X95614142Y-54971242D02*
X95762102Y-55032530D01*
X95895258Y-55121502D01*
X96008498Y-55234742D01*
X96097470Y-55367898D01*
X96158758Y-55515858D01*
X96190000Y-55672925D01*
X96190000Y-55833075D01*
X96158758Y-55990142D01*
X96097470Y-56138102D01*
X96008498Y-56271258D01*
X95895258Y-56384498D01*
X95762102Y-56473470D01*
X95614142Y-56534758D01*
X95457075Y-56566000D01*
X95296925Y-56566000D01*
X95139858Y-56534758D01*
X94991898Y-56473470D01*
X94858742Y-56384498D01*
X94745502Y-56271258D01*
X94656530Y-56138102D01*
X94595242Y-55990142D01*
X94564000Y-55833075D01*
X94564000Y-55672925D01*
X94595242Y-55515858D01*
X94656530Y-55367898D01*
X94745502Y-55234742D01*
X94858742Y-55121502D01*
X94991898Y-55032530D01*
X95139858Y-54971242D01*
X95296925Y-54940000D01*
X95457075Y-54940000D01*
X95614142Y-54971242D01*
X95614142Y-54971242D01*
G37*
G36*
X93074142Y-54971242D02*
X93222102Y-55032530D01*
X93355258Y-55121502D01*
X93468498Y-55234742D01*
X93557470Y-55367898D01*
X93618758Y-55515858D01*
X93650000Y-55672925D01*
X93650000Y-55833075D01*
X93618758Y-55990142D01*
X93557470Y-56138102D01*
X93468498Y-56271258D01*
X93355258Y-56384498D01*
X93222102Y-56473470D01*
X93074142Y-56534758D01*
X92917075Y-56566000D01*
X92756925Y-56566000D01*
X92599858Y-56534758D01*
X92451898Y-56473470D01*
X92318742Y-56384498D01*
X92205502Y-56271258D01*
X92116530Y-56138102D01*
X92055242Y-55990142D01*
X92024000Y-55833075D01*
X92024000Y-55672925D01*
X92055242Y-55515858D01*
X92116530Y-55367898D01*
X92205502Y-55234742D01*
X92318742Y-55121502D01*
X92451898Y-55032530D01*
X92599858Y-54971242D01*
X92756925Y-54940000D01*
X92917075Y-54940000D01*
X93074142Y-54971242D01*
X93074142Y-54971242D01*
G37*
G36*
X90534142Y-54971242D02*
X90682102Y-55032530D01*
X90815258Y-55121502D01*
X90928498Y-55234742D01*
X91017470Y-55367898D01*
X91078758Y-55515858D01*
X91110000Y-55672925D01*
X91110000Y-55833075D01*
X91078758Y-55990142D01*
X91017470Y-56138102D01*
X90928498Y-56271258D01*
X90815258Y-56384498D01*
X90682102Y-56473470D01*
X90534142Y-56534758D01*
X90377075Y-56566000D01*
X90216925Y-56566000D01*
X90059858Y-56534758D01*
X89911898Y-56473470D01*
X89778742Y-56384498D01*
X89665502Y-56271258D01*
X89576530Y-56138102D01*
X89515242Y-55990142D01*
X89484000Y-55833075D01*
X89484000Y-55672925D01*
X89515242Y-55515858D01*
X89576530Y-55367898D01*
X89665502Y-55234742D01*
X89778742Y-55121502D01*
X89911898Y-55032530D01*
X90059858Y-54971242D01*
X90216925Y-54940000D01*
X90377075Y-54940000D01*
X90534142Y-54971242D01*
X90534142Y-54971242D01*
G37*
G36*
X87994142Y-54971242D02*
X88142102Y-55032530D01*
X88275258Y-55121502D01*
X88388498Y-55234742D01*
X88477470Y-55367898D01*
X88538758Y-55515858D01*
X88570000Y-55672925D01*
X88570000Y-55833075D01*
X88538758Y-55990142D01*
X88477470Y-56138102D01*
X88388498Y-56271258D01*
X88275258Y-56384498D01*
X88142102Y-56473470D01*
X87994142Y-56534758D01*
X87837075Y-56566000D01*
X87676925Y-56566000D01*
X87519858Y-56534758D01*
X87371898Y-56473470D01*
X87238742Y-56384498D01*
X87125502Y-56271258D01*
X87036530Y-56138102D01*
X86975242Y-55990142D01*
X86944000Y-55833075D01*
X86944000Y-55672925D01*
X86975242Y-55515858D01*
X87036530Y-55367898D01*
X87125502Y-55234742D01*
X87238742Y-55121502D01*
X87371898Y-55032530D01*
X87519858Y-54971242D01*
X87676925Y-54940000D01*
X87837075Y-54940000D01*
X87994142Y-54971242D01*
X87994142Y-54971242D01*
G37*
G36*
X85454142Y-54971242D02*
X85602102Y-55032530D01*
X85735258Y-55121502D01*
X85848498Y-55234742D01*
X85937470Y-55367898D01*
X85998758Y-55515858D01*
X86030000Y-55672925D01*
X86030000Y-55833075D01*
X85998758Y-55990142D01*
X85937470Y-56138102D01*
X85848498Y-56271258D01*
X85735258Y-56384498D01*
X85602102Y-56473470D01*
X85454142Y-56534758D01*
X85297075Y-56566000D01*
X85136925Y-56566000D01*
X84979858Y-56534758D01*
X84831898Y-56473470D01*
X84698742Y-56384498D01*
X84585502Y-56271258D01*
X84496530Y-56138102D01*
X84435242Y-55990142D01*
X84404000Y-55833075D01*
X84404000Y-55672925D01*
X84435242Y-55515858D01*
X84496530Y-55367898D01*
X84585502Y-55234742D01*
X84698742Y-55121502D01*
X84831898Y-55032530D01*
X84979858Y-54971242D01*
X85136925Y-54940000D01*
X85297075Y-54940000D01*
X85454142Y-54971242D01*
X85454142Y-54971242D01*
G37*
G36*
X82914142Y-54971242D02*
X83062102Y-55032530D01*
X83195258Y-55121502D01*
X83308498Y-55234742D01*
X83397470Y-55367898D01*
X83458758Y-55515858D01*
X83490000Y-55672925D01*
X83490000Y-55833075D01*
X83458758Y-55990142D01*
X83397470Y-56138102D01*
X83308498Y-56271258D01*
X83195258Y-56384498D01*
X83062102Y-56473470D01*
X82914142Y-56534758D01*
X82757075Y-56566000D01*
X82596925Y-56566000D01*
X82439858Y-56534758D01*
X82291898Y-56473470D01*
X82158742Y-56384498D01*
X82045502Y-56271258D01*
X81956530Y-56138102D01*
X81895242Y-55990142D01*
X81864000Y-55833075D01*
X81864000Y-55672925D01*
X81895242Y-55515858D01*
X81956530Y-55367898D01*
X82045502Y-55234742D01*
X82158742Y-55121502D01*
X82291898Y-55032530D01*
X82439858Y-54971242D01*
X82596925Y-54940000D01*
X82757075Y-54940000D01*
X82914142Y-54971242D01*
X82914142Y-54971242D01*
G37*
G36*
X80374142Y-54971242D02*
X80522102Y-55032530D01*
X80655258Y-55121502D01*
X80768498Y-55234742D01*
X80857470Y-55367898D01*
X80918758Y-55515858D01*
X80950000Y-55672925D01*
X80950000Y-55833075D01*
X80918758Y-55990142D01*
X80857470Y-56138102D01*
X80768498Y-56271258D01*
X80655258Y-56384498D01*
X80522102Y-56473470D01*
X80374142Y-56534758D01*
X80217075Y-56566000D01*
X80056925Y-56566000D01*
X79899858Y-56534758D01*
X79751898Y-56473470D01*
X79618742Y-56384498D01*
X79505502Y-56271258D01*
X79416530Y-56138102D01*
X79355242Y-55990142D01*
X79324000Y-55833075D01*
X79324000Y-55672925D01*
X79355242Y-55515858D01*
X79416530Y-55367898D01*
X79505502Y-55234742D01*
X79618742Y-55121502D01*
X79751898Y-55032530D01*
X79899858Y-54971242D01*
X80056925Y-54940000D01*
X80217075Y-54940000D01*
X80374142Y-54971242D01*
X80374142Y-54971242D01*
G37*
G36*
X77834142Y-54971242D02*
X77982102Y-55032530D01*
X78115258Y-55121502D01*
X78228498Y-55234742D01*
X78317470Y-55367898D01*
X78378758Y-55515858D01*
X78410000Y-55672925D01*
X78410000Y-55833075D01*
X78378758Y-55990142D01*
X78317470Y-56138102D01*
X78228498Y-56271258D01*
X78115258Y-56384498D01*
X77982102Y-56473470D01*
X77834142Y-56534758D01*
X77677075Y-56566000D01*
X77516925Y-56566000D01*
X77359858Y-56534758D01*
X77211898Y-56473470D01*
X77078742Y-56384498D01*
X76965502Y-56271258D01*
X76876530Y-56138102D01*
X76815242Y-55990142D01*
X76784000Y-55833075D01*
X76784000Y-55672925D01*
X76815242Y-55515858D01*
X76876530Y-55367898D01*
X76965502Y-55234742D01*
X77078742Y-55121502D01*
X77211898Y-55032530D01*
X77359858Y-54971242D01*
X77516925Y-54940000D01*
X77677075Y-54940000D01*
X77834142Y-54971242D01*
X77834142Y-54971242D01*
G37*
G36*
X75294142Y-54971242D02*
X75442102Y-55032530D01*
X75575258Y-55121502D01*
X75688498Y-55234742D01*
X75777470Y-55367898D01*
X75838758Y-55515858D01*
X75870000Y-55672925D01*
X75870000Y-55833075D01*
X75838758Y-55990142D01*
X75777470Y-56138102D01*
X75688498Y-56271258D01*
X75575258Y-56384498D01*
X75442102Y-56473470D01*
X75294142Y-56534758D01*
X75137075Y-56566000D01*
X74976925Y-56566000D01*
X74819858Y-56534758D01*
X74671898Y-56473470D01*
X74538742Y-56384498D01*
X74425502Y-56271258D01*
X74336530Y-56138102D01*
X74275242Y-55990142D01*
X74244000Y-55833075D01*
X74244000Y-55672925D01*
X74275242Y-55515858D01*
X74336530Y-55367898D01*
X74425502Y-55234742D01*
X74538742Y-55121502D01*
X74671898Y-55032530D01*
X74819858Y-54971242D01*
X74976925Y-54940000D01*
X75137075Y-54940000D01*
X75294142Y-54971242D01*
X75294142Y-54971242D01*
G37*
G36*
X72754142Y-54971242D02*
X72902102Y-55032530D01*
X73035258Y-55121502D01*
X73148498Y-55234742D01*
X73237470Y-55367898D01*
X73298758Y-55515858D01*
X73330000Y-55672925D01*
X73330000Y-55833075D01*
X73298758Y-55990142D01*
X73237470Y-56138102D01*
X73148498Y-56271258D01*
X73035258Y-56384498D01*
X72902102Y-56473470D01*
X72754142Y-56534758D01*
X72597075Y-56566000D01*
X72436925Y-56566000D01*
X72279858Y-56534758D01*
X72131898Y-56473470D01*
X71998742Y-56384498D01*
X71885502Y-56271258D01*
X71796530Y-56138102D01*
X71735242Y-55990142D01*
X71704000Y-55833075D01*
X71704000Y-55672925D01*
X71735242Y-55515858D01*
X71796530Y-55367898D01*
X71885502Y-55234742D01*
X71998742Y-55121502D01*
X72131898Y-55032530D01*
X72279858Y-54971242D01*
X72436925Y-54940000D01*
X72597075Y-54940000D01*
X72754142Y-54971242D01*
X72754142Y-54971242D01*
G37*
G36*
X70214142Y-54971242D02*
X70362102Y-55032530D01*
X70495258Y-55121502D01*
X70608498Y-55234742D01*
X70697470Y-55367898D01*
X70758758Y-55515858D01*
X70790000Y-55672925D01*
X70790000Y-55833075D01*
X70758758Y-55990142D01*
X70697470Y-56138102D01*
X70608498Y-56271258D01*
X70495258Y-56384498D01*
X70362102Y-56473470D01*
X70214142Y-56534758D01*
X70057075Y-56566000D01*
X69896925Y-56566000D01*
X69739858Y-56534758D01*
X69591898Y-56473470D01*
X69458742Y-56384498D01*
X69345502Y-56271258D01*
X69256530Y-56138102D01*
X69195242Y-55990142D01*
X69164000Y-55833075D01*
X69164000Y-55672925D01*
X69195242Y-55515858D01*
X69256530Y-55367898D01*
X69345502Y-55234742D01*
X69458742Y-55121502D01*
X69591898Y-55032530D01*
X69739858Y-54971242D01*
X69896925Y-54940000D01*
X70057075Y-54940000D01*
X70214142Y-54971242D01*
X70214142Y-54971242D01*
G37*
G36*
X63170000Y-56566000D02*
X61544000Y-56566000D01*
X61544000Y-54940000D01*
X63170000Y-54940000D01*
X63170000Y-56566000D01*
X63170000Y-56566000D01*
G37*
G36*
X65134142Y-54971242D02*
X65282102Y-55032530D01*
X65415258Y-55121502D01*
X65528498Y-55234742D01*
X65617470Y-55367898D01*
X65678758Y-55515858D01*
X65710000Y-55672925D01*
X65710000Y-55833075D01*
X65678758Y-55990142D01*
X65617470Y-56138102D01*
X65528498Y-56271258D01*
X65415258Y-56384498D01*
X65282102Y-56473470D01*
X65134142Y-56534758D01*
X64977075Y-56566000D01*
X64816925Y-56566000D01*
X64659858Y-56534758D01*
X64511898Y-56473470D01*
X64378742Y-56384498D01*
X64265502Y-56271258D01*
X64176530Y-56138102D01*
X64115242Y-55990142D01*
X64084000Y-55833075D01*
X64084000Y-55672925D01*
X64115242Y-55515858D01*
X64176530Y-55367898D01*
X64265502Y-55234742D01*
X64378742Y-55121502D01*
X64511898Y-55032530D01*
X64659858Y-54971242D01*
X64816925Y-54940000D01*
X64977075Y-54940000D01*
X65134142Y-54971242D01*
X65134142Y-54971242D01*
G37*
G36*
X67674142Y-54971242D02*
X67822102Y-55032530D01*
X67955258Y-55121502D01*
X68068498Y-55234742D01*
X68157470Y-55367898D01*
X68218758Y-55515858D01*
X68250000Y-55672925D01*
X68250000Y-55833075D01*
X68218758Y-55990142D01*
X68157470Y-56138102D01*
X68068498Y-56271258D01*
X67955258Y-56384498D01*
X67822102Y-56473470D01*
X67674142Y-56534758D01*
X67517075Y-56566000D01*
X67356925Y-56566000D01*
X67199858Y-56534758D01*
X67051898Y-56473470D01*
X66918742Y-56384498D01*
X66805502Y-56271258D01*
X66716530Y-56138102D01*
X66655242Y-55990142D01*
X66624000Y-55833075D01*
X66624000Y-55672925D01*
X66655242Y-55515858D01*
X66716530Y-55367898D01*
X66805502Y-55234742D01*
X66918742Y-55121502D01*
X67051898Y-55032530D01*
X67199858Y-54971242D01*
X67356925Y-54940000D01*
X67517075Y-54940000D01*
X67674142Y-54971242D01*
X67674142Y-54971242D01*
G37*
G36*
X52510643Y-53055119D02*
X52576827Y-53061637D01*
X52690053Y-53095984D01*
X52746667Y-53113157D01*
X52885287Y-53187252D01*
X52903191Y-53196822D01*
X52938929Y-53226152D01*
X53040386Y-53309414D01*
X53123648Y-53410871D01*
X53152978Y-53446609D01*
X53152979Y-53446611D01*
X53236643Y-53603133D01*
X53236643Y-53603134D01*
X53288163Y-53772973D01*
X53305559Y-53949600D01*
X53288163Y-54126227D01*
X53253816Y-54239453D01*
X53236643Y-54296067D01*
X53162548Y-54434687D01*
X53152978Y-54452591D01*
X53123648Y-54488329D01*
X53040386Y-54589786D01*
X52938929Y-54673048D01*
X52903191Y-54702378D01*
X52903189Y-54702379D01*
X52746667Y-54786043D01*
X52690053Y-54803216D01*
X52576827Y-54837563D01*
X52510643Y-54844081D01*
X52444460Y-54850600D01*
X52355940Y-54850600D01*
X52289757Y-54844081D01*
X52223573Y-54837563D01*
X52110347Y-54803216D01*
X52053733Y-54786043D01*
X51897211Y-54702379D01*
X51897209Y-54702378D01*
X51861471Y-54673048D01*
X51760014Y-54589786D01*
X51676752Y-54488329D01*
X51647422Y-54452591D01*
X51637852Y-54434687D01*
X51563757Y-54296067D01*
X51546584Y-54239453D01*
X51512237Y-54126227D01*
X51494841Y-53949600D01*
X51512237Y-53772973D01*
X51563757Y-53603134D01*
X51563757Y-53603133D01*
X51647421Y-53446611D01*
X51647422Y-53446609D01*
X51676752Y-53410871D01*
X51760014Y-53309414D01*
X51861471Y-53226152D01*
X51897209Y-53196822D01*
X51915113Y-53187252D01*
X52053733Y-53113157D01*
X52110347Y-53095984D01*
X52223573Y-53061637D01*
X52289757Y-53055119D01*
X52355940Y-53048600D01*
X52444460Y-53048600D01*
X52510643Y-53055119D01*
X52510643Y-53055119D01*
G37*
G36*
X70214142Y-52431242D02*
X70362102Y-52492530D01*
X70495258Y-52581502D01*
X70608498Y-52694742D01*
X70697470Y-52827898D01*
X70758758Y-52975858D01*
X70790000Y-53132925D01*
X70790000Y-53293075D01*
X70758758Y-53450142D01*
X70697470Y-53598102D01*
X70608498Y-53731258D01*
X70495258Y-53844498D01*
X70362102Y-53933470D01*
X70214142Y-53994758D01*
X70057075Y-54026000D01*
X69896925Y-54026000D01*
X69739858Y-53994758D01*
X69591898Y-53933470D01*
X69458742Y-53844498D01*
X69345502Y-53731258D01*
X69256530Y-53598102D01*
X69195242Y-53450142D01*
X69164000Y-53293075D01*
X69164000Y-53132925D01*
X69195242Y-52975858D01*
X69256530Y-52827898D01*
X69345502Y-52694742D01*
X69458742Y-52581502D01*
X69591898Y-52492530D01*
X69739858Y-52431242D01*
X69896925Y-52400000D01*
X70057075Y-52400000D01*
X70214142Y-52431242D01*
X70214142Y-52431242D01*
G37*
G36*
X62594142Y-52431242D02*
X62742102Y-52492530D01*
X62875258Y-52581502D01*
X62988498Y-52694742D01*
X63077470Y-52827898D01*
X63138758Y-52975858D01*
X63170000Y-53132925D01*
X63170000Y-53293075D01*
X63138758Y-53450142D01*
X63077470Y-53598102D01*
X62988498Y-53731258D01*
X62875258Y-53844498D01*
X62742102Y-53933470D01*
X62594142Y-53994758D01*
X62437075Y-54026000D01*
X62276925Y-54026000D01*
X62119858Y-53994758D01*
X61971898Y-53933470D01*
X61838742Y-53844498D01*
X61725502Y-53731258D01*
X61636530Y-53598102D01*
X61575242Y-53450142D01*
X61544000Y-53293075D01*
X61544000Y-53132925D01*
X61575242Y-52975858D01*
X61636530Y-52827898D01*
X61725502Y-52694742D01*
X61838742Y-52581502D01*
X61971898Y-52492530D01*
X62119858Y-52431242D01*
X62276925Y-52400000D01*
X62437075Y-52400000D01*
X62594142Y-52431242D01*
X62594142Y-52431242D01*
G37*
G36*
X72754142Y-52431242D02*
X72902102Y-52492530D01*
X73035258Y-52581502D01*
X73148498Y-52694742D01*
X73237470Y-52827898D01*
X73298758Y-52975858D01*
X73330000Y-53132925D01*
X73330000Y-53293075D01*
X73298758Y-53450142D01*
X73237470Y-53598102D01*
X73148498Y-53731258D01*
X73035258Y-53844498D01*
X72902102Y-53933470D01*
X72754142Y-53994758D01*
X72597075Y-54026000D01*
X72436925Y-54026000D01*
X72279858Y-53994758D01*
X72131898Y-53933470D01*
X71998742Y-53844498D01*
X71885502Y-53731258D01*
X71796530Y-53598102D01*
X71735242Y-53450142D01*
X71704000Y-53293075D01*
X71704000Y-53132925D01*
X71735242Y-52975858D01*
X71796530Y-52827898D01*
X71885502Y-52694742D01*
X71998742Y-52581502D01*
X72131898Y-52492530D01*
X72279858Y-52431242D01*
X72436925Y-52400000D01*
X72597075Y-52400000D01*
X72754142Y-52431242D01*
X72754142Y-52431242D01*
G37*
G36*
X65134142Y-52431242D02*
X65282102Y-52492530D01*
X65415258Y-52581502D01*
X65528498Y-52694742D01*
X65617470Y-52827898D01*
X65678758Y-52975858D01*
X65710000Y-53132925D01*
X65710000Y-53293075D01*
X65678758Y-53450142D01*
X65617470Y-53598102D01*
X65528498Y-53731258D01*
X65415258Y-53844498D01*
X65282102Y-53933470D01*
X65134142Y-53994758D01*
X64977075Y-54026000D01*
X64816925Y-54026000D01*
X64659858Y-53994758D01*
X64511898Y-53933470D01*
X64378742Y-53844498D01*
X64265502Y-53731258D01*
X64176530Y-53598102D01*
X64115242Y-53450142D01*
X64084000Y-53293075D01*
X64084000Y-53132925D01*
X64115242Y-52975858D01*
X64176530Y-52827898D01*
X64265502Y-52694742D01*
X64378742Y-52581502D01*
X64511898Y-52492530D01*
X64659858Y-52431242D01*
X64816925Y-52400000D01*
X64977075Y-52400000D01*
X65134142Y-52431242D01*
X65134142Y-52431242D01*
G37*
G36*
X75294142Y-52431242D02*
X75442102Y-52492530D01*
X75575258Y-52581502D01*
X75688498Y-52694742D01*
X75777470Y-52827898D01*
X75838758Y-52975858D01*
X75870000Y-53132925D01*
X75870000Y-53293075D01*
X75838758Y-53450142D01*
X75777470Y-53598102D01*
X75688498Y-53731258D01*
X75575258Y-53844498D01*
X75442102Y-53933470D01*
X75294142Y-53994758D01*
X75137075Y-54026000D01*
X74976925Y-54026000D01*
X74819858Y-53994758D01*
X74671898Y-53933470D01*
X74538742Y-53844498D01*
X74425502Y-53731258D01*
X74336530Y-53598102D01*
X74275242Y-53450142D01*
X74244000Y-53293075D01*
X74244000Y-53132925D01*
X74275242Y-52975858D01*
X74336530Y-52827898D01*
X74425502Y-52694742D01*
X74538742Y-52581502D01*
X74671898Y-52492530D01*
X74819858Y-52431242D01*
X74976925Y-52400000D01*
X75137075Y-52400000D01*
X75294142Y-52431242D01*
X75294142Y-52431242D01*
G37*
G36*
X67674142Y-52431242D02*
X67822102Y-52492530D01*
X67955258Y-52581502D01*
X68068498Y-52694742D01*
X68157470Y-52827898D01*
X68218758Y-52975858D01*
X68250000Y-53132925D01*
X68250000Y-53293075D01*
X68218758Y-53450142D01*
X68157470Y-53598102D01*
X68068498Y-53731258D01*
X67955258Y-53844498D01*
X67822102Y-53933470D01*
X67674142Y-53994758D01*
X67517075Y-54026000D01*
X67356925Y-54026000D01*
X67199858Y-53994758D01*
X67051898Y-53933470D01*
X66918742Y-53844498D01*
X66805502Y-53731258D01*
X66716530Y-53598102D01*
X66655242Y-53450142D01*
X66624000Y-53293075D01*
X66624000Y-53132925D01*
X66655242Y-52975858D01*
X66716530Y-52827898D01*
X66805502Y-52694742D01*
X66918742Y-52581502D01*
X67051898Y-52492530D01*
X67199858Y-52431242D01*
X67356925Y-52400000D01*
X67517075Y-52400000D01*
X67674142Y-52431242D01*
X67674142Y-52431242D01*
G37*
G36*
X77834142Y-52431242D02*
X77982102Y-52492530D01*
X78115258Y-52581502D01*
X78228498Y-52694742D01*
X78317470Y-52827898D01*
X78378758Y-52975858D01*
X78410000Y-53132925D01*
X78410000Y-53293075D01*
X78378758Y-53450142D01*
X78317470Y-53598102D01*
X78228498Y-53731258D01*
X78115258Y-53844498D01*
X77982102Y-53933470D01*
X77834142Y-53994758D01*
X77677075Y-54026000D01*
X77516925Y-54026000D01*
X77359858Y-53994758D01*
X77211898Y-53933470D01*
X77078742Y-53844498D01*
X76965502Y-53731258D01*
X76876530Y-53598102D01*
X76815242Y-53450142D01*
X76784000Y-53293075D01*
X76784000Y-53132925D01*
X76815242Y-52975858D01*
X76876530Y-52827898D01*
X76965502Y-52694742D01*
X77078742Y-52581502D01*
X77211898Y-52492530D01*
X77359858Y-52431242D01*
X77516925Y-52400000D01*
X77677075Y-52400000D01*
X77834142Y-52431242D01*
X77834142Y-52431242D01*
G37*
G36*
X126094142Y-52431242D02*
X126242102Y-52492530D01*
X126375258Y-52581502D01*
X126488498Y-52694742D01*
X126577470Y-52827898D01*
X126638758Y-52975858D01*
X126670000Y-53132925D01*
X126670000Y-53293075D01*
X126638758Y-53450142D01*
X126577470Y-53598102D01*
X126488498Y-53731258D01*
X126375258Y-53844498D01*
X126242102Y-53933470D01*
X126094142Y-53994758D01*
X125937075Y-54026000D01*
X125776925Y-54026000D01*
X125619858Y-53994758D01*
X125471898Y-53933470D01*
X125338742Y-53844498D01*
X125225502Y-53731258D01*
X125136530Y-53598102D01*
X125075242Y-53450142D01*
X125044000Y-53293075D01*
X125044000Y-53132925D01*
X125075242Y-52975858D01*
X125136530Y-52827898D01*
X125225502Y-52694742D01*
X125338742Y-52581502D01*
X125471898Y-52492530D01*
X125619858Y-52431242D01*
X125776925Y-52400000D01*
X125937075Y-52400000D01*
X126094142Y-52431242D01*
X126094142Y-52431242D01*
G37*
G36*
X123554142Y-52431242D02*
X123702102Y-52492530D01*
X123835258Y-52581502D01*
X123948498Y-52694742D01*
X124037470Y-52827898D01*
X124098758Y-52975858D01*
X124130000Y-53132925D01*
X124130000Y-53293075D01*
X124098758Y-53450142D01*
X124037470Y-53598102D01*
X123948498Y-53731258D01*
X123835258Y-53844498D01*
X123702102Y-53933470D01*
X123554142Y-53994758D01*
X123397075Y-54026000D01*
X123236925Y-54026000D01*
X123079858Y-53994758D01*
X122931898Y-53933470D01*
X122798742Y-53844498D01*
X122685502Y-53731258D01*
X122596530Y-53598102D01*
X122535242Y-53450142D01*
X122504000Y-53293075D01*
X122504000Y-53132925D01*
X122535242Y-52975858D01*
X122596530Y-52827898D01*
X122685502Y-52694742D01*
X122798742Y-52581502D01*
X122931898Y-52492530D01*
X123079858Y-52431242D01*
X123236925Y-52400000D01*
X123397075Y-52400000D01*
X123554142Y-52431242D01*
X123554142Y-52431242D01*
G37*
G36*
X121014142Y-52431242D02*
X121162102Y-52492530D01*
X121295258Y-52581502D01*
X121408498Y-52694742D01*
X121497470Y-52827898D01*
X121558758Y-52975858D01*
X121590000Y-53132925D01*
X121590000Y-53293075D01*
X121558758Y-53450142D01*
X121497470Y-53598102D01*
X121408498Y-53731258D01*
X121295258Y-53844498D01*
X121162102Y-53933470D01*
X121014142Y-53994758D01*
X120857075Y-54026000D01*
X120696925Y-54026000D01*
X120539858Y-53994758D01*
X120391898Y-53933470D01*
X120258742Y-53844498D01*
X120145502Y-53731258D01*
X120056530Y-53598102D01*
X119995242Y-53450142D01*
X119964000Y-53293075D01*
X119964000Y-53132925D01*
X119995242Y-52975858D01*
X120056530Y-52827898D01*
X120145502Y-52694742D01*
X120258742Y-52581502D01*
X120391898Y-52492530D01*
X120539858Y-52431242D01*
X120696925Y-52400000D01*
X120857075Y-52400000D01*
X121014142Y-52431242D01*
X121014142Y-52431242D01*
G37*
G36*
X118474142Y-52431242D02*
X118622102Y-52492530D01*
X118755258Y-52581502D01*
X118868498Y-52694742D01*
X118957470Y-52827898D01*
X119018758Y-52975858D01*
X119050000Y-53132925D01*
X119050000Y-53293075D01*
X119018758Y-53450142D01*
X118957470Y-53598102D01*
X118868498Y-53731258D01*
X118755258Y-53844498D01*
X118622102Y-53933470D01*
X118474142Y-53994758D01*
X118317075Y-54026000D01*
X118156925Y-54026000D01*
X117999858Y-53994758D01*
X117851898Y-53933470D01*
X117718742Y-53844498D01*
X117605502Y-53731258D01*
X117516530Y-53598102D01*
X117455242Y-53450142D01*
X117424000Y-53293075D01*
X117424000Y-53132925D01*
X117455242Y-52975858D01*
X117516530Y-52827898D01*
X117605502Y-52694742D01*
X117718742Y-52581502D01*
X117851898Y-52492530D01*
X117999858Y-52431242D01*
X118156925Y-52400000D01*
X118317075Y-52400000D01*
X118474142Y-52431242D01*
X118474142Y-52431242D01*
G37*
G36*
X115934142Y-52431242D02*
X116082102Y-52492530D01*
X116215258Y-52581502D01*
X116328498Y-52694742D01*
X116417470Y-52827898D01*
X116478758Y-52975858D01*
X116510000Y-53132925D01*
X116510000Y-53293075D01*
X116478758Y-53450142D01*
X116417470Y-53598102D01*
X116328498Y-53731258D01*
X116215258Y-53844498D01*
X116082102Y-53933470D01*
X115934142Y-53994758D01*
X115777075Y-54026000D01*
X115616925Y-54026000D01*
X115459858Y-53994758D01*
X115311898Y-53933470D01*
X115178742Y-53844498D01*
X115065502Y-53731258D01*
X114976530Y-53598102D01*
X114915242Y-53450142D01*
X114884000Y-53293075D01*
X114884000Y-53132925D01*
X114915242Y-52975858D01*
X114976530Y-52827898D01*
X115065502Y-52694742D01*
X115178742Y-52581502D01*
X115311898Y-52492530D01*
X115459858Y-52431242D01*
X115616925Y-52400000D01*
X115777075Y-52400000D01*
X115934142Y-52431242D01*
X115934142Y-52431242D01*
G37*
G36*
X80374142Y-52431242D02*
X80522102Y-52492530D01*
X80655258Y-52581502D01*
X80768498Y-52694742D01*
X80857470Y-52827898D01*
X80918758Y-52975858D01*
X80950000Y-53132925D01*
X80950000Y-53293075D01*
X80918758Y-53450142D01*
X80857470Y-53598102D01*
X80768498Y-53731258D01*
X80655258Y-53844498D01*
X80522102Y-53933470D01*
X80374142Y-53994758D01*
X80217075Y-54026000D01*
X80056925Y-54026000D01*
X79899858Y-53994758D01*
X79751898Y-53933470D01*
X79618742Y-53844498D01*
X79505502Y-53731258D01*
X79416530Y-53598102D01*
X79355242Y-53450142D01*
X79324000Y-53293075D01*
X79324000Y-53132925D01*
X79355242Y-52975858D01*
X79416530Y-52827898D01*
X79505502Y-52694742D01*
X79618742Y-52581502D01*
X79751898Y-52492530D01*
X79899858Y-52431242D01*
X80056925Y-52400000D01*
X80217075Y-52400000D01*
X80374142Y-52431242D01*
X80374142Y-52431242D01*
G37*
G36*
X113394142Y-52431242D02*
X113542102Y-52492530D01*
X113675258Y-52581502D01*
X113788498Y-52694742D01*
X113877470Y-52827898D01*
X113938758Y-52975858D01*
X113970000Y-53132925D01*
X113970000Y-53293075D01*
X113938758Y-53450142D01*
X113877470Y-53598102D01*
X113788498Y-53731258D01*
X113675258Y-53844498D01*
X113542102Y-53933470D01*
X113394142Y-53994758D01*
X113237075Y-54026000D01*
X113076925Y-54026000D01*
X112919858Y-53994758D01*
X112771898Y-53933470D01*
X112638742Y-53844498D01*
X112525502Y-53731258D01*
X112436530Y-53598102D01*
X112375242Y-53450142D01*
X112344000Y-53293075D01*
X112344000Y-53132925D01*
X112375242Y-52975858D01*
X112436530Y-52827898D01*
X112525502Y-52694742D01*
X112638742Y-52581502D01*
X112771898Y-52492530D01*
X112919858Y-52431242D01*
X113076925Y-52400000D01*
X113237075Y-52400000D01*
X113394142Y-52431242D01*
X113394142Y-52431242D01*
G37*
G36*
X82914142Y-52431242D02*
X83062102Y-52492530D01*
X83195258Y-52581502D01*
X83308498Y-52694742D01*
X83397470Y-52827898D01*
X83458758Y-52975858D01*
X83490000Y-53132925D01*
X83490000Y-53293075D01*
X83458758Y-53450142D01*
X83397470Y-53598102D01*
X83308498Y-53731258D01*
X83195258Y-53844498D01*
X83062102Y-53933470D01*
X82914142Y-53994758D01*
X82757075Y-54026000D01*
X82596925Y-54026000D01*
X82439858Y-53994758D01*
X82291898Y-53933470D01*
X82158742Y-53844498D01*
X82045502Y-53731258D01*
X81956530Y-53598102D01*
X81895242Y-53450142D01*
X81864000Y-53293075D01*
X81864000Y-53132925D01*
X81895242Y-52975858D01*
X81956530Y-52827898D01*
X82045502Y-52694742D01*
X82158742Y-52581502D01*
X82291898Y-52492530D01*
X82439858Y-52431242D01*
X82596925Y-52400000D01*
X82757075Y-52400000D01*
X82914142Y-52431242D01*
X82914142Y-52431242D01*
G37*
G36*
X110854142Y-52431242D02*
X111002102Y-52492530D01*
X111135258Y-52581502D01*
X111248498Y-52694742D01*
X111337470Y-52827898D01*
X111398758Y-52975858D01*
X111430000Y-53132925D01*
X111430000Y-53293075D01*
X111398758Y-53450142D01*
X111337470Y-53598102D01*
X111248498Y-53731258D01*
X111135258Y-53844498D01*
X111002102Y-53933470D01*
X110854142Y-53994758D01*
X110697075Y-54026000D01*
X110536925Y-54026000D01*
X110379858Y-53994758D01*
X110231898Y-53933470D01*
X110098742Y-53844498D01*
X109985502Y-53731258D01*
X109896530Y-53598102D01*
X109835242Y-53450142D01*
X109804000Y-53293075D01*
X109804000Y-53132925D01*
X109835242Y-52975858D01*
X109896530Y-52827898D01*
X109985502Y-52694742D01*
X110098742Y-52581502D01*
X110231898Y-52492530D01*
X110379858Y-52431242D01*
X110536925Y-52400000D01*
X110697075Y-52400000D01*
X110854142Y-52431242D01*
X110854142Y-52431242D01*
G37*
G36*
X85454142Y-52431242D02*
X85602102Y-52492530D01*
X85735258Y-52581502D01*
X85848498Y-52694742D01*
X85937470Y-52827898D01*
X85998758Y-52975858D01*
X86030000Y-53132925D01*
X86030000Y-53293075D01*
X85998758Y-53450142D01*
X85937470Y-53598102D01*
X85848498Y-53731258D01*
X85735258Y-53844498D01*
X85602102Y-53933470D01*
X85454142Y-53994758D01*
X85297075Y-54026000D01*
X85136925Y-54026000D01*
X84979858Y-53994758D01*
X84831898Y-53933470D01*
X84698742Y-53844498D01*
X84585502Y-53731258D01*
X84496530Y-53598102D01*
X84435242Y-53450142D01*
X84404000Y-53293075D01*
X84404000Y-53132925D01*
X84435242Y-52975858D01*
X84496530Y-52827898D01*
X84585502Y-52694742D01*
X84698742Y-52581502D01*
X84831898Y-52492530D01*
X84979858Y-52431242D01*
X85136925Y-52400000D01*
X85297075Y-52400000D01*
X85454142Y-52431242D01*
X85454142Y-52431242D01*
G37*
G36*
X108314142Y-52431242D02*
X108462102Y-52492530D01*
X108595258Y-52581502D01*
X108708498Y-52694742D01*
X108797470Y-52827898D01*
X108858758Y-52975858D01*
X108890000Y-53132925D01*
X108890000Y-53293075D01*
X108858758Y-53450142D01*
X108797470Y-53598102D01*
X108708498Y-53731258D01*
X108595258Y-53844498D01*
X108462102Y-53933470D01*
X108314142Y-53994758D01*
X108157075Y-54026000D01*
X107996925Y-54026000D01*
X107839858Y-53994758D01*
X107691898Y-53933470D01*
X107558742Y-53844498D01*
X107445502Y-53731258D01*
X107356530Y-53598102D01*
X107295242Y-53450142D01*
X107264000Y-53293075D01*
X107264000Y-53132925D01*
X107295242Y-52975858D01*
X107356530Y-52827898D01*
X107445502Y-52694742D01*
X107558742Y-52581502D01*
X107691898Y-52492530D01*
X107839858Y-52431242D01*
X107996925Y-52400000D01*
X108157075Y-52400000D01*
X108314142Y-52431242D01*
X108314142Y-52431242D01*
G37*
G36*
X87994142Y-52431242D02*
X88142102Y-52492530D01*
X88275258Y-52581502D01*
X88388498Y-52694742D01*
X88477470Y-52827898D01*
X88538758Y-52975858D01*
X88570000Y-53132925D01*
X88570000Y-53293075D01*
X88538758Y-53450142D01*
X88477470Y-53598102D01*
X88388498Y-53731258D01*
X88275258Y-53844498D01*
X88142102Y-53933470D01*
X87994142Y-53994758D01*
X87837075Y-54026000D01*
X87676925Y-54026000D01*
X87519858Y-53994758D01*
X87371898Y-53933470D01*
X87238742Y-53844498D01*
X87125502Y-53731258D01*
X87036530Y-53598102D01*
X86975242Y-53450142D01*
X86944000Y-53293075D01*
X86944000Y-53132925D01*
X86975242Y-52975858D01*
X87036530Y-52827898D01*
X87125502Y-52694742D01*
X87238742Y-52581502D01*
X87371898Y-52492530D01*
X87519858Y-52431242D01*
X87676925Y-52400000D01*
X87837075Y-52400000D01*
X87994142Y-52431242D01*
X87994142Y-52431242D01*
G37*
G36*
X105774142Y-52431242D02*
X105922102Y-52492530D01*
X106055258Y-52581502D01*
X106168498Y-52694742D01*
X106257470Y-52827898D01*
X106318758Y-52975858D01*
X106350000Y-53132925D01*
X106350000Y-53293075D01*
X106318758Y-53450142D01*
X106257470Y-53598102D01*
X106168498Y-53731258D01*
X106055258Y-53844498D01*
X105922102Y-53933470D01*
X105774142Y-53994758D01*
X105617075Y-54026000D01*
X105456925Y-54026000D01*
X105299858Y-53994758D01*
X105151898Y-53933470D01*
X105018742Y-53844498D01*
X104905502Y-53731258D01*
X104816530Y-53598102D01*
X104755242Y-53450142D01*
X104724000Y-53293075D01*
X104724000Y-53132925D01*
X104755242Y-52975858D01*
X104816530Y-52827898D01*
X104905502Y-52694742D01*
X105018742Y-52581502D01*
X105151898Y-52492530D01*
X105299858Y-52431242D01*
X105456925Y-52400000D01*
X105617075Y-52400000D01*
X105774142Y-52431242D01*
X105774142Y-52431242D01*
G37*
G36*
X90534142Y-52431242D02*
X90682102Y-52492530D01*
X90815258Y-52581502D01*
X90928498Y-52694742D01*
X91017470Y-52827898D01*
X91078758Y-52975858D01*
X91110000Y-53132925D01*
X91110000Y-53293075D01*
X91078758Y-53450142D01*
X91017470Y-53598102D01*
X90928498Y-53731258D01*
X90815258Y-53844498D01*
X90682102Y-53933470D01*
X90534142Y-53994758D01*
X90377075Y-54026000D01*
X90216925Y-54026000D01*
X90059858Y-53994758D01*
X89911898Y-53933470D01*
X89778742Y-53844498D01*
X89665502Y-53731258D01*
X89576530Y-53598102D01*
X89515242Y-53450142D01*
X89484000Y-53293075D01*
X89484000Y-53132925D01*
X89515242Y-52975858D01*
X89576530Y-52827898D01*
X89665502Y-52694742D01*
X89778742Y-52581502D01*
X89911898Y-52492530D01*
X90059858Y-52431242D01*
X90216925Y-52400000D01*
X90377075Y-52400000D01*
X90534142Y-52431242D01*
X90534142Y-52431242D01*
G37*
G36*
X103234142Y-52431242D02*
X103382102Y-52492530D01*
X103515258Y-52581502D01*
X103628498Y-52694742D01*
X103717470Y-52827898D01*
X103778758Y-52975858D01*
X103810000Y-53132925D01*
X103810000Y-53293075D01*
X103778758Y-53450142D01*
X103717470Y-53598102D01*
X103628498Y-53731258D01*
X103515258Y-53844498D01*
X103382102Y-53933470D01*
X103234142Y-53994758D01*
X103077075Y-54026000D01*
X102916925Y-54026000D01*
X102759858Y-53994758D01*
X102611898Y-53933470D01*
X102478742Y-53844498D01*
X102365502Y-53731258D01*
X102276530Y-53598102D01*
X102215242Y-53450142D01*
X102184000Y-53293075D01*
X102184000Y-53132925D01*
X102215242Y-52975858D01*
X102276530Y-52827898D01*
X102365502Y-52694742D01*
X102478742Y-52581502D01*
X102611898Y-52492530D01*
X102759858Y-52431242D01*
X102916925Y-52400000D01*
X103077075Y-52400000D01*
X103234142Y-52431242D01*
X103234142Y-52431242D01*
G37*
G36*
X93074142Y-52431242D02*
X93222102Y-52492530D01*
X93355258Y-52581502D01*
X93468498Y-52694742D01*
X93557470Y-52827898D01*
X93618758Y-52975858D01*
X93650000Y-53132925D01*
X93650000Y-53293075D01*
X93618758Y-53450142D01*
X93557470Y-53598102D01*
X93468498Y-53731258D01*
X93355258Y-53844498D01*
X93222102Y-53933470D01*
X93074142Y-53994758D01*
X92917075Y-54026000D01*
X92756925Y-54026000D01*
X92599858Y-53994758D01*
X92451898Y-53933470D01*
X92318742Y-53844498D01*
X92205502Y-53731258D01*
X92116530Y-53598102D01*
X92055242Y-53450142D01*
X92024000Y-53293075D01*
X92024000Y-53132925D01*
X92055242Y-52975858D01*
X92116530Y-52827898D01*
X92205502Y-52694742D01*
X92318742Y-52581502D01*
X92451898Y-52492530D01*
X92599858Y-52431242D01*
X92756925Y-52400000D01*
X92917075Y-52400000D01*
X93074142Y-52431242D01*
X93074142Y-52431242D01*
G37*
G36*
X100694142Y-52431242D02*
X100842102Y-52492530D01*
X100975258Y-52581502D01*
X101088498Y-52694742D01*
X101177470Y-52827898D01*
X101238758Y-52975858D01*
X101270000Y-53132925D01*
X101270000Y-53293075D01*
X101238758Y-53450142D01*
X101177470Y-53598102D01*
X101088498Y-53731258D01*
X100975258Y-53844498D01*
X100842102Y-53933470D01*
X100694142Y-53994758D01*
X100537075Y-54026000D01*
X100376925Y-54026000D01*
X100219858Y-53994758D01*
X100071898Y-53933470D01*
X99938742Y-53844498D01*
X99825502Y-53731258D01*
X99736530Y-53598102D01*
X99675242Y-53450142D01*
X99644000Y-53293075D01*
X99644000Y-53132925D01*
X99675242Y-52975858D01*
X99736530Y-52827898D01*
X99825502Y-52694742D01*
X99938742Y-52581502D01*
X100071898Y-52492530D01*
X100219858Y-52431242D01*
X100376925Y-52400000D01*
X100537075Y-52400000D01*
X100694142Y-52431242D01*
X100694142Y-52431242D01*
G37*
G36*
X95614142Y-52431242D02*
X95762102Y-52492530D01*
X95895258Y-52581502D01*
X96008498Y-52694742D01*
X96097470Y-52827898D01*
X96158758Y-52975858D01*
X96190000Y-53132925D01*
X96190000Y-53293075D01*
X96158758Y-53450142D01*
X96097470Y-53598102D01*
X96008498Y-53731258D01*
X95895258Y-53844498D01*
X95762102Y-53933470D01*
X95614142Y-53994758D01*
X95457075Y-54026000D01*
X95296925Y-54026000D01*
X95139858Y-53994758D01*
X94991898Y-53933470D01*
X94858742Y-53844498D01*
X94745502Y-53731258D01*
X94656530Y-53598102D01*
X94595242Y-53450142D01*
X94564000Y-53293075D01*
X94564000Y-53132925D01*
X94595242Y-52975858D01*
X94656530Y-52827898D01*
X94745502Y-52694742D01*
X94858742Y-52581502D01*
X94991898Y-52492530D01*
X95139858Y-52431242D01*
X95296925Y-52400000D01*
X95457075Y-52400000D01*
X95614142Y-52431242D01*
X95614142Y-52431242D01*
G37*
G36*
X98154142Y-52431242D02*
X98302102Y-52492530D01*
X98435258Y-52581502D01*
X98548498Y-52694742D01*
X98637470Y-52827898D01*
X98698758Y-52975858D01*
X98730000Y-53132925D01*
X98730000Y-53293075D01*
X98698758Y-53450142D01*
X98637470Y-53598102D01*
X98548498Y-53731258D01*
X98435258Y-53844498D01*
X98302102Y-53933470D01*
X98154142Y-53994758D01*
X97997075Y-54026000D01*
X97836925Y-54026000D01*
X97679858Y-53994758D01*
X97531898Y-53933470D01*
X97398742Y-53844498D01*
X97285502Y-53731258D01*
X97196530Y-53598102D01*
X97135242Y-53450142D01*
X97104000Y-53293075D01*
X97104000Y-53132925D01*
X97135242Y-52975858D01*
X97196530Y-52827898D01*
X97285502Y-52694742D01*
X97398742Y-52581502D01*
X97531898Y-52492530D01*
X97679858Y-52431242D01*
X97836925Y-52400000D01*
X97997075Y-52400000D01*
X98154142Y-52431242D01*
X98154142Y-52431242D01*
G37*
G36*
X52510643Y-50515119D02*
X52576827Y-50521637D01*
X52690053Y-50555984D01*
X52746667Y-50573157D01*
X52885287Y-50647252D01*
X52903191Y-50656822D01*
X52906483Y-50659524D01*
X53040386Y-50769414D01*
X53123648Y-50870871D01*
X53152978Y-50906609D01*
X53162548Y-50924513D01*
X53236643Y-51063133D01*
X53236643Y-51063134D01*
X53288163Y-51232973D01*
X53305559Y-51409600D01*
X53288163Y-51586227D01*
X53253816Y-51699453D01*
X53236643Y-51756067D01*
X53162548Y-51894687D01*
X53152978Y-51912591D01*
X53123648Y-51948329D01*
X53040386Y-52049786D01*
X52938929Y-52133048D01*
X52903191Y-52162378D01*
X52903189Y-52162379D01*
X52746667Y-52246043D01*
X52690053Y-52263216D01*
X52576827Y-52297563D01*
X52510643Y-52304081D01*
X52444460Y-52310600D01*
X52355940Y-52310600D01*
X52289758Y-52304082D01*
X52223573Y-52297563D01*
X52110347Y-52263216D01*
X52053733Y-52246043D01*
X51897211Y-52162379D01*
X51897209Y-52162378D01*
X51861471Y-52133048D01*
X51760014Y-52049786D01*
X51676752Y-51948329D01*
X51647422Y-51912591D01*
X51637852Y-51894687D01*
X51563757Y-51756067D01*
X51546584Y-51699453D01*
X51512237Y-51586227D01*
X51494841Y-51409600D01*
X51512237Y-51232973D01*
X51563757Y-51063134D01*
X51563757Y-51063133D01*
X51637852Y-50924513D01*
X51647422Y-50906609D01*
X51676752Y-50870871D01*
X51760014Y-50769414D01*
X51893917Y-50659524D01*
X51897209Y-50656822D01*
X51915113Y-50647252D01*
X52053733Y-50573157D01*
X52110347Y-50555984D01*
X52223573Y-50521637D01*
X52289758Y-50515118D01*
X52355940Y-50508600D01*
X52444460Y-50508600D01*
X52510643Y-50515119D01*
X52510643Y-50515119D01*
G37*
G36*
X121014142Y-49891243D02*
X121128583Y-49938647D01*
X121156975Y-49950407D01*
X121162102Y-49952531D01*
X121295258Y-50041503D01*
X121408498Y-50154743D01*
X121497470Y-50287899D01*
X121558758Y-50435859D01*
X121590000Y-50592926D01*
X121590000Y-50753076D01*
X121558758Y-50910143D01*
X121497470Y-51058103D01*
X121408498Y-51191259D01*
X121295258Y-51304499D01*
X121162102Y-51393471D01*
X121014142Y-51454759D01*
X120857075Y-51486001D01*
X120696925Y-51486001D01*
X120539858Y-51454759D01*
X120391898Y-51393471D01*
X120258742Y-51304499D01*
X120145502Y-51191259D01*
X120056530Y-51058103D01*
X119995242Y-50910143D01*
X119964000Y-50753076D01*
X119964000Y-50592926D01*
X119995242Y-50435859D01*
X120056530Y-50287899D01*
X120145502Y-50154743D01*
X120258742Y-50041503D01*
X120391898Y-49952531D01*
X120397026Y-49950407D01*
X120425417Y-49938647D01*
X120539858Y-49891243D01*
X120696925Y-49860001D01*
X120857075Y-49860001D01*
X121014142Y-49891243D01*
X121014142Y-49891243D01*
G37*
G36*
X126094142Y-49891243D02*
X126208583Y-49938647D01*
X126236975Y-49950407D01*
X126242102Y-49952531D01*
X126375258Y-50041503D01*
X126488498Y-50154743D01*
X126577470Y-50287899D01*
X126638758Y-50435859D01*
X126670000Y-50592926D01*
X126670000Y-50753076D01*
X126638758Y-50910143D01*
X126577470Y-51058103D01*
X126488498Y-51191259D01*
X126375258Y-51304499D01*
X126242102Y-51393471D01*
X126094142Y-51454759D01*
X125937075Y-51486001D01*
X125776925Y-51486001D01*
X125619858Y-51454759D01*
X125471898Y-51393471D01*
X125338742Y-51304499D01*
X125225502Y-51191259D01*
X125136530Y-51058103D01*
X125075242Y-50910143D01*
X125044000Y-50753076D01*
X125044000Y-50592926D01*
X125075242Y-50435859D01*
X125136530Y-50287899D01*
X125225502Y-50154743D01*
X125338742Y-50041503D01*
X125471898Y-49952531D01*
X125477026Y-49950407D01*
X125505417Y-49938647D01*
X125619858Y-49891243D01*
X125776925Y-49860001D01*
X125937075Y-49860001D01*
X126094142Y-49891243D01*
X126094142Y-49891243D01*
G37*
G36*
X123554142Y-49891243D02*
X123668583Y-49938647D01*
X123696975Y-49950407D01*
X123702102Y-49952531D01*
X123835258Y-50041503D01*
X123948498Y-50154743D01*
X124037470Y-50287899D01*
X124098758Y-50435859D01*
X124130000Y-50592926D01*
X124130000Y-50753076D01*
X124098758Y-50910143D01*
X124037470Y-51058103D01*
X123948498Y-51191259D01*
X123835258Y-51304499D01*
X123702102Y-51393471D01*
X123554142Y-51454759D01*
X123397075Y-51486001D01*
X123236925Y-51486001D01*
X123079858Y-51454759D01*
X122931898Y-51393471D01*
X122798742Y-51304499D01*
X122685502Y-51191259D01*
X122596530Y-51058103D01*
X122535242Y-50910143D01*
X122504000Y-50753076D01*
X122504000Y-50592926D01*
X122535242Y-50435859D01*
X122596530Y-50287899D01*
X122685502Y-50154743D01*
X122798742Y-50041503D01*
X122931898Y-49952531D01*
X122937026Y-49950407D01*
X122965417Y-49938647D01*
X123079858Y-49891243D01*
X123236925Y-49860001D01*
X123397075Y-49860001D01*
X123554142Y-49891243D01*
X123554142Y-49891243D01*
G37*
G36*
X118474142Y-49891243D02*
X118588583Y-49938647D01*
X118616975Y-49950407D01*
X118622102Y-49952531D01*
X118755258Y-50041503D01*
X118868498Y-50154743D01*
X118957470Y-50287899D01*
X119018758Y-50435859D01*
X119050000Y-50592926D01*
X119050000Y-50753076D01*
X119018758Y-50910143D01*
X118957470Y-51058103D01*
X118868498Y-51191259D01*
X118755258Y-51304499D01*
X118622102Y-51393471D01*
X118474142Y-51454759D01*
X118317075Y-51486001D01*
X118156925Y-51486001D01*
X117999858Y-51454759D01*
X117851898Y-51393471D01*
X117718742Y-51304499D01*
X117605502Y-51191259D01*
X117516530Y-51058103D01*
X117455242Y-50910143D01*
X117424000Y-50753076D01*
X117424000Y-50592926D01*
X117455242Y-50435859D01*
X117516530Y-50287899D01*
X117605502Y-50154743D01*
X117718742Y-50041503D01*
X117851898Y-49952531D01*
X117857026Y-49950407D01*
X117885417Y-49938647D01*
X117999858Y-49891243D01*
X118156925Y-49860001D01*
X118317075Y-49860001D01*
X118474142Y-49891243D01*
X118474142Y-49891243D01*
G37*
G36*
X115934142Y-49891243D02*
X116048583Y-49938647D01*
X116076975Y-49950407D01*
X116082102Y-49952531D01*
X116215258Y-50041503D01*
X116328498Y-50154743D01*
X116417470Y-50287899D01*
X116478758Y-50435859D01*
X116510000Y-50592926D01*
X116510000Y-50753076D01*
X116478758Y-50910143D01*
X116417470Y-51058103D01*
X116328498Y-51191259D01*
X116215258Y-51304499D01*
X116082102Y-51393471D01*
X115934142Y-51454759D01*
X115777075Y-51486001D01*
X115616925Y-51486001D01*
X115459858Y-51454759D01*
X115311898Y-51393471D01*
X115178742Y-51304499D01*
X115065502Y-51191259D01*
X114976530Y-51058103D01*
X114915242Y-50910143D01*
X114884000Y-50753076D01*
X114884000Y-50592926D01*
X114915242Y-50435859D01*
X114976530Y-50287899D01*
X115065502Y-50154743D01*
X115178742Y-50041503D01*
X115311898Y-49952531D01*
X115317026Y-49950407D01*
X115345417Y-49938647D01*
X115459858Y-49891243D01*
X115616925Y-49860001D01*
X115777075Y-49860001D01*
X115934142Y-49891243D01*
X115934142Y-49891243D01*
G37*
G36*
X113394142Y-49891243D02*
X113508583Y-49938647D01*
X113536975Y-49950407D01*
X113542102Y-49952531D01*
X113675258Y-50041503D01*
X113788498Y-50154743D01*
X113877470Y-50287899D01*
X113938758Y-50435859D01*
X113970000Y-50592926D01*
X113970000Y-50753076D01*
X113938758Y-50910143D01*
X113877470Y-51058103D01*
X113788498Y-51191259D01*
X113675258Y-51304499D01*
X113542102Y-51393471D01*
X113394142Y-51454759D01*
X113237075Y-51486001D01*
X113076925Y-51486001D01*
X112919858Y-51454759D01*
X112771898Y-51393471D01*
X112638742Y-51304499D01*
X112525502Y-51191259D01*
X112436530Y-51058103D01*
X112375242Y-50910143D01*
X112344000Y-50753076D01*
X112344000Y-50592926D01*
X112375242Y-50435859D01*
X112436530Y-50287899D01*
X112525502Y-50154743D01*
X112638742Y-50041503D01*
X112771898Y-49952531D01*
X112777026Y-49950407D01*
X112805417Y-49938647D01*
X112919858Y-49891243D01*
X113076925Y-49860001D01*
X113237075Y-49860001D01*
X113394142Y-49891243D01*
X113394142Y-49891243D01*
G37*
G36*
X110854142Y-49891243D02*
X110968583Y-49938647D01*
X110996975Y-49950407D01*
X111002102Y-49952531D01*
X111135258Y-50041503D01*
X111248498Y-50154743D01*
X111337470Y-50287899D01*
X111398758Y-50435859D01*
X111430000Y-50592926D01*
X111430000Y-50753076D01*
X111398758Y-50910143D01*
X111337470Y-51058103D01*
X111248498Y-51191259D01*
X111135258Y-51304499D01*
X111002102Y-51393471D01*
X110854142Y-51454759D01*
X110697075Y-51486001D01*
X110536925Y-51486001D01*
X110379858Y-51454759D01*
X110231898Y-51393471D01*
X110098742Y-51304499D01*
X109985502Y-51191259D01*
X109896530Y-51058103D01*
X109835242Y-50910143D01*
X109804000Y-50753076D01*
X109804000Y-50592926D01*
X109835242Y-50435859D01*
X109896530Y-50287899D01*
X109985502Y-50154743D01*
X110098742Y-50041503D01*
X110231898Y-49952531D01*
X110237026Y-49950407D01*
X110265417Y-49938647D01*
X110379858Y-49891243D01*
X110536925Y-49860001D01*
X110697075Y-49860001D01*
X110854142Y-49891243D01*
X110854142Y-49891243D01*
G37*
G36*
X108314142Y-49891243D02*
X108428583Y-49938647D01*
X108456975Y-49950407D01*
X108462102Y-49952531D01*
X108595258Y-50041503D01*
X108708498Y-50154743D01*
X108797470Y-50287899D01*
X108858758Y-50435859D01*
X108890000Y-50592926D01*
X108890000Y-50753076D01*
X108858758Y-50910143D01*
X108797470Y-51058103D01*
X108708498Y-51191259D01*
X108595258Y-51304499D01*
X108462102Y-51393471D01*
X108314142Y-51454759D01*
X108157075Y-51486001D01*
X107996925Y-51486001D01*
X107839858Y-51454759D01*
X107691898Y-51393471D01*
X107558742Y-51304499D01*
X107445502Y-51191259D01*
X107356530Y-51058103D01*
X107295242Y-50910143D01*
X107264000Y-50753076D01*
X107264000Y-50592926D01*
X107295242Y-50435859D01*
X107356530Y-50287899D01*
X107445502Y-50154743D01*
X107558742Y-50041503D01*
X107691898Y-49952531D01*
X107697026Y-49950407D01*
X107725417Y-49938647D01*
X107839858Y-49891243D01*
X107996925Y-49860001D01*
X108157075Y-49860001D01*
X108314142Y-49891243D01*
X108314142Y-49891243D01*
G37*
G36*
X105774142Y-49891243D02*
X105888583Y-49938647D01*
X105916975Y-49950407D01*
X105922102Y-49952531D01*
X106055258Y-50041503D01*
X106168498Y-50154743D01*
X106257470Y-50287899D01*
X106318758Y-50435859D01*
X106350000Y-50592926D01*
X106350000Y-50753076D01*
X106318758Y-50910143D01*
X106257470Y-51058103D01*
X106168498Y-51191259D01*
X106055258Y-51304499D01*
X105922102Y-51393471D01*
X105774142Y-51454759D01*
X105617075Y-51486001D01*
X105456925Y-51486001D01*
X105299858Y-51454759D01*
X105151898Y-51393471D01*
X105018742Y-51304499D01*
X104905502Y-51191259D01*
X104816530Y-51058103D01*
X104755242Y-50910143D01*
X104724000Y-50753076D01*
X104724000Y-50592926D01*
X104755242Y-50435859D01*
X104816530Y-50287899D01*
X104905502Y-50154743D01*
X105018742Y-50041503D01*
X105151898Y-49952531D01*
X105157026Y-49950407D01*
X105185417Y-49938647D01*
X105299858Y-49891243D01*
X105456925Y-49860001D01*
X105617075Y-49860001D01*
X105774142Y-49891243D01*
X105774142Y-49891243D01*
G37*
G36*
X103234142Y-49891243D02*
X103348583Y-49938647D01*
X103376975Y-49950407D01*
X103382102Y-49952531D01*
X103515258Y-50041503D01*
X103628498Y-50154743D01*
X103717470Y-50287899D01*
X103778758Y-50435859D01*
X103810000Y-50592926D01*
X103810000Y-50753076D01*
X103778758Y-50910143D01*
X103717470Y-51058103D01*
X103628498Y-51191259D01*
X103515258Y-51304499D01*
X103382102Y-51393471D01*
X103234142Y-51454759D01*
X103077075Y-51486001D01*
X102916925Y-51486001D01*
X102759858Y-51454759D01*
X102611898Y-51393471D01*
X102478742Y-51304499D01*
X102365502Y-51191259D01*
X102276530Y-51058103D01*
X102215242Y-50910143D01*
X102184000Y-50753076D01*
X102184000Y-50592926D01*
X102215242Y-50435859D01*
X102276530Y-50287899D01*
X102365502Y-50154743D01*
X102478742Y-50041503D01*
X102611898Y-49952531D01*
X102617026Y-49950407D01*
X102645417Y-49938647D01*
X102759858Y-49891243D01*
X102916925Y-49860001D01*
X103077075Y-49860001D01*
X103234142Y-49891243D01*
X103234142Y-49891243D01*
G37*
G36*
X100694142Y-49891243D02*
X100808583Y-49938647D01*
X100836975Y-49950407D01*
X100842102Y-49952531D01*
X100975258Y-50041503D01*
X101088498Y-50154743D01*
X101177470Y-50287899D01*
X101238758Y-50435859D01*
X101270000Y-50592926D01*
X101270000Y-50753076D01*
X101238758Y-50910143D01*
X101177470Y-51058103D01*
X101088498Y-51191259D01*
X100975258Y-51304499D01*
X100842102Y-51393471D01*
X100694142Y-51454759D01*
X100537075Y-51486001D01*
X100376925Y-51486001D01*
X100219858Y-51454759D01*
X100071898Y-51393471D01*
X99938742Y-51304499D01*
X99825502Y-51191259D01*
X99736530Y-51058103D01*
X99675242Y-50910143D01*
X99644000Y-50753076D01*
X99644000Y-50592926D01*
X99675242Y-50435859D01*
X99736530Y-50287899D01*
X99825502Y-50154743D01*
X99938742Y-50041503D01*
X100071898Y-49952531D01*
X100077026Y-49950407D01*
X100105417Y-49938647D01*
X100219858Y-49891243D01*
X100376925Y-49860001D01*
X100537075Y-49860001D01*
X100694142Y-49891243D01*
X100694142Y-49891243D01*
G37*
G36*
X98154142Y-49891243D02*
X98268583Y-49938647D01*
X98296975Y-49950407D01*
X98302102Y-49952531D01*
X98435258Y-50041503D01*
X98548498Y-50154743D01*
X98637470Y-50287899D01*
X98698758Y-50435859D01*
X98730000Y-50592926D01*
X98730000Y-50753076D01*
X98698758Y-50910143D01*
X98637470Y-51058103D01*
X98548498Y-51191259D01*
X98435258Y-51304499D01*
X98302102Y-51393471D01*
X98154142Y-51454759D01*
X97997075Y-51486001D01*
X97836925Y-51486001D01*
X97679858Y-51454759D01*
X97531898Y-51393471D01*
X97398742Y-51304499D01*
X97285502Y-51191259D01*
X97196530Y-51058103D01*
X97135242Y-50910143D01*
X97104000Y-50753076D01*
X97104000Y-50592926D01*
X97135242Y-50435859D01*
X97196530Y-50287899D01*
X97285502Y-50154743D01*
X97398742Y-50041503D01*
X97531898Y-49952531D01*
X97537026Y-49950407D01*
X97565417Y-49938647D01*
X97679858Y-49891243D01*
X97836925Y-49860001D01*
X97997075Y-49860001D01*
X98154142Y-49891243D01*
X98154142Y-49891243D01*
G37*
G36*
X95614142Y-49891243D02*
X95728583Y-49938647D01*
X95756975Y-49950407D01*
X95762102Y-49952531D01*
X95895258Y-50041503D01*
X96008498Y-50154743D01*
X96097470Y-50287899D01*
X96158758Y-50435859D01*
X96190000Y-50592926D01*
X96190000Y-50753076D01*
X96158758Y-50910143D01*
X96097470Y-51058103D01*
X96008498Y-51191259D01*
X95895258Y-51304499D01*
X95762102Y-51393471D01*
X95614142Y-51454759D01*
X95457075Y-51486001D01*
X95296925Y-51486001D01*
X95139858Y-51454759D01*
X94991898Y-51393471D01*
X94858742Y-51304499D01*
X94745502Y-51191259D01*
X94656530Y-51058103D01*
X94595242Y-50910143D01*
X94564000Y-50753076D01*
X94564000Y-50592926D01*
X94595242Y-50435859D01*
X94656530Y-50287899D01*
X94745502Y-50154743D01*
X94858742Y-50041503D01*
X94991898Y-49952531D01*
X94997026Y-49950407D01*
X95025417Y-49938647D01*
X95139858Y-49891243D01*
X95296925Y-49860001D01*
X95457075Y-49860001D01*
X95614142Y-49891243D01*
X95614142Y-49891243D01*
G37*
G36*
X93074142Y-49891243D02*
X93188583Y-49938647D01*
X93216975Y-49950407D01*
X93222102Y-49952531D01*
X93355258Y-50041503D01*
X93468498Y-50154743D01*
X93557470Y-50287899D01*
X93618758Y-50435859D01*
X93650000Y-50592926D01*
X93650000Y-50753076D01*
X93618758Y-50910143D01*
X93557470Y-51058103D01*
X93468498Y-51191259D01*
X93355258Y-51304499D01*
X93222102Y-51393471D01*
X93074142Y-51454759D01*
X92917075Y-51486001D01*
X92756925Y-51486001D01*
X92599858Y-51454759D01*
X92451898Y-51393471D01*
X92318742Y-51304499D01*
X92205502Y-51191259D01*
X92116530Y-51058103D01*
X92055242Y-50910143D01*
X92024000Y-50753076D01*
X92024000Y-50592926D01*
X92055242Y-50435859D01*
X92116530Y-50287899D01*
X92205502Y-50154743D01*
X92318742Y-50041503D01*
X92451898Y-49952531D01*
X92457026Y-49950407D01*
X92485417Y-49938647D01*
X92599858Y-49891243D01*
X92756925Y-49860001D01*
X92917075Y-49860001D01*
X93074142Y-49891243D01*
X93074142Y-49891243D01*
G37*
G36*
X90534142Y-49891243D02*
X90648583Y-49938647D01*
X90676975Y-49950407D01*
X90682102Y-49952531D01*
X90815258Y-50041503D01*
X90928498Y-50154743D01*
X91017470Y-50287899D01*
X91078758Y-50435859D01*
X91110000Y-50592926D01*
X91110000Y-50753076D01*
X91078758Y-50910143D01*
X91017470Y-51058103D01*
X90928498Y-51191259D01*
X90815258Y-51304499D01*
X90682102Y-51393471D01*
X90534142Y-51454759D01*
X90377075Y-51486001D01*
X90216925Y-51486001D01*
X90059858Y-51454759D01*
X89911898Y-51393471D01*
X89778742Y-51304499D01*
X89665502Y-51191259D01*
X89576530Y-51058103D01*
X89515242Y-50910143D01*
X89484000Y-50753076D01*
X89484000Y-50592926D01*
X89515242Y-50435859D01*
X89576530Y-50287899D01*
X89665502Y-50154743D01*
X89778742Y-50041503D01*
X89911898Y-49952531D01*
X89917026Y-49950407D01*
X89945417Y-49938647D01*
X90059858Y-49891243D01*
X90216925Y-49860001D01*
X90377075Y-49860001D01*
X90534142Y-49891243D01*
X90534142Y-49891243D01*
G37*
G36*
X87994142Y-49891243D02*
X88108583Y-49938647D01*
X88136975Y-49950407D01*
X88142102Y-49952531D01*
X88275258Y-50041503D01*
X88388498Y-50154743D01*
X88477470Y-50287899D01*
X88538758Y-50435859D01*
X88570000Y-50592926D01*
X88570000Y-50753076D01*
X88538758Y-50910143D01*
X88477470Y-51058103D01*
X88388498Y-51191259D01*
X88275258Y-51304499D01*
X88142102Y-51393471D01*
X87994142Y-51454759D01*
X87837075Y-51486001D01*
X87676925Y-51486001D01*
X87519858Y-51454759D01*
X87371898Y-51393471D01*
X87238742Y-51304499D01*
X87125502Y-51191259D01*
X87036530Y-51058103D01*
X86975242Y-50910143D01*
X86944000Y-50753076D01*
X86944000Y-50592926D01*
X86975242Y-50435859D01*
X87036530Y-50287899D01*
X87125502Y-50154743D01*
X87238742Y-50041503D01*
X87371898Y-49952531D01*
X87377026Y-49950407D01*
X87405417Y-49938647D01*
X87519858Y-49891243D01*
X87676925Y-49860001D01*
X87837075Y-49860001D01*
X87994142Y-49891243D01*
X87994142Y-49891243D01*
G37*
G36*
X85454142Y-49891243D02*
X85568583Y-49938647D01*
X85596975Y-49950407D01*
X85602102Y-49952531D01*
X85735258Y-50041503D01*
X85848498Y-50154743D01*
X85937470Y-50287899D01*
X85998758Y-50435859D01*
X86030000Y-50592926D01*
X86030000Y-50753076D01*
X85998758Y-50910143D01*
X85937470Y-51058103D01*
X85848498Y-51191259D01*
X85735258Y-51304499D01*
X85602102Y-51393471D01*
X85454142Y-51454759D01*
X85297075Y-51486001D01*
X85136925Y-51486001D01*
X84979858Y-51454759D01*
X84831898Y-51393471D01*
X84698742Y-51304499D01*
X84585502Y-51191259D01*
X84496530Y-51058103D01*
X84435242Y-50910143D01*
X84404000Y-50753076D01*
X84404000Y-50592926D01*
X84435242Y-50435859D01*
X84496530Y-50287899D01*
X84585502Y-50154743D01*
X84698742Y-50041503D01*
X84831898Y-49952531D01*
X84837026Y-49950407D01*
X84865417Y-49938647D01*
X84979858Y-49891243D01*
X85136925Y-49860001D01*
X85297075Y-49860001D01*
X85454142Y-49891243D01*
X85454142Y-49891243D01*
G37*
G36*
X82914142Y-49891243D02*
X83028583Y-49938647D01*
X83056975Y-49950407D01*
X83062102Y-49952531D01*
X83195258Y-50041503D01*
X83308498Y-50154743D01*
X83397470Y-50287899D01*
X83458758Y-50435859D01*
X83490000Y-50592926D01*
X83490000Y-50753076D01*
X83458758Y-50910143D01*
X83397470Y-51058103D01*
X83308498Y-51191259D01*
X83195258Y-51304499D01*
X83062102Y-51393471D01*
X82914142Y-51454759D01*
X82757075Y-51486001D01*
X82596925Y-51486001D01*
X82439858Y-51454759D01*
X82291898Y-51393471D01*
X82158742Y-51304499D01*
X82045502Y-51191259D01*
X81956530Y-51058103D01*
X81895242Y-50910143D01*
X81864000Y-50753076D01*
X81864000Y-50592926D01*
X81895242Y-50435859D01*
X81956530Y-50287899D01*
X82045502Y-50154743D01*
X82158742Y-50041503D01*
X82291898Y-49952531D01*
X82297026Y-49950407D01*
X82325417Y-49938647D01*
X82439858Y-49891243D01*
X82596925Y-49860001D01*
X82757075Y-49860001D01*
X82914142Y-49891243D01*
X82914142Y-49891243D01*
G37*
G36*
X80374142Y-49891243D02*
X80488583Y-49938647D01*
X80516975Y-49950407D01*
X80522102Y-49952531D01*
X80655258Y-50041503D01*
X80768498Y-50154743D01*
X80857470Y-50287899D01*
X80918758Y-50435859D01*
X80950000Y-50592926D01*
X80950000Y-50753076D01*
X80918758Y-50910143D01*
X80857470Y-51058103D01*
X80768498Y-51191259D01*
X80655258Y-51304499D01*
X80522102Y-51393471D01*
X80374142Y-51454759D01*
X80217075Y-51486001D01*
X80056925Y-51486001D01*
X79899858Y-51454759D01*
X79751898Y-51393471D01*
X79618742Y-51304499D01*
X79505502Y-51191259D01*
X79416530Y-51058103D01*
X79355242Y-50910143D01*
X79324000Y-50753076D01*
X79324000Y-50592926D01*
X79355242Y-50435859D01*
X79416530Y-50287899D01*
X79505502Y-50154743D01*
X79618742Y-50041503D01*
X79751898Y-49952531D01*
X79757026Y-49950407D01*
X79785417Y-49938647D01*
X79899858Y-49891243D01*
X80056925Y-49860001D01*
X80217075Y-49860001D01*
X80374142Y-49891243D01*
X80374142Y-49891243D01*
G37*
G36*
X77834142Y-49891243D02*
X77948583Y-49938647D01*
X77976975Y-49950407D01*
X77982102Y-49952531D01*
X78115258Y-50041503D01*
X78228498Y-50154743D01*
X78317470Y-50287899D01*
X78378758Y-50435859D01*
X78410000Y-50592926D01*
X78410000Y-50753076D01*
X78378758Y-50910143D01*
X78317470Y-51058103D01*
X78228498Y-51191259D01*
X78115258Y-51304499D01*
X77982102Y-51393471D01*
X77834142Y-51454759D01*
X77677075Y-51486001D01*
X77516925Y-51486001D01*
X77359858Y-51454759D01*
X77211898Y-51393471D01*
X77078742Y-51304499D01*
X76965502Y-51191259D01*
X76876530Y-51058103D01*
X76815242Y-50910143D01*
X76784000Y-50753076D01*
X76784000Y-50592926D01*
X76815242Y-50435859D01*
X76876530Y-50287899D01*
X76965502Y-50154743D01*
X77078742Y-50041503D01*
X77211898Y-49952531D01*
X77217026Y-49950407D01*
X77245417Y-49938647D01*
X77359858Y-49891243D01*
X77516925Y-49860001D01*
X77677075Y-49860001D01*
X77834142Y-49891243D01*
X77834142Y-49891243D01*
G37*
G36*
X75294142Y-49891243D02*
X75408583Y-49938647D01*
X75436975Y-49950407D01*
X75442102Y-49952531D01*
X75575258Y-50041503D01*
X75688498Y-50154743D01*
X75777470Y-50287899D01*
X75838758Y-50435859D01*
X75870000Y-50592926D01*
X75870000Y-50753076D01*
X75838758Y-50910143D01*
X75777470Y-51058103D01*
X75688498Y-51191259D01*
X75575258Y-51304499D01*
X75442102Y-51393471D01*
X75294142Y-51454759D01*
X75137075Y-51486001D01*
X74976925Y-51486001D01*
X74819858Y-51454759D01*
X74671898Y-51393471D01*
X74538742Y-51304499D01*
X74425502Y-51191259D01*
X74336530Y-51058103D01*
X74275242Y-50910143D01*
X74244000Y-50753076D01*
X74244000Y-50592926D01*
X74275242Y-50435859D01*
X74336530Y-50287899D01*
X74425502Y-50154743D01*
X74538742Y-50041503D01*
X74671898Y-49952531D01*
X74677026Y-49950407D01*
X74705417Y-49938647D01*
X74819858Y-49891243D01*
X74976925Y-49860001D01*
X75137075Y-49860001D01*
X75294142Y-49891243D01*
X75294142Y-49891243D01*
G37*
G36*
X72754142Y-49891243D02*
X72868583Y-49938647D01*
X72896975Y-49950407D01*
X72902102Y-49952531D01*
X73035258Y-50041503D01*
X73148498Y-50154743D01*
X73237470Y-50287899D01*
X73298758Y-50435859D01*
X73330000Y-50592926D01*
X73330000Y-50753076D01*
X73298758Y-50910143D01*
X73237470Y-51058103D01*
X73148498Y-51191259D01*
X73035258Y-51304499D01*
X72902102Y-51393471D01*
X72754142Y-51454759D01*
X72597075Y-51486001D01*
X72436925Y-51486001D01*
X72279858Y-51454759D01*
X72131898Y-51393471D01*
X71998742Y-51304499D01*
X71885502Y-51191259D01*
X71796530Y-51058103D01*
X71735242Y-50910143D01*
X71704000Y-50753076D01*
X71704000Y-50592926D01*
X71735242Y-50435859D01*
X71796530Y-50287899D01*
X71885502Y-50154743D01*
X71998742Y-50041503D01*
X72131898Y-49952531D01*
X72137026Y-49950407D01*
X72165417Y-49938647D01*
X72279858Y-49891243D01*
X72436925Y-49860001D01*
X72597075Y-49860001D01*
X72754142Y-49891243D01*
X72754142Y-49891243D01*
G37*
G36*
X70214142Y-49891243D02*
X70328583Y-49938647D01*
X70356975Y-49950407D01*
X70362102Y-49952531D01*
X70495258Y-50041503D01*
X70608498Y-50154743D01*
X70697470Y-50287899D01*
X70758758Y-50435859D01*
X70790000Y-50592926D01*
X70790000Y-50753076D01*
X70758758Y-50910143D01*
X70697470Y-51058103D01*
X70608498Y-51191259D01*
X70495258Y-51304499D01*
X70362102Y-51393471D01*
X70214142Y-51454759D01*
X70057075Y-51486001D01*
X69896925Y-51486001D01*
X69739858Y-51454759D01*
X69591898Y-51393471D01*
X69458742Y-51304499D01*
X69345502Y-51191259D01*
X69256530Y-51058103D01*
X69195242Y-50910143D01*
X69164000Y-50753076D01*
X69164000Y-50592926D01*
X69195242Y-50435859D01*
X69256530Y-50287899D01*
X69345502Y-50154743D01*
X69458742Y-50041503D01*
X69591898Y-49952531D01*
X69597026Y-49950407D01*
X69625417Y-49938647D01*
X69739858Y-49891243D01*
X69896925Y-49860001D01*
X70057075Y-49860001D01*
X70214142Y-49891243D01*
X70214142Y-49891243D01*
G37*
G36*
X67674142Y-49891243D02*
X67788583Y-49938647D01*
X67816975Y-49950407D01*
X67822102Y-49952531D01*
X67955258Y-50041503D01*
X68068498Y-50154743D01*
X68157470Y-50287899D01*
X68218758Y-50435859D01*
X68250000Y-50592926D01*
X68250000Y-50753076D01*
X68218758Y-50910143D01*
X68157470Y-51058103D01*
X68068498Y-51191259D01*
X67955258Y-51304499D01*
X67822102Y-51393471D01*
X67674142Y-51454759D01*
X67517075Y-51486001D01*
X67356925Y-51486001D01*
X67199858Y-51454759D01*
X67051898Y-51393471D01*
X66918742Y-51304499D01*
X66805502Y-51191259D01*
X66716530Y-51058103D01*
X66655242Y-50910143D01*
X66624000Y-50753076D01*
X66624000Y-50592926D01*
X66655242Y-50435859D01*
X66716530Y-50287899D01*
X66805502Y-50154743D01*
X66918742Y-50041503D01*
X67051898Y-49952531D01*
X67057026Y-49950407D01*
X67085417Y-49938647D01*
X67199858Y-49891243D01*
X67356925Y-49860001D01*
X67517075Y-49860001D01*
X67674142Y-49891243D01*
X67674142Y-49891243D01*
G37*
G36*
X65134142Y-49891243D02*
X65248583Y-49938647D01*
X65276975Y-49950407D01*
X65282102Y-49952531D01*
X65415258Y-50041503D01*
X65528498Y-50154743D01*
X65617470Y-50287899D01*
X65678758Y-50435859D01*
X65710000Y-50592926D01*
X65710000Y-50753076D01*
X65678758Y-50910143D01*
X65617470Y-51058103D01*
X65528498Y-51191259D01*
X65415258Y-51304499D01*
X65282102Y-51393471D01*
X65134142Y-51454759D01*
X64977075Y-51486001D01*
X64816925Y-51486001D01*
X64659858Y-51454759D01*
X64511898Y-51393471D01*
X64378742Y-51304499D01*
X64265502Y-51191259D01*
X64176530Y-51058103D01*
X64115242Y-50910143D01*
X64084000Y-50753076D01*
X64084000Y-50592926D01*
X64115242Y-50435859D01*
X64176530Y-50287899D01*
X64265502Y-50154743D01*
X64378742Y-50041503D01*
X64511898Y-49952531D01*
X64517026Y-49950407D01*
X64545417Y-49938647D01*
X64659858Y-49891243D01*
X64816925Y-49860001D01*
X64977075Y-49860001D01*
X65134142Y-49891243D01*
X65134142Y-49891243D01*
G37*
G36*
X63170000Y-51486001D02*
X61544000Y-51486001D01*
X61544000Y-49860001D01*
X63170000Y-49860001D01*
X63170000Y-51486001D01*
X63170000Y-51486001D01*
G37*
G36*
X131768606Y-45391562D02*
X132287455Y-45606476D01*
X132751259Y-45916380D01*
X132754410Y-45918486D01*
X133151514Y-46315590D01*
X133151516Y-46315593D01*
X133463524Y-46782545D01*
X133678438Y-47301394D01*
X133788000Y-47852201D01*
X133788000Y-48413799D01*
X133678438Y-48964606D01*
X133463524Y-49483455D01*
X133153620Y-49947259D01*
X133151514Y-49950410D01*
X132754410Y-50347514D01*
X132754407Y-50347516D01*
X132287455Y-50659524D01*
X131768606Y-50874438D01*
X131606871Y-50906609D01*
X131217800Y-50984000D01*
X130656200Y-50984000D01*
X130267129Y-50906609D01*
X130105394Y-50874438D01*
X129586545Y-50659524D01*
X129119593Y-50347516D01*
X129119590Y-50347514D01*
X128722486Y-49950410D01*
X128720380Y-49947259D01*
X128410476Y-49483455D01*
X128195562Y-48964606D01*
X128086000Y-48413799D01*
X128086000Y-47852201D01*
X128195562Y-47301394D01*
X128410476Y-46782545D01*
X128722484Y-46315593D01*
X128722486Y-46315590D01*
X129119590Y-45918486D01*
X129122741Y-45916380D01*
X129586545Y-45606476D01*
X130105394Y-45391562D01*
X130380798Y-45336781D01*
X130656200Y-45282000D01*
X131217800Y-45282000D01*
X131768606Y-45391562D01*
X131768606Y-45391562D01*
G37*
G36*
X58108606Y-45391562D02*
X58627455Y-45606476D01*
X59091259Y-45916380D01*
X59094410Y-45918486D01*
X59491514Y-46315590D01*
X59491516Y-46315593D01*
X59803524Y-46782545D01*
X60018438Y-47301394D01*
X60128000Y-47852201D01*
X60128000Y-48413799D01*
X60018438Y-48964606D01*
X59803524Y-49483455D01*
X59493620Y-49947259D01*
X59491514Y-49950410D01*
X59094410Y-50347514D01*
X59094407Y-50347516D01*
X58627455Y-50659524D01*
X58108606Y-50874438D01*
X57946871Y-50906609D01*
X57557800Y-50984000D01*
X56996200Y-50984000D01*
X56607129Y-50906609D01*
X56445394Y-50874438D01*
X55926545Y-50659524D01*
X55459593Y-50347516D01*
X55459590Y-50347514D01*
X55062486Y-49950410D01*
X55060380Y-49947259D01*
X54750476Y-49483455D01*
X54535562Y-48964606D01*
X54426000Y-48413799D01*
X54426000Y-47852201D01*
X54535562Y-47301394D01*
X54750476Y-46782545D01*
X55062484Y-46315593D01*
X55062486Y-46315590D01*
X55459590Y-45918486D01*
X55462741Y-45916380D01*
X55926545Y-45606476D01*
X56445394Y-45391562D01*
X56720798Y-45336781D01*
X56996200Y-45282000D01*
X57557800Y-45282000D01*
X58108606Y-45391562D01*
X58108606Y-45391562D01*
G37*
G36*
X52510642Y-47975118D02*
X52576827Y-47981637D01*
X52690053Y-48015984D01*
X52746667Y-48033157D01*
X52885287Y-48107252D01*
X52903191Y-48116822D01*
X52938929Y-48146152D01*
X53040386Y-48229414D01*
X53123648Y-48330871D01*
X53152978Y-48366609D01*
X53162548Y-48384513D01*
X53236643Y-48523133D01*
X53236643Y-48523134D01*
X53288163Y-48692973D01*
X53305559Y-48869600D01*
X53288163Y-49046227D01*
X53253816Y-49159453D01*
X53236643Y-49216067D01*
X53162548Y-49354687D01*
X53152978Y-49372591D01*
X53123648Y-49408329D01*
X53040386Y-49509786D01*
X52938929Y-49593048D01*
X52903191Y-49622378D01*
X52903189Y-49622379D01*
X52746667Y-49706043D01*
X52690053Y-49723216D01*
X52576827Y-49757563D01*
X52510642Y-49764082D01*
X52444460Y-49770600D01*
X52355940Y-49770600D01*
X52289757Y-49764081D01*
X52223573Y-49757563D01*
X52110347Y-49723216D01*
X52053733Y-49706043D01*
X51897211Y-49622379D01*
X51897209Y-49622378D01*
X51861471Y-49593048D01*
X51760014Y-49509786D01*
X51676752Y-49408329D01*
X51647422Y-49372591D01*
X51637852Y-49354687D01*
X51563757Y-49216067D01*
X51546584Y-49159453D01*
X51512237Y-49046227D01*
X51494841Y-48869600D01*
X51512237Y-48692973D01*
X51563757Y-48523134D01*
X51563757Y-48523133D01*
X51637852Y-48384513D01*
X51647422Y-48366609D01*
X51676752Y-48330871D01*
X51760014Y-48229414D01*
X51861471Y-48146152D01*
X51897209Y-48116822D01*
X51915113Y-48107252D01*
X52053733Y-48033157D01*
X52110347Y-48015984D01*
X52223573Y-47981637D01*
X52289758Y-47975118D01*
X52355940Y-47968600D01*
X52444460Y-47968600D01*
X52510642Y-47975118D01*
X52510642Y-47975118D01*
G37*
G36*
X77834142Y-47351243D02*
X77982102Y-47412531D01*
X78115258Y-47501503D01*
X78228498Y-47614743D01*
X78317470Y-47747899D01*
X78378758Y-47895859D01*
X78410000Y-48052926D01*
X78410000Y-48213076D01*
X78378758Y-48370143D01*
X78317470Y-48518103D01*
X78228498Y-48651259D01*
X78115258Y-48764499D01*
X77982102Y-48853471D01*
X77834142Y-48914759D01*
X77677075Y-48946001D01*
X77516925Y-48946001D01*
X77359858Y-48914759D01*
X77211898Y-48853471D01*
X77078742Y-48764499D01*
X76965502Y-48651259D01*
X76876530Y-48518103D01*
X76815242Y-48370143D01*
X76784000Y-48213076D01*
X76784000Y-48052926D01*
X76815242Y-47895859D01*
X76876530Y-47747899D01*
X76965502Y-47614743D01*
X77078742Y-47501503D01*
X77211898Y-47412531D01*
X77359858Y-47351243D01*
X77516925Y-47320001D01*
X77677075Y-47320001D01*
X77834142Y-47351243D01*
X77834142Y-47351243D01*
G37*
G36*
X80374142Y-47351243D02*
X80522102Y-47412531D01*
X80655258Y-47501503D01*
X80768498Y-47614743D01*
X80857470Y-47747899D01*
X80918758Y-47895859D01*
X80950000Y-48052926D01*
X80950000Y-48213076D01*
X80918758Y-48370143D01*
X80857470Y-48518103D01*
X80768498Y-48651259D01*
X80655258Y-48764499D01*
X80522102Y-48853471D01*
X80374142Y-48914759D01*
X80217075Y-48946001D01*
X80056925Y-48946001D01*
X79899858Y-48914759D01*
X79751898Y-48853471D01*
X79618742Y-48764499D01*
X79505502Y-48651259D01*
X79416530Y-48518103D01*
X79355242Y-48370143D01*
X79324000Y-48213076D01*
X79324000Y-48052926D01*
X79355242Y-47895859D01*
X79416530Y-47747899D01*
X79505502Y-47614743D01*
X79618742Y-47501503D01*
X79751898Y-47412531D01*
X79899858Y-47351243D01*
X80056925Y-47320001D01*
X80217075Y-47320001D01*
X80374142Y-47351243D01*
X80374142Y-47351243D01*
G37*
G36*
X75294142Y-47351243D02*
X75442102Y-47412531D01*
X75575258Y-47501503D01*
X75688498Y-47614743D01*
X75777470Y-47747899D01*
X75838758Y-47895859D01*
X75870000Y-48052926D01*
X75870000Y-48213076D01*
X75838758Y-48370143D01*
X75777470Y-48518103D01*
X75688498Y-48651259D01*
X75575258Y-48764499D01*
X75442102Y-48853471D01*
X75294142Y-48914759D01*
X75137075Y-48946001D01*
X74976925Y-48946001D01*
X74819858Y-48914759D01*
X74671898Y-48853471D01*
X74538742Y-48764499D01*
X74425502Y-48651259D01*
X74336530Y-48518103D01*
X74275242Y-48370143D01*
X74244000Y-48213076D01*
X74244000Y-48052926D01*
X74275242Y-47895859D01*
X74336530Y-47747899D01*
X74425502Y-47614743D01*
X74538742Y-47501503D01*
X74671898Y-47412531D01*
X74819858Y-47351243D01*
X74976925Y-47320001D01*
X75137075Y-47320001D01*
X75294142Y-47351243D01*
X75294142Y-47351243D01*
G37*
G36*
X72754142Y-47351243D02*
X72902102Y-47412531D01*
X73035258Y-47501503D01*
X73148498Y-47614743D01*
X73237470Y-47747899D01*
X73298758Y-47895859D01*
X73330000Y-48052926D01*
X73330000Y-48213076D01*
X73298758Y-48370143D01*
X73237470Y-48518103D01*
X73148498Y-48651259D01*
X73035258Y-48764499D01*
X72902102Y-48853471D01*
X72754142Y-48914759D01*
X72597075Y-48946001D01*
X72436925Y-48946001D01*
X72279858Y-48914759D01*
X72131898Y-48853471D01*
X71998742Y-48764499D01*
X71885502Y-48651259D01*
X71796530Y-48518103D01*
X71735242Y-48370143D01*
X71704000Y-48213076D01*
X71704000Y-48052926D01*
X71735242Y-47895859D01*
X71796530Y-47747899D01*
X71885502Y-47614743D01*
X71998742Y-47501503D01*
X72131898Y-47412531D01*
X72279858Y-47351243D01*
X72436925Y-47320001D01*
X72597075Y-47320001D01*
X72754142Y-47351243D01*
X72754142Y-47351243D01*
G37*
G36*
X82914142Y-47351243D02*
X83062102Y-47412531D01*
X83195258Y-47501503D01*
X83308498Y-47614743D01*
X83397470Y-47747899D01*
X83458758Y-47895859D01*
X83490000Y-48052926D01*
X83490000Y-48213076D01*
X83458758Y-48370143D01*
X83397470Y-48518103D01*
X83308498Y-48651259D01*
X83195258Y-48764499D01*
X83062102Y-48853471D01*
X82914142Y-48914759D01*
X82757075Y-48946001D01*
X82596925Y-48946001D01*
X82439858Y-48914759D01*
X82291898Y-48853471D01*
X82158742Y-48764499D01*
X82045502Y-48651259D01*
X81956530Y-48518103D01*
X81895242Y-48370143D01*
X81864000Y-48213076D01*
X81864000Y-48052926D01*
X81895242Y-47895859D01*
X81956530Y-47747899D01*
X82045502Y-47614743D01*
X82158742Y-47501503D01*
X82291898Y-47412531D01*
X82439858Y-47351243D01*
X82596925Y-47320001D01*
X82757075Y-47320001D01*
X82914142Y-47351243D01*
X82914142Y-47351243D01*
G37*
G36*
X85454142Y-47351243D02*
X85602102Y-47412531D01*
X85735258Y-47501503D01*
X85848498Y-47614743D01*
X85937470Y-47747899D01*
X85998758Y-47895859D01*
X86030000Y-48052926D01*
X86030000Y-48213076D01*
X85998758Y-48370143D01*
X85937470Y-48518103D01*
X85848498Y-48651259D01*
X85735258Y-48764499D01*
X85602102Y-48853471D01*
X85454142Y-48914759D01*
X85297075Y-48946001D01*
X85136925Y-48946001D01*
X84979858Y-48914759D01*
X84831898Y-48853471D01*
X84698742Y-48764499D01*
X84585502Y-48651259D01*
X84496530Y-48518103D01*
X84435242Y-48370143D01*
X84404000Y-48213076D01*
X84404000Y-48052926D01*
X84435242Y-47895859D01*
X84496530Y-47747899D01*
X84585502Y-47614743D01*
X84698742Y-47501503D01*
X84831898Y-47412531D01*
X84979858Y-47351243D01*
X85136925Y-47320001D01*
X85297075Y-47320001D01*
X85454142Y-47351243D01*
X85454142Y-47351243D01*
G37*
G36*
X87994142Y-47351243D02*
X88142102Y-47412531D01*
X88275258Y-47501503D01*
X88388498Y-47614743D01*
X88477470Y-47747899D01*
X88538758Y-47895859D01*
X88570000Y-48052926D01*
X88570000Y-48213076D01*
X88538758Y-48370143D01*
X88477470Y-48518103D01*
X88388498Y-48651259D01*
X88275258Y-48764499D01*
X88142102Y-48853471D01*
X87994142Y-48914759D01*
X87837075Y-48946001D01*
X87676925Y-48946001D01*
X87519858Y-48914759D01*
X87371898Y-48853471D01*
X87238742Y-48764499D01*
X87125502Y-48651259D01*
X87036530Y-48518103D01*
X86975242Y-48370143D01*
X86944000Y-48213076D01*
X86944000Y-48052926D01*
X86975242Y-47895859D01*
X87036530Y-47747899D01*
X87125502Y-47614743D01*
X87238742Y-47501503D01*
X87371898Y-47412531D01*
X87519858Y-47351243D01*
X87676925Y-47320001D01*
X87837075Y-47320001D01*
X87994142Y-47351243D01*
X87994142Y-47351243D01*
G37*
G36*
X90534142Y-47351243D02*
X90682102Y-47412531D01*
X90815258Y-47501503D01*
X90928498Y-47614743D01*
X91017470Y-47747899D01*
X91078758Y-47895859D01*
X91110000Y-48052926D01*
X91110000Y-48213076D01*
X91078758Y-48370143D01*
X91017470Y-48518103D01*
X90928498Y-48651259D01*
X90815258Y-48764499D01*
X90682102Y-48853471D01*
X90534142Y-48914759D01*
X90377075Y-48946001D01*
X90216925Y-48946001D01*
X90059858Y-48914759D01*
X89911898Y-48853471D01*
X89778742Y-48764499D01*
X89665502Y-48651259D01*
X89576530Y-48518103D01*
X89515242Y-48370143D01*
X89484000Y-48213076D01*
X89484000Y-48052926D01*
X89515242Y-47895859D01*
X89576530Y-47747899D01*
X89665502Y-47614743D01*
X89778742Y-47501503D01*
X89911898Y-47412531D01*
X90059858Y-47351243D01*
X90216925Y-47320001D01*
X90377075Y-47320001D01*
X90534142Y-47351243D01*
X90534142Y-47351243D01*
G37*
G36*
X93074142Y-47351243D02*
X93222102Y-47412531D01*
X93355258Y-47501503D01*
X93468498Y-47614743D01*
X93557470Y-47747899D01*
X93618758Y-47895859D01*
X93650000Y-48052926D01*
X93650000Y-48213076D01*
X93618758Y-48370143D01*
X93557470Y-48518103D01*
X93468498Y-48651259D01*
X93355258Y-48764499D01*
X93222102Y-48853471D01*
X93074142Y-48914759D01*
X92917075Y-48946001D01*
X92756925Y-48946001D01*
X92599858Y-48914759D01*
X92451898Y-48853471D01*
X92318742Y-48764499D01*
X92205502Y-48651259D01*
X92116530Y-48518103D01*
X92055242Y-48370143D01*
X92024000Y-48213076D01*
X92024000Y-48052926D01*
X92055242Y-47895859D01*
X92116530Y-47747899D01*
X92205502Y-47614743D01*
X92318742Y-47501503D01*
X92451898Y-47412531D01*
X92599858Y-47351243D01*
X92756925Y-47320001D01*
X92917075Y-47320001D01*
X93074142Y-47351243D01*
X93074142Y-47351243D01*
G37*
G36*
X95614142Y-47351243D02*
X95762102Y-47412531D01*
X95895258Y-47501503D01*
X96008498Y-47614743D01*
X96097470Y-47747899D01*
X96158758Y-47895859D01*
X96190000Y-48052926D01*
X96190000Y-48213076D01*
X96158758Y-48370143D01*
X96097470Y-48518103D01*
X96008498Y-48651259D01*
X95895258Y-48764499D01*
X95762102Y-48853471D01*
X95614142Y-48914759D01*
X95457075Y-48946001D01*
X95296925Y-48946001D01*
X95139858Y-48914759D01*
X94991898Y-48853471D01*
X94858742Y-48764499D01*
X94745502Y-48651259D01*
X94656530Y-48518103D01*
X94595242Y-48370143D01*
X94564000Y-48213076D01*
X94564000Y-48052926D01*
X94595242Y-47895859D01*
X94656530Y-47747899D01*
X94745502Y-47614743D01*
X94858742Y-47501503D01*
X94991898Y-47412531D01*
X95139858Y-47351243D01*
X95296925Y-47320001D01*
X95457075Y-47320001D01*
X95614142Y-47351243D01*
X95614142Y-47351243D01*
G37*
G36*
X98154142Y-47351243D02*
X98302102Y-47412531D01*
X98435258Y-47501503D01*
X98548498Y-47614743D01*
X98637470Y-47747899D01*
X98698758Y-47895859D01*
X98730000Y-48052926D01*
X98730000Y-48213076D01*
X98698758Y-48370143D01*
X98637470Y-48518103D01*
X98548498Y-48651259D01*
X98435258Y-48764499D01*
X98302102Y-48853471D01*
X98154142Y-48914759D01*
X97997075Y-48946001D01*
X97836925Y-48946001D01*
X97679858Y-48914759D01*
X97531898Y-48853471D01*
X97398742Y-48764499D01*
X97285502Y-48651259D01*
X97196530Y-48518103D01*
X97135242Y-48370143D01*
X97104000Y-48213076D01*
X97104000Y-48052926D01*
X97135242Y-47895859D01*
X97196530Y-47747899D01*
X97285502Y-47614743D01*
X97398742Y-47501503D01*
X97531898Y-47412531D01*
X97679858Y-47351243D01*
X97836925Y-47320001D01*
X97997075Y-47320001D01*
X98154142Y-47351243D01*
X98154142Y-47351243D01*
G37*
G36*
X100694142Y-47351243D02*
X100842102Y-47412531D01*
X100975258Y-47501503D01*
X101088498Y-47614743D01*
X101177470Y-47747899D01*
X101238758Y-47895859D01*
X101270000Y-48052926D01*
X101270000Y-48213076D01*
X101238758Y-48370143D01*
X101177470Y-48518103D01*
X101088498Y-48651259D01*
X100975258Y-48764499D01*
X100842102Y-48853471D01*
X100694142Y-48914759D01*
X100537075Y-48946001D01*
X100376925Y-48946001D01*
X100219858Y-48914759D01*
X100071898Y-48853471D01*
X99938742Y-48764499D01*
X99825502Y-48651259D01*
X99736530Y-48518103D01*
X99675242Y-48370143D01*
X99644000Y-48213076D01*
X99644000Y-48052926D01*
X99675242Y-47895859D01*
X99736530Y-47747899D01*
X99825502Y-47614743D01*
X99938742Y-47501503D01*
X100071898Y-47412531D01*
X100219858Y-47351243D01*
X100376925Y-47320001D01*
X100537075Y-47320001D01*
X100694142Y-47351243D01*
X100694142Y-47351243D01*
G37*
G36*
X103234142Y-47351243D02*
X103382102Y-47412531D01*
X103515258Y-47501503D01*
X103628498Y-47614743D01*
X103717470Y-47747899D01*
X103778758Y-47895859D01*
X103810000Y-48052926D01*
X103810000Y-48213076D01*
X103778758Y-48370143D01*
X103717470Y-48518103D01*
X103628498Y-48651259D01*
X103515258Y-48764499D01*
X103382102Y-48853471D01*
X103234142Y-48914759D01*
X103077075Y-48946001D01*
X102916925Y-48946001D01*
X102759858Y-48914759D01*
X102611898Y-48853471D01*
X102478742Y-48764499D01*
X102365502Y-48651259D01*
X102276530Y-48518103D01*
X102215242Y-48370143D01*
X102184000Y-48213076D01*
X102184000Y-48052926D01*
X102215242Y-47895859D01*
X102276530Y-47747899D01*
X102365502Y-47614743D01*
X102478742Y-47501503D01*
X102611898Y-47412531D01*
X102759858Y-47351243D01*
X102916925Y-47320001D01*
X103077075Y-47320001D01*
X103234142Y-47351243D01*
X103234142Y-47351243D01*
G37*
G36*
X105774142Y-47351243D02*
X105922102Y-47412531D01*
X106055258Y-47501503D01*
X106168498Y-47614743D01*
X106257470Y-47747899D01*
X106318758Y-47895859D01*
X106350000Y-48052926D01*
X106350000Y-48213076D01*
X106318758Y-48370143D01*
X106257470Y-48518103D01*
X106168498Y-48651259D01*
X106055258Y-48764499D01*
X105922102Y-48853471D01*
X105774142Y-48914759D01*
X105617075Y-48946001D01*
X105456925Y-48946001D01*
X105299858Y-48914759D01*
X105151898Y-48853471D01*
X105018742Y-48764499D01*
X104905502Y-48651259D01*
X104816530Y-48518103D01*
X104755242Y-48370143D01*
X104724000Y-48213076D01*
X104724000Y-48052926D01*
X104755242Y-47895859D01*
X104816530Y-47747899D01*
X104905502Y-47614743D01*
X105018742Y-47501503D01*
X105151898Y-47412531D01*
X105299858Y-47351243D01*
X105456925Y-47320001D01*
X105617075Y-47320001D01*
X105774142Y-47351243D01*
X105774142Y-47351243D01*
G37*
G36*
X108314142Y-47351243D02*
X108462102Y-47412531D01*
X108595258Y-47501503D01*
X108708498Y-47614743D01*
X108797470Y-47747899D01*
X108858758Y-47895859D01*
X108890000Y-48052926D01*
X108890000Y-48213076D01*
X108858758Y-48370143D01*
X108797470Y-48518103D01*
X108708498Y-48651259D01*
X108595258Y-48764499D01*
X108462102Y-48853471D01*
X108314142Y-48914759D01*
X108157075Y-48946001D01*
X107996925Y-48946001D01*
X107839858Y-48914759D01*
X107691898Y-48853471D01*
X107558742Y-48764499D01*
X107445502Y-48651259D01*
X107356530Y-48518103D01*
X107295242Y-48370143D01*
X107264000Y-48213076D01*
X107264000Y-48052926D01*
X107295242Y-47895859D01*
X107356530Y-47747899D01*
X107445502Y-47614743D01*
X107558742Y-47501503D01*
X107691898Y-47412531D01*
X107839858Y-47351243D01*
X107996925Y-47320001D01*
X108157075Y-47320001D01*
X108314142Y-47351243D01*
X108314142Y-47351243D01*
G37*
G36*
X110854142Y-47351243D02*
X111002102Y-47412531D01*
X111135258Y-47501503D01*
X111248498Y-47614743D01*
X111337470Y-47747899D01*
X111398758Y-47895859D01*
X111430000Y-48052926D01*
X111430000Y-48213076D01*
X111398758Y-48370143D01*
X111337470Y-48518103D01*
X111248498Y-48651259D01*
X111135258Y-48764499D01*
X111002102Y-48853471D01*
X110854142Y-48914759D01*
X110697075Y-48946001D01*
X110536925Y-48946001D01*
X110379858Y-48914759D01*
X110231898Y-48853471D01*
X110098742Y-48764499D01*
X109985502Y-48651259D01*
X109896530Y-48518103D01*
X109835242Y-48370143D01*
X109804000Y-48213076D01*
X109804000Y-48052926D01*
X109835242Y-47895859D01*
X109896530Y-47747899D01*
X109985502Y-47614743D01*
X110098742Y-47501503D01*
X110231898Y-47412531D01*
X110379858Y-47351243D01*
X110536925Y-47320001D01*
X110697075Y-47320001D01*
X110854142Y-47351243D01*
X110854142Y-47351243D01*
G37*
G36*
X113394142Y-47351243D02*
X113542102Y-47412531D01*
X113675258Y-47501503D01*
X113788498Y-47614743D01*
X113877470Y-47747899D01*
X113938758Y-47895859D01*
X113970000Y-48052926D01*
X113970000Y-48213076D01*
X113938758Y-48370143D01*
X113877470Y-48518103D01*
X113788498Y-48651259D01*
X113675258Y-48764499D01*
X113542102Y-48853471D01*
X113394142Y-48914759D01*
X113237075Y-48946001D01*
X113076925Y-48946001D01*
X112919858Y-48914759D01*
X112771898Y-48853471D01*
X112638742Y-48764499D01*
X112525502Y-48651259D01*
X112436530Y-48518103D01*
X112375242Y-48370143D01*
X112344000Y-48213076D01*
X112344000Y-48052926D01*
X112375242Y-47895859D01*
X112436530Y-47747899D01*
X112525502Y-47614743D01*
X112638742Y-47501503D01*
X112771898Y-47412531D01*
X112919858Y-47351243D01*
X113076925Y-47320001D01*
X113237075Y-47320001D01*
X113394142Y-47351243D01*
X113394142Y-47351243D01*
G37*
G36*
X115934142Y-47351243D02*
X116082102Y-47412531D01*
X116215258Y-47501503D01*
X116328498Y-47614743D01*
X116417470Y-47747899D01*
X116478758Y-47895859D01*
X116510000Y-48052926D01*
X116510000Y-48213076D01*
X116478758Y-48370143D01*
X116417470Y-48518103D01*
X116328498Y-48651259D01*
X116215258Y-48764499D01*
X116082102Y-48853471D01*
X115934142Y-48914759D01*
X115777075Y-48946001D01*
X115616925Y-48946001D01*
X115459858Y-48914759D01*
X115311898Y-48853471D01*
X115178742Y-48764499D01*
X115065502Y-48651259D01*
X114976530Y-48518103D01*
X114915242Y-48370143D01*
X114884000Y-48213076D01*
X114884000Y-48052926D01*
X114915242Y-47895859D01*
X114976530Y-47747899D01*
X115065502Y-47614743D01*
X115178742Y-47501503D01*
X115311898Y-47412531D01*
X115459858Y-47351243D01*
X115616925Y-47320001D01*
X115777075Y-47320001D01*
X115934142Y-47351243D01*
X115934142Y-47351243D01*
G37*
G36*
X118474142Y-47351243D02*
X118622102Y-47412531D01*
X118755258Y-47501503D01*
X118868498Y-47614743D01*
X118957470Y-47747899D01*
X119018758Y-47895859D01*
X119050000Y-48052926D01*
X119050000Y-48213076D01*
X119018758Y-48370143D01*
X118957470Y-48518103D01*
X118868498Y-48651259D01*
X118755258Y-48764499D01*
X118622102Y-48853471D01*
X118474142Y-48914759D01*
X118317075Y-48946001D01*
X118156925Y-48946001D01*
X117999858Y-48914759D01*
X117851898Y-48853471D01*
X117718742Y-48764499D01*
X117605502Y-48651259D01*
X117516530Y-48518103D01*
X117455242Y-48370143D01*
X117424000Y-48213076D01*
X117424000Y-48052926D01*
X117455242Y-47895859D01*
X117516530Y-47747899D01*
X117605502Y-47614743D01*
X117718742Y-47501503D01*
X117851898Y-47412531D01*
X117999858Y-47351243D01*
X118156925Y-47320001D01*
X118317075Y-47320001D01*
X118474142Y-47351243D01*
X118474142Y-47351243D01*
G37*
G36*
X121014142Y-47351243D02*
X121162102Y-47412531D01*
X121295258Y-47501503D01*
X121408498Y-47614743D01*
X121497470Y-47747899D01*
X121558758Y-47895859D01*
X121590000Y-48052926D01*
X121590000Y-48213076D01*
X121558758Y-48370143D01*
X121497470Y-48518103D01*
X121408498Y-48651259D01*
X121295258Y-48764499D01*
X121162102Y-48853471D01*
X121014142Y-48914759D01*
X120857075Y-48946001D01*
X120696925Y-48946001D01*
X120539858Y-48914759D01*
X120391898Y-48853471D01*
X120258742Y-48764499D01*
X120145502Y-48651259D01*
X120056530Y-48518103D01*
X119995242Y-48370143D01*
X119964000Y-48213076D01*
X119964000Y-48052926D01*
X119995242Y-47895859D01*
X120056530Y-47747899D01*
X120145502Y-47614743D01*
X120258742Y-47501503D01*
X120391898Y-47412531D01*
X120539858Y-47351243D01*
X120696925Y-47320001D01*
X120857075Y-47320001D01*
X121014142Y-47351243D01*
X121014142Y-47351243D01*
G37*
G36*
X123554142Y-47351243D02*
X123702102Y-47412531D01*
X123835258Y-47501503D01*
X123948498Y-47614743D01*
X124037470Y-47747899D01*
X124098758Y-47895859D01*
X124130000Y-48052926D01*
X124130000Y-48213076D01*
X124098758Y-48370143D01*
X124037470Y-48518103D01*
X123948498Y-48651259D01*
X123835258Y-48764499D01*
X123702102Y-48853471D01*
X123554142Y-48914759D01*
X123397075Y-48946001D01*
X123236925Y-48946001D01*
X123079858Y-48914759D01*
X122931898Y-48853471D01*
X122798742Y-48764499D01*
X122685502Y-48651259D01*
X122596530Y-48518103D01*
X122535242Y-48370143D01*
X122504000Y-48213076D01*
X122504000Y-48052926D01*
X122535242Y-47895859D01*
X122596530Y-47747899D01*
X122685502Y-47614743D01*
X122798742Y-47501503D01*
X122931898Y-47412531D01*
X123079858Y-47351243D01*
X123236925Y-47320001D01*
X123397075Y-47320001D01*
X123554142Y-47351243D01*
X123554142Y-47351243D01*
G37*
G36*
X126094142Y-47351243D02*
X126242102Y-47412531D01*
X126375258Y-47501503D01*
X126488498Y-47614743D01*
X126577470Y-47747899D01*
X126638758Y-47895859D01*
X126670000Y-48052926D01*
X126670000Y-48213076D01*
X126638758Y-48370143D01*
X126577470Y-48518103D01*
X126488498Y-48651259D01*
X126375258Y-48764499D01*
X126242102Y-48853471D01*
X126094142Y-48914759D01*
X125937075Y-48946001D01*
X125776925Y-48946001D01*
X125619858Y-48914759D01*
X125471898Y-48853471D01*
X125338742Y-48764499D01*
X125225502Y-48651259D01*
X125136530Y-48518103D01*
X125075242Y-48370143D01*
X125044000Y-48213076D01*
X125044000Y-48052926D01*
X125075242Y-47895859D01*
X125136530Y-47747899D01*
X125225502Y-47614743D01*
X125338742Y-47501503D01*
X125471898Y-47412531D01*
X125619858Y-47351243D01*
X125776925Y-47320001D01*
X125937075Y-47320001D01*
X126094142Y-47351243D01*
X126094142Y-47351243D01*
G37*
G36*
X70214142Y-47351243D02*
X70362102Y-47412531D01*
X70495258Y-47501503D01*
X70608498Y-47614743D01*
X70697470Y-47747899D01*
X70758758Y-47895859D01*
X70790000Y-48052926D01*
X70790000Y-48213076D01*
X70758758Y-48370143D01*
X70697470Y-48518103D01*
X70608498Y-48651259D01*
X70495258Y-48764499D01*
X70362102Y-48853471D01*
X70214142Y-48914759D01*
X70057075Y-48946001D01*
X69896925Y-48946001D01*
X69739858Y-48914759D01*
X69591898Y-48853471D01*
X69458742Y-48764499D01*
X69345502Y-48651259D01*
X69256530Y-48518103D01*
X69195242Y-48370143D01*
X69164000Y-48213076D01*
X69164000Y-48052926D01*
X69195242Y-47895859D01*
X69256530Y-47747899D01*
X69345502Y-47614743D01*
X69458742Y-47501503D01*
X69591898Y-47412531D01*
X69739858Y-47351243D01*
X69896925Y-47320001D01*
X70057075Y-47320001D01*
X70214142Y-47351243D01*
X70214142Y-47351243D01*
G37*
G36*
X67674142Y-47351243D02*
X67822102Y-47412531D01*
X67955258Y-47501503D01*
X68068498Y-47614743D01*
X68157470Y-47747899D01*
X68218758Y-47895859D01*
X68250000Y-48052926D01*
X68250000Y-48213076D01*
X68218758Y-48370143D01*
X68157470Y-48518103D01*
X68068498Y-48651259D01*
X67955258Y-48764499D01*
X67822102Y-48853471D01*
X67674142Y-48914759D01*
X67517075Y-48946001D01*
X67356925Y-48946001D01*
X67199858Y-48914759D01*
X67051898Y-48853471D01*
X66918742Y-48764499D01*
X66805502Y-48651259D01*
X66716530Y-48518103D01*
X66655242Y-48370143D01*
X66624000Y-48213076D01*
X66624000Y-48052926D01*
X66655242Y-47895859D01*
X66716530Y-47747899D01*
X66805502Y-47614743D01*
X66918742Y-47501503D01*
X67051898Y-47412531D01*
X67199858Y-47351243D01*
X67356925Y-47320001D01*
X67517075Y-47320001D01*
X67674142Y-47351243D01*
X67674142Y-47351243D01*
G37*
G36*
X65134142Y-47351243D02*
X65282102Y-47412531D01*
X65415258Y-47501503D01*
X65528498Y-47614743D01*
X65617470Y-47747899D01*
X65678758Y-47895859D01*
X65710000Y-48052926D01*
X65710000Y-48213076D01*
X65678758Y-48370143D01*
X65617470Y-48518103D01*
X65528498Y-48651259D01*
X65415258Y-48764499D01*
X65282102Y-48853471D01*
X65134142Y-48914759D01*
X64977075Y-48946001D01*
X64816925Y-48946001D01*
X64659858Y-48914759D01*
X64511898Y-48853471D01*
X64378742Y-48764499D01*
X64265502Y-48651259D01*
X64176530Y-48518103D01*
X64115242Y-48370143D01*
X64084000Y-48213076D01*
X64084000Y-48052926D01*
X64115242Y-47895859D01*
X64176530Y-47747899D01*
X64265502Y-47614743D01*
X64378742Y-47501503D01*
X64511898Y-47412531D01*
X64659858Y-47351243D01*
X64816925Y-47320001D01*
X64977075Y-47320001D01*
X65134142Y-47351243D01*
X65134142Y-47351243D01*
G37*
G36*
X62594142Y-47351243D02*
X62742102Y-47412531D01*
X62875258Y-47501503D01*
X62988498Y-47614743D01*
X63077470Y-47747899D01*
X63138758Y-47895859D01*
X63170000Y-48052926D01*
X63170000Y-48213076D01*
X63138758Y-48370143D01*
X63077470Y-48518103D01*
X62988498Y-48651259D01*
X62875258Y-48764499D01*
X62742102Y-48853471D01*
X62594142Y-48914759D01*
X62437075Y-48946001D01*
X62276925Y-48946001D01*
X62119858Y-48914759D01*
X61971898Y-48853471D01*
X61838742Y-48764499D01*
X61725502Y-48651259D01*
X61636530Y-48518103D01*
X61575242Y-48370143D01*
X61544000Y-48213076D01*
X61544000Y-48052926D01*
X61575242Y-47895859D01*
X61636530Y-47747899D01*
X61725502Y-47614743D01*
X61838742Y-47501503D01*
X61971898Y-47412531D01*
X62119858Y-47351243D01*
X62276925Y-47320001D01*
X62437075Y-47320001D01*
X62594142Y-47351243D01*
X62594142Y-47351243D01*
G37*
M02*
