G04 #@! TF.GenerationSoftware,KiCad,Pcbnew,(5.0.1-3-g963ef8bb5)*
G04 #@! TF.CreationDate,2019-01-02T15:44:33+01:00*
G04 #@! TF.ProjectId,OIBUS_MOSFET_driver_module,4F494255535F4D4F534645545F647269,rev?*
G04 #@! TF.SameCoordinates,Original*
G04 #@! TF.FileFunction,Paste,Top*
G04 #@! TF.FilePolarity,Positive*
%FSLAX46Y46*%
G04 Gerber Fmt 4.6, Leading zero omitted, Abs format (unit mm)*
G04 Created by KiCad (PCBNEW (5.0.1-3-g963ef8bb5)) date 2019 January 02, Wednesday 15:44:33*
%MOMM*%
%LPD*%
G01*
G04 APERTURE LIST*
%ADD10R,0.750000X0.800000*%
%ADD11R,1.400000X1.200000*%
%ADD12R,1.700000X2.250000*%
%ADD13R,3.500000X1.600000*%
%ADD14R,1.600000X3.500000*%
%ADD15R,0.800000X0.750000*%
%ADD16R,0.800000X0.900000*%
%ADD17R,0.700000X0.450000*%
%ADD18R,0.900000X1.200000*%
%ADD19R,0.900000X0.500000*%
%ADD20R,0.700000X1.300000*%
%ADD21R,0.800000X0.800000*%
%ADD22R,0.500000X0.900000*%
%ADD23R,1.700000X0.900000*%
%ADD24R,0.550000X1.050000*%
%ADD25R,0.400000X1.060000*%
%ADD26R,0.250000X1.300000*%
%ADD27R,1.300000X0.250000*%
%ADD28C,0.149860*%
%ADD29C,0.875000*%
%ADD30R,0.650000X1.650000*%
G04 APERTURE END LIST*
D10*
G04 #@! TO.C,C8*
X89916000Y-106033000D03*
X89916000Y-104533000D03*
G04 #@! TD*
D11*
G04 #@! TO.C,Y1*
X91737000Y-104483000D03*
X93937000Y-104483000D03*
X93937000Y-106083000D03*
X91737000Y-106083000D03*
G04 #@! TD*
D12*
G04 #@! TO.C,D9*
X60071000Y-70503000D03*
X60071000Y-66403000D03*
G04 #@! TD*
D13*
G04 #@! TO.C,C1*
X98900000Y-114681000D03*
X104300000Y-114681000D03*
G04 #@! TD*
D14*
G04 #@! TO.C,C2*
X93091000Y-117254000D03*
X93091000Y-111854000D03*
G04 #@! TD*
D10*
G04 #@! TO.C,C5*
X92329000Y-65671000D03*
X92329000Y-67171000D03*
G04 #@! TD*
G04 #@! TO.C,C6*
X88265000Y-73926000D03*
X88265000Y-75426000D03*
G04 #@! TD*
G04 #@! TO.C,C7*
X95758000Y-104533000D03*
X95758000Y-106033000D03*
G04 #@! TD*
D15*
G04 #@! TO.C,C9*
X95770000Y-102616000D03*
X97270000Y-102616000D03*
G04 #@! TD*
G04 #@! TO.C,C10*
X85483000Y-99822000D03*
X86983000Y-99822000D03*
G04 #@! TD*
D10*
G04 #@! TO.C,C11*
X90297000Y-87515000D03*
X90297000Y-89015000D03*
G04 #@! TD*
D15*
G04 #@! TO.C,C12*
X86983000Y-98171000D03*
X85483000Y-98171000D03*
G04 #@! TD*
G04 #@! TO.C,C13*
X101334000Y-91821000D03*
X99834000Y-91821000D03*
G04 #@! TD*
G04 #@! TO.C,C14*
X100826000Y-102539800D03*
X99326000Y-102539800D03*
G04 #@! TD*
G04 #@! TO.C,C15*
X99326000Y-103886000D03*
X100826000Y-103886000D03*
G04 #@! TD*
D12*
G04 #@! TO.C,D1*
X126873000Y-104630000D03*
X126873000Y-108730000D03*
G04 #@! TD*
D16*
G04 #@! TO.C,D2*
X120584000Y-103648000D03*
X118684000Y-103648000D03*
X119634000Y-105648000D03*
G04 #@! TD*
D12*
G04 #@! TO.C,D3*
X126873000Y-121303000D03*
X126873000Y-117203000D03*
G04 #@! TD*
D16*
G04 #@! TO.C,D4*
X119507000Y-118221000D03*
X118557000Y-116221000D03*
X120457000Y-116221000D03*
G04 #@! TD*
D12*
G04 #@! TO.C,D5*
X126873000Y-69995000D03*
X126873000Y-65895000D03*
G04 #@! TD*
D16*
G04 #@! TO.C,D6*
X120584000Y-64532000D03*
X118684000Y-64532000D03*
X119634000Y-66532000D03*
G04 #@! TD*
D12*
G04 #@! TO.C,D7*
X126873000Y-96030000D03*
X126873000Y-91930000D03*
G04 #@! TD*
D16*
G04 #@! TO.C,D8*
X119634000Y-92821000D03*
X118684000Y-90821000D03*
X120584000Y-90821000D03*
G04 #@! TD*
G04 #@! TO.C,D10*
X66360000Y-71993000D03*
X68260000Y-71993000D03*
X67310000Y-69993000D03*
G04 #@! TD*
D12*
G04 #@! TO.C,D11*
X60071000Y-91803000D03*
X60071000Y-95903000D03*
G04 #@! TD*
D16*
G04 #@! TO.C,D12*
X67278238Y-95246488D03*
X68228238Y-97246488D03*
X66328238Y-97246488D03*
G04 #@! TD*
D12*
G04 #@! TO.C,D13*
X60071000Y-121430000D03*
X60071000Y-117330000D03*
G04 #@! TD*
D16*
G04 #@! TO.C,D14*
X66422620Y-123250583D03*
X68322620Y-123250583D03*
X67372620Y-121250583D03*
G04 #@! TD*
D12*
G04 #@! TO.C,D15*
X60071000Y-108857000D03*
X60071000Y-104757000D03*
G04 #@! TD*
D16*
G04 #@! TO.C,D16*
X67348866Y-108324810D03*
X68298866Y-110324810D03*
X66398866Y-110324810D03*
G04 #@! TD*
D17*
G04 #@! TO.C,D17*
X97018600Y-58775600D03*
X99018600Y-58125600D03*
X99018600Y-59425600D03*
G04 #@! TD*
D18*
G04 #@! TO.C,D18*
X100966000Y-119634000D03*
X104266000Y-119634000D03*
G04 #@! TD*
D12*
G04 #@! TO.C,D19*
X126873000Y-78976000D03*
X126873000Y-83076000D03*
G04 #@! TD*
G04 #@! TO.C,D20*
X60071000Y-78976000D03*
X60071000Y-83076000D03*
G04 #@! TD*
D16*
G04 #@! TO.C,D21*
X119634000Y-79613000D03*
X118684000Y-77613000D03*
X120584000Y-77613000D03*
G04 #@! TD*
G04 #@! TO.C,D22*
X66337985Y-84360617D03*
X68237985Y-84360617D03*
X67287985Y-82360617D03*
G04 #@! TD*
D19*
G04 #@! TO.C,JP3*
X106426000Y-97040000D03*
X106426000Y-98540000D03*
G04 #@! TD*
D20*
G04 #@! TO.C,L1*
X99126000Y-100838000D03*
X101026000Y-100838000D03*
G04 #@! TD*
D21*
G04 #@! TO.C,LED1*
X126784000Y-112268000D03*
X125184000Y-112268000D03*
G04 #@! TD*
G04 #@! TO.C,LED2*
X125565000Y-124968000D03*
X127165000Y-124968000D03*
G04 #@! TD*
G04 #@! TO.C,LED3*
X124930000Y-73533000D03*
X126530000Y-73533000D03*
G04 #@! TD*
G04 #@! TO.C,LED4*
X125311000Y-99695000D03*
X126911000Y-99695000D03*
G04 #@! TD*
G04 #@! TO.C,LED5*
X62014000Y-62611000D03*
X60414000Y-62611000D03*
G04 #@! TD*
G04 #@! TO.C,LED6*
X61887000Y-88392000D03*
X60287000Y-88392000D03*
G04 #@! TD*
G04 #@! TO.C,LED7*
X60033000Y-113792000D03*
X61633000Y-113792000D03*
G04 #@! TD*
G04 #@! TO.C,LED8*
X60033000Y-101219000D03*
X61633000Y-101219000D03*
G04 #@! TD*
G04 #@! TO.C,LED9*
X76162000Y-45212000D03*
X77762000Y-45212000D03*
G04 #@! TD*
G04 #@! TO.C,LED10*
X126657000Y-86614000D03*
X125057000Y-86614000D03*
G04 #@! TD*
G04 #@! TO.C,LED11*
X60414000Y-75438000D03*
X62014000Y-75438000D03*
G04 #@! TD*
D22*
G04 #@! TO.C,R1*
X122186000Y-112268000D03*
X123686000Y-112268000D03*
G04 #@! TD*
G04 #@! TO.C,R2*
X118884000Y-107188000D03*
X120384000Y-107188000D03*
G04 #@! TD*
G04 #@! TO.C,R3*
X123940000Y-124968000D03*
X122440000Y-124968000D03*
G04 #@! TD*
G04 #@! TO.C,R4*
X120257000Y-119761000D03*
X118757000Y-119761000D03*
G04 #@! TD*
G04 #@! TO.C,R5*
X121805000Y-73533000D03*
X123305000Y-73533000D03*
G04 #@! TD*
G04 #@! TO.C,R6*
X118884000Y-68072000D03*
X120384000Y-68072000D03*
G04 #@! TD*
G04 #@! TO.C,R7*
X123686000Y-99695000D03*
X122186000Y-99695000D03*
G04 #@! TD*
G04 #@! TO.C,R8*
X120384000Y-94361000D03*
X118884000Y-94361000D03*
G04 #@! TD*
G04 #@! TO.C,R9*
X64885000Y-62611000D03*
X63385000Y-62611000D03*
G04 #@! TD*
G04 #@! TO.C,R10*
X68060000Y-68199000D03*
X66560000Y-68199000D03*
G04 #@! TD*
G04 #@! TO.C,R11*
X63258000Y-88392000D03*
X64758000Y-88392000D03*
G04 #@! TD*
G04 #@! TO.C,R12*
X66540238Y-93452488D03*
X68040238Y-93452488D03*
G04 #@! TD*
G04 #@! TO.C,R13*
X64504000Y-113792000D03*
X63004000Y-113792000D03*
G04 #@! TD*
G04 #@! TO.C,R14*
X68122620Y-119456583D03*
X66622620Y-119456583D03*
G04 #@! TD*
G04 #@! TO.C,R15*
X63004000Y-101219000D03*
X64504000Y-101219000D03*
G04 #@! TD*
G04 #@! TO.C,R16*
X66598866Y-106530810D03*
X68098866Y-106530810D03*
G04 #@! TD*
G04 #@! TO.C,R17*
X111875000Y-114046000D03*
X110375000Y-114046000D03*
G04 #@! TD*
G04 #@! TO.C,R18*
X111875000Y-126492000D03*
X110375000Y-126492000D03*
G04 #@! TD*
G04 #@! TO.C,R19*
X112764000Y-74803000D03*
X111264000Y-74803000D03*
G04 #@! TD*
G04 #@! TO.C,R20*
X110375000Y-101219000D03*
X111875000Y-101219000D03*
G04 #@! TD*
G04 #@! TO.C,R21*
X75450000Y-62865000D03*
X76950000Y-62865000D03*
G04 #@! TD*
G04 #@! TO.C,R22*
X76950000Y-88265000D03*
X75450000Y-88265000D03*
G04 #@! TD*
G04 #@! TO.C,R23*
X76950000Y-113030000D03*
X75450000Y-113030000D03*
G04 #@! TD*
G04 #@! TO.C,R24*
X75450000Y-100711000D03*
X76950000Y-100711000D03*
G04 #@! TD*
D23*
G04 #@! TO.C,R25*
X91059000Y-68654000D03*
X91059000Y-71554000D03*
G04 #@! TD*
G04 #@! TO.C,R26*
X93599000Y-68654000D03*
X93599000Y-71554000D03*
G04 #@! TD*
D22*
G04 #@! TO.C,R27*
X72910000Y-45212000D03*
X74410000Y-45212000D03*
G04 #@! TD*
G04 #@! TO.C,R28*
X122059000Y-86614000D03*
X123559000Y-86614000D03*
G04 #@! TD*
G04 #@! TO.C,R29*
X65012000Y-75438000D03*
X63512000Y-75438000D03*
G04 #@! TD*
G04 #@! TO.C,R30*
X118872000Y-81153000D03*
X120372000Y-81153000D03*
G04 #@! TD*
G04 #@! TO.C,R31*
X68037985Y-80439617D03*
X66537985Y-80439617D03*
G04 #@! TD*
G04 #@! TO.C,R32*
X111391000Y-88138000D03*
X112891000Y-88138000D03*
G04 #@! TD*
G04 #@! TO.C,R33*
X75450000Y-75311000D03*
X76950000Y-75311000D03*
G04 #@! TD*
D24*
G04 #@! TO.C,T1*
X124267000Y-105821000D03*
X123317000Y-105821000D03*
X122367000Y-105821000D03*
X122367000Y-103221000D03*
X123317000Y-103221000D03*
X124267000Y-103221000D03*
G04 #@! TD*
G04 #@! TO.C,T2*
X124140000Y-115637000D03*
X123190000Y-115637000D03*
X122240000Y-115637000D03*
X122240000Y-118237000D03*
X123190000Y-118237000D03*
X124140000Y-118237000D03*
G04 #@! TD*
G04 #@! TO.C,T3*
X124267000Y-64232000D03*
X123317000Y-64232000D03*
X122367000Y-64232000D03*
X122367000Y-66832000D03*
X123317000Y-66832000D03*
X124267000Y-66832000D03*
G04 #@! TD*
G04 #@! TO.C,T4*
X124267000Y-92994000D03*
X123317000Y-92994000D03*
X122367000Y-92994000D03*
X122367000Y-90394000D03*
X123317000Y-90394000D03*
X124267000Y-90394000D03*
G04 #@! TD*
G04 #@! TO.C,T5*
X62677000Y-69312000D03*
X63627000Y-69312000D03*
X64577000Y-69312000D03*
X64577000Y-71912000D03*
X63627000Y-71912000D03*
X62677000Y-71912000D03*
G04 #@! TD*
G04 #@! TO.C,T6*
X62677000Y-97312000D03*
X63627000Y-97312000D03*
X64577000Y-97312000D03*
X64577000Y-94712000D03*
X63627000Y-94712000D03*
X62677000Y-94712000D03*
G04 #@! TD*
G04 #@! TO.C,T7*
X62677000Y-123220000D03*
X63627000Y-123220000D03*
X64577000Y-123220000D03*
X64577000Y-120620000D03*
X63627000Y-120620000D03*
X62677000Y-120620000D03*
G04 #@! TD*
G04 #@! TO.C,T8*
X62677000Y-107793000D03*
X63627000Y-107793000D03*
X64577000Y-107793000D03*
X64577000Y-110393000D03*
X63627000Y-110393000D03*
X62677000Y-110393000D03*
G04 #@! TD*
G04 #@! TO.C,T9*
X124267000Y-77313000D03*
X123317000Y-77313000D03*
X122367000Y-77313000D03*
X122367000Y-79913000D03*
X123317000Y-79913000D03*
X124267000Y-79913000D03*
G04 #@! TD*
G04 #@! TO.C,T10*
X62677000Y-81758000D03*
X63627000Y-81758000D03*
X64577000Y-81758000D03*
X64577000Y-84358000D03*
X63627000Y-84358000D03*
X62677000Y-84358000D03*
G04 #@! TD*
D25*
G04 #@! TO.C,U9*
X91349000Y-73322000D03*
X91999000Y-73322000D03*
X92659000Y-73322000D03*
X93309000Y-73322000D03*
X93309000Y-75522000D03*
X92659000Y-75522000D03*
X91999000Y-75522000D03*
X91349000Y-75522000D03*
G04 #@! TD*
D26*
G04 #@! TO.C,U10*
X90595000Y-99473000D03*
X91095000Y-99473000D03*
X91595000Y-99473000D03*
X92095000Y-99473000D03*
X92595000Y-99473000D03*
X93095000Y-99473000D03*
X93595000Y-99473000D03*
X94095000Y-99473000D03*
X94595000Y-99473000D03*
X95095000Y-99473000D03*
X95595000Y-99473000D03*
X96095000Y-99473000D03*
D27*
X97695000Y-97873000D03*
X97695000Y-97373000D03*
X97695000Y-96873000D03*
X97695000Y-96373000D03*
X97695000Y-95873000D03*
X97695000Y-95373000D03*
X97695000Y-94873000D03*
X97695000Y-94373000D03*
X97695000Y-93873000D03*
X97695000Y-93373000D03*
X97695000Y-92873000D03*
X97695000Y-92373000D03*
D26*
X96095000Y-90773000D03*
X95595000Y-90773000D03*
X95095000Y-90773000D03*
X94595000Y-90773000D03*
X94095000Y-90773000D03*
X93595000Y-90773000D03*
X93095000Y-90773000D03*
X92595000Y-90773000D03*
X92095000Y-90773000D03*
X91595000Y-90773000D03*
X91095000Y-90773000D03*
X90595000Y-90773000D03*
D27*
X88995000Y-92373000D03*
X88995000Y-92873000D03*
X88995000Y-93373000D03*
X88995000Y-93873000D03*
X88995000Y-94373000D03*
X88995000Y-94873000D03*
X88995000Y-95373000D03*
X88995000Y-95873000D03*
X88995000Y-96373000D03*
X88995000Y-96873000D03*
X88995000Y-97373000D03*
X88995000Y-97873000D03*
G04 #@! TD*
D28*
G04 #@! TO.C,JP5*
G36*
X129563691Y-53564053D02*
X129584926Y-53567203D01*
X129605750Y-53572419D01*
X129625962Y-53579651D01*
X129645368Y-53588830D01*
X129663781Y-53599866D01*
X129681024Y-53612654D01*
X129696930Y-53627070D01*
X129711346Y-53642976D01*
X129724134Y-53660219D01*
X129735170Y-53678632D01*
X129744349Y-53698038D01*
X129751581Y-53718250D01*
X129756797Y-53739074D01*
X129759947Y-53760309D01*
X129761000Y-53781750D01*
X129761000Y-54219250D01*
X129759947Y-54240691D01*
X129756797Y-54261926D01*
X129751581Y-54282750D01*
X129744349Y-54302962D01*
X129735170Y-54322368D01*
X129724134Y-54340781D01*
X129711346Y-54358024D01*
X129696930Y-54373930D01*
X129681024Y-54388346D01*
X129663781Y-54401134D01*
X129645368Y-54412170D01*
X129625962Y-54421349D01*
X129605750Y-54428581D01*
X129584926Y-54433797D01*
X129563691Y-54436947D01*
X129542250Y-54438000D01*
X129029750Y-54438000D01*
X129008309Y-54436947D01*
X128987074Y-54433797D01*
X128966250Y-54428581D01*
X128946038Y-54421349D01*
X128926632Y-54412170D01*
X128908219Y-54401134D01*
X128890976Y-54388346D01*
X128875070Y-54373930D01*
X128860654Y-54358024D01*
X128847866Y-54340781D01*
X128836830Y-54322368D01*
X128827651Y-54302962D01*
X128820419Y-54282750D01*
X128815203Y-54261926D01*
X128812053Y-54240691D01*
X128811000Y-54219250D01*
X128811000Y-53781750D01*
X128812053Y-53760309D01*
X128815203Y-53739074D01*
X128820419Y-53718250D01*
X128827651Y-53698038D01*
X128836830Y-53678632D01*
X128847866Y-53660219D01*
X128860654Y-53642976D01*
X128875070Y-53627070D01*
X128890976Y-53612654D01*
X128908219Y-53599866D01*
X128926632Y-53588830D01*
X128946038Y-53579651D01*
X128966250Y-53572419D01*
X128987074Y-53567203D01*
X129008309Y-53564053D01*
X129029750Y-53563000D01*
X129542250Y-53563000D01*
X129563691Y-53564053D01*
X129563691Y-53564053D01*
G37*
D29*
X129286000Y-54000500D03*
D28*
G36*
X129563691Y-51989053D02*
X129584926Y-51992203D01*
X129605750Y-51997419D01*
X129625962Y-52004651D01*
X129645368Y-52013830D01*
X129663781Y-52024866D01*
X129681024Y-52037654D01*
X129696930Y-52052070D01*
X129711346Y-52067976D01*
X129724134Y-52085219D01*
X129735170Y-52103632D01*
X129744349Y-52123038D01*
X129751581Y-52143250D01*
X129756797Y-52164074D01*
X129759947Y-52185309D01*
X129761000Y-52206750D01*
X129761000Y-52644250D01*
X129759947Y-52665691D01*
X129756797Y-52686926D01*
X129751581Y-52707750D01*
X129744349Y-52727962D01*
X129735170Y-52747368D01*
X129724134Y-52765781D01*
X129711346Y-52783024D01*
X129696930Y-52798930D01*
X129681024Y-52813346D01*
X129663781Y-52826134D01*
X129645368Y-52837170D01*
X129625962Y-52846349D01*
X129605750Y-52853581D01*
X129584926Y-52858797D01*
X129563691Y-52861947D01*
X129542250Y-52863000D01*
X129029750Y-52863000D01*
X129008309Y-52861947D01*
X128987074Y-52858797D01*
X128966250Y-52853581D01*
X128946038Y-52846349D01*
X128926632Y-52837170D01*
X128908219Y-52826134D01*
X128890976Y-52813346D01*
X128875070Y-52798930D01*
X128860654Y-52783024D01*
X128847866Y-52765781D01*
X128836830Y-52747368D01*
X128827651Y-52727962D01*
X128820419Y-52707750D01*
X128815203Y-52686926D01*
X128812053Y-52665691D01*
X128811000Y-52644250D01*
X128811000Y-52206750D01*
X128812053Y-52185309D01*
X128815203Y-52164074D01*
X128820419Y-52143250D01*
X128827651Y-52123038D01*
X128836830Y-52103632D01*
X128847866Y-52085219D01*
X128860654Y-52067976D01*
X128875070Y-52052070D01*
X128890976Y-52037654D01*
X128908219Y-52024866D01*
X128926632Y-52013830D01*
X128946038Y-52004651D01*
X128966250Y-51997419D01*
X128987074Y-51992203D01*
X129008309Y-51989053D01*
X129029750Y-51988000D01*
X129542250Y-51988000D01*
X129563691Y-51989053D01*
X129563691Y-51989053D01*
G37*
D29*
X129286000Y-52425500D03*
G04 #@! TD*
D28*
G04 #@! TO.C,JP9*
G36*
X82573691Y-61514053D02*
X82594926Y-61517203D01*
X82615750Y-61522419D01*
X82635962Y-61529651D01*
X82655368Y-61538830D01*
X82673781Y-61549866D01*
X82691024Y-61562654D01*
X82706930Y-61577070D01*
X82721346Y-61592976D01*
X82734134Y-61610219D01*
X82745170Y-61628632D01*
X82754349Y-61648038D01*
X82761581Y-61668250D01*
X82766797Y-61689074D01*
X82769947Y-61710309D01*
X82771000Y-61731750D01*
X82771000Y-62169250D01*
X82769947Y-62190691D01*
X82766797Y-62211926D01*
X82761581Y-62232750D01*
X82754349Y-62252962D01*
X82745170Y-62272368D01*
X82734134Y-62290781D01*
X82721346Y-62308024D01*
X82706930Y-62323930D01*
X82691024Y-62338346D01*
X82673781Y-62351134D01*
X82655368Y-62362170D01*
X82635962Y-62371349D01*
X82615750Y-62378581D01*
X82594926Y-62383797D01*
X82573691Y-62386947D01*
X82552250Y-62388000D01*
X82039750Y-62388000D01*
X82018309Y-62386947D01*
X81997074Y-62383797D01*
X81976250Y-62378581D01*
X81956038Y-62371349D01*
X81936632Y-62362170D01*
X81918219Y-62351134D01*
X81900976Y-62338346D01*
X81885070Y-62323930D01*
X81870654Y-62308024D01*
X81857866Y-62290781D01*
X81846830Y-62272368D01*
X81837651Y-62252962D01*
X81830419Y-62232750D01*
X81825203Y-62211926D01*
X81822053Y-62190691D01*
X81821000Y-62169250D01*
X81821000Y-61731750D01*
X81822053Y-61710309D01*
X81825203Y-61689074D01*
X81830419Y-61668250D01*
X81837651Y-61648038D01*
X81846830Y-61628632D01*
X81857866Y-61610219D01*
X81870654Y-61592976D01*
X81885070Y-61577070D01*
X81900976Y-61562654D01*
X81918219Y-61549866D01*
X81936632Y-61538830D01*
X81956038Y-61529651D01*
X81976250Y-61522419D01*
X81997074Y-61517203D01*
X82018309Y-61514053D01*
X82039750Y-61513000D01*
X82552250Y-61513000D01*
X82573691Y-61514053D01*
X82573691Y-61514053D01*
G37*
D29*
X82296000Y-61950500D03*
D28*
G36*
X82573691Y-63089053D02*
X82594926Y-63092203D01*
X82615750Y-63097419D01*
X82635962Y-63104651D01*
X82655368Y-63113830D01*
X82673781Y-63124866D01*
X82691024Y-63137654D01*
X82706930Y-63152070D01*
X82721346Y-63167976D01*
X82734134Y-63185219D01*
X82745170Y-63203632D01*
X82754349Y-63223038D01*
X82761581Y-63243250D01*
X82766797Y-63264074D01*
X82769947Y-63285309D01*
X82771000Y-63306750D01*
X82771000Y-63744250D01*
X82769947Y-63765691D01*
X82766797Y-63786926D01*
X82761581Y-63807750D01*
X82754349Y-63827962D01*
X82745170Y-63847368D01*
X82734134Y-63865781D01*
X82721346Y-63883024D01*
X82706930Y-63898930D01*
X82691024Y-63913346D01*
X82673781Y-63926134D01*
X82655368Y-63937170D01*
X82635962Y-63946349D01*
X82615750Y-63953581D01*
X82594926Y-63958797D01*
X82573691Y-63961947D01*
X82552250Y-63963000D01*
X82039750Y-63963000D01*
X82018309Y-63961947D01*
X81997074Y-63958797D01*
X81976250Y-63953581D01*
X81956038Y-63946349D01*
X81936632Y-63937170D01*
X81918219Y-63926134D01*
X81900976Y-63913346D01*
X81885070Y-63898930D01*
X81870654Y-63883024D01*
X81857866Y-63865781D01*
X81846830Y-63847368D01*
X81837651Y-63827962D01*
X81830419Y-63807750D01*
X81825203Y-63786926D01*
X81822053Y-63765691D01*
X81821000Y-63744250D01*
X81821000Y-63306750D01*
X81822053Y-63285309D01*
X81825203Y-63264074D01*
X81830419Y-63243250D01*
X81837651Y-63223038D01*
X81846830Y-63203632D01*
X81857866Y-63185219D01*
X81870654Y-63167976D01*
X81885070Y-63152070D01*
X81900976Y-63137654D01*
X81918219Y-63124866D01*
X81936632Y-63113830D01*
X81956038Y-63104651D01*
X81976250Y-63097419D01*
X81997074Y-63092203D01*
X82018309Y-63089053D01*
X82039750Y-63088000D01*
X82552250Y-63088000D01*
X82573691Y-63089053D01*
X82573691Y-63089053D01*
G37*
D29*
X82296000Y-63525500D03*
G04 #@! TD*
D28*
G04 #@! TO.C,JP10*
G36*
X80033691Y-67534053D02*
X80054926Y-67537203D01*
X80075750Y-67542419D01*
X80095962Y-67549651D01*
X80115368Y-67558830D01*
X80133781Y-67569866D01*
X80151024Y-67582654D01*
X80166930Y-67597070D01*
X80181346Y-67612976D01*
X80194134Y-67630219D01*
X80205170Y-67648632D01*
X80214349Y-67668038D01*
X80221581Y-67688250D01*
X80226797Y-67709074D01*
X80229947Y-67730309D01*
X80231000Y-67751750D01*
X80231000Y-68189250D01*
X80229947Y-68210691D01*
X80226797Y-68231926D01*
X80221581Y-68252750D01*
X80214349Y-68272962D01*
X80205170Y-68292368D01*
X80194134Y-68310781D01*
X80181346Y-68328024D01*
X80166930Y-68343930D01*
X80151024Y-68358346D01*
X80133781Y-68371134D01*
X80115368Y-68382170D01*
X80095962Y-68391349D01*
X80075750Y-68398581D01*
X80054926Y-68403797D01*
X80033691Y-68406947D01*
X80012250Y-68408000D01*
X79499750Y-68408000D01*
X79478309Y-68406947D01*
X79457074Y-68403797D01*
X79436250Y-68398581D01*
X79416038Y-68391349D01*
X79396632Y-68382170D01*
X79378219Y-68371134D01*
X79360976Y-68358346D01*
X79345070Y-68343930D01*
X79330654Y-68328024D01*
X79317866Y-68310781D01*
X79306830Y-68292368D01*
X79297651Y-68272962D01*
X79290419Y-68252750D01*
X79285203Y-68231926D01*
X79282053Y-68210691D01*
X79281000Y-68189250D01*
X79281000Y-67751750D01*
X79282053Y-67730309D01*
X79285203Y-67709074D01*
X79290419Y-67688250D01*
X79297651Y-67668038D01*
X79306830Y-67648632D01*
X79317866Y-67630219D01*
X79330654Y-67612976D01*
X79345070Y-67597070D01*
X79360976Y-67582654D01*
X79378219Y-67569866D01*
X79396632Y-67558830D01*
X79416038Y-67549651D01*
X79436250Y-67542419D01*
X79457074Y-67537203D01*
X79478309Y-67534053D01*
X79499750Y-67533000D01*
X80012250Y-67533000D01*
X80033691Y-67534053D01*
X80033691Y-67534053D01*
G37*
D29*
X79756000Y-67970500D03*
D28*
G36*
X80033691Y-65959053D02*
X80054926Y-65962203D01*
X80075750Y-65967419D01*
X80095962Y-65974651D01*
X80115368Y-65983830D01*
X80133781Y-65994866D01*
X80151024Y-66007654D01*
X80166930Y-66022070D01*
X80181346Y-66037976D01*
X80194134Y-66055219D01*
X80205170Y-66073632D01*
X80214349Y-66093038D01*
X80221581Y-66113250D01*
X80226797Y-66134074D01*
X80229947Y-66155309D01*
X80231000Y-66176750D01*
X80231000Y-66614250D01*
X80229947Y-66635691D01*
X80226797Y-66656926D01*
X80221581Y-66677750D01*
X80214349Y-66697962D01*
X80205170Y-66717368D01*
X80194134Y-66735781D01*
X80181346Y-66753024D01*
X80166930Y-66768930D01*
X80151024Y-66783346D01*
X80133781Y-66796134D01*
X80115368Y-66807170D01*
X80095962Y-66816349D01*
X80075750Y-66823581D01*
X80054926Y-66828797D01*
X80033691Y-66831947D01*
X80012250Y-66833000D01*
X79499750Y-66833000D01*
X79478309Y-66831947D01*
X79457074Y-66828797D01*
X79436250Y-66823581D01*
X79416038Y-66816349D01*
X79396632Y-66807170D01*
X79378219Y-66796134D01*
X79360976Y-66783346D01*
X79345070Y-66768930D01*
X79330654Y-66753024D01*
X79317866Y-66735781D01*
X79306830Y-66717368D01*
X79297651Y-66697962D01*
X79290419Y-66677750D01*
X79285203Y-66656926D01*
X79282053Y-66635691D01*
X79281000Y-66614250D01*
X79281000Y-66176750D01*
X79282053Y-66155309D01*
X79285203Y-66134074D01*
X79290419Y-66113250D01*
X79297651Y-66093038D01*
X79306830Y-66073632D01*
X79317866Y-66055219D01*
X79330654Y-66037976D01*
X79345070Y-66022070D01*
X79360976Y-66007654D01*
X79378219Y-65994866D01*
X79396632Y-65983830D01*
X79416038Y-65974651D01*
X79436250Y-65967419D01*
X79457074Y-65962203D01*
X79478309Y-65959053D01*
X79499750Y-65958000D01*
X80012250Y-65958000D01*
X80033691Y-65959053D01*
X80033691Y-65959053D01*
G37*
D29*
X79756000Y-66395500D03*
G04 #@! TD*
D28*
G04 #@! TO.C,JP11*
G36*
X84478691Y-61641053D02*
X84499926Y-61644203D01*
X84520750Y-61649419D01*
X84540962Y-61656651D01*
X84560368Y-61665830D01*
X84578781Y-61676866D01*
X84596024Y-61689654D01*
X84611930Y-61704070D01*
X84626346Y-61719976D01*
X84639134Y-61737219D01*
X84650170Y-61755632D01*
X84659349Y-61775038D01*
X84666581Y-61795250D01*
X84671797Y-61816074D01*
X84674947Y-61837309D01*
X84676000Y-61858750D01*
X84676000Y-62296250D01*
X84674947Y-62317691D01*
X84671797Y-62338926D01*
X84666581Y-62359750D01*
X84659349Y-62379962D01*
X84650170Y-62399368D01*
X84639134Y-62417781D01*
X84626346Y-62435024D01*
X84611930Y-62450930D01*
X84596024Y-62465346D01*
X84578781Y-62478134D01*
X84560368Y-62489170D01*
X84540962Y-62498349D01*
X84520750Y-62505581D01*
X84499926Y-62510797D01*
X84478691Y-62513947D01*
X84457250Y-62515000D01*
X83944750Y-62515000D01*
X83923309Y-62513947D01*
X83902074Y-62510797D01*
X83881250Y-62505581D01*
X83861038Y-62498349D01*
X83841632Y-62489170D01*
X83823219Y-62478134D01*
X83805976Y-62465346D01*
X83790070Y-62450930D01*
X83775654Y-62435024D01*
X83762866Y-62417781D01*
X83751830Y-62399368D01*
X83742651Y-62379962D01*
X83735419Y-62359750D01*
X83730203Y-62338926D01*
X83727053Y-62317691D01*
X83726000Y-62296250D01*
X83726000Y-61858750D01*
X83727053Y-61837309D01*
X83730203Y-61816074D01*
X83735419Y-61795250D01*
X83742651Y-61775038D01*
X83751830Y-61755632D01*
X83762866Y-61737219D01*
X83775654Y-61719976D01*
X83790070Y-61704070D01*
X83805976Y-61689654D01*
X83823219Y-61676866D01*
X83841632Y-61665830D01*
X83861038Y-61656651D01*
X83881250Y-61649419D01*
X83902074Y-61644203D01*
X83923309Y-61641053D01*
X83944750Y-61640000D01*
X84457250Y-61640000D01*
X84478691Y-61641053D01*
X84478691Y-61641053D01*
G37*
D29*
X84201000Y-62077500D03*
D28*
G36*
X84478691Y-63216053D02*
X84499926Y-63219203D01*
X84520750Y-63224419D01*
X84540962Y-63231651D01*
X84560368Y-63240830D01*
X84578781Y-63251866D01*
X84596024Y-63264654D01*
X84611930Y-63279070D01*
X84626346Y-63294976D01*
X84639134Y-63312219D01*
X84650170Y-63330632D01*
X84659349Y-63350038D01*
X84666581Y-63370250D01*
X84671797Y-63391074D01*
X84674947Y-63412309D01*
X84676000Y-63433750D01*
X84676000Y-63871250D01*
X84674947Y-63892691D01*
X84671797Y-63913926D01*
X84666581Y-63934750D01*
X84659349Y-63954962D01*
X84650170Y-63974368D01*
X84639134Y-63992781D01*
X84626346Y-64010024D01*
X84611930Y-64025930D01*
X84596024Y-64040346D01*
X84578781Y-64053134D01*
X84560368Y-64064170D01*
X84540962Y-64073349D01*
X84520750Y-64080581D01*
X84499926Y-64085797D01*
X84478691Y-64088947D01*
X84457250Y-64090000D01*
X83944750Y-64090000D01*
X83923309Y-64088947D01*
X83902074Y-64085797D01*
X83881250Y-64080581D01*
X83861038Y-64073349D01*
X83841632Y-64064170D01*
X83823219Y-64053134D01*
X83805976Y-64040346D01*
X83790070Y-64025930D01*
X83775654Y-64010024D01*
X83762866Y-63992781D01*
X83751830Y-63974368D01*
X83742651Y-63954962D01*
X83735419Y-63934750D01*
X83730203Y-63913926D01*
X83727053Y-63892691D01*
X83726000Y-63871250D01*
X83726000Y-63433750D01*
X83727053Y-63412309D01*
X83730203Y-63391074D01*
X83735419Y-63370250D01*
X83742651Y-63350038D01*
X83751830Y-63330632D01*
X83762866Y-63312219D01*
X83775654Y-63294976D01*
X83790070Y-63279070D01*
X83805976Y-63264654D01*
X83823219Y-63251866D01*
X83841632Y-63240830D01*
X83861038Y-63231651D01*
X83881250Y-63224419D01*
X83902074Y-63219203D01*
X83923309Y-63216053D01*
X83944750Y-63215000D01*
X84457250Y-63215000D01*
X84478691Y-63216053D01*
X84478691Y-63216053D01*
G37*
D29*
X84201000Y-63652500D03*
G04 #@! TD*
D28*
G04 #@! TO.C,JP12*
G36*
X86383691Y-63216053D02*
X86404926Y-63219203D01*
X86425750Y-63224419D01*
X86445962Y-63231651D01*
X86465368Y-63240830D01*
X86483781Y-63251866D01*
X86501024Y-63264654D01*
X86516930Y-63279070D01*
X86531346Y-63294976D01*
X86544134Y-63312219D01*
X86555170Y-63330632D01*
X86564349Y-63350038D01*
X86571581Y-63370250D01*
X86576797Y-63391074D01*
X86579947Y-63412309D01*
X86581000Y-63433750D01*
X86581000Y-63871250D01*
X86579947Y-63892691D01*
X86576797Y-63913926D01*
X86571581Y-63934750D01*
X86564349Y-63954962D01*
X86555170Y-63974368D01*
X86544134Y-63992781D01*
X86531346Y-64010024D01*
X86516930Y-64025930D01*
X86501024Y-64040346D01*
X86483781Y-64053134D01*
X86465368Y-64064170D01*
X86445962Y-64073349D01*
X86425750Y-64080581D01*
X86404926Y-64085797D01*
X86383691Y-64088947D01*
X86362250Y-64090000D01*
X85849750Y-64090000D01*
X85828309Y-64088947D01*
X85807074Y-64085797D01*
X85786250Y-64080581D01*
X85766038Y-64073349D01*
X85746632Y-64064170D01*
X85728219Y-64053134D01*
X85710976Y-64040346D01*
X85695070Y-64025930D01*
X85680654Y-64010024D01*
X85667866Y-63992781D01*
X85656830Y-63974368D01*
X85647651Y-63954962D01*
X85640419Y-63934750D01*
X85635203Y-63913926D01*
X85632053Y-63892691D01*
X85631000Y-63871250D01*
X85631000Y-63433750D01*
X85632053Y-63412309D01*
X85635203Y-63391074D01*
X85640419Y-63370250D01*
X85647651Y-63350038D01*
X85656830Y-63330632D01*
X85667866Y-63312219D01*
X85680654Y-63294976D01*
X85695070Y-63279070D01*
X85710976Y-63264654D01*
X85728219Y-63251866D01*
X85746632Y-63240830D01*
X85766038Y-63231651D01*
X85786250Y-63224419D01*
X85807074Y-63219203D01*
X85828309Y-63216053D01*
X85849750Y-63215000D01*
X86362250Y-63215000D01*
X86383691Y-63216053D01*
X86383691Y-63216053D01*
G37*
D29*
X86106000Y-63652500D03*
D28*
G36*
X86383691Y-61641053D02*
X86404926Y-61644203D01*
X86425750Y-61649419D01*
X86445962Y-61656651D01*
X86465368Y-61665830D01*
X86483781Y-61676866D01*
X86501024Y-61689654D01*
X86516930Y-61704070D01*
X86531346Y-61719976D01*
X86544134Y-61737219D01*
X86555170Y-61755632D01*
X86564349Y-61775038D01*
X86571581Y-61795250D01*
X86576797Y-61816074D01*
X86579947Y-61837309D01*
X86581000Y-61858750D01*
X86581000Y-62296250D01*
X86579947Y-62317691D01*
X86576797Y-62338926D01*
X86571581Y-62359750D01*
X86564349Y-62379962D01*
X86555170Y-62399368D01*
X86544134Y-62417781D01*
X86531346Y-62435024D01*
X86516930Y-62450930D01*
X86501024Y-62465346D01*
X86483781Y-62478134D01*
X86465368Y-62489170D01*
X86445962Y-62498349D01*
X86425750Y-62505581D01*
X86404926Y-62510797D01*
X86383691Y-62513947D01*
X86362250Y-62515000D01*
X85849750Y-62515000D01*
X85828309Y-62513947D01*
X85807074Y-62510797D01*
X85786250Y-62505581D01*
X85766038Y-62498349D01*
X85746632Y-62489170D01*
X85728219Y-62478134D01*
X85710976Y-62465346D01*
X85695070Y-62450930D01*
X85680654Y-62435024D01*
X85667866Y-62417781D01*
X85656830Y-62399368D01*
X85647651Y-62379962D01*
X85640419Y-62359750D01*
X85635203Y-62338926D01*
X85632053Y-62317691D01*
X85631000Y-62296250D01*
X85631000Y-61858750D01*
X85632053Y-61837309D01*
X85635203Y-61816074D01*
X85640419Y-61795250D01*
X85647651Y-61775038D01*
X85656830Y-61755632D01*
X85667866Y-61737219D01*
X85680654Y-61719976D01*
X85695070Y-61704070D01*
X85710976Y-61689654D01*
X85728219Y-61676866D01*
X85746632Y-61665830D01*
X85766038Y-61656651D01*
X85786250Y-61649419D01*
X85807074Y-61644203D01*
X85828309Y-61641053D01*
X85849750Y-61640000D01*
X86362250Y-61640000D01*
X86383691Y-61641053D01*
X86383691Y-61641053D01*
G37*
D29*
X86106000Y-62077500D03*
G04 #@! TD*
D28*
G04 #@! TO.C,JP21*
G36*
X103274691Y-57450053D02*
X103295926Y-57453203D01*
X103316750Y-57458419D01*
X103336962Y-57465651D01*
X103356368Y-57474830D01*
X103374781Y-57485866D01*
X103392024Y-57498654D01*
X103407930Y-57513070D01*
X103422346Y-57528976D01*
X103435134Y-57546219D01*
X103446170Y-57564632D01*
X103455349Y-57584038D01*
X103462581Y-57604250D01*
X103467797Y-57625074D01*
X103470947Y-57646309D01*
X103472000Y-57667750D01*
X103472000Y-58105250D01*
X103470947Y-58126691D01*
X103467797Y-58147926D01*
X103462581Y-58168750D01*
X103455349Y-58188962D01*
X103446170Y-58208368D01*
X103435134Y-58226781D01*
X103422346Y-58244024D01*
X103407930Y-58259930D01*
X103392024Y-58274346D01*
X103374781Y-58287134D01*
X103356368Y-58298170D01*
X103336962Y-58307349D01*
X103316750Y-58314581D01*
X103295926Y-58319797D01*
X103274691Y-58322947D01*
X103253250Y-58324000D01*
X102740750Y-58324000D01*
X102719309Y-58322947D01*
X102698074Y-58319797D01*
X102677250Y-58314581D01*
X102657038Y-58307349D01*
X102637632Y-58298170D01*
X102619219Y-58287134D01*
X102601976Y-58274346D01*
X102586070Y-58259930D01*
X102571654Y-58244024D01*
X102558866Y-58226781D01*
X102547830Y-58208368D01*
X102538651Y-58188962D01*
X102531419Y-58168750D01*
X102526203Y-58147926D01*
X102523053Y-58126691D01*
X102522000Y-58105250D01*
X102522000Y-57667750D01*
X102523053Y-57646309D01*
X102526203Y-57625074D01*
X102531419Y-57604250D01*
X102538651Y-57584038D01*
X102547830Y-57564632D01*
X102558866Y-57546219D01*
X102571654Y-57528976D01*
X102586070Y-57513070D01*
X102601976Y-57498654D01*
X102619219Y-57485866D01*
X102637632Y-57474830D01*
X102657038Y-57465651D01*
X102677250Y-57458419D01*
X102698074Y-57453203D01*
X102719309Y-57450053D01*
X102740750Y-57449000D01*
X103253250Y-57449000D01*
X103274691Y-57450053D01*
X103274691Y-57450053D01*
G37*
D29*
X102997000Y-57886500D03*
D28*
G36*
X103274691Y-59025053D02*
X103295926Y-59028203D01*
X103316750Y-59033419D01*
X103336962Y-59040651D01*
X103356368Y-59049830D01*
X103374781Y-59060866D01*
X103392024Y-59073654D01*
X103407930Y-59088070D01*
X103422346Y-59103976D01*
X103435134Y-59121219D01*
X103446170Y-59139632D01*
X103455349Y-59159038D01*
X103462581Y-59179250D01*
X103467797Y-59200074D01*
X103470947Y-59221309D01*
X103472000Y-59242750D01*
X103472000Y-59680250D01*
X103470947Y-59701691D01*
X103467797Y-59722926D01*
X103462581Y-59743750D01*
X103455349Y-59763962D01*
X103446170Y-59783368D01*
X103435134Y-59801781D01*
X103422346Y-59819024D01*
X103407930Y-59834930D01*
X103392024Y-59849346D01*
X103374781Y-59862134D01*
X103356368Y-59873170D01*
X103336962Y-59882349D01*
X103316750Y-59889581D01*
X103295926Y-59894797D01*
X103274691Y-59897947D01*
X103253250Y-59899000D01*
X102740750Y-59899000D01*
X102719309Y-59897947D01*
X102698074Y-59894797D01*
X102677250Y-59889581D01*
X102657038Y-59882349D01*
X102637632Y-59873170D01*
X102619219Y-59862134D01*
X102601976Y-59849346D01*
X102586070Y-59834930D01*
X102571654Y-59819024D01*
X102558866Y-59801781D01*
X102547830Y-59783368D01*
X102538651Y-59763962D01*
X102531419Y-59743750D01*
X102526203Y-59722926D01*
X102523053Y-59701691D01*
X102522000Y-59680250D01*
X102522000Y-59242750D01*
X102523053Y-59221309D01*
X102526203Y-59200074D01*
X102531419Y-59179250D01*
X102538651Y-59159038D01*
X102547830Y-59139632D01*
X102558866Y-59121219D01*
X102571654Y-59103976D01*
X102586070Y-59088070D01*
X102601976Y-59073654D01*
X102619219Y-59060866D01*
X102637632Y-59049830D01*
X102657038Y-59040651D01*
X102677250Y-59033419D01*
X102698074Y-59028203D01*
X102719309Y-59025053D01*
X102740750Y-59024000D01*
X103253250Y-59024000D01*
X103274691Y-59025053D01*
X103274691Y-59025053D01*
G37*
D29*
X102997000Y-59461500D03*
G04 #@! TD*
D28*
G04 #@! TO.C,JP22*
G36*
X105814691Y-59025053D02*
X105835926Y-59028203D01*
X105856750Y-59033419D01*
X105876962Y-59040651D01*
X105896368Y-59049830D01*
X105914781Y-59060866D01*
X105932024Y-59073654D01*
X105947930Y-59088070D01*
X105962346Y-59103976D01*
X105975134Y-59121219D01*
X105986170Y-59139632D01*
X105995349Y-59159038D01*
X106002581Y-59179250D01*
X106007797Y-59200074D01*
X106010947Y-59221309D01*
X106012000Y-59242750D01*
X106012000Y-59680250D01*
X106010947Y-59701691D01*
X106007797Y-59722926D01*
X106002581Y-59743750D01*
X105995349Y-59763962D01*
X105986170Y-59783368D01*
X105975134Y-59801781D01*
X105962346Y-59819024D01*
X105947930Y-59834930D01*
X105932024Y-59849346D01*
X105914781Y-59862134D01*
X105896368Y-59873170D01*
X105876962Y-59882349D01*
X105856750Y-59889581D01*
X105835926Y-59894797D01*
X105814691Y-59897947D01*
X105793250Y-59899000D01*
X105280750Y-59899000D01*
X105259309Y-59897947D01*
X105238074Y-59894797D01*
X105217250Y-59889581D01*
X105197038Y-59882349D01*
X105177632Y-59873170D01*
X105159219Y-59862134D01*
X105141976Y-59849346D01*
X105126070Y-59834930D01*
X105111654Y-59819024D01*
X105098866Y-59801781D01*
X105087830Y-59783368D01*
X105078651Y-59763962D01*
X105071419Y-59743750D01*
X105066203Y-59722926D01*
X105063053Y-59701691D01*
X105062000Y-59680250D01*
X105062000Y-59242750D01*
X105063053Y-59221309D01*
X105066203Y-59200074D01*
X105071419Y-59179250D01*
X105078651Y-59159038D01*
X105087830Y-59139632D01*
X105098866Y-59121219D01*
X105111654Y-59103976D01*
X105126070Y-59088070D01*
X105141976Y-59073654D01*
X105159219Y-59060866D01*
X105177632Y-59049830D01*
X105197038Y-59040651D01*
X105217250Y-59033419D01*
X105238074Y-59028203D01*
X105259309Y-59025053D01*
X105280750Y-59024000D01*
X105793250Y-59024000D01*
X105814691Y-59025053D01*
X105814691Y-59025053D01*
G37*
D29*
X105537000Y-59461500D03*
D28*
G36*
X105814691Y-57450053D02*
X105835926Y-57453203D01*
X105856750Y-57458419D01*
X105876962Y-57465651D01*
X105896368Y-57474830D01*
X105914781Y-57485866D01*
X105932024Y-57498654D01*
X105947930Y-57513070D01*
X105962346Y-57528976D01*
X105975134Y-57546219D01*
X105986170Y-57564632D01*
X105995349Y-57584038D01*
X106002581Y-57604250D01*
X106007797Y-57625074D01*
X106010947Y-57646309D01*
X106012000Y-57667750D01*
X106012000Y-58105250D01*
X106010947Y-58126691D01*
X106007797Y-58147926D01*
X106002581Y-58168750D01*
X105995349Y-58188962D01*
X105986170Y-58208368D01*
X105975134Y-58226781D01*
X105962346Y-58244024D01*
X105947930Y-58259930D01*
X105932024Y-58274346D01*
X105914781Y-58287134D01*
X105896368Y-58298170D01*
X105876962Y-58307349D01*
X105856750Y-58314581D01*
X105835926Y-58319797D01*
X105814691Y-58322947D01*
X105793250Y-58324000D01*
X105280750Y-58324000D01*
X105259309Y-58322947D01*
X105238074Y-58319797D01*
X105217250Y-58314581D01*
X105197038Y-58307349D01*
X105177632Y-58298170D01*
X105159219Y-58287134D01*
X105141976Y-58274346D01*
X105126070Y-58259930D01*
X105111654Y-58244024D01*
X105098866Y-58226781D01*
X105087830Y-58208368D01*
X105078651Y-58188962D01*
X105071419Y-58168750D01*
X105066203Y-58147926D01*
X105063053Y-58126691D01*
X105062000Y-58105250D01*
X105062000Y-57667750D01*
X105063053Y-57646309D01*
X105066203Y-57625074D01*
X105071419Y-57604250D01*
X105078651Y-57584038D01*
X105087830Y-57564632D01*
X105098866Y-57546219D01*
X105111654Y-57528976D01*
X105126070Y-57513070D01*
X105141976Y-57498654D01*
X105159219Y-57485866D01*
X105177632Y-57474830D01*
X105197038Y-57465651D01*
X105217250Y-57458419D01*
X105238074Y-57453203D01*
X105259309Y-57450053D01*
X105280750Y-57449000D01*
X105793250Y-57449000D01*
X105814691Y-57450053D01*
X105814691Y-57450053D01*
G37*
D29*
X105537000Y-57886500D03*
G04 #@! TD*
D28*
G04 #@! TO.C,JP23*
G36*
X108354691Y-57450053D02*
X108375926Y-57453203D01*
X108396750Y-57458419D01*
X108416962Y-57465651D01*
X108436368Y-57474830D01*
X108454781Y-57485866D01*
X108472024Y-57498654D01*
X108487930Y-57513070D01*
X108502346Y-57528976D01*
X108515134Y-57546219D01*
X108526170Y-57564632D01*
X108535349Y-57584038D01*
X108542581Y-57604250D01*
X108547797Y-57625074D01*
X108550947Y-57646309D01*
X108552000Y-57667750D01*
X108552000Y-58105250D01*
X108550947Y-58126691D01*
X108547797Y-58147926D01*
X108542581Y-58168750D01*
X108535349Y-58188962D01*
X108526170Y-58208368D01*
X108515134Y-58226781D01*
X108502346Y-58244024D01*
X108487930Y-58259930D01*
X108472024Y-58274346D01*
X108454781Y-58287134D01*
X108436368Y-58298170D01*
X108416962Y-58307349D01*
X108396750Y-58314581D01*
X108375926Y-58319797D01*
X108354691Y-58322947D01*
X108333250Y-58324000D01*
X107820750Y-58324000D01*
X107799309Y-58322947D01*
X107778074Y-58319797D01*
X107757250Y-58314581D01*
X107737038Y-58307349D01*
X107717632Y-58298170D01*
X107699219Y-58287134D01*
X107681976Y-58274346D01*
X107666070Y-58259930D01*
X107651654Y-58244024D01*
X107638866Y-58226781D01*
X107627830Y-58208368D01*
X107618651Y-58188962D01*
X107611419Y-58168750D01*
X107606203Y-58147926D01*
X107603053Y-58126691D01*
X107602000Y-58105250D01*
X107602000Y-57667750D01*
X107603053Y-57646309D01*
X107606203Y-57625074D01*
X107611419Y-57604250D01*
X107618651Y-57584038D01*
X107627830Y-57564632D01*
X107638866Y-57546219D01*
X107651654Y-57528976D01*
X107666070Y-57513070D01*
X107681976Y-57498654D01*
X107699219Y-57485866D01*
X107717632Y-57474830D01*
X107737038Y-57465651D01*
X107757250Y-57458419D01*
X107778074Y-57453203D01*
X107799309Y-57450053D01*
X107820750Y-57449000D01*
X108333250Y-57449000D01*
X108354691Y-57450053D01*
X108354691Y-57450053D01*
G37*
D29*
X108077000Y-57886500D03*
D28*
G36*
X108354691Y-59025053D02*
X108375926Y-59028203D01*
X108396750Y-59033419D01*
X108416962Y-59040651D01*
X108436368Y-59049830D01*
X108454781Y-59060866D01*
X108472024Y-59073654D01*
X108487930Y-59088070D01*
X108502346Y-59103976D01*
X108515134Y-59121219D01*
X108526170Y-59139632D01*
X108535349Y-59159038D01*
X108542581Y-59179250D01*
X108547797Y-59200074D01*
X108550947Y-59221309D01*
X108552000Y-59242750D01*
X108552000Y-59680250D01*
X108550947Y-59701691D01*
X108547797Y-59722926D01*
X108542581Y-59743750D01*
X108535349Y-59763962D01*
X108526170Y-59783368D01*
X108515134Y-59801781D01*
X108502346Y-59819024D01*
X108487930Y-59834930D01*
X108472024Y-59849346D01*
X108454781Y-59862134D01*
X108436368Y-59873170D01*
X108416962Y-59882349D01*
X108396750Y-59889581D01*
X108375926Y-59894797D01*
X108354691Y-59897947D01*
X108333250Y-59899000D01*
X107820750Y-59899000D01*
X107799309Y-59897947D01*
X107778074Y-59894797D01*
X107757250Y-59889581D01*
X107737038Y-59882349D01*
X107717632Y-59873170D01*
X107699219Y-59862134D01*
X107681976Y-59849346D01*
X107666070Y-59834930D01*
X107651654Y-59819024D01*
X107638866Y-59801781D01*
X107627830Y-59783368D01*
X107618651Y-59763962D01*
X107611419Y-59743750D01*
X107606203Y-59722926D01*
X107603053Y-59701691D01*
X107602000Y-59680250D01*
X107602000Y-59242750D01*
X107603053Y-59221309D01*
X107606203Y-59200074D01*
X107611419Y-59179250D01*
X107618651Y-59159038D01*
X107627830Y-59139632D01*
X107638866Y-59121219D01*
X107651654Y-59103976D01*
X107666070Y-59088070D01*
X107681976Y-59073654D01*
X107699219Y-59060866D01*
X107717632Y-59049830D01*
X107737038Y-59040651D01*
X107757250Y-59033419D01*
X107778074Y-59028203D01*
X107799309Y-59025053D01*
X107820750Y-59024000D01*
X108333250Y-59024000D01*
X108354691Y-59025053D01*
X108354691Y-59025053D01*
G37*
D29*
X108077000Y-59461500D03*
G04 #@! TD*
D28*
G04 #@! TO.C,JP24*
G36*
X110894691Y-57450053D02*
X110915926Y-57453203D01*
X110936750Y-57458419D01*
X110956962Y-57465651D01*
X110976368Y-57474830D01*
X110994781Y-57485866D01*
X111012024Y-57498654D01*
X111027930Y-57513070D01*
X111042346Y-57528976D01*
X111055134Y-57546219D01*
X111066170Y-57564632D01*
X111075349Y-57584038D01*
X111082581Y-57604250D01*
X111087797Y-57625074D01*
X111090947Y-57646309D01*
X111092000Y-57667750D01*
X111092000Y-58105250D01*
X111090947Y-58126691D01*
X111087797Y-58147926D01*
X111082581Y-58168750D01*
X111075349Y-58188962D01*
X111066170Y-58208368D01*
X111055134Y-58226781D01*
X111042346Y-58244024D01*
X111027930Y-58259930D01*
X111012024Y-58274346D01*
X110994781Y-58287134D01*
X110976368Y-58298170D01*
X110956962Y-58307349D01*
X110936750Y-58314581D01*
X110915926Y-58319797D01*
X110894691Y-58322947D01*
X110873250Y-58324000D01*
X110360750Y-58324000D01*
X110339309Y-58322947D01*
X110318074Y-58319797D01*
X110297250Y-58314581D01*
X110277038Y-58307349D01*
X110257632Y-58298170D01*
X110239219Y-58287134D01*
X110221976Y-58274346D01*
X110206070Y-58259930D01*
X110191654Y-58244024D01*
X110178866Y-58226781D01*
X110167830Y-58208368D01*
X110158651Y-58188962D01*
X110151419Y-58168750D01*
X110146203Y-58147926D01*
X110143053Y-58126691D01*
X110142000Y-58105250D01*
X110142000Y-57667750D01*
X110143053Y-57646309D01*
X110146203Y-57625074D01*
X110151419Y-57604250D01*
X110158651Y-57584038D01*
X110167830Y-57564632D01*
X110178866Y-57546219D01*
X110191654Y-57528976D01*
X110206070Y-57513070D01*
X110221976Y-57498654D01*
X110239219Y-57485866D01*
X110257632Y-57474830D01*
X110277038Y-57465651D01*
X110297250Y-57458419D01*
X110318074Y-57453203D01*
X110339309Y-57450053D01*
X110360750Y-57449000D01*
X110873250Y-57449000D01*
X110894691Y-57450053D01*
X110894691Y-57450053D01*
G37*
D29*
X110617000Y-57886500D03*
D28*
G36*
X110894691Y-59025053D02*
X110915926Y-59028203D01*
X110936750Y-59033419D01*
X110956962Y-59040651D01*
X110976368Y-59049830D01*
X110994781Y-59060866D01*
X111012024Y-59073654D01*
X111027930Y-59088070D01*
X111042346Y-59103976D01*
X111055134Y-59121219D01*
X111066170Y-59139632D01*
X111075349Y-59159038D01*
X111082581Y-59179250D01*
X111087797Y-59200074D01*
X111090947Y-59221309D01*
X111092000Y-59242750D01*
X111092000Y-59680250D01*
X111090947Y-59701691D01*
X111087797Y-59722926D01*
X111082581Y-59743750D01*
X111075349Y-59763962D01*
X111066170Y-59783368D01*
X111055134Y-59801781D01*
X111042346Y-59819024D01*
X111027930Y-59834930D01*
X111012024Y-59849346D01*
X110994781Y-59862134D01*
X110976368Y-59873170D01*
X110956962Y-59882349D01*
X110936750Y-59889581D01*
X110915926Y-59894797D01*
X110894691Y-59897947D01*
X110873250Y-59899000D01*
X110360750Y-59899000D01*
X110339309Y-59897947D01*
X110318074Y-59894797D01*
X110297250Y-59889581D01*
X110277038Y-59882349D01*
X110257632Y-59873170D01*
X110239219Y-59862134D01*
X110221976Y-59849346D01*
X110206070Y-59834930D01*
X110191654Y-59819024D01*
X110178866Y-59801781D01*
X110167830Y-59783368D01*
X110158651Y-59763962D01*
X110151419Y-59743750D01*
X110146203Y-59722926D01*
X110143053Y-59701691D01*
X110142000Y-59680250D01*
X110142000Y-59242750D01*
X110143053Y-59221309D01*
X110146203Y-59200074D01*
X110151419Y-59179250D01*
X110158651Y-59159038D01*
X110167830Y-59139632D01*
X110178866Y-59121219D01*
X110191654Y-59103976D01*
X110206070Y-59088070D01*
X110221976Y-59073654D01*
X110239219Y-59060866D01*
X110257632Y-59049830D01*
X110277038Y-59040651D01*
X110297250Y-59033419D01*
X110318074Y-59028203D01*
X110339309Y-59025053D01*
X110360750Y-59024000D01*
X110873250Y-59024000D01*
X110894691Y-59025053D01*
X110894691Y-59025053D01*
G37*
D29*
X110617000Y-59461500D03*
G04 #@! TD*
D28*
G04 #@! TO.C,JP25*
G36*
X113434691Y-59025053D02*
X113455926Y-59028203D01*
X113476750Y-59033419D01*
X113496962Y-59040651D01*
X113516368Y-59049830D01*
X113534781Y-59060866D01*
X113552024Y-59073654D01*
X113567930Y-59088070D01*
X113582346Y-59103976D01*
X113595134Y-59121219D01*
X113606170Y-59139632D01*
X113615349Y-59159038D01*
X113622581Y-59179250D01*
X113627797Y-59200074D01*
X113630947Y-59221309D01*
X113632000Y-59242750D01*
X113632000Y-59680250D01*
X113630947Y-59701691D01*
X113627797Y-59722926D01*
X113622581Y-59743750D01*
X113615349Y-59763962D01*
X113606170Y-59783368D01*
X113595134Y-59801781D01*
X113582346Y-59819024D01*
X113567930Y-59834930D01*
X113552024Y-59849346D01*
X113534781Y-59862134D01*
X113516368Y-59873170D01*
X113496962Y-59882349D01*
X113476750Y-59889581D01*
X113455926Y-59894797D01*
X113434691Y-59897947D01*
X113413250Y-59899000D01*
X112900750Y-59899000D01*
X112879309Y-59897947D01*
X112858074Y-59894797D01*
X112837250Y-59889581D01*
X112817038Y-59882349D01*
X112797632Y-59873170D01*
X112779219Y-59862134D01*
X112761976Y-59849346D01*
X112746070Y-59834930D01*
X112731654Y-59819024D01*
X112718866Y-59801781D01*
X112707830Y-59783368D01*
X112698651Y-59763962D01*
X112691419Y-59743750D01*
X112686203Y-59722926D01*
X112683053Y-59701691D01*
X112682000Y-59680250D01*
X112682000Y-59242750D01*
X112683053Y-59221309D01*
X112686203Y-59200074D01*
X112691419Y-59179250D01*
X112698651Y-59159038D01*
X112707830Y-59139632D01*
X112718866Y-59121219D01*
X112731654Y-59103976D01*
X112746070Y-59088070D01*
X112761976Y-59073654D01*
X112779219Y-59060866D01*
X112797632Y-59049830D01*
X112817038Y-59040651D01*
X112837250Y-59033419D01*
X112858074Y-59028203D01*
X112879309Y-59025053D01*
X112900750Y-59024000D01*
X113413250Y-59024000D01*
X113434691Y-59025053D01*
X113434691Y-59025053D01*
G37*
D29*
X113157000Y-59461500D03*
D28*
G36*
X113434691Y-57450053D02*
X113455926Y-57453203D01*
X113476750Y-57458419D01*
X113496962Y-57465651D01*
X113516368Y-57474830D01*
X113534781Y-57485866D01*
X113552024Y-57498654D01*
X113567930Y-57513070D01*
X113582346Y-57528976D01*
X113595134Y-57546219D01*
X113606170Y-57564632D01*
X113615349Y-57584038D01*
X113622581Y-57604250D01*
X113627797Y-57625074D01*
X113630947Y-57646309D01*
X113632000Y-57667750D01*
X113632000Y-58105250D01*
X113630947Y-58126691D01*
X113627797Y-58147926D01*
X113622581Y-58168750D01*
X113615349Y-58188962D01*
X113606170Y-58208368D01*
X113595134Y-58226781D01*
X113582346Y-58244024D01*
X113567930Y-58259930D01*
X113552024Y-58274346D01*
X113534781Y-58287134D01*
X113516368Y-58298170D01*
X113496962Y-58307349D01*
X113476750Y-58314581D01*
X113455926Y-58319797D01*
X113434691Y-58322947D01*
X113413250Y-58324000D01*
X112900750Y-58324000D01*
X112879309Y-58322947D01*
X112858074Y-58319797D01*
X112837250Y-58314581D01*
X112817038Y-58307349D01*
X112797632Y-58298170D01*
X112779219Y-58287134D01*
X112761976Y-58274346D01*
X112746070Y-58259930D01*
X112731654Y-58244024D01*
X112718866Y-58226781D01*
X112707830Y-58208368D01*
X112698651Y-58188962D01*
X112691419Y-58168750D01*
X112686203Y-58147926D01*
X112683053Y-58126691D01*
X112682000Y-58105250D01*
X112682000Y-57667750D01*
X112683053Y-57646309D01*
X112686203Y-57625074D01*
X112691419Y-57604250D01*
X112698651Y-57584038D01*
X112707830Y-57564632D01*
X112718866Y-57546219D01*
X112731654Y-57528976D01*
X112746070Y-57513070D01*
X112761976Y-57498654D01*
X112779219Y-57485866D01*
X112797632Y-57474830D01*
X112817038Y-57465651D01*
X112837250Y-57458419D01*
X112858074Y-57453203D01*
X112879309Y-57450053D01*
X112900750Y-57449000D01*
X113413250Y-57449000D01*
X113434691Y-57450053D01*
X113434691Y-57450053D01*
G37*
D29*
X113157000Y-57886500D03*
G04 #@! TD*
D28*
G04 #@! TO.C,JP26*
G36*
X116101691Y-57450053D02*
X116122926Y-57453203D01*
X116143750Y-57458419D01*
X116163962Y-57465651D01*
X116183368Y-57474830D01*
X116201781Y-57485866D01*
X116219024Y-57498654D01*
X116234930Y-57513070D01*
X116249346Y-57528976D01*
X116262134Y-57546219D01*
X116273170Y-57564632D01*
X116282349Y-57584038D01*
X116289581Y-57604250D01*
X116294797Y-57625074D01*
X116297947Y-57646309D01*
X116299000Y-57667750D01*
X116299000Y-58105250D01*
X116297947Y-58126691D01*
X116294797Y-58147926D01*
X116289581Y-58168750D01*
X116282349Y-58188962D01*
X116273170Y-58208368D01*
X116262134Y-58226781D01*
X116249346Y-58244024D01*
X116234930Y-58259930D01*
X116219024Y-58274346D01*
X116201781Y-58287134D01*
X116183368Y-58298170D01*
X116163962Y-58307349D01*
X116143750Y-58314581D01*
X116122926Y-58319797D01*
X116101691Y-58322947D01*
X116080250Y-58324000D01*
X115567750Y-58324000D01*
X115546309Y-58322947D01*
X115525074Y-58319797D01*
X115504250Y-58314581D01*
X115484038Y-58307349D01*
X115464632Y-58298170D01*
X115446219Y-58287134D01*
X115428976Y-58274346D01*
X115413070Y-58259930D01*
X115398654Y-58244024D01*
X115385866Y-58226781D01*
X115374830Y-58208368D01*
X115365651Y-58188962D01*
X115358419Y-58168750D01*
X115353203Y-58147926D01*
X115350053Y-58126691D01*
X115349000Y-58105250D01*
X115349000Y-57667750D01*
X115350053Y-57646309D01*
X115353203Y-57625074D01*
X115358419Y-57604250D01*
X115365651Y-57584038D01*
X115374830Y-57564632D01*
X115385866Y-57546219D01*
X115398654Y-57528976D01*
X115413070Y-57513070D01*
X115428976Y-57498654D01*
X115446219Y-57485866D01*
X115464632Y-57474830D01*
X115484038Y-57465651D01*
X115504250Y-57458419D01*
X115525074Y-57453203D01*
X115546309Y-57450053D01*
X115567750Y-57449000D01*
X116080250Y-57449000D01*
X116101691Y-57450053D01*
X116101691Y-57450053D01*
G37*
D29*
X115824000Y-57886500D03*
D28*
G36*
X116101691Y-59025053D02*
X116122926Y-59028203D01*
X116143750Y-59033419D01*
X116163962Y-59040651D01*
X116183368Y-59049830D01*
X116201781Y-59060866D01*
X116219024Y-59073654D01*
X116234930Y-59088070D01*
X116249346Y-59103976D01*
X116262134Y-59121219D01*
X116273170Y-59139632D01*
X116282349Y-59159038D01*
X116289581Y-59179250D01*
X116294797Y-59200074D01*
X116297947Y-59221309D01*
X116299000Y-59242750D01*
X116299000Y-59680250D01*
X116297947Y-59701691D01*
X116294797Y-59722926D01*
X116289581Y-59743750D01*
X116282349Y-59763962D01*
X116273170Y-59783368D01*
X116262134Y-59801781D01*
X116249346Y-59819024D01*
X116234930Y-59834930D01*
X116219024Y-59849346D01*
X116201781Y-59862134D01*
X116183368Y-59873170D01*
X116163962Y-59882349D01*
X116143750Y-59889581D01*
X116122926Y-59894797D01*
X116101691Y-59897947D01*
X116080250Y-59899000D01*
X115567750Y-59899000D01*
X115546309Y-59897947D01*
X115525074Y-59894797D01*
X115504250Y-59889581D01*
X115484038Y-59882349D01*
X115464632Y-59873170D01*
X115446219Y-59862134D01*
X115428976Y-59849346D01*
X115413070Y-59834930D01*
X115398654Y-59819024D01*
X115385866Y-59801781D01*
X115374830Y-59783368D01*
X115365651Y-59763962D01*
X115358419Y-59743750D01*
X115353203Y-59722926D01*
X115350053Y-59701691D01*
X115349000Y-59680250D01*
X115349000Y-59242750D01*
X115350053Y-59221309D01*
X115353203Y-59200074D01*
X115358419Y-59179250D01*
X115365651Y-59159038D01*
X115374830Y-59139632D01*
X115385866Y-59121219D01*
X115398654Y-59103976D01*
X115413070Y-59088070D01*
X115428976Y-59073654D01*
X115446219Y-59060866D01*
X115464632Y-59049830D01*
X115484038Y-59040651D01*
X115504250Y-59033419D01*
X115525074Y-59028203D01*
X115546309Y-59025053D01*
X115567750Y-59024000D01*
X116080250Y-59024000D01*
X116101691Y-59025053D01*
X116101691Y-59025053D01*
G37*
D29*
X115824000Y-59461500D03*
G04 #@! TD*
D28*
G04 #@! TO.C,JP27*
G36*
X118514691Y-59025053D02*
X118535926Y-59028203D01*
X118556750Y-59033419D01*
X118576962Y-59040651D01*
X118596368Y-59049830D01*
X118614781Y-59060866D01*
X118632024Y-59073654D01*
X118647930Y-59088070D01*
X118662346Y-59103976D01*
X118675134Y-59121219D01*
X118686170Y-59139632D01*
X118695349Y-59159038D01*
X118702581Y-59179250D01*
X118707797Y-59200074D01*
X118710947Y-59221309D01*
X118712000Y-59242750D01*
X118712000Y-59680250D01*
X118710947Y-59701691D01*
X118707797Y-59722926D01*
X118702581Y-59743750D01*
X118695349Y-59763962D01*
X118686170Y-59783368D01*
X118675134Y-59801781D01*
X118662346Y-59819024D01*
X118647930Y-59834930D01*
X118632024Y-59849346D01*
X118614781Y-59862134D01*
X118596368Y-59873170D01*
X118576962Y-59882349D01*
X118556750Y-59889581D01*
X118535926Y-59894797D01*
X118514691Y-59897947D01*
X118493250Y-59899000D01*
X117980750Y-59899000D01*
X117959309Y-59897947D01*
X117938074Y-59894797D01*
X117917250Y-59889581D01*
X117897038Y-59882349D01*
X117877632Y-59873170D01*
X117859219Y-59862134D01*
X117841976Y-59849346D01*
X117826070Y-59834930D01*
X117811654Y-59819024D01*
X117798866Y-59801781D01*
X117787830Y-59783368D01*
X117778651Y-59763962D01*
X117771419Y-59743750D01*
X117766203Y-59722926D01*
X117763053Y-59701691D01*
X117762000Y-59680250D01*
X117762000Y-59242750D01*
X117763053Y-59221309D01*
X117766203Y-59200074D01*
X117771419Y-59179250D01*
X117778651Y-59159038D01*
X117787830Y-59139632D01*
X117798866Y-59121219D01*
X117811654Y-59103976D01*
X117826070Y-59088070D01*
X117841976Y-59073654D01*
X117859219Y-59060866D01*
X117877632Y-59049830D01*
X117897038Y-59040651D01*
X117917250Y-59033419D01*
X117938074Y-59028203D01*
X117959309Y-59025053D01*
X117980750Y-59024000D01*
X118493250Y-59024000D01*
X118514691Y-59025053D01*
X118514691Y-59025053D01*
G37*
D29*
X118237000Y-59461500D03*
D28*
G36*
X118514691Y-57450053D02*
X118535926Y-57453203D01*
X118556750Y-57458419D01*
X118576962Y-57465651D01*
X118596368Y-57474830D01*
X118614781Y-57485866D01*
X118632024Y-57498654D01*
X118647930Y-57513070D01*
X118662346Y-57528976D01*
X118675134Y-57546219D01*
X118686170Y-57564632D01*
X118695349Y-57584038D01*
X118702581Y-57604250D01*
X118707797Y-57625074D01*
X118710947Y-57646309D01*
X118712000Y-57667750D01*
X118712000Y-58105250D01*
X118710947Y-58126691D01*
X118707797Y-58147926D01*
X118702581Y-58168750D01*
X118695349Y-58188962D01*
X118686170Y-58208368D01*
X118675134Y-58226781D01*
X118662346Y-58244024D01*
X118647930Y-58259930D01*
X118632024Y-58274346D01*
X118614781Y-58287134D01*
X118596368Y-58298170D01*
X118576962Y-58307349D01*
X118556750Y-58314581D01*
X118535926Y-58319797D01*
X118514691Y-58322947D01*
X118493250Y-58324000D01*
X117980750Y-58324000D01*
X117959309Y-58322947D01*
X117938074Y-58319797D01*
X117917250Y-58314581D01*
X117897038Y-58307349D01*
X117877632Y-58298170D01*
X117859219Y-58287134D01*
X117841976Y-58274346D01*
X117826070Y-58259930D01*
X117811654Y-58244024D01*
X117798866Y-58226781D01*
X117787830Y-58208368D01*
X117778651Y-58188962D01*
X117771419Y-58168750D01*
X117766203Y-58147926D01*
X117763053Y-58126691D01*
X117762000Y-58105250D01*
X117762000Y-57667750D01*
X117763053Y-57646309D01*
X117766203Y-57625074D01*
X117771419Y-57604250D01*
X117778651Y-57584038D01*
X117787830Y-57564632D01*
X117798866Y-57546219D01*
X117811654Y-57528976D01*
X117826070Y-57513070D01*
X117841976Y-57498654D01*
X117859219Y-57485866D01*
X117877632Y-57474830D01*
X117897038Y-57465651D01*
X117917250Y-57458419D01*
X117938074Y-57453203D01*
X117959309Y-57450053D01*
X117980750Y-57449000D01*
X118493250Y-57449000D01*
X118514691Y-57450053D01*
X118514691Y-57450053D01*
G37*
D29*
X118237000Y-57886500D03*
G04 #@! TD*
D28*
G04 #@! TO.C,JP29*
G36*
X92479691Y-58771053D02*
X92500926Y-58774203D01*
X92521750Y-58779419D01*
X92541962Y-58786651D01*
X92561368Y-58795830D01*
X92579781Y-58806866D01*
X92597024Y-58819654D01*
X92612930Y-58834070D01*
X92627346Y-58849976D01*
X92640134Y-58867219D01*
X92651170Y-58885632D01*
X92660349Y-58905038D01*
X92667581Y-58925250D01*
X92672797Y-58946074D01*
X92675947Y-58967309D01*
X92677000Y-58988750D01*
X92677000Y-59426250D01*
X92675947Y-59447691D01*
X92672797Y-59468926D01*
X92667581Y-59489750D01*
X92660349Y-59509962D01*
X92651170Y-59529368D01*
X92640134Y-59547781D01*
X92627346Y-59565024D01*
X92612930Y-59580930D01*
X92597024Y-59595346D01*
X92579781Y-59608134D01*
X92561368Y-59619170D01*
X92541962Y-59628349D01*
X92521750Y-59635581D01*
X92500926Y-59640797D01*
X92479691Y-59643947D01*
X92458250Y-59645000D01*
X91945750Y-59645000D01*
X91924309Y-59643947D01*
X91903074Y-59640797D01*
X91882250Y-59635581D01*
X91862038Y-59628349D01*
X91842632Y-59619170D01*
X91824219Y-59608134D01*
X91806976Y-59595346D01*
X91791070Y-59580930D01*
X91776654Y-59565024D01*
X91763866Y-59547781D01*
X91752830Y-59529368D01*
X91743651Y-59509962D01*
X91736419Y-59489750D01*
X91731203Y-59468926D01*
X91728053Y-59447691D01*
X91727000Y-59426250D01*
X91727000Y-58988750D01*
X91728053Y-58967309D01*
X91731203Y-58946074D01*
X91736419Y-58925250D01*
X91743651Y-58905038D01*
X91752830Y-58885632D01*
X91763866Y-58867219D01*
X91776654Y-58849976D01*
X91791070Y-58834070D01*
X91806976Y-58819654D01*
X91824219Y-58806866D01*
X91842632Y-58795830D01*
X91862038Y-58786651D01*
X91882250Y-58779419D01*
X91903074Y-58774203D01*
X91924309Y-58771053D01*
X91945750Y-58770000D01*
X92458250Y-58770000D01*
X92479691Y-58771053D01*
X92479691Y-58771053D01*
G37*
D29*
X92202000Y-59207500D03*
D28*
G36*
X92479691Y-57196053D02*
X92500926Y-57199203D01*
X92521750Y-57204419D01*
X92541962Y-57211651D01*
X92561368Y-57220830D01*
X92579781Y-57231866D01*
X92597024Y-57244654D01*
X92612930Y-57259070D01*
X92627346Y-57274976D01*
X92640134Y-57292219D01*
X92651170Y-57310632D01*
X92660349Y-57330038D01*
X92667581Y-57350250D01*
X92672797Y-57371074D01*
X92675947Y-57392309D01*
X92677000Y-57413750D01*
X92677000Y-57851250D01*
X92675947Y-57872691D01*
X92672797Y-57893926D01*
X92667581Y-57914750D01*
X92660349Y-57934962D01*
X92651170Y-57954368D01*
X92640134Y-57972781D01*
X92627346Y-57990024D01*
X92612930Y-58005930D01*
X92597024Y-58020346D01*
X92579781Y-58033134D01*
X92561368Y-58044170D01*
X92541962Y-58053349D01*
X92521750Y-58060581D01*
X92500926Y-58065797D01*
X92479691Y-58068947D01*
X92458250Y-58070000D01*
X91945750Y-58070000D01*
X91924309Y-58068947D01*
X91903074Y-58065797D01*
X91882250Y-58060581D01*
X91862038Y-58053349D01*
X91842632Y-58044170D01*
X91824219Y-58033134D01*
X91806976Y-58020346D01*
X91791070Y-58005930D01*
X91776654Y-57990024D01*
X91763866Y-57972781D01*
X91752830Y-57954368D01*
X91743651Y-57934962D01*
X91736419Y-57914750D01*
X91731203Y-57893926D01*
X91728053Y-57872691D01*
X91727000Y-57851250D01*
X91727000Y-57413750D01*
X91728053Y-57392309D01*
X91731203Y-57371074D01*
X91736419Y-57350250D01*
X91743651Y-57330038D01*
X91752830Y-57310632D01*
X91763866Y-57292219D01*
X91776654Y-57274976D01*
X91791070Y-57259070D01*
X91806976Y-57244654D01*
X91824219Y-57231866D01*
X91842632Y-57220830D01*
X91862038Y-57211651D01*
X91882250Y-57204419D01*
X91903074Y-57199203D01*
X91924309Y-57196053D01*
X91945750Y-57195000D01*
X92458250Y-57195000D01*
X92479691Y-57196053D01*
X92479691Y-57196053D01*
G37*
D29*
X92202000Y-57632500D03*
G04 #@! TD*
D30*
G04 #@! TO.C,U1*
X112903000Y-111327000D03*
X114173000Y-111327000D03*
X114173000Y-104827000D03*
X112903000Y-104827000D03*
G04 #@! TD*
G04 #@! TO.C,U2*
X112903000Y-123773000D03*
X114173000Y-123773000D03*
X114173000Y-117273000D03*
X112903000Y-117273000D03*
G04 #@! TD*
G04 #@! TO.C,U3*
X112903000Y-65584000D03*
X114173000Y-65584000D03*
X114173000Y-72084000D03*
X112903000Y-72084000D03*
G04 #@! TD*
G04 #@! TO.C,U4*
X112903000Y-98500000D03*
X114173000Y-98500000D03*
X114173000Y-92000000D03*
X112903000Y-92000000D03*
G04 #@! TD*
G04 #@! TO.C,U5*
X74041000Y-72084000D03*
X72771000Y-72084000D03*
X72771000Y-65584000D03*
X74041000Y-65584000D03*
G04 #@! TD*
G04 #@! TO.C,U6*
X74041000Y-97484000D03*
X72771000Y-97484000D03*
X72771000Y-90984000D03*
X74041000Y-90984000D03*
G04 #@! TD*
G04 #@! TO.C,U7*
X74041000Y-122249000D03*
X72771000Y-122249000D03*
X72771000Y-115749000D03*
X74041000Y-115749000D03*
G04 #@! TD*
G04 #@! TO.C,U8*
X74041000Y-103430000D03*
X72771000Y-103430000D03*
X72771000Y-109930000D03*
X74041000Y-109930000D03*
G04 #@! TD*
G04 #@! TO.C,U11*
X113030000Y-78792000D03*
X114300000Y-78792000D03*
X114300000Y-85292000D03*
X113030000Y-85292000D03*
G04 #@! TD*
G04 #@! TO.C,U12*
X74041000Y-78030000D03*
X72771000Y-78030000D03*
X72771000Y-84530000D03*
X74041000Y-84530000D03*
G04 #@! TD*
M02*
