G04 #@! TF.GenerationSoftware,KiCad,Pcbnew,5.0.1*
G04 #@! TF.CreationDate,2018-12-13T21:41:05+01:00*
G04 #@! TF.ProjectId,OIBUS_MOSFET_driver_module,4F494255535F4D4F534645545F647269,rev?*
G04 #@! TF.SameCoordinates,Original*
G04 #@! TF.FileFunction,Legend,Bot*
G04 #@! TF.FilePolarity,Positive*
%FSLAX46Y46*%
G04 Gerber Fmt 4.6, Leading zero omitted, Abs format (unit mm)*
G04 Created by KiCad (PCBNEW 5.0.1) date Thu 13 Dec 2018 09:41:05 PM CET*
%MOMM*%
%LPD*%
G01*
G04 APERTURE LIST*
%ADD10C,0.300000*%
G04 APERTURE END LIST*
D10*
X60116071Y-124644571D02*
X60401785Y-124644571D01*
X60544642Y-124716000D01*
X60687500Y-124858857D01*
X60758928Y-125144571D01*
X60758928Y-125644571D01*
X60687500Y-125930285D01*
X60544642Y-126073142D01*
X60401785Y-126144571D01*
X60116071Y-126144571D01*
X59973214Y-126073142D01*
X59830357Y-125930285D01*
X59758928Y-125644571D01*
X59758928Y-125144571D01*
X59830357Y-124858857D01*
X59973214Y-124716000D01*
X60116071Y-124644571D01*
X61401785Y-126144571D02*
X61401785Y-124644571D01*
X62616071Y-125358857D02*
X62830357Y-125430285D01*
X62901785Y-125501714D01*
X62973214Y-125644571D01*
X62973214Y-125858857D01*
X62901785Y-126001714D01*
X62830357Y-126073142D01*
X62687500Y-126144571D01*
X62116071Y-126144571D01*
X62116071Y-124644571D01*
X62616071Y-124644571D01*
X62758928Y-124716000D01*
X62830357Y-124787428D01*
X62901785Y-124930285D01*
X62901785Y-125073142D01*
X62830357Y-125216000D01*
X62758928Y-125287428D01*
X62616071Y-125358857D01*
X62116071Y-125358857D01*
X63616071Y-124644571D02*
X63616071Y-125858857D01*
X63687500Y-126001714D01*
X63758928Y-126073142D01*
X63901785Y-126144571D01*
X64187500Y-126144571D01*
X64330357Y-126073142D01*
X64401785Y-126001714D01*
X64473214Y-125858857D01*
X64473214Y-124644571D01*
X65116071Y-126073142D02*
X65330357Y-126144571D01*
X65687500Y-126144571D01*
X65830357Y-126073142D01*
X65901785Y-126001714D01*
X65973214Y-125858857D01*
X65973214Y-125716000D01*
X65901785Y-125573142D01*
X65830357Y-125501714D01*
X65687500Y-125430285D01*
X65401785Y-125358857D01*
X65258928Y-125287428D01*
X65187500Y-125216000D01*
X65116071Y-125073142D01*
X65116071Y-124930285D01*
X65187500Y-124787428D01*
X65258928Y-124716000D01*
X65401785Y-124644571D01*
X65758928Y-124644571D01*
X65973214Y-124716000D01*
X67758928Y-126144571D02*
X67758928Y-124644571D01*
X68258928Y-125716000D01*
X68758928Y-124644571D01*
X68758928Y-126144571D01*
X69758928Y-124644571D02*
X70044642Y-124644571D01*
X70187500Y-124716000D01*
X70330357Y-124858857D01*
X70401785Y-125144571D01*
X70401785Y-125644571D01*
X70330357Y-125930285D01*
X70187500Y-126073142D01*
X70044642Y-126144571D01*
X69758928Y-126144571D01*
X69616071Y-126073142D01*
X69473214Y-125930285D01*
X69401785Y-125644571D01*
X69401785Y-125144571D01*
X69473214Y-124858857D01*
X69616071Y-124716000D01*
X69758928Y-124644571D01*
X70973214Y-126073142D02*
X71187500Y-126144571D01*
X71544642Y-126144571D01*
X71687500Y-126073142D01*
X71758928Y-126001714D01*
X71830357Y-125858857D01*
X71830357Y-125716000D01*
X71758928Y-125573142D01*
X71687500Y-125501714D01*
X71544642Y-125430285D01*
X71258928Y-125358857D01*
X71116071Y-125287428D01*
X71044642Y-125216000D01*
X70973214Y-125073142D01*
X70973214Y-124930285D01*
X71044642Y-124787428D01*
X71116071Y-124716000D01*
X71258928Y-124644571D01*
X71616071Y-124644571D01*
X71830357Y-124716000D01*
X72973214Y-125358857D02*
X72473214Y-125358857D01*
X72473214Y-126144571D02*
X72473214Y-124644571D01*
X73187500Y-124644571D01*
X73758928Y-125358857D02*
X74258928Y-125358857D01*
X74473214Y-126144571D02*
X73758928Y-126144571D01*
X73758928Y-124644571D01*
X74473214Y-124644571D01*
X74901785Y-124644571D02*
X75758928Y-124644571D01*
X75330357Y-126144571D02*
X75330357Y-124644571D01*
X78044642Y-126144571D02*
X78044642Y-124644571D01*
X78044642Y-126073142D02*
X77901785Y-126144571D01*
X77616071Y-126144571D01*
X77473214Y-126073142D01*
X77401785Y-126001714D01*
X77330357Y-125858857D01*
X77330357Y-125430285D01*
X77401785Y-125287428D01*
X77473214Y-125216000D01*
X77616071Y-125144571D01*
X77901785Y-125144571D01*
X78044642Y-125216000D01*
X78758928Y-126144571D02*
X78758928Y-125144571D01*
X78758928Y-125430285D02*
X78830357Y-125287428D01*
X78901785Y-125216000D01*
X79044642Y-125144571D01*
X79187500Y-125144571D01*
X79687500Y-126144571D02*
X79687500Y-125144571D01*
X79687500Y-124644571D02*
X79616071Y-124716000D01*
X79687500Y-124787428D01*
X79758928Y-124716000D01*
X79687500Y-124644571D01*
X79687500Y-124787428D01*
X80258928Y-125144571D02*
X80616071Y-126144571D01*
X80973214Y-125144571D01*
X82116071Y-126073142D02*
X81973214Y-126144571D01*
X81687500Y-126144571D01*
X81544642Y-126073142D01*
X81473214Y-125930285D01*
X81473214Y-125358857D01*
X81544642Y-125216000D01*
X81687500Y-125144571D01*
X81973214Y-125144571D01*
X82116071Y-125216000D01*
X82187500Y-125358857D01*
X82187500Y-125501714D01*
X81473214Y-125644571D01*
X82830357Y-126144571D02*
X82830357Y-125144571D01*
X82830357Y-125430285D02*
X82901785Y-125287428D01*
X82973214Y-125216000D01*
X83116071Y-125144571D01*
X83258928Y-125144571D01*
X60580357Y-128694571D02*
X60080357Y-127980285D01*
X59723214Y-128694571D02*
X59723214Y-127194571D01*
X60294642Y-127194571D01*
X60437500Y-127266000D01*
X60508928Y-127337428D01*
X60580357Y-127480285D01*
X60580357Y-127694571D01*
X60508928Y-127837428D01*
X60437500Y-127908857D01*
X60294642Y-127980285D01*
X59723214Y-127980285D01*
X61794642Y-128623142D02*
X61651785Y-128694571D01*
X61366071Y-128694571D01*
X61223214Y-128623142D01*
X61151785Y-128480285D01*
X61151785Y-127908857D01*
X61223214Y-127766000D01*
X61366071Y-127694571D01*
X61651785Y-127694571D01*
X61794642Y-127766000D01*
X61866071Y-127908857D01*
X61866071Y-128051714D01*
X61151785Y-128194571D01*
X62366071Y-127694571D02*
X62723214Y-128694571D01*
X63080357Y-127694571D01*
X63651785Y-128694571D02*
X63651785Y-127694571D01*
X63651785Y-127194571D02*
X63580357Y-127266000D01*
X63651785Y-127337428D01*
X63723214Y-127266000D01*
X63651785Y-127194571D01*
X63651785Y-127337428D01*
X64294642Y-128623142D02*
X64437500Y-128694571D01*
X64723214Y-128694571D01*
X64866071Y-128623142D01*
X64937500Y-128480285D01*
X64937500Y-128408857D01*
X64866071Y-128266000D01*
X64723214Y-128194571D01*
X64508928Y-128194571D01*
X64366071Y-128123142D01*
X64294642Y-127980285D01*
X64294642Y-127908857D01*
X64366071Y-127766000D01*
X64508928Y-127694571D01*
X64723214Y-127694571D01*
X64866071Y-127766000D01*
X65580357Y-128694571D02*
X65580357Y-127694571D01*
X65580357Y-127194571D02*
X65508928Y-127266000D01*
X65580357Y-127337428D01*
X65651785Y-127266000D01*
X65580357Y-127194571D01*
X65580357Y-127337428D01*
X66508928Y-128694571D02*
X66366071Y-128623142D01*
X66294642Y-128551714D01*
X66223214Y-128408857D01*
X66223214Y-127980285D01*
X66294642Y-127837428D01*
X66366071Y-127766000D01*
X66508928Y-127694571D01*
X66723214Y-127694571D01*
X66866071Y-127766000D01*
X66937500Y-127837428D01*
X67008928Y-127980285D01*
X67008928Y-128408857D01*
X66937500Y-128551714D01*
X66866071Y-128623142D01*
X66723214Y-128694571D01*
X66508928Y-128694571D01*
X67651785Y-127694571D02*
X67651785Y-128694571D01*
X67651785Y-127837428D02*
X67723214Y-127766000D01*
X67866071Y-127694571D01*
X68080357Y-127694571D01*
X68223214Y-127766000D01*
X68294642Y-127908857D01*
X68294642Y-128694571D01*
X70937500Y-128694571D02*
X70080357Y-128694571D01*
X70508928Y-128694571D02*
X70508928Y-127194571D01*
X70366071Y-127408857D01*
X70223214Y-127551714D01*
X70080357Y-127623142D01*
X71651785Y-128623142D02*
X71651785Y-128694571D01*
X71580357Y-128837428D01*
X71508928Y-128908857D01*
X73366071Y-127337428D02*
X73437500Y-127266000D01*
X73580357Y-127194571D01*
X73937500Y-127194571D01*
X74080357Y-127266000D01*
X74151785Y-127337428D01*
X74223214Y-127480285D01*
X74223214Y-127623142D01*
X74151785Y-127837428D01*
X73294642Y-128694571D01*
X74223214Y-128694571D01*
X75151785Y-127194571D02*
X75294642Y-127194571D01*
X75437500Y-127266000D01*
X75508928Y-127337428D01*
X75580357Y-127480285D01*
X75651785Y-127766000D01*
X75651785Y-128123142D01*
X75580357Y-128408857D01*
X75508928Y-128551714D01*
X75437500Y-128623142D01*
X75294642Y-128694571D01*
X75151785Y-128694571D01*
X75008928Y-128623142D01*
X74937500Y-128551714D01*
X74866071Y-128408857D01*
X74794642Y-128123142D01*
X74794642Y-127766000D01*
X74866071Y-127480285D01*
X74937500Y-127337428D01*
X75008928Y-127266000D01*
X75151785Y-127194571D01*
X77080357Y-128694571D02*
X76223214Y-128694571D01*
X76651785Y-128694571D02*
X76651785Y-127194571D01*
X76508928Y-127408857D01*
X76366071Y-127551714D01*
X76223214Y-127623142D01*
X77937500Y-127837428D02*
X77794642Y-127766000D01*
X77723214Y-127694571D01*
X77651785Y-127551714D01*
X77651785Y-127480285D01*
X77723214Y-127337428D01*
X77794642Y-127266000D01*
X77937500Y-127194571D01*
X78223214Y-127194571D01*
X78366071Y-127266000D01*
X78437500Y-127337428D01*
X78508928Y-127480285D01*
X78508928Y-127551714D01*
X78437500Y-127694571D01*
X78366071Y-127766000D01*
X78223214Y-127837428D01*
X77937500Y-127837428D01*
X77794642Y-127908857D01*
X77723214Y-127980285D01*
X77651785Y-128123142D01*
X77651785Y-128408857D01*
X77723214Y-128551714D01*
X77794642Y-128623142D01*
X77937500Y-128694571D01*
X78223214Y-128694571D01*
X78366071Y-128623142D01*
X78437500Y-128551714D01*
X78508928Y-128408857D01*
X78508928Y-128123142D01*
X78437500Y-127980285D01*
X78366071Y-127908857D01*
X78223214Y-127837428D01*
X79223214Y-128623142D02*
X79223214Y-128694571D01*
X79151785Y-128837428D01*
X79080357Y-128908857D01*
X80937500Y-128623142D02*
X81151785Y-128694571D01*
X81508928Y-128694571D01*
X81651785Y-128623142D01*
X81723214Y-128551714D01*
X81794642Y-128408857D01*
X81794642Y-128266000D01*
X81723214Y-128123142D01*
X81651785Y-128051714D01*
X81508928Y-127980285D01*
X81223214Y-127908857D01*
X81080357Y-127837428D01*
X81008928Y-127766000D01*
X80937500Y-127623142D01*
X80937500Y-127480285D01*
X81008928Y-127337428D01*
X81080357Y-127266000D01*
X81223214Y-127194571D01*
X81580357Y-127194571D01*
X81794642Y-127266000D01*
X82366071Y-128623142D02*
X82580357Y-128694571D01*
X82937500Y-128694571D01*
X83080357Y-128623142D01*
X83151785Y-128551714D01*
X83223214Y-128408857D01*
X83223214Y-128266000D01*
X83151785Y-128123142D01*
X83080357Y-128051714D01*
X82937500Y-127980285D01*
X82651785Y-127908857D01*
X82508928Y-127837428D01*
X82437500Y-127766000D01*
X82366071Y-127623142D01*
X82366071Y-127480285D01*
X82437500Y-127337428D01*
X82508928Y-127266000D01*
X82651785Y-127194571D01*
X83008928Y-127194571D01*
X83223214Y-127266000D01*
X58616071Y-129744571D02*
X58901785Y-129744571D01*
X59044642Y-129816000D01*
X59187500Y-129958857D01*
X59258928Y-130244571D01*
X59258928Y-130744571D01*
X59187500Y-131030285D01*
X59044642Y-131173142D01*
X58901785Y-131244571D01*
X58616071Y-131244571D01*
X58473214Y-131173142D01*
X58330357Y-131030285D01*
X58258928Y-130744571D01*
X58258928Y-130244571D01*
X58330357Y-129958857D01*
X58473214Y-129816000D01*
X58616071Y-129744571D01*
X60544642Y-131173142D02*
X60401785Y-131244571D01*
X60116071Y-131244571D01*
X59973214Y-131173142D01*
X59901785Y-131101714D01*
X59830357Y-130958857D01*
X59830357Y-130530285D01*
X59901785Y-130387428D01*
X59973214Y-130316000D01*
X60116071Y-130244571D01*
X60401785Y-130244571D01*
X60544642Y-130316000D01*
X60973214Y-130244571D02*
X61544642Y-130244571D01*
X61187500Y-129744571D02*
X61187500Y-131030285D01*
X61258928Y-131173142D01*
X61401785Y-131244571D01*
X61544642Y-131244571D01*
X62687500Y-131244571D02*
X62687500Y-130458857D01*
X62616071Y-130316000D01*
X62473214Y-130244571D01*
X62187500Y-130244571D01*
X62044642Y-130316000D01*
X62687500Y-131173142D02*
X62544642Y-131244571D01*
X62187500Y-131244571D01*
X62044642Y-131173142D01*
X61973214Y-131030285D01*
X61973214Y-130887428D01*
X62044642Y-130744571D01*
X62187500Y-130673142D01*
X62544642Y-130673142D01*
X62687500Y-130601714D01*
X63401785Y-130244571D02*
X63401785Y-131244571D01*
X63401785Y-130387428D02*
X63473214Y-130316000D01*
X63616071Y-130244571D01*
X63830357Y-130244571D01*
X63973214Y-130316000D01*
X64044642Y-130458857D01*
X64044642Y-131244571D01*
X64758928Y-131244571D02*
X64758928Y-130244571D01*
X64758928Y-129744571D02*
X64687500Y-129816000D01*
X64758928Y-129887428D01*
X64830357Y-129816000D01*
X64758928Y-129744571D01*
X64758928Y-129887428D01*
X65401785Y-131173142D02*
X65544642Y-131244571D01*
X65830357Y-131244571D01*
X65973214Y-131173142D01*
X66044642Y-131030285D01*
X66044642Y-130958857D01*
X65973214Y-130816000D01*
X65830357Y-130744571D01*
X65616071Y-130744571D01*
X65473214Y-130673142D01*
X65401785Y-130530285D01*
X65401785Y-130458857D01*
X65473214Y-130316000D01*
X65616071Y-130244571D01*
X65830357Y-130244571D01*
X65973214Y-130316000D01*
X67830357Y-131244571D02*
X67830357Y-129744571D01*
X68544642Y-130244571D02*
X68544642Y-131244571D01*
X68544642Y-130387428D02*
X68616071Y-130316000D01*
X68758928Y-130244571D01*
X68973214Y-130244571D01*
X69116071Y-130316000D01*
X69187500Y-130458857D01*
X69187500Y-131244571D01*
X69830357Y-131173142D02*
X69973214Y-131244571D01*
X70258928Y-131244571D01*
X70401785Y-131173142D01*
X70473214Y-131030285D01*
X70473214Y-130958857D01*
X70401785Y-130816000D01*
X70258928Y-130744571D01*
X70044642Y-130744571D01*
X69901785Y-130673142D01*
X69830357Y-130530285D01*
X69830357Y-130458857D01*
X69901785Y-130316000D01*
X70044642Y-130244571D01*
X70258928Y-130244571D01*
X70401785Y-130316000D01*
X70901785Y-130244571D02*
X71473214Y-130244571D01*
X71116071Y-129744571D02*
X71116071Y-131030285D01*
X71187500Y-131173142D01*
X71330357Y-131244571D01*
X71473214Y-131244571D01*
X71973214Y-131244571D02*
X71973214Y-130244571D01*
X71973214Y-130530285D02*
X72044642Y-130387428D01*
X72116071Y-130316000D01*
X72258928Y-130244571D01*
X72401785Y-130244571D01*
X73544642Y-130244571D02*
X73544642Y-131244571D01*
X72901785Y-130244571D02*
X72901785Y-131030285D01*
X72973214Y-131173142D01*
X73116071Y-131244571D01*
X73330357Y-131244571D01*
X73473214Y-131173142D01*
X73544642Y-131101714D01*
X74258928Y-131244571D02*
X74258928Y-130244571D01*
X74258928Y-130387428D02*
X74330357Y-130316000D01*
X74473214Y-130244571D01*
X74687500Y-130244571D01*
X74830357Y-130316000D01*
X74901785Y-130458857D01*
X74901785Y-131244571D01*
X74901785Y-130458857D02*
X74973214Y-130316000D01*
X75116071Y-130244571D01*
X75330357Y-130244571D01*
X75473214Y-130316000D01*
X75544642Y-130458857D01*
X75544642Y-131244571D01*
X76830357Y-131173142D02*
X76687500Y-131244571D01*
X76401785Y-131244571D01*
X76258928Y-131173142D01*
X76187500Y-131030285D01*
X76187500Y-130458857D01*
X76258928Y-130316000D01*
X76401785Y-130244571D01*
X76687500Y-130244571D01*
X76830357Y-130316000D01*
X76901785Y-130458857D01*
X76901785Y-130601714D01*
X76187500Y-130744571D01*
X77544642Y-130244571D02*
X77544642Y-131244571D01*
X77544642Y-130387428D02*
X77616071Y-130316000D01*
X77758928Y-130244571D01*
X77973214Y-130244571D01*
X78116071Y-130316000D01*
X78187500Y-130458857D01*
X78187500Y-131244571D01*
X78687500Y-130244571D02*
X79258928Y-130244571D01*
X78901785Y-129744571D02*
X78901785Y-131030285D01*
X78973214Y-131173142D01*
X79116071Y-131244571D01*
X79258928Y-131244571D01*
X79687500Y-131173142D02*
X79830357Y-131244571D01*
X80116071Y-131244571D01*
X80258928Y-131173142D01*
X80330357Y-131030285D01*
X80330357Y-130958857D01*
X80258928Y-130816000D01*
X80116071Y-130744571D01*
X79901785Y-130744571D01*
X79758928Y-130673142D01*
X79687500Y-130530285D01*
X79687500Y-130458857D01*
X79758928Y-130316000D01*
X79901785Y-130244571D01*
X80116071Y-130244571D01*
X80258928Y-130316000D01*
X82401785Y-129744571D02*
X82687500Y-129744571D01*
X82830357Y-129816000D01*
X82973214Y-129958857D01*
X83044642Y-130244571D01*
X83044642Y-130744571D01*
X82973214Y-131030285D01*
X82830357Y-131173142D01*
X82687500Y-131244571D01*
X82401785Y-131244571D01*
X82258928Y-131173142D01*
X82116071Y-131030285D01*
X82044642Y-130744571D01*
X82044642Y-130244571D01*
X82116071Y-129958857D01*
X82258928Y-129816000D01*
X82401785Y-129744571D01*
X83687500Y-129744571D02*
X83687500Y-130958857D01*
X83758928Y-131101714D01*
X83830357Y-131173142D01*
X83973214Y-131244571D01*
X84258928Y-131244571D01*
X84401785Y-131173142D01*
X84473214Y-131101714D01*
X84544642Y-130958857D01*
X84544642Y-129744571D01*
X83830357Y-129244571D02*
X83901785Y-129316000D01*
X83830357Y-129387428D01*
X83758928Y-129316000D01*
X83830357Y-129244571D01*
X83830357Y-129387428D01*
X84401785Y-129244571D02*
X84473214Y-129316000D01*
X84401785Y-129387428D01*
X84330357Y-129316000D01*
X84401785Y-129244571D01*
X84401785Y-129387428D01*
M02*
