G04 #@! TF.GenerationSoftware,KiCad,Pcbnew,5.0.1*
G04 #@! TF.CreationDate,2018-12-13T21:41:05+01:00*
G04 #@! TF.ProjectId,OIBUS_MOSFET_driver_module,4F494255535F4D4F534645545F647269,rev?*
G04 #@! TF.SameCoordinates,Original*
G04 #@! TF.FileFunction,Legend,Top*
G04 #@! TF.FilePolarity,Positive*
%FSLAX46Y46*%
G04 Gerber Fmt 4.6, Leading zero omitted, Abs format (unit mm)*
G04 Created by KiCad (PCBNEW 5.0.1) date Thu 13 Dec 2018 09:41:05 PM CET*
%MOMM*%
%LPD*%
G01*
G04 APERTURE LIST*
%ADD10C,0.120000*%
%ADD11C,0.200000*%
%ADD12C,0.152400*%
%ADD13C,0.127000*%
%ADD14C,0.100000*%
%ADD15C,0.150000*%
%ADD16C,0.254000*%
%ADD17C,0.050000*%
G04 APERTURE END LIST*
D10*
G04 #@! TO.C,C8*
X89316000Y-105633000D02*
X89316000Y-104933000D01*
X90516000Y-104933000D02*
X90516000Y-105633000D01*
G04 #@! TO.C,Y1*
X90837000Y-106883000D02*
X94837000Y-106883000D01*
X90837000Y-103683000D02*
X90837000Y-106883000D01*
D11*
G04 #@! TO.C,D9*
X58829000Y-65951000D02*
X58829000Y-70955000D01*
X61313000Y-70955000D02*
X61313000Y-65553000D01*
D10*
G04 #@! TO.C,C1*
X104140000Y-117981000D02*
X98300000Y-117981000D01*
X104900000Y-117221000D02*
X104140000Y-117981000D01*
X104140000Y-111381000D02*
X104900000Y-112141000D01*
X98300000Y-111381000D02*
X104140000Y-111381000D01*
X104900000Y-117221000D02*
X104900000Y-115801000D01*
X98300000Y-117981000D02*
X98300000Y-115801000D01*
X98300000Y-111381000D02*
X98300000Y-113561000D01*
X104900000Y-112141000D02*
X104900000Y-113561000D01*
G04 #@! TO.C,C2*
X95631000Y-117854000D02*
X94211000Y-117854000D01*
X96391000Y-111254000D02*
X94211000Y-111254000D01*
X89791000Y-111254000D02*
X91971000Y-111254000D01*
X90551000Y-117854000D02*
X91971000Y-117854000D01*
X96391000Y-111254000D02*
X96391000Y-117094000D01*
X96391000Y-117094000D02*
X95631000Y-117854000D01*
X90551000Y-117854000D02*
X89791000Y-117094000D01*
X89791000Y-117094000D02*
X89791000Y-111254000D01*
G04 #@! TO.C,C5*
X92929000Y-66071000D02*
X92929000Y-66771000D01*
X91729000Y-66771000D02*
X91729000Y-66071000D01*
G04 #@! TO.C,C6*
X88865000Y-74326000D02*
X88865000Y-75026000D01*
X87665000Y-75026000D02*
X87665000Y-74326000D01*
G04 #@! TO.C,C7*
X96358000Y-104933000D02*
X96358000Y-105633000D01*
X95158000Y-105633000D02*
X95158000Y-104933000D01*
G04 #@! TO.C,C9*
X96170000Y-102016000D02*
X96870000Y-102016000D01*
X96870000Y-103216000D02*
X96170000Y-103216000D01*
G04 #@! TO.C,C10*
X85883000Y-99222000D02*
X86583000Y-99222000D01*
X86583000Y-100422000D02*
X85883000Y-100422000D01*
G04 #@! TO.C,C11*
X90897000Y-87915000D02*
X90897000Y-88615000D01*
X89697000Y-88615000D02*
X89697000Y-87915000D01*
G04 #@! TO.C,C12*
X86583000Y-98771000D02*
X85883000Y-98771000D01*
X85883000Y-97571000D02*
X86583000Y-97571000D01*
G04 #@! TO.C,C13*
X100934000Y-92421000D02*
X100234000Y-92421000D01*
X100234000Y-91221000D02*
X100934000Y-91221000D01*
G04 #@! TO.C,C14*
X100426000Y-103139800D02*
X99726000Y-103139800D01*
X99726000Y-101939800D02*
X100426000Y-101939800D01*
G04 #@! TO.C,C15*
X99726000Y-103286000D02*
X100426000Y-103286000D01*
X100426000Y-104486000D02*
X99726000Y-104486000D01*
D11*
G04 #@! TO.C,D1*
X128115000Y-109182000D02*
X128115000Y-104178000D01*
X125631000Y-104178000D02*
X125631000Y-109580000D01*
D10*
G04 #@! TO.C,D2*
X118054000Y-105408000D02*
X118984000Y-105408000D01*
X121214000Y-105408000D02*
X120284000Y-105408000D01*
X121214000Y-105408000D02*
X121214000Y-103248000D01*
X118054000Y-105408000D02*
X118054000Y-103948000D01*
D11*
G04 #@! TO.C,D3*
X125631000Y-116751000D02*
X125631000Y-122153000D01*
X128115000Y-121755000D02*
X128115000Y-116751000D01*
D10*
G04 #@! TO.C,D4*
X117927000Y-117981000D02*
X117927000Y-116521000D01*
X121087000Y-117981000D02*
X121087000Y-115821000D01*
X121087000Y-117981000D02*
X120157000Y-117981000D01*
X117927000Y-117981000D02*
X118857000Y-117981000D01*
D11*
G04 #@! TO.C,D5*
X125631000Y-65443000D02*
X125631000Y-70845000D01*
X128115000Y-70447000D02*
X128115000Y-65443000D01*
D10*
G04 #@! TO.C,D6*
X118054000Y-66292000D02*
X118984000Y-66292000D01*
X121214000Y-66292000D02*
X120284000Y-66292000D01*
X121214000Y-66292000D02*
X121214000Y-64132000D01*
X118054000Y-66292000D02*
X118054000Y-64832000D01*
D11*
G04 #@! TO.C,D7*
X125631000Y-91478000D02*
X125631000Y-96880000D01*
X128115000Y-96482000D02*
X128115000Y-91478000D01*
D10*
G04 #@! TO.C,D8*
X118054000Y-92581000D02*
X118054000Y-91121000D01*
X121214000Y-92581000D02*
X121214000Y-90421000D01*
X121214000Y-92581000D02*
X120284000Y-92581000D01*
X118054000Y-92581000D02*
X118984000Y-92581000D01*
G04 #@! TO.C,D10*
X68890000Y-70233000D02*
X67960000Y-70233000D01*
X65730000Y-70233000D02*
X66660000Y-70233000D01*
X65730000Y-70233000D02*
X65730000Y-72393000D01*
X68890000Y-70233000D02*
X68890000Y-71693000D01*
D11*
G04 #@! TO.C,D11*
X61313000Y-96355000D02*
X61313000Y-90953000D01*
X58829000Y-91351000D02*
X58829000Y-96355000D01*
D10*
G04 #@! TO.C,D12*
X68858238Y-95486488D02*
X68858238Y-96946488D01*
X65698238Y-95486488D02*
X65698238Y-97646488D01*
X65698238Y-95486488D02*
X66628238Y-95486488D01*
X68858238Y-95486488D02*
X67928238Y-95486488D01*
D11*
G04 #@! TO.C,D13*
X58829000Y-116878000D02*
X58829000Y-121882000D01*
X61313000Y-121882000D02*
X61313000Y-116480000D01*
D10*
G04 #@! TO.C,D14*
X68952620Y-121490583D02*
X68022620Y-121490583D01*
X65792620Y-121490583D02*
X66722620Y-121490583D01*
X65792620Y-121490583D02*
X65792620Y-123650583D01*
X68952620Y-121490583D02*
X68952620Y-122950583D01*
D11*
G04 #@! TO.C,D15*
X58829000Y-104305000D02*
X58829000Y-109309000D01*
X61313000Y-109309000D02*
X61313000Y-103907000D01*
D10*
G04 #@! TO.C,D16*
X68928866Y-108564810D02*
X68928866Y-110024810D01*
X65768866Y-108564810D02*
X65768866Y-110724810D01*
X65768866Y-108564810D02*
X66698866Y-108564810D01*
X68928866Y-108564810D02*
X67998866Y-108564810D01*
G04 #@! TO.C,D17*
X97835000Y-57387000D02*
X96425000Y-57387000D01*
X96425000Y-59707000D02*
X98455000Y-59707000D01*
X96425000Y-59707000D02*
X96425000Y-59047000D01*
X96425000Y-58047000D02*
X96425000Y-57387000D01*
G04 #@! TO.C,D18*
X104866000Y-120634000D02*
X100966000Y-120634000D01*
X104866000Y-118634000D02*
X100966000Y-118634000D01*
X104866000Y-120634000D02*
X104866000Y-118634000D01*
D11*
G04 #@! TO.C,D19*
X128115000Y-83528000D02*
X128115000Y-78524000D01*
X125631000Y-78524000D02*
X125631000Y-83926000D01*
G04 #@! TO.C,D20*
X61313000Y-83528000D02*
X61313000Y-78126000D01*
X58829000Y-78524000D02*
X58829000Y-83528000D01*
D10*
G04 #@! TO.C,D21*
X118054000Y-79373000D02*
X118054000Y-77913000D01*
X121214000Y-79373000D02*
X121214000Y-77213000D01*
X121214000Y-79373000D02*
X120284000Y-79373000D01*
X118054000Y-79373000D02*
X118984000Y-79373000D01*
G04 #@! TO.C,D22*
X68867985Y-82600617D02*
X67937985Y-82600617D01*
X65707985Y-82600617D02*
X66637985Y-82600617D01*
X65707985Y-82600617D02*
X65707985Y-84760617D01*
X68867985Y-82600617D02*
X68867985Y-84060617D01*
D12*
G04 #@! TO.C,H1*
X70180200Y-51866801D02*
X72313800Y-51866801D01*
X72313800Y-46939201D02*
X70180200Y-46939201D01*
X72720200Y-51866801D02*
X74853800Y-51866801D01*
X74853800Y-46939201D02*
X72720200Y-46939201D01*
X75260200Y-51866801D02*
X77393800Y-51866801D01*
X77393800Y-46939201D02*
X75260200Y-46939201D01*
X77800200Y-51866801D02*
X79933800Y-51866801D01*
X79933800Y-46939201D02*
X77800200Y-46939201D01*
X80340200Y-51866801D02*
X82473800Y-51866801D01*
X82473800Y-46939201D02*
X80340200Y-46939201D01*
X82880200Y-51866801D02*
X85013800Y-51866801D01*
X85013800Y-46939201D02*
X82880200Y-46939201D01*
X85420200Y-51866801D02*
X87553800Y-51866801D01*
X87553800Y-46939201D02*
X85420200Y-46939201D01*
X87960200Y-51866801D02*
X90093800Y-51866801D01*
X90093800Y-46939201D02*
X87960200Y-46939201D01*
X90500200Y-51866801D02*
X92633800Y-51866801D01*
X92633800Y-46939201D02*
X90500200Y-46939201D01*
X93040200Y-51866801D02*
X95173800Y-51866801D01*
X95173800Y-46939201D02*
X93040200Y-46939201D01*
X95580200Y-51866801D02*
X97713800Y-51866801D01*
X97713800Y-46939201D02*
X95580200Y-46939201D01*
X98120200Y-51866801D02*
X100253800Y-51866801D01*
X100253800Y-46939201D02*
X98120200Y-46939201D01*
X100660200Y-51866801D02*
X102793800Y-51866801D01*
X102793800Y-46939201D02*
X100660200Y-46939201D01*
X103200200Y-51866801D02*
X105333800Y-51866801D01*
X105333800Y-46939201D02*
X103200200Y-46939201D01*
X105740200Y-51866801D02*
X107873800Y-51866801D01*
X107873800Y-46939201D02*
X105740200Y-46939201D01*
X108280200Y-51866801D02*
X110413800Y-51866801D01*
X110413800Y-46939201D02*
X108280200Y-46939201D01*
X110820200Y-51866801D02*
X112953800Y-51866801D01*
X112953800Y-46939201D02*
X110820200Y-46939201D01*
X113360200Y-51866801D02*
X115493800Y-51866801D01*
X115493800Y-46939201D02*
X113360200Y-46939201D01*
X115900200Y-51866801D02*
X118033800Y-51866801D01*
X118033800Y-46939201D02*
X115900200Y-46939201D01*
X118440200Y-51866801D02*
X120573800Y-51866801D01*
X120573800Y-46939201D02*
X118440200Y-46939201D01*
X120980200Y-51866801D02*
X123113800Y-51866801D01*
X123113800Y-46939201D02*
X120980200Y-46939201D01*
X123520200Y-51866801D02*
X124866400Y-51866801D01*
X125653800Y-46939201D02*
X123520200Y-46939201D01*
X126847600Y-51866801D02*
X127381000Y-51866801D01*
X60833000Y-46939201D02*
X60833000Y-51866801D01*
X127381000Y-46939201D02*
X126060200Y-46939201D01*
X127381000Y-51866801D02*
X127381000Y-46939201D01*
X60833000Y-51866801D02*
X62153800Y-51866801D01*
X69773800Y-46939201D02*
X67640200Y-46939201D01*
X67640200Y-51866801D02*
X69773800Y-51866801D01*
X67233800Y-46939201D02*
X65100200Y-46939201D01*
X65100200Y-51866801D02*
X67233800Y-51866801D01*
X64693800Y-46939201D02*
X62560200Y-46939201D01*
X62560200Y-51866801D02*
X64693800Y-51866801D01*
X62153800Y-46939201D02*
X60833000Y-46939201D01*
G04 #@! TO.C,H2*
X62153800Y-52019200D02*
X60833000Y-52019200D01*
X62560200Y-56946800D02*
X64693800Y-56946800D01*
X64693800Y-52019200D02*
X62560200Y-52019200D01*
X65100200Y-56946800D02*
X67233800Y-56946800D01*
X67233800Y-52019200D02*
X65100200Y-52019200D01*
X67640200Y-56946800D02*
X69773800Y-56946800D01*
X69773800Y-52019200D02*
X67640200Y-52019200D01*
X60833000Y-56946800D02*
X62153800Y-56946800D01*
X127381000Y-56946800D02*
X127381000Y-52019200D01*
X127381000Y-52019200D02*
X126060200Y-52019200D01*
X60833000Y-52019200D02*
X60833000Y-56946800D01*
X126847600Y-56946800D02*
X127381000Y-56946800D01*
X125653800Y-52019200D02*
X123520200Y-52019200D01*
X123520200Y-56946800D02*
X124866400Y-56946800D01*
X123113800Y-52019200D02*
X120980200Y-52019200D01*
X120980200Y-56946800D02*
X123113800Y-56946800D01*
X120573800Y-52019200D02*
X118440200Y-52019200D01*
X118440200Y-56946800D02*
X120573800Y-56946800D01*
X118033800Y-52019200D02*
X115900200Y-52019200D01*
X115900200Y-56946800D02*
X118033800Y-56946800D01*
X115493800Y-52019200D02*
X113360200Y-52019200D01*
X113360200Y-56946800D02*
X115493800Y-56946800D01*
X112953800Y-52019200D02*
X110820200Y-52019200D01*
X110820200Y-56946800D02*
X112953800Y-56946800D01*
X110413800Y-52019200D02*
X108280200Y-52019200D01*
X108280200Y-56946800D02*
X110413800Y-56946800D01*
X107873800Y-52019200D02*
X105740200Y-52019200D01*
X105740200Y-56946800D02*
X107873800Y-56946800D01*
X105333800Y-52019200D02*
X103200200Y-52019200D01*
X103200200Y-56946800D02*
X105333800Y-56946800D01*
X102793800Y-52019200D02*
X100660200Y-52019200D01*
X100660200Y-56946800D02*
X102793800Y-56946800D01*
X100253800Y-52019200D02*
X98120200Y-52019200D01*
X98120200Y-56946800D02*
X100253800Y-56946800D01*
X97713800Y-52019200D02*
X95580200Y-52019200D01*
X95580200Y-56946800D02*
X97713800Y-56946800D01*
X95173800Y-52019200D02*
X93040200Y-52019200D01*
X93040200Y-56946800D02*
X95173800Y-56946800D01*
X92633800Y-52019200D02*
X90500200Y-52019200D01*
X90500200Y-56946800D02*
X92633800Y-56946800D01*
X90093800Y-52019200D02*
X87960200Y-52019200D01*
X87960200Y-56946800D02*
X90093800Y-56946800D01*
X87553800Y-52019200D02*
X85420200Y-52019200D01*
X85420200Y-56946800D02*
X87553800Y-56946800D01*
X85013800Y-52019200D02*
X82880200Y-52019200D01*
X82880200Y-56946800D02*
X85013800Y-56946800D01*
X82473800Y-52019200D02*
X80340200Y-52019200D01*
X80340200Y-56946800D02*
X82473800Y-56946800D01*
X79933800Y-52019200D02*
X77800200Y-52019200D01*
X77800200Y-56946800D02*
X79933800Y-56946800D01*
X77393800Y-52019200D02*
X75260200Y-52019200D01*
X75260200Y-56946800D02*
X77393800Y-56946800D01*
X74853800Y-52019200D02*
X72720200Y-52019200D01*
X72720200Y-56946800D02*
X74853800Y-56946800D01*
X72313800Y-52019200D02*
X70180200Y-52019200D01*
X70180200Y-56946800D02*
X72313800Y-56946800D01*
D10*
G04 #@! TO.C,J1*
X53848000Y-62865000D02*
X52578000Y-62865000D01*
X53848000Y-61595000D02*
X53848000Y-62865000D01*
X51535071Y-48515000D02*
X51138000Y-48515000D01*
X51535071Y-49275000D02*
X51138000Y-49275000D01*
X42478000Y-48515000D02*
X48478000Y-48515000D01*
X42478000Y-49275000D02*
X42478000Y-48515000D01*
X48478000Y-49275000D02*
X42478000Y-49275000D01*
X51138000Y-50165000D02*
X48478000Y-50165000D01*
X51535071Y-51055000D02*
X51138000Y-51055000D01*
X51535071Y-51815000D02*
X51138000Y-51815000D01*
X42478000Y-51055000D02*
X48478000Y-51055000D01*
X42478000Y-51815000D02*
X42478000Y-51055000D01*
X48478000Y-51815000D02*
X42478000Y-51815000D01*
X51138000Y-52705000D02*
X48478000Y-52705000D01*
X51535071Y-53595000D02*
X51138000Y-53595000D01*
X51535071Y-54355000D02*
X51138000Y-54355000D01*
X42478000Y-53595000D02*
X48478000Y-53595000D01*
X42478000Y-54355000D02*
X42478000Y-53595000D01*
X48478000Y-54355000D02*
X42478000Y-54355000D01*
X51138000Y-55245000D02*
X48478000Y-55245000D01*
X51535071Y-56135000D02*
X51138000Y-56135000D01*
X51535071Y-56895000D02*
X51138000Y-56895000D01*
X42478000Y-56135000D02*
X48478000Y-56135000D01*
X42478000Y-56895000D02*
X42478000Y-56135000D01*
X48478000Y-56895000D02*
X42478000Y-56895000D01*
X51138000Y-57785000D02*
X48478000Y-57785000D01*
X51535071Y-58675000D02*
X51138000Y-58675000D01*
X51535071Y-59435000D02*
X51138000Y-59435000D01*
X42478000Y-58675000D02*
X48478000Y-58675000D01*
X42478000Y-59435000D02*
X42478000Y-58675000D01*
X48478000Y-59435000D02*
X42478000Y-59435000D01*
X51138000Y-60325000D02*
X48478000Y-60325000D01*
X51468000Y-61215000D02*
X51138000Y-61215000D01*
X51468000Y-61975000D02*
X51138000Y-61975000D01*
X48478000Y-61315000D02*
X42478000Y-61315000D01*
X48478000Y-61435000D02*
X42478000Y-61435000D01*
X48478000Y-61555000D02*
X42478000Y-61555000D01*
X48478000Y-61675000D02*
X42478000Y-61675000D01*
X48478000Y-61795000D02*
X42478000Y-61795000D01*
X48478000Y-61915000D02*
X42478000Y-61915000D01*
X42478000Y-61215000D02*
X48478000Y-61215000D01*
X42478000Y-61975000D02*
X42478000Y-61215000D01*
X48478000Y-61975000D02*
X42478000Y-61975000D01*
X48478000Y-62925000D02*
X51138000Y-62925000D01*
X48478000Y-47565000D02*
X48478000Y-62925000D01*
X51138000Y-47565000D02*
X48478000Y-47565000D01*
X51138000Y-62925000D02*
X51138000Y-47565000D01*
G04 #@! TO.C,J2*
X109220000Y-121539000D02*
X109220000Y-122809000D01*
X107950000Y-121539000D02*
X109220000Y-121539000D01*
X105030000Y-123851929D02*
X105030000Y-124249000D01*
X105790000Y-123851929D02*
X105790000Y-124249000D01*
X105030000Y-132909000D02*
X105030000Y-126909000D01*
X105790000Y-132909000D02*
X105030000Y-132909000D01*
X105790000Y-126909000D02*
X105790000Y-132909000D01*
X106680000Y-124249000D02*
X106680000Y-126909000D01*
X107570000Y-123919000D02*
X107570000Y-124249000D01*
X108330000Y-123919000D02*
X108330000Y-124249000D01*
X107670000Y-126909000D02*
X107670000Y-132909000D01*
X107790000Y-126909000D02*
X107790000Y-132909000D01*
X107910000Y-126909000D02*
X107910000Y-132909000D01*
X108030000Y-126909000D02*
X108030000Y-132909000D01*
X108150000Y-126909000D02*
X108150000Y-132909000D01*
X108270000Y-126909000D02*
X108270000Y-132909000D01*
X107570000Y-132909000D02*
X107570000Y-126909000D01*
X108330000Y-132909000D02*
X107570000Y-132909000D01*
X108330000Y-126909000D02*
X108330000Y-132909000D01*
X109280000Y-126909000D02*
X109280000Y-124249000D01*
X104080000Y-126909000D02*
X109280000Y-126909000D01*
X104080000Y-124249000D02*
X104080000Y-126909000D01*
X109280000Y-124249000D02*
X104080000Y-124249000D01*
D11*
G04 #@! TO.C,J4*
X138175000Y-108585000D02*
X138175000Y-102185000D01*
X138175000Y-102185000D02*
X128975000Y-102185000D01*
X128975000Y-102185000D02*
X128975000Y-111185000D01*
X128975000Y-111185000D02*
X130175000Y-111185000D01*
G04 #@! TO.C,J5*
X128975000Y-123758000D02*
X130175000Y-123758000D01*
X128975000Y-114758000D02*
X128975000Y-123758000D01*
X138175000Y-114758000D02*
X128975000Y-114758000D01*
X138175000Y-121158000D02*
X138175000Y-114758000D01*
G04 #@! TO.C,J6*
X138175000Y-69850000D02*
X138175000Y-63450000D01*
X138175000Y-63450000D02*
X128975000Y-63450000D01*
X128975000Y-63450000D02*
X128975000Y-72450000D01*
X128975000Y-72450000D02*
X130175000Y-72450000D01*
G04 #@! TO.C,J7*
X128975000Y-98485000D02*
X130175000Y-98485000D01*
X128975000Y-89485000D02*
X128975000Y-98485000D01*
X138175000Y-89485000D02*
X128975000Y-89485000D01*
X138175000Y-95885000D02*
X138175000Y-89485000D01*
G04 #@! TO.C,J8*
X48769000Y-66421000D02*
X48769000Y-72821000D01*
X48769000Y-72821000D02*
X57969000Y-72821000D01*
X57969000Y-72821000D02*
X57969000Y-63821000D01*
X57969000Y-63821000D02*
X56769000Y-63821000D01*
G04 #@! TO.C,J9*
X57969000Y-89348000D02*
X56769000Y-89348000D01*
X57969000Y-98348000D02*
X57969000Y-89348000D01*
X48769000Y-98348000D02*
X57969000Y-98348000D01*
X48769000Y-91948000D02*
X48769000Y-98348000D01*
G04 #@! TO.C,J10*
X48769000Y-117348000D02*
X48769000Y-123748000D01*
X48769000Y-123748000D02*
X57969000Y-123748000D01*
X57969000Y-123748000D02*
X57969000Y-114748000D01*
X57969000Y-114748000D02*
X56769000Y-114748000D01*
G04 #@! TO.C,J11*
X57969000Y-102175000D02*
X56769000Y-102175000D01*
X57969000Y-111175000D02*
X57969000Y-102175000D01*
X48769000Y-111175000D02*
X57969000Y-111175000D01*
X48769000Y-104775000D02*
X48769000Y-111175000D01*
G04 #@! TO.C,J12*
X128975000Y-85531000D02*
X130175000Y-85531000D01*
X128975000Y-76531000D02*
X128975000Y-85531000D01*
X138175000Y-76531000D02*
X128975000Y-76531000D01*
X138175000Y-82931000D02*
X138175000Y-76531000D01*
G04 #@! TO.C,J13*
X48769000Y-79121000D02*
X48769000Y-85521000D01*
X48769000Y-85521000D02*
X57969000Y-85521000D01*
X57969000Y-85521000D02*
X57969000Y-76521000D01*
X57969000Y-76521000D02*
X56769000Y-76521000D01*
D10*
G04 #@! TO.C,JP1*
X107234000Y-85707000D02*
G75*
G02X107934000Y-86407000I0J-700000D01*
G01*
X105934000Y-86407000D02*
G75*
G02X106634000Y-85707000I700000J0D01*
G01*
X106634000Y-89807000D02*
G75*
G02X105934000Y-89107000I0J700000D01*
G01*
X107934000Y-89107000D02*
G75*
G02X107234000Y-89807000I-700000J0D01*
G01*
X107934000Y-86357000D02*
X107934000Y-89157000D01*
X107234000Y-89807000D02*
X106634000Y-89807000D01*
X105934000Y-89157000D02*
X105934000Y-86357000D01*
X106634000Y-85707000D02*
X107234000Y-85707000D01*
X105734000Y-86557000D02*
X105434000Y-86257000D01*
X105434000Y-86257000D02*
X105434000Y-86857000D01*
X105734000Y-86557000D02*
X105434000Y-86857000D01*
G04 #@! TO.C,JP2*
X105734000Y-81477000D02*
X105434000Y-81777000D01*
X105434000Y-81177000D02*
X105434000Y-81777000D01*
X105734000Y-81477000D02*
X105434000Y-81177000D01*
X106634000Y-80627000D02*
X107234000Y-80627000D01*
X105934000Y-84077000D02*
X105934000Y-81277000D01*
X107234000Y-84727000D02*
X106634000Y-84727000D01*
X107934000Y-81277000D02*
X107934000Y-84077000D01*
X107934000Y-84027000D02*
G75*
G02X107234000Y-84727000I-700000J0D01*
G01*
X106634000Y-84727000D02*
G75*
G02X105934000Y-84027000I0J700000D01*
G01*
X105934000Y-81327000D02*
G75*
G02X106634000Y-80627000I700000J0D01*
G01*
X107234000Y-80627000D02*
G75*
G02X107934000Y-81327000I0J-700000D01*
G01*
G04 #@! TO.C,JP3*
X105746000Y-98290000D02*
X105746000Y-97290000D01*
X107106000Y-97290000D02*
X107106000Y-98290000D01*
G04 #@! TO.C,JP5*
X129966000Y-52713000D02*
X129966000Y-53713000D01*
X128606000Y-53713000D02*
X128606000Y-52713000D01*
G04 #@! TO.C,JP9*
X82976000Y-62238000D02*
X82976000Y-63238000D01*
X81616000Y-63238000D02*
X81616000Y-62238000D01*
G04 #@! TO.C,JP10*
X80436000Y-66683000D02*
X80436000Y-67683000D01*
X79076000Y-67683000D02*
X79076000Y-66683000D01*
G04 #@! TO.C,JP11*
X84881000Y-62365000D02*
X84881000Y-63365000D01*
X83521000Y-63365000D02*
X83521000Y-62365000D01*
G04 #@! TO.C,JP12*
X85426000Y-63365000D02*
X85426000Y-62365000D01*
X86786000Y-62365000D02*
X86786000Y-63365000D01*
G04 #@! TO.C,JP21*
X102317000Y-59174000D02*
X102317000Y-58174000D01*
X103677000Y-58174000D02*
X103677000Y-59174000D01*
G04 #@! TO.C,JP22*
X106217000Y-58174000D02*
X106217000Y-59174000D01*
X104857000Y-59174000D02*
X104857000Y-58174000D01*
G04 #@! TO.C,JP23*
X107397000Y-59174000D02*
X107397000Y-58174000D01*
X108757000Y-58174000D02*
X108757000Y-59174000D01*
G04 #@! TO.C,JP24*
X111297000Y-58174000D02*
X111297000Y-59174000D01*
X109937000Y-59174000D02*
X109937000Y-58174000D01*
G04 #@! TO.C,JP25*
X113837000Y-58174000D02*
X113837000Y-59174000D01*
X112477000Y-59174000D02*
X112477000Y-58174000D01*
G04 #@! TO.C,JP26*
X116504000Y-58174000D02*
X116504000Y-59174000D01*
X115144000Y-59174000D02*
X115144000Y-58174000D01*
G04 #@! TO.C,JP27*
X118917000Y-58174000D02*
X118917000Y-59174000D01*
X117557000Y-59174000D02*
X117557000Y-58174000D01*
G04 #@! TO.C,JP28*
X100793000Y-108323000D02*
X100793000Y-107323000D01*
X102153000Y-107323000D02*
X102153000Y-108323000D01*
G04 #@! TO.C,JP29*
X91522000Y-58920000D02*
X91522000Y-57920000D01*
X92882000Y-57920000D02*
X92882000Y-58920000D01*
G04 #@! TO.C,L1*
X100676000Y-101718000D02*
X99476000Y-101718000D01*
X99476000Y-99958000D02*
X100676000Y-99958000D01*
G04 #@! TO.C,LED1*
X127284000Y-112768000D02*
X125184000Y-112768000D01*
X127284000Y-111768000D02*
X125184000Y-111768000D01*
X127284000Y-112768000D02*
X127284000Y-111768000D01*
G04 #@! TO.C,LED2*
X127665000Y-125468000D02*
X127665000Y-124468000D01*
X127665000Y-124468000D02*
X125565000Y-124468000D01*
X127665000Y-125468000D02*
X125565000Y-125468000D01*
G04 #@! TO.C,LED3*
X127030000Y-74033000D02*
X127030000Y-73033000D01*
X127030000Y-73033000D02*
X124930000Y-73033000D01*
X127030000Y-74033000D02*
X124930000Y-74033000D01*
G04 #@! TO.C,LED4*
X127411000Y-100195000D02*
X127411000Y-99195000D01*
X127411000Y-99195000D02*
X125311000Y-99195000D01*
X127411000Y-100195000D02*
X125311000Y-100195000D01*
G04 #@! TO.C,LED5*
X59914000Y-62111000D02*
X59914000Y-63111000D01*
X59914000Y-63111000D02*
X62014000Y-63111000D01*
X59914000Y-62111000D02*
X62014000Y-62111000D01*
G04 #@! TO.C,LED6*
X59787000Y-87892000D02*
X59787000Y-88892000D01*
X59787000Y-88892000D02*
X61887000Y-88892000D01*
X59787000Y-87892000D02*
X61887000Y-87892000D01*
G04 #@! TO.C,LED7*
X59533000Y-113292000D02*
X61633000Y-113292000D01*
X59533000Y-114292000D02*
X61633000Y-114292000D01*
X59533000Y-113292000D02*
X59533000Y-114292000D01*
G04 #@! TO.C,LED8*
X59533000Y-100719000D02*
X61633000Y-100719000D01*
X59533000Y-101719000D02*
X61633000Y-101719000D01*
X59533000Y-100719000D02*
X59533000Y-101719000D01*
G04 #@! TO.C,LED9*
X75662000Y-44712000D02*
X77762000Y-44712000D01*
X75662000Y-45712000D02*
X77762000Y-45712000D01*
X75662000Y-44712000D02*
X75662000Y-45712000D01*
G04 #@! TO.C,LED10*
X127157000Y-87114000D02*
X125057000Y-87114000D01*
X127157000Y-86114000D02*
X125057000Y-86114000D01*
X127157000Y-87114000D02*
X127157000Y-86114000D01*
G04 #@! TO.C,LED11*
X59914000Y-74938000D02*
X62014000Y-74938000D01*
X59914000Y-75938000D02*
X62014000Y-75938000D01*
X59914000Y-74938000D02*
X59914000Y-75938000D01*
G04 #@! TO.C,R1*
X123436000Y-112948000D02*
X122436000Y-112948000D01*
X122436000Y-111588000D02*
X123436000Y-111588000D01*
G04 #@! TO.C,R2*
X120134000Y-107868000D02*
X119134000Y-107868000D01*
X119134000Y-106508000D02*
X120134000Y-106508000D01*
G04 #@! TO.C,R3*
X122690000Y-124288000D02*
X123690000Y-124288000D01*
X123690000Y-125648000D02*
X122690000Y-125648000D01*
G04 #@! TO.C,R4*
X119007000Y-119081000D02*
X120007000Y-119081000D01*
X120007000Y-120441000D02*
X119007000Y-120441000D01*
G04 #@! TO.C,R5*
X123055000Y-74213000D02*
X122055000Y-74213000D01*
X122055000Y-72853000D02*
X123055000Y-72853000D01*
G04 #@! TO.C,R6*
X120134000Y-68752000D02*
X119134000Y-68752000D01*
X119134000Y-67392000D02*
X120134000Y-67392000D01*
G04 #@! TO.C,R7*
X122436000Y-99015000D02*
X123436000Y-99015000D01*
X123436000Y-100375000D02*
X122436000Y-100375000D01*
G04 #@! TO.C,R8*
X119134000Y-93681000D02*
X120134000Y-93681000D01*
X120134000Y-95041000D02*
X119134000Y-95041000D01*
G04 #@! TO.C,R9*
X63635000Y-61931000D02*
X64635000Y-61931000D01*
X64635000Y-63291000D02*
X63635000Y-63291000D01*
G04 #@! TO.C,R10*
X66810000Y-67519000D02*
X67810000Y-67519000D01*
X67810000Y-68879000D02*
X66810000Y-68879000D01*
G04 #@! TO.C,R11*
X64508000Y-89072000D02*
X63508000Y-89072000D01*
X63508000Y-87712000D02*
X64508000Y-87712000D01*
G04 #@! TO.C,R12*
X67790238Y-94132488D02*
X66790238Y-94132488D01*
X66790238Y-92772488D02*
X67790238Y-92772488D01*
G04 #@! TO.C,R13*
X63254000Y-113112000D02*
X64254000Y-113112000D01*
X64254000Y-114472000D02*
X63254000Y-114472000D01*
G04 #@! TO.C,R14*
X66872620Y-118776583D02*
X67872620Y-118776583D01*
X67872620Y-120136583D02*
X66872620Y-120136583D01*
G04 #@! TO.C,R15*
X64254000Y-101899000D02*
X63254000Y-101899000D01*
X63254000Y-100539000D02*
X64254000Y-100539000D01*
G04 #@! TO.C,R16*
X67848866Y-107210810D02*
X66848866Y-107210810D01*
X66848866Y-105850810D02*
X67848866Y-105850810D01*
G04 #@! TO.C,R17*
X110625000Y-113366000D02*
X111625000Y-113366000D01*
X111625000Y-114726000D02*
X110625000Y-114726000D01*
G04 #@! TO.C,R18*
X110625000Y-125812000D02*
X111625000Y-125812000D01*
X111625000Y-127172000D02*
X110625000Y-127172000D01*
G04 #@! TO.C,R19*
X111514000Y-74123000D02*
X112514000Y-74123000D01*
X112514000Y-75483000D02*
X111514000Y-75483000D01*
G04 #@! TO.C,R20*
X111625000Y-101899000D02*
X110625000Y-101899000D01*
X110625000Y-100539000D02*
X111625000Y-100539000D01*
G04 #@! TO.C,R21*
X76700000Y-63545000D02*
X75700000Y-63545000D01*
X75700000Y-62185000D02*
X76700000Y-62185000D01*
G04 #@! TO.C,R22*
X75700000Y-87585000D02*
X76700000Y-87585000D01*
X76700000Y-88945000D02*
X75700000Y-88945000D01*
G04 #@! TO.C,R23*
X75700000Y-112350000D02*
X76700000Y-112350000D01*
X76700000Y-113710000D02*
X75700000Y-113710000D01*
G04 #@! TO.C,R24*
X76700000Y-101391000D02*
X75700000Y-101391000D01*
X75700000Y-100031000D02*
X76700000Y-100031000D01*
G04 #@! TO.C,R25*
X89989000Y-71104000D02*
X89989000Y-69104000D01*
X92129000Y-69104000D02*
X92129000Y-71104000D01*
G04 #@! TO.C,R26*
X92529000Y-71104000D02*
X92529000Y-69104000D01*
X94669000Y-69104000D02*
X94669000Y-71104000D01*
G04 #@! TO.C,R27*
X74160000Y-45892000D02*
X73160000Y-45892000D01*
X73160000Y-44532000D02*
X74160000Y-44532000D01*
G04 #@! TO.C,R28*
X123309000Y-87294000D02*
X122309000Y-87294000D01*
X122309000Y-85934000D02*
X123309000Y-85934000D01*
G04 #@! TO.C,R29*
X63762000Y-74758000D02*
X64762000Y-74758000D01*
X64762000Y-76118000D02*
X63762000Y-76118000D01*
G04 #@! TO.C,R30*
X120122000Y-81833000D02*
X119122000Y-81833000D01*
X119122000Y-80473000D02*
X120122000Y-80473000D01*
G04 #@! TO.C,R31*
X66787985Y-79759617D02*
X67787985Y-79759617D01*
X67787985Y-81119617D02*
X66787985Y-81119617D01*
G04 #@! TO.C,R32*
X112641000Y-88818000D02*
X111641000Y-88818000D01*
X111641000Y-87458000D02*
X112641000Y-87458000D01*
G04 #@! TO.C,R33*
X76700000Y-75991000D02*
X75700000Y-75991000D01*
X75700000Y-74631000D02*
X76700000Y-74631000D01*
D11*
G04 #@! TO.C,T1*
X124892000Y-102696000D02*
X124892000Y-103746000D01*
X121867000Y-104096000D02*
X124767000Y-104096000D01*
X121867000Y-104946000D02*
X121867000Y-104096000D01*
X124767000Y-104946000D02*
X121867000Y-104946000D01*
X124767000Y-104096000D02*
X124767000Y-104946000D01*
G04 #@! TO.C,T2*
X124640000Y-116512000D02*
X124640000Y-117362000D01*
X124640000Y-117362000D02*
X121740000Y-117362000D01*
X121740000Y-117362000D02*
X121740000Y-116512000D01*
X121740000Y-116512000D02*
X124640000Y-116512000D01*
X124765000Y-115112000D02*
X124765000Y-116162000D01*
G04 #@! TO.C,T3*
X124767000Y-65107000D02*
X124767000Y-65957000D01*
X124767000Y-65957000D02*
X121867000Y-65957000D01*
X121867000Y-65957000D02*
X121867000Y-65107000D01*
X121867000Y-65107000D02*
X124767000Y-65107000D01*
X124892000Y-63707000D02*
X124892000Y-64757000D01*
G04 #@! TO.C,T4*
X124892000Y-89869000D02*
X124892000Y-90919000D01*
X121867000Y-91269000D02*
X124767000Y-91269000D01*
X121867000Y-92119000D02*
X121867000Y-91269000D01*
X124767000Y-92119000D02*
X121867000Y-92119000D01*
X124767000Y-91269000D02*
X124767000Y-92119000D01*
G04 #@! TO.C,T5*
X62052000Y-72437000D02*
X62052000Y-71387000D01*
X65077000Y-71037000D02*
X62177000Y-71037000D01*
X65077000Y-70187000D02*
X65077000Y-71037000D01*
X62177000Y-70187000D02*
X65077000Y-70187000D01*
X62177000Y-71037000D02*
X62177000Y-70187000D01*
G04 #@! TO.C,T6*
X62177000Y-96437000D02*
X62177000Y-95587000D01*
X62177000Y-95587000D02*
X65077000Y-95587000D01*
X65077000Y-95587000D02*
X65077000Y-96437000D01*
X65077000Y-96437000D02*
X62177000Y-96437000D01*
X62052000Y-97837000D02*
X62052000Y-96787000D01*
G04 #@! TO.C,T7*
X62177000Y-122345000D02*
X62177000Y-121495000D01*
X62177000Y-121495000D02*
X65077000Y-121495000D01*
X65077000Y-121495000D02*
X65077000Y-122345000D01*
X65077000Y-122345000D02*
X62177000Y-122345000D01*
X62052000Y-123745000D02*
X62052000Y-122695000D01*
G04 #@! TO.C,T8*
X62052000Y-110918000D02*
X62052000Y-109868000D01*
X65077000Y-109518000D02*
X62177000Y-109518000D01*
X65077000Y-108668000D02*
X65077000Y-109518000D01*
X62177000Y-108668000D02*
X65077000Y-108668000D01*
X62177000Y-109518000D02*
X62177000Y-108668000D01*
G04 #@! TO.C,T9*
X124767000Y-78188000D02*
X124767000Y-79038000D01*
X124767000Y-79038000D02*
X121867000Y-79038000D01*
X121867000Y-79038000D02*
X121867000Y-78188000D01*
X121867000Y-78188000D02*
X124767000Y-78188000D01*
X124892000Y-76788000D02*
X124892000Y-77838000D01*
G04 #@! TO.C,T10*
X62052000Y-84883000D02*
X62052000Y-83833000D01*
X65077000Y-83483000D02*
X62177000Y-83483000D01*
X65077000Y-82633000D02*
X65077000Y-83483000D01*
X62177000Y-82633000D02*
X65077000Y-82633000D01*
X62177000Y-83483000D02*
X62177000Y-82633000D01*
D10*
G04 #@! TO.C,U1*
X110938000Y-107077000D02*
G75*
G02X110938000Y-109077000I0J-1000000D01*
G01*
X110938000Y-109077000D02*
X110938000Y-110527000D01*
X110938000Y-110527000D02*
X116138000Y-110527000D01*
X116138000Y-110527000D02*
X116138000Y-105627000D01*
X116138000Y-105627000D02*
X110938000Y-105627000D01*
X110938000Y-105627000D02*
X110938000Y-107077000D01*
G04 #@! TO.C,U2*
X110938000Y-118073000D02*
X110938000Y-119523000D01*
X116138000Y-118073000D02*
X110938000Y-118073000D01*
X116138000Y-122973000D02*
X116138000Y-118073000D01*
X110938000Y-122973000D02*
X116138000Y-122973000D01*
X110938000Y-121523000D02*
X110938000Y-122973000D01*
X110938000Y-119523000D02*
G75*
G02X110938000Y-121523000I0J-1000000D01*
G01*
G04 #@! TO.C,U3*
X110938000Y-67834000D02*
G75*
G02X110938000Y-69834000I0J-1000000D01*
G01*
X110938000Y-69834000D02*
X110938000Y-71284000D01*
X110938000Y-71284000D02*
X116138000Y-71284000D01*
X116138000Y-71284000D02*
X116138000Y-66384000D01*
X116138000Y-66384000D02*
X110938000Y-66384000D01*
X110938000Y-66384000D02*
X110938000Y-67834000D01*
G04 #@! TO.C,U4*
X110938000Y-92800000D02*
X110938000Y-94250000D01*
X116138000Y-92800000D02*
X110938000Y-92800000D01*
X116138000Y-97700000D02*
X116138000Y-92800000D01*
X110938000Y-97700000D02*
X116138000Y-97700000D01*
X110938000Y-96250000D02*
X110938000Y-97700000D01*
X110938000Y-94250000D02*
G75*
G02X110938000Y-96250000I0J-1000000D01*
G01*
G04 #@! TO.C,U5*
X76006000Y-71284000D02*
X76006000Y-69834000D01*
X70806000Y-71284000D02*
X76006000Y-71284000D01*
X70806000Y-66384000D02*
X70806000Y-71284000D01*
X76006000Y-66384000D02*
X70806000Y-66384000D01*
X76006000Y-67834000D02*
X76006000Y-66384000D01*
X76006000Y-69834000D02*
G75*
G02X76006000Y-67834000I0J1000000D01*
G01*
G04 #@! TO.C,U6*
X76006000Y-95234000D02*
G75*
G02X76006000Y-93234000I0J1000000D01*
G01*
X76006000Y-93234000D02*
X76006000Y-91784000D01*
X76006000Y-91784000D02*
X70806000Y-91784000D01*
X70806000Y-91784000D02*
X70806000Y-96684000D01*
X70806000Y-96684000D02*
X76006000Y-96684000D01*
X76006000Y-96684000D02*
X76006000Y-95234000D01*
G04 #@! TO.C,U7*
X76006000Y-121449000D02*
X76006000Y-119999000D01*
X70806000Y-121449000D02*
X76006000Y-121449000D01*
X70806000Y-116549000D02*
X70806000Y-121449000D01*
X76006000Y-116549000D02*
X70806000Y-116549000D01*
X76006000Y-117999000D02*
X76006000Y-116549000D01*
X76006000Y-119999000D02*
G75*
G02X76006000Y-117999000I0J1000000D01*
G01*
G04 #@! TO.C,U8*
X76006000Y-107680000D02*
G75*
G02X76006000Y-105680000I0J1000000D01*
G01*
X76006000Y-105680000D02*
X76006000Y-104230000D01*
X76006000Y-104230000D02*
X70806000Y-104230000D01*
X70806000Y-104230000D02*
X70806000Y-109130000D01*
X70806000Y-109130000D02*
X76006000Y-109130000D01*
X76006000Y-109130000D02*
X76006000Y-107680000D01*
G04 #@! TO.C,U9*
X90719000Y-73522000D02*
X90719000Y-75972000D01*
X93939000Y-75322000D02*
X93939000Y-73522000D01*
G04 #@! TO.C,U10*
X89785000Y-91563000D02*
X90205000Y-91563000D01*
X96905000Y-91563000D02*
X96485000Y-91563000D01*
X96905000Y-98683000D02*
X96485000Y-98683000D01*
X89785000Y-98683000D02*
X89785000Y-98263000D01*
X96905000Y-91563000D02*
X96905000Y-91983000D01*
X89785000Y-91563000D02*
X89785000Y-91983000D01*
X90205000Y-98683000D02*
X90205000Y-100063000D01*
X89785000Y-98683000D02*
X90205000Y-98683000D01*
X96905000Y-98683000D02*
X96905000Y-98263000D01*
G04 #@! TO.C,U11*
X111065000Y-81042000D02*
G75*
G02X111065000Y-83042000I0J-1000000D01*
G01*
X111065000Y-83042000D02*
X111065000Y-84492000D01*
X111065000Y-84492000D02*
X116265000Y-84492000D01*
X116265000Y-84492000D02*
X116265000Y-79592000D01*
X116265000Y-79592000D02*
X111065000Y-79592000D01*
X111065000Y-79592000D02*
X111065000Y-81042000D01*
G04 #@! TO.C,U12*
X76006000Y-83730000D02*
X76006000Y-82280000D01*
X70806000Y-83730000D02*
X76006000Y-83730000D01*
X70806000Y-78830000D02*
X70806000Y-83730000D01*
X76006000Y-78830000D02*
X70806000Y-78830000D01*
X76006000Y-80280000D02*
X76006000Y-78830000D01*
X76006000Y-82280000D02*
G75*
G02X76006000Y-80280000I0J1000000D01*
G01*
D13*
G04 #@! TO.C,J3*
X90742000Y-135842000D02*
X98742000Y-135842000D01*
X98742000Y-135842000D02*
X98742000Y-120182000D01*
X98742000Y-120182000D02*
X90742000Y-120182000D01*
X90742000Y-120182000D02*
X90742000Y-135842000D01*
D14*
X93242000Y-120932000D02*
G75*
G03X93242000Y-120932000I-250000J0D01*
G01*
G04 #@! TO.C,C8*
D15*
X88876142Y-106084666D02*
X88923761Y-106132285D01*
X88971380Y-106275142D01*
X88971380Y-106370380D01*
X88923761Y-106513238D01*
X88828523Y-106608476D01*
X88733285Y-106656095D01*
X88542809Y-106703714D01*
X88399952Y-106703714D01*
X88209476Y-106656095D01*
X88114238Y-106608476D01*
X88019000Y-106513238D01*
X87971380Y-106370380D01*
X87971380Y-106275142D01*
X88019000Y-106132285D01*
X88066619Y-106084666D01*
X88399952Y-105513238D02*
X88352333Y-105608476D01*
X88304714Y-105656095D01*
X88209476Y-105703714D01*
X88161857Y-105703714D01*
X88066619Y-105656095D01*
X88019000Y-105608476D01*
X87971380Y-105513238D01*
X87971380Y-105322761D01*
X88019000Y-105227523D01*
X88066619Y-105179904D01*
X88161857Y-105132285D01*
X88209476Y-105132285D01*
X88304714Y-105179904D01*
X88352333Y-105227523D01*
X88399952Y-105322761D01*
X88399952Y-105513238D01*
X88447571Y-105608476D01*
X88495190Y-105656095D01*
X88590428Y-105703714D01*
X88780904Y-105703714D01*
X88876142Y-105656095D01*
X88923761Y-105608476D01*
X88971380Y-105513238D01*
X88971380Y-105322761D01*
X88923761Y-105227523D01*
X88876142Y-105179904D01*
X88780904Y-105132285D01*
X88590428Y-105132285D01*
X88495190Y-105179904D01*
X88447571Y-105227523D01*
X88399952Y-105322761D01*
G04 #@! TO.C,Y1*
X92233809Y-107799190D02*
X92233809Y-108275380D01*
X91900476Y-107275380D02*
X92233809Y-107799190D01*
X92567142Y-107275380D01*
X93424285Y-108275380D02*
X92852857Y-108275380D01*
X93138571Y-108275380D02*
X93138571Y-107275380D01*
X93043333Y-107418238D01*
X92948095Y-107513476D01*
X92852857Y-107561095D01*
G04 #@! TO.C,D9*
D16*
X60645523Y-69390380D02*
X59375523Y-69390380D01*
X59375523Y-69088000D01*
X59436000Y-68906571D01*
X59556952Y-68785619D01*
X59677904Y-68725142D01*
X59919809Y-68664666D01*
X60101238Y-68664666D01*
X60343142Y-68725142D01*
X60464095Y-68785619D01*
X60585047Y-68906571D01*
X60645523Y-69088000D01*
X60645523Y-69390380D01*
X60645523Y-68059904D02*
X60645523Y-67818000D01*
X60585047Y-67697047D01*
X60524571Y-67636571D01*
X60343142Y-67515619D01*
X60101238Y-67455142D01*
X59617428Y-67455142D01*
X59496476Y-67515619D01*
X59436000Y-67576095D01*
X59375523Y-67697047D01*
X59375523Y-67938952D01*
X59436000Y-68059904D01*
X59496476Y-68120380D01*
X59617428Y-68180857D01*
X59919809Y-68180857D01*
X60040761Y-68120380D01*
X60101238Y-68059904D01*
X60161714Y-67938952D01*
X60161714Y-67697047D01*
X60101238Y-67576095D01*
X60040761Y-67515619D01*
X59919809Y-67455142D01*
G04 #@! TO.C,C1*
D15*
X101433333Y-110608142D02*
X101385714Y-110655761D01*
X101242857Y-110703380D01*
X101147619Y-110703380D01*
X101004761Y-110655761D01*
X100909523Y-110560523D01*
X100861904Y-110465285D01*
X100814285Y-110274809D01*
X100814285Y-110131952D01*
X100861904Y-109941476D01*
X100909523Y-109846238D01*
X101004761Y-109751000D01*
X101147619Y-109703380D01*
X101242857Y-109703380D01*
X101385714Y-109751000D01*
X101433333Y-109798619D01*
X102385714Y-110703380D02*
X101814285Y-110703380D01*
X102100000Y-110703380D02*
X102100000Y-109703380D01*
X102004761Y-109846238D01*
X101909523Y-109941476D01*
X101814285Y-109989095D01*
X105499047Y-111842428D02*
X106260952Y-111842428D01*
X105880000Y-112223380D02*
X105880000Y-111461476D01*
G04 #@! TO.C,C2*
X89003142Y-117006666D02*
X89050761Y-117054285D01*
X89098380Y-117197142D01*
X89098380Y-117292380D01*
X89050761Y-117435238D01*
X88955523Y-117530476D01*
X88860285Y-117578095D01*
X88669809Y-117625714D01*
X88526952Y-117625714D01*
X88336476Y-117578095D01*
X88241238Y-117530476D01*
X88146000Y-117435238D01*
X88098380Y-117292380D01*
X88098380Y-117197142D01*
X88146000Y-117054285D01*
X88193619Y-117006666D01*
X88193619Y-116625714D02*
X88146000Y-116578095D01*
X88098380Y-116482857D01*
X88098380Y-116244761D01*
X88146000Y-116149523D01*
X88193619Y-116101904D01*
X88288857Y-116054285D01*
X88384095Y-116054285D01*
X88526952Y-116101904D01*
X89098380Y-116673333D01*
X89098380Y-116054285D01*
X96072428Y-119214952D02*
X96072428Y-118453047D01*
X96453380Y-118834000D02*
X95691476Y-118834000D01*
G04 #@! TO.C,C5*
X94083142Y-66460666D02*
X94130761Y-66508285D01*
X94178380Y-66651142D01*
X94178380Y-66746380D01*
X94130761Y-66889238D01*
X94035523Y-66984476D01*
X93940285Y-67032095D01*
X93749809Y-67079714D01*
X93606952Y-67079714D01*
X93416476Y-67032095D01*
X93321238Y-66984476D01*
X93226000Y-66889238D01*
X93178380Y-66746380D01*
X93178380Y-66651142D01*
X93226000Y-66508285D01*
X93273619Y-66460666D01*
X93178380Y-65555904D02*
X93178380Y-66032095D01*
X93654571Y-66079714D01*
X93606952Y-66032095D01*
X93559333Y-65936857D01*
X93559333Y-65698761D01*
X93606952Y-65603523D01*
X93654571Y-65555904D01*
X93749809Y-65508285D01*
X93987904Y-65508285D01*
X94083142Y-65555904D01*
X94130761Y-65603523D01*
X94178380Y-65698761D01*
X94178380Y-65936857D01*
X94130761Y-66032095D01*
X94083142Y-66079714D01*
G04 #@! TO.C,C6*
X87122142Y-74842666D02*
X87169761Y-74890285D01*
X87217380Y-75033142D01*
X87217380Y-75128380D01*
X87169761Y-75271238D01*
X87074523Y-75366476D01*
X86979285Y-75414095D01*
X86788809Y-75461714D01*
X86645952Y-75461714D01*
X86455476Y-75414095D01*
X86360238Y-75366476D01*
X86265000Y-75271238D01*
X86217380Y-75128380D01*
X86217380Y-75033142D01*
X86265000Y-74890285D01*
X86312619Y-74842666D01*
X86217380Y-73985523D02*
X86217380Y-74176000D01*
X86265000Y-74271238D01*
X86312619Y-74318857D01*
X86455476Y-74414095D01*
X86645952Y-74461714D01*
X87026904Y-74461714D01*
X87122142Y-74414095D01*
X87169761Y-74366476D01*
X87217380Y-74271238D01*
X87217380Y-74080761D01*
X87169761Y-73985523D01*
X87122142Y-73937904D01*
X87026904Y-73890285D01*
X86788809Y-73890285D01*
X86693571Y-73937904D01*
X86645952Y-73985523D01*
X86598333Y-74080761D01*
X86598333Y-74271238D01*
X86645952Y-74366476D01*
X86693571Y-74414095D01*
X86788809Y-74461714D01*
G04 #@! TO.C,C7*
X97512142Y-105068666D02*
X97559761Y-105116285D01*
X97607380Y-105259142D01*
X97607380Y-105354380D01*
X97559761Y-105497238D01*
X97464523Y-105592476D01*
X97369285Y-105640095D01*
X97178809Y-105687714D01*
X97035952Y-105687714D01*
X96845476Y-105640095D01*
X96750238Y-105592476D01*
X96655000Y-105497238D01*
X96607380Y-105354380D01*
X96607380Y-105259142D01*
X96655000Y-105116285D01*
X96702619Y-105068666D01*
X96607380Y-104735333D02*
X96607380Y-104068666D01*
X97607380Y-104497238D01*
G04 #@! TO.C,C9*
X96353333Y-101449142D02*
X96305714Y-101496761D01*
X96162857Y-101544380D01*
X96067619Y-101544380D01*
X95924761Y-101496761D01*
X95829523Y-101401523D01*
X95781904Y-101306285D01*
X95734285Y-101115809D01*
X95734285Y-100972952D01*
X95781904Y-100782476D01*
X95829523Y-100687238D01*
X95924761Y-100592000D01*
X96067619Y-100544380D01*
X96162857Y-100544380D01*
X96305714Y-100592000D01*
X96353333Y-100639619D01*
X96829523Y-101544380D02*
X97020000Y-101544380D01*
X97115238Y-101496761D01*
X97162857Y-101449142D01*
X97258095Y-101306285D01*
X97305714Y-101115809D01*
X97305714Y-100734857D01*
X97258095Y-100639619D01*
X97210476Y-100592000D01*
X97115238Y-100544380D01*
X96924761Y-100544380D01*
X96829523Y-100592000D01*
X96781904Y-100639619D01*
X96734285Y-100734857D01*
X96734285Y-100972952D01*
X96781904Y-101068190D01*
X96829523Y-101115809D01*
X96924761Y-101163428D01*
X97115238Y-101163428D01*
X97210476Y-101115809D01*
X97258095Y-101068190D01*
X97305714Y-100972952D01*
G04 #@! TO.C,C10*
X83558142Y-101703142D02*
X83510523Y-101750761D01*
X83367666Y-101798380D01*
X83272428Y-101798380D01*
X83129571Y-101750761D01*
X83034333Y-101655523D01*
X82986714Y-101560285D01*
X82939095Y-101369809D01*
X82939095Y-101226952D01*
X82986714Y-101036476D01*
X83034333Y-100941238D01*
X83129571Y-100846000D01*
X83272428Y-100798380D01*
X83367666Y-100798380D01*
X83510523Y-100846000D01*
X83558142Y-100893619D01*
X84510523Y-101798380D02*
X83939095Y-101798380D01*
X84224809Y-101798380D02*
X84224809Y-100798380D01*
X84129571Y-100941238D01*
X84034333Y-101036476D01*
X83939095Y-101084095D01*
X85129571Y-100798380D02*
X85224809Y-100798380D01*
X85320047Y-100846000D01*
X85367666Y-100893619D01*
X85415285Y-100988857D01*
X85462904Y-101179333D01*
X85462904Y-101417428D01*
X85415285Y-101607904D01*
X85367666Y-101703142D01*
X85320047Y-101750761D01*
X85224809Y-101798380D01*
X85129571Y-101798380D01*
X85034333Y-101750761D01*
X84986714Y-101703142D01*
X84939095Y-101607904D01*
X84891476Y-101417428D01*
X84891476Y-101179333D01*
X84939095Y-100988857D01*
X84986714Y-100893619D01*
X85034333Y-100846000D01*
X85129571Y-100798380D01*
G04 #@! TO.C,C11*
X89257142Y-88780857D02*
X89304761Y-88828476D01*
X89352380Y-88971333D01*
X89352380Y-89066571D01*
X89304761Y-89209428D01*
X89209523Y-89304666D01*
X89114285Y-89352285D01*
X88923809Y-89399904D01*
X88780952Y-89399904D01*
X88590476Y-89352285D01*
X88495238Y-89304666D01*
X88400000Y-89209428D01*
X88352380Y-89066571D01*
X88352380Y-88971333D01*
X88400000Y-88828476D01*
X88447619Y-88780857D01*
X89352380Y-87828476D02*
X89352380Y-88399904D01*
X89352380Y-88114190D02*
X88352380Y-88114190D01*
X88495238Y-88209428D01*
X88590476Y-88304666D01*
X88638095Y-88399904D01*
X89352380Y-86876095D02*
X89352380Y-87447523D01*
X89352380Y-87161809D02*
X88352380Y-87161809D01*
X88495238Y-87257047D01*
X88590476Y-87352285D01*
X88638095Y-87447523D01*
G04 #@! TO.C,C12*
X82669142Y-97385142D02*
X82621523Y-97432761D01*
X82478666Y-97480380D01*
X82383428Y-97480380D01*
X82240571Y-97432761D01*
X82145333Y-97337523D01*
X82097714Y-97242285D01*
X82050095Y-97051809D01*
X82050095Y-96908952D01*
X82097714Y-96718476D01*
X82145333Y-96623238D01*
X82240571Y-96528000D01*
X82383428Y-96480380D01*
X82478666Y-96480380D01*
X82621523Y-96528000D01*
X82669142Y-96575619D01*
X83621523Y-97480380D02*
X83050095Y-97480380D01*
X83335809Y-97480380D02*
X83335809Y-96480380D01*
X83240571Y-96623238D01*
X83145333Y-96718476D01*
X83050095Y-96766095D01*
X84002476Y-96575619D02*
X84050095Y-96528000D01*
X84145333Y-96480380D01*
X84383428Y-96480380D01*
X84478666Y-96528000D01*
X84526285Y-96575619D01*
X84573904Y-96670857D01*
X84573904Y-96766095D01*
X84526285Y-96908952D01*
X83954857Y-97480380D01*
X84573904Y-97480380D01*
G04 #@! TO.C,C13*
X99941142Y-93678142D02*
X99893523Y-93725761D01*
X99750666Y-93773380D01*
X99655428Y-93773380D01*
X99512571Y-93725761D01*
X99417333Y-93630523D01*
X99369714Y-93535285D01*
X99322095Y-93344809D01*
X99322095Y-93201952D01*
X99369714Y-93011476D01*
X99417333Y-92916238D01*
X99512571Y-92821000D01*
X99655428Y-92773380D01*
X99750666Y-92773380D01*
X99893523Y-92821000D01*
X99941142Y-92868619D01*
X100893523Y-93773380D02*
X100322095Y-93773380D01*
X100607809Y-93773380D02*
X100607809Y-92773380D01*
X100512571Y-92916238D01*
X100417333Y-93011476D01*
X100322095Y-93059095D01*
X101226857Y-92773380D02*
X101845904Y-92773380D01*
X101512571Y-93154333D01*
X101655428Y-93154333D01*
X101750666Y-93201952D01*
X101798285Y-93249571D01*
X101845904Y-93344809D01*
X101845904Y-93582904D01*
X101798285Y-93678142D01*
X101750666Y-93725761D01*
X101655428Y-93773380D01*
X101369714Y-93773380D01*
X101274476Y-93725761D01*
X101226857Y-93678142D01*
G04 #@! TO.C,C14*
X102608142Y-102896942D02*
X102560523Y-102944561D01*
X102417666Y-102992180D01*
X102322428Y-102992180D01*
X102179571Y-102944561D01*
X102084333Y-102849323D01*
X102036714Y-102754085D01*
X101989095Y-102563609D01*
X101989095Y-102420752D01*
X102036714Y-102230276D01*
X102084333Y-102135038D01*
X102179571Y-102039800D01*
X102322428Y-101992180D01*
X102417666Y-101992180D01*
X102560523Y-102039800D01*
X102608142Y-102087419D01*
X103560523Y-102992180D02*
X102989095Y-102992180D01*
X103274809Y-102992180D02*
X103274809Y-101992180D01*
X103179571Y-102135038D01*
X103084333Y-102230276D01*
X102989095Y-102277895D01*
X104417666Y-102325514D02*
X104417666Y-102992180D01*
X104179571Y-101944561D02*
X103941476Y-102658847D01*
X104560523Y-102658847D01*
G04 #@! TO.C,C15*
X102608142Y-105259142D02*
X102560523Y-105306761D01*
X102417666Y-105354380D01*
X102322428Y-105354380D01*
X102179571Y-105306761D01*
X102084333Y-105211523D01*
X102036714Y-105116285D01*
X101989095Y-104925809D01*
X101989095Y-104782952D01*
X102036714Y-104592476D01*
X102084333Y-104497238D01*
X102179571Y-104402000D01*
X102322428Y-104354380D01*
X102417666Y-104354380D01*
X102560523Y-104402000D01*
X102608142Y-104449619D01*
X103560523Y-105354380D02*
X102989095Y-105354380D01*
X103274809Y-105354380D02*
X103274809Y-104354380D01*
X103179571Y-104497238D01*
X103084333Y-104592476D01*
X102989095Y-104640095D01*
X104465285Y-104354380D02*
X103989095Y-104354380D01*
X103941476Y-104830571D01*
X103989095Y-104782952D01*
X104084333Y-104735333D01*
X104322428Y-104735333D01*
X104417666Y-104782952D01*
X104465285Y-104830571D01*
X104512904Y-104925809D01*
X104512904Y-105163904D01*
X104465285Y-105259142D01*
X104417666Y-105306761D01*
X104322428Y-105354380D01*
X104084333Y-105354380D01*
X103989095Y-105306761D01*
X103941476Y-105259142D01*
G04 #@! TO.C,D1*
D16*
X127447523Y-107617380D02*
X126177523Y-107617380D01*
X126177523Y-107315000D01*
X126238000Y-107133571D01*
X126358952Y-107012619D01*
X126479904Y-106952142D01*
X126721809Y-106891666D01*
X126903238Y-106891666D01*
X127145142Y-106952142D01*
X127266095Y-107012619D01*
X127387047Y-107133571D01*
X127447523Y-107315000D01*
X127447523Y-107617380D01*
X127447523Y-105682142D02*
X127447523Y-106407857D01*
X127447523Y-106045000D02*
X126177523Y-106045000D01*
X126358952Y-106165952D01*
X126479904Y-106286904D01*
X126540380Y-106407857D01*
G04 #@! TO.C,D2*
D15*
X117673380Y-105259095D02*
X116673380Y-105259095D01*
X116673380Y-105021000D01*
X116721000Y-104878142D01*
X116816238Y-104782904D01*
X116911476Y-104735285D01*
X117101952Y-104687666D01*
X117244809Y-104687666D01*
X117435285Y-104735285D01*
X117530523Y-104782904D01*
X117625761Y-104878142D01*
X117673380Y-105021000D01*
X117673380Y-105259095D01*
X116768619Y-104306714D02*
X116721000Y-104259095D01*
X116673380Y-104163857D01*
X116673380Y-103925761D01*
X116721000Y-103830523D01*
X116768619Y-103782904D01*
X116863857Y-103735285D01*
X116959095Y-103735285D01*
X117101952Y-103782904D01*
X117673380Y-104354333D01*
X117673380Y-103735285D01*
G04 #@! TO.C,D3*
D16*
X127447523Y-120190380D02*
X126177523Y-120190380D01*
X126177523Y-119888000D01*
X126238000Y-119706571D01*
X126358952Y-119585619D01*
X126479904Y-119525142D01*
X126721809Y-119464666D01*
X126903238Y-119464666D01*
X127145142Y-119525142D01*
X127266095Y-119585619D01*
X127387047Y-119706571D01*
X127447523Y-119888000D01*
X127447523Y-120190380D01*
X126177523Y-119041333D02*
X126177523Y-118255142D01*
X126661333Y-118678476D01*
X126661333Y-118497047D01*
X126721809Y-118376095D01*
X126782285Y-118315619D01*
X126903238Y-118255142D01*
X127205619Y-118255142D01*
X127326571Y-118315619D01*
X127387047Y-118376095D01*
X127447523Y-118497047D01*
X127447523Y-118859904D01*
X127387047Y-118980857D01*
X127326571Y-119041333D01*
G04 #@! TO.C,D4*
D15*
X117546380Y-118086095D02*
X116546380Y-118086095D01*
X116546380Y-117848000D01*
X116594000Y-117705142D01*
X116689238Y-117609904D01*
X116784476Y-117562285D01*
X116974952Y-117514666D01*
X117117809Y-117514666D01*
X117308285Y-117562285D01*
X117403523Y-117609904D01*
X117498761Y-117705142D01*
X117546380Y-117848000D01*
X117546380Y-118086095D01*
X116879714Y-116657523D02*
X117546380Y-116657523D01*
X116498761Y-116895619D02*
X117213047Y-117133714D01*
X117213047Y-116514666D01*
G04 #@! TO.C,D5*
D16*
X127447523Y-68882380D02*
X126177523Y-68882380D01*
X126177523Y-68580000D01*
X126238000Y-68398571D01*
X126358952Y-68277619D01*
X126479904Y-68217142D01*
X126721809Y-68156666D01*
X126903238Y-68156666D01*
X127145142Y-68217142D01*
X127266095Y-68277619D01*
X127387047Y-68398571D01*
X127447523Y-68580000D01*
X127447523Y-68882380D01*
X126177523Y-67007619D02*
X126177523Y-67612380D01*
X126782285Y-67672857D01*
X126721809Y-67612380D01*
X126661333Y-67491428D01*
X126661333Y-67189047D01*
X126721809Y-67068095D01*
X126782285Y-67007619D01*
X126903238Y-66947142D01*
X127205619Y-66947142D01*
X127326571Y-67007619D01*
X127387047Y-67068095D01*
X127447523Y-67189047D01*
X127447523Y-67491428D01*
X127387047Y-67612380D01*
X127326571Y-67672857D01*
G04 #@! TO.C,D6*
D15*
X117546380Y-66270095D02*
X116546380Y-66270095D01*
X116546380Y-66032000D01*
X116594000Y-65889142D01*
X116689238Y-65793904D01*
X116784476Y-65746285D01*
X116974952Y-65698666D01*
X117117809Y-65698666D01*
X117308285Y-65746285D01*
X117403523Y-65793904D01*
X117498761Y-65889142D01*
X117546380Y-66032000D01*
X117546380Y-66270095D01*
X116546380Y-64841523D02*
X116546380Y-65032000D01*
X116594000Y-65127238D01*
X116641619Y-65174857D01*
X116784476Y-65270095D01*
X116974952Y-65317714D01*
X117355904Y-65317714D01*
X117451142Y-65270095D01*
X117498761Y-65222476D01*
X117546380Y-65127238D01*
X117546380Y-64936761D01*
X117498761Y-64841523D01*
X117451142Y-64793904D01*
X117355904Y-64746285D01*
X117117809Y-64746285D01*
X117022571Y-64793904D01*
X116974952Y-64841523D01*
X116927333Y-64936761D01*
X116927333Y-65127238D01*
X116974952Y-65222476D01*
X117022571Y-65270095D01*
X117117809Y-65317714D01*
G04 #@! TO.C,D7*
D16*
X127447523Y-94917380D02*
X126177523Y-94917380D01*
X126177523Y-94615000D01*
X126238000Y-94433571D01*
X126358952Y-94312619D01*
X126479904Y-94252142D01*
X126721809Y-94191666D01*
X126903238Y-94191666D01*
X127145142Y-94252142D01*
X127266095Y-94312619D01*
X127387047Y-94433571D01*
X127447523Y-94615000D01*
X127447523Y-94917380D01*
X126177523Y-93768333D02*
X126177523Y-92921666D01*
X127447523Y-93465952D01*
G04 #@! TO.C,D8*
D15*
X117800380Y-92686095D02*
X116800380Y-92686095D01*
X116800380Y-92448000D01*
X116848000Y-92305142D01*
X116943238Y-92209904D01*
X117038476Y-92162285D01*
X117228952Y-92114666D01*
X117371809Y-92114666D01*
X117562285Y-92162285D01*
X117657523Y-92209904D01*
X117752761Y-92305142D01*
X117800380Y-92448000D01*
X117800380Y-92686095D01*
X117228952Y-91543238D02*
X117181333Y-91638476D01*
X117133714Y-91686095D01*
X117038476Y-91733714D01*
X116990857Y-91733714D01*
X116895619Y-91686095D01*
X116848000Y-91638476D01*
X116800380Y-91543238D01*
X116800380Y-91352761D01*
X116848000Y-91257523D01*
X116895619Y-91209904D01*
X116990857Y-91162285D01*
X117038476Y-91162285D01*
X117133714Y-91209904D01*
X117181333Y-91257523D01*
X117228952Y-91352761D01*
X117228952Y-91543238D01*
X117276571Y-91638476D01*
X117324190Y-91686095D01*
X117419428Y-91733714D01*
X117609904Y-91733714D01*
X117705142Y-91686095D01*
X117752761Y-91638476D01*
X117800380Y-91543238D01*
X117800380Y-91352761D01*
X117752761Y-91257523D01*
X117705142Y-91209904D01*
X117609904Y-91162285D01*
X117419428Y-91162285D01*
X117324190Y-91209904D01*
X117276571Y-91257523D01*
X117228952Y-91352761D01*
G04 #@! TO.C,D10*
X70302380Y-72207285D02*
X69302380Y-72207285D01*
X69302380Y-71969190D01*
X69350000Y-71826333D01*
X69445238Y-71731095D01*
X69540476Y-71683476D01*
X69730952Y-71635857D01*
X69873809Y-71635857D01*
X70064285Y-71683476D01*
X70159523Y-71731095D01*
X70254761Y-71826333D01*
X70302380Y-71969190D01*
X70302380Y-72207285D01*
X70302380Y-70683476D02*
X70302380Y-71254904D01*
X70302380Y-70969190D02*
X69302380Y-70969190D01*
X69445238Y-71064428D01*
X69540476Y-71159666D01*
X69588095Y-71254904D01*
X69302380Y-70064428D02*
X69302380Y-69969190D01*
X69350000Y-69873952D01*
X69397619Y-69826333D01*
X69492857Y-69778714D01*
X69683333Y-69731095D01*
X69921428Y-69731095D01*
X70111904Y-69778714D01*
X70207142Y-69826333D01*
X70254761Y-69873952D01*
X70302380Y-69969190D01*
X70302380Y-70064428D01*
X70254761Y-70159666D01*
X70207142Y-70207285D01*
X70111904Y-70254904D01*
X69921428Y-70302523D01*
X69683333Y-70302523D01*
X69492857Y-70254904D01*
X69397619Y-70207285D01*
X69350000Y-70159666D01*
X69302380Y-70064428D01*
G04 #@! TO.C,D11*
D16*
X60645523Y-95395142D02*
X59375523Y-95395142D01*
X59375523Y-95092761D01*
X59436000Y-94911333D01*
X59556952Y-94790380D01*
X59677904Y-94729904D01*
X59919809Y-94669428D01*
X60101238Y-94669428D01*
X60343142Y-94729904D01*
X60464095Y-94790380D01*
X60585047Y-94911333D01*
X60645523Y-95092761D01*
X60645523Y-95395142D01*
X60645523Y-93459904D02*
X60645523Y-94185619D01*
X60645523Y-93822761D02*
X59375523Y-93822761D01*
X59556952Y-93943714D01*
X59677904Y-94064666D01*
X59738380Y-94185619D01*
X60645523Y-92250380D02*
X60645523Y-92976095D01*
X60645523Y-92613238D02*
X59375523Y-92613238D01*
X59556952Y-92734190D01*
X59677904Y-92855142D01*
X59738380Y-92976095D01*
G04 #@! TO.C,D12*
D15*
X70270618Y-97460773D02*
X69270618Y-97460773D01*
X69270618Y-97222678D01*
X69318238Y-97079821D01*
X69413476Y-96984583D01*
X69508714Y-96936964D01*
X69699190Y-96889345D01*
X69842047Y-96889345D01*
X70032523Y-96936964D01*
X70127761Y-96984583D01*
X70222999Y-97079821D01*
X70270618Y-97222678D01*
X70270618Y-97460773D01*
X70270618Y-95936964D02*
X70270618Y-96508392D01*
X70270618Y-96222678D02*
X69270618Y-96222678D01*
X69413476Y-96317916D01*
X69508714Y-96413154D01*
X69556333Y-96508392D01*
X69365857Y-95556011D02*
X69318238Y-95508392D01*
X69270618Y-95413154D01*
X69270618Y-95175059D01*
X69318238Y-95079821D01*
X69365857Y-95032202D01*
X69461095Y-94984583D01*
X69556333Y-94984583D01*
X69699190Y-95032202D01*
X70270618Y-95603630D01*
X70270618Y-94984583D01*
G04 #@! TO.C,D13*
D16*
X60645523Y-120922142D02*
X59375523Y-120922142D01*
X59375523Y-120619761D01*
X59436000Y-120438333D01*
X59556952Y-120317380D01*
X59677904Y-120256904D01*
X59919809Y-120196428D01*
X60101238Y-120196428D01*
X60343142Y-120256904D01*
X60464095Y-120317380D01*
X60585047Y-120438333D01*
X60645523Y-120619761D01*
X60645523Y-120922142D01*
X60645523Y-118986904D02*
X60645523Y-119712619D01*
X60645523Y-119349761D02*
X59375523Y-119349761D01*
X59556952Y-119470714D01*
X59677904Y-119591666D01*
X59738380Y-119712619D01*
X59375523Y-118563571D02*
X59375523Y-117777380D01*
X59859333Y-118200714D01*
X59859333Y-118019285D01*
X59919809Y-117898333D01*
X59980285Y-117837857D01*
X60101238Y-117777380D01*
X60403619Y-117777380D01*
X60524571Y-117837857D01*
X60585047Y-117898333D01*
X60645523Y-118019285D01*
X60645523Y-118382142D01*
X60585047Y-118503095D01*
X60524571Y-118563571D01*
G04 #@! TO.C,D14*
D15*
X69975286Y-123100583D02*
X69275286Y-123100583D01*
X69275286Y-122933916D01*
X69308620Y-122833916D01*
X69375286Y-122767249D01*
X69441953Y-122733916D01*
X69575286Y-122700583D01*
X69675286Y-122700583D01*
X69808620Y-122733916D01*
X69875286Y-122767249D01*
X69941953Y-122833916D01*
X69975286Y-122933916D01*
X69975286Y-123100583D01*
X69975286Y-122033916D02*
X69975286Y-122433916D01*
X69975286Y-122233916D02*
X69275286Y-122233916D01*
X69375286Y-122300583D01*
X69441953Y-122367249D01*
X69475286Y-122433916D01*
X69508620Y-121433916D02*
X69975286Y-121433916D01*
X69241953Y-121600583D02*
X69741953Y-121767249D01*
X69741953Y-121333916D01*
G04 #@! TO.C,D15*
D16*
X60645523Y-108349142D02*
X59375523Y-108349142D01*
X59375523Y-108046761D01*
X59436000Y-107865333D01*
X59556952Y-107744380D01*
X59677904Y-107683904D01*
X59919809Y-107623428D01*
X60101238Y-107623428D01*
X60343142Y-107683904D01*
X60464095Y-107744380D01*
X60585047Y-107865333D01*
X60645523Y-108046761D01*
X60645523Y-108349142D01*
X60645523Y-106413904D02*
X60645523Y-107139619D01*
X60645523Y-106776761D02*
X59375523Y-106776761D01*
X59556952Y-106897714D01*
X59677904Y-107018666D01*
X59738380Y-107139619D01*
X59375523Y-105264857D02*
X59375523Y-105869619D01*
X59980285Y-105930095D01*
X59919809Y-105869619D01*
X59859333Y-105748666D01*
X59859333Y-105446285D01*
X59919809Y-105325333D01*
X59980285Y-105264857D01*
X60101238Y-105204380D01*
X60403619Y-105204380D01*
X60524571Y-105264857D01*
X60585047Y-105325333D01*
X60645523Y-105446285D01*
X60645523Y-105748666D01*
X60585047Y-105869619D01*
X60524571Y-105930095D01*
G04 #@! TO.C,D16*
D15*
X70341246Y-110539095D02*
X69341246Y-110539095D01*
X69341246Y-110301000D01*
X69388866Y-110158143D01*
X69484104Y-110062905D01*
X69579342Y-110015286D01*
X69769818Y-109967667D01*
X69912675Y-109967667D01*
X70103151Y-110015286D01*
X70198389Y-110062905D01*
X70293627Y-110158143D01*
X70341246Y-110301000D01*
X70341246Y-110539095D01*
X70341246Y-109015286D02*
X70341246Y-109586714D01*
X70341246Y-109301000D02*
X69341246Y-109301000D01*
X69484104Y-109396238D01*
X69579342Y-109491476D01*
X69626961Y-109586714D01*
X69341246Y-108158143D02*
X69341246Y-108348619D01*
X69388866Y-108443857D01*
X69436485Y-108491476D01*
X69579342Y-108586714D01*
X69769818Y-108634333D01*
X70150770Y-108634333D01*
X70246008Y-108586714D01*
X70293627Y-108539095D01*
X70341246Y-108443857D01*
X70341246Y-108253381D01*
X70293627Y-108158143D01*
X70246008Y-108110524D01*
X70150770Y-108062905D01*
X69912675Y-108062905D01*
X69817437Y-108110524D01*
X69769818Y-108158143D01*
X69722199Y-108253381D01*
X69722199Y-108443857D01*
X69769818Y-108539095D01*
X69817437Y-108586714D01*
X69912675Y-108634333D01*
G04 #@! TO.C,D17*
X96448714Y-61158380D02*
X96448714Y-60158380D01*
X96686809Y-60158380D01*
X96829666Y-60206000D01*
X96924904Y-60301238D01*
X96972523Y-60396476D01*
X97020142Y-60586952D01*
X97020142Y-60729809D01*
X96972523Y-60920285D01*
X96924904Y-61015523D01*
X96829666Y-61110761D01*
X96686809Y-61158380D01*
X96448714Y-61158380D01*
X97972523Y-61158380D02*
X97401095Y-61158380D01*
X97686809Y-61158380D02*
X97686809Y-60158380D01*
X97591571Y-60301238D01*
X97496333Y-60396476D01*
X97401095Y-60444095D01*
X98305857Y-60158380D02*
X98972523Y-60158380D01*
X98543952Y-61158380D01*
G04 #@! TO.C,D18*
X101401714Y-122086380D02*
X101401714Y-121086380D01*
X101639809Y-121086380D01*
X101782666Y-121134000D01*
X101877904Y-121229238D01*
X101925523Y-121324476D01*
X101973142Y-121514952D01*
X101973142Y-121657809D01*
X101925523Y-121848285D01*
X101877904Y-121943523D01*
X101782666Y-122038761D01*
X101639809Y-122086380D01*
X101401714Y-122086380D01*
X102925523Y-122086380D02*
X102354095Y-122086380D01*
X102639809Y-122086380D02*
X102639809Y-121086380D01*
X102544571Y-121229238D01*
X102449333Y-121324476D01*
X102354095Y-121372095D01*
X103496952Y-121514952D02*
X103401714Y-121467333D01*
X103354095Y-121419714D01*
X103306476Y-121324476D01*
X103306476Y-121276857D01*
X103354095Y-121181619D01*
X103401714Y-121134000D01*
X103496952Y-121086380D01*
X103687428Y-121086380D01*
X103782666Y-121134000D01*
X103830285Y-121181619D01*
X103877904Y-121276857D01*
X103877904Y-121324476D01*
X103830285Y-121419714D01*
X103782666Y-121467333D01*
X103687428Y-121514952D01*
X103496952Y-121514952D01*
X103401714Y-121562571D01*
X103354095Y-121610190D01*
X103306476Y-121705428D01*
X103306476Y-121895904D01*
X103354095Y-121991142D01*
X103401714Y-122038761D01*
X103496952Y-122086380D01*
X103687428Y-122086380D01*
X103782666Y-122038761D01*
X103830285Y-121991142D01*
X103877904Y-121895904D01*
X103877904Y-121705428D01*
X103830285Y-121610190D01*
X103782666Y-121562571D01*
X103687428Y-121514952D01*
G04 #@! TO.C,D19*
D16*
X127447523Y-82568142D02*
X126177523Y-82568142D01*
X126177523Y-82265761D01*
X126238000Y-82084333D01*
X126358952Y-81963380D01*
X126479904Y-81902904D01*
X126721809Y-81842428D01*
X126903238Y-81842428D01*
X127145142Y-81902904D01*
X127266095Y-81963380D01*
X127387047Y-82084333D01*
X127447523Y-82265761D01*
X127447523Y-82568142D01*
X127447523Y-80632904D02*
X127447523Y-81358619D01*
X127447523Y-80995761D02*
X126177523Y-80995761D01*
X126358952Y-81116714D01*
X126479904Y-81237666D01*
X126540380Y-81358619D01*
X127447523Y-80028142D02*
X127447523Y-79786238D01*
X127387047Y-79665285D01*
X127326571Y-79604809D01*
X127145142Y-79483857D01*
X126903238Y-79423380D01*
X126419428Y-79423380D01*
X126298476Y-79483857D01*
X126238000Y-79544333D01*
X126177523Y-79665285D01*
X126177523Y-79907190D01*
X126238000Y-80028142D01*
X126298476Y-80088619D01*
X126419428Y-80149095D01*
X126721809Y-80149095D01*
X126842761Y-80088619D01*
X126903238Y-80028142D01*
X126963714Y-79907190D01*
X126963714Y-79665285D01*
X126903238Y-79544333D01*
X126842761Y-79483857D01*
X126721809Y-79423380D01*
G04 #@! TO.C,D20*
X60645523Y-82568142D02*
X59375523Y-82568142D01*
X59375523Y-82265761D01*
X59436000Y-82084333D01*
X59556952Y-81963380D01*
X59677904Y-81902904D01*
X59919809Y-81842428D01*
X60101238Y-81842428D01*
X60343142Y-81902904D01*
X60464095Y-81963380D01*
X60585047Y-82084333D01*
X60645523Y-82265761D01*
X60645523Y-82568142D01*
X59496476Y-81358619D02*
X59436000Y-81298142D01*
X59375523Y-81177190D01*
X59375523Y-80874809D01*
X59436000Y-80753857D01*
X59496476Y-80693380D01*
X59617428Y-80632904D01*
X59738380Y-80632904D01*
X59919809Y-80693380D01*
X60645523Y-81419095D01*
X60645523Y-80632904D01*
X59375523Y-79846714D02*
X59375523Y-79725761D01*
X59436000Y-79604809D01*
X59496476Y-79544333D01*
X59617428Y-79483857D01*
X59859333Y-79423380D01*
X60161714Y-79423380D01*
X60403619Y-79483857D01*
X60524571Y-79544333D01*
X60585047Y-79604809D01*
X60645523Y-79725761D01*
X60645523Y-79846714D01*
X60585047Y-79967666D01*
X60524571Y-80028142D01*
X60403619Y-80088619D01*
X60161714Y-80149095D01*
X59859333Y-80149095D01*
X59617428Y-80088619D01*
X59496476Y-80028142D01*
X59436000Y-79967666D01*
X59375523Y-79846714D01*
G04 #@! TO.C,D21*
D15*
X117673380Y-79827285D02*
X116673380Y-79827285D01*
X116673380Y-79589190D01*
X116721000Y-79446333D01*
X116816238Y-79351095D01*
X116911476Y-79303476D01*
X117101952Y-79255857D01*
X117244809Y-79255857D01*
X117435285Y-79303476D01*
X117530523Y-79351095D01*
X117625761Y-79446333D01*
X117673380Y-79589190D01*
X117673380Y-79827285D01*
X116768619Y-78874904D02*
X116721000Y-78827285D01*
X116673380Y-78732047D01*
X116673380Y-78493952D01*
X116721000Y-78398714D01*
X116768619Y-78351095D01*
X116863857Y-78303476D01*
X116959095Y-78303476D01*
X117101952Y-78351095D01*
X117673380Y-78922523D01*
X117673380Y-78303476D01*
X117673380Y-77351095D02*
X117673380Y-77922523D01*
X117673380Y-77636809D02*
X116673380Y-77636809D01*
X116816238Y-77732047D01*
X116911476Y-77827285D01*
X116959095Y-77922523D01*
G04 #@! TO.C,D22*
X70407365Y-84574902D02*
X69407365Y-84574902D01*
X69407365Y-84336807D01*
X69454985Y-84193950D01*
X69550223Y-84098712D01*
X69645461Y-84051093D01*
X69835937Y-84003474D01*
X69978794Y-84003474D01*
X70169270Y-84051093D01*
X70264508Y-84098712D01*
X70359746Y-84193950D01*
X70407365Y-84336807D01*
X70407365Y-84574902D01*
X69502604Y-83622521D02*
X69454985Y-83574902D01*
X69407365Y-83479664D01*
X69407365Y-83241569D01*
X69454985Y-83146331D01*
X69502604Y-83098712D01*
X69597842Y-83051093D01*
X69693080Y-83051093D01*
X69835937Y-83098712D01*
X70407365Y-83670140D01*
X70407365Y-83051093D01*
X69502604Y-82670140D02*
X69454985Y-82622521D01*
X69407365Y-82527283D01*
X69407365Y-82289188D01*
X69454985Y-82193950D01*
X69502604Y-82146331D01*
X69597842Y-82098712D01*
X69693080Y-82098712D01*
X69835937Y-82146331D01*
X70407365Y-82717759D01*
X70407365Y-82098712D01*
G04 #@! TO.C,H1*
D16*
X60881380Y-46675523D02*
X60881380Y-45405523D01*
X60881380Y-46010285D02*
X61607095Y-46010285D01*
X61607095Y-46675523D02*
X61607095Y-45405523D01*
X62877095Y-46675523D02*
X62151380Y-46675523D01*
X62514238Y-46675523D02*
X62514238Y-45405523D01*
X62393285Y-45586952D01*
X62272333Y-45707904D01*
X62151380Y-45768380D01*
G04 #@! TO.C,H2*
X60881380Y-58486523D02*
X60881380Y-57216523D01*
X60881380Y-57821285D02*
X61607095Y-57821285D01*
X61607095Y-58486523D02*
X61607095Y-57216523D01*
X62151380Y-57337476D02*
X62211857Y-57277000D01*
X62332809Y-57216523D01*
X62635190Y-57216523D01*
X62756142Y-57277000D01*
X62816619Y-57337476D01*
X62877095Y-57458428D01*
X62877095Y-57579380D01*
X62816619Y-57760809D01*
X62090904Y-58486523D01*
X62877095Y-58486523D01*
G04 #@! TO.C,H3*
D15*
X56515095Y-44785380D02*
X56515095Y-43785380D01*
X56515095Y-44261571D02*
X57086523Y-44261571D01*
X57086523Y-44785380D02*
X57086523Y-43785380D01*
X57467476Y-43785380D02*
X58086523Y-43785380D01*
X57753190Y-44166333D01*
X57896047Y-44166333D01*
X57991285Y-44213952D01*
X58038904Y-44261571D01*
X58086523Y-44356809D01*
X58086523Y-44594904D01*
X58038904Y-44690142D01*
X57991285Y-44737761D01*
X57896047Y-44785380D01*
X57610333Y-44785380D01*
X57515095Y-44737761D01*
X57467476Y-44690142D01*
G04 #@! TO.C,H4*
X132715095Y-130510380D02*
X132715095Y-129510380D01*
X132715095Y-129986571D02*
X133286523Y-129986571D01*
X133286523Y-130510380D02*
X133286523Y-129510380D01*
X134191285Y-129843714D02*
X134191285Y-130510380D01*
X133953190Y-129462761D02*
X133715095Y-130177047D01*
X134334142Y-130177047D01*
G04 #@! TO.C,H5*
X49784095Y-137485380D02*
X49784095Y-136485380D01*
X49784095Y-136961571D02*
X50355523Y-136961571D01*
X50355523Y-137485380D02*
X50355523Y-136485380D01*
X51307904Y-136485380D02*
X50831714Y-136485380D01*
X50784095Y-136961571D01*
X50831714Y-136913952D01*
X50926952Y-136866333D01*
X51165047Y-136866333D01*
X51260285Y-136913952D01*
X51307904Y-136961571D01*
X51355523Y-137056809D01*
X51355523Y-137294904D01*
X51307904Y-137390142D01*
X51260285Y-137437761D01*
X51165047Y-137485380D01*
X50926952Y-137485380D01*
X50831714Y-137437761D01*
X50784095Y-137390142D01*
G04 #@! TO.C,H6*
X130175095Y-44785380D02*
X130175095Y-43785380D01*
X130175095Y-44261571D02*
X130746523Y-44261571D01*
X130746523Y-44785380D02*
X130746523Y-43785380D01*
X131651285Y-43785380D02*
X131460809Y-43785380D01*
X131365571Y-43833000D01*
X131317952Y-43880619D01*
X131222714Y-44023476D01*
X131175095Y-44213952D01*
X131175095Y-44594904D01*
X131222714Y-44690142D01*
X131270333Y-44737761D01*
X131365571Y-44785380D01*
X131556047Y-44785380D01*
X131651285Y-44737761D01*
X131698904Y-44690142D01*
X131746523Y-44594904D01*
X131746523Y-44356809D01*
X131698904Y-44261571D01*
X131651285Y-44213952D01*
X131556047Y-44166333D01*
X131365571Y-44166333D01*
X131270333Y-44213952D01*
X131222714Y-44261571D01*
X131175095Y-44356809D01*
G04 #@! TO.C,J1*
X47859666Y-63317380D02*
X47859666Y-64031666D01*
X47812047Y-64174523D01*
X47716809Y-64269761D01*
X47573952Y-64317380D01*
X47478714Y-64317380D01*
X48859666Y-64317380D02*
X48288238Y-64317380D01*
X48573952Y-64317380D02*
X48573952Y-63317380D01*
X48478714Y-63460238D01*
X48383476Y-63555476D01*
X48288238Y-63603095D01*
G04 #@! TO.C,J2*
X109672380Y-127527333D02*
X110386666Y-127527333D01*
X110529523Y-127574952D01*
X110624761Y-127670190D01*
X110672380Y-127813047D01*
X110672380Y-127908285D01*
X109767619Y-127098761D02*
X109720000Y-127051142D01*
X109672380Y-126955904D01*
X109672380Y-126717809D01*
X109720000Y-126622571D01*
X109767619Y-126574952D01*
X109862857Y-126527333D01*
X109958095Y-126527333D01*
X110100952Y-126574952D01*
X110672380Y-127146380D01*
X110672380Y-126527333D01*
G04 #@! TO.C,J4*
D16*
X132908523Y-106976333D02*
X133815666Y-106976333D01*
X133997095Y-107036809D01*
X134118047Y-107157761D01*
X134178523Y-107339190D01*
X134178523Y-107460142D01*
X133331857Y-105827285D02*
X134178523Y-105827285D01*
X132848047Y-106129666D02*
X133755190Y-106432047D01*
X133755190Y-105645857D01*
G04 #@! TO.C,J5*
X133289523Y-119422333D02*
X134196666Y-119422333D01*
X134378095Y-119482809D01*
X134499047Y-119603761D01*
X134559523Y-119785190D01*
X134559523Y-119906142D01*
X133289523Y-118212809D02*
X133289523Y-118817571D01*
X133894285Y-118878047D01*
X133833809Y-118817571D01*
X133773333Y-118696619D01*
X133773333Y-118394238D01*
X133833809Y-118273285D01*
X133894285Y-118212809D01*
X134015238Y-118152333D01*
X134317619Y-118152333D01*
X134438571Y-118212809D01*
X134499047Y-118273285D01*
X134559523Y-118394238D01*
X134559523Y-118696619D01*
X134499047Y-118817571D01*
X134438571Y-118878047D01*
G04 #@! TO.C,J6*
X133162523Y-67606333D02*
X134069666Y-67606333D01*
X134251095Y-67666809D01*
X134372047Y-67787761D01*
X134432523Y-67969190D01*
X134432523Y-68090142D01*
X133162523Y-66457285D02*
X133162523Y-66699190D01*
X133223000Y-66820142D01*
X133283476Y-66880619D01*
X133464904Y-67001571D01*
X133706809Y-67062047D01*
X134190619Y-67062047D01*
X134311571Y-67001571D01*
X134372047Y-66941095D01*
X134432523Y-66820142D01*
X134432523Y-66578238D01*
X134372047Y-66457285D01*
X134311571Y-66396809D01*
X134190619Y-66336333D01*
X133888238Y-66336333D01*
X133767285Y-66396809D01*
X133706809Y-66457285D01*
X133646333Y-66578238D01*
X133646333Y-66820142D01*
X133706809Y-66941095D01*
X133767285Y-67001571D01*
X133888238Y-67062047D01*
G04 #@! TO.C,J7*
X133162523Y-94276333D02*
X134069666Y-94276333D01*
X134251095Y-94336809D01*
X134372047Y-94457761D01*
X134432523Y-94639190D01*
X134432523Y-94760142D01*
X133162523Y-93792523D02*
X133162523Y-92945857D01*
X134432523Y-93490142D01*
G04 #@! TO.C,J8*
X52390523Y-68622333D02*
X53297666Y-68622333D01*
X53479095Y-68682809D01*
X53600047Y-68803761D01*
X53660523Y-68985190D01*
X53660523Y-69106142D01*
X52934809Y-67836142D02*
X52874333Y-67957095D01*
X52813857Y-68017571D01*
X52692904Y-68078047D01*
X52632428Y-68078047D01*
X52511476Y-68017571D01*
X52451000Y-67957095D01*
X52390523Y-67836142D01*
X52390523Y-67594238D01*
X52451000Y-67473285D01*
X52511476Y-67412809D01*
X52632428Y-67352333D01*
X52692904Y-67352333D01*
X52813857Y-67412809D01*
X52874333Y-67473285D01*
X52934809Y-67594238D01*
X52934809Y-67836142D01*
X52995285Y-67957095D01*
X53055761Y-68017571D01*
X53176714Y-68078047D01*
X53418619Y-68078047D01*
X53539571Y-68017571D01*
X53600047Y-67957095D01*
X53660523Y-67836142D01*
X53660523Y-67594238D01*
X53600047Y-67473285D01*
X53539571Y-67412809D01*
X53418619Y-67352333D01*
X53176714Y-67352333D01*
X53055761Y-67412809D01*
X52995285Y-67473285D01*
X52934809Y-67594238D01*
G04 #@! TO.C,J9*
X52390523Y-94403333D02*
X53297666Y-94403333D01*
X53479095Y-94463809D01*
X53600047Y-94584761D01*
X53660523Y-94766190D01*
X53660523Y-94887142D01*
X53660523Y-93738095D02*
X53660523Y-93496190D01*
X53600047Y-93375238D01*
X53539571Y-93314761D01*
X53358142Y-93193809D01*
X53116238Y-93133333D01*
X52632428Y-93133333D01*
X52511476Y-93193809D01*
X52451000Y-93254285D01*
X52390523Y-93375238D01*
X52390523Y-93617142D01*
X52451000Y-93738095D01*
X52511476Y-93798571D01*
X52632428Y-93859047D01*
X52934809Y-93859047D01*
X53055761Y-93798571D01*
X53116238Y-93738095D01*
X53176714Y-93617142D01*
X53176714Y-93375238D01*
X53116238Y-93254285D01*
X53055761Y-93193809D01*
X52934809Y-93133333D01*
G04 #@! TO.C,J10*
X52136523Y-120535095D02*
X53043666Y-120535095D01*
X53225095Y-120595571D01*
X53346047Y-120716523D01*
X53406523Y-120897952D01*
X53406523Y-121018904D01*
X53406523Y-119265095D02*
X53406523Y-119990809D01*
X53406523Y-119627952D02*
X52136523Y-119627952D01*
X52317952Y-119748904D01*
X52438904Y-119869857D01*
X52499380Y-119990809D01*
X52136523Y-118478904D02*
X52136523Y-118357952D01*
X52197000Y-118237000D01*
X52257476Y-118176523D01*
X52378428Y-118116047D01*
X52620333Y-118055571D01*
X52922714Y-118055571D01*
X53164619Y-118116047D01*
X53285571Y-118176523D01*
X53346047Y-118237000D01*
X53406523Y-118357952D01*
X53406523Y-118478904D01*
X53346047Y-118599857D01*
X53285571Y-118660333D01*
X53164619Y-118720809D01*
X52922714Y-118781285D01*
X52620333Y-118781285D01*
X52378428Y-118720809D01*
X52257476Y-118660333D01*
X52197000Y-118599857D01*
X52136523Y-118478904D01*
G04 #@! TO.C,J11*
X52263523Y-107962095D02*
X53170666Y-107962095D01*
X53352095Y-108022571D01*
X53473047Y-108143523D01*
X53533523Y-108324952D01*
X53533523Y-108445904D01*
X53533523Y-106692095D02*
X53533523Y-107417809D01*
X53533523Y-107054952D02*
X52263523Y-107054952D01*
X52444952Y-107175904D01*
X52565904Y-107296857D01*
X52626380Y-107417809D01*
X53533523Y-105482571D02*
X53533523Y-106208285D01*
X53533523Y-105845428D02*
X52263523Y-105845428D01*
X52444952Y-105966380D01*
X52565904Y-106087333D01*
X52626380Y-106208285D01*
G04 #@! TO.C,J12*
X133162523Y-82181095D02*
X134069666Y-82181095D01*
X134251095Y-82241571D01*
X134372047Y-82362523D01*
X134432523Y-82543952D01*
X134432523Y-82664904D01*
X134432523Y-80911095D02*
X134432523Y-81636809D01*
X134432523Y-81273952D02*
X133162523Y-81273952D01*
X133343952Y-81394904D01*
X133464904Y-81515857D01*
X133525380Y-81636809D01*
X133283476Y-80427285D02*
X133223000Y-80366809D01*
X133162523Y-80245857D01*
X133162523Y-79943476D01*
X133223000Y-79822523D01*
X133283476Y-79762047D01*
X133404428Y-79701571D01*
X133525380Y-79701571D01*
X133706809Y-79762047D01*
X134432523Y-80487761D01*
X134432523Y-79701571D01*
G04 #@! TO.C,J13*
X52644523Y-82308095D02*
X53551666Y-82308095D01*
X53733095Y-82368571D01*
X53854047Y-82489523D01*
X53914523Y-82670952D01*
X53914523Y-82791904D01*
X53914523Y-81038095D02*
X53914523Y-81763809D01*
X53914523Y-81400952D02*
X52644523Y-81400952D01*
X52825952Y-81521904D01*
X52946904Y-81642857D01*
X53007380Y-81763809D01*
X52644523Y-80614761D02*
X52644523Y-79828571D01*
X53128333Y-80251904D01*
X53128333Y-80070476D01*
X53188809Y-79949523D01*
X53249285Y-79889047D01*
X53370238Y-79828571D01*
X53672619Y-79828571D01*
X53793571Y-79889047D01*
X53854047Y-79949523D01*
X53914523Y-80070476D01*
X53914523Y-80433333D01*
X53854047Y-80554285D01*
X53793571Y-80614761D01*
G04 #@! TO.C,JP1*
D15*
X106386380Y-92273333D02*
X107100666Y-92273333D01*
X107243523Y-92320952D01*
X107338761Y-92416190D01*
X107386380Y-92559047D01*
X107386380Y-92654285D01*
X107386380Y-91797142D02*
X106386380Y-91797142D01*
X106386380Y-91416190D01*
X106434000Y-91320952D01*
X106481619Y-91273333D01*
X106576857Y-91225714D01*
X106719714Y-91225714D01*
X106814952Y-91273333D01*
X106862571Y-91320952D01*
X106910190Y-91416190D01*
X106910190Y-91797142D01*
X107386380Y-90273333D02*
X107386380Y-90844761D01*
X107386380Y-90559047D02*
X106386380Y-90559047D01*
X106529238Y-90654285D01*
X106624476Y-90749523D01*
X106672095Y-90844761D01*
G04 #@! TO.C,JP2*
X106386380Y-79954333D02*
X107100666Y-79954333D01*
X107243523Y-80001952D01*
X107338761Y-80097190D01*
X107386380Y-80240047D01*
X107386380Y-80335285D01*
X107386380Y-79478142D02*
X106386380Y-79478142D01*
X106386380Y-79097190D01*
X106434000Y-79001952D01*
X106481619Y-78954333D01*
X106576857Y-78906714D01*
X106719714Y-78906714D01*
X106814952Y-78954333D01*
X106862571Y-79001952D01*
X106910190Y-79097190D01*
X106910190Y-79478142D01*
X106481619Y-78525761D02*
X106434000Y-78478142D01*
X106386380Y-78382904D01*
X106386380Y-78144809D01*
X106434000Y-78049571D01*
X106481619Y-78001952D01*
X106576857Y-77954333D01*
X106672095Y-77954333D01*
X106814952Y-78001952D01*
X107386380Y-78573380D01*
X107386380Y-77954333D01*
G04 #@! TO.C,JP3*
X104354380Y-98496333D02*
X105068666Y-98496333D01*
X105211523Y-98543952D01*
X105306761Y-98639190D01*
X105354380Y-98782047D01*
X105354380Y-98877285D01*
X105354380Y-98020142D02*
X104354380Y-98020142D01*
X104354380Y-97639190D01*
X104402000Y-97543952D01*
X104449619Y-97496333D01*
X104544857Y-97448714D01*
X104687714Y-97448714D01*
X104782952Y-97496333D01*
X104830571Y-97543952D01*
X104878190Y-97639190D01*
X104878190Y-98020142D01*
X104354380Y-97115380D02*
X104354380Y-96496333D01*
X104735333Y-96829666D01*
X104735333Y-96686809D01*
X104782952Y-96591571D01*
X104830571Y-96543952D01*
X104925809Y-96496333D01*
X105163904Y-96496333D01*
X105259142Y-96543952D01*
X105306761Y-96591571D01*
X105354380Y-96686809D01*
X105354380Y-96972523D01*
X105306761Y-97067761D01*
X105259142Y-97115380D01*
G04 #@! TO.C,JP5*
X130262380Y-54173333D02*
X130976666Y-54173333D01*
X131119523Y-54220952D01*
X131214761Y-54316190D01*
X131262380Y-54459047D01*
X131262380Y-54554285D01*
X131262380Y-53697142D02*
X130262380Y-53697142D01*
X130262380Y-53316190D01*
X130310000Y-53220952D01*
X130357619Y-53173333D01*
X130452857Y-53125714D01*
X130595714Y-53125714D01*
X130690952Y-53173333D01*
X130738571Y-53220952D01*
X130786190Y-53316190D01*
X130786190Y-53697142D01*
X130262380Y-52220952D02*
X130262380Y-52697142D01*
X130738571Y-52744761D01*
X130690952Y-52697142D01*
X130643333Y-52601904D01*
X130643333Y-52363809D01*
X130690952Y-52268571D01*
X130738571Y-52220952D01*
X130833809Y-52173333D01*
X131071904Y-52173333D01*
X131167142Y-52220952D01*
X131214761Y-52268571D01*
X131262380Y-52363809D01*
X131262380Y-52601904D01*
X131214761Y-52697142D01*
X131167142Y-52744761D01*
G04 #@! TO.C,JP9*
X81748380Y-60777333D02*
X82462666Y-60777333D01*
X82605523Y-60824952D01*
X82700761Y-60920190D01*
X82748380Y-61063047D01*
X82748380Y-61158285D01*
X82748380Y-60301142D02*
X81748380Y-60301142D01*
X81748380Y-59920190D01*
X81796000Y-59824952D01*
X81843619Y-59777333D01*
X81938857Y-59729714D01*
X82081714Y-59729714D01*
X82176952Y-59777333D01*
X82224571Y-59824952D01*
X82272190Y-59920190D01*
X82272190Y-60301142D01*
X82748380Y-59253523D02*
X82748380Y-59063047D01*
X82700761Y-58967809D01*
X82653142Y-58920190D01*
X82510285Y-58824952D01*
X82319809Y-58777333D01*
X81938857Y-58777333D01*
X81843619Y-58824952D01*
X81796000Y-58872571D01*
X81748380Y-58967809D01*
X81748380Y-59158285D01*
X81796000Y-59253523D01*
X81843619Y-59301142D01*
X81938857Y-59348761D01*
X82176952Y-59348761D01*
X82272190Y-59301142D01*
X82319809Y-59253523D01*
X82367428Y-59158285D01*
X82367428Y-58967809D01*
X82319809Y-58872571D01*
X82272190Y-58824952D01*
X82176952Y-58777333D01*
G04 #@! TO.C,JP10*
X79335476Y-64476380D02*
X79335476Y-65190666D01*
X79287857Y-65333523D01*
X79192619Y-65428761D01*
X79049761Y-65476380D01*
X78954523Y-65476380D01*
X79811666Y-65476380D02*
X79811666Y-64476380D01*
X80192619Y-64476380D01*
X80287857Y-64524000D01*
X80335476Y-64571619D01*
X80383095Y-64666857D01*
X80383095Y-64809714D01*
X80335476Y-64904952D01*
X80287857Y-64952571D01*
X80192619Y-65000190D01*
X79811666Y-65000190D01*
X81335476Y-65476380D02*
X80764047Y-65476380D01*
X81049761Y-65476380D02*
X81049761Y-64476380D01*
X80954523Y-64619238D01*
X80859285Y-64714476D01*
X80764047Y-64762095D01*
X81954523Y-64476380D02*
X82049761Y-64476380D01*
X82145000Y-64524000D01*
X82192619Y-64571619D01*
X82240238Y-64666857D01*
X82287857Y-64857333D01*
X82287857Y-65095428D01*
X82240238Y-65285904D01*
X82192619Y-65381142D01*
X82145000Y-65428761D01*
X82049761Y-65476380D01*
X81954523Y-65476380D01*
X81859285Y-65428761D01*
X81811666Y-65381142D01*
X81764047Y-65285904D01*
X81716428Y-65095428D01*
X81716428Y-64857333D01*
X81764047Y-64666857D01*
X81811666Y-64571619D01*
X81859285Y-64524000D01*
X81954523Y-64476380D01*
G04 #@! TO.C,JP11*
X84034380Y-67222523D02*
X84748666Y-67222523D01*
X84891523Y-67270142D01*
X84986761Y-67365380D01*
X85034380Y-67508238D01*
X85034380Y-67603476D01*
X85034380Y-66746333D02*
X84034380Y-66746333D01*
X84034380Y-66365380D01*
X84082000Y-66270142D01*
X84129619Y-66222523D01*
X84224857Y-66174904D01*
X84367714Y-66174904D01*
X84462952Y-66222523D01*
X84510571Y-66270142D01*
X84558190Y-66365380D01*
X84558190Y-66746333D01*
X85034380Y-65222523D02*
X85034380Y-65793952D01*
X85034380Y-65508238D02*
X84034380Y-65508238D01*
X84177238Y-65603476D01*
X84272476Y-65698714D01*
X84320095Y-65793952D01*
X85034380Y-64270142D02*
X85034380Y-64841571D01*
X85034380Y-64555857D02*
X84034380Y-64555857D01*
X84177238Y-64651095D01*
X84272476Y-64746333D01*
X84320095Y-64841571D01*
G04 #@! TO.C,JP12*
X86955380Y-62523523D02*
X87669666Y-62523523D01*
X87812523Y-62571142D01*
X87907761Y-62666380D01*
X87955380Y-62809238D01*
X87955380Y-62904476D01*
X87955380Y-62047333D02*
X86955380Y-62047333D01*
X86955380Y-61666380D01*
X87003000Y-61571142D01*
X87050619Y-61523523D01*
X87145857Y-61475904D01*
X87288714Y-61475904D01*
X87383952Y-61523523D01*
X87431571Y-61571142D01*
X87479190Y-61666380D01*
X87479190Y-62047333D01*
X87955380Y-60523523D02*
X87955380Y-61094952D01*
X87955380Y-60809238D02*
X86955380Y-60809238D01*
X87098238Y-60904476D01*
X87193476Y-60999714D01*
X87241095Y-61094952D01*
X87050619Y-60142571D02*
X87003000Y-60094952D01*
X86955380Y-59999714D01*
X86955380Y-59761619D01*
X87003000Y-59666380D01*
X87050619Y-59618761D01*
X87145857Y-59571142D01*
X87241095Y-59571142D01*
X87383952Y-59618761D01*
X87955380Y-60190190D01*
X87955380Y-59571142D01*
G04 #@! TO.C,JP21*
X102449380Y-63031523D02*
X103163666Y-63031523D01*
X103306523Y-63079142D01*
X103401761Y-63174380D01*
X103449380Y-63317238D01*
X103449380Y-63412476D01*
X103449380Y-62555333D02*
X102449380Y-62555333D01*
X102449380Y-62174380D01*
X102497000Y-62079142D01*
X102544619Y-62031523D01*
X102639857Y-61983904D01*
X102782714Y-61983904D01*
X102877952Y-62031523D01*
X102925571Y-62079142D01*
X102973190Y-62174380D01*
X102973190Y-62555333D01*
X102544619Y-61602952D02*
X102497000Y-61555333D01*
X102449380Y-61460095D01*
X102449380Y-61222000D01*
X102497000Y-61126761D01*
X102544619Y-61079142D01*
X102639857Y-61031523D01*
X102735095Y-61031523D01*
X102877952Y-61079142D01*
X103449380Y-61650571D01*
X103449380Y-61031523D01*
X103449380Y-60079142D02*
X103449380Y-60650571D01*
X103449380Y-60364857D02*
X102449380Y-60364857D01*
X102592238Y-60460095D01*
X102687476Y-60555333D01*
X102735095Y-60650571D01*
G04 #@! TO.C,JP22*
X105116380Y-63031523D02*
X105830666Y-63031523D01*
X105973523Y-63079142D01*
X106068761Y-63174380D01*
X106116380Y-63317238D01*
X106116380Y-63412476D01*
X106116380Y-62555333D02*
X105116380Y-62555333D01*
X105116380Y-62174380D01*
X105164000Y-62079142D01*
X105211619Y-62031523D01*
X105306857Y-61983904D01*
X105449714Y-61983904D01*
X105544952Y-62031523D01*
X105592571Y-62079142D01*
X105640190Y-62174380D01*
X105640190Y-62555333D01*
X105211619Y-61602952D02*
X105164000Y-61555333D01*
X105116380Y-61460095D01*
X105116380Y-61222000D01*
X105164000Y-61126761D01*
X105211619Y-61079142D01*
X105306857Y-61031523D01*
X105402095Y-61031523D01*
X105544952Y-61079142D01*
X106116380Y-61650571D01*
X106116380Y-61031523D01*
X105211619Y-60650571D02*
X105164000Y-60602952D01*
X105116380Y-60507714D01*
X105116380Y-60269619D01*
X105164000Y-60174380D01*
X105211619Y-60126761D01*
X105306857Y-60079142D01*
X105402095Y-60079142D01*
X105544952Y-60126761D01*
X106116380Y-60698190D01*
X106116380Y-60079142D01*
G04 #@! TO.C,JP23*
X107656380Y-63031523D02*
X108370666Y-63031523D01*
X108513523Y-63079142D01*
X108608761Y-63174380D01*
X108656380Y-63317238D01*
X108656380Y-63412476D01*
X108656380Y-62555333D02*
X107656380Y-62555333D01*
X107656380Y-62174380D01*
X107704000Y-62079142D01*
X107751619Y-62031523D01*
X107846857Y-61983904D01*
X107989714Y-61983904D01*
X108084952Y-62031523D01*
X108132571Y-62079142D01*
X108180190Y-62174380D01*
X108180190Y-62555333D01*
X107751619Y-61602952D02*
X107704000Y-61555333D01*
X107656380Y-61460095D01*
X107656380Y-61222000D01*
X107704000Y-61126761D01*
X107751619Y-61079142D01*
X107846857Y-61031523D01*
X107942095Y-61031523D01*
X108084952Y-61079142D01*
X108656380Y-61650571D01*
X108656380Y-61031523D01*
X107656380Y-60698190D02*
X107656380Y-60079142D01*
X108037333Y-60412476D01*
X108037333Y-60269619D01*
X108084952Y-60174380D01*
X108132571Y-60126761D01*
X108227809Y-60079142D01*
X108465904Y-60079142D01*
X108561142Y-60126761D01*
X108608761Y-60174380D01*
X108656380Y-60269619D01*
X108656380Y-60555333D01*
X108608761Y-60650571D01*
X108561142Y-60698190D01*
G04 #@! TO.C,JP24*
X110069380Y-63031523D02*
X110783666Y-63031523D01*
X110926523Y-63079142D01*
X111021761Y-63174380D01*
X111069380Y-63317238D01*
X111069380Y-63412476D01*
X111069380Y-62555333D02*
X110069380Y-62555333D01*
X110069380Y-62174380D01*
X110117000Y-62079142D01*
X110164619Y-62031523D01*
X110259857Y-61983904D01*
X110402714Y-61983904D01*
X110497952Y-62031523D01*
X110545571Y-62079142D01*
X110593190Y-62174380D01*
X110593190Y-62555333D01*
X110164619Y-61602952D02*
X110117000Y-61555333D01*
X110069380Y-61460095D01*
X110069380Y-61222000D01*
X110117000Y-61126761D01*
X110164619Y-61079142D01*
X110259857Y-61031523D01*
X110355095Y-61031523D01*
X110497952Y-61079142D01*
X111069380Y-61650571D01*
X111069380Y-61031523D01*
X110402714Y-60174380D02*
X111069380Y-60174380D01*
X110021761Y-60412476D02*
X110736047Y-60650571D01*
X110736047Y-60031523D01*
G04 #@! TO.C,JP25*
X112736380Y-63031523D02*
X113450666Y-63031523D01*
X113593523Y-63079142D01*
X113688761Y-63174380D01*
X113736380Y-63317238D01*
X113736380Y-63412476D01*
X113736380Y-62555333D02*
X112736380Y-62555333D01*
X112736380Y-62174380D01*
X112784000Y-62079142D01*
X112831619Y-62031523D01*
X112926857Y-61983904D01*
X113069714Y-61983904D01*
X113164952Y-62031523D01*
X113212571Y-62079142D01*
X113260190Y-62174380D01*
X113260190Y-62555333D01*
X112831619Y-61602952D02*
X112784000Y-61555333D01*
X112736380Y-61460095D01*
X112736380Y-61222000D01*
X112784000Y-61126761D01*
X112831619Y-61079142D01*
X112926857Y-61031523D01*
X113022095Y-61031523D01*
X113164952Y-61079142D01*
X113736380Y-61650571D01*
X113736380Y-61031523D01*
X112736380Y-60126761D02*
X112736380Y-60602952D01*
X113212571Y-60650571D01*
X113164952Y-60602952D01*
X113117333Y-60507714D01*
X113117333Y-60269619D01*
X113164952Y-60174380D01*
X113212571Y-60126761D01*
X113307809Y-60079142D01*
X113545904Y-60079142D01*
X113641142Y-60126761D01*
X113688761Y-60174380D01*
X113736380Y-60269619D01*
X113736380Y-60507714D01*
X113688761Y-60602952D01*
X113641142Y-60650571D01*
G04 #@! TO.C,JP26*
X115403380Y-63031523D02*
X116117666Y-63031523D01*
X116260523Y-63079142D01*
X116355761Y-63174380D01*
X116403380Y-63317238D01*
X116403380Y-63412476D01*
X116403380Y-62555333D02*
X115403380Y-62555333D01*
X115403380Y-62174380D01*
X115451000Y-62079142D01*
X115498619Y-62031523D01*
X115593857Y-61983904D01*
X115736714Y-61983904D01*
X115831952Y-62031523D01*
X115879571Y-62079142D01*
X115927190Y-62174380D01*
X115927190Y-62555333D01*
X115498619Y-61602952D02*
X115451000Y-61555333D01*
X115403380Y-61460095D01*
X115403380Y-61222000D01*
X115451000Y-61126761D01*
X115498619Y-61079142D01*
X115593857Y-61031523D01*
X115689095Y-61031523D01*
X115831952Y-61079142D01*
X116403380Y-61650571D01*
X116403380Y-61031523D01*
X115403380Y-60174380D02*
X115403380Y-60364857D01*
X115451000Y-60460095D01*
X115498619Y-60507714D01*
X115641476Y-60602952D01*
X115831952Y-60650571D01*
X116212904Y-60650571D01*
X116308142Y-60602952D01*
X116355761Y-60555333D01*
X116403380Y-60460095D01*
X116403380Y-60269619D01*
X116355761Y-60174380D01*
X116308142Y-60126761D01*
X116212904Y-60079142D01*
X115974809Y-60079142D01*
X115879571Y-60126761D01*
X115831952Y-60174380D01*
X115784333Y-60269619D01*
X115784333Y-60460095D01*
X115831952Y-60555333D01*
X115879571Y-60602952D01*
X115974809Y-60650571D01*
G04 #@! TO.C,JP27*
X117689380Y-63158523D02*
X118403666Y-63158523D01*
X118546523Y-63206142D01*
X118641761Y-63301380D01*
X118689380Y-63444238D01*
X118689380Y-63539476D01*
X118689380Y-62682333D02*
X117689380Y-62682333D01*
X117689380Y-62301380D01*
X117737000Y-62206142D01*
X117784619Y-62158523D01*
X117879857Y-62110904D01*
X118022714Y-62110904D01*
X118117952Y-62158523D01*
X118165571Y-62206142D01*
X118213190Y-62301380D01*
X118213190Y-62682333D01*
X117784619Y-61729952D02*
X117737000Y-61682333D01*
X117689380Y-61587095D01*
X117689380Y-61349000D01*
X117737000Y-61253761D01*
X117784619Y-61206142D01*
X117879857Y-61158523D01*
X117975095Y-61158523D01*
X118117952Y-61206142D01*
X118689380Y-61777571D01*
X118689380Y-61158523D01*
X117689380Y-60825190D02*
X117689380Y-60158523D01*
X118689380Y-60587095D01*
G04 #@! TO.C,JP28*
X102375380Y-109132523D02*
X103089666Y-109132523D01*
X103232523Y-109180142D01*
X103327761Y-109275380D01*
X103375380Y-109418238D01*
X103375380Y-109513476D01*
X103375380Y-108656333D02*
X102375380Y-108656333D01*
X102375380Y-108275380D01*
X102423000Y-108180142D01*
X102470619Y-108132523D01*
X102565857Y-108084904D01*
X102708714Y-108084904D01*
X102803952Y-108132523D01*
X102851571Y-108180142D01*
X102899190Y-108275380D01*
X102899190Y-108656333D01*
X102470619Y-107703952D02*
X102423000Y-107656333D01*
X102375380Y-107561095D01*
X102375380Y-107323000D01*
X102423000Y-107227761D01*
X102470619Y-107180142D01*
X102565857Y-107132523D01*
X102661095Y-107132523D01*
X102803952Y-107180142D01*
X103375380Y-107751571D01*
X103375380Y-107132523D01*
X102803952Y-106561095D02*
X102756333Y-106656333D01*
X102708714Y-106703952D01*
X102613476Y-106751571D01*
X102565857Y-106751571D01*
X102470619Y-106703952D01*
X102423000Y-106656333D01*
X102375380Y-106561095D01*
X102375380Y-106370619D01*
X102423000Y-106275380D01*
X102470619Y-106227761D01*
X102565857Y-106180142D01*
X102613476Y-106180142D01*
X102708714Y-106227761D01*
X102756333Y-106275380D01*
X102803952Y-106370619D01*
X102803952Y-106561095D01*
X102851571Y-106656333D01*
X102899190Y-106703952D01*
X102994428Y-106751571D01*
X103184904Y-106751571D01*
X103280142Y-106703952D01*
X103327761Y-106656333D01*
X103375380Y-106561095D01*
X103375380Y-106370619D01*
X103327761Y-106275380D01*
X103280142Y-106227761D01*
X103184904Y-106180142D01*
X102994428Y-106180142D01*
X102899190Y-106227761D01*
X102851571Y-106275380D01*
X102803952Y-106370619D01*
G04 #@! TO.C,JP29*
X90257380Y-59602523D02*
X90971666Y-59602523D01*
X91114523Y-59650142D01*
X91209761Y-59745380D01*
X91257380Y-59888238D01*
X91257380Y-59983476D01*
X91257380Y-59126333D02*
X90257380Y-59126333D01*
X90257380Y-58745380D01*
X90305000Y-58650142D01*
X90352619Y-58602523D01*
X90447857Y-58554904D01*
X90590714Y-58554904D01*
X90685952Y-58602523D01*
X90733571Y-58650142D01*
X90781190Y-58745380D01*
X90781190Y-59126333D01*
X90352619Y-58173952D02*
X90305000Y-58126333D01*
X90257380Y-58031095D01*
X90257380Y-57793000D01*
X90305000Y-57697761D01*
X90352619Y-57650142D01*
X90447857Y-57602523D01*
X90543095Y-57602523D01*
X90685952Y-57650142D01*
X91257380Y-58221571D01*
X91257380Y-57602523D01*
X91257380Y-57126333D02*
X91257380Y-56935857D01*
X91209761Y-56840619D01*
X91162142Y-56793000D01*
X91019285Y-56697761D01*
X90828809Y-56650142D01*
X90447857Y-56650142D01*
X90352619Y-56697761D01*
X90305000Y-56745380D01*
X90257380Y-56840619D01*
X90257380Y-57031095D01*
X90305000Y-57126333D01*
X90352619Y-57173952D01*
X90447857Y-57221571D01*
X90685952Y-57221571D01*
X90781190Y-57173952D01*
X90828809Y-57126333D01*
X90876428Y-57031095D01*
X90876428Y-56840619D01*
X90828809Y-56745380D01*
X90781190Y-56697761D01*
X90685952Y-56650142D01*
G04 #@! TO.C,L1*
X101687333Y-99512380D02*
X101211142Y-99512380D01*
X101211142Y-98512380D01*
X102544476Y-99512380D02*
X101973047Y-99512380D01*
X102258761Y-99512380D02*
X102258761Y-98512380D01*
X102163523Y-98655238D01*
X102068285Y-98750476D01*
X101973047Y-98798095D01*
G04 #@! TO.C,LED1*
X128293952Y-112720380D02*
X127817761Y-112720380D01*
X127817761Y-111720380D01*
X128627285Y-112196571D02*
X128960619Y-112196571D01*
X129103476Y-112720380D02*
X128627285Y-112720380D01*
X128627285Y-111720380D01*
X129103476Y-111720380D01*
X129532047Y-112720380D02*
X129532047Y-111720380D01*
X129770142Y-111720380D01*
X129913000Y-111768000D01*
X130008238Y-111863238D01*
X130055857Y-111958476D01*
X130103476Y-112148952D01*
X130103476Y-112291809D01*
X130055857Y-112482285D01*
X130008238Y-112577523D01*
X129913000Y-112672761D01*
X129770142Y-112720380D01*
X129532047Y-112720380D01*
X131055857Y-112720380D02*
X130484428Y-112720380D01*
X130770142Y-112720380D02*
X130770142Y-111720380D01*
X130674904Y-111863238D01*
X130579666Y-111958476D01*
X130484428Y-112006095D01*
G04 #@! TO.C,LED2*
X128801952Y-125420380D02*
X128325761Y-125420380D01*
X128325761Y-124420380D01*
X129135285Y-124896571D02*
X129468619Y-124896571D01*
X129611476Y-125420380D02*
X129135285Y-125420380D01*
X129135285Y-124420380D01*
X129611476Y-124420380D01*
X130040047Y-125420380D02*
X130040047Y-124420380D01*
X130278142Y-124420380D01*
X130421000Y-124468000D01*
X130516238Y-124563238D01*
X130563857Y-124658476D01*
X130611476Y-124848952D01*
X130611476Y-124991809D01*
X130563857Y-125182285D01*
X130516238Y-125277523D01*
X130421000Y-125372761D01*
X130278142Y-125420380D01*
X130040047Y-125420380D01*
X130992428Y-124515619D02*
X131040047Y-124468000D01*
X131135285Y-124420380D01*
X131373380Y-124420380D01*
X131468619Y-124468000D01*
X131516238Y-124515619D01*
X131563857Y-124610857D01*
X131563857Y-124706095D01*
X131516238Y-124848952D01*
X130944809Y-125420380D01*
X131563857Y-125420380D01*
G04 #@! TO.C,LED3*
X128039952Y-73985380D02*
X127563761Y-73985380D01*
X127563761Y-72985380D01*
X128373285Y-73461571D02*
X128706619Y-73461571D01*
X128849476Y-73985380D02*
X128373285Y-73985380D01*
X128373285Y-72985380D01*
X128849476Y-72985380D01*
X129278047Y-73985380D02*
X129278047Y-72985380D01*
X129516142Y-72985380D01*
X129659000Y-73033000D01*
X129754238Y-73128238D01*
X129801857Y-73223476D01*
X129849476Y-73413952D01*
X129849476Y-73556809D01*
X129801857Y-73747285D01*
X129754238Y-73842523D01*
X129659000Y-73937761D01*
X129516142Y-73985380D01*
X129278047Y-73985380D01*
X130182809Y-72985380D02*
X130801857Y-72985380D01*
X130468523Y-73366333D01*
X130611380Y-73366333D01*
X130706619Y-73413952D01*
X130754238Y-73461571D01*
X130801857Y-73556809D01*
X130801857Y-73794904D01*
X130754238Y-73890142D01*
X130706619Y-73937761D01*
X130611380Y-73985380D01*
X130325666Y-73985380D01*
X130230428Y-73937761D01*
X130182809Y-73890142D01*
G04 #@! TO.C,LED4*
X128420952Y-100147380D02*
X127944761Y-100147380D01*
X127944761Y-99147380D01*
X128754285Y-99623571D02*
X129087619Y-99623571D01*
X129230476Y-100147380D02*
X128754285Y-100147380D01*
X128754285Y-99147380D01*
X129230476Y-99147380D01*
X129659047Y-100147380D02*
X129659047Y-99147380D01*
X129897142Y-99147380D01*
X130040000Y-99195000D01*
X130135238Y-99290238D01*
X130182857Y-99385476D01*
X130230476Y-99575952D01*
X130230476Y-99718809D01*
X130182857Y-99909285D01*
X130135238Y-100004523D01*
X130040000Y-100099761D01*
X129897142Y-100147380D01*
X129659047Y-100147380D01*
X131087619Y-99480714D02*
X131087619Y-100147380D01*
X130849523Y-99099761D02*
X130611428Y-99814047D01*
X131230476Y-99814047D01*
G04 #@! TO.C,LED5*
X56665952Y-63063380D02*
X56189761Y-63063380D01*
X56189761Y-62063380D01*
X56999285Y-62539571D02*
X57332619Y-62539571D01*
X57475476Y-63063380D02*
X56999285Y-63063380D01*
X56999285Y-62063380D01*
X57475476Y-62063380D01*
X57904047Y-63063380D02*
X57904047Y-62063380D01*
X58142142Y-62063380D01*
X58285000Y-62111000D01*
X58380238Y-62206238D01*
X58427857Y-62301476D01*
X58475476Y-62491952D01*
X58475476Y-62634809D01*
X58427857Y-62825285D01*
X58380238Y-62920523D01*
X58285000Y-63015761D01*
X58142142Y-63063380D01*
X57904047Y-63063380D01*
X59380238Y-62063380D02*
X58904047Y-62063380D01*
X58856428Y-62539571D01*
X58904047Y-62491952D01*
X58999285Y-62444333D01*
X59237380Y-62444333D01*
X59332619Y-62491952D01*
X59380238Y-62539571D01*
X59427857Y-62634809D01*
X59427857Y-62872904D01*
X59380238Y-62968142D01*
X59332619Y-63015761D01*
X59237380Y-63063380D01*
X58999285Y-63063380D01*
X58904047Y-63015761D01*
X58856428Y-62968142D01*
G04 #@! TO.C,LED6*
X56665952Y-88717380D02*
X56189761Y-88717380D01*
X56189761Y-87717380D01*
X56999285Y-88193571D02*
X57332619Y-88193571D01*
X57475476Y-88717380D02*
X56999285Y-88717380D01*
X56999285Y-87717380D01*
X57475476Y-87717380D01*
X57904047Y-88717380D02*
X57904047Y-87717380D01*
X58142142Y-87717380D01*
X58285000Y-87765000D01*
X58380238Y-87860238D01*
X58427857Y-87955476D01*
X58475476Y-88145952D01*
X58475476Y-88288809D01*
X58427857Y-88479285D01*
X58380238Y-88574523D01*
X58285000Y-88669761D01*
X58142142Y-88717380D01*
X57904047Y-88717380D01*
X59332619Y-87717380D02*
X59142142Y-87717380D01*
X59046904Y-87765000D01*
X58999285Y-87812619D01*
X58904047Y-87955476D01*
X58856428Y-88145952D01*
X58856428Y-88526904D01*
X58904047Y-88622142D01*
X58951666Y-88669761D01*
X59046904Y-88717380D01*
X59237380Y-88717380D01*
X59332619Y-88669761D01*
X59380238Y-88622142D01*
X59427857Y-88526904D01*
X59427857Y-88288809D01*
X59380238Y-88193571D01*
X59332619Y-88145952D01*
X59237380Y-88098333D01*
X59046904Y-88098333D01*
X58951666Y-88145952D01*
X58904047Y-88193571D01*
X58856428Y-88288809D01*
G04 #@! TO.C,LED7*
X56284952Y-114244380D02*
X55808761Y-114244380D01*
X55808761Y-113244380D01*
X56618285Y-113720571D02*
X56951619Y-113720571D01*
X57094476Y-114244380D02*
X56618285Y-114244380D01*
X56618285Y-113244380D01*
X57094476Y-113244380D01*
X57523047Y-114244380D02*
X57523047Y-113244380D01*
X57761142Y-113244380D01*
X57904000Y-113292000D01*
X57999238Y-113387238D01*
X58046857Y-113482476D01*
X58094476Y-113672952D01*
X58094476Y-113815809D01*
X58046857Y-114006285D01*
X57999238Y-114101523D01*
X57904000Y-114196761D01*
X57761142Y-114244380D01*
X57523047Y-114244380D01*
X58427809Y-113244380D02*
X59094476Y-113244380D01*
X58665904Y-114244380D01*
G04 #@! TO.C,LED8*
X56284952Y-101671380D02*
X55808761Y-101671380D01*
X55808761Y-100671380D01*
X56618285Y-101147571D02*
X56951619Y-101147571D01*
X57094476Y-101671380D02*
X56618285Y-101671380D01*
X56618285Y-100671380D01*
X57094476Y-100671380D01*
X57523047Y-101671380D02*
X57523047Y-100671380D01*
X57761142Y-100671380D01*
X57904000Y-100719000D01*
X57999238Y-100814238D01*
X58046857Y-100909476D01*
X58094476Y-101099952D01*
X58094476Y-101242809D01*
X58046857Y-101433285D01*
X57999238Y-101528523D01*
X57904000Y-101623761D01*
X57761142Y-101671380D01*
X57523047Y-101671380D01*
X58665904Y-101099952D02*
X58570666Y-101052333D01*
X58523047Y-101004714D01*
X58475428Y-100909476D01*
X58475428Y-100861857D01*
X58523047Y-100766619D01*
X58570666Y-100719000D01*
X58665904Y-100671380D01*
X58856380Y-100671380D01*
X58951619Y-100719000D01*
X58999238Y-100766619D01*
X59046857Y-100861857D01*
X59046857Y-100909476D01*
X58999238Y-101004714D01*
X58951619Y-101052333D01*
X58856380Y-101099952D01*
X58665904Y-101099952D01*
X58570666Y-101147571D01*
X58523047Y-101195190D01*
X58475428Y-101290428D01*
X58475428Y-101480904D01*
X58523047Y-101576142D01*
X58570666Y-101623761D01*
X58665904Y-101671380D01*
X58856380Y-101671380D01*
X58951619Y-101623761D01*
X58999238Y-101576142D01*
X59046857Y-101480904D01*
X59046857Y-101290428D01*
X58999238Y-101195190D01*
X58951619Y-101147571D01*
X58856380Y-101099952D01*
G04 #@! TO.C,LED9*
X79271952Y-45664380D02*
X78795761Y-45664380D01*
X78795761Y-44664380D01*
X79605285Y-45140571D02*
X79938619Y-45140571D01*
X80081476Y-45664380D02*
X79605285Y-45664380D01*
X79605285Y-44664380D01*
X80081476Y-44664380D01*
X80510047Y-45664380D02*
X80510047Y-44664380D01*
X80748142Y-44664380D01*
X80891000Y-44712000D01*
X80986238Y-44807238D01*
X81033857Y-44902476D01*
X81081476Y-45092952D01*
X81081476Y-45235809D01*
X81033857Y-45426285D01*
X80986238Y-45521523D01*
X80891000Y-45616761D01*
X80748142Y-45664380D01*
X80510047Y-45664380D01*
X81557666Y-45664380D02*
X81748142Y-45664380D01*
X81843380Y-45616761D01*
X81891000Y-45569142D01*
X81986238Y-45426285D01*
X82033857Y-45235809D01*
X82033857Y-44854857D01*
X81986238Y-44759619D01*
X81938619Y-44712000D01*
X81843380Y-44664380D01*
X81652904Y-44664380D01*
X81557666Y-44712000D01*
X81510047Y-44759619D01*
X81462428Y-44854857D01*
X81462428Y-45092952D01*
X81510047Y-45188190D01*
X81557666Y-45235809D01*
X81652904Y-45283428D01*
X81843380Y-45283428D01*
X81938619Y-45235809D01*
X81986238Y-45188190D01*
X82033857Y-45092952D01*
G04 #@! TO.C,LED10*
X128071761Y-87066380D02*
X127595571Y-87066380D01*
X127595571Y-86066380D01*
X128405095Y-86542571D02*
X128738428Y-86542571D01*
X128881285Y-87066380D02*
X128405095Y-87066380D01*
X128405095Y-86066380D01*
X128881285Y-86066380D01*
X129309857Y-87066380D02*
X129309857Y-86066380D01*
X129547952Y-86066380D01*
X129690809Y-86114000D01*
X129786047Y-86209238D01*
X129833666Y-86304476D01*
X129881285Y-86494952D01*
X129881285Y-86637809D01*
X129833666Y-86828285D01*
X129786047Y-86923523D01*
X129690809Y-87018761D01*
X129547952Y-87066380D01*
X129309857Y-87066380D01*
X130833666Y-87066380D02*
X130262238Y-87066380D01*
X130547952Y-87066380D02*
X130547952Y-86066380D01*
X130452714Y-86209238D01*
X130357476Y-86304476D01*
X130262238Y-86352095D01*
X131452714Y-86066380D02*
X131547952Y-86066380D01*
X131643190Y-86114000D01*
X131690809Y-86161619D01*
X131738428Y-86256857D01*
X131786047Y-86447333D01*
X131786047Y-86685428D01*
X131738428Y-86875904D01*
X131690809Y-86971142D01*
X131643190Y-87018761D01*
X131547952Y-87066380D01*
X131452714Y-87066380D01*
X131357476Y-87018761D01*
X131309857Y-86971142D01*
X131262238Y-86875904D01*
X131214619Y-86685428D01*
X131214619Y-86447333D01*
X131262238Y-86256857D01*
X131309857Y-86161619D01*
X131357476Y-86114000D01*
X131452714Y-86066380D01*
G04 #@! TO.C,LED11*
X55935761Y-75890380D02*
X55459571Y-75890380D01*
X55459571Y-74890380D01*
X56269095Y-75366571D02*
X56602428Y-75366571D01*
X56745285Y-75890380D02*
X56269095Y-75890380D01*
X56269095Y-74890380D01*
X56745285Y-74890380D01*
X57173857Y-75890380D02*
X57173857Y-74890380D01*
X57411952Y-74890380D01*
X57554809Y-74938000D01*
X57650047Y-75033238D01*
X57697666Y-75128476D01*
X57745285Y-75318952D01*
X57745285Y-75461809D01*
X57697666Y-75652285D01*
X57650047Y-75747523D01*
X57554809Y-75842761D01*
X57411952Y-75890380D01*
X57173857Y-75890380D01*
X58697666Y-75890380D02*
X58126238Y-75890380D01*
X58411952Y-75890380D02*
X58411952Y-74890380D01*
X58316714Y-75033238D01*
X58221476Y-75128476D01*
X58126238Y-75176095D01*
X59650047Y-75890380D02*
X59078619Y-75890380D01*
X59364333Y-75890380D02*
X59364333Y-74890380D01*
X59269095Y-75033238D01*
X59173857Y-75128476D01*
X59078619Y-75176095D01*
G04 #@! TO.C,R1*
X120610333Y-112720380D02*
X120277000Y-112244190D01*
X120038904Y-112720380D02*
X120038904Y-111720380D01*
X120419857Y-111720380D01*
X120515095Y-111768000D01*
X120562714Y-111815619D01*
X120610333Y-111910857D01*
X120610333Y-112053714D01*
X120562714Y-112148952D01*
X120515095Y-112196571D01*
X120419857Y-112244190D01*
X120038904Y-112244190D01*
X121562714Y-112720380D02*
X120991285Y-112720380D01*
X121277000Y-112720380D02*
X121277000Y-111720380D01*
X121181761Y-111863238D01*
X121086523Y-111958476D01*
X120991285Y-112006095D01*
G04 #@! TO.C,R2*
X119467333Y-109037380D02*
X119134000Y-108561190D01*
X118895904Y-109037380D02*
X118895904Y-108037380D01*
X119276857Y-108037380D01*
X119372095Y-108085000D01*
X119419714Y-108132619D01*
X119467333Y-108227857D01*
X119467333Y-108370714D01*
X119419714Y-108465952D01*
X119372095Y-108513571D01*
X119276857Y-108561190D01*
X118895904Y-108561190D01*
X119848285Y-108132619D02*
X119895904Y-108085000D01*
X119991142Y-108037380D01*
X120229238Y-108037380D01*
X120324476Y-108085000D01*
X120372095Y-108132619D01*
X120419714Y-108227857D01*
X120419714Y-108323095D01*
X120372095Y-108465952D01*
X119800666Y-109037380D01*
X120419714Y-109037380D01*
G04 #@! TO.C,R3*
X120737333Y-125420380D02*
X120404000Y-124944190D01*
X120165904Y-125420380D02*
X120165904Y-124420380D01*
X120546857Y-124420380D01*
X120642095Y-124468000D01*
X120689714Y-124515619D01*
X120737333Y-124610857D01*
X120737333Y-124753714D01*
X120689714Y-124848952D01*
X120642095Y-124896571D01*
X120546857Y-124944190D01*
X120165904Y-124944190D01*
X121070666Y-124420380D02*
X121689714Y-124420380D01*
X121356380Y-124801333D01*
X121499238Y-124801333D01*
X121594476Y-124848952D01*
X121642095Y-124896571D01*
X121689714Y-124991809D01*
X121689714Y-125229904D01*
X121642095Y-125325142D01*
X121594476Y-125372761D01*
X121499238Y-125420380D01*
X121213523Y-125420380D01*
X121118285Y-125372761D01*
X121070666Y-125325142D01*
G04 #@! TO.C,R4*
X119340333Y-121737380D02*
X119007000Y-121261190D01*
X118768904Y-121737380D02*
X118768904Y-120737380D01*
X119149857Y-120737380D01*
X119245095Y-120785000D01*
X119292714Y-120832619D01*
X119340333Y-120927857D01*
X119340333Y-121070714D01*
X119292714Y-121165952D01*
X119245095Y-121213571D01*
X119149857Y-121261190D01*
X118768904Y-121261190D01*
X120197476Y-121070714D02*
X120197476Y-121737380D01*
X119959380Y-120689761D02*
X119721285Y-121404047D01*
X120340333Y-121404047D01*
G04 #@! TO.C,R5*
X119848333Y-73985380D02*
X119515000Y-73509190D01*
X119276904Y-73985380D02*
X119276904Y-72985380D01*
X119657857Y-72985380D01*
X119753095Y-73033000D01*
X119800714Y-73080619D01*
X119848333Y-73175857D01*
X119848333Y-73318714D01*
X119800714Y-73413952D01*
X119753095Y-73461571D01*
X119657857Y-73509190D01*
X119276904Y-73509190D01*
X120753095Y-72985380D02*
X120276904Y-72985380D01*
X120229285Y-73461571D01*
X120276904Y-73413952D01*
X120372142Y-73366333D01*
X120610238Y-73366333D01*
X120705476Y-73413952D01*
X120753095Y-73461571D01*
X120800714Y-73556809D01*
X120800714Y-73794904D01*
X120753095Y-73890142D01*
X120705476Y-73937761D01*
X120610238Y-73985380D01*
X120372142Y-73985380D01*
X120276904Y-73937761D01*
X120229285Y-73890142D01*
G04 #@! TO.C,R6*
X119467333Y-70048380D02*
X119134000Y-69572190D01*
X118895904Y-70048380D02*
X118895904Y-69048380D01*
X119276857Y-69048380D01*
X119372095Y-69096000D01*
X119419714Y-69143619D01*
X119467333Y-69238857D01*
X119467333Y-69381714D01*
X119419714Y-69476952D01*
X119372095Y-69524571D01*
X119276857Y-69572190D01*
X118895904Y-69572190D01*
X120324476Y-69048380D02*
X120134000Y-69048380D01*
X120038761Y-69096000D01*
X119991142Y-69143619D01*
X119895904Y-69286476D01*
X119848285Y-69476952D01*
X119848285Y-69857904D01*
X119895904Y-69953142D01*
X119943523Y-70000761D01*
X120038761Y-70048380D01*
X120229238Y-70048380D01*
X120324476Y-70000761D01*
X120372095Y-69953142D01*
X120419714Y-69857904D01*
X120419714Y-69619809D01*
X120372095Y-69524571D01*
X120324476Y-69476952D01*
X120229238Y-69429333D01*
X120038761Y-69429333D01*
X119943523Y-69476952D01*
X119895904Y-69524571D01*
X119848285Y-69619809D01*
G04 #@! TO.C,R7*
X120356333Y-100147380D02*
X120023000Y-99671190D01*
X119784904Y-100147380D02*
X119784904Y-99147380D01*
X120165857Y-99147380D01*
X120261095Y-99195000D01*
X120308714Y-99242619D01*
X120356333Y-99337857D01*
X120356333Y-99480714D01*
X120308714Y-99575952D01*
X120261095Y-99623571D01*
X120165857Y-99671190D01*
X119784904Y-99671190D01*
X120689666Y-99147380D02*
X121356333Y-99147380D01*
X120927761Y-100147380D01*
G04 #@! TO.C,R8*
X119467333Y-96210380D02*
X119134000Y-95734190D01*
X118895904Y-96210380D02*
X118895904Y-95210380D01*
X119276857Y-95210380D01*
X119372095Y-95258000D01*
X119419714Y-95305619D01*
X119467333Y-95400857D01*
X119467333Y-95543714D01*
X119419714Y-95638952D01*
X119372095Y-95686571D01*
X119276857Y-95734190D01*
X118895904Y-95734190D01*
X120038761Y-95638952D02*
X119943523Y-95591333D01*
X119895904Y-95543714D01*
X119848285Y-95448476D01*
X119848285Y-95400857D01*
X119895904Y-95305619D01*
X119943523Y-95258000D01*
X120038761Y-95210380D01*
X120229238Y-95210380D01*
X120324476Y-95258000D01*
X120372095Y-95305619D01*
X120419714Y-95400857D01*
X120419714Y-95448476D01*
X120372095Y-95543714D01*
X120324476Y-95591333D01*
X120229238Y-95638952D01*
X120038761Y-95638952D01*
X119943523Y-95686571D01*
X119895904Y-95734190D01*
X119848285Y-95829428D01*
X119848285Y-96019904D01*
X119895904Y-96115142D01*
X119943523Y-96162761D01*
X120038761Y-96210380D01*
X120229238Y-96210380D01*
X120324476Y-96162761D01*
X120372095Y-96115142D01*
X120419714Y-96019904D01*
X120419714Y-95829428D01*
X120372095Y-95734190D01*
X120324476Y-95686571D01*
X120229238Y-95638952D01*
G04 #@! TO.C,R9*
X66635333Y-63063380D02*
X66302000Y-62587190D01*
X66063904Y-63063380D02*
X66063904Y-62063380D01*
X66444857Y-62063380D01*
X66540095Y-62111000D01*
X66587714Y-62158619D01*
X66635333Y-62253857D01*
X66635333Y-62396714D01*
X66587714Y-62491952D01*
X66540095Y-62539571D01*
X66444857Y-62587190D01*
X66063904Y-62587190D01*
X67111523Y-63063380D02*
X67302000Y-63063380D01*
X67397238Y-63015761D01*
X67444857Y-62968142D01*
X67540095Y-62825285D01*
X67587714Y-62634809D01*
X67587714Y-62253857D01*
X67540095Y-62158619D01*
X67492476Y-62111000D01*
X67397238Y-62063380D01*
X67206761Y-62063380D01*
X67111523Y-62111000D01*
X67063904Y-62158619D01*
X67016285Y-62253857D01*
X67016285Y-62491952D01*
X67063904Y-62587190D01*
X67111523Y-62634809D01*
X67206761Y-62682428D01*
X67397238Y-62682428D01*
X67492476Y-62634809D01*
X67540095Y-62587190D01*
X67587714Y-62491952D01*
G04 #@! TO.C,R10*
X66540142Y-67127380D02*
X66206809Y-66651190D01*
X65968714Y-67127380D02*
X65968714Y-66127380D01*
X66349666Y-66127380D01*
X66444904Y-66175000D01*
X66492523Y-66222619D01*
X66540142Y-66317857D01*
X66540142Y-66460714D01*
X66492523Y-66555952D01*
X66444904Y-66603571D01*
X66349666Y-66651190D01*
X65968714Y-66651190D01*
X67492523Y-67127380D02*
X66921095Y-67127380D01*
X67206809Y-67127380D02*
X67206809Y-66127380D01*
X67111571Y-66270238D01*
X67016333Y-66365476D01*
X66921095Y-66413095D01*
X68111571Y-66127380D02*
X68206809Y-66127380D01*
X68302047Y-66175000D01*
X68349666Y-66222619D01*
X68397285Y-66317857D01*
X68444904Y-66508333D01*
X68444904Y-66746428D01*
X68397285Y-66936904D01*
X68349666Y-67032142D01*
X68302047Y-67079761D01*
X68206809Y-67127380D01*
X68111571Y-67127380D01*
X68016333Y-67079761D01*
X67968714Y-67032142D01*
X67921095Y-66936904D01*
X67873476Y-66746428D01*
X67873476Y-66508333D01*
X67921095Y-66317857D01*
X67968714Y-66222619D01*
X68016333Y-66175000D01*
X68111571Y-66127380D01*
G04 #@! TO.C,R11*
X66286142Y-88844380D02*
X65952809Y-88368190D01*
X65714714Y-88844380D02*
X65714714Y-87844380D01*
X66095666Y-87844380D01*
X66190904Y-87892000D01*
X66238523Y-87939619D01*
X66286142Y-88034857D01*
X66286142Y-88177714D01*
X66238523Y-88272952D01*
X66190904Y-88320571D01*
X66095666Y-88368190D01*
X65714714Y-88368190D01*
X67238523Y-88844380D02*
X66667095Y-88844380D01*
X66952809Y-88844380D02*
X66952809Y-87844380D01*
X66857571Y-87987238D01*
X66762333Y-88082476D01*
X66667095Y-88130095D01*
X68190904Y-88844380D02*
X67619476Y-88844380D01*
X67905190Y-88844380D02*
X67905190Y-87844380D01*
X67809952Y-87987238D01*
X67714714Y-88082476D01*
X67619476Y-88130095D01*
G04 #@! TO.C,R12*
X66647380Y-92380868D02*
X66314047Y-91904678D01*
X66075952Y-92380868D02*
X66075952Y-91380868D01*
X66456904Y-91380868D01*
X66552142Y-91428488D01*
X66599761Y-91476107D01*
X66647380Y-91571345D01*
X66647380Y-91714202D01*
X66599761Y-91809440D01*
X66552142Y-91857059D01*
X66456904Y-91904678D01*
X66075952Y-91904678D01*
X67599761Y-92380868D02*
X67028333Y-92380868D01*
X67314047Y-92380868D02*
X67314047Y-91380868D01*
X67218809Y-91523726D01*
X67123571Y-91618964D01*
X67028333Y-91666583D01*
X67980714Y-91476107D02*
X68028333Y-91428488D01*
X68123571Y-91380868D01*
X68361666Y-91380868D01*
X68456904Y-91428488D01*
X68504523Y-91476107D01*
X68552142Y-91571345D01*
X68552142Y-91666583D01*
X68504523Y-91809440D01*
X67933095Y-92380868D01*
X68552142Y-92380868D01*
G04 #@! TO.C,R13*
X65905142Y-114244380D02*
X65571809Y-113768190D01*
X65333714Y-114244380D02*
X65333714Y-113244380D01*
X65714666Y-113244380D01*
X65809904Y-113292000D01*
X65857523Y-113339619D01*
X65905142Y-113434857D01*
X65905142Y-113577714D01*
X65857523Y-113672952D01*
X65809904Y-113720571D01*
X65714666Y-113768190D01*
X65333714Y-113768190D01*
X66857523Y-114244380D02*
X66286095Y-114244380D01*
X66571809Y-114244380D02*
X66571809Y-113244380D01*
X66476571Y-113387238D01*
X66381333Y-113482476D01*
X66286095Y-113530095D01*
X67190857Y-113244380D02*
X67809904Y-113244380D01*
X67476571Y-113625333D01*
X67619428Y-113625333D01*
X67714666Y-113672952D01*
X67762285Y-113720571D01*
X67809904Y-113815809D01*
X67809904Y-114053904D01*
X67762285Y-114149142D01*
X67714666Y-114196761D01*
X67619428Y-114244380D01*
X67333714Y-114244380D01*
X67238476Y-114196761D01*
X67190857Y-114149142D01*
G04 #@! TO.C,R14*
X66860000Y-118426666D02*
X66626666Y-118093333D01*
X66460000Y-118426666D02*
X66460000Y-117726666D01*
X66726666Y-117726666D01*
X66793333Y-117760000D01*
X66826666Y-117793333D01*
X66860000Y-117860000D01*
X66860000Y-117960000D01*
X66826666Y-118026666D01*
X66793333Y-118060000D01*
X66726666Y-118093333D01*
X66460000Y-118093333D01*
X67526666Y-118426666D02*
X67126666Y-118426666D01*
X67326666Y-118426666D02*
X67326666Y-117726666D01*
X67260000Y-117826666D01*
X67193333Y-117893333D01*
X67126666Y-117926666D01*
X68126666Y-117960000D02*
X68126666Y-118426666D01*
X67960000Y-117693333D02*
X67793333Y-118193333D01*
X68226666Y-118193333D01*
G04 #@! TO.C,R15*
X66159142Y-101671380D02*
X65825809Y-101195190D01*
X65587714Y-101671380D02*
X65587714Y-100671380D01*
X65968666Y-100671380D01*
X66063904Y-100719000D01*
X66111523Y-100766619D01*
X66159142Y-100861857D01*
X66159142Y-101004714D01*
X66111523Y-101099952D01*
X66063904Y-101147571D01*
X65968666Y-101195190D01*
X65587714Y-101195190D01*
X67111523Y-101671380D02*
X66540095Y-101671380D01*
X66825809Y-101671380D02*
X66825809Y-100671380D01*
X66730571Y-100814238D01*
X66635333Y-100909476D01*
X66540095Y-100957095D01*
X68016285Y-100671380D02*
X67540095Y-100671380D01*
X67492476Y-101147571D01*
X67540095Y-101099952D01*
X67635333Y-101052333D01*
X67873428Y-101052333D01*
X67968666Y-101099952D01*
X68016285Y-101147571D01*
X68063904Y-101242809D01*
X68063904Y-101480904D01*
X68016285Y-101576142D01*
X67968666Y-101623761D01*
X67873428Y-101671380D01*
X67635333Y-101671380D01*
X67540095Y-101623761D01*
X67492476Y-101576142D01*
G04 #@! TO.C,R16*
X66794142Y-105481380D02*
X66460809Y-105005190D01*
X66222714Y-105481380D02*
X66222714Y-104481380D01*
X66603666Y-104481380D01*
X66698904Y-104529000D01*
X66746523Y-104576619D01*
X66794142Y-104671857D01*
X66794142Y-104814714D01*
X66746523Y-104909952D01*
X66698904Y-104957571D01*
X66603666Y-105005190D01*
X66222714Y-105005190D01*
X67746523Y-105481380D02*
X67175095Y-105481380D01*
X67460809Y-105481380D02*
X67460809Y-104481380D01*
X67365571Y-104624238D01*
X67270333Y-104719476D01*
X67175095Y-104767095D01*
X68603666Y-104481380D02*
X68413190Y-104481380D01*
X68317952Y-104529000D01*
X68270333Y-104576619D01*
X68175095Y-104719476D01*
X68127476Y-104909952D01*
X68127476Y-105290904D01*
X68175095Y-105386142D01*
X68222714Y-105433761D01*
X68317952Y-105481380D01*
X68508428Y-105481380D01*
X68603666Y-105433761D01*
X68651285Y-105386142D01*
X68698904Y-105290904D01*
X68698904Y-105052809D01*
X68651285Y-104957571D01*
X68603666Y-104909952D01*
X68508428Y-104862333D01*
X68317952Y-104862333D01*
X68222714Y-104909952D01*
X68175095Y-104957571D01*
X68127476Y-105052809D01*
G04 #@! TO.C,R17*
X113276142Y-114498380D02*
X112942809Y-114022190D01*
X112704714Y-114498380D02*
X112704714Y-113498380D01*
X113085666Y-113498380D01*
X113180904Y-113546000D01*
X113228523Y-113593619D01*
X113276142Y-113688857D01*
X113276142Y-113831714D01*
X113228523Y-113926952D01*
X113180904Y-113974571D01*
X113085666Y-114022190D01*
X112704714Y-114022190D01*
X114228523Y-114498380D02*
X113657095Y-114498380D01*
X113942809Y-114498380D02*
X113942809Y-113498380D01*
X113847571Y-113641238D01*
X113752333Y-113736476D01*
X113657095Y-113784095D01*
X114561857Y-113498380D02*
X115228523Y-113498380D01*
X114799952Y-114498380D01*
G04 #@! TO.C,R18*
X113149142Y-126944380D02*
X112815809Y-126468190D01*
X112577714Y-126944380D02*
X112577714Y-125944380D01*
X112958666Y-125944380D01*
X113053904Y-125992000D01*
X113101523Y-126039619D01*
X113149142Y-126134857D01*
X113149142Y-126277714D01*
X113101523Y-126372952D01*
X113053904Y-126420571D01*
X112958666Y-126468190D01*
X112577714Y-126468190D01*
X114101523Y-126944380D02*
X113530095Y-126944380D01*
X113815809Y-126944380D02*
X113815809Y-125944380D01*
X113720571Y-126087238D01*
X113625333Y-126182476D01*
X113530095Y-126230095D01*
X114672952Y-126372952D02*
X114577714Y-126325333D01*
X114530095Y-126277714D01*
X114482476Y-126182476D01*
X114482476Y-126134857D01*
X114530095Y-126039619D01*
X114577714Y-125992000D01*
X114672952Y-125944380D01*
X114863428Y-125944380D01*
X114958666Y-125992000D01*
X115006285Y-126039619D01*
X115053904Y-126134857D01*
X115053904Y-126182476D01*
X115006285Y-126277714D01*
X114958666Y-126325333D01*
X114863428Y-126372952D01*
X114672952Y-126372952D01*
X114577714Y-126420571D01*
X114530095Y-126468190D01*
X114482476Y-126563428D01*
X114482476Y-126753904D01*
X114530095Y-126849142D01*
X114577714Y-126896761D01*
X114672952Y-126944380D01*
X114863428Y-126944380D01*
X114958666Y-126896761D01*
X115006285Y-126849142D01*
X115053904Y-126753904D01*
X115053904Y-126563428D01*
X115006285Y-126468190D01*
X114958666Y-126420571D01*
X114863428Y-126372952D01*
G04 #@! TO.C,R19*
X111371142Y-76705380D02*
X111037809Y-76229190D01*
X110799714Y-76705380D02*
X110799714Y-75705380D01*
X111180666Y-75705380D01*
X111275904Y-75753000D01*
X111323523Y-75800619D01*
X111371142Y-75895857D01*
X111371142Y-76038714D01*
X111323523Y-76133952D01*
X111275904Y-76181571D01*
X111180666Y-76229190D01*
X110799714Y-76229190D01*
X112323523Y-76705380D02*
X111752095Y-76705380D01*
X112037809Y-76705380D02*
X112037809Y-75705380D01*
X111942571Y-75848238D01*
X111847333Y-75943476D01*
X111752095Y-75991095D01*
X112799714Y-76705380D02*
X112990190Y-76705380D01*
X113085428Y-76657761D01*
X113133047Y-76610142D01*
X113228285Y-76467285D01*
X113275904Y-76276809D01*
X113275904Y-75895857D01*
X113228285Y-75800619D01*
X113180666Y-75753000D01*
X113085428Y-75705380D01*
X112894952Y-75705380D01*
X112799714Y-75753000D01*
X112752095Y-75800619D01*
X112704476Y-75895857D01*
X112704476Y-76133952D01*
X112752095Y-76229190D01*
X112799714Y-76276809D01*
X112894952Y-76324428D01*
X113085428Y-76324428D01*
X113180666Y-76276809D01*
X113228285Y-76229190D01*
X113275904Y-76133952D01*
G04 #@! TO.C,R20*
X113403142Y-101671380D02*
X113069809Y-101195190D01*
X112831714Y-101671380D02*
X112831714Y-100671380D01*
X113212666Y-100671380D01*
X113307904Y-100719000D01*
X113355523Y-100766619D01*
X113403142Y-100861857D01*
X113403142Y-101004714D01*
X113355523Y-101099952D01*
X113307904Y-101147571D01*
X113212666Y-101195190D01*
X112831714Y-101195190D01*
X113784095Y-100766619D02*
X113831714Y-100719000D01*
X113926952Y-100671380D01*
X114165047Y-100671380D01*
X114260285Y-100719000D01*
X114307904Y-100766619D01*
X114355523Y-100861857D01*
X114355523Y-100957095D01*
X114307904Y-101099952D01*
X113736476Y-101671380D01*
X114355523Y-101671380D01*
X114974571Y-100671380D02*
X115069809Y-100671380D01*
X115165047Y-100719000D01*
X115212666Y-100766619D01*
X115260285Y-100861857D01*
X115307904Y-101052333D01*
X115307904Y-101290428D01*
X115260285Y-101480904D01*
X115212666Y-101576142D01*
X115165047Y-101623761D01*
X115069809Y-101671380D01*
X114974571Y-101671380D01*
X114879333Y-101623761D01*
X114831714Y-101576142D01*
X114784095Y-101480904D01*
X114736476Y-101290428D01*
X114736476Y-101052333D01*
X114784095Y-100861857D01*
X114831714Y-100766619D01*
X114879333Y-100719000D01*
X114974571Y-100671380D01*
G04 #@! TO.C,R21*
X72636142Y-63317380D02*
X72302809Y-62841190D01*
X72064714Y-63317380D02*
X72064714Y-62317380D01*
X72445666Y-62317380D01*
X72540904Y-62365000D01*
X72588523Y-62412619D01*
X72636142Y-62507857D01*
X72636142Y-62650714D01*
X72588523Y-62745952D01*
X72540904Y-62793571D01*
X72445666Y-62841190D01*
X72064714Y-62841190D01*
X73017095Y-62412619D02*
X73064714Y-62365000D01*
X73159952Y-62317380D01*
X73398047Y-62317380D01*
X73493285Y-62365000D01*
X73540904Y-62412619D01*
X73588523Y-62507857D01*
X73588523Y-62603095D01*
X73540904Y-62745952D01*
X72969476Y-63317380D01*
X73588523Y-63317380D01*
X74540904Y-63317380D02*
X73969476Y-63317380D01*
X74255190Y-63317380D02*
X74255190Y-62317380D01*
X74159952Y-62460238D01*
X74064714Y-62555476D01*
X73969476Y-62603095D01*
G04 #@! TO.C,R22*
X72636142Y-88590380D02*
X72302809Y-88114190D01*
X72064714Y-88590380D02*
X72064714Y-87590380D01*
X72445666Y-87590380D01*
X72540904Y-87638000D01*
X72588523Y-87685619D01*
X72636142Y-87780857D01*
X72636142Y-87923714D01*
X72588523Y-88018952D01*
X72540904Y-88066571D01*
X72445666Y-88114190D01*
X72064714Y-88114190D01*
X73017095Y-87685619D02*
X73064714Y-87638000D01*
X73159952Y-87590380D01*
X73398047Y-87590380D01*
X73493285Y-87638000D01*
X73540904Y-87685619D01*
X73588523Y-87780857D01*
X73588523Y-87876095D01*
X73540904Y-88018952D01*
X72969476Y-88590380D01*
X73588523Y-88590380D01*
X73969476Y-87685619D02*
X74017095Y-87638000D01*
X74112333Y-87590380D01*
X74350428Y-87590380D01*
X74445666Y-87638000D01*
X74493285Y-87685619D01*
X74540904Y-87780857D01*
X74540904Y-87876095D01*
X74493285Y-88018952D01*
X73921857Y-88590380D01*
X74540904Y-88590380D01*
G04 #@! TO.C,R23*
X72763142Y-113482380D02*
X72429809Y-113006190D01*
X72191714Y-113482380D02*
X72191714Y-112482380D01*
X72572666Y-112482380D01*
X72667904Y-112530000D01*
X72715523Y-112577619D01*
X72763142Y-112672857D01*
X72763142Y-112815714D01*
X72715523Y-112910952D01*
X72667904Y-112958571D01*
X72572666Y-113006190D01*
X72191714Y-113006190D01*
X73144095Y-112577619D02*
X73191714Y-112530000D01*
X73286952Y-112482380D01*
X73525047Y-112482380D01*
X73620285Y-112530000D01*
X73667904Y-112577619D01*
X73715523Y-112672857D01*
X73715523Y-112768095D01*
X73667904Y-112910952D01*
X73096476Y-113482380D01*
X73715523Y-113482380D01*
X74048857Y-112482380D02*
X74667904Y-112482380D01*
X74334571Y-112863333D01*
X74477428Y-112863333D01*
X74572666Y-112910952D01*
X74620285Y-112958571D01*
X74667904Y-113053809D01*
X74667904Y-113291904D01*
X74620285Y-113387142D01*
X74572666Y-113434761D01*
X74477428Y-113482380D01*
X74191714Y-113482380D01*
X74096476Y-113434761D01*
X74048857Y-113387142D01*
G04 #@! TO.C,R24*
X72763142Y-101163380D02*
X72429809Y-100687190D01*
X72191714Y-101163380D02*
X72191714Y-100163380D01*
X72572666Y-100163380D01*
X72667904Y-100211000D01*
X72715523Y-100258619D01*
X72763142Y-100353857D01*
X72763142Y-100496714D01*
X72715523Y-100591952D01*
X72667904Y-100639571D01*
X72572666Y-100687190D01*
X72191714Y-100687190D01*
X73144095Y-100258619D02*
X73191714Y-100211000D01*
X73286952Y-100163380D01*
X73525047Y-100163380D01*
X73620285Y-100211000D01*
X73667904Y-100258619D01*
X73715523Y-100353857D01*
X73715523Y-100449095D01*
X73667904Y-100591952D01*
X73096476Y-101163380D01*
X73715523Y-101163380D01*
X74572666Y-100496714D02*
X74572666Y-101163380D01*
X74334571Y-100115761D02*
X74096476Y-100830047D01*
X74715523Y-100830047D01*
G04 #@! TO.C,R25*
X89733380Y-70746857D02*
X89257190Y-71080190D01*
X89733380Y-71318285D02*
X88733380Y-71318285D01*
X88733380Y-70937333D01*
X88781000Y-70842095D01*
X88828619Y-70794476D01*
X88923857Y-70746857D01*
X89066714Y-70746857D01*
X89161952Y-70794476D01*
X89209571Y-70842095D01*
X89257190Y-70937333D01*
X89257190Y-71318285D01*
X88828619Y-70365904D02*
X88781000Y-70318285D01*
X88733380Y-70223047D01*
X88733380Y-69984952D01*
X88781000Y-69889714D01*
X88828619Y-69842095D01*
X88923857Y-69794476D01*
X89019095Y-69794476D01*
X89161952Y-69842095D01*
X89733380Y-70413523D01*
X89733380Y-69794476D01*
X88733380Y-68889714D02*
X88733380Y-69365904D01*
X89209571Y-69413523D01*
X89161952Y-69365904D01*
X89114333Y-69270666D01*
X89114333Y-69032571D01*
X89161952Y-68937333D01*
X89209571Y-68889714D01*
X89304809Y-68842095D01*
X89542904Y-68842095D01*
X89638142Y-68889714D01*
X89685761Y-68937333D01*
X89733380Y-69032571D01*
X89733380Y-69270666D01*
X89685761Y-69365904D01*
X89638142Y-69413523D01*
G04 #@! TO.C,R26*
X95956380Y-70746857D02*
X95480190Y-71080190D01*
X95956380Y-71318285D02*
X94956380Y-71318285D01*
X94956380Y-70937333D01*
X95004000Y-70842095D01*
X95051619Y-70794476D01*
X95146857Y-70746857D01*
X95289714Y-70746857D01*
X95384952Y-70794476D01*
X95432571Y-70842095D01*
X95480190Y-70937333D01*
X95480190Y-71318285D01*
X95051619Y-70365904D02*
X95004000Y-70318285D01*
X94956380Y-70223047D01*
X94956380Y-69984952D01*
X95004000Y-69889714D01*
X95051619Y-69842095D01*
X95146857Y-69794476D01*
X95242095Y-69794476D01*
X95384952Y-69842095D01*
X95956380Y-70413523D01*
X95956380Y-69794476D01*
X94956380Y-68937333D02*
X94956380Y-69127809D01*
X95004000Y-69223047D01*
X95051619Y-69270666D01*
X95194476Y-69365904D01*
X95384952Y-69413523D01*
X95765904Y-69413523D01*
X95861142Y-69365904D01*
X95908761Y-69318285D01*
X95956380Y-69223047D01*
X95956380Y-69032571D01*
X95908761Y-68937333D01*
X95861142Y-68889714D01*
X95765904Y-68842095D01*
X95527809Y-68842095D01*
X95432571Y-68889714D01*
X95384952Y-68937333D01*
X95337333Y-69032571D01*
X95337333Y-69223047D01*
X95384952Y-69318285D01*
X95432571Y-69365904D01*
X95527809Y-69413523D01*
G04 #@! TO.C,R27*
X69842142Y-45791380D02*
X69508809Y-45315190D01*
X69270714Y-45791380D02*
X69270714Y-44791380D01*
X69651666Y-44791380D01*
X69746904Y-44839000D01*
X69794523Y-44886619D01*
X69842142Y-44981857D01*
X69842142Y-45124714D01*
X69794523Y-45219952D01*
X69746904Y-45267571D01*
X69651666Y-45315190D01*
X69270714Y-45315190D01*
X70223095Y-44886619D02*
X70270714Y-44839000D01*
X70365952Y-44791380D01*
X70604047Y-44791380D01*
X70699285Y-44839000D01*
X70746904Y-44886619D01*
X70794523Y-44981857D01*
X70794523Y-45077095D01*
X70746904Y-45219952D01*
X70175476Y-45791380D01*
X70794523Y-45791380D01*
X71127857Y-44791380D02*
X71794523Y-44791380D01*
X71365952Y-45791380D01*
G04 #@! TO.C,R28*
X119118142Y-87066380D02*
X118784809Y-86590190D01*
X118546714Y-87066380D02*
X118546714Y-86066380D01*
X118927666Y-86066380D01*
X119022904Y-86114000D01*
X119070523Y-86161619D01*
X119118142Y-86256857D01*
X119118142Y-86399714D01*
X119070523Y-86494952D01*
X119022904Y-86542571D01*
X118927666Y-86590190D01*
X118546714Y-86590190D01*
X119499095Y-86161619D02*
X119546714Y-86114000D01*
X119641952Y-86066380D01*
X119880047Y-86066380D01*
X119975285Y-86114000D01*
X120022904Y-86161619D01*
X120070523Y-86256857D01*
X120070523Y-86352095D01*
X120022904Y-86494952D01*
X119451476Y-87066380D01*
X120070523Y-87066380D01*
X120641952Y-86494952D02*
X120546714Y-86447333D01*
X120499095Y-86399714D01*
X120451476Y-86304476D01*
X120451476Y-86256857D01*
X120499095Y-86161619D01*
X120546714Y-86114000D01*
X120641952Y-86066380D01*
X120832428Y-86066380D01*
X120927666Y-86114000D01*
X120975285Y-86161619D01*
X121022904Y-86256857D01*
X121022904Y-86304476D01*
X120975285Y-86399714D01*
X120927666Y-86447333D01*
X120832428Y-86494952D01*
X120641952Y-86494952D01*
X120546714Y-86542571D01*
X120499095Y-86590190D01*
X120451476Y-86685428D01*
X120451476Y-86875904D01*
X120499095Y-86971142D01*
X120546714Y-87018761D01*
X120641952Y-87066380D01*
X120832428Y-87066380D01*
X120927666Y-87018761D01*
X120975285Y-86971142D01*
X121022904Y-86875904D01*
X121022904Y-86685428D01*
X120975285Y-86590190D01*
X120927666Y-86542571D01*
X120832428Y-86494952D01*
G04 #@! TO.C,R29*
X66540142Y-75890380D02*
X66206809Y-75414190D01*
X65968714Y-75890380D02*
X65968714Y-74890380D01*
X66349666Y-74890380D01*
X66444904Y-74938000D01*
X66492523Y-74985619D01*
X66540142Y-75080857D01*
X66540142Y-75223714D01*
X66492523Y-75318952D01*
X66444904Y-75366571D01*
X66349666Y-75414190D01*
X65968714Y-75414190D01*
X66921095Y-74985619D02*
X66968714Y-74938000D01*
X67063952Y-74890380D01*
X67302047Y-74890380D01*
X67397285Y-74938000D01*
X67444904Y-74985619D01*
X67492523Y-75080857D01*
X67492523Y-75176095D01*
X67444904Y-75318952D01*
X66873476Y-75890380D01*
X67492523Y-75890380D01*
X67968714Y-75890380D02*
X68159190Y-75890380D01*
X68254428Y-75842761D01*
X68302047Y-75795142D01*
X68397285Y-75652285D01*
X68444904Y-75461809D01*
X68444904Y-75080857D01*
X68397285Y-74985619D01*
X68349666Y-74938000D01*
X68254428Y-74890380D01*
X68063952Y-74890380D01*
X67968714Y-74938000D01*
X67921095Y-74985619D01*
X67873476Y-75080857D01*
X67873476Y-75318952D01*
X67921095Y-75414190D01*
X67968714Y-75461809D01*
X68063952Y-75509428D01*
X68254428Y-75509428D01*
X68349666Y-75461809D01*
X68397285Y-75414190D01*
X68444904Y-75318952D01*
G04 #@! TO.C,R30*
X118979142Y-83002380D02*
X118645809Y-82526190D01*
X118407714Y-83002380D02*
X118407714Y-82002380D01*
X118788666Y-82002380D01*
X118883904Y-82050000D01*
X118931523Y-82097619D01*
X118979142Y-82192857D01*
X118979142Y-82335714D01*
X118931523Y-82430952D01*
X118883904Y-82478571D01*
X118788666Y-82526190D01*
X118407714Y-82526190D01*
X119312476Y-82002380D02*
X119931523Y-82002380D01*
X119598190Y-82383333D01*
X119741047Y-82383333D01*
X119836285Y-82430952D01*
X119883904Y-82478571D01*
X119931523Y-82573809D01*
X119931523Y-82811904D01*
X119883904Y-82907142D01*
X119836285Y-82954761D01*
X119741047Y-83002380D01*
X119455333Y-83002380D01*
X119360095Y-82954761D01*
X119312476Y-82907142D01*
X120550571Y-82002380D02*
X120645809Y-82002380D01*
X120741047Y-82050000D01*
X120788666Y-82097619D01*
X120836285Y-82192857D01*
X120883904Y-82383333D01*
X120883904Y-82621428D01*
X120836285Y-82811904D01*
X120788666Y-82907142D01*
X120741047Y-82954761D01*
X120645809Y-83002380D01*
X120550571Y-83002380D01*
X120455333Y-82954761D01*
X120407714Y-82907142D01*
X120360095Y-82811904D01*
X120312476Y-82621428D01*
X120312476Y-82383333D01*
X120360095Y-82192857D01*
X120407714Y-82097619D01*
X120455333Y-82050000D01*
X120550571Y-82002380D01*
G04 #@! TO.C,R31*
X66518127Y-79494997D02*
X66184794Y-79018807D01*
X65946699Y-79494997D02*
X65946699Y-78494997D01*
X66327651Y-78494997D01*
X66422889Y-78542617D01*
X66470508Y-78590236D01*
X66518127Y-78685474D01*
X66518127Y-78828331D01*
X66470508Y-78923569D01*
X66422889Y-78971188D01*
X66327651Y-79018807D01*
X65946699Y-79018807D01*
X66851461Y-78494997D02*
X67470508Y-78494997D01*
X67137175Y-78875950D01*
X67280032Y-78875950D01*
X67375270Y-78923569D01*
X67422889Y-78971188D01*
X67470508Y-79066426D01*
X67470508Y-79304521D01*
X67422889Y-79399759D01*
X67375270Y-79447378D01*
X67280032Y-79494997D01*
X66994318Y-79494997D01*
X66899080Y-79447378D01*
X66851461Y-79399759D01*
X68422889Y-79494997D02*
X67851461Y-79494997D01*
X68137175Y-79494997D02*
X68137175Y-78494997D01*
X68041937Y-78637855D01*
X67946699Y-78733093D01*
X67851461Y-78780712D01*
G04 #@! TO.C,R32*
X111498142Y-90040380D02*
X111164809Y-89564190D01*
X110926714Y-90040380D02*
X110926714Y-89040380D01*
X111307666Y-89040380D01*
X111402904Y-89088000D01*
X111450523Y-89135619D01*
X111498142Y-89230857D01*
X111498142Y-89373714D01*
X111450523Y-89468952D01*
X111402904Y-89516571D01*
X111307666Y-89564190D01*
X110926714Y-89564190D01*
X111831476Y-89040380D02*
X112450523Y-89040380D01*
X112117190Y-89421333D01*
X112260047Y-89421333D01*
X112355285Y-89468952D01*
X112402904Y-89516571D01*
X112450523Y-89611809D01*
X112450523Y-89849904D01*
X112402904Y-89945142D01*
X112355285Y-89992761D01*
X112260047Y-90040380D01*
X111974333Y-90040380D01*
X111879095Y-89992761D01*
X111831476Y-89945142D01*
X112831476Y-89135619D02*
X112879095Y-89088000D01*
X112974333Y-89040380D01*
X113212428Y-89040380D01*
X113307666Y-89088000D01*
X113355285Y-89135619D01*
X113402904Y-89230857D01*
X113402904Y-89326095D01*
X113355285Y-89468952D01*
X112783857Y-90040380D01*
X113402904Y-90040380D01*
G04 #@! TO.C,R33*
X72636142Y-75763380D02*
X72302809Y-75287190D01*
X72064714Y-75763380D02*
X72064714Y-74763380D01*
X72445666Y-74763380D01*
X72540904Y-74811000D01*
X72588523Y-74858619D01*
X72636142Y-74953857D01*
X72636142Y-75096714D01*
X72588523Y-75191952D01*
X72540904Y-75239571D01*
X72445666Y-75287190D01*
X72064714Y-75287190D01*
X72969476Y-74763380D02*
X73588523Y-74763380D01*
X73255190Y-75144333D01*
X73398047Y-75144333D01*
X73493285Y-75191952D01*
X73540904Y-75239571D01*
X73588523Y-75334809D01*
X73588523Y-75572904D01*
X73540904Y-75668142D01*
X73493285Y-75715761D01*
X73398047Y-75763380D01*
X73112333Y-75763380D01*
X73017095Y-75715761D01*
X72969476Y-75668142D01*
X73921857Y-74763380D02*
X74540904Y-74763380D01*
X74207571Y-75144333D01*
X74350428Y-75144333D01*
X74445666Y-75191952D01*
X74493285Y-75239571D01*
X74540904Y-75334809D01*
X74540904Y-75572904D01*
X74493285Y-75668142D01*
X74445666Y-75715761D01*
X74350428Y-75763380D01*
X74064714Y-75763380D01*
X73969476Y-75715761D01*
X73921857Y-75668142D01*
G04 #@! TO.C,T1*
D16*
X122349380Y-107000523D02*
X123075095Y-107000523D01*
X122712238Y-108270523D02*
X122712238Y-107000523D01*
X124163666Y-108270523D02*
X123437952Y-108270523D01*
X123800809Y-108270523D02*
X123800809Y-107000523D01*
X123679857Y-107181952D01*
X123558904Y-107302904D01*
X123437952Y-107363380D01*
G04 #@! TO.C,T2*
X122095380Y-119446523D02*
X122821095Y-119446523D01*
X122458238Y-120716523D02*
X122458238Y-119446523D01*
X123183952Y-119567476D02*
X123244428Y-119507000D01*
X123365380Y-119446523D01*
X123667761Y-119446523D01*
X123788714Y-119507000D01*
X123849190Y-119567476D01*
X123909666Y-119688428D01*
X123909666Y-119809380D01*
X123849190Y-119990809D01*
X123123476Y-120716523D01*
X123909666Y-120716523D01*
G04 #@! TO.C,T3*
X122349380Y-68011523D02*
X123075095Y-68011523D01*
X122712238Y-69281523D02*
X122712238Y-68011523D01*
X123377476Y-68011523D02*
X124163666Y-68011523D01*
X123740333Y-68495333D01*
X123921761Y-68495333D01*
X124042714Y-68555809D01*
X124103190Y-68616285D01*
X124163666Y-68737238D01*
X124163666Y-69039619D01*
X124103190Y-69160571D01*
X124042714Y-69221047D01*
X123921761Y-69281523D01*
X123558904Y-69281523D01*
X123437952Y-69221047D01*
X123377476Y-69160571D01*
G04 #@! TO.C,T4*
X122222380Y-94173523D02*
X122948095Y-94173523D01*
X122585238Y-95443523D02*
X122585238Y-94173523D01*
X123915714Y-94596857D02*
X123915714Y-95443523D01*
X123613333Y-94113047D02*
X123310952Y-95020190D01*
X124097142Y-95020190D01*
G04 #@! TO.C,T5*
X63611880Y-66678023D02*
X64337595Y-66678023D01*
X63974738Y-67948023D02*
X63974738Y-66678023D01*
X65365690Y-66678023D02*
X64760928Y-66678023D01*
X64700452Y-67282785D01*
X64760928Y-67222309D01*
X64881880Y-67161833D01*
X65184261Y-67161833D01*
X65305214Y-67222309D01*
X65365690Y-67282785D01*
X65426166Y-67403738D01*
X65426166Y-67706119D01*
X65365690Y-67827071D01*
X65305214Y-67887547D01*
X65184261Y-67948023D01*
X64881880Y-67948023D01*
X64760928Y-67887547D01*
X64700452Y-67827071D01*
G04 #@! TO.C,T6*
X62659380Y-98364523D02*
X63385095Y-98364523D01*
X63022238Y-99634523D02*
X63022238Y-98364523D01*
X64352714Y-98364523D02*
X64110809Y-98364523D01*
X63989857Y-98425000D01*
X63929380Y-98485476D01*
X63808428Y-98666904D01*
X63747952Y-98908809D01*
X63747952Y-99392619D01*
X63808428Y-99513571D01*
X63868904Y-99574047D01*
X63989857Y-99634523D01*
X64231761Y-99634523D01*
X64352714Y-99574047D01*
X64413190Y-99513571D01*
X64473666Y-99392619D01*
X64473666Y-99090238D01*
X64413190Y-98969285D01*
X64352714Y-98908809D01*
X64231761Y-98848333D01*
X63989857Y-98848333D01*
X63868904Y-98908809D01*
X63808428Y-98969285D01*
X63747952Y-99090238D01*
G04 #@! TO.C,T7*
D15*
X63169857Y-124385428D02*
X63512714Y-124385428D01*
X63341285Y-124985428D02*
X63341285Y-124385428D01*
X63655571Y-124385428D02*
X64055571Y-124385428D01*
X63798428Y-124985428D01*
G04 #@! TO.C,T8*
D16*
X62659380Y-111572523D02*
X63385095Y-111572523D01*
X63022238Y-112842523D02*
X63022238Y-111572523D01*
X63989857Y-112116809D02*
X63868904Y-112056333D01*
X63808428Y-111995857D01*
X63747952Y-111874904D01*
X63747952Y-111814428D01*
X63808428Y-111693476D01*
X63868904Y-111633000D01*
X63989857Y-111572523D01*
X64231761Y-111572523D01*
X64352714Y-111633000D01*
X64413190Y-111693476D01*
X64473666Y-111814428D01*
X64473666Y-111874904D01*
X64413190Y-111995857D01*
X64352714Y-112056333D01*
X64231761Y-112116809D01*
X63989857Y-112116809D01*
X63868904Y-112177285D01*
X63808428Y-112237761D01*
X63747952Y-112358714D01*
X63747952Y-112600619D01*
X63808428Y-112721571D01*
X63868904Y-112782047D01*
X63989857Y-112842523D01*
X64231761Y-112842523D01*
X64352714Y-112782047D01*
X64413190Y-112721571D01*
X64473666Y-112600619D01*
X64473666Y-112358714D01*
X64413190Y-112237761D01*
X64352714Y-112177285D01*
X64231761Y-112116809D01*
G04 #@! TO.C,T9*
X122349380Y-81219523D02*
X123075095Y-81219523D01*
X122712238Y-82489523D02*
X122712238Y-81219523D01*
X123558904Y-82489523D02*
X123800809Y-82489523D01*
X123921761Y-82429047D01*
X123982238Y-82368571D01*
X124103190Y-82187142D01*
X124163666Y-81945238D01*
X124163666Y-81461428D01*
X124103190Y-81340476D01*
X124042714Y-81280000D01*
X123921761Y-81219523D01*
X123679857Y-81219523D01*
X123558904Y-81280000D01*
X123498428Y-81340476D01*
X123437952Y-81461428D01*
X123437952Y-81763809D01*
X123498428Y-81884761D01*
X123558904Y-81945238D01*
X123679857Y-82005714D01*
X123921761Y-82005714D01*
X124042714Y-81945238D01*
X124103190Y-81884761D01*
X124163666Y-81763809D01*
G04 #@! TO.C,T10*
X62054619Y-85410523D02*
X62780333Y-85410523D01*
X62417476Y-86680523D02*
X62417476Y-85410523D01*
X63868904Y-86680523D02*
X63143190Y-86680523D01*
X63506047Y-86680523D02*
X63506047Y-85410523D01*
X63385095Y-85591952D01*
X63264142Y-85712904D01*
X63143190Y-85773380D01*
X64655095Y-85410523D02*
X64776047Y-85410523D01*
X64897000Y-85471000D01*
X64957476Y-85531476D01*
X65017952Y-85652428D01*
X65078428Y-85894333D01*
X65078428Y-86196714D01*
X65017952Y-86438619D01*
X64957476Y-86559571D01*
X64897000Y-86620047D01*
X64776047Y-86680523D01*
X64655095Y-86680523D01*
X64534142Y-86620047D01*
X64473666Y-86559571D01*
X64413190Y-86438619D01*
X64352714Y-86196714D01*
X64352714Y-85894333D01*
X64413190Y-85652428D01*
X64473666Y-85531476D01*
X64534142Y-85471000D01*
X64655095Y-85410523D01*
G04 #@! TO.C,U1*
D15*
X109390380Y-108838904D02*
X110199904Y-108838904D01*
X110295142Y-108791285D01*
X110342761Y-108743666D01*
X110390380Y-108648428D01*
X110390380Y-108457952D01*
X110342761Y-108362714D01*
X110295142Y-108315095D01*
X110199904Y-108267476D01*
X109390380Y-108267476D01*
X110390380Y-107267476D02*
X110390380Y-107838904D01*
X110390380Y-107553190D02*
X109390380Y-107553190D01*
X109533238Y-107648428D01*
X109628476Y-107743666D01*
X109676095Y-107838904D01*
G04 #@! TO.C,U2*
X109390380Y-121284904D02*
X110199904Y-121284904D01*
X110295142Y-121237285D01*
X110342761Y-121189666D01*
X110390380Y-121094428D01*
X110390380Y-120903952D01*
X110342761Y-120808714D01*
X110295142Y-120761095D01*
X110199904Y-120713476D01*
X109390380Y-120713476D01*
X109485619Y-120284904D02*
X109438000Y-120237285D01*
X109390380Y-120142047D01*
X109390380Y-119903952D01*
X109438000Y-119808714D01*
X109485619Y-119761095D01*
X109580857Y-119713476D01*
X109676095Y-119713476D01*
X109818952Y-119761095D01*
X110390380Y-120332523D01*
X110390380Y-119713476D01*
G04 #@! TO.C,U3*
X109390380Y-69595904D02*
X110199904Y-69595904D01*
X110295142Y-69548285D01*
X110342761Y-69500666D01*
X110390380Y-69405428D01*
X110390380Y-69214952D01*
X110342761Y-69119714D01*
X110295142Y-69072095D01*
X110199904Y-69024476D01*
X109390380Y-69024476D01*
X109390380Y-68643523D02*
X109390380Y-68024476D01*
X109771333Y-68357809D01*
X109771333Y-68214952D01*
X109818952Y-68119714D01*
X109866571Y-68072095D01*
X109961809Y-68024476D01*
X110199904Y-68024476D01*
X110295142Y-68072095D01*
X110342761Y-68119714D01*
X110390380Y-68214952D01*
X110390380Y-68500666D01*
X110342761Y-68595904D01*
X110295142Y-68643523D01*
G04 #@! TO.C,U4*
X109390380Y-96011904D02*
X110199904Y-96011904D01*
X110295142Y-95964285D01*
X110342761Y-95916666D01*
X110390380Y-95821428D01*
X110390380Y-95630952D01*
X110342761Y-95535714D01*
X110295142Y-95488095D01*
X110199904Y-95440476D01*
X109390380Y-95440476D01*
X109723714Y-94535714D02*
X110390380Y-94535714D01*
X109342761Y-94773809D02*
X110057047Y-95011904D01*
X110057047Y-94392857D01*
G04 #@! TO.C,U5*
X76458380Y-69595904D02*
X77267904Y-69595904D01*
X77363142Y-69548285D01*
X77410761Y-69500666D01*
X77458380Y-69405428D01*
X77458380Y-69214952D01*
X77410761Y-69119714D01*
X77363142Y-69072095D01*
X77267904Y-69024476D01*
X76458380Y-69024476D01*
X76458380Y-68072095D02*
X76458380Y-68548285D01*
X76934571Y-68595904D01*
X76886952Y-68548285D01*
X76839333Y-68453047D01*
X76839333Y-68214952D01*
X76886952Y-68119714D01*
X76934571Y-68072095D01*
X77029809Y-68024476D01*
X77267904Y-68024476D01*
X77363142Y-68072095D01*
X77410761Y-68119714D01*
X77458380Y-68214952D01*
X77458380Y-68453047D01*
X77410761Y-68548285D01*
X77363142Y-68595904D01*
G04 #@! TO.C,U6*
X76458380Y-94995904D02*
X77267904Y-94995904D01*
X77363142Y-94948285D01*
X77410761Y-94900666D01*
X77458380Y-94805428D01*
X77458380Y-94614952D01*
X77410761Y-94519714D01*
X77363142Y-94472095D01*
X77267904Y-94424476D01*
X76458380Y-94424476D01*
X76458380Y-93519714D02*
X76458380Y-93710190D01*
X76506000Y-93805428D01*
X76553619Y-93853047D01*
X76696476Y-93948285D01*
X76886952Y-93995904D01*
X77267904Y-93995904D01*
X77363142Y-93948285D01*
X77410761Y-93900666D01*
X77458380Y-93805428D01*
X77458380Y-93614952D01*
X77410761Y-93519714D01*
X77363142Y-93472095D01*
X77267904Y-93424476D01*
X77029809Y-93424476D01*
X76934571Y-93472095D01*
X76886952Y-93519714D01*
X76839333Y-93614952D01*
X76839333Y-93805428D01*
X76886952Y-93900666D01*
X76934571Y-93948285D01*
X77029809Y-93995904D01*
G04 #@! TO.C,U7*
X76458380Y-119760904D02*
X77267904Y-119760904D01*
X77363142Y-119713285D01*
X77410761Y-119665666D01*
X77458380Y-119570428D01*
X77458380Y-119379952D01*
X77410761Y-119284714D01*
X77363142Y-119237095D01*
X77267904Y-119189476D01*
X76458380Y-119189476D01*
X76458380Y-118808523D02*
X76458380Y-118141857D01*
X77458380Y-118570428D01*
G04 #@! TO.C,U8*
X76458380Y-107441904D02*
X77267904Y-107441904D01*
X77363142Y-107394285D01*
X77410761Y-107346666D01*
X77458380Y-107251428D01*
X77458380Y-107060952D01*
X77410761Y-106965714D01*
X77363142Y-106918095D01*
X77267904Y-106870476D01*
X76458380Y-106870476D01*
X76886952Y-106251428D02*
X76839333Y-106346666D01*
X76791714Y-106394285D01*
X76696476Y-106441904D01*
X76648857Y-106441904D01*
X76553619Y-106394285D01*
X76506000Y-106346666D01*
X76458380Y-106251428D01*
X76458380Y-106060952D01*
X76506000Y-105965714D01*
X76553619Y-105918095D01*
X76648857Y-105870476D01*
X76696476Y-105870476D01*
X76791714Y-105918095D01*
X76839333Y-105965714D01*
X76886952Y-106060952D01*
X76886952Y-106251428D01*
X76934571Y-106346666D01*
X76982190Y-106394285D01*
X77077428Y-106441904D01*
X77267904Y-106441904D01*
X77363142Y-106394285D01*
X77410761Y-106346666D01*
X77458380Y-106251428D01*
X77458380Y-106060952D01*
X77410761Y-105965714D01*
X77363142Y-105918095D01*
X77267904Y-105870476D01*
X77077428Y-105870476D01*
X76982190Y-105918095D01*
X76934571Y-105965714D01*
X76886952Y-106060952D01*
G04 #@! TO.C,U9*
X89281380Y-75183904D02*
X90090904Y-75183904D01*
X90186142Y-75136285D01*
X90233761Y-75088666D01*
X90281380Y-74993428D01*
X90281380Y-74802952D01*
X90233761Y-74707714D01*
X90186142Y-74660095D01*
X90090904Y-74612476D01*
X89281380Y-74612476D01*
X90281380Y-74088666D02*
X90281380Y-73898190D01*
X90233761Y-73802952D01*
X90186142Y-73755333D01*
X90043285Y-73660095D01*
X89852809Y-73612476D01*
X89471857Y-73612476D01*
X89376619Y-73660095D01*
X89329000Y-73707714D01*
X89281380Y-73802952D01*
X89281380Y-73993428D01*
X89329000Y-74088666D01*
X89376619Y-74136285D01*
X89471857Y-74183904D01*
X89709952Y-74183904D01*
X89805190Y-74136285D01*
X89852809Y-74088666D01*
X89900428Y-73993428D01*
X89900428Y-73802952D01*
X89852809Y-73707714D01*
X89805190Y-73660095D01*
X89709952Y-73612476D01*
G04 #@! TO.C,U10*
X91019380Y-95345095D02*
X91828904Y-95345095D01*
X91924142Y-95297476D01*
X91971761Y-95249857D01*
X92019380Y-95154619D01*
X92019380Y-94964142D01*
X91971761Y-94868904D01*
X91924142Y-94821285D01*
X91828904Y-94773666D01*
X91019380Y-94773666D01*
X92019380Y-93773666D02*
X92019380Y-94345095D01*
X92019380Y-94059380D02*
X91019380Y-94059380D01*
X91162238Y-94154619D01*
X91257476Y-94249857D01*
X91305095Y-94345095D01*
X91019380Y-93154619D02*
X91019380Y-93059380D01*
X91067000Y-92964142D01*
X91114619Y-92916523D01*
X91209857Y-92868904D01*
X91400333Y-92821285D01*
X91638428Y-92821285D01*
X91828904Y-92868904D01*
X91924142Y-92916523D01*
X91971761Y-92964142D01*
X92019380Y-93059380D01*
X92019380Y-93154619D01*
X91971761Y-93249857D01*
X91924142Y-93297476D01*
X91828904Y-93345095D01*
X91638428Y-93392714D01*
X91400333Y-93392714D01*
X91209857Y-93345095D01*
X91114619Y-93297476D01*
X91067000Y-93249857D01*
X91019380Y-93154619D01*
G04 #@! TO.C,U11*
X109517380Y-83280095D02*
X110326904Y-83280095D01*
X110422142Y-83232476D01*
X110469761Y-83184857D01*
X110517380Y-83089619D01*
X110517380Y-82899142D01*
X110469761Y-82803904D01*
X110422142Y-82756285D01*
X110326904Y-82708666D01*
X109517380Y-82708666D01*
X110517380Y-81708666D02*
X110517380Y-82280095D01*
X110517380Y-81994380D02*
X109517380Y-81994380D01*
X109660238Y-82089619D01*
X109755476Y-82184857D01*
X109803095Y-82280095D01*
X110517380Y-80756285D02*
X110517380Y-81327714D01*
X110517380Y-81042000D02*
X109517380Y-81042000D01*
X109660238Y-81137238D01*
X109755476Y-81232476D01*
X109803095Y-81327714D01*
G04 #@! TO.C,U12*
X76458380Y-82518095D02*
X77267904Y-82518095D01*
X77363142Y-82470476D01*
X77410761Y-82422857D01*
X77458380Y-82327619D01*
X77458380Y-82137142D01*
X77410761Y-82041904D01*
X77363142Y-81994285D01*
X77267904Y-81946666D01*
X76458380Y-81946666D01*
X77458380Y-80946666D02*
X77458380Y-81518095D01*
X77458380Y-81232380D02*
X76458380Y-81232380D01*
X76601238Y-81327619D01*
X76696476Y-81422857D01*
X76744095Y-81518095D01*
X76553619Y-80565714D02*
X76506000Y-80518095D01*
X76458380Y-80422857D01*
X76458380Y-80184761D01*
X76506000Y-80089523D01*
X76553619Y-80041904D01*
X76648857Y-79994285D01*
X76744095Y-79994285D01*
X76886952Y-80041904D01*
X77458380Y-80613333D01*
X77458380Y-79994285D01*
G04 #@! TO.C,J3*
D17*
X92697340Y-118496645D02*
X92697340Y-119211395D01*
X92649690Y-119354345D01*
X92554390Y-119449645D01*
X92411440Y-119497295D01*
X92316140Y-119497295D01*
X93078540Y-118496645D02*
X93697990Y-118496645D01*
X93364440Y-118877845D01*
X93507390Y-118877845D01*
X93602690Y-118925495D01*
X93650340Y-118973145D01*
X93697990Y-119068445D01*
X93697990Y-119306695D01*
X93650340Y-119401995D01*
X93602690Y-119449645D01*
X93507390Y-119497295D01*
X93221490Y-119497295D01*
X93126190Y-119449645D01*
X93078540Y-119401995D01*
X84936565Y-136522177D02*
X84459589Y-136522177D01*
X84411891Y-136999153D01*
X84459589Y-136951455D01*
X84554984Y-136903758D01*
X84793472Y-136903758D01*
X84888868Y-136951455D01*
X84936565Y-136999153D01*
X84984263Y-137094548D01*
X84984263Y-137333036D01*
X84936565Y-137428432D01*
X84888868Y-137476129D01*
X84793472Y-137523827D01*
X84554984Y-137523827D01*
X84459589Y-137476129D01*
X84411891Y-137428432D01*
X85270449Y-136522177D02*
X85604332Y-137523827D01*
X85938215Y-136522177D01*
X87035260Y-137142246D02*
X87798422Y-137142246D01*
X88990863Y-136617572D02*
X89038560Y-136569875D01*
X89133956Y-136522177D01*
X89372444Y-136522177D01*
X89467839Y-136569875D01*
X89515537Y-136617572D01*
X89563234Y-136712967D01*
X89563234Y-136808363D01*
X89515537Y-136951455D01*
X88943165Y-137523827D01*
X89563234Y-137523827D01*
X90421791Y-136856060D02*
X90421791Y-137523827D01*
X90183303Y-136474479D02*
X89944815Y-137189944D01*
X90564884Y-137189944D01*
X90803372Y-136522177D02*
X91137256Y-137523827D01*
X91471139Y-136522177D01*
X91852720Y-137476129D02*
X91852720Y-137523827D01*
X91805022Y-137619222D01*
X91757325Y-137666920D01*
X93045160Y-137523827D02*
X93045160Y-136522177D01*
X93379044Y-137237641D01*
X93712927Y-136522177D01*
X93712927Y-137523827D01*
X94332996Y-137523827D02*
X94237601Y-137476129D01*
X94189903Y-137428432D01*
X94142206Y-137333036D01*
X94142206Y-137046851D01*
X94189903Y-136951455D01*
X94237601Y-136903758D01*
X94332996Y-136856060D01*
X94476089Y-136856060D01*
X94571484Y-136903758D01*
X94619182Y-136951455D01*
X94666880Y-137046851D01*
X94666880Y-137333036D01*
X94619182Y-137428432D01*
X94571484Y-137476129D01*
X94476089Y-137523827D01*
X94332996Y-137523827D01*
X95239251Y-137523827D02*
X95143856Y-137476129D01*
X95096158Y-137380734D01*
X95096158Y-136522177D01*
X96002413Y-137476129D02*
X95907018Y-137523827D01*
X95716227Y-137523827D01*
X95620832Y-137476129D01*
X95573134Y-137380734D01*
X95573134Y-136999153D01*
X95620832Y-136903758D01*
X95716227Y-136856060D01*
X95907018Y-136856060D01*
X96002413Y-136903758D01*
X96050110Y-136999153D01*
X96050110Y-137094548D01*
X95573134Y-137189944D01*
X96383994Y-137523827D02*
X96908668Y-136856060D01*
X96383994Y-136856060D02*
X96908668Y-137523827D01*
X98053410Y-136522177D02*
X98053410Y-137333036D01*
X98101108Y-137428432D01*
X98148806Y-137476129D01*
X98244201Y-137523827D01*
X98434991Y-137523827D01*
X98530387Y-137476129D01*
X98578084Y-137428432D01*
X98625782Y-137333036D01*
X98625782Y-136522177D01*
X99245851Y-137523827D02*
X99150456Y-137476129D01*
X99102758Y-137380734D01*
X99102758Y-136522177D01*
X99484339Y-136856060D02*
X99865920Y-136856060D01*
X99627432Y-136522177D02*
X99627432Y-137380734D01*
X99675130Y-137476129D01*
X99770525Y-137523827D01*
X99865920Y-137523827D01*
X100199803Y-137523827D02*
X100199803Y-136856060D01*
X100199803Y-137046851D02*
X100247501Y-136951455D01*
X100295199Y-136903758D01*
X100390594Y-136856060D01*
X100485989Y-136856060D01*
X101249151Y-137523827D02*
X101249151Y-136999153D01*
X101201453Y-136903758D01*
X101106058Y-136856060D01*
X100915268Y-136856060D01*
X100819872Y-136903758D01*
X101249151Y-137476129D02*
X101153756Y-137523827D01*
X100915268Y-137523827D01*
X100819872Y-137476129D01*
X100772175Y-137380734D01*
X100772175Y-137285339D01*
X100819872Y-137189944D01*
X100915268Y-137142246D01*
X101153756Y-137142246D01*
X101249151Y-137094548D01*
X101583034Y-136856060D02*
X101964615Y-136856060D01*
X101726127Y-137523827D02*
X101726127Y-136665270D01*
X101773825Y-136569875D01*
X101869220Y-136522177D01*
X101964615Y-136522177D01*
X102298499Y-137523827D02*
X102298499Y-136856060D01*
X102298499Y-136522177D02*
X102250801Y-136569875D01*
X102298499Y-136617572D01*
X102346196Y-136569875D01*
X102298499Y-136522177D01*
X102298499Y-136617572D01*
X102632382Y-136856060D02*
X103013963Y-136856060D01*
X102775475Y-136522177D02*
X102775475Y-137380734D01*
X102823172Y-137476129D01*
X102918568Y-137523827D01*
X103013963Y-137523827D01*
G04 #@! TD*
M02*
