M48
;DRILL file {KiCad 5.0.1} date Sun 07 Apr 2019 10:09:50 AM CEST
;FORMAT={-:-/ absolute / inch / decimal}
FMAT,2
INCH,TZ
T1C0.0118
T2C0.0394
T3C0.0400
T4C0.0402
T5C0.0531
T6C0.1260
%
G90
G05
M72
T1
X2.54Y-3.155
X2.54Y-3.665
X2.545Y-2.675
X2.545Y-4.185
X2.545Y-4.685
X2.611Y-3.378
X2.611Y-3.887
X2.612Y-2.891
X2.614Y-4.395
X2.68Y-2.62
X2.68Y-3.105
X2.68Y-3.62
X2.68Y-4.135
X2.6906Y-4.6636
X2.805Y-2.019
X2.84Y-2.465
X2.84Y-2.96
X2.84Y-3.465
X2.84Y-3.96
X2.84Y-4.445
X2.9004Y-2.0152
X2.902Y-2.07
X3.005Y-2.071
X3.0235Y-2.2554
X3.06Y-4.37
X3.07Y-2.965
X3.075Y-2.475
X3.0755Y-3.5345
X3.0774Y-4.065
X3.14Y-2.415
X3.15Y-3.655
X3.161Y-2.279
X3.1833Y-2.4378
X3.204Y-2.071
X3.2149Y-3.425
X3.2306Y-3.6366
X3.2389Y-2.2692
X3.24Y-2.4045
X3.2464Y-3.672
X3.265Y-2.62
X3.2686Y-4.135
X3.295Y-2.595
X3.295Y-3.03
X3.295Y-3.09
X3.31Y-3.865
X3.31Y-3.93
X3.313Y-2.4125
X3.35Y-3.7206
X3.355Y-3.565
X3.3635Y-3.99
X3.3932Y-4.04
X3.395Y-2.405
X3.405Y-2.072
X3.405Y-2.27
X3.405Y-3.285
X3.407Y-2.01
X3.4233Y-3.73
X3.435Y-3.635
X3.445Y-4.045
X3.455Y-3.715
X3.46Y-3.595
X3.4688Y-3.2638
X3.475Y-3.01
X3.49Y-4.11
X3.4904Y-3.39
X3.5026Y-3.0424
X3.51Y-3.565
X3.515Y-3.35
X3.555Y-2.88
X3.555Y-3.4
X3.565Y-3.775
X3.565Y-3.83
X3.585Y-3.045
X3.587Y-2.409
X3.5897Y-3.6154
X3.595Y-2.045
X3.6355Y-2.5375
X3.665Y-3.505
X3.67Y-3.07
X3.67Y-3.74
X3.685Y-3.03
X3.686Y-1.942
X3.69Y-3.71
X3.695Y-2.363
X3.705Y-3.855
X3.743Y-2.045
X3.7678Y-2.3048
X3.7891Y-4.495
X3.795Y-3.385
X3.8Y-3.655
X3.819Y-2.428
X3.82Y-3.965
X3.82Y-4.175
X3.825Y-3.555
X3.83Y-4.085
X3.835Y-3.485
X3.835Y-3.38
X3.835Y-3.415
X3.85Y-3.325
X3.85Y-3.995
X3.87Y-3.89
X3.875Y-4.16
X3.894Y-2.454
X3.909Y-1.9656
X3.93Y-3.65
X3.9305Y-3.545
X3.963Y-2.296
X3.964Y-2.33
X3.97Y-3.89
X3.9777Y-2.418
X3.99Y-3.565
X3.9963Y-2.4434
X4.005Y-3.8
X4.007Y-1.9296
X4.025Y-4.09
X4.045Y-4.055
X4.05Y-3.66
X4.0556Y-3.115
X4.06Y-3.69
X4.0664Y-3.755
X4.0664Y-3.79
X4.09Y-4.19
X4.095Y-3.525
X4.102Y-1.955
X4.125Y-3.365
X4.125Y-3.585
X4.15Y-3.31
X4.15Y-3.715
X4.15Y-3.915
X4.15Y-4.25
X4.175Y-3.575
X4.215Y-4.5875
X4.216Y-4.447
X4.22Y-3.681
X4.22Y-4.399
X4.23Y-4.505
X4.2475Y-4.625
X4.25Y-3.355
X4.25Y-4.535
X4.266Y-3.238
X4.287Y-4.626
X4.2993Y-3.1043
X4.32Y-4.4705
X4.3255Y-3.58
X4.33Y-3.19
X4.34Y-4.0361
X4.37Y-3.51
X4.38Y-2.986
X4.52Y-2.945
X4.52Y-3.47
X4.52Y-4.51
X4.52Y-4.96
X4.52Y-4.0144
X4.675Y-4.77
X4.68Y-2.73
X4.68Y-3.245
X4.68Y-3.77
X4.68Y-4.28
X4.743Y-4.518
X4.747Y-4.017
X4.748Y-2.487
X4.748Y-2.992
X4.748Y-3.521
X4.815Y-4.71
X4.82Y-2.68
X4.82Y-3.195
X4.82Y-3.715
X4.82Y-4.22
X5.05Y-2.28
X5.0755Y-2.2207
X5.1184Y-2.1712
X5.1991Y-2.1295
T2
X2.063Y-1.924
X2.063Y-2.024
X2.063Y-2.124
X2.063Y-2.224
X2.063Y-2.324
X2.063Y-2.424
X4.15Y-4.835
X4.25Y-4.835
T3
X2.455Y-1.895
X2.455Y-1.995
X2.555Y-1.895
X2.555Y-1.995
X2.655Y-1.895
X2.655Y-1.995
X2.755Y-1.895
X2.755Y-1.995
X2.855Y-1.895
X2.855Y-1.995
X2.955Y-1.895
X2.955Y-1.995
X3.055Y-1.895
X3.055Y-1.995
X3.155Y-1.895
X3.155Y-1.995
X3.255Y-1.895
X3.255Y-1.995
X3.355Y-1.895
X3.355Y-1.995
X3.455Y-1.895
X3.455Y-1.995
X3.555Y-1.895
X3.555Y-1.995
X3.655Y-1.895
X3.655Y-1.995
X3.755Y-1.895
X3.755Y-1.995
X3.855Y-1.895
X3.855Y-1.995
X3.955Y-1.895
X3.955Y-1.995
X4.055Y-1.895
X4.055Y-1.995
X4.155Y-1.895
X4.155Y-1.995
X4.255Y-1.895
X4.255Y-1.995
X4.355Y-1.895
X4.355Y-1.995
X4.455Y-1.895
X4.455Y-1.995
X4.555Y-1.895
X4.555Y-1.995
X4.655Y-1.895
X4.655Y-1.995
X4.755Y-1.895
X4.755Y-1.995
X4.855Y-1.895
X4.855Y-1.995
X4.955Y-1.895
X4.955Y-1.995
X2.455Y-2.095
X2.455Y-2.195
X2.555Y-2.095
X2.555Y-2.195
X2.655Y-2.095
X2.655Y-2.195
X2.755Y-2.095
X2.755Y-2.195
X2.855Y-2.095
X2.855Y-2.195
X2.955Y-2.095
X2.955Y-2.195
X3.055Y-2.095
X3.055Y-2.195
X3.155Y-2.095
X3.155Y-2.195
X3.255Y-2.095
X3.255Y-2.195
X3.355Y-2.095
X3.355Y-2.195
X3.455Y-2.095
X3.455Y-2.195
X3.555Y-2.095
X3.555Y-2.195
X3.655Y-2.095
X3.655Y-2.195
X3.755Y-2.095
X3.755Y-2.195
X3.855Y-2.095
X3.855Y-2.195
X3.955Y-2.095
X3.955Y-2.195
X4.055Y-2.095
X4.055Y-2.195
X4.155Y-2.095
X4.155Y-2.195
X4.255Y-2.095
X4.255Y-2.195
X4.355Y-2.095
X4.355Y-2.195
X4.455Y-2.095
X4.455Y-2.195
X4.555Y-2.095
X4.555Y-2.195
X4.655Y-2.095
X4.655Y-2.195
X4.755Y-2.095
X4.755Y-2.195
X4.855Y-2.095
X4.855Y-2.195
X4.955Y-2.095
X4.955Y-2.195
T4
X3.6611Y-4.83
X3.7989Y-4.83
T5
X2.221Y-3.62
X2.221Y-3.77
X2.221Y-4.125
X2.221Y-4.275
X5.14Y-3.624
X5.14Y-3.774
X5.14Y-2.599
X5.14Y-2.749
X2.221Y-3.115
X2.221Y-3.265
X2.221Y-2.615
X2.221Y-2.765
X5.14Y-3.114
X5.14Y-3.264
X2.221Y-4.62
X2.221Y-4.77
X5.14Y-4.619
X5.14Y-4.769
X5.14Y-4.124
X5.14Y-4.274
T6
X2.105Y-5.27
X5.155Y-1.895
X2.255Y-1.895
X5.255Y-5.27
T0
M30
