G04 #@! TF.GenerationSoftware,KiCad,Pcbnew,(5.0.1-3-g963ef8bb5)*
G04 #@! TF.CreationDate,2019-01-02T15:44:33+01:00*
G04 #@! TF.ProjectId,OIBUS_MOSFET_driver_module,4F494255535F4D4F534645545F647269,rev?*
G04 #@! TF.SameCoordinates,Original*
G04 #@! TF.FileFunction,Copper,L1,Top,Signal*
G04 #@! TF.FilePolarity,Positive*
%FSLAX46Y46*%
G04 Gerber Fmt 4.6, Leading zero omitted, Abs format (unit mm)*
G04 Created by KiCad (PCBNEW (5.0.1-3-g963ef8bb5)) date 2019 January 02, Wednesday 15:44:33*
%MOMM*%
%LPD*%
G01*
G04 APERTURE LIST*
G04 #@! TA.AperFunction,SMDPad,CuDef*
%ADD10R,0.750000X0.800000*%
G04 #@! TD*
G04 #@! TA.AperFunction,SMDPad,CuDef*
%ADD11R,1.400000X1.200000*%
G04 #@! TD*
G04 #@! TA.AperFunction,SMDPad,CuDef*
%ADD12R,1.700000X2.250000*%
G04 #@! TD*
G04 #@! TA.AperFunction,SMDPad,CuDef*
%ADD13R,3.500000X1.600000*%
G04 #@! TD*
G04 #@! TA.AperFunction,SMDPad,CuDef*
%ADD14R,1.600000X3.500000*%
G04 #@! TD*
G04 #@! TA.AperFunction,SMDPad,CuDef*
%ADD15R,0.800000X0.750000*%
G04 #@! TD*
G04 #@! TA.AperFunction,SMDPad,CuDef*
%ADD16R,0.800000X0.900000*%
G04 #@! TD*
G04 #@! TA.AperFunction,SMDPad,CuDef*
%ADD17R,0.700000X0.450000*%
G04 #@! TD*
G04 #@! TA.AperFunction,SMDPad,CuDef*
%ADD18R,0.900000X1.200000*%
G04 #@! TD*
G04 #@! TA.AperFunction,ComponentPad*
%ADD19C,1.524000*%
G04 #@! TD*
G04 #@! TA.AperFunction,ComponentPad*
%ADD20R,1.524000X1.524000*%
G04 #@! TD*
G04 #@! TA.AperFunction,ComponentPad*
%ADD21C,5.600000*%
G04 #@! TD*
G04 #@! TA.AperFunction,ComponentPad*
%ADD22O,1.700000X1.700000*%
G04 #@! TD*
G04 #@! TA.AperFunction,ComponentPad*
%ADD23R,1.700000X1.700000*%
G04 #@! TD*
G04 #@! TA.AperFunction,ComponentPad*
%ADD24R,2.025000X2.025000*%
G04 #@! TD*
G04 #@! TA.AperFunction,ComponentPad*
%ADD25C,2.025000*%
G04 #@! TD*
G04 #@! TA.AperFunction,SMDPad,CuDef*
%ADD26R,1.500000X1.000000*%
G04 #@! TD*
G04 #@! TA.AperFunction,SMDPad,CuDef*
%ADD27C,0.500000*%
G04 #@! TD*
G04 #@! TA.AperFunction,Conductor*
%ADD28C,0.149860*%
G04 #@! TD*
G04 #@! TA.AperFunction,SMDPad,CuDef*
%ADD29R,0.900000X0.500000*%
G04 #@! TD*
G04 #@! TA.AperFunction,SMDPad,CuDef*
%ADD30R,0.700000X1.300000*%
G04 #@! TD*
G04 #@! TA.AperFunction,SMDPad,CuDef*
%ADD31R,0.800000X0.800000*%
G04 #@! TD*
G04 #@! TA.AperFunction,SMDPad,CuDef*
%ADD32R,0.500000X0.900000*%
G04 #@! TD*
G04 #@! TA.AperFunction,SMDPad,CuDef*
%ADD33R,1.700000X0.900000*%
G04 #@! TD*
G04 #@! TA.AperFunction,SMDPad,CuDef*
%ADD34R,0.550000X1.050000*%
G04 #@! TD*
G04 #@! TA.AperFunction,SMDPad,CuDef*
%ADD35R,0.400000X1.060000*%
G04 #@! TD*
G04 #@! TA.AperFunction,SMDPad,CuDef*
%ADD36R,0.250000X1.300000*%
G04 #@! TD*
G04 #@! TA.AperFunction,SMDPad,CuDef*
%ADD37R,1.300000X0.250000*%
G04 #@! TD*
G04 #@! TA.AperFunction,ComponentPad*
%ADD38R,1.530000X1.530000*%
G04 #@! TD*
G04 #@! TA.AperFunction,ComponentPad*
%ADD39C,1.530000*%
G04 #@! TD*
G04 #@! TA.AperFunction,SMDPad,CuDef*
%ADD40C,0.875000*%
G04 #@! TD*
G04 #@! TA.AperFunction,SMDPad,CuDef*
%ADD41R,0.650000X1.650000*%
G04 #@! TD*
G04 #@! TA.AperFunction,BGAPad,CuDef*
%ADD42C,1.000000*%
G04 #@! TD*
G04 #@! TA.AperFunction,ViaPad*
%ADD43C,0.600000*%
G04 #@! TD*
G04 #@! TA.AperFunction,Conductor*
%ADD44C,0.250000*%
G04 #@! TD*
G04 #@! TA.AperFunction,Conductor*
%ADD45C,0.400000*%
G04 #@! TD*
G04 #@! TA.AperFunction,Conductor*
%ADD46C,2.000000*%
G04 #@! TD*
G04 #@! TA.AperFunction,Conductor*
%ADD47C,5.000000*%
G04 #@! TD*
G04 #@! TA.AperFunction,Conductor*
%ADD48C,0.200000*%
G04 #@! TD*
G04 #@! TA.AperFunction,Conductor*
%ADD49C,0.254000*%
G04 #@! TD*
G04 APERTURE END LIST*
D10*
G04 #@! TO.P,C8,1*
G04 #@! TO.N,Net-(C8-Pad1)*
X89916000Y-106033000D03*
G04 #@! TO.P,C8,2*
G04 #@! TO.N,GND*
X89916000Y-104533000D03*
G04 #@! TD*
D11*
G04 #@! TO.P,Y1,4*
G04 #@! TO.N,GND*
X91737000Y-104483000D03*
G04 #@! TO.P,Y1,3*
G04 #@! TO.N,Net-(C7-Pad2)*
X93937000Y-104483000D03*
G04 #@! TO.P,Y1,2*
G04 #@! TO.N,GND*
X93937000Y-106083000D03*
G04 #@! TO.P,Y1,1*
G04 #@! TO.N,Net-(C8-Pad1)*
X91737000Y-106083000D03*
G04 #@! TD*
D12*
G04 #@! TO.P,D9,2*
G04 #@! TO.N,Net-(D9-Pad2)*
X60071000Y-70503000D03*
G04 #@! TO.P,D9,1*
G04 #@! TO.N,VBUS*
X60071000Y-66403000D03*
G04 #@! TD*
D13*
G04 #@! TO.P,C1,2*
G04 #@! TO.N,GNDPWR*
X98900000Y-114681000D03*
G04 #@! TO.P,C1,1*
G04 #@! TO.N,Vopto*
X104300000Y-114681000D03*
G04 #@! TD*
D14*
G04 #@! TO.P,C2,1*
G04 #@! TO.N,VBUS*
X93091000Y-117254000D03*
G04 #@! TO.P,C2,2*
G04 #@! TO.N,GNDPWR*
X93091000Y-111854000D03*
G04 #@! TD*
D10*
G04 #@! TO.P,C5,1*
G04 #@! TO.N,GND*
X92329000Y-65671000D03*
G04 #@! TO.P,C5,2*
G04 #@! TO.N,Net-(C5-Pad2)*
X92329000Y-67171000D03*
G04 #@! TD*
G04 #@! TO.P,C6,2*
G04 #@! TO.N,+3V3*
X88265000Y-73926000D03*
G04 #@! TO.P,C6,1*
G04 #@! TO.N,GND*
X88265000Y-75426000D03*
G04 #@! TD*
G04 #@! TO.P,C7,2*
G04 #@! TO.N,Net-(C7-Pad2)*
X95758000Y-104533000D03*
G04 #@! TO.P,C7,1*
G04 #@! TO.N,GND*
X95758000Y-106033000D03*
G04 #@! TD*
D15*
G04 #@! TO.P,C9,2*
G04 #@! TO.N,~RESET*
X95770000Y-102616000D03*
G04 #@! TO.P,C9,1*
G04 #@! TO.N,GND*
X97270000Y-102616000D03*
G04 #@! TD*
G04 #@! TO.P,C10,1*
G04 #@! TO.N,GND*
X85483000Y-99822000D03*
G04 #@! TO.P,C10,2*
G04 #@! TO.N,VBACKUP*
X86983000Y-99822000D03*
G04 #@! TD*
D10*
G04 #@! TO.P,C11,1*
G04 #@! TO.N,GND*
X90297000Y-87515000D03*
G04 #@! TO.P,C11,2*
G04 #@! TO.N,+3V3*
X90297000Y-89015000D03*
G04 #@! TD*
D15*
G04 #@! TO.P,C12,2*
G04 #@! TO.N,+3V3*
X86983000Y-98171000D03*
G04 #@! TO.P,C12,1*
G04 #@! TO.N,GND*
X85483000Y-98171000D03*
G04 #@! TD*
G04 #@! TO.P,C13,1*
G04 #@! TO.N,GND*
X101334000Y-91821000D03*
G04 #@! TO.P,C13,2*
G04 #@! TO.N,+3V3*
X99834000Y-91821000D03*
G04 #@! TD*
G04 #@! TO.P,C14,1*
G04 #@! TO.N,GND*
X100826000Y-102539800D03*
G04 #@! TO.P,C14,2*
G04 #@! TO.N,Net-(C14-Pad2)*
X99326000Y-102539800D03*
G04 #@! TD*
G04 #@! TO.P,C15,2*
G04 #@! TO.N,Net-(C14-Pad2)*
X99326000Y-103886000D03*
G04 #@! TO.P,C15,1*
G04 #@! TO.N,GND*
X100826000Y-103886000D03*
G04 #@! TD*
D12*
G04 #@! TO.P,D1,2*
G04 #@! TO.N,Net-(D1-Pad2)*
X126873000Y-104630000D03*
G04 #@! TO.P,D1,1*
G04 #@! TO.N,VBUS*
X126873000Y-108730000D03*
G04 #@! TD*
D16*
G04 #@! TO.P,D2,1*
G04 #@! TO.N,GateT1*
X120584000Y-103648000D03*
G04 #@! TO.P,D2,2*
G04 #@! TO.N,GNDPWR*
X118684000Y-103648000D03*
G04 #@! TO.P,D2,3*
G04 #@! TO.N,N/C*
X119634000Y-105648000D03*
G04 #@! TD*
D12*
G04 #@! TO.P,D3,1*
G04 #@! TO.N,VBUS*
X126873000Y-121303000D03*
G04 #@! TO.P,D3,2*
G04 #@! TO.N,Net-(D3-Pad2)*
X126873000Y-117203000D03*
G04 #@! TD*
D16*
G04 #@! TO.P,D4,3*
G04 #@! TO.N,N/C*
X119507000Y-118221000D03*
G04 #@! TO.P,D4,2*
G04 #@! TO.N,GNDPWR*
X118557000Y-116221000D03*
G04 #@! TO.P,D4,1*
G04 #@! TO.N,GateT2*
X120457000Y-116221000D03*
G04 #@! TD*
D12*
G04 #@! TO.P,D5,1*
G04 #@! TO.N,VBUS*
X126873000Y-69995000D03*
G04 #@! TO.P,D5,2*
G04 #@! TO.N,Net-(D5-Pad2)*
X126873000Y-65895000D03*
G04 #@! TD*
D16*
G04 #@! TO.P,D6,1*
G04 #@! TO.N,GateT3*
X120584000Y-64532000D03*
G04 #@! TO.P,D6,2*
G04 #@! TO.N,GNDPWR*
X118684000Y-64532000D03*
G04 #@! TO.P,D6,3*
G04 #@! TO.N,N/C*
X119634000Y-66532000D03*
G04 #@! TD*
D12*
G04 #@! TO.P,D7,1*
G04 #@! TO.N,VBUS*
X126873000Y-96030000D03*
G04 #@! TO.P,D7,2*
G04 #@! TO.N,Net-(D7-Pad2)*
X126873000Y-91930000D03*
G04 #@! TD*
D16*
G04 #@! TO.P,D8,3*
G04 #@! TO.N,N/C*
X119634000Y-92821000D03*
G04 #@! TO.P,D8,2*
G04 #@! TO.N,GNDPWR*
X118684000Y-90821000D03*
G04 #@! TO.P,D8,1*
G04 #@! TO.N,GateT4*
X120584000Y-90821000D03*
G04 #@! TD*
G04 #@! TO.P,D10,1*
G04 #@! TO.N,GateT5*
X66360000Y-71993000D03*
G04 #@! TO.P,D10,2*
G04 #@! TO.N,GNDPWR*
X68260000Y-71993000D03*
G04 #@! TO.P,D10,3*
G04 #@! TO.N,N/C*
X67310000Y-69993000D03*
G04 #@! TD*
D12*
G04 #@! TO.P,D11,1*
G04 #@! TO.N,VBUS*
X60071000Y-91803000D03*
G04 #@! TO.P,D11,2*
G04 #@! TO.N,Net-(D11-Pad2)*
X60071000Y-95903000D03*
G04 #@! TD*
D16*
G04 #@! TO.P,D12,3*
G04 #@! TO.N,N/C*
X67278238Y-95246488D03*
G04 #@! TO.P,D12,2*
G04 #@! TO.N,GNDPWR*
X68228238Y-97246488D03*
G04 #@! TO.P,D12,1*
G04 #@! TO.N,GateT6*
X66328238Y-97246488D03*
G04 #@! TD*
D12*
G04 #@! TO.P,D13,2*
G04 #@! TO.N,Net-(D13-Pad2)*
X60071000Y-121430000D03*
G04 #@! TO.P,D13,1*
G04 #@! TO.N,VBUS*
X60071000Y-117330000D03*
G04 #@! TD*
D16*
G04 #@! TO.P,D14,1*
G04 #@! TO.N,GateT7*
X66422620Y-123250583D03*
G04 #@! TO.P,D14,2*
G04 #@! TO.N,GNDPWR*
X68322620Y-123250583D03*
G04 #@! TO.P,D14,3*
G04 #@! TO.N,N/C*
X67372620Y-121250583D03*
G04 #@! TD*
D12*
G04 #@! TO.P,D15,2*
G04 #@! TO.N,Net-(D15-Pad2)*
X60071000Y-108857000D03*
G04 #@! TO.P,D15,1*
G04 #@! TO.N,VBUS*
X60071000Y-104757000D03*
G04 #@! TD*
D16*
G04 #@! TO.P,D16,3*
G04 #@! TO.N,N/C*
X67348866Y-108324810D03*
G04 #@! TO.P,D16,2*
G04 #@! TO.N,GNDPWR*
X68298866Y-110324810D03*
G04 #@! TO.P,D16,1*
G04 #@! TO.N,GateT8*
X66398866Y-110324810D03*
G04 #@! TD*
D17*
G04 #@! TO.P,D17,3*
G04 #@! TO.N,GND*
X97018600Y-58775600D03*
G04 #@! TO.P,D17,2*
G04 #@! TO.N,CANH*
X99018600Y-58125600D03*
G04 #@! TO.P,D17,1*
G04 #@! TO.N,CANL*
X99018600Y-59425600D03*
G04 #@! TD*
D18*
G04 #@! TO.P,D18,2*
G04 #@! TO.N,VBUS*
X100966000Y-119634000D03*
G04 #@! TO.P,D18,1*
G04 #@! TO.N,Vopto*
X104266000Y-119634000D03*
G04 #@! TD*
D12*
G04 #@! TO.P,D19,2*
G04 #@! TO.N,Net-(D19-Pad2)*
X126873000Y-78976000D03*
G04 #@! TO.P,D19,1*
G04 #@! TO.N,VBUS*
X126873000Y-83076000D03*
G04 #@! TD*
G04 #@! TO.P,D20,1*
G04 #@! TO.N,VBUS*
X60071000Y-78976000D03*
G04 #@! TO.P,D20,2*
G04 #@! TO.N,Net-(D20-Pad2)*
X60071000Y-83076000D03*
G04 #@! TD*
D16*
G04 #@! TO.P,D21,3*
G04 #@! TO.N,N/C*
X119634000Y-79613000D03*
G04 #@! TO.P,D21,2*
G04 #@! TO.N,GNDPWR*
X118684000Y-77613000D03*
G04 #@! TO.P,D21,1*
G04 #@! TO.N,GateT9*
X120584000Y-77613000D03*
G04 #@! TD*
G04 #@! TO.P,D22,1*
G04 #@! TO.N,GateT10*
X66337985Y-84360617D03*
G04 #@! TO.P,D22,2*
G04 #@! TO.N,GNDPWR*
X68237985Y-84360617D03*
G04 #@! TO.P,D22,3*
G04 #@! TO.N,N/C*
X67287985Y-82360617D03*
G04 #@! TD*
D19*
G04 #@! TO.P,H1,2*
G04 #@! TO.N,Net-(H1-Pad2)*
X62357000Y-48133001D03*
D20*
G04 #@! TO.P,H1,1*
G04 #@! TO.N,Net-(H1-Pad1)*
X62357000Y-50673001D03*
D19*
G04 #@! TO.P,H1,4*
G04 #@! TO.N,Net-(H1-Pad4)*
X64897000Y-48133001D03*
G04 #@! TO.P,H1,3*
G04 #@! TO.N,Net-(H1-Pad3)*
X64897000Y-50673001D03*
G04 #@! TO.P,H1,6*
G04 #@! TO.N,Net-(H1-Pad6)*
X67437000Y-48133001D03*
G04 #@! TO.P,H1,5*
G04 #@! TO.N,Net-(H1-Pad5)*
X67437000Y-50673001D03*
G04 #@! TO.P,H1,8*
G04 #@! TO.N,Net-(H1-Pad8)*
X69977000Y-48133001D03*
G04 #@! TO.P,H1,7*
G04 #@! TO.N,Net-(H1-Pad7)*
X69977000Y-50673001D03*
G04 #@! TO.P,H1,10*
G04 #@! TO.N,Net-(H1-Pad10)*
X72517000Y-48133001D03*
G04 #@! TO.P,H1,9*
G04 #@! TO.N,Net-(H1-Pad9)*
X72517000Y-50673001D03*
G04 #@! TO.P,H1,12*
G04 #@! TO.N,Net-(H1-Pad12)*
X75057000Y-48133001D03*
G04 #@! TO.P,H1,11*
G04 #@! TO.N,Net-(H1-Pad11)*
X75057000Y-50673001D03*
G04 #@! TO.P,H1,14*
G04 #@! TO.N,Net-(H1-Pad14)*
X77597000Y-48133001D03*
G04 #@! TO.P,H1,13*
G04 #@! TO.N,Net-(H1-Pad13)*
X77597000Y-50673001D03*
G04 #@! TO.P,H1,16*
G04 #@! TO.N,Net-(H1-Pad16)*
X80137000Y-48133001D03*
G04 #@! TO.P,H1,15*
G04 #@! TO.N,Net-(H1-Pad15)*
X80137000Y-50673001D03*
G04 #@! TO.P,H1,18*
G04 #@! TO.N,Net-(H1-Pad18)*
X82677000Y-48133001D03*
G04 #@! TO.P,H1,17*
G04 #@! TO.N,Net-(H1-Pad17)*
X82677000Y-50673001D03*
G04 #@! TO.P,H1,20*
G04 #@! TO.N,Net-(H1-Pad20)*
X85217000Y-48133001D03*
G04 #@! TO.P,H1,19*
G04 #@! TO.N,Net-(H1-Pad19)*
X85217000Y-50673001D03*
G04 #@! TO.P,H1,22*
G04 #@! TO.N,Net-(H1-Pad22)*
X87757000Y-48133001D03*
G04 #@! TO.P,H1,21*
G04 #@! TO.N,Net-(H1-Pad21)*
X87757000Y-50673001D03*
G04 #@! TO.P,H1,24*
G04 #@! TO.N,Net-(H1-Pad24)*
X90297000Y-48133001D03*
G04 #@! TO.P,H1,23*
G04 #@! TO.N,Net-(H1-Pad23)*
X90297000Y-50673001D03*
G04 #@! TO.P,H1,26*
G04 #@! TO.N,Net-(H1-Pad26)*
X92837000Y-48133001D03*
G04 #@! TO.P,H1,25*
G04 #@! TO.N,Net-(H1-Pad25)*
X92837000Y-50673001D03*
G04 #@! TO.P,H1,28*
G04 #@! TO.N,Net-(H1-Pad28)*
X95377000Y-48133001D03*
G04 #@! TO.P,H1,27*
G04 #@! TO.N,Net-(H1-Pad27)*
X95377000Y-50673001D03*
G04 #@! TO.P,H1,30*
G04 #@! TO.N,Net-(H1-Pad30)*
X97917000Y-48133001D03*
G04 #@! TO.P,H1,29*
G04 #@! TO.N,~RESET*
X97917000Y-50673001D03*
G04 #@! TO.P,H1,32*
G04 #@! TO.N,Net-(H1-Pad32)*
X100457000Y-48133001D03*
G04 #@! TO.P,H1,31*
G04 #@! TO.N,Net-(H1-Pad31)*
X100457000Y-50673001D03*
G04 #@! TO.P,H1,34*
G04 #@! TO.N,Net-(H1-Pad34)*
X102997000Y-48133001D03*
G04 #@! TO.P,H1,33*
G04 #@! TO.N,Net-(H1-Pad33)*
X102997000Y-50673001D03*
G04 #@! TO.P,H1,36*
G04 #@! TO.N,Net-(H1-Pad36)*
X105537000Y-48133001D03*
G04 #@! TO.P,H1,35*
G04 #@! TO.N,Net-(H1-Pad35)*
X105537000Y-50673001D03*
G04 #@! TO.P,H1,38*
G04 #@! TO.N,Net-(H1-Pad38)*
X108077000Y-48133001D03*
G04 #@! TO.P,H1,37*
G04 #@! TO.N,Net-(H1-Pad37)*
X108077000Y-50673001D03*
G04 #@! TO.P,H1,40*
G04 #@! TO.N,Net-(H1-Pad40)*
X110617000Y-48133001D03*
G04 #@! TO.P,H1,39*
G04 #@! TO.N,Net-(H1-Pad39)*
X110617000Y-50673001D03*
G04 #@! TO.P,H1,42*
G04 #@! TO.N,VBACKUP*
X113157000Y-48133001D03*
G04 #@! TO.P,H1,41*
G04 #@! TO.N,Net-(H1-Pad41)*
X113157000Y-50673001D03*
G04 #@! TO.P,H1,44*
G04 #@! TO.N,Net-(H1-Pad44)*
X115697000Y-48133001D03*
G04 #@! TO.P,H1,43*
G04 #@! TO.N,Net-(H1-Pad43)*
X115697000Y-50673001D03*
G04 #@! TO.P,H1,46*
G04 #@! TO.N,Net-(H1-Pad46)*
X118237000Y-48133001D03*
G04 #@! TO.P,H1,45*
G04 #@! TO.N,Net-(H1-Pad45)*
X118237000Y-50673001D03*
G04 #@! TO.P,H1,48*
G04 #@! TO.N,Net-(H1-Pad48)*
X120777000Y-48133001D03*
G04 #@! TO.P,H1,47*
G04 #@! TO.N,Net-(H1-Pad47)*
X120777000Y-50673001D03*
G04 #@! TO.P,H1,50*
G04 #@! TO.N,Net-(H1-Pad50)*
X123317000Y-48133001D03*
G04 #@! TO.P,H1,49*
G04 #@! TO.N,Net-(H1-Pad49)*
X123317000Y-50673001D03*
G04 #@! TO.P,H1,52*
G04 #@! TO.N,Net-(H1-Pad52)*
X125857000Y-48133001D03*
G04 #@! TO.P,H1,51*
G04 #@! TO.N,Net-(H1-Pad51)*
X125857000Y-50673001D03*
G04 #@! TD*
G04 #@! TO.P,H2,51*
G04 #@! TO.N,CANH*
X125857000Y-55753000D03*
G04 #@! TO.P,H2,52*
G04 #@! TO.N,CANL*
X125857000Y-53213000D03*
G04 #@! TO.P,H2,49*
G04 #@! TO.N,Net-(H2-Pad49)*
X123317000Y-55753000D03*
G04 #@! TO.P,H2,50*
G04 #@! TO.N,Net-(H2-Pad50)*
X123317000Y-53213000D03*
G04 #@! TO.P,H2,47*
G04 #@! TO.N,Net-(H2-Pad47)*
X120777000Y-55753000D03*
G04 #@! TO.P,H2,48*
G04 #@! TO.N,Net-(H2-Pad48)*
X120777000Y-53213000D03*
G04 #@! TO.P,H2,45*
G04 #@! TO.N,Net-(H2-Pad45)*
X118237000Y-55753000D03*
G04 #@! TO.P,H2,46*
X118237000Y-53213000D03*
G04 #@! TO.P,H2,43*
G04 #@! TO.N,Net-(H2-Pad43)*
X115697000Y-55753000D03*
G04 #@! TO.P,H2,44*
X115697000Y-53213000D03*
G04 #@! TO.P,H2,41*
G04 #@! TO.N,Net-(H2-Pad41)*
X113157000Y-55753000D03*
G04 #@! TO.P,H2,42*
X113157000Y-53213000D03*
G04 #@! TO.P,H2,39*
G04 #@! TO.N,Net-(H2-Pad39)*
X110617000Y-55753000D03*
G04 #@! TO.P,H2,40*
X110617000Y-53213000D03*
G04 #@! TO.P,H2,37*
G04 #@! TO.N,Net-(H2-Pad37)*
X108077000Y-55753000D03*
G04 #@! TO.P,H2,38*
X108077000Y-53213000D03*
G04 #@! TO.P,H2,35*
G04 #@! TO.N,Net-(H2-Pad35)*
X105537000Y-55753000D03*
G04 #@! TO.P,H2,36*
X105537000Y-53213000D03*
G04 #@! TO.P,H2,33*
G04 #@! TO.N,Net-(H2-Pad33)*
X102997000Y-55753000D03*
G04 #@! TO.P,H2,34*
X102997000Y-53213000D03*
G04 #@! TO.P,H2,31*
G04 #@! TO.N,GND*
X100457000Y-55753000D03*
G04 #@! TO.P,H2,32*
X100457000Y-53213000D03*
G04 #@! TO.P,H2,29*
X97917000Y-55753000D03*
G04 #@! TO.P,H2,30*
X97917000Y-53213000D03*
G04 #@! TO.P,H2,27*
G04 #@! TO.N,+3V3*
X95377000Y-55753000D03*
G04 #@! TO.P,H2,28*
X95377000Y-53213000D03*
G04 #@! TO.P,H2,25*
G04 #@! TO.N,Net-(H2-Pad25)*
X92837000Y-55753000D03*
G04 #@! TO.P,H2,26*
X92837000Y-53213000D03*
G04 #@! TO.P,H2,23*
G04 #@! TO.N,Net-(H2-Pad23)*
X90297000Y-55753000D03*
G04 #@! TO.P,H2,24*
G04 #@! TO.N,Net-(H2-Pad24)*
X90297000Y-53213000D03*
G04 #@! TO.P,H2,21*
G04 #@! TO.N,Net-(H2-Pad21)*
X87757000Y-55753000D03*
G04 #@! TO.P,H2,22*
G04 #@! TO.N,Net-(H2-Pad22)*
X87757000Y-53213000D03*
G04 #@! TO.P,H2,19*
G04 #@! TO.N,Net-(H2-Pad19)*
X85217000Y-55753000D03*
G04 #@! TO.P,H2,20*
G04 #@! TO.N,Net-(H2-Pad20)*
X85217000Y-53213000D03*
G04 #@! TO.P,H2,17*
G04 #@! TO.N,Net-(H2-Pad17)*
X82677000Y-55753000D03*
G04 #@! TO.P,H2,18*
G04 #@! TO.N,Net-(H2-Pad18)*
X82677000Y-53213000D03*
G04 #@! TO.P,H2,15*
G04 #@! TO.N,Net-(H2-Pad15)*
X80137000Y-55753000D03*
G04 #@! TO.P,H2,16*
G04 #@! TO.N,Net-(H2-Pad16)*
X80137000Y-53213000D03*
G04 #@! TO.P,H2,13*
G04 #@! TO.N,Net-(H2-Pad13)*
X77597000Y-55753000D03*
G04 #@! TO.P,H2,14*
G04 #@! TO.N,Net-(H2-Pad14)*
X77597000Y-53213000D03*
G04 #@! TO.P,H2,11*
G04 #@! TO.N,Net-(H2-Pad11)*
X75057000Y-55753000D03*
G04 #@! TO.P,H2,12*
G04 #@! TO.N,Net-(H2-Pad12)*
X75057000Y-53213000D03*
G04 #@! TO.P,H2,9*
G04 #@! TO.N,Net-(H2-Pad9)*
X72517000Y-55753000D03*
G04 #@! TO.P,H2,10*
G04 #@! TO.N,Net-(H2-Pad10)*
X72517000Y-53213000D03*
G04 #@! TO.P,H2,7*
G04 #@! TO.N,Net-(H2-Pad7)*
X69977000Y-55753000D03*
G04 #@! TO.P,H2,8*
G04 #@! TO.N,Net-(H2-Pad8)*
X69977000Y-53213000D03*
G04 #@! TO.P,H2,5*
G04 #@! TO.N,Net-(H2-Pad5)*
X67437000Y-55753000D03*
G04 #@! TO.P,H2,6*
G04 #@! TO.N,Net-(H2-Pad6)*
X67437000Y-53213000D03*
G04 #@! TO.P,H2,3*
G04 #@! TO.N,Net-(H2-Pad3)*
X64897000Y-55753000D03*
G04 #@! TO.P,H2,4*
G04 #@! TO.N,Net-(H2-Pad4)*
X64897000Y-53213000D03*
D20*
G04 #@! TO.P,H2,1*
G04 #@! TO.N,Net-(H2-Pad1)*
X62357000Y-55753000D03*
D19*
G04 #@! TO.P,H2,2*
G04 #@! TO.N,Net-(H2-Pad2)*
X62357000Y-53213000D03*
G04 #@! TD*
D21*
G04 #@! TO.P,H3,1*
G04 #@! TO.N,GND*
X57277000Y-48133000D03*
G04 #@! TD*
G04 #@! TO.P,H4,1*
G04 #@! TO.N,GND*
X133477000Y-133858000D03*
G04 #@! TD*
G04 #@! TO.P,H5,1*
G04 #@! TO.N,GND*
X53467000Y-133858000D03*
G04 #@! TD*
G04 #@! TO.P,H6,1*
G04 #@! TO.N,GND*
X130937000Y-48133000D03*
G04 #@! TD*
D22*
G04 #@! TO.P,J1,6*
G04 #@! TO.N,SWDSWO*
X52400200Y-48869600D03*
G04 #@! TO.P,J1,5*
G04 #@! TO.N,~RESET*
X52400200Y-51409600D03*
G04 #@! TO.P,J1,4*
G04 #@! TO.N,SWDIO*
X52400200Y-53949600D03*
G04 #@! TO.P,J1,3*
G04 #@! TO.N,SWDCLK*
X52400200Y-56489600D03*
G04 #@! TO.P,J1,2*
G04 #@! TO.N,GND*
X52400200Y-59029600D03*
D23*
G04 #@! TO.P,J1,1*
G04 #@! TO.N,+3V3*
X52400200Y-61569600D03*
G04 #@! TD*
D22*
G04 #@! TO.P,J2,2*
G04 #@! TO.N,Net-(J2-Pad2)*
X105410000Y-122809000D03*
D23*
G04 #@! TO.P,J2,1*
G04 #@! TO.N,Net-(J2-Pad1)*
X107950000Y-122809000D03*
G04 #@! TD*
D24*
G04 #@! TO.P,J4,1*
G04 #@! TO.N,VBUS*
X130175000Y-108585000D03*
D25*
G04 #@! TO.P,J4,2*
G04 #@! TO.N,Net-(D1-Pad2)*
X130175000Y-104775000D03*
G04 #@! TD*
G04 #@! TO.P,J5,2*
G04 #@! TO.N,Net-(D3-Pad2)*
X130175000Y-117348000D03*
D24*
G04 #@! TO.P,J5,1*
G04 #@! TO.N,VBUS*
X130175000Y-121158000D03*
G04 #@! TD*
G04 #@! TO.P,J6,1*
G04 #@! TO.N,VBUS*
X130175000Y-69850000D03*
D25*
G04 #@! TO.P,J6,2*
G04 #@! TO.N,Net-(D5-Pad2)*
X130175000Y-66040000D03*
G04 #@! TD*
G04 #@! TO.P,J7,2*
G04 #@! TO.N,Net-(D7-Pad2)*
X130175000Y-92075000D03*
D24*
G04 #@! TO.P,J7,1*
G04 #@! TO.N,VBUS*
X130175000Y-95885000D03*
G04 #@! TD*
G04 #@! TO.P,J8,1*
G04 #@! TO.N,VBUS*
X56769000Y-66421000D03*
D25*
G04 #@! TO.P,J8,2*
G04 #@! TO.N,Net-(D9-Pad2)*
X56769000Y-70231000D03*
G04 #@! TD*
G04 #@! TO.P,J9,2*
G04 #@! TO.N,Net-(D11-Pad2)*
X56769000Y-95758000D03*
D24*
G04 #@! TO.P,J9,1*
G04 #@! TO.N,VBUS*
X56769000Y-91948000D03*
G04 #@! TD*
G04 #@! TO.P,J10,1*
G04 #@! TO.N,VBUS*
X56769000Y-117348000D03*
D25*
G04 #@! TO.P,J10,2*
G04 #@! TO.N,Net-(D13-Pad2)*
X56769000Y-121158000D03*
G04 #@! TD*
G04 #@! TO.P,J11,2*
G04 #@! TO.N,Net-(D15-Pad2)*
X56769000Y-108585000D03*
D24*
G04 #@! TO.P,J11,1*
G04 #@! TO.N,VBUS*
X56769000Y-104775000D03*
G04 #@! TD*
D25*
G04 #@! TO.P,J12,2*
G04 #@! TO.N,Net-(D19-Pad2)*
X130175000Y-79121000D03*
D24*
G04 #@! TO.P,J12,1*
G04 #@! TO.N,VBUS*
X130175000Y-82931000D03*
G04 #@! TD*
G04 #@! TO.P,J13,1*
G04 #@! TO.N,VBUS*
X56769000Y-79121000D03*
D25*
G04 #@! TO.P,J13,2*
G04 #@! TO.N,Net-(D20-Pad2)*
X56769000Y-82931000D03*
G04 #@! TD*
D26*
G04 #@! TO.P,JP1,2*
G04 #@! TO.N,Tx*
X106934000Y-87757000D03*
D27*
G04 #@! TO.P,JP1,3*
G04 #@! TO.N,Net-(J2-Pad2)*
X106934000Y-89057000D03*
D28*
G04 #@! TD*
G04 #@! TO.N,Net-(J2-Pad2)*
G04 #@! TO.C,JP1*
G36*
X107683398Y-89057000D02*
X107683398Y-89081534D01*
X107678588Y-89130365D01*
X107669016Y-89178490D01*
X107654772Y-89225445D01*
X107635995Y-89270778D01*
X107612864Y-89314051D01*
X107585604Y-89354850D01*
X107554476Y-89392779D01*
X107519779Y-89427476D01*
X107481850Y-89458604D01*
X107441051Y-89485864D01*
X107397778Y-89508995D01*
X107352445Y-89527772D01*
X107305490Y-89542016D01*
X107257365Y-89551588D01*
X107208534Y-89556398D01*
X107184000Y-89556398D01*
X107184000Y-89557000D01*
X106684000Y-89557000D01*
X106684000Y-89556398D01*
X106659466Y-89556398D01*
X106610635Y-89551588D01*
X106562510Y-89542016D01*
X106515555Y-89527772D01*
X106470222Y-89508995D01*
X106426949Y-89485864D01*
X106386150Y-89458604D01*
X106348221Y-89427476D01*
X106313524Y-89392779D01*
X106282396Y-89354850D01*
X106255136Y-89314051D01*
X106232005Y-89270778D01*
X106213228Y-89225445D01*
X106198984Y-89178490D01*
X106189412Y-89130365D01*
X106184602Y-89081534D01*
X106184602Y-89057000D01*
X106184000Y-89057000D01*
X106184000Y-88507000D01*
X107684000Y-88507000D01*
X107684000Y-89057000D01*
X107683398Y-89057000D01*
X107683398Y-89057000D01*
G37*
D27*
G04 #@! TO.P,JP1,1*
G04 #@! TO.N,Net-(H1-Pad39)*
X106934000Y-86457000D03*
D28*
G04 #@! TD*
G04 #@! TO.N,Net-(H1-Pad39)*
G04 #@! TO.C,JP1*
G36*
X106184000Y-87007000D02*
X106184000Y-86457000D01*
X106184602Y-86457000D01*
X106184602Y-86432466D01*
X106189412Y-86383635D01*
X106198984Y-86335510D01*
X106213228Y-86288555D01*
X106232005Y-86243222D01*
X106255136Y-86199949D01*
X106282396Y-86159150D01*
X106313524Y-86121221D01*
X106348221Y-86086524D01*
X106386150Y-86055396D01*
X106426949Y-86028136D01*
X106470222Y-86005005D01*
X106515555Y-85986228D01*
X106562510Y-85971984D01*
X106610635Y-85962412D01*
X106659466Y-85957602D01*
X106684000Y-85957602D01*
X106684000Y-85957000D01*
X107184000Y-85957000D01*
X107184000Y-85957602D01*
X107208534Y-85957602D01*
X107257365Y-85962412D01*
X107305490Y-85971984D01*
X107352445Y-85986228D01*
X107397778Y-86005005D01*
X107441051Y-86028136D01*
X107481850Y-86055396D01*
X107519779Y-86086524D01*
X107554476Y-86121221D01*
X107585604Y-86159150D01*
X107612864Y-86199949D01*
X107635995Y-86243222D01*
X107654772Y-86288555D01*
X107669016Y-86335510D01*
X107678588Y-86383635D01*
X107683398Y-86432466D01*
X107683398Y-86457000D01*
X107684000Y-86457000D01*
X107684000Y-87007000D01*
X106184000Y-87007000D01*
X106184000Y-87007000D01*
G37*
D27*
G04 #@! TO.P,JP2,1*
G04 #@! TO.N,Net-(H1-Pad40)*
X106934000Y-81377000D03*
D28*
G04 #@! TD*
G04 #@! TO.N,Net-(H1-Pad40)*
G04 #@! TO.C,JP2*
G36*
X106184000Y-81927000D02*
X106184000Y-81377000D01*
X106184602Y-81377000D01*
X106184602Y-81352466D01*
X106189412Y-81303635D01*
X106198984Y-81255510D01*
X106213228Y-81208555D01*
X106232005Y-81163222D01*
X106255136Y-81119949D01*
X106282396Y-81079150D01*
X106313524Y-81041221D01*
X106348221Y-81006524D01*
X106386150Y-80975396D01*
X106426949Y-80948136D01*
X106470222Y-80925005D01*
X106515555Y-80906228D01*
X106562510Y-80891984D01*
X106610635Y-80882412D01*
X106659466Y-80877602D01*
X106684000Y-80877602D01*
X106684000Y-80877000D01*
X107184000Y-80877000D01*
X107184000Y-80877602D01*
X107208534Y-80877602D01*
X107257365Y-80882412D01*
X107305490Y-80891984D01*
X107352445Y-80906228D01*
X107397778Y-80925005D01*
X107441051Y-80948136D01*
X107481850Y-80975396D01*
X107519779Y-81006524D01*
X107554476Y-81041221D01*
X107585604Y-81079150D01*
X107612864Y-81119949D01*
X107635995Y-81163222D01*
X107654772Y-81208555D01*
X107669016Y-81255510D01*
X107678588Y-81303635D01*
X107683398Y-81352466D01*
X107683398Y-81377000D01*
X107684000Y-81377000D01*
X107684000Y-81927000D01*
X106184000Y-81927000D01*
X106184000Y-81927000D01*
G37*
D27*
G04 #@! TO.P,JP2,3*
G04 #@! TO.N,Net-(J2-Pad1)*
X106934000Y-83977000D03*
D28*
G04 #@! TD*
G04 #@! TO.N,Net-(J2-Pad1)*
G04 #@! TO.C,JP2*
G36*
X107683398Y-83977000D02*
X107683398Y-84001534D01*
X107678588Y-84050365D01*
X107669016Y-84098490D01*
X107654772Y-84145445D01*
X107635995Y-84190778D01*
X107612864Y-84234051D01*
X107585604Y-84274850D01*
X107554476Y-84312779D01*
X107519779Y-84347476D01*
X107481850Y-84378604D01*
X107441051Y-84405864D01*
X107397778Y-84428995D01*
X107352445Y-84447772D01*
X107305490Y-84462016D01*
X107257365Y-84471588D01*
X107208534Y-84476398D01*
X107184000Y-84476398D01*
X107184000Y-84477000D01*
X106684000Y-84477000D01*
X106684000Y-84476398D01*
X106659466Y-84476398D01*
X106610635Y-84471588D01*
X106562510Y-84462016D01*
X106515555Y-84447772D01*
X106470222Y-84428995D01*
X106426949Y-84405864D01*
X106386150Y-84378604D01*
X106348221Y-84347476D01*
X106313524Y-84312779D01*
X106282396Y-84274850D01*
X106255136Y-84234051D01*
X106232005Y-84190778D01*
X106213228Y-84145445D01*
X106198984Y-84098490D01*
X106189412Y-84050365D01*
X106184602Y-84001534D01*
X106184602Y-83977000D01*
X106184000Y-83977000D01*
X106184000Y-83427000D01*
X107684000Y-83427000D01*
X107684000Y-83977000D01*
X107683398Y-83977000D01*
X107683398Y-83977000D01*
G37*
D26*
G04 #@! TO.P,JP2,2*
G04 #@! TO.N,Rx*
X106934000Y-82677000D03*
G04 #@! TD*
D29*
G04 #@! TO.P,JP3,1*
G04 #@! TO.N,Net-(H1-Pad47)*
X106426000Y-97040000D03*
G04 #@! TO.P,JP3,2*
G04 #@! TO.N,ADC0*
X106426000Y-98540000D03*
G04 #@! TD*
D30*
G04 #@! TO.P,L1,2*
G04 #@! TO.N,Net-(C14-Pad2)*
X99126000Y-100838000D03*
G04 #@! TO.P,L1,1*
G04 #@! TO.N,+3V3*
X101026000Y-100838000D03*
G04 #@! TD*
D31*
G04 #@! TO.P,LED1,1*
G04 #@! TO.N,Net-(D1-Pad2)*
X126784000Y-112268000D03*
G04 #@! TO.P,LED1,2*
G04 #@! TO.N,Net-(LED1-Pad2)*
X125184000Y-112268000D03*
G04 #@! TD*
G04 #@! TO.P,LED2,2*
G04 #@! TO.N,Net-(LED2-Pad2)*
X125565000Y-124968000D03*
G04 #@! TO.P,LED2,1*
G04 #@! TO.N,Net-(D3-Pad2)*
X127165000Y-124968000D03*
G04 #@! TD*
G04 #@! TO.P,LED3,2*
G04 #@! TO.N,Net-(LED3-Pad2)*
X124930000Y-73533000D03*
G04 #@! TO.P,LED3,1*
G04 #@! TO.N,Net-(D5-Pad2)*
X126530000Y-73533000D03*
G04 #@! TD*
G04 #@! TO.P,LED4,2*
G04 #@! TO.N,Net-(LED4-Pad2)*
X125311000Y-99695000D03*
G04 #@! TO.P,LED4,1*
G04 #@! TO.N,Net-(D7-Pad2)*
X126911000Y-99695000D03*
G04 #@! TD*
G04 #@! TO.P,LED5,2*
G04 #@! TO.N,Net-(LED5-Pad2)*
X62014000Y-62611000D03*
G04 #@! TO.P,LED5,1*
G04 #@! TO.N,Net-(D9-Pad2)*
X60414000Y-62611000D03*
G04 #@! TD*
G04 #@! TO.P,LED6,2*
G04 #@! TO.N,Net-(LED6-Pad2)*
X61887000Y-88392000D03*
G04 #@! TO.P,LED6,1*
G04 #@! TO.N,Net-(D11-Pad2)*
X60287000Y-88392000D03*
G04 #@! TD*
G04 #@! TO.P,LED7,1*
G04 #@! TO.N,Net-(D13-Pad2)*
X60033000Y-113792000D03*
G04 #@! TO.P,LED7,2*
G04 #@! TO.N,Net-(LED7-Pad2)*
X61633000Y-113792000D03*
G04 #@! TD*
G04 #@! TO.P,LED8,1*
G04 #@! TO.N,Net-(D15-Pad2)*
X60033000Y-101219000D03*
G04 #@! TO.P,LED8,2*
G04 #@! TO.N,Net-(LED8-Pad2)*
X61633000Y-101219000D03*
G04 #@! TD*
G04 #@! TO.P,LED9,1*
G04 #@! TO.N,Net-(LED9-Pad1)*
X76162000Y-45212000D03*
G04 #@! TO.P,LED9,2*
G04 #@! TO.N,+3V3*
X77762000Y-45212000D03*
G04 #@! TD*
G04 #@! TO.P,LED10,1*
G04 #@! TO.N,Net-(D19-Pad2)*
X126657000Y-86614000D03*
G04 #@! TO.P,LED10,2*
G04 #@! TO.N,Net-(LED10-Pad2)*
X125057000Y-86614000D03*
G04 #@! TD*
G04 #@! TO.P,LED11,1*
G04 #@! TO.N,Net-(D20-Pad2)*
X60414000Y-75438000D03*
G04 #@! TO.P,LED11,2*
G04 #@! TO.N,Net-(LED11-Pad2)*
X62014000Y-75438000D03*
G04 #@! TD*
D32*
G04 #@! TO.P,R1,2*
G04 #@! TO.N,VBUS*
X122186000Y-112268000D03*
G04 #@! TO.P,R1,1*
G04 #@! TO.N,Net-(LED1-Pad2)*
X123686000Y-112268000D03*
G04 #@! TD*
G04 #@! TO.P,R2,1*
G04 #@! TO.N,GNDPWR*
X118884000Y-107188000D03*
G04 #@! TO.P,R2,2*
G04 #@! TO.N,GateT1*
X120384000Y-107188000D03*
G04 #@! TD*
G04 #@! TO.P,R3,1*
G04 #@! TO.N,Net-(LED2-Pad2)*
X123940000Y-124968000D03*
G04 #@! TO.P,R3,2*
G04 #@! TO.N,VBUS*
X122440000Y-124968000D03*
G04 #@! TD*
G04 #@! TO.P,R4,2*
G04 #@! TO.N,GateT2*
X120257000Y-119761000D03*
G04 #@! TO.P,R4,1*
G04 #@! TO.N,GNDPWR*
X118757000Y-119761000D03*
G04 #@! TD*
G04 #@! TO.P,R5,2*
G04 #@! TO.N,VBUS*
X121805000Y-73533000D03*
G04 #@! TO.P,R5,1*
G04 #@! TO.N,Net-(LED3-Pad2)*
X123305000Y-73533000D03*
G04 #@! TD*
G04 #@! TO.P,R6,1*
G04 #@! TO.N,GNDPWR*
X118884000Y-68072000D03*
G04 #@! TO.P,R6,2*
G04 #@! TO.N,GateT3*
X120384000Y-68072000D03*
G04 #@! TD*
G04 #@! TO.P,R7,1*
G04 #@! TO.N,Net-(LED4-Pad2)*
X123686000Y-99695000D03*
G04 #@! TO.P,R7,2*
G04 #@! TO.N,VBUS*
X122186000Y-99695000D03*
G04 #@! TD*
G04 #@! TO.P,R8,2*
G04 #@! TO.N,GateT4*
X120384000Y-94361000D03*
G04 #@! TO.P,R8,1*
G04 #@! TO.N,GNDPWR*
X118884000Y-94361000D03*
G04 #@! TD*
G04 #@! TO.P,R9,2*
G04 #@! TO.N,VBUS*
X64885000Y-62611000D03*
G04 #@! TO.P,R9,1*
G04 #@! TO.N,Net-(LED5-Pad2)*
X63385000Y-62611000D03*
G04 #@! TD*
G04 #@! TO.P,R10,1*
G04 #@! TO.N,GNDPWR*
X68060000Y-68199000D03*
G04 #@! TO.P,R10,2*
G04 #@! TO.N,GateT5*
X66560000Y-68199000D03*
G04 #@! TD*
G04 #@! TO.P,R11,1*
G04 #@! TO.N,Net-(LED6-Pad2)*
X63258000Y-88392000D03*
G04 #@! TO.P,R11,2*
G04 #@! TO.N,VBUS*
X64758000Y-88392000D03*
G04 #@! TD*
G04 #@! TO.P,R12,2*
G04 #@! TO.N,GateT6*
X66540238Y-93452488D03*
G04 #@! TO.P,R12,1*
G04 #@! TO.N,GNDPWR*
X68040238Y-93452488D03*
G04 #@! TD*
G04 #@! TO.P,R13,2*
G04 #@! TO.N,VBUS*
X64504000Y-113792000D03*
G04 #@! TO.P,R13,1*
G04 #@! TO.N,Net-(LED7-Pad2)*
X63004000Y-113792000D03*
G04 #@! TD*
G04 #@! TO.P,R14,1*
G04 #@! TO.N,GNDPWR*
X68122620Y-119456583D03*
G04 #@! TO.P,R14,2*
G04 #@! TO.N,GateT7*
X66622620Y-119456583D03*
G04 #@! TD*
G04 #@! TO.P,R15,1*
G04 #@! TO.N,Net-(LED8-Pad2)*
X63004000Y-101219000D03*
G04 #@! TO.P,R15,2*
G04 #@! TO.N,VBUS*
X64504000Y-101219000D03*
G04 #@! TD*
G04 #@! TO.P,R16,2*
G04 #@! TO.N,GateT8*
X66598866Y-106530810D03*
G04 #@! TO.P,R16,1*
G04 #@! TO.N,GNDPWR*
X68098866Y-106530810D03*
G04 #@! TD*
G04 #@! TO.P,R17,1*
G04 #@! TO.N,Net-(R17-Pad1)*
X111875000Y-114046000D03*
G04 #@! TO.P,R17,2*
G04 #@! TO.N,In1*
X110375000Y-114046000D03*
G04 #@! TD*
G04 #@! TO.P,R18,1*
G04 #@! TO.N,Net-(R18-Pad1)*
X111875000Y-126492000D03*
G04 #@! TO.P,R18,2*
G04 #@! TO.N,In2*
X110375000Y-126492000D03*
G04 #@! TD*
G04 #@! TO.P,R19,1*
G04 #@! TO.N,Net-(R19-Pad1)*
X112764000Y-74803000D03*
G04 #@! TO.P,R19,2*
G04 #@! TO.N,In3*
X111264000Y-74803000D03*
G04 #@! TD*
G04 #@! TO.P,R20,2*
G04 #@! TO.N,In4*
X110375000Y-101219000D03*
G04 #@! TO.P,R20,1*
G04 #@! TO.N,Net-(R20-Pad1)*
X111875000Y-101219000D03*
G04 #@! TD*
G04 #@! TO.P,R21,1*
G04 #@! TO.N,Net-(R21-Pad1)*
X75450000Y-62865000D03*
G04 #@! TO.P,R21,2*
G04 #@! TO.N,In5*
X76950000Y-62865000D03*
G04 #@! TD*
G04 #@! TO.P,R22,2*
G04 #@! TO.N,In6*
X76950000Y-88265000D03*
G04 #@! TO.P,R22,1*
G04 #@! TO.N,Net-(R22-Pad1)*
X75450000Y-88265000D03*
G04 #@! TD*
G04 #@! TO.P,R23,2*
G04 #@! TO.N,In7*
X76950000Y-113030000D03*
G04 #@! TO.P,R23,1*
G04 #@! TO.N,Net-(R23-Pad1)*
X75450000Y-113030000D03*
G04 #@! TD*
G04 #@! TO.P,R24,1*
G04 #@! TO.N,Net-(R24-Pad1)*
X75450000Y-100711000D03*
G04 #@! TO.P,R24,2*
G04 #@! TO.N,In8*
X76950000Y-100711000D03*
G04 #@! TD*
D33*
G04 #@! TO.P,R25,1*
G04 #@! TO.N,Net-(C5-Pad2)*
X91059000Y-68654000D03*
G04 #@! TO.P,R25,2*
G04 #@! TO.N,CANH*
X91059000Y-71554000D03*
G04 #@! TD*
G04 #@! TO.P,R26,2*
G04 #@! TO.N,Net-(C5-Pad2)*
X93599000Y-68654000D03*
G04 #@! TO.P,R26,1*
G04 #@! TO.N,CANL*
X93599000Y-71554000D03*
G04 #@! TD*
D32*
G04 #@! TO.P,R27,2*
G04 #@! TO.N,Net-(R27-Pad2)*
X72910000Y-45212000D03*
G04 #@! TO.P,R27,1*
G04 #@! TO.N,Net-(LED9-Pad1)*
X74410000Y-45212000D03*
G04 #@! TD*
G04 #@! TO.P,R28,2*
G04 #@! TO.N,VBUS*
X122059000Y-86614000D03*
G04 #@! TO.P,R28,1*
G04 #@! TO.N,Net-(LED10-Pad2)*
X123559000Y-86614000D03*
G04 #@! TD*
G04 #@! TO.P,R29,2*
G04 #@! TO.N,VBUS*
X65012000Y-75438000D03*
G04 #@! TO.P,R29,1*
G04 #@! TO.N,Net-(LED11-Pad2)*
X63512000Y-75438000D03*
G04 #@! TD*
G04 #@! TO.P,R30,1*
G04 #@! TO.N,GNDPWR*
X118872000Y-81153000D03*
G04 #@! TO.P,R30,2*
G04 #@! TO.N,GateT9*
X120372000Y-81153000D03*
G04 #@! TD*
G04 #@! TO.P,R31,1*
G04 #@! TO.N,GNDPWR*
X68037985Y-80439617D03*
G04 #@! TO.P,R31,2*
G04 #@! TO.N,GateT10*
X66537985Y-80439617D03*
G04 #@! TD*
G04 #@! TO.P,R32,2*
G04 #@! TO.N,In9*
X111391000Y-88138000D03*
G04 #@! TO.P,R32,1*
G04 #@! TO.N,Net-(R32-Pad1)*
X112891000Y-88138000D03*
G04 #@! TD*
G04 #@! TO.P,R33,1*
G04 #@! TO.N,Net-(R33-Pad1)*
X75450000Y-75311000D03*
G04 #@! TO.P,R33,2*
G04 #@! TO.N,In10*
X76950000Y-75311000D03*
G04 #@! TD*
D34*
G04 #@! TO.P,T1,6*
G04 #@! TO.N,Net-(D1-Pad2)*
X124267000Y-105821000D03*
G04 #@! TO.P,T1,5*
X123317000Y-105821000D03*
G04 #@! TO.P,T1,4*
G04 #@! TO.N,GNDPWR*
X122367000Y-105821000D03*
G04 #@! TO.P,T1,3*
G04 #@! TO.N,GateT1*
X122367000Y-103221000D03*
G04 #@! TO.P,T1,2*
G04 #@! TO.N,Net-(D1-Pad2)*
X123317000Y-103221000D03*
G04 #@! TO.P,T1,1*
X124267000Y-103221000D03*
G04 #@! TD*
G04 #@! TO.P,T2,1*
G04 #@! TO.N,Net-(D3-Pad2)*
X124140000Y-115637000D03*
G04 #@! TO.P,T2,2*
X123190000Y-115637000D03*
G04 #@! TO.P,T2,3*
G04 #@! TO.N,GateT2*
X122240000Y-115637000D03*
G04 #@! TO.P,T2,4*
G04 #@! TO.N,GNDPWR*
X122240000Y-118237000D03*
G04 #@! TO.P,T2,5*
G04 #@! TO.N,Net-(D3-Pad2)*
X123190000Y-118237000D03*
G04 #@! TO.P,T2,6*
X124140000Y-118237000D03*
G04 #@! TD*
G04 #@! TO.P,T3,1*
G04 #@! TO.N,Net-(D5-Pad2)*
X124267000Y-64232000D03*
G04 #@! TO.P,T3,2*
X123317000Y-64232000D03*
G04 #@! TO.P,T3,3*
G04 #@! TO.N,GateT3*
X122367000Y-64232000D03*
G04 #@! TO.P,T3,4*
G04 #@! TO.N,GNDPWR*
X122367000Y-66832000D03*
G04 #@! TO.P,T3,5*
G04 #@! TO.N,Net-(D5-Pad2)*
X123317000Y-66832000D03*
G04 #@! TO.P,T3,6*
X124267000Y-66832000D03*
G04 #@! TD*
G04 #@! TO.P,T4,6*
G04 #@! TO.N,Net-(D7-Pad2)*
X124267000Y-92994000D03*
G04 #@! TO.P,T4,5*
X123317000Y-92994000D03*
G04 #@! TO.P,T4,4*
G04 #@! TO.N,GNDPWR*
X122367000Y-92994000D03*
G04 #@! TO.P,T4,3*
G04 #@! TO.N,GateT4*
X122367000Y-90394000D03*
G04 #@! TO.P,T4,2*
G04 #@! TO.N,Net-(D7-Pad2)*
X123317000Y-90394000D03*
G04 #@! TO.P,T4,1*
X124267000Y-90394000D03*
G04 #@! TD*
G04 #@! TO.P,T5,6*
G04 #@! TO.N,Net-(D9-Pad2)*
X62677000Y-69312000D03*
G04 #@! TO.P,T5,5*
X63627000Y-69312000D03*
G04 #@! TO.P,T5,4*
G04 #@! TO.N,GNDPWR*
X64577000Y-69312000D03*
G04 #@! TO.P,T5,3*
G04 #@! TO.N,GateT5*
X64577000Y-71912000D03*
G04 #@! TO.P,T5,2*
G04 #@! TO.N,Net-(D9-Pad2)*
X63627000Y-71912000D03*
G04 #@! TO.P,T5,1*
X62677000Y-71912000D03*
G04 #@! TD*
G04 #@! TO.P,T6,1*
G04 #@! TO.N,Net-(D11-Pad2)*
X62677000Y-97312000D03*
G04 #@! TO.P,T6,2*
X63627000Y-97312000D03*
G04 #@! TO.P,T6,3*
G04 #@! TO.N,GateT6*
X64577000Y-97312000D03*
G04 #@! TO.P,T6,4*
G04 #@! TO.N,GNDPWR*
X64577000Y-94712000D03*
G04 #@! TO.P,T6,5*
G04 #@! TO.N,Net-(D11-Pad2)*
X63627000Y-94712000D03*
G04 #@! TO.P,T6,6*
X62677000Y-94712000D03*
G04 #@! TD*
G04 #@! TO.P,T7,1*
G04 #@! TO.N,Net-(D13-Pad2)*
X62677000Y-123220000D03*
G04 #@! TO.P,T7,2*
X63627000Y-123220000D03*
G04 #@! TO.P,T7,3*
G04 #@! TO.N,GateT7*
X64577000Y-123220000D03*
G04 #@! TO.P,T7,4*
G04 #@! TO.N,GNDPWR*
X64577000Y-120620000D03*
G04 #@! TO.P,T7,5*
G04 #@! TO.N,Net-(D13-Pad2)*
X63627000Y-120620000D03*
G04 #@! TO.P,T7,6*
X62677000Y-120620000D03*
G04 #@! TD*
G04 #@! TO.P,T8,6*
G04 #@! TO.N,Net-(D15-Pad2)*
X62677000Y-107793000D03*
G04 #@! TO.P,T8,5*
X63627000Y-107793000D03*
G04 #@! TO.P,T8,4*
G04 #@! TO.N,GNDPWR*
X64577000Y-107793000D03*
G04 #@! TO.P,T8,3*
G04 #@! TO.N,GateT8*
X64577000Y-110393000D03*
G04 #@! TO.P,T8,2*
G04 #@! TO.N,Net-(D15-Pad2)*
X63627000Y-110393000D03*
G04 #@! TO.P,T8,1*
X62677000Y-110393000D03*
G04 #@! TD*
G04 #@! TO.P,T9,1*
G04 #@! TO.N,Net-(D19-Pad2)*
X124267000Y-77313000D03*
G04 #@! TO.P,T9,2*
X123317000Y-77313000D03*
G04 #@! TO.P,T9,3*
G04 #@! TO.N,GateT9*
X122367000Y-77313000D03*
G04 #@! TO.P,T9,4*
G04 #@! TO.N,GNDPWR*
X122367000Y-79913000D03*
G04 #@! TO.P,T9,5*
G04 #@! TO.N,Net-(D19-Pad2)*
X123317000Y-79913000D03*
G04 #@! TO.P,T9,6*
X124267000Y-79913000D03*
G04 #@! TD*
G04 #@! TO.P,T10,6*
G04 #@! TO.N,Net-(D20-Pad2)*
X62677000Y-81758000D03*
G04 #@! TO.P,T10,5*
X63627000Y-81758000D03*
G04 #@! TO.P,T10,4*
G04 #@! TO.N,GNDPWR*
X64577000Y-81758000D03*
G04 #@! TO.P,T10,3*
G04 #@! TO.N,GateT10*
X64577000Y-84358000D03*
G04 #@! TO.P,T10,2*
G04 #@! TO.N,Net-(D20-Pad2)*
X63627000Y-84358000D03*
G04 #@! TO.P,T10,1*
X62677000Y-84358000D03*
G04 #@! TD*
D35*
G04 #@! TO.P,U9,8*
G04 #@! TO.N,Net-(U10-Pad25)*
X91349000Y-73322000D03*
G04 #@! TO.P,U9,7*
G04 #@! TO.N,CANH*
X91999000Y-73322000D03*
G04 #@! TO.P,U9,6*
G04 #@! TO.N,CANL*
X92659000Y-73322000D03*
G04 #@! TO.P,U9,5*
G04 #@! TO.N,Net-(U10-Pad26)*
X93309000Y-73322000D03*
G04 #@! TO.P,U9,4*
G04 #@! TO.N,Net-(U10-Pad45)*
X93309000Y-75522000D03*
G04 #@! TO.P,U9,3*
G04 #@! TO.N,+3V3*
X92659000Y-75522000D03*
G04 #@! TO.P,U9,2*
G04 #@! TO.N,GND*
X91999000Y-75522000D03*
G04 #@! TO.P,U9,1*
G04 #@! TO.N,Net-(U10-Pad46)*
X91349000Y-75522000D03*
G04 #@! TD*
D36*
G04 #@! TO.P,U10,1*
G04 #@! TO.N,VBACKUP*
X90595000Y-99473000D03*
G04 #@! TO.P,U10,2*
G04 #@! TO.N,In8*
X91095000Y-99473000D03*
G04 #@! TO.P,U10,3*
G04 #@! TO.N,Net-(U10-Pad3)*
X91595000Y-99473000D03*
G04 #@! TO.P,U10,4*
G04 #@! TO.N,Net-(U10-Pad4)*
X92095000Y-99473000D03*
G04 #@! TO.P,U10,5*
G04 #@! TO.N,Net-(C8-Pad1)*
X92595000Y-99473000D03*
G04 #@! TO.P,U10,6*
G04 #@! TO.N,Net-(C7-Pad2)*
X93095000Y-99473000D03*
G04 #@! TO.P,U10,7*
G04 #@! TO.N,~RESET*
X93595000Y-99473000D03*
G04 #@! TO.P,U10,8*
G04 #@! TO.N,GND*
X94095000Y-99473000D03*
G04 #@! TO.P,U10,9*
G04 #@! TO.N,Net-(C14-Pad2)*
X94595000Y-99473000D03*
G04 #@! TO.P,U10,10*
G04 #@! TO.N,Net-(R27-Pad2)*
X95095000Y-99473000D03*
G04 #@! TO.P,U10,11*
G04 #@! TO.N,ADC0*
X95595000Y-99473000D03*
G04 #@! TO.P,U10,12*
G04 #@! TO.N,Net-(U10-Pad12)*
X96095000Y-99473000D03*
D37*
G04 #@! TO.P,U10,13*
G04 #@! TO.N,In10*
X97695000Y-97873000D03*
G04 #@! TO.P,U10,14*
G04 #@! TO.N,ADC1*
X97695000Y-97373000D03*
G04 #@! TO.P,U10,15*
G04 #@! TO.N,Net-(U10-Pad15)*
X97695000Y-96873000D03*
G04 #@! TO.P,U10,16*
G04 #@! TO.N,Net-(U10-Pad16)*
X97695000Y-96373000D03*
G04 #@! TO.P,U10,17*
G04 #@! TO.N,Net-(U10-Pad17)*
X97695000Y-95873000D03*
G04 #@! TO.P,U10,18*
G04 #@! TO.N,In9*
X97695000Y-95373000D03*
G04 #@! TO.P,U10,19*
G04 #@! TO.N,Net-(U10-Pad19)*
X97695000Y-94873000D03*
G04 #@! TO.P,U10,20*
G04 #@! TO.N,Net-(U10-Pad20)*
X97695000Y-94373000D03*
G04 #@! TO.P,U10,21*
G04 #@! TO.N,Tx*
X97695000Y-93873000D03*
G04 #@! TO.P,U10,22*
G04 #@! TO.N,Rx*
X97695000Y-93373000D03*
G04 #@! TO.P,U10,23*
G04 #@! TO.N,GND*
X97695000Y-92873000D03*
G04 #@! TO.P,U10,24*
G04 #@! TO.N,+3V3*
X97695000Y-92373000D03*
D36*
G04 #@! TO.P,U10,25*
G04 #@! TO.N,Net-(U10-Pad25)*
X96095000Y-90773000D03*
G04 #@! TO.P,U10,26*
G04 #@! TO.N,Net-(U10-Pad26)*
X95595000Y-90773000D03*
G04 #@! TO.P,U10,27*
G04 #@! TO.N,In1*
X95095000Y-90773000D03*
G04 #@! TO.P,U10,28*
G04 #@! TO.N,In2*
X94595000Y-90773000D03*
G04 #@! TO.P,U10,29*
G04 #@! TO.N,In5*
X94095000Y-90773000D03*
G04 #@! TO.P,U10,30*
G04 #@! TO.N,In4*
X93595000Y-90773000D03*
G04 #@! TO.P,U10,31*
G04 #@! TO.N,In3*
X93095000Y-90773000D03*
G04 #@! TO.P,U10,32*
G04 #@! TO.N,In7*
X92595000Y-90773000D03*
G04 #@! TO.P,U10,33*
G04 #@! TO.N,In6*
X92095000Y-90773000D03*
G04 #@! TO.P,U10,34*
G04 #@! TO.N,SWDIO*
X91595000Y-90773000D03*
G04 #@! TO.P,U10,35*
G04 #@! TO.N,GND*
X91095000Y-90773000D03*
G04 #@! TO.P,U10,36*
G04 #@! TO.N,+3V3*
X90595000Y-90773000D03*
D37*
G04 #@! TO.P,U10,37*
G04 #@! TO.N,SWDCLK*
X88995000Y-92373000D03*
G04 #@! TO.P,U10,38*
G04 #@! TO.N,Net-(U10-Pad38)*
X88995000Y-92873000D03*
G04 #@! TO.P,U10,39*
G04 #@! TO.N,SWDSWO*
X88995000Y-93373000D03*
G04 #@! TO.P,U10,40*
G04 #@! TO.N,GPIO1*
X88995000Y-93873000D03*
G04 #@! TO.P,U10,41*
G04 #@! TO.N,GPIO2*
X88995000Y-94373000D03*
G04 #@! TO.P,U10,42*
G04 #@! TO.N,GPIO3*
X88995000Y-94873000D03*
G04 #@! TO.P,U10,43*
G04 #@! TO.N,GPIO4*
X88995000Y-95373000D03*
G04 #@! TO.P,U10,44*
G04 #@! TO.N,GND*
X88995000Y-95873000D03*
G04 #@! TO.P,U10,45*
G04 #@! TO.N,Net-(U10-Pad45)*
X88995000Y-96373000D03*
G04 #@! TO.P,U10,46*
G04 #@! TO.N,Net-(U10-Pad46)*
X88995000Y-96873000D03*
G04 #@! TO.P,U10,47*
G04 #@! TO.N,GND*
X88995000Y-97373000D03*
G04 #@! TO.P,U10,48*
G04 #@! TO.N,+3V3*
X88995000Y-97873000D03*
G04 #@! TD*
D38*
G04 #@! TO.P,J3,1*
G04 #@! TO.N,VBUS*
X92992000Y-122682000D03*
D39*
G04 #@! TO.P,J3,2*
G04 #@! TO.N,GNDPWR*
X96492000Y-122682000D03*
G04 #@! TD*
D28*
G04 #@! TO.N,ADC1*
G04 #@! TO.C,JP5*
G36*
X129563691Y-53564053D02*
X129584926Y-53567203D01*
X129605750Y-53572419D01*
X129625962Y-53579651D01*
X129645368Y-53588830D01*
X129663781Y-53599866D01*
X129681024Y-53612654D01*
X129696930Y-53627070D01*
X129711346Y-53642976D01*
X129724134Y-53660219D01*
X129735170Y-53678632D01*
X129744349Y-53698038D01*
X129751581Y-53718250D01*
X129756797Y-53739074D01*
X129759947Y-53760309D01*
X129761000Y-53781750D01*
X129761000Y-54219250D01*
X129759947Y-54240691D01*
X129756797Y-54261926D01*
X129751581Y-54282750D01*
X129744349Y-54302962D01*
X129735170Y-54322368D01*
X129724134Y-54340781D01*
X129711346Y-54358024D01*
X129696930Y-54373930D01*
X129681024Y-54388346D01*
X129663781Y-54401134D01*
X129645368Y-54412170D01*
X129625962Y-54421349D01*
X129605750Y-54428581D01*
X129584926Y-54433797D01*
X129563691Y-54436947D01*
X129542250Y-54438000D01*
X129029750Y-54438000D01*
X129008309Y-54436947D01*
X128987074Y-54433797D01*
X128966250Y-54428581D01*
X128946038Y-54421349D01*
X128926632Y-54412170D01*
X128908219Y-54401134D01*
X128890976Y-54388346D01*
X128875070Y-54373930D01*
X128860654Y-54358024D01*
X128847866Y-54340781D01*
X128836830Y-54322368D01*
X128827651Y-54302962D01*
X128820419Y-54282750D01*
X128815203Y-54261926D01*
X128812053Y-54240691D01*
X128811000Y-54219250D01*
X128811000Y-53781750D01*
X128812053Y-53760309D01*
X128815203Y-53739074D01*
X128820419Y-53718250D01*
X128827651Y-53698038D01*
X128836830Y-53678632D01*
X128847866Y-53660219D01*
X128860654Y-53642976D01*
X128875070Y-53627070D01*
X128890976Y-53612654D01*
X128908219Y-53599866D01*
X128926632Y-53588830D01*
X128946038Y-53579651D01*
X128966250Y-53572419D01*
X128987074Y-53567203D01*
X129008309Y-53564053D01*
X129029750Y-53563000D01*
X129542250Y-53563000D01*
X129563691Y-53564053D01*
X129563691Y-53564053D01*
G37*
D40*
G04 #@! TD*
G04 #@! TO.P,JP5,2*
G04 #@! TO.N,ADC1*
X129286000Y-54000500D03*
D28*
G04 #@! TO.N,Net-(H1-Pad49)*
G04 #@! TO.C,JP5*
G36*
X129563691Y-51989053D02*
X129584926Y-51992203D01*
X129605750Y-51997419D01*
X129625962Y-52004651D01*
X129645368Y-52013830D01*
X129663781Y-52024866D01*
X129681024Y-52037654D01*
X129696930Y-52052070D01*
X129711346Y-52067976D01*
X129724134Y-52085219D01*
X129735170Y-52103632D01*
X129744349Y-52123038D01*
X129751581Y-52143250D01*
X129756797Y-52164074D01*
X129759947Y-52185309D01*
X129761000Y-52206750D01*
X129761000Y-52644250D01*
X129759947Y-52665691D01*
X129756797Y-52686926D01*
X129751581Y-52707750D01*
X129744349Y-52727962D01*
X129735170Y-52747368D01*
X129724134Y-52765781D01*
X129711346Y-52783024D01*
X129696930Y-52798930D01*
X129681024Y-52813346D01*
X129663781Y-52826134D01*
X129645368Y-52837170D01*
X129625962Y-52846349D01*
X129605750Y-52853581D01*
X129584926Y-52858797D01*
X129563691Y-52861947D01*
X129542250Y-52863000D01*
X129029750Y-52863000D01*
X129008309Y-52861947D01*
X128987074Y-52858797D01*
X128966250Y-52853581D01*
X128946038Y-52846349D01*
X128926632Y-52837170D01*
X128908219Y-52826134D01*
X128890976Y-52813346D01*
X128875070Y-52798930D01*
X128860654Y-52783024D01*
X128847866Y-52765781D01*
X128836830Y-52747368D01*
X128827651Y-52727962D01*
X128820419Y-52707750D01*
X128815203Y-52686926D01*
X128812053Y-52665691D01*
X128811000Y-52644250D01*
X128811000Y-52206750D01*
X128812053Y-52185309D01*
X128815203Y-52164074D01*
X128820419Y-52143250D01*
X128827651Y-52123038D01*
X128836830Y-52103632D01*
X128847866Y-52085219D01*
X128860654Y-52067976D01*
X128875070Y-52052070D01*
X128890976Y-52037654D01*
X128908219Y-52024866D01*
X128926632Y-52013830D01*
X128946038Y-52004651D01*
X128966250Y-51997419D01*
X128987074Y-51992203D01*
X129008309Y-51989053D01*
X129029750Y-51988000D01*
X129542250Y-51988000D01*
X129563691Y-51989053D01*
X129563691Y-51989053D01*
G37*
D40*
G04 #@! TD*
G04 #@! TO.P,JP5,1*
G04 #@! TO.N,Net-(H1-Pad49)*
X129286000Y-52425500D03*
D28*
G04 #@! TO.N,Net-(H1-Pad13)*
G04 #@! TO.C,JP9*
G36*
X82573691Y-61514053D02*
X82594926Y-61517203D01*
X82615750Y-61522419D01*
X82635962Y-61529651D01*
X82655368Y-61538830D01*
X82673781Y-61549866D01*
X82691024Y-61562654D01*
X82706930Y-61577070D01*
X82721346Y-61592976D01*
X82734134Y-61610219D01*
X82745170Y-61628632D01*
X82754349Y-61648038D01*
X82761581Y-61668250D01*
X82766797Y-61689074D01*
X82769947Y-61710309D01*
X82771000Y-61731750D01*
X82771000Y-62169250D01*
X82769947Y-62190691D01*
X82766797Y-62211926D01*
X82761581Y-62232750D01*
X82754349Y-62252962D01*
X82745170Y-62272368D01*
X82734134Y-62290781D01*
X82721346Y-62308024D01*
X82706930Y-62323930D01*
X82691024Y-62338346D01*
X82673781Y-62351134D01*
X82655368Y-62362170D01*
X82635962Y-62371349D01*
X82615750Y-62378581D01*
X82594926Y-62383797D01*
X82573691Y-62386947D01*
X82552250Y-62388000D01*
X82039750Y-62388000D01*
X82018309Y-62386947D01*
X81997074Y-62383797D01*
X81976250Y-62378581D01*
X81956038Y-62371349D01*
X81936632Y-62362170D01*
X81918219Y-62351134D01*
X81900976Y-62338346D01*
X81885070Y-62323930D01*
X81870654Y-62308024D01*
X81857866Y-62290781D01*
X81846830Y-62272368D01*
X81837651Y-62252962D01*
X81830419Y-62232750D01*
X81825203Y-62211926D01*
X81822053Y-62190691D01*
X81821000Y-62169250D01*
X81821000Y-61731750D01*
X81822053Y-61710309D01*
X81825203Y-61689074D01*
X81830419Y-61668250D01*
X81837651Y-61648038D01*
X81846830Y-61628632D01*
X81857866Y-61610219D01*
X81870654Y-61592976D01*
X81885070Y-61577070D01*
X81900976Y-61562654D01*
X81918219Y-61549866D01*
X81936632Y-61538830D01*
X81956038Y-61529651D01*
X81976250Y-61522419D01*
X81997074Y-61517203D01*
X82018309Y-61514053D01*
X82039750Y-61513000D01*
X82552250Y-61513000D01*
X82573691Y-61514053D01*
X82573691Y-61514053D01*
G37*
D40*
G04 #@! TD*
G04 #@! TO.P,JP9,1*
G04 #@! TO.N,Net-(H1-Pad13)*
X82296000Y-61950500D03*
D28*
G04 #@! TO.N,GPIO1*
G04 #@! TO.C,JP9*
G36*
X82573691Y-63089053D02*
X82594926Y-63092203D01*
X82615750Y-63097419D01*
X82635962Y-63104651D01*
X82655368Y-63113830D01*
X82673781Y-63124866D01*
X82691024Y-63137654D01*
X82706930Y-63152070D01*
X82721346Y-63167976D01*
X82734134Y-63185219D01*
X82745170Y-63203632D01*
X82754349Y-63223038D01*
X82761581Y-63243250D01*
X82766797Y-63264074D01*
X82769947Y-63285309D01*
X82771000Y-63306750D01*
X82771000Y-63744250D01*
X82769947Y-63765691D01*
X82766797Y-63786926D01*
X82761581Y-63807750D01*
X82754349Y-63827962D01*
X82745170Y-63847368D01*
X82734134Y-63865781D01*
X82721346Y-63883024D01*
X82706930Y-63898930D01*
X82691024Y-63913346D01*
X82673781Y-63926134D01*
X82655368Y-63937170D01*
X82635962Y-63946349D01*
X82615750Y-63953581D01*
X82594926Y-63958797D01*
X82573691Y-63961947D01*
X82552250Y-63963000D01*
X82039750Y-63963000D01*
X82018309Y-63961947D01*
X81997074Y-63958797D01*
X81976250Y-63953581D01*
X81956038Y-63946349D01*
X81936632Y-63937170D01*
X81918219Y-63926134D01*
X81900976Y-63913346D01*
X81885070Y-63898930D01*
X81870654Y-63883024D01*
X81857866Y-63865781D01*
X81846830Y-63847368D01*
X81837651Y-63827962D01*
X81830419Y-63807750D01*
X81825203Y-63786926D01*
X81822053Y-63765691D01*
X81821000Y-63744250D01*
X81821000Y-63306750D01*
X81822053Y-63285309D01*
X81825203Y-63264074D01*
X81830419Y-63243250D01*
X81837651Y-63223038D01*
X81846830Y-63203632D01*
X81857866Y-63185219D01*
X81870654Y-63167976D01*
X81885070Y-63152070D01*
X81900976Y-63137654D01*
X81918219Y-63124866D01*
X81936632Y-63113830D01*
X81956038Y-63104651D01*
X81976250Y-63097419D01*
X81997074Y-63092203D01*
X82018309Y-63089053D01*
X82039750Y-63088000D01*
X82552250Y-63088000D01*
X82573691Y-63089053D01*
X82573691Y-63089053D01*
G37*
D40*
G04 #@! TD*
G04 #@! TO.P,JP9,2*
G04 #@! TO.N,GPIO1*
X82296000Y-63525500D03*
D28*
G04 #@! TO.N,GPIO2*
G04 #@! TO.C,JP10*
G36*
X80033691Y-67534053D02*
X80054926Y-67537203D01*
X80075750Y-67542419D01*
X80095962Y-67549651D01*
X80115368Y-67558830D01*
X80133781Y-67569866D01*
X80151024Y-67582654D01*
X80166930Y-67597070D01*
X80181346Y-67612976D01*
X80194134Y-67630219D01*
X80205170Y-67648632D01*
X80214349Y-67668038D01*
X80221581Y-67688250D01*
X80226797Y-67709074D01*
X80229947Y-67730309D01*
X80231000Y-67751750D01*
X80231000Y-68189250D01*
X80229947Y-68210691D01*
X80226797Y-68231926D01*
X80221581Y-68252750D01*
X80214349Y-68272962D01*
X80205170Y-68292368D01*
X80194134Y-68310781D01*
X80181346Y-68328024D01*
X80166930Y-68343930D01*
X80151024Y-68358346D01*
X80133781Y-68371134D01*
X80115368Y-68382170D01*
X80095962Y-68391349D01*
X80075750Y-68398581D01*
X80054926Y-68403797D01*
X80033691Y-68406947D01*
X80012250Y-68408000D01*
X79499750Y-68408000D01*
X79478309Y-68406947D01*
X79457074Y-68403797D01*
X79436250Y-68398581D01*
X79416038Y-68391349D01*
X79396632Y-68382170D01*
X79378219Y-68371134D01*
X79360976Y-68358346D01*
X79345070Y-68343930D01*
X79330654Y-68328024D01*
X79317866Y-68310781D01*
X79306830Y-68292368D01*
X79297651Y-68272962D01*
X79290419Y-68252750D01*
X79285203Y-68231926D01*
X79282053Y-68210691D01*
X79281000Y-68189250D01*
X79281000Y-67751750D01*
X79282053Y-67730309D01*
X79285203Y-67709074D01*
X79290419Y-67688250D01*
X79297651Y-67668038D01*
X79306830Y-67648632D01*
X79317866Y-67630219D01*
X79330654Y-67612976D01*
X79345070Y-67597070D01*
X79360976Y-67582654D01*
X79378219Y-67569866D01*
X79396632Y-67558830D01*
X79416038Y-67549651D01*
X79436250Y-67542419D01*
X79457074Y-67537203D01*
X79478309Y-67534053D01*
X79499750Y-67533000D01*
X80012250Y-67533000D01*
X80033691Y-67534053D01*
X80033691Y-67534053D01*
G37*
D40*
G04 #@! TD*
G04 #@! TO.P,JP10,2*
G04 #@! TO.N,GPIO2*
X79756000Y-67970500D03*
D28*
G04 #@! TO.N,Net-(H1-Pad14)*
G04 #@! TO.C,JP10*
G36*
X80033691Y-65959053D02*
X80054926Y-65962203D01*
X80075750Y-65967419D01*
X80095962Y-65974651D01*
X80115368Y-65983830D01*
X80133781Y-65994866D01*
X80151024Y-66007654D01*
X80166930Y-66022070D01*
X80181346Y-66037976D01*
X80194134Y-66055219D01*
X80205170Y-66073632D01*
X80214349Y-66093038D01*
X80221581Y-66113250D01*
X80226797Y-66134074D01*
X80229947Y-66155309D01*
X80231000Y-66176750D01*
X80231000Y-66614250D01*
X80229947Y-66635691D01*
X80226797Y-66656926D01*
X80221581Y-66677750D01*
X80214349Y-66697962D01*
X80205170Y-66717368D01*
X80194134Y-66735781D01*
X80181346Y-66753024D01*
X80166930Y-66768930D01*
X80151024Y-66783346D01*
X80133781Y-66796134D01*
X80115368Y-66807170D01*
X80095962Y-66816349D01*
X80075750Y-66823581D01*
X80054926Y-66828797D01*
X80033691Y-66831947D01*
X80012250Y-66833000D01*
X79499750Y-66833000D01*
X79478309Y-66831947D01*
X79457074Y-66828797D01*
X79436250Y-66823581D01*
X79416038Y-66816349D01*
X79396632Y-66807170D01*
X79378219Y-66796134D01*
X79360976Y-66783346D01*
X79345070Y-66768930D01*
X79330654Y-66753024D01*
X79317866Y-66735781D01*
X79306830Y-66717368D01*
X79297651Y-66697962D01*
X79290419Y-66677750D01*
X79285203Y-66656926D01*
X79282053Y-66635691D01*
X79281000Y-66614250D01*
X79281000Y-66176750D01*
X79282053Y-66155309D01*
X79285203Y-66134074D01*
X79290419Y-66113250D01*
X79297651Y-66093038D01*
X79306830Y-66073632D01*
X79317866Y-66055219D01*
X79330654Y-66037976D01*
X79345070Y-66022070D01*
X79360976Y-66007654D01*
X79378219Y-65994866D01*
X79396632Y-65983830D01*
X79416038Y-65974651D01*
X79436250Y-65967419D01*
X79457074Y-65962203D01*
X79478309Y-65959053D01*
X79499750Y-65958000D01*
X80012250Y-65958000D01*
X80033691Y-65959053D01*
X80033691Y-65959053D01*
G37*
D40*
G04 #@! TD*
G04 #@! TO.P,JP10,1*
G04 #@! TO.N,Net-(H1-Pad14)*
X79756000Y-66395500D03*
D28*
G04 #@! TO.N,Net-(H1-Pad15)*
G04 #@! TO.C,JP11*
G36*
X84478691Y-61641053D02*
X84499926Y-61644203D01*
X84520750Y-61649419D01*
X84540962Y-61656651D01*
X84560368Y-61665830D01*
X84578781Y-61676866D01*
X84596024Y-61689654D01*
X84611930Y-61704070D01*
X84626346Y-61719976D01*
X84639134Y-61737219D01*
X84650170Y-61755632D01*
X84659349Y-61775038D01*
X84666581Y-61795250D01*
X84671797Y-61816074D01*
X84674947Y-61837309D01*
X84676000Y-61858750D01*
X84676000Y-62296250D01*
X84674947Y-62317691D01*
X84671797Y-62338926D01*
X84666581Y-62359750D01*
X84659349Y-62379962D01*
X84650170Y-62399368D01*
X84639134Y-62417781D01*
X84626346Y-62435024D01*
X84611930Y-62450930D01*
X84596024Y-62465346D01*
X84578781Y-62478134D01*
X84560368Y-62489170D01*
X84540962Y-62498349D01*
X84520750Y-62505581D01*
X84499926Y-62510797D01*
X84478691Y-62513947D01*
X84457250Y-62515000D01*
X83944750Y-62515000D01*
X83923309Y-62513947D01*
X83902074Y-62510797D01*
X83881250Y-62505581D01*
X83861038Y-62498349D01*
X83841632Y-62489170D01*
X83823219Y-62478134D01*
X83805976Y-62465346D01*
X83790070Y-62450930D01*
X83775654Y-62435024D01*
X83762866Y-62417781D01*
X83751830Y-62399368D01*
X83742651Y-62379962D01*
X83735419Y-62359750D01*
X83730203Y-62338926D01*
X83727053Y-62317691D01*
X83726000Y-62296250D01*
X83726000Y-61858750D01*
X83727053Y-61837309D01*
X83730203Y-61816074D01*
X83735419Y-61795250D01*
X83742651Y-61775038D01*
X83751830Y-61755632D01*
X83762866Y-61737219D01*
X83775654Y-61719976D01*
X83790070Y-61704070D01*
X83805976Y-61689654D01*
X83823219Y-61676866D01*
X83841632Y-61665830D01*
X83861038Y-61656651D01*
X83881250Y-61649419D01*
X83902074Y-61644203D01*
X83923309Y-61641053D01*
X83944750Y-61640000D01*
X84457250Y-61640000D01*
X84478691Y-61641053D01*
X84478691Y-61641053D01*
G37*
D40*
G04 #@! TD*
G04 #@! TO.P,JP11,1*
G04 #@! TO.N,Net-(H1-Pad15)*
X84201000Y-62077500D03*
D28*
G04 #@! TO.N,GPIO3*
G04 #@! TO.C,JP11*
G36*
X84478691Y-63216053D02*
X84499926Y-63219203D01*
X84520750Y-63224419D01*
X84540962Y-63231651D01*
X84560368Y-63240830D01*
X84578781Y-63251866D01*
X84596024Y-63264654D01*
X84611930Y-63279070D01*
X84626346Y-63294976D01*
X84639134Y-63312219D01*
X84650170Y-63330632D01*
X84659349Y-63350038D01*
X84666581Y-63370250D01*
X84671797Y-63391074D01*
X84674947Y-63412309D01*
X84676000Y-63433750D01*
X84676000Y-63871250D01*
X84674947Y-63892691D01*
X84671797Y-63913926D01*
X84666581Y-63934750D01*
X84659349Y-63954962D01*
X84650170Y-63974368D01*
X84639134Y-63992781D01*
X84626346Y-64010024D01*
X84611930Y-64025930D01*
X84596024Y-64040346D01*
X84578781Y-64053134D01*
X84560368Y-64064170D01*
X84540962Y-64073349D01*
X84520750Y-64080581D01*
X84499926Y-64085797D01*
X84478691Y-64088947D01*
X84457250Y-64090000D01*
X83944750Y-64090000D01*
X83923309Y-64088947D01*
X83902074Y-64085797D01*
X83881250Y-64080581D01*
X83861038Y-64073349D01*
X83841632Y-64064170D01*
X83823219Y-64053134D01*
X83805976Y-64040346D01*
X83790070Y-64025930D01*
X83775654Y-64010024D01*
X83762866Y-63992781D01*
X83751830Y-63974368D01*
X83742651Y-63954962D01*
X83735419Y-63934750D01*
X83730203Y-63913926D01*
X83727053Y-63892691D01*
X83726000Y-63871250D01*
X83726000Y-63433750D01*
X83727053Y-63412309D01*
X83730203Y-63391074D01*
X83735419Y-63370250D01*
X83742651Y-63350038D01*
X83751830Y-63330632D01*
X83762866Y-63312219D01*
X83775654Y-63294976D01*
X83790070Y-63279070D01*
X83805976Y-63264654D01*
X83823219Y-63251866D01*
X83841632Y-63240830D01*
X83861038Y-63231651D01*
X83881250Y-63224419D01*
X83902074Y-63219203D01*
X83923309Y-63216053D01*
X83944750Y-63215000D01*
X84457250Y-63215000D01*
X84478691Y-63216053D01*
X84478691Y-63216053D01*
G37*
D40*
G04 #@! TD*
G04 #@! TO.P,JP11,2*
G04 #@! TO.N,GPIO3*
X84201000Y-63652500D03*
D28*
G04 #@! TO.N,GPIO4*
G04 #@! TO.C,JP12*
G36*
X86383691Y-63216053D02*
X86404926Y-63219203D01*
X86425750Y-63224419D01*
X86445962Y-63231651D01*
X86465368Y-63240830D01*
X86483781Y-63251866D01*
X86501024Y-63264654D01*
X86516930Y-63279070D01*
X86531346Y-63294976D01*
X86544134Y-63312219D01*
X86555170Y-63330632D01*
X86564349Y-63350038D01*
X86571581Y-63370250D01*
X86576797Y-63391074D01*
X86579947Y-63412309D01*
X86581000Y-63433750D01*
X86581000Y-63871250D01*
X86579947Y-63892691D01*
X86576797Y-63913926D01*
X86571581Y-63934750D01*
X86564349Y-63954962D01*
X86555170Y-63974368D01*
X86544134Y-63992781D01*
X86531346Y-64010024D01*
X86516930Y-64025930D01*
X86501024Y-64040346D01*
X86483781Y-64053134D01*
X86465368Y-64064170D01*
X86445962Y-64073349D01*
X86425750Y-64080581D01*
X86404926Y-64085797D01*
X86383691Y-64088947D01*
X86362250Y-64090000D01*
X85849750Y-64090000D01*
X85828309Y-64088947D01*
X85807074Y-64085797D01*
X85786250Y-64080581D01*
X85766038Y-64073349D01*
X85746632Y-64064170D01*
X85728219Y-64053134D01*
X85710976Y-64040346D01*
X85695070Y-64025930D01*
X85680654Y-64010024D01*
X85667866Y-63992781D01*
X85656830Y-63974368D01*
X85647651Y-63954962D01*
X85640419Y-63934750D01*
X85635203Y-63913926D01*
X85632053Y-63892691D01*
X85631000Y-63871250D01*
X85631000Y-63433750D01*
X85632053Y-63412309D01*
X85635203Y-63391074D01*
X85640419Y-63370250D01*
X85647651Y-63350038D01*
X85656830Y-63330632D01*
X85667866Y-63312219D01*
X85680654Y-63294976D01*
X85695070Y-63279070D01*
X85710976Y-63264654D01*
X85728219Y-63251866D01*
X85746632Y-63240830D01*
X85766038Y-63231651D01*
X85786250Y-63224419D01*
X85807074Y-63219203D01*
X85828309Y-63216053D01*
X85849750Y-63215000D01*
X86362250Y-63215000D01*
X86383691Y-63216053D01*
X86383691Y-63216053D01*
G37*
D40*
G04 #@! TD*
G04 #@! TO.P,JP12,2*
G04 #@! TO.N,GPIO4*
X86106000Y-63652500D03*
D28*
G04 #@! TO.N,Net-(H1-Pad16)*
G04 #@! TO.C,JP12*
G36*
X86383691Y-61641053D02*
X86404926Y-61644203D01*
X86425750Y-61649419D01*
X86445962Y-61656651D01*
X86465368Y-61665830D01*
X86483781Y-61676866D01*
X86501024Y-61689654D01*
X86516930Y-61704070D01*
X86531346Y-61719976D01*
X86544134Y-61737219D01*
X86555170Y-61755632D01*
X86564349Y-61775038D01*
X86571581Y-61795250D01*
X86576797Y-61816074D01*
X86579947Y-61837309D01*
X86581000Y-61858750D01*
X86581000Y-62296250D01*
X86579947Y-62317691D01*
X86576797Y-62338926D01*
X86571581Y-62359750D01*
X86564349Y-62379962D01*
X86555170Y-62399368D01*
X86544134Y-62417781D01*
X86531346Y-62435024D01*
X86516930Y-62450930D01*
X86501024Y-62465346D01*
X86483781Y-62478134D01*
X86465368Y-62489170D01*
X86445962Y-62498349D01*
X86425750Y-62505581D01*
X86404926Y-62510797D01*
X86383691Y-62513947D01*
X86362250Y-62515000D01*
X85849750Y-62515000D01*
X85828309Y-62513947D01*
X85807074Y-62510797D01*
X85786250Y-62505581D01*
X85766038Y-62498349D01*
X85746632Y-62489170D01*
X85728219Y-62478134D01*
X85710976Y-62465346D01*
X85695070Y-62450930D01*
X85680654Y-62435024D01*
X85667866Y-62417781D01*
X85656830Y-62399368D01*
X85647651Y-62379962D01*
X85640419Y-62359750D01*
X85635203Y-62338926D01*
X85632053Y-62317691D01*
X85631000Y-62296250D01*
X85631000Y-61858750D01*
X85632053Y-61837309D01*
X85635203Y-61816074D01*
X85640419Y-61795250D01*
X85647651Y-61775038D01*
X85656830Y-61755632D01*
X85667866Y-61737219D01*
X85680654Y-61719976D01*
X85695070Y-61704070D01*
X85710976Y-61689654D01*
X85728219Y-61676866D01*
X85746632Y-61665830D01*
X85766038Y-61656651D01*
X85786250Y-61649419D01*
X85807074Y-61644203D01*
X85828309Y-61641053D01*
X85849750Y-61640000D01*
X86362250Y-61640000D01*
X86383691Y-61641053D01*
X86383691Y-61641053D01*
G37*
D40*
G04 #@! TD*
G04 #@! TO.P,JP12,1*
G04 #@! TO.N,Net-(H1-Pad16)*
X86106000Y-62077500D03*
D28*
G04 #@! TO.N,Net-(H2-Pad33)*
G04 #@! TO.C,JP21*
G36*
X103274691Y-57450053D02*
X103295926Y-57453203D01*
X103316750Y-57458419D01*
X103336962Y-57465651D01*
X103356368Y-57474830D01*
X103374781Y-57485866D01*
X103392024Y-57498654D01*
X103407930Y-57513070D01*
X103422346Y-57528976D01*
X103435134Y-57546219D01*
X103446170Y-57564632D01*
X103455349Y-57584038D01*
X103462581Y-57604250D01*
X103467797Y-57625074D01*
X103470947Y-57646309D01*
X103472000Y-57667750D01*
X103472000Y-58105250D01*
X103470947Y-58126691D01*
X103467797Y-58147926D01*
X103462581Y-58168750D01*
X103455349Y-58188962D01*
X103446170Y-58208368D01*
X103435134Y-58226781D01*
X103422346Y-58244024D01*
X103407930Y-58259930D01*
X103392024Y-58274346D01*
X103374781Y-58287134D01*
X103356368Y-58298170D01*
X103336962Y-58307349D01*
X103316750Y-58314581D01*
X103295926Y-58319797D01*
X103274691Y-58322947D01*
X103253250Y-58324000D01*
X102740750Y-58324000D01*
X102719309Y-58322947D01*
X102698074Y-58319797D01*
X102677250Y-58314581D01*
X102657038Y-58307349D01*
X102637632Y-58298170D01*
X102619219Y-58287134D01*
X102601976Y-58274346D01*
X102586070Y-58259930D01*
X102571654Y-58244024D01*
X102558866Y-58226781D01*
X102547830Y-58208368D01*
X102538651Y-58188962D01*
X102531419Y-58168750D01*
X102526203Y-58147926D01*
X102523053Y-58126691D01*
X102522000Y-58105250D01*
X102522000Y-57667750D01*
X102523053Y-57646309D01*
X102526203Y-57625074D01*
X102531419Y-57604250D01*
X102538651Y-57584038D01*
X102547830Y-57564632D01*
X102558866Y-57546219D01*
X102571654Y-57528976D01*
X102586070Y-57513070D01*
X102601976Y-57498654D01*
X102619219Y-57485866D01*
X102637632Y-57474830D01*
X102657038Y-57465651D01*
X102677250Y-57458419D01*
X102698074Y-57453203D01*
X102719309Y-57450053D01*
X102740750Y-57449000D01*
X103253250Y-57449000D01*
X103274691Y-57450053D01*
X103274691Y-57450053D01*
G37*
D40*
G04 #@! TD*
G04 #@! TO.P,JP21,1*
G04 #@! TO.N,Net-(H2-Pad33)*
X102997000Y-57886500D03*
D28*
G04 #@! TO.N,VBUS*
G04 #@! TO.C,JP21*
G36*
X103274691Y-59025053D02*
X103295926Y-59028203D01*
X103316750Y-59033419D01*
X103336962Y-59040651D01*
X103356368Y-59049830D01*
X103374781Y-59060866D01*
X103392024Y-59073654D01*
X103407930Y-59088070D01*
X103422346Y-59103976D01*
X103435134Y-59121219D01*
X103446170Y-59139632D01*
X103455349Y-59159038D01*
X103462581Y-59179250D01*
X103467797Y-59200074D01*
X103470947Y-59221309D01*
X103472000Y-59242750D01*
X103472000Y-59680250D01*
X103470947Y-59701691D01*
X103467797Y-59722926D01*
X103462581Y-59743750D01*
X103455349Y-59763962D01*
X103446170Y-59783368D01*
X103435134Y-59801781D01*
X103422346Y-59819024D01*
X103407930Y-59834930D01*
X103392024Y-59849346D01*
X103374781Y-59862134D01*
X103356368Y-59873170D01*
X103336962Y-59882349D01*
X103316750Y-59889581D01*
X103295926Y-59894797D01*
X103274691Y-59897947D01*
X103253250Y-59899000D01*
X102740750Y-59899000D01*
X102719309Y-59897947D01*
X102698074Y-59894797D01*
X102677250Y-59889581D01*
X102657038Y-59882349D01*
X102637632Y-59873170D01*
X102619219Y-59862134D01*
X102601976Y-59849346D01*
X102586070Y-59834930D01*
X102571654Y-59819024D01*
X102558866Y-59801781D01*
X102547830Y-59783368D01*
X102538651Y-59763962D01*
X102531419Y-59743750D01*
X102526203Y-59722926D01*
X102523053Y-59701691D01*
X102522000Y-59680250D01*
X102522000Y-59242750D01*
X102523053Y-59221309D01*
X102526203Y-59200074D01*
X102531419Y-59179250D01*
X102538651Y-59159038D01*
X102547830Y-59139632D01*
X102558866Y-59121219D01*
X102571654Y-59103976D01*
X102586070Y-59088070D01*
X102601976Y-59073654D01*
X102619219Y-59060866D01*
X102637632Y-59049830D01*
X102657038Y-59040651D01*
X102677250Y-59033419D01*
X102698074Y-59028203D01*
X102719309Y-59025053D01*
X102740750Y-59024000D01*
X103253250Y-59024000D01*
X103274691Y-59025053D01*
X103274691Y-59025053D01*
G37*
D40*
G04 #@! TD*
G04 #@! TO.P,JP21,2*
G04 #@! TO.N,VBUS*
X102997000Y-59461500D03*
D28*
G04 #@! TO.N,VBUS*
G04 #@! TO.C,JP22*
G36*
X105814691Y-59025053D02*
X105835926Y-59028203D01*
X105856750Y-59033419D01*
X105876962Y-59040651D01*
X105896368Y-59049830D01*
X105914781Y-59060866D01*
X105932024Y-59073654D01*
X105947930Y-59088070D01*
X105962346Y-59103976D01*
X105975134Y-59121219D01*
X105986170Y-59139632D01*
X105995349Y-59159038D01*
X106002581Y-59179250D01*
X106007797Y-59200074D01*
X106010947Y-59221309D01*
X106012000Y-59242750D01*
X106012000Y-59680250D01*
X106010947Y-59701691D01*
X106007797Y-59722926D01*
X106002581Y-59743750D01*
X105995349Y-59763962D01*
X105986170Y-59783368D01*
X105975134Y-59801781D01*
X105962346Y-59819024D01*
X105947930Y-59834930D01*
X105932024Y-59849346D01*
X105914781Y-59862134D01*
X105896368Y-59873170D01*
X105876962Y-59882349D01*
X105856750Y-59889581D01*
X105835926Y-59894797D01*
X105814691Y-59897947D01*
X105793250Y-59899000D01*
X105280750Y-59899000D01*
X105259309Y-59897947D01*
X105238074Y-59894797D01*
X105217250Y-59889581D01*
X105197038Y-59882349D01*
X105177632Y-59873170D01*
X105159219Y-59862134D01*
X105141976Y-59849346D01*
X105126070Y-59834930D01*
X105111654Y-59819024D01*
X105098866Y-59801781D01*
X105087830Y-59783368D01*
X105078651Y-59763962D01*
X105071419Y-59743750D01*
X105066203Y-59722926D01*
X105063053Y-59701691D01*
X105062000Y-59680250D01*
X105062000Y-59242750D01*
X105063053Y-59221309D01*
X105066203Y-59200074D01*
X105071419Y-59179250D01*
X105078651Y-59159038D01*
X105087830Y-59139632D01*
X105098866Y-59121219D01*
X105111654Y-59103976D01*
X105126070Y-59088070D01*
X105141976Y-59073654D01*
X105159219Y-59060866D01*
X105177632Y-59049830D01*
X105197038Y-59040651D01*
X105217250Y-59033419D01*
X105238074Y-59028203D01*
X105259309Y-59025053D01*
X105280750Y-59024000D01*
X105793250Y-59024000D01*
X105814691Y-59025053D01*
X105814691Y-59025053D01*
G37*
D40*
G04 #@! TD*
G04 #@! TO.P,JP22,2*
G04 #@! TO.N,VBUS*
X105537000Y-59461500D03*
D28*
G04 #@! TO.N,Net-(H2-Pad35)*
G04 #@! TO.C,JP22*
G36*
X105814691Y-57450053D02*
X105835926Y-57453203D01*
X105856750Y-57458419D01*
X105876962Y-57465651D01*
X105896368Y-57474830D01*
X105914781Y-57485866D01*
X105932024Y-57498654D01*
X105947930Y-57513070D01*
X105962346Y-57528976D01*
X105975134Y-57546219D01*
X105986170Y-57564632D01*
X105995349Y-57584038D01*
X106002581Y-57604250D01*
X106007797Y-57625074D01*
X106010947Y-57646309D01*
X106012000Y-57667750D01*
X106012000Y-58105250D01*
X106010947Y-58126691D01*
X106007797Y-58147926D01*
X106002581Y-58168750D01*
X105995349Y-58188962D01*
X105986170Y-58208368D01*
X105975134Y-58226781D01*
X105962346Y-58244024D01*
X105947930Y-58259930D01*
X105932024Y-58274346D01*
X105914781Y-58287134D01*
X105896368Y-58298170D01*
X105876962Y-58307349D01*
X105856750Y-58314581D01*
X105835926Y-58319797D01*
X105814691Y-58322947D01*
X105793250Y-58324000D01*
X105280750Y-58324000D01*
X105259309Y-58322947D01*
X105238074Y-58319797D01*
X105217250Y-58314581D01*
X105197038Y-58307349D01*
X105177632Y-58298170D01*
X105159219Y-58287134D01*
X105141976Y-58274346D01*
X105126070Y-58259930D01*
X105111654Y-58244024D01*
X105098866Y-58226781D01*
X105087830Y-58208368D01*
X105078651Y-58188962D01*
X105071419Y-58168750D01*
X105066203Y-58147926D01*
X105063053Y-58126691D01*
X105062000Y-58105250D01*
X105062000Y-57667750D01*
X105063053Y-57646309D01*
X105066203Y-57625074D01*
X105071419Y-57604250D01*
X105078651Y-57584038D01*
X105087830Y-57564632D01*
X105098866Y-57546219D01*
X105111654Y-57528976D01*
X105126070Y-57513070D01*
X105141976Y-57498654D01*
X105159219Y-57485866D01*
X105177632Y-57474830D01*
X105197038Y-57465651D01*
X105217250Y-57458419D01*
X105238074Y-57453203D01*
X105259309Y-57450053D01*
X105280750Y-57449000D01*
X105793250Y-57449000D01*
X105814691Y-57450053D01*
X105814691Y-57450053D01*
G37*
D40*
G04 #@! TD*
G04 #@! TO.P,JP22,1*
G04 #@! TO.N,Net-(H2-Pad35)*
X105537000Y-57886500D03*
D28*
G04 #@! TO.N,Net-(H2-Pad37)*
G04 #@! TO.C,JP23*
G36*
X108354691Y-57450053D02*
X108375926Y-57453203D01*
X108396750Y-57458419D01*
X108416962Y-57465651D01*
X108436368Y-57474830D01*
X108454781Y-57485866D01*
X108472024Y-57498654D01*
X108487930Y-57513070D01*
X108502346Y-57528976D01*
X108515134Y-57546219D01*
X108526170Y-57564632D01*
X108535349Y-57584038D01*
X108542581Y-57604250D01*
X108547797Y-57625074D01*
X108550947Y-57646309D01*
X108552000Y-57667750D01*
X108552000Y-58105250D01*
X108550947Y-58126691D01*
X108547797Y-58147926D01*
X108542581Y-58168750D01*
X108535349Y-58188962D01*
X108526170Y-58208368D01*
X108515134Y-58226781D01*
X108502346Y-58244024D01*
X108487930Y-58259930D01*
X108472024Y-58274346D01*
X108454781Y-58287134D01*
X108436368Y-58298170D01*
X108416962Y-58307349D01*
X108396750Y-58314581D01*
X108375926Y-58319797D01*
X108354691Y-58322947D01*
X108333250Y-58324000D01*
X107820750Y-58324000D01*
X107799309Y-58322947D01*
X107778074Y-58319797D01*
X107757250Y-58314581D01*
X107737038Y-58307349D01*
X107717632Y-58298170D01*
X107699219Y-58287134D01*
X107681976Y-58274346D01*
X107666070Y-58259930D01*
X107651654Y-58244024D01*
X107638866Y-58226781D01*
X107627830Y-58208368D01*
X107618651Y-58188962D01*
X107611419Y-58168750D01*
X107606203Y-58147926D01*
X107603053Y-58126691D01*
X107602000Y-58105250D01*
X107602000Y-57667750D01*
X107603053Y-57646309D01*
X107606203Y-57625074D01*
X107611419Y-57604250D01*
X107618651Y-57584038D01*
X107627830Y-57564632D01*
X107638866Y-57546219D01*
X107651654Y-57528976D01*
X107666070Y-57513070D01*
X107681976Y-57498654D01*
X107699219Y-57485866D01*
X107717632Y-57474830D01*
X107737038Y-57465651D01*
X107757250Y-57458419D01*
X107778074Y-57453203D01*
X107799309Y-57450053D01*
X107820750Y-57449000D01*
X108333250Y-57449000D01*
X108354691Y-57450053D01*
X108354691Y-57450053D01*
G37*
D40*
G04 #@! TD*
G04 #@! TO.P,JP23,1*
G04 #@! TO.N,Net-(H2-Pad37)*
X108077000Y-57886500D03*
D28*
G04 #@! TO.N,VBUS*
G04 #@! TO.C,JP23*
G36*
X108354691Y-59025053D02*
X108375926Y-59028203D01*
X108396750Y-59033419D01*
X108416962Y-59040651D01*
X108436368Y-59049830D01*
X108454781Y-59060866D01*
X108472024Y-59073654D01*
X108487930Y-59088070D01*
X108502346Y-59103976D01*
X108515134Y-59121219D01*
X108526170Y-59139632D01*
X108535349Y-59159038D01*
X108542581Y-59179250D01*
X108547797Y-59200074D01*
X108550947Y-59221309D01*
X108552000Y-59242750D01*
X108552000Y-59680250D01*
X108550947Y-59701691D01*
X108547797Y-59722926D01*
X108542581Y-59743750D01*
X108535349Y-59763962D01*
X108526170Y-59783368D01*
X108515134Y-59801781D01*
X108502346Y-59819024D01*
X108487930Y-59834930D01*
X108472024Y-59849346D01*
X108454781Y-59862134D01*
X108436368Y-59873170D01*
X108416962Y-59882349D01*
X108396750Y-59889581D01*
X108375926Y-59894797D01*
X108354691Y-59897947D01*
X108333250Y-59899000D01*
X107820750Y-59899000D01*
X107799309Y-59897947D01*
X107778074Y-59894797D01*
X107757250Y-59889581D01*
X107737038Y-59882349D01*
X107717632Y-59873170D01*
X107699219Y-59862134D01*
X107681976Y-59849346D01*
X107666070Y-59834930D01*
X107651654Y-59819024D01*
X107638866Y-59801781D01*
X107627830Y-59783368D01*
X107618651Y-59763962D01*
X107611419Y-59743750D01*
X107606203Y-59722926D01*
X107603053Y-59701691D01*
X107602000Y-59680250D01*
X107602000Y-59242750D01*
X107603053Y-59221309D01*
X107606203Y-59200074D01*
X107611419Y-59179250D01*
X107618651Y-59159038D01*
X107627830Y-59139632D01*
X107638866Y-59121219D01*
X107651654Y-59103976D01*
X107666070Y-59088070D01*
X107681976Y-59073654D01*
X107699219Y-59060866D01*
X107717632Y-59049830D01*
X107737038Y-59040651D01*
X107757250Y-59033419D01*
X107778074Y-59028203D01*
X107799309Y-59025053D01*
X107820750Y-59024000D01*
X108333250Y-59024000D01*
X108354691Y-59025053D01*
X108354691Y-59025053D01*
G37*
D40*
G04 #@! TD*
G04 #@! TO.P,JP23,2*
G04 #@! TO.N,VBUS*
X108077000Y-59461500D03*
D28*
G04 #@! TO.N,Net-(H2-Pad39)*
G04 #@! TO.C,JP24*
G36*
X110894691Y-57450053D02*
X110915926Y-57453203D01*
X110936750Y-57458419D01*
X110956962Y-57465651D01*
X110976368Y-57474830D01*
X110994781Y-57485866D01*
X111012024Y-57498654D01*
X111027930Y-57513070D01*
X111042346Y-57528976D01*
X111055134Y-57546219D01*
X111066170Y-57564632D01*
X111075349Y-57584038D01*
X111082581Y-57604250D01*
X111087797Y-57625074D01*
X111090947Y-57646309D01*
X111092000Y-57667750D01*
X111092000Y-58105250D01*
X111090947Y-58126691D01*
X111087797Y-58147926D01*
X111082581Y-58168750D01*
X111075349Y-58188962D01*
X111066170Y-58208368D01*
X111055134Y-58226781D01*
X111042346Y-58244024D01*
X111027930Y-58259930D01*
X111012024Y-58274346D01*
X110994781Y-58287134D01*
X110976368Y-58298170D01*
X110956962Y-58307349D01*
X110936750Y-58314581D01*
X110915926Y-58319797D01*
X110894691Y-58322947D01*
X110873250Y-58324000D01*
X110360750Y-58324000D01*
X110339309Y-58322947D01*
X110318074Y-58319797D01*
X110297250Y-58314581D01*
X110277038Y-58307349D01*
X110257632Y-58298170D01*
X110239219Y-58287134D01*
X110221976Y-58274346D01*
X110206070Y-58259930D01*
X110191654Y-58244024D01*
X110178866Y-58226781D01*
X110167830Y-58208368D01*
X110158651Y-58188962D01*
X110151419Y-58168750D01*
X110146203Y-58147926D01*
X110143053Y-58126691D01*
X110142000Y-58105250D01*
X110142000Y-57667750D01*
X110143053Y-57646309D01*
X110146203Y-57625074D01*
X110151419Y-57604250D01*
X110158651Y-57584038D01*
X110167830Y-57564632D01*
X110178866Y-57546219D01*
X110191654Y-57528976D01*
X110206070Y-57513070D01*
X110221976Y-57498654D01*
X110239219Y-57485866D01*
X110257632Y-57474830D01*
X110277038Y-57465651D01*
X110297250Y-57458419D01*
X110318074Y-57453203D01*
X110339309Y-57450053D01*
X110360750Y-57449000D01*
X110873250Y-57449000D01*
X110894691Y-57450053D01*
X110894691Y-57450053D01*
G37*
D40*
G04 #@! TD*
G04 #@! TO.P,JP24,1*
G04 #@! TO.N,Net-(H2-Pad39)*
X110617000Y-57886500D03*
D28*
G04 #@! TO.N,VBUS*
G04 #@! TO.C,JP24*
G36*
X110894691Y-59025053D02*
X110915926Y-59028203D01*
X110936750Y-59033419D01*
X110956962Y-59040651D01*
X110976368Y-59049830D01*
X110994781Y-59060866D01*
X111012024Y-59073654D01*
X111027930Y-59088070D01*
X111042346Y-59103976D01*
X111055134Y-59121219D01*
X111066170Y-59139632D01*
X111075349Y-59159038D01*
X111082581Y-59179250D01*
X111087797Y-59200074D01*
X111090947Y-59221309D01*
X111092000Y-59242750D01*
X111092000Y-59680250D01*
X111090947Y-59701691D01*
X111087797Y-59722926D01*
X111082581Y-59743750D01*
X111075349Y-59763962D01*
X111066170Y-59783368D01*
X111055134Y-59801781D01*
X111042346Y-59819024D01*
X111027930Y-59834930D01*
X111012024Y-59849346D01*
X110994781Y-59862134D01*
X110976368Y-59873170D01*
X110956962Y-59882349D01*
X110936750Y-59889581D01*
X110915926Y-59894797D01*
X110894691Y-59897947D01*
X110873250Y-59899000D01*
X110360750Y-59899000D01*
X110339309Y-59897947D01*
X110318074Y-59894797D01*
X110297250Y-59889581D01*
X110277038Y-59882349D01*
X110257632Y-59873170D01*
X110239219Y-59862134D01*
X110221976Y-59849346D01*
X110206070Y-59834930D01*
X110191654Y-59819024D01*
X110178866Y-59801781D01*
X110167830Y-59783368D01*
X110158651Y-59763962D01*
X110151419Y-59743750D01*
X110146203Y-59722926D01*
X110143053Y-59701691D01*
X110142000Y-59680250D01*
X110142000Y-59242750D01*
X110143053Y-59221309D01*
X110146203Y-59200074D01*
X110151419Y-59179250D01*
X110158651Y-59159038D01*
X110167830Y-59139632D01*
X110178866Y-59121219D01*
X110191654Y-59103976D01*
X110206070Y-59088070D01*
X110221976Y-59073654D01*
X110239219Y-59060866D01*
X110257632Y-59049830D01*
X110277038Y-59040651D01*
X110297250Y-59033419D01*
X110318074Y-59028203D01*
X110339309Y-59025053D01*
X110360750Y-59024000D01*
X110873250Y-59024000D01*
X110894691Y-59025053D01*
X110894691Y-59025053D01*
G37*
D40*
G04 #@! TD*
G04 #@! TO.P,JP24,2*
G04 #@! TO.N,VBUS*
X110617000Y-59461500D03*
D28*
G04 #@! TO.N,VBUS*
G04 #@! TO.C,JP25*
G36*
X113434691Y-59025053D02*
X113455926Y-59028203D01*
X113476750Y-59033419D01*
X113496962Y-59040651D01*
X113516368Y-59049830D01*
X113534781Y-59060866D01*
X113552024Y-59073654D01*
X113567930Y-59088070D01*
X113582346Y-59103976D01*
X113595134Y-59121219D01*
X113606170Y-59139632D01*
X113615349Y-59159038D01*
X113622581Y-59179250D01*
X113627797Y-59200074D01*
X113630947Y-59221309D01*
X113632000Y-59242750D01*
X113632000Y-59680250D01*
X113630947Y-59701691D01*
X113627797Y-59722926D01*
X113622581Y-59743750D01*
X113615349Y-59763962D01*
X113606170Y-59783368D01*
X113595134Y-59801781D01*
X113582346Y-59819024D01*
X113567930Y-59834930D01*
X113552024Y-59849346D01*
X113534781Y-59862134D01*
X113516368Y-59873170D01*
X113496962Y-59882349D01*
X113476750Y-59889581D01*
X113455926Y-59894797D01*
X113434691Y-59897947D01*
X113413250Y-59899000D01*
X112900750Y-59899000D01*
X112879309Y-59897947D01*
X112858074Y-59894797D01*
X112837250Y-59889581D01*
X112817038Y-59882349D01*
X112797632Y-59873170D01*
X112779219Y-59862134D01*
X112761976Y-59849346D01*
X112746070Y-59834930D01*
X112731654Y-59819024D01*
X112718866Y-59801781D01*
X112707830Y-59783368D01*
X112698651Y-59763962D01*
X112691419Y-59743750D01*
X112686203Y-59722926D01*
X112683053Y-59701691D01*
X112682000Y-59680250D01*
X112682000Y-59242750D01*
X112683053Y-59221309D01*
X112686203Y-59200074D01*
X112691419Y-59179250D01*
X112698651Y-59159038D01*
X112707830Y-59139632D01*
X112718866Y-59121219D01*
X112731654Y-59103976D01*
X112746070Y-59088070D01*
X112761976Y-59073654D01*
X112779219Y-59060866D01*
X112797632Y-59049830D01*
X112817038Y-59040651D01*
X112837250Y-59033419D01*
X112858074Y-59028203D01*
X112879309Y-59025053D01*
X112900750Y-59024000D01*
X113413250Y-59024000D01*
X113434691Y-59025053D01*
X113434691Y-59025053D01*
G37*
D40*
G04 #@! TD*
G04 #@! TO.P,JP25,2*
G04 #@! TO.N,VBUS*
X113157000Y-59461500D03*
D28*
G04 #@! TO.N,Net-(H2-Pad41)*
G04 #@! TO.C,JP25*
G36*
X113434691Y-57450053D02*
X113455926Y-57453203D01*
X113476750Y-57458419D01*
X113496962Y-57465651D01*
X113516368Y-57474830D01*
X113534781Y-57485866D01*
X113552024Y-57498654D01*
X113567930Y-57513070D01*
X113582346Y-57528976D01*
X113595134Y-57546219D01*
X113606170Y-57564632D01*
X113615349Y-57584038D01*
X113622581Y-57604250D01*
X113627797Y-57625074D01*
X113630947Y-57646309D01*
X113632000Y-57667750D01*
X113632000Y-58105250D01*
X113630947Y-58126691D01*
X113627797Y-58147926D01*
X113622581Y-58168750D01*
X113615349Y-58188962D01*
X113606170Y-58208368D01*
X113595134Y-58226781D01*
X113582346Y-58244024D01*
X113567930Y-58259930D01*
X113552024Y-58274346D01*
X113534781Y-58287134D01*
X113516368Y-58298170D01*
X113496962Y-58307349D01*
X113476750Y-58314581D01*
X113455926Y-58319797D01*
X113434691Y-58322947D01*
X113413250Y-58324000D01*
X112900750Y-58324000D01*
X112879309Y-58322947D01*
X112858074Y-58319797D01*
X112837250Y-58314581D01*
X112817038Y-58307349D01*
X112797632Y-58298170D01*
X112779219Y-58287134D01*
X112761976Y-58274346D01*
X112746070Y-58259930D01*
X112731654Y-58244024D01*
X112718866Y-58226781D01*
X112707830Y-58208368D01*
X112698651Y-58188962D01*
X112691419Y-58168750D01*
X112686203Y-58147926D01*
X112683053Y-58126691D01*
X112682000Y-58105250D01*
X112682000Y-57667750D01*
X112683053Y-57646309D01*
X112686203Y-57625074D01*
X112691419Y-57604250D01*
X112698651Y-57584038D01*
X112707830Y-57564632D01*
X112718866Y-57546219D01*
X112731654Y-57528976D01*
X112746070Y-57513070D01*
X112761976Y-57498654D01*
X112779219Y-57485866D01*
X112797632Y-57474830D01*
X112817038Y-57465651D01*
X112837250Y-57458419D01*
X112858074Y-57453203D01*
X112879309Y-57450053D01*
X112900750Y-57449000D01*
X113413250Y-57449000D01*
X113434691Y-57450053D01*
X113434691Y-57450053D01*
G37*
D40*
G04 #@! TD*
G04 #@! TO.P,JP25,1*
G04 #@! TO.N,Net-(H2-Pad41)*
X113157000Y-57886500D03*
D28*
G04 #@! TO.N,Net-(H2-Pad43)*
G04 #@! TO.C,JP26*
G36*
X116101691Y-57450053D02*
X116122926Y-57453203D01*
X116143750Y-57458419D01*
X116163962Y-57465651D01*
X116183368Y-57474830D01*
X116201781Y-57485866D01*
X116219024Y-57498654D01*
X116234930Y-57513070D01*
X116249346Y-57528976D01*
X116262134Y-57546219D01*
X116273170Y-57564632D01*
X116282349Y-57584038D01*
X116289581Y-57604250D01*
X116294797Y-57625074D01*
X116297947Y-57646309D01*
X116299000Y-57667750D01*
X116299000Y-58105250D01*
X116297947Y-58126691D01*
X116294797Y-58147926D01*
X116289581Y-58168750D01*
X116282349Y-58188962D01*
X116273170Y-58208368D01*
X116262134Y-58226781D01*
X116249346Y-58244024D01*
X116234930Y-58259930D01*
X116219024Y-58274346D01*
X116201781Y-58287134D01*
X116183368Y-58298170D01*
X116163962Y-58307349D01*
X116143750Y-58314581D01*
X116122926Y-58319797D01*
X116101691Y-58322947D01*
X116080250Y-58324000D01*
X115567750Y-58324000D01*
X115546309Y-58322947D01*
X115525074Y-58319797D01*
X115504250Y-58314581D01*
X115484038Y-58307349D01*
X115464632Y-58298170D01*
X115446219Y-58287134D01*
X115428976Y-58274346D01*
X115413070Y-58259930D01*
X115398654Y-58244024D01*
X115385866Y-58226781D01*
X115374830Y-58208368D01*
X115365651Y-58188962D01*
X115358419Y-58168750D01*
X115353203Y-58147926D01*
X115350053Y-58126691D01*
X115349000Y-58105250D01*
X115349000Y-57667750D01*
X115350053Y-57646309D01*
X115353203Y-57625074D01*
X115358419Y-57604250D01*
X115365651Y-57584038D01*
X115374830Y-57564632D01*
X115385866Y-57546219D01*
X115398654Y-57528976D01*
X115413070Y-57513070D01*
X115428976Y-57498654D01*
X115446219Y-57485866D01*
X115464632Y-57474830D01*
X115484038Y-57465651D01*
X115504250Y-57458419D01*
X115525074Y-57453203D01*
X115546309Y-57450053D01*
X115567750Y-57449000D01*
X116080250Y-57449000D01*
X116101691Y-57450053D01*
X116101691Y-57450053D01*
G37*
D40*
G04 #@! TD*
G04 #@! TO.P,JP26,1*
G04 #@! TO.N,Net-(H2-Pad43)*
X115824000Y-57886500D03*
D28*
G04 #@! TO.N,VBUS*
G04 #@! TO.C,JP26*
G36*
X116101691Y-59025053D02*
X116122926Y-59028203D01*
X116143750Y-59033419D01*
X116163962Y-59040651D01*
X116183368Y-59049830D01*
X116201781Y-59060866D01*
X116219024Y-59073654D01*
X116234930Y-59088070D01*
X116249346Y-59103976D01*
X116262134Y-59121219D01*
X116273170Y-59139632D01*
X116282349Y-59159038D01*
X116289581Y-59179250D01*
X116294797Y-59200074D01*
X116297947Y-59221309D01*
X116299000Y-59242750D01*
X116299000Y-59680250D01*
X116297947Y-59701691D01*
X116294797Y-59722926D01*
X116289581Y-59743750D01*
X116282349Y-59763962D01*
X116273170Y-59783368D01*
X116262134Y-59801781D01*
X116249346Y-59819024D01*
X116234930Y-59834930D01*
X116219024Y-59849346D01*
X116201781Y-59862134D01*
X116183368Y-59873170D01*
X116163962Y-59882349D01*
X116143750Y-59889581D01*
X116122926Y-59894797D01*
X116101691Y-59897947D01*
X116080250Y-59899000D01*
X115567750Y-59899000D01*
X115546309Y-59897947D01*
X115525074Y-59894797D01*
X115504250Y-59889581D01*
X115484038Y-59882349D01*
X115464632Y-59873170D01*
X115446219Y-59862134D01*
X115428976Y-59849346D01*
X115413070Y-59834930D01*
X115398654Y-59819024D01*
X115385866Y-59801781D01*
X115374830Y-59783368D01*
X115365651Y-59763962D01*
X115358419Y-59743750D01*
X115353203Y-59722926D01*
X115350053Y-59701691D01*
X115349000Y-59680250D01*
X115349000Y-59242750D01*
X115350053Y-59221309D01*
X115353203Y-59200074D01*
X115358419Y-59179250D01*
X115365651Y-59159038D01*
X115374830Y-59139632D01*
X115385866Y-59121219D01*
X115398654Y-59103976D01*
X115413070Y-59088070D01*
X115428976Y-59073654D01*
X115446219Y-59060866D01*
X115464632Y-59049830D01*
X115484038Y-59040651D01*
X115504250Y-59033419D01*
X115525074Y-59028203D01*
X115546309Y-59025053D01*
X115567750Y-59024000D01*
X116080250Y-59024000D01*
X116101691Y-59025053D01*
X116101691Y-59025053D01*
G37*
D40*
G04 #@! TD*
G04 #@! TO.P,JP26,2*
G04 #@! TO.N,VBUS*
X115824000Y-59461500D03*
D28*
G04 #@! TO.N,VBUS*
G04 #@! TO.C,JP27*
G36*
X118514691Y-59025053D02*
X118535926Y-59028203D01*
X118556750Y-59033419D01*
X118576962Y-59040651D01*
X118596368Y-59049830D01*
X118614781Y-59060866D01*
X118632024Y-59073654D01*
X118647930Y-59088070D01*
X118662346Y-59103976D01*
X118675134Y-59121219D01*
X118686170Y-59139632D01*
X118695349Y-59159038D01*
X118702581Y-59179250D01*
X118707797Y-59200074D01*
X118710947Y-59221309D01*
X118712000Y-59242750D01*
X118712000Y-59680250D01*
X118710947Y-59701691D01*
X118707797Y-59722926D01*
X118702581Y-59743750D01*
X118695349Y-59763962D01*
X118686170Y-59783368D01*
X118675134Y-59801781D01*
X118662346Y-59819024D01*
X118647930Y-59834930D01*
X118632024Y-59849346D01*
X118614781Y-59862134D01*
X118596368Y-59873170D01*
X118576962Y-59882349D01*
X118556750Y-59889581D01*
X118535926Y-59894797D01*
X118514691Y-59897947D01*
X118493250Y-59899000D01*
X117980750Y-59899000D01*
X117959309Y-59897947D01*
X117938074Y-59894797D01*
X117917250Y-59889581D01*
X117897038Y-59882349D01*
X117877632Y-59873170D01*
X117859219Y-59862134D01*
X117841976Y-59849346D01*
X117826070Y-59834930D01*
X117811654Y-59819024D01*
X117798866Y-59801781D01*
X117787830Y-59783368D01*
X117778651Y-59763962D01*
X117771419Y-59743750D01*
X117766203Y-59722926D01*
X117763053Y-59701691D01*
X117762000Y-59680250D01*
X117762000Y-59242750D01*
X117763053Y-59221309D01*
X117766203Y-59200074D01*
X117771419Y-59179250D01*
X117778651Y-59159038D01*
X117787830Y-59139632D01*
X117798866Y-59121219D01*
X117811654Y-59103976D01*
X117826070Y-59088070D01*
X117841976Y-59073654D01*
X117859219Y-59060866D01*
X117877632Y-59049830D01*
X117897038Y-59040651D01*
X117917250Y-59033419D01*
X117938074Y-59028203D01*
X117959309Y-59025053D01*
X117980750Y-59024000D01*
X118493250Y-59024000D01*
X118514691Y-59025053D01*
X118514691Y-59025053D01*
G37*
D40*
G04 #@! TD*
G04 #@! TO.P,JP27,2*
G04 #@! TO.N,VBUS*
X118237000Y-59461500D03*
D28*
G04 #@! TO.N,Net-(H2-Pad45)*
G04 #@! TO.C,JP27*
G36*
X118514691Y-57450053D02*
X118535926Y-57453203D01*
X118556750Y-57458419D01*
X118576962Y-57465651D01*
X118596368Y-57474830D01*
X118614781Y-57485866D01*
X118632024Y-57498654D01*
X118647930Y-57513070D01*
X118662346Y-57528976D01*
X118675134Y-57546219D01*
X118686170Y-57564632D01*
X118695349Y-57584038D01*
X118702581Y-57604250D01*
X118707797Y-57625074D01*
X118710947Y-57646309D01*
X118712000Y-57667750D01*
X118712000Y-58105250D01*
X118710947Y-58126691D01*
X118707797Y-58147926D01*
X118702581Y-58168750D01*
X118695349Y-58188962D01*
X118686170Y-58208368D01*
X118675134Y-58226781D01*
X118662346Y-58244024D01*
X118647930Y-58259930D01*
X118632024Y-58274346D01*
X118614781Y-58287134D01*
X118596368Y-58298170D01*
X118576962Y-58307349D01*
X118556750Y-58314581D01*
X118535926Y-58319797D01*
X118514691Y-58322947D01*
X118493250Y-58324000D01*
X117980750Y-58324000D01*
X117959309Y-58322947D01*
X117938074Y-58319797D01*
X117917250Y-58314581D01*
X117897038Y-58307349D01*
X117877632Y-58298170D01*
X117859219Y-58287134D01*
X117841976Y-58274346D01*
X117826070Y-58259930D01*
X117811654Y-58244024D01*
X117798866Y-58226781D01*
X117787830Y-58208368D01*
X117778651Y-58188962D01*
X117771419Y-58168750D01*
X117766203Y-58147926D01*
X117763053Y-58126691D01*
X117762000Y-58105250D01*
X117762000Y-57667750D01*
X117763053Y-57646309D01*
X117766203Y-57625074D01*
X117771419Y-57604250D01*
X117778651Y-57584038D01*
X117787830Y-57564632D01*
X117798866Y-57546219D01*
X117811654Y-57528976D01*
X117826070Y-57513070D01*
X117841976Y-57498654D01*
X117859219Y-57485866D01*
X117877632Y-57474830D01*
X117897038Y-57465651D01*
X117917250Y-57458419D01*
X117938074Y-57453203D01*
X117959309Y-57450053D01*
X117980750Y-57449000D01*
X118493250Y-57449000D01*
X118514691Y-57450053D01*
X118514691Y-57450053D01*
G37*
D40*
G04 #@! TD*
G04 #@! TO.P,JP27,1*
G04 #@! TO.N,Net-(H2-Pad45)*
X118237000Y-57886500D03*
D28*
G04 #@! TO.N,VBUS*
G04 #@! TO.C,JP29*
G36*
X92479691Y-58771053D02*
X92500926Y-58774203D01*
X92521750Y-58779419D01*
X92541962Y-58786651D01*
X92561368Y-58795830D01*
X92579781Y-58806866D01*
X92597024Y-58819654D01*
X92612930Y-58834070D01*
X92627346Y-58849976D01*
X92640134Y-58867219D01*
X92651170Y-58885632D01*
X92660349Y-58905038D01*
X92667581Y-58925250D01*
X92672797Y-58946074D01*
X92675947Y-58967309D01*
X92677000Y-58988750D01*
X92677000Y-59426250D01*
X92675947Y-59447691D01*
X92672797Y-59468926D01*
X92667581Y-59489750D01*
X92660349Y-59509962D01*
X92651170Y-59529368D01*
X92640134Y-59547781D01*
X92627346Y-59565024D01*
X92612930Y-59580930D01*
X92597024Y-59595346D01*
X92579781Y-59608134D01*
X92561368Y-59619170D01*
X92541962Y-59628349D01*
X92521750Y-59635581D01*
X92500926Y-59640797D01*
X92479691Y-59643947D01*
X92458250Y-59645000D01*
X91945750Y-59645000D01*
X91924309Y-59643947D01*
X91903074Y-59640797D01*
X91882250Y-59635581D01*
X91862038Y-59628349D01*
X91842632Y-59619170D01*
X91824219Y-59608134D01*
X91806976Y-59595346D01*
X91791070Y-59580930D01*
X91776654Y-59565024D01*
X91763866Y-59547781D01*
X91752830Y-59529368D01*
X91743651Y-59509962D01*
X91736419Y-59489750D01*
X91731203Y-59468926D01*
X91728053Y-59447691D01*
X91727000Y-59426250D01*
X91727000Y-58988750D01*
X91728053Y-58967309D01*
X91731203Y-58946074D01*
X91736419Y-58925250D01*
X91743651Y-58905038D01*
X91752830Y-58885632D01*
X91763866Y-58867219D01*
X91776654Y-58849976D01*
X91791070Y-58834070D01*
X91806976Y-58819654D01*
X91824219Y-58806866D01*
X91842632Y-58795830D01*
X91862038Y-58786651D01*
X91882250Y-58779419D01*
X91903074Y-58774203D01*
X91924309Y-58771053D01*
X91945750Y-58770000D01*
X92458250Y-58770000D01*
X92479691Y-58771053D01*
X92479691Y-58771053D01*
G37*
D40*
G04 #@! TD*
G04 #@! TO.P,JP29,2*
G04 #@! TO.N,VBUS*
X92202000Y-59207500D03*
D28*
G04 #@! TO.N,Net-(H2-Pad25)*
G04 #@! TO.C,JP29*
G36*
X92479691Y-57196053D02*
X92500926Y-57199203D01*
X92521750Y-57204419D01*
X92541962Y-57211651D01*
X92561368Y-57220830D01*
X92579781Y-57231866D01*
X92597024Y-57244654D01*
X92612930Y-57259070D01*
X92627346Y-57274976D01*
X92640134Y-57292219D01*
X92651170Y-57310632D01*
X92660349Y-57330038D01*
X92667581Y-57350250D01*
X92672797Y-57371074D01*
X92675947Y-57392309D01*
X92677000Y-57413750D01*
X92677000Y-57851250D01*
X92675947Y-57872691D01*
X92672797Y-57893926D01*
X92667581Y-57914750D01*
X92660349Y-57934962D01*
X92651170Y-57954368D01*
X92640134Y-57972781D01*
X92627346Y-57990024D01*
X92612930Y-58005930D01*
X92597024Y-58020346D01*
X92579781Y-58033134D01*
X92561368Y-58044170D01*
X92541962Y-58053349D01*
X92521750Y-58060581D01*
X92500926Y-58065797D01*
X92479691Y-58068947D01*
X92458250Y-58070000D01*
X91945750Y-58070000D01*
X91924309Y-58068947D01*
X91903074Y-58065797D01*
X91882250Y-58060581D01*
X91862038Y-58053349D01*
X91842632Y-58044170D01*
X91824219Y-58033134D01*
X91806976Y-58020346D01*
X91791070Y-58005930D01*
X91776654Y-57990024D01*
X91763866Y-57972781D01*
X91752830Y-57954368D01*
X91743651Y-57934962D01*
X91736419Y-57914750D01*
X91731203Y-57893926D01*
X91728053Y-57872691D01*
X91727000Y-57851250D01*
X91727000Y-57413750D01*
X91728053Y-57392309D01*
X91731203Y-57371074D01*
X91736419Y-57350250D01*
X91743651Y-57330038D01*
X91752830Y-57310632D01*
X91763866Y-57292219D01*
X91776654Y-57274976D01*
X91791070Y-57259070D01*
X91806976Y-57244654D01*
X91824219Y-57231866D01*
X91842632Y-57220830D01*
X91862038Y-57211651D01*
X91882250Y-57204419D01*
X91903074Y-57199203D01*
X91924309Y-57196053D01*
X91945750Y-57195000D01*
X92458250Y-57195000D01*
X92479691Y-57196053D01*
X92479691Y-57196053D01*
G37*
D40*
G04 #@! TD*
G04 #@! TO.P,JP29,1*
G04 #@! TO.N,Net-(H2-Pad25)*
X92202000Y-57632500D03*
D41*
G04 #@! TO.P,U1,1*
G04 #@! TO.N,Net-(R17-Pad1)*
X112903000Y-111327000D03*
G04 #@! TO.P,U1,2*
G04 #@! TO.N,GND*
X114173000Y-111327000D03*
G04 #@! TO.P,U1,3*
G04 #@! TO.N,GateT1*
X114173000Y-104827000D03*
G04 #@! TO.P,U1,4*
G04 #@! TO.N,Vopto*
X112903000Y-104827000D03*
G04 #@! TD*
G04 #@! TO.P,U2,1*
G04 #@! TO.N,Net-(R18-Pad1)*
X112903000Y-123773000D03*
G04 #@! TO.P,U2,2*
G04 #@! TO.N,GND*
X114173000Y-123773000D03*
G04 #@! TO.P,U2,3*
G04 #@! TO.N,GateT2*
X114173000Y-117273000D03*
G04 #@! TO.P,U2,4*
G04 #@! TO.N,Vopto*
X112903000Y-117273000D03*
G04 #@! TD*
G04 #@! TO.P,U3,4*
G04 #@! TO.N,Vopto*
X112903000Y-65584000D03*
G04 #@! TO.P,U3,3*
G04 #@! TO.N,GateT3*
X114173000Y-65584000D03*
G04 #@! TO.P,U3,2*
G04 #@! TO.N,GND*
X114173000Y-72084000D03*
G04 #@! TO.P,U3,1*
G04 #@! TO.N,Net-(R19-Pad1)*
X112903000Y-72084000D03*
G04 #@! TD*
G04 #@! TO.P,U4,1*
G04 #@! TO.N,Net-(R20-Pad1)*
X112903000Y-98500000D03*
G04 #@! TO.P,U4,2*
G04 #@! TO.N,GND*
X114173000Y-98500000D03*
G04 #@! TO.P,U4,3*
G04 #@! TO.N,GateT4*
X114173000Y-92000000D03*
G04 #@! TO.P,U4,4*
G04 #@! TO.N,Vopto*
X112903000Y-92000000D03*
G04 #@! TD*
G04 #@! TO.P,U5,4*
G04 #@! TO.N,Vopto*
X74041000Y-72084000D03*
G04 #@! TO.P,U5,3*
G04 #@! TO.N,GateT5*
X72771000Y-72084000D03*
G04 #@! TO.P,U5,2*
G04 #@! TO.N,GND*
X72771000Y-65584000D03*
G04 #@! TO.P,U5,1*
G04 #@! TO.N,Net-(R21-Pad1)*
X74041000Y-65584000D03*
G04 #@! TD*
G04 #@! TO.P,U6,4*
G04 #@! TO.N,Vopto*
X74041000Y-97484000D03*
G04 #@! TO.P,U6,3*
G04 #@! TO.N,GateT6*
X72771000Y-97484000D03*
G04 #@! TO.P,U6,2*
G04 #@! TO.N,GND*
X72771000Y-90984000D03*
G04 #@! TO.P,U6,1*
G04 #@! TO.N,Net-(R22-Pad1)*
X74041000Y-90984000D03*
G04 #@! TD*
G04 #@! TO.P,U7,4*
G04 #@! TO.N,Vopto*
X74041000Y-122249000D03*
G04 #@! TO.P,U7,3*
G04 #@! TO.N,GateT7*
X72771000Y-122249000D03*
G04 #@! TO.P,U7,2*
G04 #@! TO.N,GND*
X72771000Y-115749000D03*
G04 #@! TO.P,U7,1*
G04 #@! TO.N,Net-(R23-Pad1)*
X74041000Y-115749000D03*
G04 #@! TD*
G04 #@! TO.P,U8,1*
G04 #@! TO.N,Net-(R24-Pad1)*
X74041000Y-103430000D03*
G04 #@! TO.P,U8,2*
G04 #@! TO.N,GND*
X72771000Y-103430000D03*
G04 #@! TO.P,U8,3*
G04 #@! TO.N,GateT8*
X72771000Y-109930000D03*
G04 #@! TO.P,U8,4*
G04 #@! TO.N,Vopto*
X74041000Y-109930000D03*
G04 #@! TD*
G04 #@! TO.P,U11,4*
G04 #@! TO.N,Vopto*
X113030000Y-78792000D03*
G04 #@! TO.P,U11,3*
G04 #@! TO.N,GateT9*
X114300000Y-78792000D03*
G04 #@! TO.P,U11,2*
G04 #@! TO.N,GND*
X114300000Y-85292000D03*
G04 #@! TO.P,U11,1*
G04 #@! TO.N,Net-(R32-Pad1)*
X113030000Y-85292000D03*
G04 #@! TD*
G04 #@! TO.P,U12,1*
G04 #@! TO.N,Net-(R33-Pad1)*
X74041000Y-78030000D03*
G04 #@! TO.P,U12,2*
G04 #@! TO.N,GND*
X72771000Y-78030000D03*
G04 #@! TO.P,U12,3*
G04 #@! TO.N,GateT10*
X72771000Y-84530000D03*
G04 #@! TO.P,U12,4*
G04 #@! TO.N,Vopto*
X74041000Y-84530000D03*
G04 #@! TD*
D42*
G04 #@! TO.P,FID1,~*
G04 #@! TO.N,N/C*
X59385200Y-134162800D03*
G04 #@! TD*
G04 #@! TO.P,FID2,~*
G04 #@! TO.N,N/C*
X134086600Y-54152800D03*
G04 #@! TD*
G04 #@! TO.P,FID3,~*
G04 #@! TO.N,N/C*
X125984000Y-134874000D03*
G04 #@! TD*
G04 #@! TO.P,FID4,~*
G04 #@! TO.N,N/C*
X59055000Y-57277000D03*
G04 #@! TD*
D43*
G04 #@! TO.N,GNDPWR*
X96242000Y-114173000D03*
X118872000Y-108712000D03*
X122428000Y-107188000D03*
X122428000Y-68072000D03*
X118872000Y-69342000D03*
X118872000Y-82423000D03*
X122428000Y-81153000D03*
X118872000Y-95758000D03*
X122428000Y-94361000D03*
X122301000Y-119634000D03*
X118745000Y-121158000D03*
X64643000Y-67945000D03*
X68072000Y-66548000D03*
X64516000Y-80137000D03*
X68072000Y-78867000D03*
X68072000Y-91948000D03*
X64516000Y-93091000D03*
X64643000Y-106299000D03*
X68072000Y-105029000D03*
X68072000Y-117856000D03*
X64643000Y-118999000D03*
G04 #@! TO.N,GND*
X72136000Y-62611000D03*
X72136000Y-75184000D03*
X72136000Y-88011000D03*
X72136000Y-100584000D03*
X72136000Y-112903000D03*
X114808000Y-114554000D03*
X114808000Y-88138000D03*
X114808000Y-74803000D03*
X88646000Y-104394000D03*
X97028000Y-106045000D03*
X90551000Y-97282000D03*
X90551000Y-95885000D03*
X91179573Y-91830007D03*
X96520000Y-92837000D03*
X102235000Y-103886000D03*
X94107000Y-97917000D03*
X84074000Y-98171000D03*
X84074000Y-99822000D03*
X88265000Y-76454000D03*
X91059000Y-77343000D03*
X101346000Y-90551000D03*
X97282000Y-103759000D03*
X90297000Y-86360000D03*
X114808617Y-101966977D03*
X114808000Y-125983999D03*
X95701391Y-58542481D03*
X92341700Y-64452500D03*
G04 #@! TO.N,+3V3*
X99834000Y-90043002D03*
X97409000Y-85852000D03*
X89281000Y-85090000D03*
X88965001Y-77277999D03*
X99822000Y-92710000D03*
X100838000Y-98806000D03*
X93853000Y-60020176D03*
G04 #@! TO.N,~RESET*
X105410000Y-94361000D03*
X91313000Y-51943000D03*
X103285990Y-96266000D03*
X95072198Y-51943000D03*
G04 #@! TO.N,VBACKUP*
X87503000Y-102743000D03*
X85433984Y-101346000D03*
X91109800Y-61188600D03*
X99288602Y-49926810D03*
X101777800Y-49010990D03*
G04 #@! TO.N,CANH*
X100660200Y-58318400D03*
G04 #@! TO.N,CANL*
X100685600Y-59182000D03*
G04 #@! TO.N,Net-(H1-Pad14)*
X79756000Y-61341000D03*
X76796206Y-57286594D03*
X76326999Y-52603400D03*
G04 #@! TO.N,Net-(H1-Pad13)*
X80289396Y-57886604D03*
X73710800Y-52578002D03*
X73670245Y-51185547D03*
X82296000Y-61074300D03*
G04 #@! TO.N,Net-(H1-Pad16)*
X86487000Y-57658000D03*
X86233000Y-61087000D03*
X86487000Y-52628800D03*
X86537800Y-51054000D03*
G04 #@! TO.N,Net-(H1-Pad15)*
X82268018Y-57637666D03*
X81381600Y-52603400D03*
X84150200Y-61277500D03*
G04 #@! TO.N,Net-(H1-Pad39)*
X107950000Y-85217000D03*
X128270000Y-57912000D03*
X101505180Y-62062223D03*
X108356400Y-82245200D03*
G04 #@! TO.N,Net-(H1-Pad47)*
X109982000Y-81026000D03*
X101032363Y-61416883D03*
X107188000Y-93497400D03*
X97002600Y-61671200D03*
X93624400Y-49326800D03*
X104190800Y-49657002D03*
X109866503Y-90932000D03*
X109201268Y-78848268D03*
G04 #@! TO.N,SWDSWO*
X83693000Y-65913000D03*
X83693000Y-76962000D03*
X86487008Y-83439000D03*
G04 #@! TO.N,SWDIO*
X88108270Y-82901270D03*
X82931000Y-66548000D03*
X83693000Y-78486000D03*
G04 #@! TO.N,SWDCLK*
X87249000Y-92329000D03*
G04 #@! TO.N,Net-(J2-Pad2)*
X107442000Y-114427000D03*
X107061000Y-116522500D03*
G04 #@! TO.N,Net-(J2-Pad1)*
X107950000Y-115189000D03*
X107886500Y-117475000D03*
G04 #@! TO.N,Tx*
X103124000Y-93726000D03*
X106045000Y-90805000D03*
G04 #@! TO.N,Rx*
X102870000Y-92964000D03*
X104775000Y-91059000D03*
X104775000Y-85470998D03*
X105410000Y-84074000D03*
G04 #@! TO.N,ADC0*
X97028000Y-100711000D03*
X105410000Y-99441000D03*
G04 #@! TO.N,ADC1*
X101727000Y-96520000D03*
X104013000Y-89535000D03*
X129159000Y-55499000D03*
X98907600Y-62331600D03*
G04 #@! TO.N,GPIO1*
X85217000Y-90551000D03*
X81657968Y-86995000D03*
G04 #@! TO.N,GPIO2*
X80010000Y-92837006D03*
X87757000Y-94361000D03*
G04 #@! TO.N,GPIO3*
X86952290Y-94741430D03*
X82057987Y-92370791D03*
G04 #@! TO.N,GPIO4*
X85090000Y-94503979D03*
X82457990Y-93267822D03*
G04 #@! TO.N,In1*
X105410000Y-107950000D03*
X103886000Y-106426000D03*
X109728000Y-113550000D03*
X107188000Y-111734600D03*
G04 #@! TO.N,In2*
X108889800Y-117500400D03*
X107086404Y-112953800D03*
G04 #@! TO.N,In3*
X93091000Y-89027000D03*
X103012979Y-79121000D03*
X97789999Y-84454997D03*
X111252000Y-75844400D03*
G04 #@! TO.N,In4*
X93726000Y-94234000D03*
X98298000Y-98806000D03*
X102743000Y-102997000D03*
X110235999Y-102515924D03*
G04 #@! TO.N,In5*
X78105000Y-62865000D03*
X93218000Y-77978000D03*
G04 #@! TO.N,In6*
X78117000Y-89777000D03*
X87884000Y-91313000D03*
G04 #@! TO.N,In7*
X77724000Y-110998000D03*
X86187608Y-102616000D03*
G04 #@! TO.N,In8*
X78167000Y-103251000D03*
X83023010Y-105029002D03*
G04 #@! TO.N,Net-(R27-Pad2)*
X97790000Y-101473000D03*
X98425000Y-105664000D03*
X80856056Y-61920032D03*
X71246998Y-51282600D03*
G04 #@! TO.N,In9*
X103285990Y-95377000D03*
X110998000Y-89154000D03*
G04 #@! TO.N,In10*
X77978000Y-75311000D03*
X89154000Y-90551000D03*
X93218000Y-94996000D03*
X88655990Y-86106004D03*
G04 #@! TO.N,Net-(U10-Pad25)*
X97155000Y-90297000D03*
X96393000Y-85979000D03*
X93599000Y-76962000D03*
X90297000Y-73152000D03*
G04 #@! TO.N,Net-(U10-Pad26)*
X97409000Y-86741000D03*
X97408994Y-88519000D03*
G04 #@! TD*
D44*
G04 #@! TO.N,GNDPWR*
X68260000Y-68399000D02*
X68060000Y-68199000D01*
X68260000Y-71993000D02*
X68260000Y-68399000D01*
X68322620Y-119656583D02*
X68122620Y-119456583D01*
X68322620Y-123250583D02*
X68322620Y-119656583D01*
X68298866Y-106730810D02*
X68098866Y-106530810D01*
X68298866Y-110324810D02*
X68298866Y-106730810D01*
X68228238Y-93640488D02*
X68040238Y-93452488D01*
X68228238Y-97246488D02*
X68228238Y-93640488D01*
X68237985Y-80639617D02*
X68037985Y-80439617D01*
X68237985Y-84360617D02*
X68237985Y-80639617D01*
X118884000Y-64732000D02*
X118684000Y-64532000D01*
X118884000Y-68072000D02*
X118884000Y-64732000D01*
X118684000Y-80965000D02*
X118872000Y-81153000D01*
X118684000Y-77613000D02*
X118684000Y-80965000D01*
X118684000Y-94161000D02*
X118884000Y-94361000D01*
X118684000Y-90821000D02*
X118684000Y-94161000D01*
X118684000Y-106988000D02*
X118884000Y-107188000D01*
X118684000Y-103648000D02*
X118684000Y-106988000D01*
X118557000Y-119561000D02*
X118757000Y-119761000D01*
X118557000Y-116221000D02*
X118557000Y-119561000D01*
D45*
X95250000Y-113181000D02*
X95250000Y-113157000D01*
X95250000Y-113157000D02*
X94615000Y-112522000D01*
X94615000Y-112522000D02*
X94107000Y-112522000D01*
X93439000Y-111854000D02*
X93091000Y-111854000D01*
X94107000Y-112522000D02*
X93439000Y-111854000D01*
X96750000Y-114681000D02*
X96242000Y-114173000D01*
X98900000Y-114681000D02*
X96750000Y-114681000D01*
X96242000Y-114173000D02*
X95250000Y-113181000D01*
X118884000Y-107188000D02*
X118884000Y-108700000D01*
X118884000Y-108700000D02*
X118872000Y-108712000D01*
X122367000Y-105821000D02*
X122367000Y-107127000D01*
X122367000Y-107127000D02*
X122428000Y-107188000D01*
X122367000Y-66832000D02*
X122367000Y-68011000D01*
X122367000Y-68011000D02*
X122428000Y-68072000D01*
X118884000Y-68072000D02*
X118884000Y-69330000D01*
X118884000Y-69330000D02*
X118872000Y-69342000D01*
X118872000Y-81153000D02*
X118872000Y-82423000D01*
X122367000Y-79913000D02*
X122367000Y-81092000D01*
X122367000Y-81092000D02*
X122428000Y-81153000D01*
X118884000Y-94361000D02*
X118884000Y-95746000D01*
X118884000Y-95746000D02*
X118872000Y-95758000D01*
X122367000Y-92994000D02*
X122367000Y-94300000D01*
X122367000Y-94300000D02*
X122428000Y-94361000D01*
X122240000Y-118237000D02*
X122240000Y-119573000D01*
X122240000Y-119573000D02*
X122301000Y-119634000D01*
X118757000Y-119761000D02*
X118757000Y-121146000D01*
X118757000Y-121146000D02*
X118745000Y-121158000D01*
D44*
X64577000Y-69312000D02*
X64577000Y-68011000D01*
X64577000Y-68011000D02*
X64643000Y-67945000D01*
X68060000Y-68199000D02*
X68060000Y-66560000D01*
X68060000Y-66560000D02*
X68072000Y-66548000D01*
X64577000Y-81758000D02*
X64577000Y-80198000D01*
X64577000Y-80198000D02*
X64516000Y-80137000D01*
X68037985Y-80439617D02*
X68037985Y-78901015D01*
X68037985Y-78901015D02*
X68072000Y-78867000D01*
X68040238Y-93452488D02*
X68040238Y-91979762D01*
X68040238Y-91979762D02*
X68072000Y-91948000D01*
X64577000Y-94712000D02*
X64577000Y-93152000D01*
X64577000Y-93152000D02*
X64516000Y-93091000D01*
X64577000Y-107793000D02*
X64577000Y-106365000D01*
X64577000Y-106365000D02*
X64643000Y-106299000D01*
X68098866Y-106530810D02*
X68098866Y-105055866D01*
X68098866Y-105055866D02*
X68072000Y-105029000D01*
X68122620Y-119456583D02*
X68122620Y-117906620D01*
X68122620Y-117906620D02*
X68072000Y-117856000D01*
X64577000Y-120620000D02*
X64577000Y-119065000D01*
X64577000Y-119065000D02*
X64643000Y-118999000D01*
D45*
G04 #@! TO.N,Vopto*
X78867000Y-93345000D02*
X78867000Y-106807000D01*
X78867000Y-106807000D02*
X78867000Y-120523000D01*
X104300000Y-119600000D02*
X104266000Y-119634000D01*
X104300000Y-114681000D02*
X104300000Y-119600000D01*
X104300000Y-113481000D02*
X99658000Y-108839000D01*
X104300000Y-114681000D02*
X104300000Y-113481000D01*
X90551000Y-108839000D02*
X78232000Y-121158000D01*
X99658000Y-108839000D02*
X90551000Y-108839000D01*
X78867000Y-120523000D02*
X78232000Y-121158000D01*
X78867000Y-81280000D02*
X78867000Y-93345000D01*
X108966000Y-114701000D02*
X110978000Y-116713000D01*
X108966000Y-106279000D02*
X108966000Y-114701000D01*
X109151566Y-94488000D02*
X109151566Y-95377000D01*
X112903000Y-92000000D02*
X112834566Y-92000000D01*
X112204500Y-91948000D02*
X109156500Y-94996000D01*
X109151566Y-80730478D02*
X109165022Y-80717022D01*
X109151566Y-80899000D02*
X109151566Y-80730478D01*
X108482000Y-116713000D02*
X110978000Y-116713000D01*
X104300000Y-114681000D02*
X106450000Y-114681000D01*
X106450000Y-114681000D02*
X108482000Y-116713000D01*
X109166492Y-106078508D02*
X109166492Y-80913926D01*
X108966000Y-106279000D02*
X109166492Y-106078508D01*
X109166492Y-80913926D02*
X109151566Y-80899000D01*
X74601000Y-72644000D02*
X74041000Y-72084000D01*
X77343000Y-72644000D02*
X74601000Y-72644000D01*
X78867000Y-74168000D02*
X77343000Y-72644000D01*
X74601000Y-98044000D02*
X74041000Y-97484000D01*
X75966000Y-98044000D02*
X74601000Y-98044000D01*
X78867000Y-95143000D02*
X75966000Y-98044000D01*
X78867000Y-93345000D02*
X78867000Y-95143000D01*
X75966000Y-110490000D02*
X74601000Y-110490000D01*
X74601000Y-110490000D02*
X74041000Y-109930000D01*
X78867000Y-107589000D02*
X75966000Y-110490000D01*
X78867000Y-106807000D02*
X78867000Y-107589000D01*
X74601000Y-122809000D02*
X74041000Y-122249000D01*
X76581000Y-122809000D02*
X74601000Y-122809000D01*
X78232000Y-121158000D02*
X76581000Y-122809000D01*
X112343000Y-116713000D02*
X112903000Y-117273000D01*
X110978000Y-116713000D02*
X112343000Y-116713000D01*
X112343000Y-104267000D02*
X112903000Y-104827000D01*
X110978000Y-104267000D02*
X112343000Y-104267000D01*
X108966000Y-106279000D02*
X110978000Y-104267000D01*
X112851000Y-91948000D02*
X112903000Y-92000000D01*
X112204500Y-91948000D02*
X112851000Y-91948000D01*
X78867000Y-80429000D02*
X78867000Y-79629000D01*
X74766000Y-84530000D02*
X78867000Y-80429000D01*
X74041000Y-84530000D02*
X74766000Y-84530000D01*
X78867000Y-79629000D02*
X78867000Y-74168000D01*
X78867000Y-81280000D02*
X78867000Y-79629000D01*
X109151566Y-79887934D02*
X109151566Y-80899000D01*
X110045500Y-78994000D02*
X109151566Y-79887934D01*
X110045500Y-77175502D02*
X110045500Y-78994000D01*
X110097801Y-72395801D02*
X110047001Y-72446601D01*
X110097801Y-67765699D02*
X110097801Y-72395801D01*
X112077500Y-65786000D02*
X110097801Y-67765699D01*
X112077500Y-65684500D02*
X112077500Y-65786000D01*
X112178000Y-65584000D02*
X112077500Y-65684500D01*
X110047001Y-77174001D02*
X110045500Y-77175502D01*
X112903000Y-65584000D02*
X112178000Y-65584000D01*
X110047001Y-76534001D02*
X110047001Y-76009500D01*
X110047001Y-76009500D02*
X110047001Y-77174001D01*
X112305000Y-78792000D02*
X110047001Y-76534001D01*
X113030000Y-78792000D02*
X112305000Y-78792000D01*
X110047001Y-72446601D02*
X110047001Y-76009500D01*
D46*
G04 #@! TO.N,VBUS*
X56787000Y-66403000D02*
X56769000Y-66421000D01*
X60071000Y-66403000D02*
X56787000Y-66403000D01*
X56914000Y-78976000D02*
X56769000Y-79121000D01*
X60071000Y-78976000D02*
X56914000Y-78976000D01*
X56914000Y-91803000D02*
X56769000Y-91948000D01*
X60071000Y-91803000D02*
X56914000Y-91803000D01*
X56787000Y-104757000D02*
X56769000Y-104775000D01*
X60071000Y-104757000D02*
X56787000Y-104757000D01*
X56787000Y-117330000D02*
X56769000Y-117348000D01*
X60071000Y-117330000D02*
X56787000Y-117330000D01*
X56769000Y-66421000D02*
X53756500Y-66421000D01*
X53756500Y-66421000D02*
X49687009Y-70490491D01*
X49687009Y-70490491D02*
X49687009Y-79121000D01*
X49687009Y-79121000D02*
X56769000Y-79121000D01*
X49687009Y-79121000D02*
X49687009Y-91917991D01*
X49717018Y-91948000D02*
X49687009Y-91917991D01*
X56769000Y-91948000D02*
X49717018Y-91948000D01*
X49717018Y-100735518D02*
X49717018Y-91948000D01*
X56769000Y-104775000D02*
X53756500Y-104775000D01*
X53756500Y-104775000D02*
X49717018Y-100735518D01*
X49717018Y-113308518D02*
X49717018Y-100735518D01*
X56769000Y-117348000D02*
X53756500Y-117348000D01*
X53756500Y-117348000D02*
X51851500Y-115443000D01*
X51851500Y-115443000D02*
X49717018Y-113308518D01*
D47*
X51181000Y-120939500D02*
X51181000Y-113919000D01*
X59055000Y-129667000D02*
X51851500Y-122463500D01*
D46*
X93091000Y-122583000D02*
X92992000Y-122682000D01*
X93091000Y-117254000D02*
X93091000Y-122583000D01*
D47*
X88519000Y-129667000D02*
X59055000Y-129667000D01*
X88519000Y-129667000D02*
X88519000Y-129540000D01*
X88519000Y-129540000D02*
X91567000Y-126492000D01*
D46*
X91947000Y-126492000D02*
X91567000Y-126492000D01*
X92992000Y-125447000D02*
X91947000Y-126492000D01*
X92992000Y-122682000D02*
X92992000Y-125447000D01*
D47*
X91947000Y-126492000D02*
X92072001Y-126366999D01*
X98934999Y-126366999D02*
X103378000Y-130810000D01*
D46*
X130030000Y-121303000D02*
X130175000Y-121158000D01*
X126873000Y-121303000D02*
X130030000Y-121303000D01*
X127018000Y-108585000D02*
X126873000Y-108730000D01*
X130175000Y-108585000D02*
X127018000Y-108585000D01*
X127018000Y-95885000D02*
X126873000Y-96030000D01*
X130175000Y-95885000D02*
X127018000Y-95885000D01*
X127018000Y-82931000D02*
X126873000Y-83076000D01*
X130175000Y-82931000D02*
X127018000Y-82931000D01*
X127018000Y-69850000D02*
X126873000Y-69995000D01*
X130175000Y-69850000D02*
X127018000Y-69850000D01*
X133187500Y-121158000D02*
X134747000Y-119598500D01*
X130175000Y-121158000D02*
X133187500Y-121158000D01*
X135750001Y-98447501D02*
X133187500Y-95885000D01*
X135750001Y-106022499D02*
X135750001Y-98447501D01*
X133187500Y-108585000D02*
X135750001Y-106022499D01*
X130175000Y-108585000D02*
X133187500Y-108585000D01*
X133187500Y-82931000D02*
X130175000Y-82931000D01*
X135623001Y-85366501D02*
X133187500Y-82931000D01*
X135623001Y-93449499D02*
X135623001Y-85366501D01*
X133187500Y-95885000D02*
X135623001Y-93449499D01*
X130175000Y-95885000D02*
X133187500Y-95885000D01*
X133187500Y-82931000D02*
X135496001Y-80622499D01*
X131826000Y-69850000D02*
X130175000Y-69850000D01*
D44*
X116713000Y-130195000D02*
X116713000Y-130810000D01*
D47*
X116713000Y-130810000D02*
X121539000Y-130810000D01*
D46*
X121539000Y-130810000D02*
X128270000Y-130810000D01*
X128270000Y-130810000D02*
X134747000Y-124333000D01*
X134747000Y-118618000D02*
X134747000Y-116169500D01*
X134747000Y-119598500D02*
X134747000Y-118618000D01*
D44*
X133096000Y-125984000D02*
X134747000Y-124333000D01*
X122186000Y-112468000D02*
X122186000Y-112268000D01*
X123129000Y-113411000D02*
X122186000Y-112468000D01*
X128361500Y-113411000D02*
X123129000Y-113411000D01*
X128361500Y-113411000D02*
X133187500Y-108585000D01*
X122186000Y-100395000D02*
X122756000Y-100965000D01*
X122186000Y-99695000D02*
X122186000Y-100395000D01*
X128107500Y-100965000D02*
X128841500Y-100231000D01*
X122756000Y-100965000D02*
X128107500Y-100965000D01*
X128841500Y-100231000D02*
X133187500Y-95885000D01*
X128602499Y-100470001D02*
X128841500Y-100231000D01*
X122059000Y-87314000D02*
X122565500Y-87820500D01*
X122059000Y-86614000D02*
X122059000Y-87314000D01*
X128298000Y-87820500D02*
X133187500Y-82931000D01*
X122565500Y-87820500D02*
X128298000Y-87820500D01*
X122440000Y-125168000D02*
X123954500Y-126682500D01*
X122440000Y-124968000D02*
X122440000Y-125168000D01*
X121805000Y-74233000D02*
X122883000Y-75311000D01*
X121805000Y-73533000D02*
X121805000Y-74233000D01*
X129413000Y-75311000D02*
X133350000Y-71374000D01*
X122883000Y-75311000D02*
X129413000Y-75311000D01*
D46*
X133350000Y-71374000D02*
X131826000Y-69850000D01*
X135496001Y-73520001D02*
X133350000Y-71374000D01*
D47*
X135496001Y-120789999D02*
X134747000Y-121539000D01*
X135953500Y-75628500D02*
X135953500Y-120726499D01*
D45*
X134227000Y-59805000D02*
X138049000Y-63627000D01*
X138049000Y-63627000D02*
X138049000Y-72517000D01*
X135953500Y-74612500D02*
X135953500Y-75628500D01*
X138049000Y-72517000D02*
X135953500Y-74612500D01*
D46*
X134747000Y-124333000D02*
X134747000Y-121539000D01*
X135496001Y-80622499D02*
X135496001Y-75692000D01*
X134747000Y-121539000D02*
X134747000Y-118618000D01*
X135496001Y-75692000D02*
X135496001Y-73520001D01*
D44*
X123954500Y-126682500D02*
X128714500Y-126682500D01*
X134607001Y-120789999D02*
X135496001Y-120789999D01*
X128714500Y-126682500D02*
X134607001Y-120789999D01*
X61171000Y-66403000D02*
X60071000Y-66403000D01*
X61293000Y-66403000D02*
X61171000Y-66403000D01*
X64885000Y-62811000D02*
X61293000Y-66403000D01*
X64885000Y-62611000D02*
X64885000Y-62811000D01*
X61171000Y-78976000D02*
X60071000Y-78976000D01*
X62174000Y-78976000D02*
X61171000Y-78976000D01*
X65012000Y-76138000D02*
X62174000Y-78976000D01*
X65012000Y-75438000D02*
X65012000Y-76138000D01*
X61171000Y-91803000D02*
X60071000Y-91803000D01*
X62047000Y-91803000D02*
X61171000Y-91803000D01*
X64758000Y-89092000D02*
X62047000Y-91803000D01*
X64758000Y-88392000D02*
X64758000Y-89092000D01*
X61666000Y-104757000D02*
X60071000Y-104757000D01*
X64504000Y-101919000D02*
X61666000Y-104757000D01*
X64504000Y-101219000D02*
X64504000Y-101919000D01*
X61666000Y-117330000D02*
X60071000Y-117330000D01*
X64504000Y-114492000D02*
X61666000Y-117330000D01*
X64504000Y-113792000D02*
X64504000Y-114492000D01*
D46*
X121285000Y-60579000D02*
X134620000Y-60579000D01*
D45*
X121285000Y-60579000D02*
X121539000Y-60579000D01*
D46*
X134620000Y-60579000D02*
X134716990Y-60579000D01*
X134716990Y-60579000D02*
X137256990Y-63119000D01*
D47*
X103378000Y-130810000D02*
X109728000Y-130810000D01*
X109728000Y-130810000D02*
X116713000Y-130810000D01*
D45*
X100966000Y-124335998D02*
X98934999Y-126366999D01*
X100966000Y-119634000D02*
X100966000Y-124335998D01*
X92837000Y-58789000D02*
X92637000Y-58789000D01*
X104847106Y-61341000D02*
X104140000Y-61341000D01*
X102997000Y-59805000D02*
X102997000Y-60198000D01*
X120523000Y-61341000D02*
X104847106Y-61341000D01*
X103640001Y-60841001D02*
X104140000Y-61341000D01*
X121285000Y-60579000D02*
X120523000Y-61341000D01*
X102997000Y-60198000D02*
X103640001Y-60841001D01*
D46*
X56769000Y-66421000D02*
X56769000Y-62484000D01*
X56769000Y-62484000D02*
X59731999Y-59521001D01*
X59731999Y-59521001D02*
X92084380Y-59521001D01*
X92084380Y-59521001D02*
X92100400Y-59537021D01*
D45*
G04 #@! TO.N,GND*
X72136000Y-65024000D02*
X72136000Y-62611000D01*
X72136000Y-88011000D02*
X72136000Y-90424000D01*
X72136000Y-100584000D02*
X72136000Y-102870000D01*
D48*
X91687000Y-104533000D02*
X91737000Y-104483000D01*
X89916000Y-104533000D02*
X91687000Y-104533000D01*
X95708000Y-106083000D02*
X95758000Y-106033000D01*
X93937000Y-106083000D02*
X95708000Y-106083000D01*
D44*
X91737000Y-104483000D02*
X88735000Y-104483000D01*
X95758000Y-106033000D02*
X97016000Y-106033000D01*
X88995000Y-97373000D02*
X90460000Y-97373000D01*
X90460000Y-97373000D02*
X90551000Y-97282000D01*
X88995000Y-95873000D02*
X90539000Y-95873000D01*
X90539000Y-95873000D02*
X90551000Y-95885000D01*
X91095000Y-90773000D02*
X91095000Y-91745434D01*
X91095000Y-91745434D02*
X91179573Y-91830007D01*
X97695000Y-92873000D02*
X96556000Y-92873000D01*
X96556000Y-92873000D02*
X96520000Y-92837000D01*
D45*
X100826000Y-102616000D02*
X100826000Y-103886000D01*
X100826000Y-103886000D02*
X102235000Y-103886000D01*
D48*
X94095000Y-99473000D02*
X94095000Y-97929000D01*
X94095000Y-97929000D02*
X94107000Y-97917000D01*
X85483000Y-98171000D02*
X84074000Y-98171000D01*
X85483000Y-99822000D02*
X84074000Y-99822000D01*
D45*
X88265000Y-75426000D02*
X88265000Y-76454000D01*
X91999000Y-75522000D02*
X91999000Y-76403000D01*
X91999000Y-76403000D02*
X91059000Y-77343000D01*
X101334000Y-91821000D02*
X101334000Y-90563000D01*
X101334000Y-90563000D02*
X101346000Y-90551000D01*
D48*
X97270000Y-103747000D02*
X97282000Y-103759000D01*
X97270000Y-102616000D02*
X97270000Y-103747000D01*
X90297000Y-87515000D02*
X90297000Y-86360000D01*
D45*
X114808000Y-99060000D02*
X114808000Y-101966360D01*
X114808000Y-101966360D02*
X114808617Y-101966977D01*
X114808000Y-124333000D02*
X114808000Y-125983999D01*
X97018600Y-58775600D02*
X95934510Y-58775600D01*
X95934510Y-58775600D02*
X95701391Y-58542481D01*
D48*
X92329000Y-64465200D02*
X92341700Y-64452500D01*
X92329000Y-65671000D02*
X92329000Y-64465200D01*
D45*
X72696000Y-65584000D02*
X72136000Y-65024000D01*
X72771000Y-65584000D02*
X72696000Y-65584000D01*
X72696000Y-90984000D02*
X72136000Y-90424000D01*
X72771000Y-90984000D02*
X72696000Y-90984000D01*
X72696000Y-103430000D02*
X72136000Y-102870000D01*
X72771000Y-103430000D02*
X72696000Y-103430000D01*
X72136000Y-115443000D02*
X72442000Y-115749000D01*
X72442000Y-115749000D02*
X72771000Y-115749000D01*
X72136000Y-112903000D02*
X72136000Y-115443000D01*
X114248000Y-123773000D02*
X114808000Y-124333000D01*
X114173000Y-123773000D02*
X114248000Y-123773000D01*
X114808000Y-72326500D02*
X114565500Y-72084000D01*
X114565500Y-72084000D02*
X114173000Y-72084000D01*
X114808000Y-74803000D02*
X114808000Y-72326500D01*
X72136000Y-77395000D02*
X72771000Y-78030000D01*
X72136000Y-77089000D02*
X72136000Y-77395000D01*
X72136000Y-75184000D02*
X72136000Y-77089000D01*
X72136000Y-77089000D02*
X72136000Y-77470000D01*
X114173000Y-113919000D02*
X114808000Y-114554000D01*
X114173000Y-111327000D02*
X114173000Y-113919000D01*
X114733000Y-99060000D02*
X114173000Y-98500000D01*
X114808000Y-99060000D02*
X114733000Y-99060000D01*
X114300000Y-87630000D02*
X114808000Y-88138000D01*
X114300000Y-85292000D02*
X114300000Y-87630000D01*
D48*
G04 #@! TO.N,Net-(C5-Pad2)*
X91459000Y-68654000D02*
X92329000Y-67784000D01*
X91059000Y-68654000D02*
X91459000Y-68654000D01*
X92329000Y-67771000D02*
X92329000Y-67171000D01*
X92329000Y-67784000D02*
X92329000Y-67771000D01*
X93199000Y-68654000D02*
X92329000Y-67784000D01*
X93599000Y-68654000D02*
X93199000Y-68654000D01*
G04 #@! TO.N,+3V3*
X88697000Y-98171000D02*
X88995000Y-97873000D01*
X86983000Y-98171000D02*
X88697000Y-98171000D01*
X90595000Y-89313000D02*
X90297000Y-89015000D01*
X90595000Y-90773000D02*
X90595000Y-89313000D01*
D45*
X95377000Y-53213000D02*
X95377000Y-55753000D01*
D48*
X51528000Y-61595000D02*
X50546000Y-60613000D01*
X52578000Y-61595000D02*
X51528000Y-61595000D01*
X50546000Y-60613000D02*
X50546000Y-47244000D01*
X50546000Y-47244000D02*
X53594000Y-44196000D01*
X77762000Y-44612000D02*
X77762000Y-45212000D01*
X77346000Y-44196000D02*
X77762000Y-44612000D01*
X53594000Y-44196000D02*
X77346000Y-44196000D01*
D45*
X92658999Y-74591999D02*
X88930999Y-74591999D01*
X92659000Y-75522000D02*
X92658999Y-74591999D01*
D44*
X96981999Y-85424999D02*
X97109001Y-85552001D01*
X96981999Y-77181409D02*
X96981999Y-85424999D01*
X94392589Y-74591999D02*
X96981999Y-77181409D01*
X92658999Y-74591999D02*
X94392589Y-74591999D01*
X97109001Y-85552001D02*
X97409000Y-85852000D01*
X88965001Y-74626001D02*
X88773000Y-74434000D01*
D45*
X88930999Y-74591999D02*
X88773000Y-74434000D01*
D44*
X88965001Y-77277999D02*
X88965001Y-74626001D01*
D45*
X88773000Y-74434000D02*
X88265000Y-73926000D01*
D44*
X90297000Y-89015000D02*
X90297000Y-88990000D01*
X90297000Y-88990000D02*
X89281000Y-87974000D01*
X89281000Y-87974000D02*
X89281000Y-85090000D01*
X98247000Y-91821000D02*
X97695000Y-92373000D01*
X99834000Y-90043002D02*
X99834000Y-91821000D01*
X99834000Y-91821000D02*
X98247000Y-91821000D01*
D45*
X99834000Y-91821000D02*
X99834000Y-92698000D01*
X99834000Y-92698000D02*
X99822000Y-92710000D01*
X100838000Y-100650000D02*
X101026000Y-100838000D01*
X100838000Y-98806000D02*
X100838000Y-100650000D01*
D44*
X84333264Y-96294024D02*
X83610011Y-95570771D01*
X83610011Y-95570771D02*
X83610011Y-83107045D01*
X86333000Y-97546000D02*
X86220240Y-97546000D01*
X86983000Y-98171000D02*
X86958000Y-98171000D01*
X88965001Y-77702263D02*
X88965001Y-77277999D01*
X88965001Y-77752055D02*
X88965001Y-77702263D01*
X83610011Y-83107045D02*
X88965001Y-77752055D01*
X84968264Y-96294024D02*
X84333264Y-96294024D01*
X86220240Y-97546000D02*
X84968264Y-96294024D01*
X86958000Y-98171000D02*
X86333000Y-97546000D01*
D45*
X88265000Y-73926000D02*
X88265000Y-65608200D01*
X93853000Y-60020200D02*
X93853000Y-60020176D01*
X88265000Y-65608200D02*
X93853000Y-60020200D01*
D48*
X94314999Y-52200801D02*
X95327198Y-53213000D01*
X78362000Y-45212000D02*
X79759000Y-46609000D01*
X77762000Y-45212000D02*
X78362000Y-45212000D01*
X79759000Y-46609000D02*
X93091000Y-46609000D01*
X94314999Y-47832999D02*
X94314999Y-52200801D01*
X95327198Y-53213000D02*
X95377000Y-53213000D01*
X93091000Y-46609000D02*
X94314999Y-47832999D01*
G04 #@! TO.N,Net-(C7-Pad2)*
X95708000Y-104483000D02*
X95758000Y-104533000D01*
X93937000Y-104483000D02*
X95708000Y-104483000D01*
X93937000Y-103633000D02*
X93095000Y-102791000D01*
X93095000Y-102791000D02*
X93095000Y-99473000D01*
X93937000Y-104483000D02*
X93937000Y-103633000D01*
G04 #@! TO.N,Net-(C8-Pad1)*
X91687000Y-106033000D02*
X91737000Y-106083000D01*
X89916000Y-106033000D02*
X91687000Y-106033000D01*
X92911999Y-105858001D02*
X92911999Y-103244409D01*
X92911999Y-103244409D02*
X92595000Y-102927410D01*
X92595000Y-102927410D02*
X92595000Y-99473000D01*
X91737000Y-106083000D02*
X92687000Y-106083000D01*
X92687000Y-106083000D02*
X92911999Y-105858001D01*
G04 #@! TO.N,~RESET*
X93595000Y-100323000D02*
X93595000Y-99473000D01*
X93595000Y-101041000D02*
X93595000Y-100323000D01*
X95170000Y-102616000D02*
X93595000Y-101041000D01*
X95770000Y-102616000D02*
X95170000Y-102616000D01*
X53086000Y-51943000D02*
X90888736Y-51943000D01*
X90888736Y-51943000D02*
X91313000Y-51943000D01*
X52578000Y-51435000D02*
X53086000Y-51943000D01*
X95770000Y-102616000D02*
X95770000Y-103191000D01*
X103343002Y-96747276D02*
X103285990Y-96690264D01*
X103285990Y-96690264D02*
X103285990Y-96266000D01*
X102489000Y-105029000D02*
X103343002Y-104174998D01*
X97608000Y-105029000D02*
X102489000Y-105029000D01*
X103343002Y-104174998D02*
X103343002Y-96747276D01*
X95770000Y-103191000D02*
X97608000Y-105029000D01*
X95496462Y-51943000D02*
X95072198Y-51943000D01*
X96647001Y-51943000D02*
X95496462Y-51943000D01*
X97917000Y-50673001D02*
X96647001Y-51943000D01*
X99152998Y-51908999D02*
X97917000Y-50673001D01*
X99152998Y-55973994D02*
X99152998Y-51908999D01*
X101295201Y-57143441D02*
X100966761Y-56815001D01*
X101387204Y-59647798D02*
X101387204Y-58639998D01*
X99787001Y-61248001D02*
X101387204Y-59647798D01*
X99787001Y-72043300D02*
X99787001Y-61248001D01*
X104413011Y-76669310D02*
X99787001Y-72043300D01*
X105410000Y-94361000D02*
X105410000Y-84962002D01*
X101295201Y-58547995D02*
X101295201Y-57143441D01*
X105410000Y-84962002D02*
X104413011Y-83965013D01*
X101387204Y-58639998D02*
X101295201Y-58547995D01*
X99994005Y-56815001D02*
X99152998Y-55973994D01*
X100966761Y-56815001D02*
X99994005Y-56815001D01*
X104413011Y-83965013D02*
X104413011Y-76669310D01*
G04 #@! TO.N,VBACKUP*
X87850000Y-102743000D02*
X87503000Y-102743000D01*
X90595000Y-99473000D02*
X90595000Y-99998000D01*
X90595000Y-99998000D02*
X87850000Y-102743000D01*
X86958000Y-99822000D02*
X85434000Y-101346000D01*
X86983000Y-99822000D02*
X86958000Y-99822000D01*
X85434000Y-101346000D02*
X85433984Y-101346000D01*
X84582000Y-101346000D02*
X83185000Y-99949000D01*
X83185000Y-99949000D02*
X83185000Y-82550000D01*
X83185000Y-82550000D02*
X85471000Y-80264000D01*
X85471000Y-80264000D02*
X85471000Y-66827400D01*
X90809801Y-61488599D02*
X91109800Y-61188600D01*
X85471000Y-66827400D02*
X90809801Y-61488599D01*
X85434000Y-101346000D02*
X84582000Y-101346000D01*
X101353536Y-49010990D02*
X101777800Y-49010990D01*
X100006022Y-49209390D02*
X101155136Y-49209390D01*
X99288602Y-49926810D02*
X100006022Y-49209390D01*
X101155136Y-49209390D02*
X101353536Y-49010990D01*
D44*
G04 #@! TO.N,Net-(C14-Pad2)*
X99326000Y-103886000D02*
X99326000Y-102616000D01*
X99126000Y-102416000D02*
X99326000Y-102616000D01*
X99126000Y-100838000D02*
X99126000Y-102416000D01*
D45*
X96540001Y-98422999D02*
X94744001Y-98422999D01*
X99326000Y-102616000D02*
X99326000Y-101208998D01*
X99326000Y-101208998D02*
X96540001Y-98422999D01*
D44*
X94595000Y-98572000D02*
X94744001Y-98422999D01*
X94595000Y-99473000D02*
X94595000Y-98572000D01*
G04 #@! TO.N,Net-(D1-Pad2)*
X126784000Y-111618000D02*
X126291000Y-111125000D01*
X126784000Y-112268000D02*
X126784000Y-111618000D01*
X126291000Y-111125000D02*
X125476000Y-111125000D01*
X124267000Y-109916000D02*
X124267000Y-105821000D01*
X125476000Y-111125000D02*
X124267000Y-109916000D01*
D46*
X127018000Y-104775000D02*
X126873000Y-104630000D01*
X130175000Y-104775000D02*
X127018000Y-104775000D01*
D45*
X125682000Y-105821000D02*
X126873000Y-104630000D01*
X124267000Y-105821000D02*
X125682000Y-105821000D01*
X125464000Y-103221000D02*
X126873000Y-104630000D01*
X124267000Y-103221000D02*
X125464000Y-103221000D01*
X126383000Y-104140000D02*
X126873000Y-104630000D01*
X123825000Y-104140000D02*
X126383000Y-104140000D01*
X123317000Y-103221000D02*
X123317000Y-103632000D01*
X123317000Y-103632000D02*
X123825000Y-104140000D01*
X125712000Y-104630000D02*
X126873000Y-104630000D01*
X123970000Y-104630000D02*
X125712000Y-104630000D01*
X123317000Y-105821000D02*
X123317000Y-105283000D01*
X123317000Y-105283000D02*
X123970000Y-104630000D01*
D44*
G04 #@! TO.N,GateT1*
X120584000Y-106988000D02*
X120384000Y-107188000D01*
X120584000Y-103648000D02*
X120584000Y-106988000D01*
X121011000Y-103221000D02*
X120584000Y-103648000D01*
X122367000Y-103221000D02*
X121011000Y-103221000D01*
X114748000Y-104827000D02*
X114173000Y-104827000D01*
X116702001Y-102872999D02*
X114748000Y-104827000D01*
X119858999Y-102872999D02*
X116702001Y-102872999D01*
X120584000Y-103598000D02*
X119858999Y-102872999D01*
X120584000Y-103648000D02*
X120584000Y-103598000D01*
G04 #@! TO.N,Net-(D3-Pad2)*
X127165000Y-124318000D02*
X126799000Y-123952000D01*
X127165000Y-124968000D02*
X127165000Y-124318000D01*
X126799000Y-123952000D02*
X125476000Y-123952000D01*
X124140000Y-122616000D02*
X124140000Y-118237000D01*
X125476000Y-123952000D02*
X124140000Y-122616000D01*
D46*
X127018000Y-117348000D02*
X126873000Y-117203000D01*
X130175000Y-117348000D02*
X127018000Y-117348000D01*
D45*
X125307000Y-115637000D02*
X126873000Y-117203000D01*
X124140000Y-115637000D02*
X125307000Y-115637000D01*
X125839000Y-118237000D02*
X126873000Y-117203000D01*
X124140000Y-118237000D02*
X125839000Y-118237000D01*
X126256000Y-116586000D02*
X126873000Y-117203000D01*
X123190000Y-115637000D02*
X123190000Y-115824000D01*
X123952000Y-116586000D02*
X126256000Y-116586000D01*
X123190000Y-115824000D02*
X123952000Y-116586000D01*
X124986000Y-117203000D02*
X126873000Y-117203000D01*
X123190000Y-118237000D02*
X123190000Y-117983000D01*
X124968000Y-117221000D02*
X124986000Y-117203000D01*
X123952000Y-117221000D02*
X124968000Y-117221000D01*
X123190000Y-117983000D02*
X123952000Y-117221000D01*
D44*
G04 #@! TO.N,GateT2*
X120457000Y-119561000D02*
X120257000Y-119761000D01*
X120457000Y-116221000D02*
X120457000Y-119561000D01*
X121656000Y-116221000D02*
X122240000Y-115637000D01*
X120457000Y-116221000D02*
X121656000Y-116221000D01*
X120457000Y-115521000D02*
X119998000Y-115062000D01*
X120457000Y-116221000D02*
X120457000Y-115521000D01*
X116959000Y-115062000D02*
X114748000Y-117273000D01*
X114748000Y-117273000D02*
X114173000Y-117273000D01*
X119998000Y-115062000D02*
X116959000Y-115062000D01*
G04 #@! TO.N,Net-(D5-Pad2)*
X126530000Y-72883000D02*
X126100500Y-72453500D01*
X126530000Y-73533000D02*
X126530000Y-72883000D01*
X126100500Y-72453500D02*
X125476000Y-72453500D01*
X124267000Y-71244500D02*
X124267000Y-66832000D01*
X125476000Y-72453500D02*
X124267000Y-71244500D01*
D46*
X127018000Y-66040000D02*
X126873000Y-65895000D01*
X130175000Y-66040000D02*
X127018000Y-66040000D01*
D45*
X124267000Y-64232000D02*
X125210000Y-64232000D01*
X125875000Y-65895000D02*
X126873000Y-65895000D01*
X125607000Y-66163000D02*
X125875000Y-65895000D01*
X125607000Y-66167000D02*
X125607000Y-66163000D01*
X124267000Y-66832000D02*
X124942000Y-66832000D01*
X124942000Y-66832000D02*
X125607000Y-66167000D01*
X126637000Y-65659000D02*
X126873000Y-65895000D01*
X124206000Y-65659000D02*
X126637000Y-65659000D01*
X123317000Y-66832000D02*
X123317000Y-66548000D01*
X123317000Y-66548000D02*
X124206000Y-65659000D01*
X125857000Y-65278000D02*
X126256000Y-65278000D01*
X126256000Y-65278000D02*
X126873000Y-65895000D01*
X125210000Y-64232000D02*
X126256000Y-65278000D01*
X123317000Y-64232000D02*
X123317000Y-64643000D01*
X125730000Y-65405000D02*
X125857000Y-65278000D01*
X123317000Y-64643000D02*
X123698000Y-65024000D01*
X123698000Y-65024000D02*
X125222000Y-65024000D01*
X125603000Y-65405000D02*
X125730000Y-65405000D01*
X125222000Y-65024000D02*
X125603000Y-65405000D01*
D44*
G04 #@! TO.N,GateT3*
X120884000Y-64232000D02*
X120584000Y-64532000D01*
X122367000Y-64232000D02*
X120884000Y-64232000D01*
X120584000Y-67872000D02*
X120384000Y-68072000D01*
X120584000Y-64532000D02*
X120584000Y-67872000D01*
X114173000Y-64509000D02*
X115436000Y-63246000D01*
X114173000Y-65584000D02*
X114173000Y-64509000D01*
X120584000Y-64482000D02*
X120584000Y-64532000D01*
X119348000Y-63246000D02*
X120584000Y-64482000D01*
X115436000Y-63246000D02*
X119348000Y-63246000D01*
G04 #@! TO.N,Net-(D7-Pad2)*
X126911000Y-99045000D02*
X126354500Y-98488500D01*
X126911000Y-99695000D02*
X126911000Y-99045000D01*
X126354500Y-98488500D02*
X125539500Y-98488500D01*
X124267000Y-97216000D02*
X124267000Y-92994000D01*
X125539500Y-98488500D02*
X124267000Y-97216000D01*
D46*
X130030000Y-91930000D02*
X130175000Y-92075000D01*
X126873000Y-91930000D02*
X130030000Y-91930000D01*
D45*
X125337000Y-90394000D02*
X126873000Y-91930000D01*
X124267000Y-90394000D02*
X125337000Y-90394000D01*
X125809000Y-92994000D02*
X126873000Y-91930000D01*
X124267000Y-92994000D02*
X125809000Y-92994000D01*
X126256000Y-91313000D02*
X126873000Y-91930000D01*
X123698000Y-91313000D02*
X126256000Y-91313000D01*
X123317000Y-90394000D02*
X123317000Y-90932000D01*
X123317000Y-90932000D02*
X123698000Y-91313000D01*
X125621000Y-91930000D02*
X126873000Y-91930000D01*
X125603000Y-91948000D02*
X125621000Y-91930000D01*
X123952000Y-91948000D02*
X125603000Y-91948000D01*
X123317000Y-92994000D02*
X123317000Y-92583000D01*
X123317000Y-92583000D02*
X123952000Y-91948000D01*
D44*
G04 #@! TO.N,GateT4*
X120584000Y-94161000D02*
X120384000Y-94361000D01*
X120584000Y-90821000D02*
X120584000Y-94161000D01*
X121940000Y-90821000D02*
X122367000Y-90394000D01*
X120584000Y-90821000D02*
X121940000Y-90821000D01*
X120584000Y-90121000D02*
X119934500Y-89471500D01*
X120584000Y-90821000D02*
X120584000Y-90121000D01*
X114748000Y-92000000D02*
X114173000Y-92000000D01*
X117276500Y-89471500D02*
X114748000Y-92000000D01*
X119934500Y-89471500D02*
X117276500Y-89471500D01*
D45*
G04 #@! TO.N,Net-(D9-Pad2)*
X57041000Y-70503000D02*
X56769000Y-70231000D01*
X63627000Y-69562000D02*
X63627000Y-69312000D01*
X63627000Y-71662000D02*
X63627000Y-71912000D01*
D46*
X59799000Y-70231000D02*
X60071000Y-70503000D01*
X56769000Y-70231000D02*
X59799000Y-70231000D01*
D45*
X61262000Y-69312000D02*
X60071000Y-70503000D01*
X62677000Y-69312000D02*
X61262000Y-69312000D01*
X61480000Y-71912000D02*
X60071000Y-70503000D01*
X62677000Y-71912000D02*
X61480000Y-71912000D01*
X60561000Y-70503000D02*
X60071000Y-70503000D01*
X60833000Y-70231000D02*
X60561000Y-70503000D01*
X63246000Y-70231000D02*
X60833000Y-70231000D01*
X63627000Y-69850000D02*
X63246000Y-70231000D01*
X63627000Y-69312000D02*
X63627000Y-69850000D01*
X63627000Y-71912000D02*
X63627000Y-71501000D01*
X63627000Y-71501000D02*
X63119000Y-70993000D01*
X63119000Y-70993000D02*
X61341000Y-70993000D01*
X61341000Y-70993000D02*
X60960000Y-70993000D01*
D44*
X60414000Y-61961000D02*
X61034000Y-61341000D01*
X60414000Y-62611000D02*
X60414000Y-61961000D01*
X61034000Y-61341000D02*
X65913000Y-61341000D01*
X65913000Y-61341000D02*
X66611500Y-62039500D01*
X66611500Y-62039500D02*
X66611500Y-62992000D01*
X62677000Y-66926500D02*
X62677000Y-69312000D01*
X66611500Y-62992000D02*
X62677000Y-66926500D01*
G04 #@! TO.N,GateT5*
X66279000Y-71912000D02*
X66360000Y-71993000D01*
X64577000Y-71912000D02*
X66279000Y-71912000D01*
X66360000Y-68399000D02*
X66560000Y-68199000D01*
X66360000Y-71993000D02*
X66360000Y-68399000D01*
X72771000Y-73159000D02*
X72143000Y-73787000D01*
X72771000Y-72084000D02*
X72771000Y-73159000D01*
X66360000Y-72043000D02*
X66360000Y-71993000D01*
X68104000Y-73787000D02*
X66360000Y-72043000D01*
X72143000Y-73787000D02*
X68104000Y-73787000D01*
D46*
G04 #@! TO.N,Net-(D11-Pad2)*
X59926000Y-95758000D02*
X60071000Y-95903000D01*
X56769000Y-95758000D02*
X59926000Y-95758000D01*
D44*
X66294000Y-88900000D02*
X63627000Y-91567000D01*
X66294000Y-87566500D02*
X66294000Y-88900000D01*
X65595500Y-86868000D02*
X66294000Y-87566500D01*
X61161000Y-86868000D02*
X65595500Y-86868000D01*
X63627000Y-91567000D02*
X63627000Y-94712000D01*
X60287000Y-87742000D02*
X61161000Y-86868000D01*
X60287000Y-88392000D02*
X60287000Y-87742000D01*
D45*
X61262000Y-94712000D02*
X60071000Y-95903000D01*
X62677000Y-94712000D02*
X61262000Y-94712000D01*
X61480000Y-97312000D02*
X60071000Y-95903000D01*
X62677000Y-97312000D02*
X61480000Y-97312000D01*
X63627000Y-94712000D02*
X63627000Y-95123000D01*
X63246000Y-95631000D02*
X60343000Y-95631000D01*
X60343000Y-95631000D02*
X60071000Y-95903000D01*
X63627000Y-94712000D02*
X63627000Y-95250000D01*
X63627000Y-95250000D02*
X63246000Y-95631000D01*
X61214000Y-96266000D02*
X60851000Y-95903000D01*
X63119000Y-96266000D02*
X61214000Y-96266000D01*
X60851000Y-95903000D02*
X60071000Y-95903000D01*
X63627000Y-97312000D02*
X63627000Y-96774000D01*
X63627000Y-96774000D02*
X63119000Y-96266000D01*
D44*
G04 #@! TO.N,GateT6*
X66328238Y-93664488D02*
X66540238Y-93452488D01*
X66328238Y-97246488D02*
X66328238Y-93664488D01*
X64642512Y-97246488D02*
X64577000Y-97312000D01*
X66328238Y-97246488D02*
X64642512Y-97246488D01*
X72196000Y-97484000D02*
X70620000Y-99060000D01*
X72771000Y-97484000D02*
X72196000Y-97484000D01*
X66328238Y-97296488D02*
X66328238Y-97246488D01*
X68091750Y-99060000D02*
X66328238Y-97296488D01*
X70620000Y-99060000D02*
X68091750Y-99060000D01*
G04 #@! TO.N,Net-(D13-Pad2)*
X63627000Y-117475000D02*
X63627000Y-120620000D01*
X66167000Y-114935000D02*
X63627000Y-117475000D01*
X66167000Y-112966500D02*
X66167000Y-114935000D01*
X60907000Y-112268000D02*
X65468500Y-112268000D01*
X60033000Y-113142000D02*
X60907000Y-112268000D01*
X65468500Y-112268000D02*
X66167000Y-112966500D01*
X60033000Y-113792000D02*
X60033000Y-113142000D01*
D45*
X62677000Y-123220000D02*
X62677000Y-122970000D01*
D46*
X57041000Y-121430000D02*
X56769000Y-121158000D01*
X60071000Y-121430000D02*
X57041000Y-121430000D01*
D45*
X60881000Y-120620000D02*
X60071000Y-121430000D01*
X62677000Y-120620000D02*
X60881000Y-120620000D01*
X61861000Y-123220000D02*
X60071000Y-121430000D01*
X62677000Y-123220000D02*
X61861000Y-123220000D01*
X60180000Y-121539000D02*
X60071000Y-121430000D01*
X63246000Y-121539000D02*
X60180000Y-121539000D01*
X63627000Y-120620000D02*
X63627000Y-121158000D01*
X63627000Y-121158000D02*
X63246000Y-121539000D01*
X60561000Y-121920000D02*
X60071000Y-121430000D01*
X63246000Y-122174000D02*
X61595000Y-122174000D01*
X61341000Y-121920000D02*
X60561000Y-121920000D01*
X63627000Y-123220000D02*
X63627000Y-122555000D01*
X61595000Y-122174000D02*
X61341000Y-121920000D01*
X63627000Y-122555000D02*
X63246000Y-122174000D01*
D44*
G04 #@! TO.N,GateT7*
X66392037Y-123220000D02*
X66422620Y-123250583D01*
X64577000Y-123220000D02*
X66392037Y-123220000D01*
X66422620Y-119656583D02*
X66622620Y-119456583D01*
X66422620Y-123250583D02*
X66422620Y-119656583D01*
X72771000Y-123324000D02*
X70873000Y-125222000D01*
X72771000Y-122249000D02*
X72771000Y-123324000D01*
X66422620Y-123300583D02*
X66422620Y-123250583D01*
X68344037Y-125222000D02*
X66422620Y-123300583D01*
X70873000Y-125222000D02*
X68344037Y-125222000D01*
D46*
G04 #@! TO.N,Net-(D15-Pad2)*
X59799000Y-108585000D02*
X60071000Y-108857000D01*
X56769000Y-108585000D02*
X59799000Y-108585000D01*
D44*
X66357500Y-102552500D02*
X63627000Y-105283000D01*
X65722500Y-99631500D02*
X66357500Y-100266500D01*
X66357500Y-100266500D02*
X66357500Y-102552500D01*
X60970500Y-99631500D02*
X65722500Y-99631500D01*
X63627000Y-105283000D02*
X63627000Y-107793000D01*
X60033000Y-100569000D02*
X60970500Y-99631500D01*
X60033000Y-101219000D02*
X60033000Y-100569000D01*
D45*
X61135000Y-107793000D02*
X60071000Y-108857000D01*
X62677000Y-107793000D02*
X61135000Y-107793000D01*
X61607000Y-110393000D02*
X60071000Y-108857000D01*
X62677000Y-110393000D02*
X61607000Y-110393000D01*
X60216000Y-108712000D02*
X60071000Y-108857000D01*
X63119000Y-108712000D02*
X60216000Y-108712000D01*
X63627000Y-107793000D02*
X63627000Y-108204000D01*
X63627000Y-108204000D02*
X63119000Y-108712000D01*
X60561000Y-109347000D02*
X60071000Y-108857000D01*
X63627000Y-110393000D02*
X63627000Y-109982000D01*
X62992000Y-109347000D02*
X60561000Y-109347000D01*
X63627000Y-109982000D02*
X62992000Y-109347000D01*
D44*
G04 #@! TO.N,GateT8*
X66398866Y-106730810D02*
X66598866Y-106530810D01*
X66398866Y-110324810D02*
X66398866Y-106730810D01*
X66330676Y-110393000D02*
X66398866Y-110324810D01*
X64577000Y-110393000D02*
X66330676Y-110393000D01*
X72771000Y-111005000D02*
X71127000Y-112649000D01*
X72771000Y-109930000D02*
X72771000Y-111005000D01*
X66398866Y-110374810D02*
X66398866Y-110324810D01*
X68673056Y-112649000D02*
X66398866Y-110374810D01*
X71127000Y-112649000D02*
X68673056Y-112649000D01*
D48*
G04 #@! TO.N,CANH*
X91999000Y-72094000D02*
X91999000Y-72592000D01*
X91999000Y-72592000D02*
X91999000Y-73322000D01*
X91459000Y-71554000D02*
X91999000Y-72094000D01*
X91059000Y-71554000D02*
X91459000Y-71554000D01*
X99018600Y-58125600D02*
X99287600Y-58394600D01*
X100584000Y-58394600D02*
X100660200Y-58318400D01*
X99287600Y-58394600D02*
X100584000Y-58394600D01*
X91459000Y-71554000D02*
X92959800Y-70053200D01*
X92959800Y-70053200D02*
X94125500Y-70053200D01*
X97653401Y-66525299D02*
X97653401Y-59318599D01*
X94125500Y-70053200D02*
X97653401Y-66525299D01*
X97653401Y-59318599D02*
X98790000Y-58182000D01*
G04 #@! TO.N,CANL*
X92659000Y-72592000D02*
X92659000Y-73322000D01*
X92659000Y-72094000D02*
X92659000Y-72592000D01*
X93199000Y-71554000D02*
X92659000Y-72094000D01*
X93599000Y-71554000D02*
X93199000Y-71554000D01*
X99262200Y-59182000D02*
X100685600Y-59182000D01*
X99018600Y-59425600D02*
X99262200Y-59182000D01*
X93999000Y-71554000D02*
X98053412Y-67499588D01*
X98053412Y-67499588D02*
X98053412Y-60815788D01*
X93599000Y-71554000D02*
X93999000Y-71554000D01*
X99018600Y-59850600D02*
X99018600Y-59425600D01*
X98053412Y-60815788D02*
X99018600Y-59850600D01*
D44*
G04 #@! TO.N,Net-(D19-Pad2)*
X126657000Y-85964000D02*
X126037000Y-85344000D01*
X126657000Y-86614000D02*
X126657000Y-85964000D01*
X126037000Y-85344000D02*
X125666500Y-85344000D01*
X124267000Y-83944500D02*
X124267000Y-79913000D01*
X125666500Y-85344000D02*
X124267000Y-83944500D01*
D46*
X127018000Y-79121000D02*
X126873000Y-78976000D01*
X130175000Y-79121000D02*
X127018000Y-79121000D01*
D45*
X125210000Y-77313000D02*
X126873000Y-78976000D01*
X124267000Y-77313000D02*
X125210000Y-77313000D01*
X124267000Y-79913000D02*
X125192000Y-79913000D01*
X125192000Y-79913000D02*
X125603000Y-79502000D01*
X125603000Y-79502000D02*
X125730000Y-79502000D01*
X126256000Y-78976000D02*
X126873000Y-78976000D01*
X125730000Y-79502000D02*
X126256000Y-78976000D01*
X125730000Y-78232000D02*
X126474000Y-78976000D01*
X126474000Y-78976000D02*
X126873000Y-78976000D01*
X123825000Y-78232000D02*
X125730000Y-78232000D01*
X123317000Y-77313000D02*
X123317000Y-77724000D01*
X123317000Y-77724000D02*
X123825000Y-78232000D01*
X126637000Y-78740000D02*
X126873000Y-78976000D01*
X123317000Y-79913000D02*
X123317000Y-79502000D01*
X124079000Y-78740000D02*
X126637000Y-78740000D01*
X123317000Y-79502000D02*
X124079000Y-78740000D01*
D46*
G04 #@! TO.N,Net-(D20-Pad2)*
X59926000Y-82931000D02*
X60071000Y-83076000D01*
X56769000Y-82931000D02*
X59926000Y-82931000D01*
D44*
X63627000Y-79121000D02*
X63627000Y-81758000D01*
X66294000Y-76454000D02*
X63627000Y-79121000D01*
X66294000Y-74612500D02*
X66294000Y-76454000D01*
X65722500Y-74041000D02*
X66294000Y-74612500D01*
X61161000Y-74041000D02*
X65722500Y-74041000D01*
X60414000Y-74788000D02*
X61161000Y-74041000D01*
X60414000Y-75438000D02*
X60414000Y-74788000D01*
D45*
X61389000Y-81758000D02*
X60071000Y-83076000D01*
X62677000Y-81758000D02*
X61389000Y-81758000D01*
X61353000Y-84358000D02*
X60071000Y-83076000D01*
X62677000Y-84358000D02*
X61353000Y-84358000D01*
X60597000Y-82550000D02*
X60071000Y-83076000D01*
X63500000Y-82550000D02*
X60597000Y-82550000D01*
X63627000Y-81758000D02*
X63627000Y-82423000D01*
X63627000Y-82423000D02*
X63500000Y-82550000D01*
X62756000Y-83076000D02*
X60071000Y-83076000D01*
X63627000Y-84358000D02*
X63627000Y-83947000D01*
X63627000Y-83947000D02*
X62756000Y-83076000D01*
D44*
G04 #@! TO.N,GateT9*
X120584000Y-80941000D02*
X120372000Y-81153000D01*
X122367000Y-77313000D02*
X120884000Y-77313000D01*
X120884000Y-77313000D02*
X120584000Y-77613000D01*
X120584000Y-77613000D02*
X120584000Y-80941000D01*
X114300000Y-77717000D02*
X115626500Y-76390500D01*
X114300000Y-78792000D02*
X114300000Y-77717000D01*
X120584000Y-77563000D02*
X120584000Y-77613000D01*
X119411500Y-76390500D02*
X120584000Y-77563000D01*
X115626500Y-76390500D02*
X119411500Y-76390500D01*
G04 #@! TO.N,GateT10*
X66337985Y-80639617D02*
X66537985Y-80439617D01*
X66337985Y-84360617D02*
X66337985Y-80639617D01*
X66335368Y-84358000D02*
X66337985Y-84360617D01*
X64577000Y-84358000D02*
X66335368Y-84358000D01*
X72196000Y-84530000D02*
X70493000Y-86233000D01*
X72771000Y-84530000D02*
X72196000Y-84530000D01*
X66337985Y-84410617D02*
X66337985Y-84360617D01*
X68160368Y-86233000D02*
X66337985Y-84410617D01*
X70493000Y-86233000D02*
X68160368Y-86233000D01*
D48*
G04 #@! TO.N,Net-(H1-Pad14)*
X79756000Y-66433000D02*
X79756000Y-61341000D01*
X76326999Y-56817387D02*
X76326999Y-53027664D01*
X76796206Y-57286594D02*
X76326999Y-56817387D01*
X76326999Y-53027664D02*
X76326999Y-52603400D01*
G04 #@! TO.N,Net-(H1-Pad13)*
X73710800Y-57073800D02*
X73710800Y-53002266D01*
X73710800Y-53002266D02*
X73710800Y-52578002D01*
X74523604Y-57886604D02*
X73710800Y-57073800D01*
X80289396Y-57886604D02*
X74523604Y-57886604D01*
X73670245Y-50761283D02*
X73670245Y-51185547D01*
X76534999Y-49611000D02*
X74547239Y-49611000D01*
X74547239Y-49611000D02*
X73670245Y-50487994D01*
X73670245Y-50487994D02*
X73670245Y-50761283D01*
X77597000Y-50673001D02*
X76534999Y-49611000D01*
X82296000Y-61988000D02*
X82296000Y-61074300D01*
G04 #@! TO.N,Net-(H1-Pad16)*
X86233000Y-61988000D02*
X86106000Y-62115000D01*
X86233000Y-61087000D02*
X86233000Y-61988000D01*
X86487000Y-57658000D02*
X86487000Y-52628800D01*
X86537800Y-50629736D02*
X86537800Y-51054000D01*
X85852000Y-49326800D02*
X86537800Y-50012600D01*
X86537800Y-50012600D02*
X86537800Y-50629736D01*
X80137000Y-48133001D02*
X81330799Y-49326800D01*
X81330799Y-49326800D02*
X85852000Y-49326800D01*
G04 #@! TO.N,Net-(H1-Pad15)*
X81381600Y-56751248D02*
X81381600Y-53027664D01*
X81381600Y-53027664D02*
X81381600Y-52603400D01*
X82268018Y-57637666D02*
X81381600Y-56751248D01*
X84201000Y-62115000D02*
X84201000Y-61328300D01*
X84201000Y-61328300D02*
X84150200Y-61277500D01*
G04 #@! TO.N,Net-(H1-Pad40)*
X104474999Y-47623240D02*
X105027239Y-47071000D01*
X106934000Y-78624599D02*
X100187012Y-71877611D01*
X100187012Y-71877611D02*
X100187012Y-61413690D01*
X100187012Y-61413690D02*
X101787213Y-59813489D01*
X101695212Y-50195790D02*
X102696000Y-49195002D01*
X101787213Y-59813489D02*
X101787213Y-57737709D01*
X109855001Y-47371002D02*
X110617000Y-48133001D01*
X101695212Y-57645708D02*
X101695212Y-50195790D01*
X103599694Y-49195002D02*
X104474999Y-48319697D01*
X104474999Y-48319697D02*
X104474999Y-47623240D01*
X101787213Y-57737709D02*
X101695212Y-57645708D01*
X102696000Y-49195002D02*
X103599694Y-49195002D01*
X109554999Y-47071000D02*
X109855001Y-47371002D01*
X106934000Y-81377000D02*
X106934000Y-78624599D01*
X105027239Y-47071000D02*
X109554999Y-47071000D01*
G04 #@! TO.N,Net-(H1-Pad39)*
X106934000Y-86457000D02*
X106934000Y-86233000D01*
X106934000Y-86233000D02*
X107950000Y-85217000D01*
X128270000Y-54054238D02*
X128270000Y-57912000D01*
X125950764Y-51735002D02*
X128270000Y-54054238D01*
X110617000Y-50673001D02*
X111679001Y-51735002D01*
X111679001Y-51735002D02*
X125950764Y-51735002D01*
X101505180Y-72251916D02*
X108356400Y-79103136D01*
X108356400Y-81820936D02*
X108356400Y-82245200D01*
X101505180Y-62062223D02*
X101505180Y-72251916D01*
X108356400Y-79103136D02*
X108356400Y-81820936D01*
G04 #@! TO.N,Net-(H1-Pad47)*
X106426000Y-97040000D02*
X106426000Y-94259400D01*
X106426000Y-94259400D02*
X106888001Y-93797399D01*
X106888001Y-93797399D02*
X107188000Y-93497400D01*
X93200136Y-49326800D02*
X93624400Y-49326800D01*
X92506800Y-49326800D02*
X93200136Y-49326800D01*
X91724201Y-50109399D02*
X92506800Y-49326800D01*
X94191801Y-58860401D02*
X94191801Y-52668703D01*
X97002600Y-61671200D02*
X94191801Y-58860401D01*
X94191801Y-52668703D02*
X93436088Y-51912990D01*
X93436088Y-51912990D02*
X92503093Y-51912990D01*
X91724201Y-51134098D02*
X91724201Y-50109399D01*
X92503093Y-51912990D02*
X91724201Y-51134098D01*
X119461002Y-49357003D02*
X104490799Y-49357003D01*
X104490799Y-49357003D02*
X104190800Y-49657002D01*
X120777000Y-50673001D02*
X119461002Y-49357003D01*
X109982000Y-81026000D02*
X109982000Y-90816503D01*
X109982000Y-90816503D02*
X109866503Y-90932000D01*
X109201268Y-78424004D02*
X109201268Y-78848268D01*
X101032363Y-61416883D02*
X101846161Y-61416883D01*
X101846161Y-61416883D02*
X109201268Y-68771990D01*
X109201268Y-68771990D02*
X109201268Y-78424004D01*
G04 #@! TO.N,Net-(H1-Pad49)*
X124078999Y-49911002D02*
X123317000Y-50673001D01*
X124379001Y-49611000D02*
X124078999Y-49911002D01*
X126884000Y-49611000D02*
X124379001Y-49611000D01*
X129286000Y-52013000D02*
X126884000Y-49611000D01*
X129286000Y-52463000D02*
X129286000Y-52013000D01*
D46*
G04 #@! TO.N,Net-(H2-Pad45)*
X118237000Y-53213000D02*
X118237000Y-55753000D01*
X118237000Y-55753000D02*
X118237000Y-57150000D01*
G04 #@! TO.N,Net-(H2-Pad43)*
X115697000Y-53213000D02*
X115697000Y-55753000D01*
X115697000Y-55753000D02*
X115697000Y-57150000D01*
G04 #@! TO.N,Net-(H2-Pad41)*
X113157000Y-53213000D02*
X113157000Y-55753000D01*
X113157000Y-55753000D02*
X113157000Y-57150000D01*
G04 #@! TO.N,Net-(H2-Pad39)*
X110617000Y-53213000D02*
X110617000Y-55753000D01*
X110617000Y-55753000D02*
X110617000Y-57150000D01*
G04 #@! TO.N,Net-(H2-Pad37)*
X108077000Y-53213000D02*
X108077000Y-55753000D01*
X108077000Y-55753000D02*
X108077000Y-57150000D01*
G04 #@! TO.N,Net-(H2-Pad35)*
X105537000Y-53213000D02*
X105537000Y-55753000D01*
X105537000Y-55753000D02*
X105537000Y-57150000D01*
D45*
G04 #@! TO.N,Net-(H2-Pad33)*
X102797000Y-57924000D02*
X102997000Y-57924000D01*
D46*
X102997000Y-53213000D02*
X102997000Y-55753000D01*
X102997000Y-55753000D02*
X102997000Y-57150000D01*
D45*
G04 #@! TO.N,Net-(H2-Pad25)*
X92837000Y-53213000D02*
X92837000Y-55372000D01*
D46*
X92837000Y-53213000D02*
X92837000Y-55753000D01*
X92837000Y-55753000D02*
X92837000Y-56830630D01*
X92644630Y-57023000D02*
X92837000Y-56830630D01*
D48*
G04 #@! TO.N,SWDSWO*
X83693000Y-76962000D02*
X83693000Y-65913000D01*
X88995000Y-93373000D02*
X88145000Y-93373000D01*
X86487008Y-92525308D02*
X86487008Y-83863264D01*
X88145000Y-93373000D02*
X88132987Y-93360987D01*
X88132987Y-93360987D02*
X87322687Y-93360987D01*
X87322687Y-93360987D02*
X86487008Y-92525308D01*
X86487008Y-83863264D02*
X86487008Y-83439000D01*
G04 #@! TO.N,SWDIO*
X82931000Y-66548000D02*
X82931000Y-66802000D01*
X91595000Y-86388000D02*
X88408269Y-83201269D01*
X91595000Y-90773000D02*
X91595000Y-86388000D01*
X88408269Y-83201269D02*
X88108270Y-82901270D01*
X82931000Y-66802000D02*
X82931000Y-66548000D01*
X83393001Y-78186001D02*
X83693000Y-78486000D01*
X82931000Y-77724000D02*
X83393001Y-78186001D01*
X82931000Y-66548000D02*
X82931000Y-77724000D01*
G04 #@! TO.N,SWDCLK*
X88951000Y-92329000D02*
X88995000Y-92373000D01*
X87249000Y-92329000D02*
X88951000Y-92329000D01*
G04 #@! TO.N,Net-(J2-Pad2)*
X106934000Y-90665065D02*
X107788002Y-91519067D01*
X107741999Y-114127001D02*
X107442000Y-114427000D01*
X106934000Y-89057000D02*
X106934000Y-90665065D01*
X107788002Y-114080998D02*
X107741999Y-114127001D01*
X107788002Y-91519067D02*
X107788002Y-114080998D01*
X105410000Y-122809000D02*
X107061000Y-121158000D01*
X107061000Y-116946764D02*
X107061000Y-116522500D01*
X107061000Y-121158000D02*
X107061000Y-116946764D01*
G04 #@! TO.N,Net-(J2-Pad1)*
X107950000Y-115189000D02*
X108249999Y-114889001D01*
X108249999Y-114889001D02*
X108249999Y-91705701D01*
X107781592Y-83977000D02*
X106934000Y-83977000D01*
X108666482Y-84861890D02*
X107781592Y-83977000D01*
X108666482Y-91289218D02*
X108666482Y-84861890D01*
X108249999Y-91705701D02*
X108666482Y-91289218D01*
X107950000Y-122809000D02*
X107950000Y-117538500D01*
X107950000Y-117538500D02*
X107886500Y-117475000D01*
X106837000Y-84074000D02*
X106934000Y-83977000D01*
G04 #@! TO.N,Tx*
X98545000Y-93873000D02*
X98565000Y-93853000D01*
X97695000Y-93873000D02*
X98545000Y-93873000D01*
X98565000Y-93853000D02*
X102997000Y-93853000D01*
X102997000Y-93853000D02*
X103124000Y-93726000D01*
X105984000Y-87757000D02*
X106934000Y-87757000D01*
X105883990Y-87857010D02*
X105984000Y-87757000D01*
X106045000Y-90805000D02*
X105883990Y-90643990D01*
X105883990Y-90643990D02*
X105883990Y-87857010D01*
G04 #@! TO.N,Rx*
X97695000Y-93373000D02*
X102461000Y-93373000D01*
X102461000Y-93373000D02*
X102870000Y-92964000D01*
X104775000Y-91059000D02*
X104775000Y-85470998D01*
X105984000Y-82677000D02*
X105410000Y-83251000D01*
X105410000Y-83649736D02*
X105410000Y-84074000D01*
X105410000Y-83251000D02*
X105410000Y-83649736D01*
X106934000Y-82677000D02*
X105984000Y-82677000D01*
G04 #@! TO.N,ADC0*
X95669999Y-100363001D02*
X96017998Y-100711000D01*
X95669999Y-99479999D02*
X95669999Y-100363001D01*
X96017998Y-100711000D02*
X97028000Y-100711000D01*
X95663000Y-99473000D02*
X95669999Y-99479999D01*
X95595000Y-99473000D02*
X95663000Y-99473000D01*
X106311000Y-98540000D02*
X105410000Y-99441000D01*
X106426000Y-98540000D02*
X106311000Y-98540000D01*
G04 #@! TO.N,ADC1*
X97695000Y-97373000D02*
X100874000Y-97373000D01*
X100874000Y-97373000D02*
X101727000Y-96520000D01*
X129286000Y-55372000D02*
X129159000Y-55499000D01*
X129286000Y-53963000D02*
X129286000Y-55372000D01*
X104013000Y-76834999D02*
X98907600Y-71729599D01*
X104013000Y-89535000D02*
X104013000Y-76834999D01*
X98907600Y-71729599D02*
X98907600Y-62755864D01*
X98907600Y-62755864D02*
X98907600Y-62331600D01*
G04 #@! TO.N,GPIO1*
X85979000Y-91313000D02*
X85979000Y-92583000D01*
X85217000Y-90551000D02*
X85979000Y-91313000D01*
X85979000Y-92583000D02*
X86995000Y-93599000D01*
X86995000Y-93599000D02*
X87122000Y-93726000D01*
X88145000Y-93873000D02*
X88032998Y-93760998D01*
X88032998Y-93760998D02*
X87156998Y-93760998D01*
X87156998Y-93760998D02*
X86995000Y-93599000D01*
X88995000Y-93873000D02*
X88145000Y-93873000D01*
X81657968Y-66042333D02*
X81657968Y-86697736D01*
X81796424Y-65903877D02*
X81657968Y-66042333D01*
X81657968Y-86697736D02*
X81657968Y-87122000D01*
X82296000Y-63938000D02*
X81657968Y-64576032D01*
X82296000Y-63488000D02*
X82296000Y-63938000D01*
X81657968Y-64576032D02*
X81657968Y-86995000D01*
G04 #@! TO.N,GPIO2*
X79756000Y-92583006D02*
X80010000Y-92837006D01*
X79756000Y-67933000D02*
X79756000Y-92583006D01*
X87769000Y-94373000D02*
X87757000Y-94361000D01*
X88995000Y-94373000D02*
X87769000Y-94373000D01*
G04 #@! TO.N,GPIO3*
X87171862Y-94961002D02*
X86952290Y-94741430D01*
X88995000Y-94873000D02*
X88133004Y-94873000D01*
X88045002Y-94961002D02*
X87171862Y-94961002D01*
X88133004Y-94873000D02*
X88045002Y-94961002D01*
X82257978Y-91746536D02*
X82057987Y-91946527D01*
X82057987Y-91946527D02*
X82057987Y-92370791D01*
X84201000Y-63615000D02*
X84201000Y-64065000D01*
X82257978Y-66008022D02*
X82257978Y-91746536D01*
X84201000Y-64065000D02*
X82257978Y-66008022D01*
G04 #@! TO.N,GPIO4*
X88995000Y-95373000D02*
X85959021Y-95373000D01*
X85959021Y-95373000D02*
X85389999Y-94803978D01*
X85389999Y-94803978D02*
X85090000Y-94503979D01*
X84308991Y-80860309D02*
X82657989Y-82511311D01*
X82657989Y-82511311D02*
X82657989Y-92643559D01*
X84308991Y-65862009D02*
X84308991Y-80860309D01*
X86106000Y-64065000D02*
X84308991Y-65862009D01*
X82657989Y-92643559D02*
X82457990Y-92843558D01*
X86106000Y-63615000D02*
X86106000Y-64065000D01*
X82457990Y-92843558D02*
X82457990Y-93267822D01*
G04 #@! TO.N,In1*
X103886000Y-106001736D02*
X103886000Y-106426000D01*
X100076000Y-87884000D02*
X103886000Y-91694000D01*
X103886000Y-91694000D02*
X103886000Y-106001736D01*
X95095000Y-89944000D02*
X97155000Y-87884000D01*
X95095000Y-90773000D02*
X95095000Y-89944000D01*
X97155000Y-87884000D02*
X100076000Y-87884000D01*
D44*
X110224000Y-114046000D02*
X109728000Y-113550000D01*
X110375000Y-114046000D02*
X110224000Y-114046000D01*
D48*
X105410000Y-109956600D02*
X106888001Y-111434601D01*
X106888001Y-111434601D02*
X107188000Y-111734600D01*
X105410000Y-107950000D02*
X105410000Y-109956600D01*
G04 #@! TO.N,In2*
X109189799Y-117800399D02*
X108889800Y-117500400D01*
X110375000Y-118985600D02*
X109189799Y-117800399D01*
X110375000Y-126492000D02*
X110375000Y-118985600D01*
X100311985Y-87483989D02*
X104775000Y-91947004D01*
X104775000Y-91947004D02*
X104775000Y-110642396D01*
X104775000Y-110642396D02*
X106786405Y-112653801D01*
X106786405Y-112653801D02*
X107086404Y-112953800D01*
X96989311Y-87483989D02*
X100311985Y-87483989D01*
X94595000Y-89878300D02*
X96989311Y-87483989D01*
X94595000Y-90773000D02*
X94595000Y-89878300D01*
G04 #@! TO.N,In3*
X103012979Y-79232017D02*
X103012979Y-79121000D01*
X97789999Y-84454997D02*
X103012979Y-79232017D01*
X93091000Y-89027000D02*
X93091000Y-90769000D01*
X93091000Y-90769000D02*
X93095000Y-90773000D01*
X111264000Y-75832400D02*
X111252000Y-75844400D01*
X111264000Y-74803000D02*
X111264000Y-75832400D01*
G04 #@! TO.N,In4*
X93726000Y-94234000D02*
X93726000Y-92329000D01*
X93595000Y-92198000D02*
X93595000Y-90773000D01*
X93726000Y-92329000D02*
X93595000Y-92198000D01*
X98298000Y-98806000D02*
X99695000Y-98806000D01*
X99695000Y-98806000D02*
X100584000Y-97917000D01*
X100584000Y-97917000D02*
X101346000Y-97917000D01*
X101346000Y-97917000D02*
X102362000Y-98933000D01*
X102362000Y-102616000D02*
X102743000Y-102997000D01*
X102362000Y-98933000D02*
X102362000Y-102616000D01*
X110375000Y-101219000D02*
X110375000Y-102376923D01*
X110375000Y-102376923D02*
X110235999Y-102515924D01*
G04 #@! TO.N,In5*
X76950000Y-62865000D02*
X78105000Y-62865000D01*
X94095000Y-78855000D02*
X93517999Y-78277999D01*
X94095000Y-90773000D02*
X94095000Y-78855000D01*
X93517999Y-78277999D02*
X93218000Y-77978000D01*
G04 #@! TO.N,In6*
X77851000Y-89511000D02*
X78117000Y-89777000D01*
X91467574Y-92430008D02*
X90525008Y-92430008D01*
X88308264Y-91313000D02*
X87884000Y-91313000D01*
X89408000Y-91313000D02*
X88308264Y-91313000D01*
X90525008Y-92430008D02*
X89408000Y-91313000D01*
X92095000Y-90773000D02*
X92095000Y-91802582D01*
X92095000Y-91802582D02*
X91467574Y-92430008D01*
X76950000Y-88465000D02*
X76950000Y-88265000D01*
X77851000Y-89366000D02*
X76950000Y-88465000D01*
X77851000Y-89511000D02*
X77851000Y-89366000D01*
G04 #@! TO.N,In7*
X76950000Y-113030000D02*
X76950000Y-111772000D01*
X76950000Y-111772000D02*
X77724000Y-110998000D01*
X86487607Y-102316001D02*
X86187608Y-102616000D01*
X92595000Y-96208608D02*
X86487607Y-102316001D01*
X92595000Y-90773000D02*
X92595000Y-96208608D01*
D44*
G04 #@! TO.N,In8*
X78117000Y-100711000D02*
X76950000Y-100711000D01*
D48*
X78167000Y-100761000D02*
X78117000Y-100711000D01*
X78167000Y-103251000D02*
X78167000Y-100761000D01*
X91095000Y-99473000D02*
X91095000Y-100323000D01*
X91095000Y-100323000D02*
X86388998Y-105029002D01*
X86388998Y-105029002D02*
X83447274Y-105029002D01*
X83447274Y-105029002D02*
X83023010Y-105029002D01*
D44*
G04 #@! TO.N,Net-(LED1-Pad2)*
X123686000Y-112268000D02*
X125184000Y-112268000D01*
G04 #@! TO.N,Net-(LED2-Pad2)*
X125565000Y-124968000D02*
X123940000Y-124968000D01*
G04 #@! TO.N,Net-(LED3-Pad2)*
X124930000Y-73533000D02*
X123305000Y-73533000D01*
G04 #@! TO.N,Net-(LED4-Pad2)*
X125311000Y-99695000D02*
X123686000Y-99695000D01*
G04 #@! TO.N,Net-(LED5-Pad2)*
X62014000Y-62611000D02*
X63385000Y-62611000D01*
G04 #@! TO.N,Net-(LED6-Pad2)*
X63258000Y-88392000D02*
X61887000Y-88392000D01*
G04 #@! TO.N,Net-(LED7-Pad2)*
X63004000Y-113792000D02*
X61633000Y-113792000D01*
G04 #@! TO.N,Net-(LED8-Pad2)*
X63004000Y-101219000D02*
X61633000Y-101219000D01*
D48*
G04 #@! TO.N,Net-(LED9-Pad1)*
X76162000Y-45212000D02*
X74410000Y-45212000D01*
D44*
G04 #@! TO.N,Net-(LED10-Pad2)*
X125057000Y-86614000D02*
X123559000Y-86614000D01*
G04 #@! TO.N,Net-(LED11-Pad2)*
X62014000Y-75438000D02*
X63512000Y-75438000D01*
D45*
G04 #@! TO.N,Net-(R17-Pad1)*
X112828000Y-111327000D02*
X111875000Y-112280000D01*
X111875000Y-112280000D02*
X111875000Y-114046000D01*
X112903000Y-111327000D02*
X112828000Y-111327000D01*
G04 #@! TO.N,Net-(R18-Pad1)*
X111875000Y-124726000D02*
X111875000Y-126492000D01*
X112828000Y-123773000D02*
X111875000Y-124726000D01*
X112903000Y-123773000D02*
X112828000Y-123773000D01*
D48*
G04 #@! TO.N,Net-(R19-Pad1)*
X112903000Y-72898000D02*
X112903000Y-72084000D01*
X112764000Y-73037000D02*
X112903000Y-72898000D01*
X112764000Y-74803000D02*
X112764000Y-73037000D01*
D45*
G04 #@! TO.N,Net-(R20-Pad1)*
X112828000Y-98500000D02*
X111875000Y-99453000D01*
X111875000Y-99453000D02*
X111875000Y-101219000D01*
X112903000Y-98500000D02*
X112828000Y-98500000D01*
D44*
G04 #@! TO.N,Net-(R21-Pad1)*
X74041000Y-64509000D02*
X74041000Y-65584000D01*
X74041000Y-63774000D02*
X74041000Y-64509000D01*
X74950000Y-62865000D02*
X74041000Y-63774000D01*
X75450000Y-62865000D02*
X74950000Y-62865000D01*
G04 #@! TO.N,Net-(R22-Pad1)*
X74950000Y-88265000D02*
X75450000Y-88265000D01*
X74041000Y-89174000D02*
X74950000Y-88265000D01*
X74041000Y-90984000D02*
X74041000Y-89174000D01*
G04 #@! TO.N,Net-(R23-Pad1)*
X74041000Y-114674000D02*
X74041000Y-115749000D01*
X74041000Y-113939000D02*
X74041000Y-114674000D01*
X74950000Y-113030000D02*
X74041000Y-113939000D01*
X75450000Y-113030000D02*
X74950000Y-113030000D01*
G04 #@! TO.N,Net-(R24-Pad1)*
X74041000Y-102355000D02*
X74041000Y-103430000D01*
X74041000Y-101620000D02*
X74041000Y-102355000D01*
X74950000Y-100711000D02*
X74041000Y-101620000D01*
X75450000Y-100711000D02*
X74950000Y-100711000D01*
D48*
G04 #@! TO.N,Net-(R27-Pad2)*
X84582000Y-107823000D02*
X80856056Y-104097056D01*
X98425000Y-105664000D02*
X96266000Y-107823000D01*
X96266000Y-107823000D02*
X84582000Y-107823000D01*
X80856056Y-62344296D02*
X80856056Y-61920032D01*
X80856056Y-104097056D02*
X80856056Y-62344296D01*
X96214298Y-101473000D02*
X97365736Y-101473000D01*
X97365736Y-101473000D02*
X97790000Y-101473000D01*
X95095000Y-100353702D02*
X96214298Y-101473000D01*
X95095000Y-99473000D02*
X95095000Y-100353702D01*
X72910000Y-45862000D02*
X71246998Y-47525002D01*
X72910000Y-45212000D02*
X72910000Y-45862000D01*
X71246998Y-47525002D02*
X71246998Y-50858336D01*
X71246998Y-50858336D02*
X71246998Y-51282600D01*
G04 #@! TO.N,In9*
X97695000Y-95373000D02*
X103281990Y-95373000D01*
X103281990Y-95373000D02*
X103285990Y-95377000D01*
X111391000Y-88138000D02*
X111391000Y-88788000D01*
X111391000Y-88788000D02*
X111025000Y-89154000D01*
X111025000Y-89154000D02*
X110998000Y-89154000D01*
D44*
G04 #@! TO.N,Net-(R32-Pad1)*
X113030000Y-87999000D02*
X112891000Y-88138000D01*
X113030000Y-85292000D02*
X113030000Y-87999000D01*
G04 #@! TO.N,Net-(R33-Pad1)*
X74041000Y-76955000D02*
X74041000Y-78030000D01*
X74041000Y-76220000D02*
X74041000Y-76955000D01*
X74950000Y-75311000D02*
X74041000Y-76220000D01*
X75450000Y-75311000D02*
X74950000Y-75311000D01*
D48*
G04 #@! TO.N,In10*
X76950000Y-75311000D02*
X77978000Y-75311000D01*
X96095000Y-97873000D02*
X97695000Y-97873000D01*
X93218000Y-94996000D02*
X96095000Y-97873000D01*
X88655990Y-90052990D02*
X88655990Y-86530268D01*
X88655990Y-86530268D02*
X88655990Y-86106004D01*
X89154000Y-90551000D02*
X88655990Y-90052990D01*
G04 #@! TO.N,Net-(U10-Pad25)*
X96095000Y-90773000D02*
X96679000Y-90773000D01*
X96679000Y-90773000D02*
X97155000Y-90297000D01*
X96393000Y-85554736D02*
X94615000Y-83776736D01*
X96393000Y-85979000D02*
X96393000Y-85554736D01*
X94615000Y-83776736D02*
X94615000Y-77978000D01*
X94615000Y-77978000D02*
X93599000Y-76962000D01*
X91186000Y-72517000D02*
X91349000Y-72680000D01*
X91349000Y-72680000D02*
X91349000Y-73322000D01*
X90507736Y-72517000D02*
X91186000Y-72517000D01*
X90297000Y-73152000D02*
X90297000Y-72727736D01*
X90297000Y-72727736D02*
X90507736Y-72517000D01*
G04 #@! TO.N,Net-(U10-Pad26)*
X97108995Y-88818999D02*
X97408994Y-88519000D01*
X95595000Y-90009698D02*
X96785699Y-88818999D01*
X95595000Y-90773000D02*
X95595000Y-90009698D01*
X96785699Y-88818999D02*
X97108995Y-88818999D01*
X99630678Y-73322000D02*
X103612989Y-77304311D01*
X93309000Y-73322000D02*
X99630678Y-73322000D01*
X103612989Y-80537011D02*
X97708999Y-86441001D01*
X97708999Y-86441001D02*
X97409000Y-86741000D01*
X103612989Y-77304311D02*
X103612989Y-80537011D01*
G04 #@! TO.N,Net-(U10-Pad45)*
X93309000Y-76252000D02*
X86849001Y-82711999D01*
X85309998Y-95469002D02*
X86213996Y-96373000D01*
X86849001Y-82711999D02*
X86071999Y-82711999D01*
X84435033Y-95229037D02*
X84674998Y-95469002D01*
X88145000Y-96373000D02*
X88995000Y-96373000D01*
X93309000Y-75522000D02*
X93309000Y-76252000D01*
X84435033Y-84348965D02*
X84435033Y-95229037D01*
X84674998Y-95469002D02*
X85309998Y-95469002D01*
X86213996Y-96373000D02*
X88145000Y-96373000D01*
X86071999Y-82711999D02*
X84435033Y-84348965D01*
G04 #@! TO.N,Net-(U10-Pad46)*
X84509309Y-95869013D02*
X85144309Y-95869013D01*
X84035022Y-83317034D02*
X84035022Y-95394726D01*
X91349000Y-75852000D02*
X90949000Y-76252000D01*
X84035022Y-95394726D02*
X84509309Y-95869013D01*
X91349000Y-75522000D02*
X91349000Y-75852000D01*
X90949000Y-76403056D02*
X84035022Y-83317034D01*
X86148296Y-96873000D02*
X88145000Y-96873000D01*
X88145000Y-96873000D02*
X88995000Y-96873000D01*
X85144309Y-95869013D02*
X86148296Y-96873000D01*
X90949000Y-76252000D02*
X90949000Y-76403056D01*
G04 #@! TD*
D49*
G04 #@! TO.N,VBUS*
G36*
X55626000Y-68388669D02*
X55557071Y-68417220D01*
X55359842Y-68614449D01*
X55235519Y-68697519D01*
X55152449Y-68821842D01*
X54955220Y-69019071D01*
X54848481Y-69276762D01*
X54765410Y-69401086D01*
X54736240Y-69547735D01*
X54629500Y-69805427D01*
X54629500Y-70084352D01*
X54600330Y-70231000D01*
X54629500Y-70377648D01*
X54629500Y-70656573D01*
X54736240Y-70914265D01*
X54765410Y-71060914D01*
X54848481Y-71185238D01*
X54955220Y-71442929D01*
X55152449Y-71640158D01*
X55235519Y-71764481D01*
X55359842Y-71847551D01*
X55557071Y-72044780D01*
X55626000Y-72073331D01*
X55626000Y-81088669D01*
X55557071Y-81117220D01*
X55359842Y-81314449D01*
X55235519Y-81397519D01*
X55152449Y-81521842D01*
X54955220Y-81719071D01*
X54848481Y-81976762D01*
X54765410Y-82101086D01*
X54736240Y-82247735D01*
X54629500Y-82505427D01*
X54629500Y-82784352D01*
X54600330Y-82931000D01*
X54629500Y-83077648D01*
X54629500Y-83356573D01*
X54736240Y-83614265D01*
X54765410Y-83760914D01*
X54848481Y-83885238D01*
X54955220Y-84142929D01*
X55152449Y-84340158D01*
X55235519Y-84464481D01*
X55359842Y-84547551D01*
X55557071Y-84744780D01*
X55626000Y-84773331D01*
X55626000Y-93915669D01*
X55557071Y-93944220D01*
X55359842Y-94141449D01*
X55235519Y-94224519D01*
X55152449Y-94348842D01*
X54955220Y-94546071D01*
X54848481Y-94803762D01*
X54765410Y-94928086D01*
X54736240Y-95074735D01*
X54629500Y-95332427D01*
X54629500Y-95611352D01*
X54600330Y-95758000D01*
X54629500Y-95904648D01*
X54629500Y-96183573D01*
X54736240Y-96441265D01*
X54765410Y-96587914D01*
X54848481Y-96712238D01*
X54955220Y-96969929D01*
X55152449Y-97167158D01*
X55235519Y-97291481D01*
X55359842Y-97374551D01*
X55557071Y-97571780D01*
X55626000Y-97600331D01*
X55626000Y-106742669D01*
X55557071Y-106771220D01*
X55359842Y-106968449D01*
X55235519Y-107051519D01*
X55152449Y-107175842D01*
X54955220Y-107373071D01*
X54848481Y-107630762D01*
X54765410Y-107755086D01*
X54736240Y-107901735D01*
X54629500Y-108159427D01*
X54629500Y-108438352D01*
X54600330Y-108585000D01*
X54629500Y-108731648D01*
X54629500Y-109010573D01*
X54736240Y-109268265D01*
X54765410Y-109414914D01*
X54848481Y-109539238D01*
X54955220Y-109796929D01*
X55152449Y-109994158D01*
X55235519Y-110118481D01*
X55359842Y-110201551D01*
X55557071Y-110398780D01*
X55626000Y-110427331D01*
X55626000Y-119315669D01*
X55557071Y-119344220D01*
X55359842Y-119541449D01*
X55235519Y-119624519D01*
X55152449Y-119748842D01*
X54955220Y-119946071D01*
X54848479Y-120203766D01*
X54765411Y-120328086D01*
X54736242Y-120474730D01*
X54629500Y-120732427D01*
X54629500Y-121011357D01*
X54600331Y-121158000D01*
X54629500Y-121304643D01*
X54629500Y-121583573D01*
X54736242Y-121841270D01*
X54765411Y-121987914D01*
X54848479Y-122112235D01*
X54955220Y-122369929D01*
X55424449Y-122839158D01*
X55507519Y-122963481D01*
X55626000Y-123042648D01*
X55626000Y-127078402D01*
X49614000Y-121177736D01*
X49614000Y-79508153D01*
X49613998Y-79508143D01*
X49613999Y-69357154D01*
X53520540Y-65656221D01*
X55626000Y-65539251D01*
X55626000Y-68388669D01*
X55626000Y-68388669D01*
G37*
X55626000Y-68388669D02*
X55557071Y-68417220D01*
X55359842Y-68614449D01*
X55235519Y-68697519D01*
X55152449Y-68821842D01*
X54955220Y-69019071D01*
X54848481Y-69276762D01*
X54765410Y-69401086D01*
X54736240Y-69547735D01*
X54629500Y-69805427D01*
X54629500Y-70084352D01*
X54600330Y-70231000D01*
X54629500Y-70377648D01*
X54629500Y-70656573D01*
X54736240Y-70914265D01*
X54765410Y-71060914D01*
X54848481Y-71185238D01*
X54955220Y-71442929D01*
X55152449Y-71640158D01*
X55235519Y-71764481D01*
X55359842Y-71847551D01*
X55557071Y-72044780D01*
X55626000Y-72073331D01*
X55626000Y-81088669D01*
X55557071Y-81117220D01*
X55359842Y-81314449D01*
X55235519Y-81397519D01*
X55152449Y-81521842D01*
X54955220Y-81719071D01*
X54848481Y-81976762D01*
X54765410Y-82101086D01*
X54736240Y-82247735D01*
X54629500Y-82505427D01*
X54629500Y-82784352D01*
X54600330Y-82931000D01*
X54629500Y-83077648D01*
X54629500Y-83356573D01*
X54736240Y-83614265D01*
X54765410Y-83760914D01*
X54848481Y-83885238D01*
X54955220Y-84142929D01*
X55152449Y-84340158D01*
X55235519Y-84464481D01*
X55359842Y-84547551D01*
X55557071Y-84744780D01*
X55626000Y-84773331D01*
X55626000Y-93915669D01*
X55557071Y-93944220D01*
X55359842Y-94141449D01*
X55235519Y-94224519D01*
X55152449Y-94348842D01*
X54955220Y-94546071D01*
X54848481Y-94803762D01*
X54765410Y-94928086D01*
X54736240Y-95074735D01*
X54629500Y-95332427D01*
X54629500Y-95611352D01*
X54600330Y-95758000D01*
X54629500Y-95904648D01*
X54629500Y-96183573D01*
X54736240Y-96441265D01*
X54765410Y-96587914D01*
X54848481Y-96712238D01*
X54955220Y-96969929D01*
X55152449Y-97167158D01*
X55235519Y-97291481D01*
X55359842Y-97374551D01*
X55557071Y-97571780D01*
X55626000Y-97600331D01*
X55626000Y-106742669D01*
X55557071Y-106771220D01*
X55359842Y-106968449D01*
X55235519Y-107051519D01*
X55152449Y-107175842D01*
X54955220Y-107373071D01*
X54848481Y-107630762D01*
X54765410Y-107755086D01*
X54736240Y-107901735D01*
X54629500Y-108159427D01*
X54629500Y-108438352D01*
X54600330Y-108585000D01*
X54629500Y-108731648D01*
X54629500Y-109010573D01*
X54736240Y-109268265D01*
X54765410Y-109414914D01*
X54848481Y-109539238D01*
X54955220Y-109796929D01*
X55152449Y-109994158D01*
X55235519Y-110118481D01*
X55359842Y-110201551D01*
X55557071Y-110398780D01*
X55626000Y-110427331D01*
X55626000Y-119315669D01*
X55557071Y-119344220D01*
X55359842Y-119541449D01*
X55235519Y-119624519D01*
X55152449Y-119748842D01*
X54955220Y-119946071D01*
X54848479Y-120203766D01*
X54765411Y-120328086D01*
X54736242Y-120474730D01*
X54629500Y-120732427D01*
X54629500Y-121011357D01*
X54600331Y-121158000D01*
X54629500Y-121304643D01*
X54629500Y-121583573D01*
X54736242Y-121841270D01*
X54765411Y-121987914D01*
X54848479Y-122112235D01*
X54955220Y-122369929D01*
X55424449Y-122839158D01*
X55507519Y-122963481D01*
X55626000Y-123042648D01*
X55626000Y-127078402D01*
X49614000Y-121177736D01*
X49614000Y-79508153D01*
X49613998Y-79508143D01*
X49613999Y-69357154D01*
X53520540Y-65656221D01*
X55626000Y-65539251D01*
X55626000Y-68388669D01*
G36*
X136562197Y-72987803D02*
X136564959Y-72990481D01*
X137330000Y-73710520D01*
X137330001Y-122932867D01*
X135673345Y-124624037D01*
X131318000Y-128858400D01*
X131318000Y-122803764D01*
X131547198Y-122708827D01*
X131725827Y-122530199D01*
X131822500Y-122296810D01*
X131822500Y-121443750D01*
X131663750Y-121285000D01*
X131318000Y-121285000D01*
X131318000Y-121031000D01*
X131663750Y-121031000D01*
X131822500Y-120872250D01*
X131822500Y-120019190D01*
X131725827Y-119785801D01*
X131547198Y-119607173D01*
X131318000Y-119512236D01*
X131318000Y-119190331D01*
X131386929Y-119161780D01*
X131584158Y-118964551D01*
X131708481Y-118881481D01*
X131791551Y-118757158D01*
X131988780Y-118559929D01*
X132095519Y-118302238D01*
X132178590Y-118177914D01*
X132207760Y-118031265D01*
X132314500Y-117773573D01*
X132314500Y-117494648D01*
X132343670Y-117348000D01*
X132314500Y-117201352D01*
X132314500Y-116922427D01*
X132207760Y-116664735D01*
X132178590Y-116518086D01*
X132095519Y-116393762D01*
X131988780Y-116136071D01*
X131791551Y-115938842D01*
X131708481Y-115814519D01*
X131584158Y-115731449D01*
X131386929Y-115534220D01*
X131318000Y-115505669D01*
X131318000Y-110230764D01*
X131547198Y-110135827D01*
X131725827Y-109957199D01*
X131822500Y-109723810D01*
X131822500Y-108870750D01*
X131663750Y-108712000D01*
X131318000Y-108712000D01*
X131318000Y-108458000D01*
X131663750Y-108458000D01*
X131822500Y-108299250D01*
X131822500Y-107446190D01*
X131725827Y-107212801D01*
X131547198Y-107034173D01*
X131318000Y-106939236D01*
X131318000Y-106617331D01*
X131386929Y-106588780D01*
X131584158Y-106391551D01*
X131708481Y-106308481D01*
X131791551Y-106184158D01*
X131988780Y-105986929D01*
X132095519Y-105729238D01*
X132178590Y-105604914D01*
X132207760Y-105458265D01*
X132314500Y-105200573D01*
X132314500Y-104921648D01*
X132343670Y-104775000D01*
X132314500Y-104628352D01*
X132314500Y-104349427D01*
X132207760Y-104091735D01*
X132178590Y-103945086D01*
X132095519Y-103820762D01*
X131988780Y-103563071D01*
X131791551Y-103365842D01*
X131708481Y-103241519D01*
X131584158Y-103158449D01*
X131386929Y-102961220D01*
X131318000Y-102932669D01*
X131318000Y-97530764D01*
X131547198Y-97435827D01*
X131725827Y-97257199D01*
X131822500Y-97023810D01*
X131822500Y-96170750D01*
X131663750Y-96012000D01*
X131318000Y-96012000D01*
X131318000Y-95758000D01*
X131663750Y-95758000D01*
X131822500Y-95599250D01*
X131822500Y-94746190D01*
X131725827Y-94512801D01*
X131547198Y-94334173D01*
X131318000Y-94239236D01*
X131318000Y-93917331D01*
X131386929Y-93888780D01*
X131584158Y-93691551D01*
X131708481Y-93608481D01*
X131791551Y-93484158D01*
X131988780Y-93286929D01*
X132095521Y-93029234D01*
X132178589Y-92904914D01*
X132207758Y-92758270D01*
X132314500Y-92500573D01*
X132314500Y-92221643D01*
X132343669Y-92075000D01*
X132314500Y-91928357D01*
X132314500Y-91649427D01*
X132207758Y-91391730D01*
X132178589Y-91245086D01*
X132095521Y-91120765D01*
X131988780Y-90863071D01*
X131646551Y-90520842D01*
X131563481Y-90396519D01*
X131439158Y-90313449D01*
X131386929Y-90261220D01*
X131318689Y-90232954D01*
X131318000Y-90232494D01*
X131318000Y-84576764D01*
X131547198Y-84481827D01*
X131725827Y-84303199D01*
X131822500Y-84069810D01*
X131822500Y-83216750D01*
X131663750Y-83058000D01*
X131318000Y-83058000D01*
X131318000Y-82804000D01*
X131663750Y-82804000D01*
X131822500Y-82645250D01*
X131822500Y-81792190D01*
X131725827Y-81558801D01*
X131547198Y-81380173D01*
X131318000Y-81285236D01*
X131318000Y-80963331D01*
X131386929Y-80934780D01*
X131584158Y-80737551D01*
X131708481Y-80654481D01*
X131791551Y-80530158D01*
X131988780Y-80332929D01*
X132095519Y-80075238D01*
X132178590Y-79950914D01*
X132207760Y-79804265D01*
X132314500Y-79546573D01*
X132314500Y-79267648D01*
X132343670Y-79121000D01*
X132314500Y-78974352D01*
X132314500Y-78695427D01*
X132207760Y-78437735D01*
X132178590Y-78291086D01*
X132095519Y-78166762D01*
X131988780Y-77909071D01*
X131791551Y-77711842D01*
X131708481Y-77587519D01*
X131584158Y-77504449D01*
X131386929Y-77307220D01*
X131318000Y-77278669D01*
X131318000Y-71495764D01*
X131547198Y-71400827D01*
X131725827Y-71222199D01*
X131822500Y-70988810D01*
X131822500Y-70135750D01*
X131663750Y-69977000D01*
X131318000Y-69977000D01*
X131318000Y-69723000D01*
X131663750Y-69723000D01*
X131822500Y-69564250D01*
X131822500Y-68711190D01*
X131820764Y-68707000D01*
X132281394Y-68707000D01*
X136562197Y-72987803D01*
X136562197Y-72987803D01*
G37*
X136562197Y-72987803D02*
X136564959Y-72990481D01*
X137330000Y-73710520D01*
X137330001Y-122932867D01*
X135673345Y-124624037D01*
X131318000Y-128858400D01*
X131318000Y-122803764D01*
X131547198Y-122708827D01*
X131725827Y-122530199D01*
X131822500Y-122296810D01*
X131822500Y-121443750D01*
X131663750Y-121285000D01*
X131318000Y-121285000D01*
X131318000Y-121031000D01*
X131663750Y-121031000D01*
X131822500Y-120872250D01*
X131822500Y-120019190D01*
X131725827Y-119785801D01*
X131547198Y-119607173D01*
X131318000Y-119512236D01*
X131318000Y-119190331D01*
X131386929Y-119161780D01*
X131584158Y-118964551D01*
X131708481Y-118881481D01*
X131791551Y-118757158D01*
X131988780Y-118559929D01*
X132095519Y-118302238D01*
X132178590Y-118177914D01*
X132207760Y-118031265D01*
X132314500Y-117773573D01*
X132314500Y-117494648D01*
X132343670Y-117348000D01*
X132314500Y-117201352D01*
X132314500Y-116922427D01*
X132207760Y-116664735D01*
X132178590Y-116518086D01*
X132095519Y-116393762D01*
X131988780Y-116136071D01*
X131791551Y-115938842D01*
X131708481Y-115814519D01*
X131584158Y-115731449D01*
X131386929Y-115534220D01*
X131318000Y-115505669D01*
X131318000Y-110230764D01*
X131547198Y-110135827D01*
X131725827Y-109957199D01*
X131822500Y-109723810D01*
X131822500Y-108870750D01*
X131663750Y-108712000D01*
X131318000Y-108712000D01*
X131318000Y-108458000D01*
X131663750Y-108458000D01*
X131822500Y-108299250D01*
X131822500Y-107446190D01*
X131725827Y-107212801D01*
X131547198Y-107034173D01*
X131318000Y-106939236D01*
X131318000Y-106617331D01*
X131386929Y-106588780D01*
X131584158Y-106391551D01*
X131708481Y-106308481D01*
X131791551Y-106184158D01*
X131988780Y-105986929D01*
X132095519Y-105729238D01*
X132178590Y-105604914D01*
X132207760Y-105458265D01*
X132314500Y-105200573D01*
X132314500Y-104921648D01*
X132343670Y-104775000D01*
X132314500Y-104628352D01*
X132314500Y-104349427D01*
X132207760Y-104091735D01*
X132178590Y-103945086D01*
X132095519Y-103820762D01*
X131988780Y-103563071D01*
X131791551Y-103365842D01*
X131708481Y-103241519D01*
X131584158Y-103158449D01*
X131386929Y-102961220D01*
X131318000Y-102932669D01*
X131318000Y-97530764D01*
X131547198Y-97435827D01*
X131725827Y-97257199D01*
X131822500Y-97023810D01*
X131822500Y-96170750D01*
X131663750Y-96012000D01*
X131318000Y-96012000D01*
X131318000Y-95758000D01*
X131663750Y-95758000D01*
X131822500Y-95599250D01*
X131822500Y-94746190D01*
X131725827Y-94512801D01*
X131547198Y-94334173D01*
X131318000Y-94239236D01*
X131318000Y-93917331D01*
X131386929Y-93888780D01*
X131584158Y-93691551D01*
X131708481Y-93608481D01*
X131791551Y-93484158D01*
X131988780Y-93286929D01*
X132095521Y-93029234D01*
X132178589Y-92904914D01*
X132207758Y-92758270D01*
X132314500Y-92500573D01*
X132314500Y-92221643D01*
X132343669Y-92075000D01*
X132314500Y-91928357D01*
X132314500Y-91649427D01*
X132207758Y-91391730D01*
X132178589Y-91245086D01*
X132095521Y-91120765D01*
X131988780Y-90863071D01*
X131646551Y-90520842D01*
X131563481Y-90396519D01*
X131439158Y-90313449D01*
X131386929Y-90261220D01*
X131318689Y-90232954D01*
X131318000Y-90232494D01*
X131318000Y-84576764D01*
X131547198Y-84481827D01*
X131725827Y-84303199D01*
X131822500Y-84069810D01*
X131822500Y-83216750D01*
X131663750Y-83058000D01*
X131318000Y-83058000D01*
X131318000Y-82804000D01*
X131663750Y-82804000D01*
X131822500Y-82645250D01*
X131822500Y-81792190D01*
X131725827Y-81558801D01*
X131547198Y-81380173D01*
X131318000Y-81285236D01*
X131318000Y-80963331D01*
X131386929Y-80934780D01*
X131584158Y-80737551D01*
X131708481Y-80654481D01*
X131791551Y-80530158D01*
X131988780Y-80332929D01*
X132095519Y-80075238D01*
X132178590Y-79950914D01*
X132207760Y-79804265D01*
X132314500Y-79546573D01*
X132314500Y-79267648D01*
X132343670Y-79121000D01*
X132314500Y-78974352D01*
X132314500Y-78695427D01*
X132207760Y-78437735D01*
X132178590Y-78291086D01*
X132095519Y-78166762D01*
X131988780Y-77909071D01*
X131791551Y-77711842D01*
X131708481Y-77587519D01*
X131584158Y-77504449D01*
X131386929Y-77307220D01*
X131318000Y-77278669D01*
X131318000Y-71495764D01*
X131547198Y-71400827D01*
X131725827Y-71222199D01*
X131822500Y-70988810D01*
X131822500Y-70135750D01*
X131663750Y-69977000D01*
X131318000Y-69977000D01*
X131318000Y-69723000D01*
X131663750Y-69723000D01*
X131822500Y-69564250D01*
X131822500Y-68711190D01*
X131820764Y-68707000D01*
X132281394Y-68707000D01*
X136562197Y-72987803D01*
G36*
X137330001Y-123042989D02*
X128948436Y-131539370D01*
X126767059Y-133159821D01*
X118606759Y-133222113D01*
X118185080Y-128643882D01*
X125292175Y-128269824D01*
X125349132Y-128252909D01*
X127762132Y-126855909D01*
X127794171Y-126829523D01*
X128337291Y-126207403D01*
X128377522Y-126180522D01*
X128432202Y-126098687D01*
X131260652Y-122858826D01*
X137330001Y-121314869D01*
X137330001Y-123042989D01*
X137330001Y-123042989D01*
G37*
X137330001Y-123042989D02*
X128948436Y-131539370D01*
X126767059Y-133159821D01*
X118606759Y-133222113D01*
X118185080Y-128643882D01*
X125292175Y-128269824D01*
X125349132Y-128252909D01*
X127762132Y-126855909D01*
X127794171Y-126829523D01*
X128337291Y-126207403D01*
X128377522Y-126180522D01*
X128432202Y-126098687D01*
X131260652Y-122858826D01*
X137330001Y-121314869D01*
X137330001Y-123042989D01*
G36*
X111640070Y-132641970D02*
X96892451Y-132192043D01*
X96990257Y-132094237D01*
X97394000Y-131119516D01*
X97394000Y-130064484D01*
X96990257Y-129089763D01*
X96244237Y-128343743D01*
X95269516Y-127940000D01*
X94214484Y-127940000D01*
X93239763Y-128343743D01*
X92493743Y-129089763D01*
X92090000Y-130064484D01*
X92090000Y-131119516D01*
X92478476Y-132057379D01*
X74796489Y-131517929D01*
X83912243Y-122967750D01*
X91592000Y-122967750D01*
X91592000Y-123573310D01*
X91688673Y-123806699D01*
X91867302Y-123985327D01*
X92100691Y-124082000D01*
X92706250Y-124082000D01*
X92865000Y-123923250D01*
X92865000Y-122809000D01*
X93119000Y-122809000D01*
X93119000Y-123923250D01*
X93277750Y-124082000D01*
X93883309Y-124082000D01*
X94116698Y-123985327D01*
X94295327Y-123806699D01*
X94392000Y-123573310D01*
X94392000Y-122967750D01*
X94233250Y-122809000D01*
X93119000Y-122809000D01*
X92865000Y-122809000D01*
X91750750Y-122809000D01*
X91592000Y-122967750D01*
X83912243Y-122967750D01*
X85167162Y-121790690D01*
X91592000Y-121790690D01*
X91592000Y-122396250D01*
X91750750Y-122555000D01*
X92865000Y-122555000D01*
X92865000Y-121440750D01*
X93119000Y-121440750D01*
X93119000Y-122555000D01*
X94233250Y-122555000D01*
X94392000Y-122396250D01*
X94392000Y-122305658D01*
X94600000Y-122305658D01*
X94600000Y-123058342D01*
X94888040Y-123753732D01*
X95420268Y-124285960D01*
X96115658Y-124574000D01*
X96868342Y-124574000D01*
X97563732Y-124285960D01*
X98095960Y-123753732D01*
X98384000Y-123058342D01*
X98384000Y-122305658D01*
X98095960Y-121610268D01*
X97563732Y-121078040D01*
X96868342Y-120790000D01*
X96115658Y-120790000D01*
X95420268Y-121078040D01*
X94888040Y-121610268D01*
X94600000Y-122305658D01*
X94392000Y-122305658D01*
X94392000Y-121790690D01*
X94295327Y-121557301D01*
X94116698Y-121378673D01*
X93883309Y-121282000D01*
X93277750Y-121282000D01*
X93119000Y-121440750D01*
X92865000Y-121440750D01*
X92706250Y-121282000D01*
X92100691Y-121282000D01*
X91867302Y-121378673D01*
X91688673Y-121557301D01*
X91592000Y-121790690D01*
X85167162Y-121790690D01*
X89699293Y-117539750D01*
X91656000Y-117539750D01*
X91656000Y-119130309D01*
X91752673Y-119363698D01*
X91931301Y-119542327D01*
X92164690Y-119639000D01*
X92805250Y-119639000D01*
X92964000Y-119480250D01*
X92964000Y-117381000D01*
X93218000Y-117381000D01*
X93218000Y-119480250D01*
X93376750Y-119639000D01*
X94017310Y-119639000D01*
X94250699Y-119542327D01*
X94429327Y-119363698D01*
X94526000Y-119130309D01*
X94526000Y-117539750D01*
X94367250Y-117381000D01*
X93218000Y-117381000D01*
X92964000Y-117381000D01*
X91814750Y-117381000D01*
X91656000Y-117539750D01*
X89699293Y-117539750D01*
X91656000Y-115704445D01*
X91656000Y-116968250D01*
X91814750Y-117127000D01*
X92964000Y-117127000D01*
X92964000Y-117107000D01*
X93218000Y-117107000D01*
X93218000Y-117127000D01*
X94367250Y-117127000D01*
X94526000Y-116968250D01*
X94526000Y-115377691D01*
X94505892Y-115329146D01*
X94754230Y-115318349D01*
X111640070Y-132641970D01*
X111640070Y-132641970D01*
G37*
X111640070Y-132641970D02*
X96892451Y-132192043D01*
X96990257Y-132094237D01*
X97394000Y-131119516D01*
X97394000Y-130064484D01*
X96990257Y-129089763D01*
X96244237Y-128343743D01*
X95269516Y-127940000D01*
X94214484Y-127940000D01*
X93239763Y-128343743D01*
X92493743Y-129089763D01*
X92090000Y-130064484D01*
X92090000Y-131119516D01*
X92478476Y-132057379D01*
X74796489Y-131517929D01*
X83912243Y-122967750D01*
X91592000Y-122967750D01*
X91592000Y-123573310D01*
X91688673Y-123806699D01*
X91867302Y-123985327D01*
X92100691Y-124082000D01*
X92706250Y-124082000D01*
X92865000Y-123923250D01*
X92865000Y-122809000D01*
X93119000Y-122809000D01*
X93119000Y-123923250D01*
X93277750Y-124082000D01*
X93883309Y-124082000D01*
X94116698Y-123985327D01*
X94295327Y-123806699D01*
X94392000Y-123573310D01*
X94392000Y-122967750D01*
X94233250Y-122809000D01*
X93119000Y-122809000D01*
X92865000Y-122809000D01*
X91750750Y-122809000D01*
X91592000Y-122967750D01*
X83912243Y-122967750D01*
X85167162Y-121790690D01*
X91592000Y-121790690D01*
X91592000Y-122396250D01*
X91750750Y-122555000D01*
X92865000Y-122555000D01*
X92865000Y-121440750D01*
X93119000Y-121440750D01*
X93119000Y-122555000D01*
X94233250Y-122555000D01*
X94392000Y-122396250D01*
X94392000Y-122305658D01*
X94600000Y-122305658D01*
X94600000Y-123058342D01*
X94888040Y-123753732D01*
X95420268Y-124285960D01*
X96115658Y-124574000D01*
X96868342Y-124574000D01*
X97563732Y-124285960D01*
X98095960Y-123753732D01*
X98384000Y-123058342D01*
X98384000Y-122305658D01*
X98095960Y-121610268D01*
X97563732Y-121078040D01*
X96868342Y-120790000D01*
X96115658Y-120790000D01*
X95420268Y-121078040D01*
X94888040Y-121610268D01*
X94600000Y-122305658D01*
X94392000Y-122305658D01*
X94392000Y-121790690D01*
X94295327Y-121557301D01*
X94116698Y-121378673D01*
X93883309Y-121282000D01*
X93277750Y-121282000D01*
X93119000Y-121440750D01*
X92865000Y-121440750D01*
X92706250Y-121282000D01*
X92100691Y-121282000D01*
X91867302Y-121378673D01*
X91688673Y-121557301D01*
X91592000Y-121790690D01*
X85167162Y-121790690D01*
X89699293Y-117539750D01*
X91656000Y-117539750D01*
X91656000Y-119130309D01*
X91752673Y-119363698D01*
X91931301Y-119542327D01*
X92164690Y-119639000D01*
X92805250Y-119639000D01*
X92964000Y-119480250D01*
X92964000Y-117381000D01*
X93218000Y-117381000D01*
X93218000Y-119480250D01*
X93376750Y-119639000D01*
X94017310Y-119639000D01*
X94250699Y-119542327D01*
X94429327Y-119363698D01*
X94526000Y-119130309D01*
X94526000Y-117539750D01*
X94367250Y-117381000D01*
X93218000Y-117381000D01*
X92964000Y-117381000D01*
X91814750Y-117381000D01*
X91656000Y-117539750D01*
X89699293Y-117539750D01*
X91656000Y-115704445D01*
X91656000Y-116968250D01*
X91814750Y-117127000D01*
X92964000Y-117127000D01*
X92964000Y-117107000D01*
X93218000Y-117107000D01*
X93218000Y-117127000D01*
X94367250Y-117127000D01*
X94526000Y-116968250D01*
X94526000Y-115377691D01*
X94505892Y-115329146D01*
X94754230Y-115318349D01*
X111640070Y-132641970D01*
G36*
X107166691Y-133150285D02*
X103722412Y-134795885D01*
X103697847Y-134790999D01*
X85536153Y-134790999D01*
X85506528Y-134796892D01*
X85479963Y-134798191D01*
X85457256Y-134803580D01*
X85434029Y-134801302D01*
X85198608Y-134845147D01*
X85075106Y-134880911D01*
X79189275Y-132031421D01*
X84441415Y-130064484D01*
X92090000Y-130064484D01*
X92090000Y-131119516D01*
X92493743Y-132094237D01*
X93239763Y-132840257D01*
X94214484Y-133244000D01*
X95269516Y-133244000D01*
X96244237Y-132840257D01*
X96990257Y-132094237D01*
X97394000Y-131119516D01*
X97394000Y-130064484D01*
X96990257Y-129089763D01*
X96244237Y-128343743D01*
X95269516Y-127940000D01*
X94214484Y-127940000D01*
X93239763Y-128343743D01*
X92493743Y-129089763D01*
X92090000Y-130064484D01*
X84441415Y-130064484D01*
X94794704Y-126187157D01*
X107166691Y-133150285D01*
X107166691Y-133150285D01*
G37*
X107166691Y-133150285D02*
X103722412Y-134795885D01*
X103697847Y-134790999D01*
X85536153Y-134790999D01*
X85506528Y-134796892D01*
X85479963Y-134798191D01*
X85457256Y-134803580D01*
X85434029Y-134801302D01*
X85198608Y-134845147D01*
X85075106Y-134880911D01*
X79189275Y-132031421D01*
X84441415Y-130064484D01*
X92090000Y-130064484D01*
X92090000Y-131119516D01*
X92493743Y-132094237D01*
X93239763Y-132840257D01*
X94214484Y-133244000D01*
X95269516Y-133244000D01*
X96244237Y-132840257D01*
X96990257Y-132094237D01*
X97394000Y-131119516D01*
X97394000Y-130064484D01*
X96990257Y-129089763D01*
X96244237Y-128343743D01*
X95269516Y-127940000D01*
X94214484Y-127940000D01*
X93239763Y-128343743D01*
X92493743Y-129089763D01*
X92090000Y-130064484D01*
X84441415Y-130064484D01*
X94794704Y-126187157D01*
X107166691Y-133150285D01*
G36*
X138130000Y-74718662D02*
X132120457Y-68820406D01*
X133452413Y-67004103D01*
X133473358Y-66959194D01*
X133477000Y-66929000D01*
X133477000Y-65659000D01*
X133467333Y-65610399D01*
X133431028Y-65561207D01*
X128986028Y-61878207D01*
X128942437Y-61854643D01*
X128905000Y-61849000D01*
X102882146Y-61849000D01*
X102235000Y-61201854D01*
X102235000Y-59309000D01*
X138130000Y-59309000D01*
X138130000Y-74718662D01*
X138130000Y-74718662D01*
G37*
X138130000Y-74718662D02*
X132120457Y-68820406D01*
X133452413Y-67004103D01*
X133473358Y-66959194D01*
X133477000Y-66929000D01*
X133477000Y-65659000D01*
X133467333Y-65610399D01*
X133431028Y-65561207D01*
X128986028Y-61878207D01*
X128942437Y-61854643D01*
X128905000Y-61849000D01*
X102882146Y-61849000D01*
X102235000Y-61201854D01*
X102235000Y-59309000D01*
X138130000Y-59309000D01*
X138130000Y-74718662D01*
G04 #@! TD*
M02*
