%TF.GenerationSoftware,KiCad,Pcbnew,5.0.1*%
%TF.CreationDate,2019-04-07T10:09:51+02:00*%
%TF.ProjectId,OIBUS_MOSFET_driver_module,4F494255535F4D4F534645545F647269,rev?*%
%TF.SameCoordinates,Original*%
%TF.FileFunction,Legend,Bot*%
%TF.FilePolarity,Positive*%
%FSLAX46Y46*%
G04 Gerber Fmt 4.6, Leading zero omitted, Abs format (unit mm)*
G04 Created by KiCad (PCBNEW 5.0.1) date Sun 07 Apr 2019 10:09:51 AM CEST*
%MOMM*%
%LPD*%
G01*
G04 APERTURE LIST*
%ADD10C,0.300000*%
%ADD11C,0.200000*%
%ADD12C,0.120000*%
%ADD13C,0.150000*%
G04 APERTURE END LIST*
D10*
X125412571Y-58541457D02*
X125912571Y-58541457D01*
X125912571Y-59327171D02*
X125912571Y-57827171D01*
X125198285Y-57827171D01*
X124412571Y-59327171D02*
X124555428Y-59255742D01*
X124626857Y-59184314D01*
X124698285Y-59041457D01*
X124698285Y-58612885D01*
X124626857Y-58470028D01*
X124555428Y-58398600D01*
X124412571Y-58327171D01*
X124198285Y-58327171D01*
X124055428Y-58398600D01*
X123984000Y-58470028D01*
X123912571Y-58612885D01*
X123912571Y-59041457D01*
X123984000Y-59184314D01*
X124055428Y-59255742D01*
X124198285Y-59327171D01*
X124412571Y-59327171D01*
X123269714Y-59327171D02*
X123269714Y-58327171D01*
X123269714Y-58612885D02*
X123198285Y-58470028D01*
X123126857Y-58398600D01*
X122984000Y-58327171D01*
X122841142Y-58327171D01*
X121198285Y-58327171D02*
X121198285Y-59827171D01*
X121198285Y-58398600D02*
X121055428Y-58327171D01*
X120769714Y-58327171D01*
X120626857Y-58398600D01*
X120555428Y-58470028D01*
X120484000Y-58612885D01*
X120484000Y-59041457D01*
X120555428Y-59184314D01*
X120626857Y-59255742D01*
X120769714Y-59327171D01*
X121055428Y-59327171D01*
X121198285Y-59255742D01*
X119841142Y-59327171D02*
X119841142Y-58327171D01*
X119841142Y-58612885D02*
X119769714Y-58470028D01*
X119698285Y-58398600D01*
X119555428Y-58327171D01*
X119412571Y-58327171D01*
X118698285Y-59327171D02*
X118841142Y-59255742D01*
X118912571Y-59184314D01*
X118984000Y-59041457D01*
X118984000Y-58612885D01*
X118912571Y-58470028D01*
X118841142Y-58398600D01*
X118698285Y-58327171D01*
X118484000Y-58327171D01*
X118341142Y-58398600D01*
X118269714Y-58470028D01*
X118198285Y-58612885D01*
X118198285Y-59041457D01*
X118269714Y-59184314D01*
X118341142Y-59255742D01*
X118484000Y-59327171D01*
X118698285Y-59327171D01*
X117769714Y-58327171D02*
X117198285Y-58327171D01*
X117555428Y-57827171D02*
X117555428Y-59112885D01*
X117484000Y-59255742D01*
X117341142Y-59327171D01*
X117198285Y-59327171D01*
X116484000Y-59327171D02*
X116626857Y-59255742D01*
X116698285Y-59184314D01*
X116769714Y-59041457D01*
X116769714Y-58612885D01*
X116698285Y-58470028D01*
X116626857Y-58398600D01*
X116484000Y-58327171D01*
X116269714Y-58327171D01*
X116126857Y-58398600D01*
X116055428Y-58470028D01*
X115984000Y-58612885D01*
X115984000Y-59041457D01*
X116055428Y-59184314D01*
X116126857Y-59255742D01*
X116269714Y-59327171D01*
X116484000Y-59327171D01*
X115555428Y-58327171D02*
X114984000Y-58327171D01*
X115341142Y-57827171D02*
X115341142Y-59112885D01*
X115269714Y-59255742D01*
X115126857Y-59327171D01*
X114984000Y-59327171D01*
X114626857Y-58327171D02*
X114269714Y-59327171D01*
X113912571Y-58327171D02*
X114269714Y-59327171D01*
X114412571Y-59684314D01*
X114484000Y-59755742D01*
X114626857Y-59827171D01*
X113341142Y-58327171D02*
X113341142Y-59827171D01*
X113341142Y-58398600D02*
X113198285Y-58327171D01*
X112912571Y-58327171D01*
X112769714Y-58398600D01*
X112698285Y-58470028D01*
X112626857Y-58612885D01*
X112626857Y-59041457D01*
X112698285Y-59184314D01*
X112769714Y-59255742D01*
X112912571Y-59327171D01*
X113198285Y-59327171D01*
X113341142Y-59255742D01*
X111984000Y-59327171D02*
X111984000Y-58327171D01*
X111984000Y-57827171D02*
X112055428Y-57898600D01*
X111984000Y-57970028D01*
X111912571Y-57898600D01*
X111984000Y-57827171D01*
X111984000Y-57970028D01*
X111269714Y-58327171D02*
X111269714Y-59327171D01*
X111269714Y-58470028D02*
X111198285Y-58398600D01*
X111055428Y-58327171D01*
X110841142Y-58327171D01*
X110698285Y-58398600D01*
X110626857Y-58541457D01*
X110626857Y-59327171D01*
X109269714Y-58327171D02*
X109269714Y-59541457D01*
X109341142Y-59684314D01*
X109412571Y-59755742D01*
X109555428Y-59827171D01*
X109769714Y-59827171D01*
X109912571Y-59755742D01*
X109269714Y-59255742D02*
X109412571Y-59327171D01*
X109698285Y-59327171D01*
X109841142Y-59255742D01*
X109912571Y-59184314D01*
X109984000Y-59041457D01*
X109984000Y-58612885D01*
X109912571Y-58470028D01*
X109841142Y-58398600D01*
X109698285Y-58327171D01*
X109412571Y-58327171D01*
X109269714Y-58398600D01*
X107412571Y-58327171D02*
X107412571Y-59827171D01*
X107412571Y-58398600D02*
X107269714Y-58327171D01*
X106984000Y-58327171D01*
X106841142Y-58398600D01*
X106769714Y-58470028D01*
X106698285Y-58612885D01*
X106698285Y-59041457D01*
X106769714Y-59184314D01*
X106841142Y-59255742D01*
X106984000Y-59327171D01*
X107269714Y-59327171D01*
X107412571Y-59255742D01*
X105412571Y-58327171D02*
X105412571Y-59327171D01*
X106055428Y-58327171D02*
X106055428Y-59112885D01*
X105984000Y-59255742D01*
X105841142Y-59327171D01*
X105626857Y-59327171D01*
X105484000Y-59255742D01*
X105412571Y-59184314D01*
X104698285Y-59327171D02*
X104698285Y-58327171D01*
X104698285Y-58612885D02*
X104626857Y-58470028D01*
X104555428Y-58398600D01*
X104412571Y-58327171D01*
X104269714Y-58327171D01*
X103769714Y-58327171D02*
X103769714Y-59827171D01*
X103769714Y-58398600D02*
X103626857Y-58327171D01*
X103341142Y-58327171D01*
X103198285Y-58398600D01*
X103126857Y-58470028D01*
X103055428Y-58612885D01*
X103055428Y-59041457D01*
X103126857Y-59184314D01*
X103198285Y-59255742D01*
X103341142Y-59327171D01*
X103626857Y-59327171D01*
X103769714Y-59255742D01*
X102198285Y-59327171D02*
X102341142Y-59255742D01*
X102412571Y-59184314D01*
X102484000Y-59041457D01*
X102484000Y-58612885D01*
X102412571Y-58470028D01*
X102341142Y-58398600D01*
X102198285Y-58327171D01*
X101984000Y-58327171D01*
X101841142Y-58398600D01*
X101769714Y-58470028D01*
X101698285Y-58612885D01*
X101698285Y-59041457D01*
X101769714Y-59184314D01*
X101841142Y-59255742D01*
X101984000Y-59327171D01*
X102198285Y-59327171D01*
X101126857Y-59255742D02*
X100984000Y-59327171D01*
X100698285Y-59327171D01*
X100555428Y-59255742D01*
X100484000Y-59112885D01*
X100484000Y-59041457D01*
X100555428Y-58898600D01*
X100698285Y-58827171D01*
X100912571Y-58827171D01*
X101055428Y-58755742D01*
X101126857Y-58612885D01*
X101126857Y-58541457D01*
X101055428Y-58398600D01*
X100912571Y-58327171D01*
X100698285Y-58327171D01*
X100555428Y-58398600D01*
X99269714Y-59255742D02*
X99412571Y-59327171D01*
X99698285Y-59327171D01*
X99841142Y-59255742D01*
X99912571Y-59112885D01*
X99912571Y-58541457D01*
X99841142Y-58398600D01*
X99698285Y-58327171D01*
X99412571Y-58327171D01*
X99269714Y-58398600D01*
X99198285Y-58541457D01*
X99198285Y-58684314D01*
X99912571Y-58827171D01*
X98626857Y-59255742D02*
X98484000Y-59327171D01*
X98198285Y-59327171D01*
X98055428Y-59255742D01*
X97984000Y-59112885D01*
X97984000Y-59041457D01*
X98055428Y-58898600D01*
X98198285Y-58827171D01*
X98412571Y-58827171D01*
X98555428Y-58755742D01*
X98626857Y-58612885D01*
X98626857Y-58541457D01*
X98555428Y-58398600D01*
X98412571Y-58327171D01*
X98198285Y-58327171D01*
X98055428Y-58398600D01*
X95983999Y-59327171D02*
X96126857Y-59255742D01*
X96198285Y-59184314D01*
X96269714Y-59041457D01*
X96269714Y-58612885D01*
X96198285Y-58470028D01*
X96126857Y-58398600D01*
X95983999Y-58327171D01*
X95769714Y-58327171D01*
X95626857Y-58398600D01*
X95555428Y-58470028D01*
X95483999Y-58612885D01*
X95483999Y-59041457D01*
X95555428Y-59184314D01*
X95626857Y-59255742D01*
X95769714Y-59327171D01*
X95983999Y-59327171D01*
X94841142Y-58327171D02*
X94841142Y-59327171D01*
X94841142Y-58470028D02*
X94769714Y-58398600D01*
X94626857Y-58327171D01*
X94412571Y-58327171D01*
X94269714Y-58398600D01*
X94198285Y-58541457D01*
X94198285Y-59327171D01*
X93269714Y-59327171D02*
X93412571Y-59255742D01*
X93483999Y-59112885D01*
X93483999Y-57827171D01*
X92841142Y-58327171D02*
X92483999Y-59327171D01*
X92126857Y-58327171D02*
X92483999Y-59327171D01*
X92626857Y-59684314D01*
X92698285Y-59755742D01*
X92841142Y-59827171D01*
X91483999Y-59255742D02*
X91483999Y-59327171D01*
X91555428Y-59470028D01*
X91626857Y-59541457D01*
X89698285Y-58327171D02*
X89698285Y-59327171D01*
X89698285Y-58470028D02*
X89626857Y-58398600D01*
X89483999Y-58327171D01*
X89269714Y-58327171D01*
X89126857Y-58398600D01*
X89055428Y-58541457D01*
X89055428Y-59327171D01*
X88126857Y-59327171D02*
X88269714Y-59255742D01*
X88341142Y-59184314D01*
X88412571Y-59041457D01*
X88412571Y-58612885D01*
X88341142Y-58470028D01*
X88269714Y-58398600D01*
X88126857Y-58327171D01*
X87912571Y-58327171D01*
X87769714Y-58398600D01*
X87698285Y-58470028D01*
X87626857Y-58612885D01*
X87626857Y-59041457D01*
X87698285Y-59184314D01*
X87769714Y-59255742D01*
X87912571Y-59327171D01*
X88126857Y-59327171D01*
X87198285Y-58327171D02*
X86626857Y-58327171D01*
X86983999Y-57827171D02*
X86983999Y-59112885D01*
X86912571Y-59255742D01*
X86769714Y-59327171D01*
X86626857Y-59327171D01*
X84341142Y-59327171D02*
X84341142Y-58541457D01*
X84412571Y-58398600D01*
X84555428Y-58327171D01*
X84841142Y-58327171D01*
X84983999Y-58398600D01*
X84341142Y-59255742D02*
X84483999Y-59327171D01*
X84841142Y-59327171D01*
X84983999Y-59255742D01*
X85055428Y-59112885D01*
X85055428Y-58970028D01*
X84983999Y-58827171D01*
X84841142Y-58755742D01*
X84483999Y-58755742D01*
X84341142Y-58684314D01*
X83626857Y-58327171D02*
X83626857Y-59827171D01*
X83626857Y-58398600D02*
X83483999Y-58327171D01*
X83198285Y-58327171D01*
X83055428Y-58398600D01*
X82983999Y-58470028D01*
X82912571Y-58612885D01*
X82912571Y-59041457D01*
X82983999Y-59184314D01*
X83055428Y-59255742D01*
X83198285Y-59327171D01*
X83483999Y-59327171D01*
X83626857Y-59255742D01*
X82269714Y-58327171D02*
X82269714Y-59827171D01*
X82269714Y-58398600D02*
X82126857Y-58327171D01*
X81841142Y-58327171D01*
X81698285Y-58398600D01*
X81626857Y-58470028D01*
X81555428Y-58612885D01*
X81555428Y-59041457D01*
X81626857Y-59184314D01*
X81698285Y-59255742D01*
X81841142Y-59327171D01*
X82126857Y-59327171D01*
X82269714Y-59255742D01*
X80912571Y-59327171D02*
X80912571Y-58327171D01*
X80912571Y-58612885D02*
X80841142Y-58470028D01*
X80769714Y-58398600D01*
X80626857Y-58327171D01*
X80483999Y-58327171D01*
X79769714Y-59327171D02*
X79912571Y-59255742D01*
X79983999Y-59184314D01*
X80055428Y-59041457D01*
X80055428Y-58612885D01*
X79983999Y-58470028D01*
X79912571Y-58398600D01*
X79769714Y-58327171D01*
X79555428Y-58327171D01*
X79412571Y-58398600D01*
X79341142Y-58470028D01*
X79269714Y-58612885D01*
X79269714Y-59041457D01*
X79341142Y-59184314D01*
X79412571Y-59255742D01*
X79555428Y-59327171D01*
X79769714Y-59327171D01*
X78769714Y-58327171D02*
X78412571Y-59327171D01*
X78055428Y-58327171D01*
X76912571Y-59255742D02*
X77055428Y-59327171D01*
X77341142Y-59327171D01*
X77483999Y-59255742D01*
X77555428Y-59112885D01*
X77555428Y-58541457D01*
X77483999Y-58398600D01*
X77341142Y-58327171D01*
X77055428Y-58327171D01*
X76912571Y-58398600D01*
X76841142Y-58541457D01*
X76841142Y-58684314D01*
X77555428Y-58827171D01*
X75555428Y-59327171D02*
X75555428Y-57827171D01*
X75555428Y-59255742D02*
X75698285Y-59327171D01*
X75983999Y-59327171D01*
X76126857Y-59255742D01*
X76198285Y-59184314D01*
X76269714Y-59041457D01*
X76269714Y-58612885D01*
X76198285Y-58470028D01*
X76126857Y-58398600D01*
X75983999Y-58327171D01*
X75698285Y-58327171D01*
X75555428Y-58398600D01*
X73912571Y-58327171D02*
X73341142Y-58327171D01*
X73698285Y-59327171D02*
X73698285Y-58041457D01*
X73626857Y-57898600D01*
X73483999Y-57827171D01*
X73341142Y-57827171D01*
X72626857Y-59327171D02*
X72769714Y-59255742D01*
X72841142Y-59184314D01*
X72912571Y-59041457D01*
X72912571Y-58612885D01*
X72841142Y-58470028D01*
X72769714Y-58398600D01*
X72626857Y-58327171D01*
X72412571Y-58327171D01*
X72269714Y-58398600D01*
X72198285Y-58470028D01*
X72126857Y-58612885D01*
X72126857Y-59041457D01*
X72198285Y-59184314D01*
X72269714Y-59255742D01*
X72412571Y-59327171D01*
X72626857Y-59327171D01*
X71483999Y-59327171D02*
X71483999Y-58327171D01*
X71483999Y-58612885D02*
X71412571Y-58470028D01*
X71341142Y-58398600D01*
X71198285Y-58327171D01*
X71055428Y-58327171D01*
X69412571Y-59327171D02*
X69412571Y-58327171D01*
X69412571Y-58612885D02*
X69341142Y-58470028D01*
X69269714Y-58398600D01*
X69126857Y-58327171D01*
X68983999Y-58327171D01*
X67912571Y-59255742D02*
X68055428Y-59327171D01*
X68341142Y-59327171D01*
X68483999Y-59255742D01*
X68555428Y-59112885D01*
X68555428Y-58541457D01*
X68483999Y-58398600D01*
X68341142Y-58327171D01*
X68055428Y-58327171D01*
X67912571Y-58398600D01*
X67841142Y-58541457D01*
X67841142Y-58684314D01*
X68555428Y-58827171D01*
X67269714Y-59255742D02*
X67126857Y-59327171D01*
X66841142Y-59327171D01*
X66698285Y-59255742D01*
X66626857Y-59112885D01*
X66626857Y-59041457D01*
X66698285Y-58898600D01*
X66841142Y-58827171D01*
X67055428Y-58827171D01*
X67198285Y-58755742D01*
X67269714Y-58612885D01*
X67269714Y-58541457D01*
X67198285Y-58398600D01*
X67055428Y-58327171D01*
X66841142Y-58327171D01*
X66698285Y-58398600D01*
X65341142Y-59327171D02*
X65341142Y-58541457D01*
X65412571Y-58398600D01*
X65555428Y-58327171D01*
X65841142Y-58327171D01*
X65983999Y-58398600D01*
X65341142Y-59255742D02*
X65483999Y-59327171D01*
X65841142Y-59327171D01*
X65983999Y-59255742D01*
X66055428Y-59112885D01*
X66055428Y-58970028D01*
X65983999Y-58827171D01*
X65841142Y-58755742D01*
X65483999Y-58755742D01*
X65341142Y-58684314D01*
X64412571Y-59327171D02*
X64555428Y-59255742D01*
X64626857Y-59112885D01*
X64626857Y-57827171D01*
X63269714Y-59255742D02*
X63412571Y-59327171D01*
X63698285Y-59327171D01*
X63841142Y-59255742D01*
X63912571Y-59112885D01*
X63912571Y-58541457D01*
X63841142Y-58398600D01*
X63698285Y-58327171D01*
X63412571Y-58327171D01*
X63269714Y-58398600D01*
X63198285Y-58541457D01*
X63198285Y-58684314D01*
X63912571Y-58827171D01*
X62555428Y-59184314D02*
X62483999Y-59255742D01*
X62555428Y-59327171D01*
X62626857Y-59255742D01*
X62555428Y-59184314D01*
X62555428Y-59327171D01*
X92985785Y-113336571D02*
X92700071Y-113336571D01*
X92557214Y-113408000D01*
X92414357Y-113550857D01*
X92342928Y-113836571D01*
X92342928Y-114336571D01*
X92414357Y-114622285D01*
X92557214Y-114765142D01*
X92700071Y-114836571D01*
X92985785Y-114836571D01*
X93128642Y-114765142D01*
X93271500Y-114622285D01*
X93342928Y-114336571D01*
X93342928Y-113836571D01*
X93271500Y-113550857D01*
X93128642Y-113408000D01*
X92985785Y-113336571D01*
X91700071Y-114836571D02*
X91700071Y-113336571D01*
X90485785Y-114050857D02*
X90271500Y-114122285D01*
X90200071Y-114193714D01*
X90128642Y-114336571D01*
X90128642Y-114550857D01*
X90200071Y-114693714D01*
X90271500Y-114765142D01*
X90414357Y-114836571D01*
X90985785Y-114836571D01*
X90985785Y-113336571D01*
X90485785Y-113336571D01*
X90342928Y-113408000D01*
X90271500Y-113479428D01*
X90200071Y-113622285D01*
X90200071Y-113765142D01*
X90271500Y-113908000D01*
X90342928Y-113979428D01*
X90485785Y-114050857D01*
X90985785Y-114050857D01*
X89485785Y-113336571D02*
X89485785Y-114550857D01*
X89414357Y-114693714D01*
X89342928Y-114765142D01*
X89200071Y-114836571D01*
X88914357Y-114836571D01*
X88771500Y-114765142D01*
X88700071Y-114693714D01*
X88628642Y-114550857D01*
X88628642Y-113336571D01*
X87985785Y-114765142D02*
X87771500Y-114836571D01*
X87414357Y-114836571D01*
X87271500Y-114765142D01*
X87200071Y-114693714D01*
X87128642Y-114550857D01*
X87128642Y-114408000D01*
X87200071Y-114265142D01*
X87271500Y-114193714D01*
X87414357Y-114122285D01*
X87700071Y-114050857D01*
X87842928Y-113979428D01*
X87914357Y-113908000D01*
X87985785Y-113765142D01*
X87985785Y-113622285D01*
X87914357Y-113479428D01*
X87842928Y-113408000D01*
X87700071Y-113336571D01*
X87342928Y-113336571D01*
X87128642Y-113408000D01*
X85342928Y-114836571D02*
X85342928Y-113336571D01*
X84842928Y-114408000D01*
X84342928Y-113336571D01*
X84342928Y-114836571D01*
X83342928Y-113336571D02*
X83057214Y-113336571D01*
X82914357Y-113408000D01*
X82771500Y-113550857D01*
X82700071Y-113836571D01*
X82700071Y-114336571D01*
X82771500Y-114622285D01*
X82914357Y-114765142D01*
X83057214Y-114836571D01*
X83342928Y-114836571D01*
X83485785Y-114765142D01*
X83628642Y-114622285D01*
X83700071Y-114336571D01*
X83700071Y-113836571D01*
X83628642Y-113550857D01*
X83485785Y-113408000D01*
X83342928Y-113336571D01*
X82128642Y-114765142D02*
X81914357Y-114836571D01*
X81557214Y-114836571D01*
X81414357Y-114765142D01*
X81342928Y-114693714D01*
X81271500Y-114550857D01*
X81271500Y-114408000D01*
X81342928Y-114265142D01*
X81414357Y-114193714D01*
X81557214Y-114122285D01*
X81842928Y-114050857D01*
X81985785Y-113979428D01*
X82057214Y-113908000D01*
X82128642Y-113765142D01*
X82128642Y-113622285D01*
X82057214Y-113479428D01*
X81985785Y-113408000D01*
X81842928Y-113336571D01*
X81485785Y-113336571D01*
X81271500Y-113408000D01*
X80128642Y-114050857D02*
X80628642Y-114050857D01*
X80628642Y-114836571D02*
X80628642Y-113336571D01*
X79914357Y-113336571D01*
X79342928Y-114050857D02*
X78842928Y-114050857D01*
X78628642Y-114836571D02*
X79342928Y-114836571D01*
X79342928Y-113336571D01*
X78628642Y-113336571D01*
X78200071Y-113336571D02*
X77342928Y-113336571D01*
X77771500Y-114836571D02*
X77771500Y-113336571D01*
X75057214Y-114836571D02*
X75057214Y-113336571D01*
X75057214Y-114765142D02*
X75200071Y-114836571D01*
X75485785Y-114836571D01*
X75628642Y-114765142D01*
X75700071Y-114693714D01*
X75771500Y-114550857D01*
X75771500Y-114122285D01*
X75700071Y-113979428D01*
X75628642Y-113908000D01*
X75485785Y-113836571D01*
X75200071Y-113836571D01*
X75057214Y-113908000D01*
X74342928Y-114836571D02*
X74342928Y-113836571D01*
X74342928Y-114122285D02*
X74271500Y-113979428D01*
X74200071Y-113908000D01*
X74057214Y-113836571D01*
X73914357Y-113836571D01*
X73414357Y-114836571D02*
X73414357Y-113836571D01*
X73414357Y-113336571D02*
X73485785Y-113408000D01*
X73414357Y-113479428D01*
X73342928Y-113408000D01*
X73414357Y-113336571D01*
X73414357Y-113479428D01*
X72842928Y-113836571D02*
X72485785Y-114836571D01*
X72128642Y-113836571D01*
X70985785Y-114765142D02*
X71128642Y-114836571D01*
X71414357Y-114836571D01*
X71557214Y-114765142D01*
X71628642Y-114622285D01*
X71628642Y-114050857D01*
X71557214Y-113908000D01*
X71414357Y-113836571D01*
X71128642Y-113836571D01*
X70985785Y-113908000D01*
X70914357Y-114050857D01*
X70914357Y-114193714D01*
X71628642Y-114336571D01*
X70271500Y-114836571D02*
X70271500Y-113836571D01*
X70271500Y-114122285D02*
X70200071Y-113979428D01*
X70128642Y-113908000D01*
X69985785Y-113836571D01*
X69842928Y-113836571D01*
X67771500Y-115408000D02*
X67842928Y-115336571D01*
X67985785Y-115122285D01*
X68057214Y-114979428D01*
X68128642Y-114765142D01*
X68200071Y-114408000D01*
X68200071Y-114122285D01*
X68128642Y-113765142D01*
X68057214Y-113550857D01*
X67985785Y-113408000D01*
X67842928Y-113193714D01*
X67771500Y-113122285D01*
X66414357Y-114836571D02*
X67271500Y-114836571D01*
X66842928Y-114836571D02*
X66842928Y-113336571D01*
X66985785Y-113550857D01*
X67128642Y-113693714D01*
X67271500Y-113765142D01*
X65485785Y-113336571D02*
X65342928Y-113336571D01*
X65200071Y-113408000D01*
X65128642Y-113479428D01*
X65057214Y-113622285D01*
X64985785Y-113908000D01*
X64985785Y-114265142D01*
X65057214Y-114550857D01*
X65128642Y-114693714D01*
X65200071Y-114765142D01*
X65342928Y-114836571D01*
X65485785Y-114836571D01*
X65628642Y-114765142D01*
X65700071Y-114693714D01*
X65771500Y-114550857D01*
X65842928Y-114265142D01*
X65842928Y-113908000D01*
X65771500Y-113622285D01*
X65700071Y-113479428D01*
X65628642Y-113408000D01*
X65485785Y-113336571D01*
X62557214Y-114765142D02*
X62700071Y-114836571D01*
X62985785Y-114836571D01*
X63128642Y-114765142D01*
X63200071Y-114693714D01*
X63271500Y-114550857D01*
X63271500Y-114122285D01*
X63200071Y-113979428D01*
X63128642Y-113908000D01*
X62985785Y-113836571D01*
X62700071Y-113836571D01*
X62557214Y-113908000D01*
X61914357Y-114836571D02*
X61914357Y-113336571D01*
X61271500Y-114836571D02*
X61271500Y-114050857D01*
X61342928Y-113908000D01*
X61485785Y-113836571D01*
X61700071Y-113836571D01*
X61842928Y-113908000D01*
X61914357Y-113979428D01*
X60700071Y-115408000D02*
X60628642Y-115336571D01*
X60485785Y-115122285D01*
X60414357Y-114979428D01*
X60342928Y-114765142D01*
X60271500Y-114408000D01*
X60271500Y-114122285D01*
X60342928Y-113765142D01*
X60414357Y-113550857D01*
X60485785Y-113408000D01*
X60628642Y-113193714D01*
X60700071Y-113122285D01*
X85628642Y-117386571D02*
X86128642Y-116672285D01*
X86485785Y-117386571D02*
X86485785Y-115886571D01*
X85914357Y-115886571D01*
X85771500Y-115958000D01*
X85700071Y-116029428D01*
X85628642Y-116172285D01*
X85628642Y-116386571D01*
X85700071Y-116529428D01*
X85771500Y-116600857D01*
X85914357Y-116672285D01*
X86485785Y-116672285D01*
X84414357Y-117315142D02*
X84557214Y-117386571D01*
X84842928Y-117386571D01*
X84985785Y-117315142D01*
X85057214Y-117172285D01*
X85057214Y-116600857D01*
X84985785Y-116458000D01*
X84842928Y-116386571D01*
X84557214Y-116386571D01*
X84414357Y-116458000D01*
X84342928Y-116600857D01*
X84342928Y-116743714D01*
X85057214Y-116886571D01*
X83842928Y-116386571D02*
X83485785Y-117386571D01*
X83128642Y-116386571D01*
X80628642Y-117386571D02*
X81485785Y-117386571D01*
X81057214Y-117386571D02*
X81057214Y-115886571D01*
X81200071Y-116100857D01*
X81342928Y-116243714D01*
X81485785Y-116315142D01*
X79985785Y-117386571D02*
X79985785Y-115886571D01*
X79985785Y-116458000D02*
X79842928Y-116386571D01*
X79557214Y-116386571D01*
X79414357Y-116458000D01*
X79342928Y-116529428D01*
X79271500Y-116672285D01*
X79271500Y-117100857D01*
X79342928Y-117243714D01*
X79414357Y-117315142D01*
X79557214Y-117386571D01*
X79842928Y-117386571D01*
X79985785Y-117315142D01*
X78557214Y-117315142D02*
X78557214Y-117386571D01*
X78628642Y-117529428D01*
X78700071Y-117600857D01*
X76842928Y-116029428D02*
X76771500Y-115958000D01*
X76628642Y-115886571D01*
X76271500Y-115886571D01*
X76128642Y-115958000D01*
X76057214Y-116029428D01*
X75985785Y-116172285D01*
X75985785Y-116315142D01*
X76057214Y-116529428D01*
X76914357Y-117386571D01*
X75985785Y-117386571D01*
X75057214Y-115886571D02*
X74914357Y-115886571D01*
X74771500Y-115958000D01*
X74700071Y-116029428D01*
X74628642Y-116172285D01*
X74557214Y-116458000D01*
X74557214Y-116815142D01*
X74628642Y-117100857D01*
X74700071Y-117243714D01*
X74771500Y-117315142D01*
X74914357Y-117386571D01*
X75057214Y-117386571D01*
X75200071Y-117315142D01*
X75271500Y-117243714D01*
X75342928Y-117100857D01*
X75414357Y-116815142D01*
X75414357Y-116458000D01*
X75342928Y-116172285D01*
X75271500Y-116029428D01*
X75200071Y-115958000D01*
X75057214Y-115886571D01*
X73128642Y-117386571D02*
X73985785Y-117386571D01*
X73557214Y-117386571D02*
X73557214Y-115886571D01*
X73700071Y-116100857D01*
X73842928Y-116243714D01*
X73985785Y-116315142D01*
X72414357Y-117386571D02*
X72128642Y-117386571D01*
X71985785Y-117315142D01*
X71914357Y-117243714D01*
X71771500Y-117029428D01*
X71700071Y-116743714D01*
X71700071Y-116172285D01*
X71771500Y-116029428D01*
X71842928Y-115958000D01*
X71985785Y-115886571D01*
X72271500Y-115886571D01*
X72414357Y-115958000D01*
X72485785Y-116029428D01*
X72557214Y-116172285D01*
X72557214Y-116529428D01*
X72485785Y-116672285D01*
X72414357Y-116743714D01*
X72271500Y-116815142D01*
X71985785Y-116815142D01*
X71842928Y-116743714D01*
X71771500Y-116672285D01*
X71700071Y-116529428D01*
X70985785Y-117315142D02*
X70985785Y-117386571D01*
X71057214Y-117529428D01*
X71128642Y-117600857D01*
X69271500Y-117315142D02*
X69057214Y-117386571D01*
X68700071Y-117386571D01*
X68557214Y-117315142D01*
X68485785Y-117243714D01*
X68414357Y-117100857D01*
X68414357Y-116958000D01*
X68485785Y-116815142D01*
X68557214Y-116743714D01*
X68700071Y-116672285D01*
X68985785Y-116600857D01*
X69128642Y-116529428D01*
X69200071Y-116458000D01*
X69271500Y-116315142D01*
X69271500Y-116172285D01*
X69200071Y-116029428D01*
X69128642Y-115958000D01*
X68985785Y-115886571D01*
X68628642Y-115886571D01*
X68414357Y-115958000D01*
X67842928Y-117315142D02*
X67628642Y-117386571D01*
X67271500Y-117386571D01*
X67128642Y-117315142D01*
X67057214Y-117243714D01*
X66985785Y-117100857D01*
X66985785Y-116958000D01*
X67057214Y-116815142D01*
X67128642Y-116743714D01*
X67271500Y-116672285D01*
X67557214Y-116600857D01*
X67700071Y-116529428D01*
X67771500Y-116458000D01*
X67842928Y-116315142D01*
X67842928Y-116172285D01*
X67771500Y-116029428D01*
X67700071Y-115958000D01*
X67557214Y-115886571D01*
X67200071Y-115886571D01*
X66985785Y-115958000D01*
X89592928Y-118436571D02*
X89307214Y-118436571D01*
X89164357Y-118508000D01*
X89021500Y-118650857D01*
X88950071Y-118936571D01*
X88950071Y-119436571D01*
X89021500Y-119722285D01*
X89164357Y-119865142D01*
X89307214Y-119936571D01*
X89592928Y-119936571D01*
X89735785Y-119865142D01*
X89878642Y-119722285D01*
X89950071Y-119436571D01*
X89950071Y-118936571D01*
X89878642Y-118650857D01*
X89735785Y-118508000D01*
X89592928Y-118436571D01*
X87664357Y-119865142D02*
X87807214Y-119936571D01*
X88092928Y-119936571D01*
X88235785Y-119865142D01*
X88307214Y-119793714D01*
X88378642Y-119650857D01*
X88378642Y-119222285D01*
X88307214Y-119079428D01*
X88235785Y-119008000D01*
X88092928Y-118936571D01*
X87807214Y-118936571D01*
X87664357Y-119008000D01*
X87235785Y-118936571D02*
X86664357Y-118936571D01*
X87021500Y-118436571D02*
X87021500Y-119722285D01*
X86950071Y-119865142D01*
X86807214Y-119936571D01*
X86664357Y-119936571D01*
X85521500Y-119936571D02*
X85521500Y-119150857D01*
X85592928Y-119008000D01*
X85735785Y-118936571D01*
X86021500Y-118936571D01*
X86164357Y-119008000D01*
X85521500Y-119865142D02*
X85664357Y-119936571D01*
X86021500Y-119936571D01*
X86164357Y-119865142D01*
X86235785Y-119722285D01*
X86235785Y-119579428D01*
X86164357Y-119436571D01*
X86021500Y-119365142D01*
X85664357Y-119365142D01*
X85521500Y-119293714D01*
X84807214Y-118936571D02*
X84807214Y-119936571D01*
X84807214Y-119079428D02*
X84735785Y-119008000D01*
X84592928Y-118936571D01*
X84378642Y-118936571D01*
X84235785Y-119008000D01*
X84164357Y-119150857D01*
X84164357Y-119936571D01*
X83450071Y-119936571D02*
X83450071Y-118936571D01*
X83450071Y-118436571D02*
X83521500Y-118508000D01*
X83450071Y-118579428D01*
X83378642Y-118508000D01*
X83450071Y-118436571D01*
X83450071Y-118579428D01*
X82807214Y-119865142D02*
X82664357Y-119936571D01*
X82378642Y-119936571D01*
X82235785Y-119865142D01*
X82164357Y-119722285D01*
X82164357Y-119650857D01*
X82235785Y-119508000D01*
X82378642Y-119436571D01*
X82592928Y-119436571D01*
X82735785Y-119365142D01*
X82807214Y-119222285D01*
X82807214Y-119150857D01*
X82735785Y-119008000D01*
X82592928Y-118936571D01*
X82378642Y-118936571D01*
X82235785Y-119008000D01*
X80378642Y-119936571D02*
X80378642Y-118436571D01*
X79664357Y-118936571D02*
X79664357Y-119936571D01*
X79664357Y-119079428D02*
X79592928Y-119008000D01*
X79450071Y-118936571D01*
X79235785Y-118936571D01*
X79092928Y-119008000D01*
X79021500Y-119150857D01*
X79021500Y-119936571D01*
X78378642Y-119865142D02*
X78235785Y-119936571D01*
X77950071Y-119936571D01*
X77807214Y-119865142D01*
X77735785Y-119722285D01*
X77735785Y-119650857D01*
X77807214Y-119508000D01*
X77950071Y-119436571D01*
X78164357Y-119436571D01*
X78307214Y-119365142D01*
X78378642Y-119222285D01*
X78378642Y-119150857D01*
X78307214Y-119008000D01*
X78164357Y-118936571D01*
X77950071Y-118936571D01*
X77807214Y-119008000D01*
X77307214Y-118936571D02*
X76735785Y-118936571D01*
X77092928Y-118436571D02*
X77092928Y-119722285D01*
X77021500Y-119865142D01*
X76878642Y-119936571D01*
X76735785Y-119936571D01*
X76235785Y-119936571D02*
X76235785Y-118936571D01*
X76235785Y-119222285D02*
X76164357Y-119079428D01*
X76092928Y-119008000D01*
X75950071Y-118936571D01*
X75807214Y-118936571D01*
X74664357Y-118936571D02*
X74664357Y-119936571D01*
X75307214Y-118936571D02*
X75307214Y-119722285D01*
X75235785Y-119865142D01*
X75092928Y-119936571D01*
X74878642Y-119936571D01*
X74735785Y-119865142D01*
X74664357Y-119793714D01*
X73950071Y-119936571D02*
X73950071Y-118936571D01*
X73950071Y-119079428D02*
X73878642Y-119008000D01*
X73735785Y-118936571D01*
X73521500Y-118936571D01*
X73378642Y-119008000D01*
X73307214Y-119150857D01*
X73307214Y-119936571D01*
X73307214Y-119150857D02*
X73235785Y-119008000D01*
X73092928Y-118936571D01*
X72878642Y-118936571D01*
X72735785Y-119008000D01*
X72664357Y-119150857D01*
X72664357Y-119936571D01*
X71378642Y-119865142D02*
X71521500Y-119936571D01*
X71807214Y-119936571D01*
X71950071Y-119865142D01*
X72021500Y-119722285D01*
X72021500Y-119150857D01*
X71950071Y-119008000D01*
X71807214Y-118936571D01*
X71521500Y-118936571D01*
X71378642Y-119008000D01*
X71307214Y-119150857D01*
X71307214Y-119293714D01*
X72021500Y-119436571D01*
X70664357Y-118936571D02*
X70664357Y-119936571D01*
X70664357Y-119079428D02*
X70592928Y-119008000D01*
X70450071Y-118936571D01*
X70235785Y-118936571D01*
X70092928Y-119008000D01*
X70021500Y-119150857D01*
X70021500Y-119936571D01*
X69521500Y-118936571D02*
X68950071Y-118936571D01*
X69307214Y-118436571D02*
X69307214Y-119722285D01*
X69235785Y-119865142D01*
X69092928Y-119936571D01*
X68950071Y-119936571D01*
X68521500Y-119865142D02*
X68378642Y-119936571D01*
X68092928Y-119936571D01*
X67950071Y-119865142D01*
X67878642Y-119722285D01*
X67878642Y-119650857D01*
X67950071Y-119508000D01*
X68092928Y-119436571D01*
X68307214Y-119436571D01*
X68450071Y-119365142D01*
X68521500Y-119222285D01*
X68521500Y-119150857D01*
X68450071Y-119008000D01*
X68307214Y-118936571D01*
X68092928Y-118936571D01*
X67950071Y-119008000D01*
X65807214Y-118436571D02*
X65521500Y-118436571D01*
X65378642Y-118508000D01*
X65235785Y-118650857D01*
X65164357Y-118936571D01*
X65164357Y-119436571D01*
X65235785Y-119722285D01*
X65378642Y-119865142D01*
X65521500Y-119936571D01*
X65807214Y-119936571D01*
X65950071Y-119865142D01*
X66092928Y-119722285D01*
X66164357Y-119436571D01*
X66164357Y-118936571D01*
X66092928Y-118650857D01*
X65950071Y-118508000D01*
X65807214Y-118436571D01*
X64521500Y-118436571D02*
X64521500Y-119650857D01*
X64450071Y-119793714D01*
X64378642Y-119865142D01*
X64235785Y-119936571D01*
X63950071Y-119936571D01*
X63807214Y-119865142D01*
X63735785Y-119793714D01*
X63664357Y-119650857D01*
X63664357Y-118436571D01*
X64378642Y-117936571D02*
X64307214Y-118008000D01*
X64378642Y-118079428D01*
X64450071Y-118008000D01*
X64378642Y-117936571D01*
X64378642Y-118079428D01*
X63807214Y-117936571D02*
X63735785Y-118008000D01*
X63807214Y-118079428D01*
X63878642Y-118008000D01*
X63807214Y-117936571D01*
X63807214Y-118079428D01*
X85021500Y-121486571D02*
X84735785Y-122486571D01*
X84450071Y-121772285D01*
X84164357Y-122486571D01*
X83878642Y-121486571D01*
X83450071Y-121486571D02*
X83164357Y-122486571D01*
X82878642Y-121772285D01*
X82592928Y-122486571D01*
X82307214Y-121486571D01*
X81878642Y-121486571D02*
X81592928Y-122486571D01*
X81307214Y-121772285D01*
X81021500Y-122486571D01*
X80735785Y-121486571D01*
X80164357Y-122343714D02*
X80092928Y-122415142D01*
X80164357Y-122486571D01*
X80235785Y-122415142D01*
X80164357Y-122343714D01*
X80164357Y-122486571D01*
X79235785Y-122486571D02*
X79378642Y-122415142D01*
X79450071Y-122343714D01*
X79521500Y-122200857D01*
X79521500Y-121772285D01*
X79450071Y-121629428D01*
X79378642Y-121558000D01*
X79235785Y-121486571D01*
X79021500Y-121486571D01*
X78878642Y-121558000D01*
X78807214Y-121629428D01*
X78735785Y-121772285D01*
X78735785Y-122200857D01*
X78807214Y-122343714D01*
X78878642Y-122415142D01*
X79021500Y-122486571D01*
X79235785Y-122486571D01*
X77450071Y-122415142D02*
X77592928Y-122486571D01*
X77878642Y-122486571D01*
X78021500Y-122415142D01*
X78092928Y-122343714D01*
X78164357Y-122200857D01*
X78164357Y-121772285D01*
X78092928Y-121629428D01*
X78021500Y-121558000D01*
X77878642Y-121486571D01*
X77592928Y-121486571D01*
X77450071Y-121558000D01*
X77021500Y-121486571D02*
X76450071Y-121486571D01*
X76807214Y-120986571D02*
X76807214Y-122272285D01*
X76735785Y-122415142D01*
X76592928Y-122486571D01*
X76450071Y-122486571D01*
X75307214Y-122486571D02*
X75307214Y-121700857D01*
X75378642Y-121558000D01*
X75521500Y-121486571D01*
X75807214Y-121486571D01*
X75950071Y-121558000D01*
X75307214Y-122415142D02*
X75450071Y-122486571D01*
X75807214Y-122486571D01*
X75950071Y-122415142D01*
X76021500Y-122272285D01*
X76021500Y-122129428D01*
X75950071Y-121986571D01*
X75807214Y-121915142D01*
X75450071Y-121915142D01*
X75307214Y-121843714D01*
X74592928Y-121486571D02*
X74592928Y-122486571D01*
X74592928Y-121629428D02*
X74521500Y-121558000D01*
X74378642Y-121486571D01*
X74164357Y-121486571D01*
X74021500Y-121558000D01*
X73950071Y-121700857D01*
X73950071Y-122486571D01*
X73235785Y-122486571D02*
X73235785Y-121486571D01*
X73235785Y-120986571D02*
X73307214Y-121058000D01*
X73235785Y-121129428D01*
X73164357Y-121058000D01*
X73235785Y-120986571D01*
X73235785Y-121129428D01*
X72592928Y-122415142D02*
X72450071Y-122486571D01*
X72164357Y-122486571D01*
X72021500Y-122415142D01*
X71950071Y-122272285D01*
X71950071Y-122200857D01*
X72021500Y-122058000D01*
X72164357Y-121986571D01*
X72378642Y-121986571D01*
X72521500Y-121915142D01*
X72592928Y-121772285D01*
X72592928Y-121700857D01*
X72521500Y-121558000D01*
X72378642Y-121486571D01*
X72164357Y-121486571D01*
X72021500Y-121558000D01*
X71307214Y-122343714D02*
X71235785Y-122415142D01*
X71307214Y-122486571D01*
X71378642Y-122415142D01*
X71307214Y-122343714D01*
X71307214Y-122486571D01*
X69950071Y-122415142D02*
X70092928Y-122486571D01*
X70378642Y-122486571D01*
X70521500Y-122415142D01*
X70592928Y-122343714D01*
X70664357Y-122200857D01*
X70664357Y-121772285D01*
X70592928Y-121629428D01*
X70521500Y-121558000D01*
X70378642Y-121486571D01*
X70092928Y-121486571D01*
X69950071Y-121558000D01*
X69307214Y-122486571D02*
X69307214Y-120986571D01*
X68664357Y-122486571D02*
X68664357Y-121700857D01*
X68735785Y-121558000D01*
X68878642Y-121486571D01*
X69092928Y-121486571D01*
X69235785Y-121558000D01*
X69307214Y-121629428D01*
D11*
X138557000Y-44248000D02*
X138557000Y-137737999D01*
X138557000Y-137737999D02*
G75*
G02X137357000Y-138937999I-1200000J0D01*
G01*
X48387000Y-137738000D02*
X48387000Y-79629000D01*
X49587000Y-138938000D02*
G75*
G02X48387000Y-137738000I0J1200000D01*
G01*
X83257000Y-138937999D02*
X49587000Y-138938000D01*
X84457000Y-137737999D02*
G75*
G02X83257000Y-138937999I-1200000J0D01*
G01*
X84457000Y-137217999D02*
X84457000Y-137737999D01*
X84457000Y-137217999D02*
G75*
G02X85657000Y-136017999I1200000J0D01*
G01*
X103577000Y-136017999D02*
X85657000Y-136017999D01*
X105977000Y-138937999D02*
G75*
G02X104777000Y-137737999I0J1200000D01*
G01*
X137357000Y-138937999D02*
X105977000Y-138937999D01*
X103577000Y-136017999D02*
G75*
G02X104777000Y-137217999I0J-1200000D01*
G01*
X104777000Y-137737999D02*
X104777000Y-137217999D01*
X137357000Y-43048000D02*
G75*
G02X138557000Y-44248000I0J-1200000D01*
G01*
X105977000Y-43048000D02*
X137357000Y-43048000D01*
X104777000Y-44248000D02*
G75*
G02X105977000Y-43048000I1200000J0D01*
G01*
X104777000Y-44768035D02*
X104777000Y-44248000D01*
X104777000Y-44768035D02*
G75*
G02X103577000Y-45968035I-1200000J0D01*
G01*
X85657000Y-45968032D02*
X103577000Y-45968035D01*
X85657000Y-45968032D02*
G75*
G02X84457001Y-44768032I1J1200000D01*
G01*
X84457000Y-44248030D02*
X84457001Y-44768032D01*
X83257001Y-43048030D02*
G75*
G02X84457000Y-44248030I-1J-1200000D01*
G01*
X49587001Y-43048001D02*
X83257001Y-43048030D01*
X48387000Y-44248001D02*
G75*
G02X49587001Y-43048001I1200000J0D01*
G01*
X48386999Y-79658000D02*
X48387000Y-44248001D01*
D12*
X116156200Y-127116621D02*
X116156200Y-127442179D01*
X115136200Y-127116621D02*
X115136200Y-127442179D01*
X105793000Y-63180079D02*
X105793000Y-62854521D01*
X104773000Y-63180079D02*
X104773000Y-62854521D01*
X69758779Y-87530400D02*
X69433221Y-87530400D01*
X69758779Y-86510400D02*
X69433221Y-86510400D01*
X69758779Y-110513400D02*
X69433221Y-110513400D01*
X69758779Y-111533400D02*
X69433221Y-111533400D01*
X75160600Y-126151421D02*
X75160600Y-126476979D01*
X74140600Y-126151421D02*
X74140600Y-126476979D01*
X116905821Y-75338400D02*
X117231379Y-75338400D01*
X116905821Y-74318400D02*
X117231379Y-74318400D01*
X67790600Y-63083221D02*
X67790600Y-63408779D01*
X68810600Y-63083221D02*
X68810600Y-63408779D01*
X99062000Y-107685621D02*
X99062000Y-108011179D01*
X98042000Y-107685621D02*
X98042000Y-108011179D01*
X116880421Y-100738400D02*
X117205979Y-100738400D01*
X116880421Y-99718400D02*
X117205979Y-99718400D01*
D13*
X113668580Y-126446066D02*
X114382866Y-126446066D01*
X114525723Y-126398447D01*
X114620961Y-126303209D01*
X114668580Y-126160352D01*
X114668580Y-126065114D01*
X114668580Y-126922257D02*
X113668580Y-126922257D01*
X113668580Y-127303209D01*
X113716200Y-127398447D01*
X113763819Y-127446066D01*
X113859057Y-127493685D01*
X114001914Y-127493685D01*
X114097152Y-127446066D01*
X114144771Y-127398447D01*
X114192390Y-127303209D01*
X114192390Y-126922257D01*
X114001914Y-128350828D02*
X114668580Y-128350828D01*
X113620961Y-128112733D02*
X114335247Y-127874638D01*
X114335247Y-128493685D01*
X106165380Y-62183966D02*
X106879666Y-62183966D01*
X107022523Y-62136347D01*
X107117761Y-62041109D01*
X107165380Y-61898252D01*
X107165380Y-61803014D01*
X107165380Y-62660157D02*
X106165380Y-62660157D01*
X106165380Y-63041109D01*
X106213000Y-63136347D01*
X106260619Y-63183966D01*
X106355857Y-63231585D01*
X106498714Y-63231585D01*
X106593952Y-63183966D01*
X106641571Y-63136347D01*
X106689190Y-63041109D01*
X106689190Y-62660157D01*
X106165380Y-64088728D02*
X106165380Y-63898252D01*
X106213000Y-63803014D01*
X106260619Y-63755395D01*
X106403476Y-63660157D01*
X106593952Y-63612538D01*
X106974904Y-63612538D01*
X107070142Y-63660157D01*
X107117761Y-63707776D01*
X107165380Y-63803014D01*
X107165380Y-63993490D01*
X107117761Y-64088728D01*
X107070142Y-64136347D01*
X106974904Y-64183966D01*
X106736809Y-64183966D01*
X106641571Y-64136347D01*
X106593952Y-64088728D01*
X106546333Y-63993490D01*
X106546333Y-63803014D01*
X106593952Y-63707776D01*
X106641571Y-63660157D01*
X106736809Y-63612538D01*
X70429333Y-85042780D02*
X70429333Y-85757066D01*
X70476952Y-85899923D01*
X70572190Y-85995161D01*
X70715047Y-86042780D01*
X70810285Y-86042780D01*
X69953142Y-86042780D02*
X69953142Y-85042780D01*
X69572190Y-85042780D01*
X69476952Y-85090400D01*
X69429333Y-85138019D01*
X69381714Y-85233257D01*
X69381714Y-85376114D01*
X69429333Y-85471352D01*
X69476952Y-85518971D01*
X69572190Y-85566590D01*
X69953142Y-85566590D01*
X69048380Y-85042780D02*
X68381714Y-85042780D01*
X68810285Y-86042780D01*
X70429333Y-109045780D02*
X70429333Y-109760066D01*
X70476952Y-109902923D01*
X70572190Y-109998161D01*
X70715047Y-110045780D01*
X70810285Y-110045780D01*
X69953142Y-110045780D02*
X69953142Y-109045780D01*
X69572190Y-109045780D01*
X69476952Y-109093400D01*
X69429333Y-109141019D01*
X69381714Y-109236257D01*
X69381714Y-109379114D01*
X69429333Y-109474352D01*
X69476952Y-109521971D01*
X69572190Y-109569590D01*
X69953142Y-109569590D01*
X68810285Y-109474352D02*
X68905523Y-109426733D01*
X68953142Y-109379114D01*
X69000761Y-109283876D01*
X69000761Y-109236257D01*
X68953142Y-109141019D01*
X68905523Y-109093400D01*
X68810285Y-109045780D01*
X68619809Y-109045780D01*
X68524571Y-109093400D01*
X68476952Y-109141019D01*
X68429333Y-109236257D01*
X68429333Y-109283876D01*
X68476952Y-109379114D01*
X68524571Y-109426733D01*
X68619809Y-109474352D01*
X68810285Y-109474352D01*
X68905523Y-109521971D01*
X68953142Y-109569590D01*
X69000761Y-109664828D01*
X69000761Y-109855304D01*
X68953142Y-109950542D01*
X68905523Y-109998161D01*
X68810285Y-110045780D01*
X68619809Y-110045780D01*
X68524571Y-109998161D01*
X68476952Y-109950542D01*
X68429333Y-109855304D01*
X68429333Y-109664828D01*
X68476952Y-109569590D01*
X68524571Y-109521971D01*
X68619809Y-109474352D01*
X72672980Y-125004676D02*
X73387266Y-125004676D01*
X73530123Y-124957057D01*
X73625361Y-124861819D01*
X73672980Y-124718961D01*
X73672980Y-124623723D01*
X73672980Y-125480866D02*
X72672980Y-125480866D01*
X72672980Y-125861819D01*
X72720600Y-125957057D01*
X72768219Y-126004676D01*
X72863457Y-126052295D01*
X73006314Y-126052295D01*
X73101552Y-126004676D01*
X73149171Y-125957057D01*
X73196790Y-125861819D01*
X73196790Y-125480866D01*
X73672980Y-127004676D02*
X73672980Y-126433247D01*
X73672980Y-126718961D02*
X72672980Y-126718961D01*
X72815838Y-126623723D01*
X72911076Y-126528485D01*
X72958695Y-126433247D01*
X72672980Y-127338009D02*
X72672980Y-127957057D01*
X73053933Y-127623723D01*
X73053933Y-127766580D01*
X73101552Y-127861819D01*
X73149171Y-127909438D01*
X73244409Y-127957057D01*
X73482504Y-127957057D01*
X73577742Y-127909438D01*
X73625361Y-127861819D01*
X73672980Y-127766580D01*
X73672980Y-127480866D01*
X73625361Y-127385628D01*
X73577742Y-127338009D01*
X118378123Y-75710780D02*
X118378123Y-76425066D01*
X118425742Y-76567923D01*
X118520980Y-76663161D01*
X118663838Y-76710780D01*
X118759076Y-76710780D01*
X117901933Y-76710780D02*
X117901933Y-75710780D01*
X117520980Y-75710780D01*
X117425742Y-75758400D01*
X117378123Y-75806019D01*
X117330504Y-75901257D01*
X117330504Y-76044114D01*
X117378123Y-76139352D01*
X117425742Y-76186971D01*
X117520980Y-76234590D01*
X117901933Y-76234590D01*
X116378123Y-76710780D02*
X116949552Y-76710780D01*
X116663838Y-76710780D02*
X116663838Y-75710780D01*
X116759076Y-75853638D01*
X116854314Y-75948876D01*
X116949552Y-75996495D01*
X115520980Y-76044114D02*
X115520980Y-76710780D01*
X115759076Y-75663161D02*
X115997171Y-76377447D01*
X115378123Y-76377447D01*
X66322980Y-61936476D02*
X67037266Y-61936476D01*
X67180123Y-61888857D01*
X67275361Y-61793619D01*
X67322980Y-61650761D01*
X67322980Y-61555523D01*
X67322980Y-62412666D02*
X66322980Y-62412666D01*
X66322980Y-62793619D01*
X66370600Y-62888857D01*
X66418219Y-62936476D01*
X66513457Y-62984095D01*
X66656314Y-62984095D01*
X66751552Y-62936476D01*
X66799171Y-62888857D01*
X66846790Y-62793619D01*
X66846790Y-62412666D01*
X67322980Y-63936476D02*
X67322980Y-63365047D01*
X67322980Y-63650761D02*
X66322980Y-63650761D01*
X66465838Y-63555523D01*
X66561076Y-63460285D01*
X66608695Y-63365047D01*
X66322980Y-64841238D02*
X66322980Y-64365047D01*
X66799171Y-64317428D01*
X66751552Y-64365047D01*
X66703933Y-64460285D01*
X66703933Y-64698380D01*
X66751552Y-64793619D01*
X66799171Y-64841238D01*
X66894409Y-64888857D01*
X67132504Y-64888857D01*
X67227742Y-64841238D01*
X67275361Y-64793619D01*
X67322980Y-64698380D01*
X67322980Y-64460285D01*
X67275361Y-64365047D01*
X67227742Y-64317428D01*
X96574380Y-106538876D02*
X97288666Y-106538876D01*
X97431523Y-106491257D01*
X97526761Y-106396019D01*
X97574380Y-106253161D01*
X97574380Y-106157923D01*
X97574380Y-107015066D02*
X96574380Y-107015066D01*
X96574380Y-107396019D01*
X96622000Y-107491257D01*
X96669619Y-107538876D01*
X96764857Y-107586495D01*
X96907714Y-107586495D01*
X97002952Y-107538876D01*
X97050571Y-107491257D01*
X97098190Y-107396019D01*
X97098190Y-107015066D01*
X97574380Y-108538876D02*
X97574380Y-107967447D01*
X97574380Y-108253161D02*
X96574380Y-108253161D01*
X96717238Y-108157923D01*
X96812476Y-108062685D01*
X96860095Y-107967447D01*
X96574380Y-109396019D02*
X96574380Y-109205542D01*
X96622000Y-109110304D01*
X96669619Y-109062685D01*
X96812476Y-108967447D01*
X97002952Y-108919828D01*
X97383904Y-108919828D01*
X97479142Y-108967447D01*
X97526761Y-109015066D01*
X97574380Y-109110304D01*
X97574380Y-109300780D01*
X97526761Y-109396019D01*
X97479142Y-109443638D01*
X97383904Y-109491257D01*
X97145809Y-109491257D01*
X97050571Y-109443638D01*
X97002952Y-109396019D01*
X96955333Y-109300780D01*
X96955333Y-109110304D01*
X97002952Y-109015066D01*
X97050571Y-108967447D01*
X97145809Y-108919828D01*
X118352723Y-101110780D02*
X118352723Y-101825066D01*
X118400342Y-101967923D01*
X118495580Y-102063161D01*
X118638438Y-102110780D01*
X118733676Y-102110780D01*
X117876533Y-102110780D02*
X117876533Y-101110780D01*
X117495580Y-101110780D01*
X117400342Y-101158400D01*
X117352723Y-101206019D01*
X117305104Y-101301257D01*
X117305104Y-101444114D01*
X117352723Y-101539352D01*
X117400342Y-101586971D01*
X117495580Y-101634590D01*
X117876533Y-101634590D01*
X116924152Y-101206019D02*
X116876533Y-101158400D01*
X116781295Y-101110780D01*
X116543200Y-101110780D01*
X116447961Y-101158400D01*
X116400342Y-101206019D01*
X116352723Y-101301257D01*
X116352723Y-101396495D01*
X116400342Y-101539352D01*
X116971771Y-102110780D01*
X116352723Y-102110780D01*
X115781295Y-101539352D02*
X115876533Y-101491733D01*
X115924152Y-101444114D01*
X115971771Y-101348876D01*
X115971771Y-101301257D01*
X115924152Y-101206019D01*
X115876533Y-101158400D01*
X115781295Y-101110780D01*
X115590819Y-101110780D01*
X115495580Y-101158400D01*
X115447961Y-101206019D01*
X115400342Y-101301257D01*
X115400342Y-101348876D01*
X115447961Y-101444114D01*
X115495580Y-101491733D01*
X115590819Y-101539352D01*
X115781295Y-101539352D01*
X115876533Y-101586971D01*
X115924152Y-101634590D01*
X115971771Y-101729828D01*
X115971771Y-101920304D01*
X115924152Y-102015542D01*
X115876533Y-102063161D01*
X115781295Y-102110780D01*
X115590819Y-102110780D01*
X115495580Y-102063161D01*
X115447961Y-102015542D01*
X115400342Y-101920304D01*
X115400342Y-101729828D01*
X115447961Y-101634590D01*
X115495580Y-101586971D01*
X115590819Y-101539352D01*
M02*
