G04 #@! TF.GenerationSoftware,KiCad,Pcbnew,5.0.1*
G04 #@! TF.CreationDate,2018-12-13T21:41:05+01:00*
G04 #@! TF.ProjectId,OIBUS_MOSFET_driver_module,4F494255535F4D4F534645545F647269,rev?*
G04 #@! TF.SameCoordinates,Original*
G04 #@! TF.FileFunction,Copper,L2,Bot,Signal*
G04 #@! TF.FilePolarity,Positive*
%FSLAX46Y46*%
G04 Gerber Fmt 4.6, Leading zero omitted, Abs format (unit mm)*
G04 Created by KiCad (PCBNEW 5.0.1) date Thu 13 Dec 2018 09:41:05 PM CET*
%MOMM*%
%LPD*%
G01*
G04 APERTURE LIST*
G04 #@! TA.AperFunction,ComponentPad*
%ADD10C,1.524000*%
G04 #@! TD*
G04 #@! TA.AperFunction,ComponentPad*
%ADD11R,1.524000X1.524000*%
G04 #@! TD*
G04 #@! TA.AperFunction,ComponentPad*
%ADD12C,5.600000*%
G04 #@! TD*
G04 #@! TA.AperFunction,ComponentPad*
%ADD13O,1.700000X1.700000*%
G04 #@! TD*
G04 #@! TA.AperFunction,ComponentPad*
%ADD14R,1.700000X1.700000*%
G04 #@! TD*
G04 #@! TA.AperFunction,ComponentPad*
%ADD15R,2.025000X2.025000*%
G04 #@! TD*
G04 #@! TA.AperFunction,ComponentPad*
%ADD16C,2.025000*%
G04 #@! TD*
G04 #@! TA.AperFunction,ComponentPad*
%ADD17R,1.530000X1.530000*%
G04 #@! TD*
G04 #@! TA.AperFunction,ComponentPad*
%ADD18C,1.530000*%
G04 #@! TD*
G04 #@! TA.AperFunction,ViaPad*
%ADD19C,0.600000*%
G04 #@! TD*
G04 #@! TA.AperFunction,ViaPad*
%ADD20C,1.000000*%
G04 #@! TD*
G04 #@! TA.AperFunction,Conductor*
%ADD21C,2.000000*%
G04 #@! TD*
G04 #@! TA.AperFunction,Conductor*
%ADD22C,0.400000*%
G04 #@! TD*
G04 #@! TA.AperFunction,Conductor*
%ADD23C,0.200000*%
G04 #@! TD*
G04 #@! TA.AperFunction,Conductor*
%ADD24C,0.250000*%
G04 #@! TD*
G04 #@! TA.AperFunction,Conductor*
%ADD25C,0.254000*%
G04 #@! TD*
G04 APERTURE END LIST*
D10*
G04 #@! TO.P,H1,2*
G04 #@! TO.N,Net-(H1-Pad2)*
X62357000Y-48133001D03*
D11*
G04 #@! TO.P,H1,1*
G04 #@! TO.N,Net-(H1-Pad1)*
X62357000Y-50673001D03*
D10*
G04 #@! TO.P,H1,4*
G04 #@! TO.N,Net-(H1-Pad4)*
X64897000Y-48133001D03*
G04 #@! TO.P,H1,3*
G04 #@! TO.N,Net-(H1-Pad3)*
X64897000Y-50673001D03*
G04 #@! TO.P,H1,6*
G04 #@! TO.N,Net-(H1-Pad6)*
X67437000Y-48133001D03*
G04 #@! TO.P,H1,5*
G04 #@! TO.N,Net-(H1-Pad5)*
X67437000Y-50673001D03*
G04 #@! TO.P,H1,8*
G04 #@! TO.N,Net-(H1-Pad8)*
X69977000Y-48133001D03*
G04 #@! TO.P,H1,7*
G04 #@! TO.N,Net-(H1-Pad7)*
X69977000Y-50673001D03*
G04 #@! TO.P,H1,10*
G04 #@! TO.N,Net-(H1-Pad10)*
X72517000Y-48133001D03*
G04 #@! TO.P,H1,9*
G04 #@! TO.N,Net-(H1-Pad9)*
X72517000Y-50673001D03*
G04 #@! TO.P,H1,12*
G04 #@! TO.N,Net-(H1-Pad12)*
X75057000Y-48133001D03*
G04 #@! TO.P,H1,11*
G04 #@! TO.N,Net-(H1-Pad11)*
X75057000Y-50673001D03*
G04 #@! TO.P,H1,14*
G04 #@! TO.N,Net-(H1-Pad14)*
X77597000Y-48133001D03*
G04 #@! TO.P,H1,13*
G04 #@! TO.N,Net-(H1-Pad13)*
X77597000Y-50673001D03*
G04 #@! TO.P,H1,16*
G04 #@! TO.N,Net-(H1-Pad16)*
X80137000Y-48133001D03*
G04 #@! TO.P,H1,15*
G04 #@! TO.N,Net-(H1-Pad15)*
X80137000Y-50673001D03*
G04 #@! TO.P,H1,18*
G04 #@! TO.N,Net-(H1-Pad18)*
X82677000Y-48133001D03*
G04 #@! TO.P,H1,17*
G04 #@! TO.N,Net-(H1-Pad17)*
X82677000Y-50673001D03*
G04 #@! TO.P,H1,20*
G04 #@! TO.N,Net-(H1-Pad20)*
X85217000Y-48133001D03*
G04 #@! TO.P,H1,19*
G04 #@! TO.N,Net-(H1-Pad19)*
X85217000Y-50673001D03*
G04 #@! TO.P,H1,22*
G04 #@! TO.N,Net-(H1-Pad22)*
X87757000Y-48133001D03*
G04 #@! TO.P,H1,21*
G04 #@! TO.N,Net-(H1-Pad21)*
X87757000Y-50673001D03*
G04 #@! TO.P,H1,24*
G04 #@! TO.N,Net-(H1-Pad24)*
X90297000Y-48133001D03*
G04 #@! TO.P,H1,23*
G04 #@! TO.N,Net-(H1-Pad23)*
X90297000Y-50673001D03*
G04 #@! TO.P,H1,26*
G04 #@! TO.N,Net-(H1-Pad26)*
X92837000Y-48133001D03*
G04 #@! TO.P,H1,25*
G04 #@! TO.N,Net-(H1-Pad25)*
X92837000Y-50673001D03*
G04 #@! TO.P,H1,28*
G04 #@! TO.N,Net-(H1-Pad28)*
X95377000Y-48133001D03*
G04 #@! TO.P,H1,27*
G04 #@! TO.N,Net-(H1-Pad27)*
X95377000Y-50673001D03*
G04 #@! TO.P,H1,30*
G04 #@! TO.N,Net-(H1-Pad30)*
X97917000Y-48133001D03*
G04 #@! TO.P,H1,29*
G04 #@! TO.N,~RESET*
X97917000Y-50673001D03*
G04 #@! TO.P,H1,32*
G04 #@! TO.N,Net-(H1-Pad32)*
X100457000Y-48133001D03*
G04 #@! TO.P,H1,31*
G04 #@! TO.N,Net-(H1-Pad31)*
X100457000Y-50673001D03*
G04 #@! TO.P,H1,34*
G04 #@! TO.N,Net-(H1-Pad34)*
X102997000Y-48133001D03*
G04 #@! TO.P,H1,33*
G04 #@! TO.N,Net-(H1-Pad33)*
X102997000Y-50673001D03*
G04 #@! TO.P,H1,36*
G04 #@! TO.N,Net-(H1-Pad36)*
X105537000Y-48133001D03*
G04 #@! TO.P,H1,35*
G04 #@! TO.N,Net-(H1-Pad35)*
X105537000Y-50673001D03*
G04 #@! TO.P,H1,38*
G04 #@! TO.N,Net-(H1-Pad38)*
X108077000Y-48133001D03*
G04 #@! TO.P,H1,37*
G04 #@! TO.N,Net-(H1-Pad37)*
X108077000Y-50673001D03*
G04 #@! TO.P,H1,40*
G04 #@! TO.N,Net-(H1-Pad40)*
X110617000Y-48133001D03*
G04 #@! TO.P,H1,39*
G04 #@! TO.N,Net-(H1-Pad39)*
X110617000Y-50673001D03*
G04 #@! TO.P,H1,42*
G04 #@! TO.N,VBACKUP*
X113157000Y-48133001D03*
G04 #@! TO.P,H1,41*
G04 #@! TO.N,Net-(H1-Pad41)*
X113157000Y-50673001D03*
G04 #@! TO.P,H1,44*
G04 #@! TO.N,Net-(H1-Pad44)*
X115697000Y-48133001D03*
G04 #@! TO.P,H1,43*
G04 #@! TO.N,Net-(H1-Pad43)*
X115697000Y-50673001D03*
G04 #@! TO.P,H1,46*
G04 #@! TO.N,Net-(H1-Pad46)*
X118237000Y-48133001D03*
G04 #@! TO.P,H1,45*
G04 #@! TO.N,Net-(H1-Pad45)*
X118237000Y-50673001D03*
G04 #@! TO.P,H1,48*
G04 #@! TO.N,Net-(H1-Pad48)*
X120777000Y-48133001D03*
G04 #@! TO.P,H1,47*
G04 #@! TO.N,Net-(H1-Pad47)*
X120777000Y-50673001D03*
G04 #@! TO.P,H1,50*
G04 #@! TO.N,Net-(H1-Pad50)*
X123317000Y-48133001D03*
G04 #@! TO.P,H1,49*
G04 #@! TO.N,Net-(H1-Pad49)*
X123317000Y-50673001D03*
G04 #@! TO.P,H1,52*
G04 #@! TO.N,Net-(H1-Pad52)*
X125857000Y-48133001D03*
G04 #@! TO.P,H1,51*
G04 #@! TO.N,Net-(H1-Pad51)*
X125857000Y-50673001D03*
G04 #@! TD*
G04 #@! TO.P,H2,51*
G04 #@! TO.N,CANH*
X125857000Y-55753000D03*
G04 #@! TO.P,H2,52*
G04 #@! TO.N,CANL*
X125857000Y-53213000D03*
G04 #@! TO.P,H2,49*
G04 #@! TO.N,Net-(H2-Pad49)*
X123317000Y-55753000D03*
G04 #@! TO.P,H2,50*
G04 #@! TO.N,Net-(H2-Pad50)*
X123317000Y-53213000D03*
G04 #@! TO.P,H2,47*
G04 #@! TO.N,Net-(H2-Pad47)*
X120777000Y-55753000D03*
G04 #@! TO.P,H2,48*
G04 #@! TO.N,Net-(H2-Pad48)*
X120777000Y-53213000D03*
G04 #@! TO.P,H2,45*
G04 #@! TO.N,Net-(H2-Pad45)*
X118237000Y-55753000D03*
G04 #@! TO.P,H2,46*
X118237000Y-53213000D03*
G04 #@! TO.P,H2,43*
G04 #@! TO.N,Net-(H2-Pad43)*
X115697000Y-55753000D03*
G04 #@! TO.P,H2,44*
X115697000Y-53213000D03*
G04 #@! TO.P,H2,41*
G04 #@! TO.N,Net-(H2-Pad41)*
X113157000Y-55753000D03*
G04 #@! TO.P,H2,42*
X113157000Y-53213000D03*
G04 #@! TO.P,H2,39*
G04 #@! TO.N,Net-(H2-Pad39)*
X110617000Y-55753000D03*
G04 #@! TO.P,H2,40*
X110617000Y-53213000D03*
G04 #@! TO.P,H2,37*
G04 #@! TO.N,Net-(H2-Pad37)*
X108077000Y-55753000D03*
G04 #@! TO.P,H2,38*
X108077000Y-53213000D03*
G04 #@! TO.P,H2,35*
G04 #@! TO.N,Net-(H2-Pad35)*
X105537000Y-55753000D03*
G04 #@! TO.P,H2,36*
X105537000Y-53213000D03*
G04 #@! TO.P,H2,33*
G04 #@! TO.N,Net-(H2-Pad33)*
X102997000Y-55753000D03*
G04 #@! TO.P,H2,34*
X102997000Y-53213000D03*
G04 #@! TO.P,H2,31*
G04 #@! TO.N,GND*
X100457000Y-55753000D03*
G04 #@! TO.P,H2,32*
X100457000Y-53213000D03*
G04 #@! TO.P,H2,29*
X97917000Y-55753000D03*
G04 #@! TO.P,H2,30*
X97917000Y-53213000D03*
G04 #@! TO.P,H2,27*
G04 #@! TO.N,+3V3*
X95377000Y-55753000D03*
G04 #@! TO.P,H2,28*
X95377000Y-53213000D03*
G04 #@! TO.P,H2,25*
G04 #@! TO.N,Net-(H2-Pad25)*
X92837000Y-55753000D03*
G04 #@! TO.P,H2,26*
X92837000Y-53213000D03*
G04 #@! TO.P,H2,23*
G04 #@! TO.N,Net-(H2-Pad23)*
X90297000Y-55753000D03*
G04 #@! TO.P,H2,24*
G04 #@! TO.N,Net-(H2-Pad24)*
X90297000Y-53213000D03*
G04 #@! TO.P,H2,21*
G04 #@! TO.N,Net-(H2-Pad21)*
X87757000Y-55753000D03*
G04 #@! TO.P,H2,22*
G04 #@! TO.N,Net-(H2-Pad22)*
X87757000Y-53213000D03*
G04 #@! TO.P,H2,19*
G04 #@! TO.N,Net-(H2-Pad19)*
X85217000Y-55753000D03*
G04 #@! TO.P,H2,20*
G04 #@! TO.N,Net-(H2-Pad20)*
X85217000Y-53213000D03*
G04 #@! TO.P,H2,17*
G04 #@! TO.N,Net-(H2-Pad17)*
X82677000Y-55753000D03*
G04 #@! TO.P,H2,18*
G04 #@! TO.N,Net-(H2-Pad18)*
X82677000Y-53213000D03*
G04 #@! TO.P,H2,15*
G04 #@! TO.N,Net-(H2-Pad15)*
X80137000Y-55753000D03*
G04 #@! TO.P,H2,16*
G04 #@! TO.N,Net-(H2-Pad16)*
X80137000Y-53213000D03*
G04 #@! TO.P,H2,13*
G04 #@! TO.N,Net-(H2-Pad13)*
X77597000Y-55753000D03*
G04 #@! TO.P,H2,14*
G04 #@! TO.N,Net-(H2-Pad14)*
X77597000Y-53213000D03*
G04 #@! TO.P,H2,11*
G04 #@! TO.N,Net-(H2-Pad11)*
X75057000Y-55753000D03*
G04 #@! TO.P,H2,12*
G04 #@! TO.N,Net-(H2-Pad12)*
X75057000Y-53213000D03*
G04 #@! TO.P,H2,9*
G04 #@! TO.N,Net-(H2-Pad9)*
X72517000Y-55753000D03*
G04 #@! TO.P,H2,10*
G04 #@! TO.N,Net-(H2-Pad10)*
X72517000Y-53213000D03*
G04 #@! TO.P,H2,7*
G04 #@! TO.N,Net-(H2-Pad7)*
X69977000Y-55753000D03*
G04 #@! TO.P,H2,8*
G04 #@! TO.N,Net-(H2-Pad8)*
X69977000Y-53213000D03*
G04 #@! TO.P,H2,5*
G04 #@! TO.N,Net-(H2-Pad5)*
X67437000Y-55753000D03*
G04 #@! TO.P,H2,6*
G04 #@! TO.N,Net-(H2-Pad6)*
X67437000Y-53213000D03*
G04 #@! TO.P,H2,3*
G04 #@! TO.N,Net-(H2-Pad3)*
X64897000Y-55753000D03*
G04 #@! TO.P,H2,4*
G04 #@! TO.N,Net-(H2-Pad4)*
X64897000Y-53213000D03*
D11*
G04 #@! TO.P,H2,1*
G04 #@! TO.N,Net-(H2-Pad1)*
X62357000Y-55753000D03*
D10*
G04 #@! TO.P,H2,2*
G04 #@! TO.N,Net-(H2-Pad2)*
X62357000Y-53213000D03*
G04 #@! TD*
D12*
G04 #@! TO.P,H3,1*
G04 #@! TO.N,GND*
X57277000Y-48133000D03*
G04 #@! TD*
G04 #@! TO.P,H4,1*
G04 #@! TO.N,GND*
X133477000Y-133858000D03*
G04 #@! TD*
G04 #@! TO.P,H5,1*
G04 #@! TO.N,GND*
X53467000Y-133858000D03*
G04 #@! TD*
G04 #@! TO.P,H6,1*
G04 #@! TO.N,GND*
X130937000Y-48133000D03*
G04 #@! TD*
D13*
G04 #@! TO.P,J1,6*
G04 #@! TO.N,SWDSWO*
X52578000Y-48895000D03*
G04 #@! TO.P,J1,5*
G04 #@! TO.N,~RESET*
X52578000Y-51435000D03*
G04 #@! TO.P,J1,4*
G04 #@! TO.N,SWDIO*
X52578000Y-53975000D03*
G04 #@! TO.P,J1,3*
G04 #@! TO.N,SWDCLK*
X52578000Y-56515000D03*
G04 #@! TO.P,J1,2*
G04 #@! TO.N,GND*
X52578000Y-59055000D03*
D14*
G04 #@! TO.P,J1,1*
G04 #@! TO.N,+3V3*
X52578000Y-61595000D03*
G04 #@! TD*
D13*
G04 #@! TO.P,J2,2*
G04 #@! TO.N,Net-(J2-Pad2)*
X105410000Y-122809000D03*
D14*
G04 #@! TO.P,J2,1*
G04 #@! TO.N,Net-(J2-Pad1)*
X107950000Y-122809000D03*
G04 #@! TD*
D15*
G04 #@! TO.P,J4,1*
G04 #@! TO.N,VBUS*
X130175000Y-108585000D03*
D16*
G04 #@! TO.P,J4,2*
G04 #@! TO.N,Net-(D1-Pad2)*
X130175000Y-104775000D03*
G04 #@! TD*
G04 #@! TO.P,J5,2*
G04 #@! TO.N,Net-(D3-Pad2)*
X130175000Y-117348000D03*
D15*
G04 #@! TO.P,J5,1*
G04 #@! TO.N,VBUS*
X130175000Y-121158000D03*
G04 #@! TD*
G04 #@! TO.P,J6,1*
G04 #@! TO.N,VBUS*
X130175000Y-69850000D03*
D16*
G04 #@! TO.P,J6,2*
G04 #@! TO.N,Net-(D5-Pad2)*
X130175000Y-66040000D03*
G04 #@! TD*
G04 #@! TO.P,J7,2*
G04 #@! TO.N,Net-(D7-Pad2)*
X130175000Y-92075000D03*
D15*
G04 #@! TO.P,J7,1*
G04 #@! TO.N,VBUS*
X130175000Y-95885000D03*
G04 #@! TD*
G04 #@! TO.P,J8,1*
G04 #@! TO.N,VBUS*
X56769000Y-66421000D03*
D16*
G04 #@! TO.P,J8,2*
G04 #@! TO.N,Net-(D9-Pad2)*
X56769000Y-70231000D03*
G04 #@! TD*
G04 #@! TO.P,J9,2*
G04 #@! TO.N,Net-(D11-Pad2)*
X56769000Y-95758000D03*
D15*
G04 #@! TO.P,J9,1*
G04 #@! TO.N,VBUS*
X56769000Y-91948000D03*
G04 #@! TD*
G04 #@! TO.P,J10,1*
G04 #@! TO.N,VBUS*
X56769000Y-117348000D03*
D16*
G04 #@! TO.P,J10,2*
G04 #@! TO.N,Net-(D13-Pad2)*
X56769000Y-121158000D03*
G04 #@! TD*
G04 #@! TO.P,J11,2*
G04 #@! TO.N,Net-(D15-Pad2)*
X56769000Y-108585000D03*
D15*
G04 #@! TO.P,J11,1*
G04 #@! TO.N,VBUS*
X56769000Y-104775000D03*
G04 #@! TD*
D16*
G04 #@! TO.P,J12,2*
G04 #@! TO.N,Net-(D19-Pad2)*
X130175000Y-79121000D03*
D15*
G04 #@! TO.P,J12,1*
G04 #@! TO.N,VBUS*
X130175000Y-82931000D03*
G04 #@! TD*
G04 #@! TO.P,J13,1*
G04 #@! TO.N,VBUS*
X56769000Y-79121000D03*
D16*
G04 #@! TO.P,J13,2*
G04 #@! TO.N,Net-(D20-Pad2)*
X56769000Y-82931000D03*
G04 #@! TD*
D17*
G04 #@! TO.P,J3,1*
G04 #@! TO.N,VBUS*
X92992000Y-122682000D03*
D18*
G04 #@! TO.P,J3,2*
G04 #@! TO.N,GNDPWR*
X96492000Y-122682000D03*
G04 #@! TD*
D19*
G04 #@! TO.N,GNDPWR*
X101473000Y-109347000D03*
X96242000Y-114173000D03*
X118872000Y-108712000D03*
X122428000Y-107188000D03*
X122428000Y-68072000D03*
X118872000Y-69342000D03*
X118872000Y-82423000D03*
X122428000Y-81153000D03*
X118872000Y-95758000D03*
X122428000Y-94361000D03*
X122301000Y-119634000D03*
X118745000Y-121158000D03*
X64643000Y-67945000D03*
X68072000Y-66548000D03*
X64516000Y-80137000D03*
X68072000Y-78867000D03*
X68072000Y-91948000D03*
X64516000Y-93091000D03*
X64643000Y-106299000D03*
X68072000Y-105029000D03*
X68072000Y-117856000D03*
X64643000Y-118999000D03*
D20*
G04 #@! TO.N,VBUS*
X106934000Y-61214000D03*
X94996000Y-61595000D03*
X93853000Y-60452000D03*
X104140000Y-61341000D03*
D19*
G04 #@! TO.N,GND*
X72136000Y-62611000D03*
X72136000Y-75184000D03*
X72136000Y-88011000D03*
X72136000Y-100584000D03*
X72136000Y-112903000D03*
X114808000Y-114554000D03*
X114808000Y-88138000D03*
X114808000Y-74803000D03*
X101473000Y-106045000D03*
X88646000Y-104394000D03*
X97028000Y-106045000D03*
X90551000Y-97282000D03*
X90551000Y-95885000D03*
X91179573Y-91830007D03*
X96520000Y-92837000D03*
X102235000Y-103886000D03*
X94107000Y-97917000D03*
X84074000Y-98171000D03*
X84074000Y-99822000D03*
X91059000Y-65659000D03*
X88265000Y-76454000D03*
X91059000Y-77343000D03*
X101346000Y-90551000D03*
X97282000Y-103759000D03*
X90297000Y-86360000D03*
X114808617Y-101966977D03*
X95277127Y-58542481D03*
X114808000Y-125983999D03*
G04 #@! TO.N,+3V3*
X86995000Y-70358000D03*
X99834000Y-90043002D03*
X97409000Y-85852000D03*
X89281000Y-85090000D03*
X88965001Y-77277999D03*
X99822000Y-92710000D03*
X100838000Y-98806000D03*
G04 #@! TO.N,~RESET*
X105410000Y-94361000D03*
X91313000Y-51943000D03*
X103285990Y-96266000D03*
X96774000Y-51689000D03*
G04 #@! TO.N,VBACKUP*
X87503000Y-102743000D03*
X88646000Y-61341000D03*
X85433984Y-101346000D03*
X99187000Y-51562000D03*
X101483945Y-48866542D03*
G04 #@! TO.N,CANH*
X99314000Y-57912000D03*
G04 #@! TO.N,CANL*
X99237977Y-59290665D03*
G04 #@! TO.N,Net-(H1-Pad14)*
X79756000Y-61341000D03*
X76454000Y-54483000D03*
X76796206Y-57286594D03*
G04 #@! TO.N,Net-(H1-Pad13)*
X73670232Y-51185547D03*
X73787000Y-54102000D03*
X80289396Y-57886604D03*
X83312000Y-61087000D03*
G04 #@! TO.N,Net-(H1-Pad16)*
X86106000Y-49276000D03*
X86487000Y-54483000D03*
X86487000Y-57658000D03*
X86233000Y-61087000D03*
G04 #@! TO.N,Net-(H1-Pad15)*
X81280000Y-54102000D03*
X82268018Y-57637666D03*
X84622130Y-61451207D03*
G04 #@! TO.N,Net-(H1-Pad39)*
X107950000Y-85217000D03*
X128270000Y-57912000D03*
X108458000Y-79629000D03*
X101444324Y-61981625D03*
G04 #@! TO.N,Net-(H1-Pad47)*
X106553000Y-94996000D03*
X109855000Y-90932000D03*
X109982000Y-81026000D03*
X109093000Y-78486000D03*
X94361000Y-58801000D03*
X100909603Y-61359377D03*
X91694000Y-50038000D03*
X111760000Y-49657000D03*
G04 #@! TO.N,SWDSWO*
X83693000Y-65913000D03*
X83693000Y-76962000D03*
X86487008Y-83439000D03*
G04 #@! TO.N,SWDIO*
X88108270Y-82901270D03*
X82931000Y-66548000D03*
X83693000Y-78486000D03*
G04 #@! TO.N,SWDCLK*
X87249000Y-92329000D03*
G04 #@! TO.N,Net-(J2-Pad2)*
X107442000Y-114427000D03*
X107061000Y-116522500D03*
G04 #@! TO.N,Net-(J2-Pad1)*
X107950000Y-115189000D03*
X107886500Y-117475000D03*
G04 #@! TO.N,Tx*
X103124000Y-93726000D03*
X106045000Y-90805000D03*
G04 #@! TO.N,Rx*
X102870000Y-92964000D03*
X104775000Y-91059000D03*
X104775000Y-85470998D03*
X105410000Y-84074000D03*
G04 #@! TO.N,ADC0*
X97028000Y-100711000D03*
X105410000Y-99441000D03*
G04 #@! TO.N,ADC1*
X101727000Y-96520000D03*
X104013000Y-89535000D03*
X129159000Y-55499000D03*
X99314000Y-60833010D03*
G04 #@! TO.N,GPIO1*
X85217000Y-90551000D03*
X81657968Y-86995000D03*
G04 #@! TO.N,GPIO2*
X80010000Y-92837006D03*
X87757000Y-94361000D03*
G04 #@! TO.N,GPIO3*
X86952290Y-94741430D03*
X82057987Y-92370791D03*
G04 #@! TO.N,GPIO4*
X85090000Y-94503979D03*
X82457990Y-93267822D03*
G04 #@! TO.N,In1*
X105410000Y-107950000D03*
X103886000Y-106426000D03*
X109728000Y-113550000D03*
X106968990Y-109932170D03*
G04 #@! TO.N,In2*
X110363000Y-119507000D03*
X106553000Y-110744000D03*
G04 #@! TO.N,In3*
X93091000Y-89027000D03*
X97789999Y-84454997D03*
X110236000Y-75184000D03*
X103012979Y-79121000D03*
G04 #@! TO.N,In4*
X93726000Y-94234000D03*
X98298000Y-98806000D03*
X102743000Y-102997000D03*
X110235999Y-102515924D03*
G04 #@! TO.N,In5*
X78105000Y-62865000D03*
X93218000Y-77978000D03*
G04 #@! TO.N,In6*
X78117000Y-89777000D03*
X87884000Y-91313000D03*
G04 #@! TO.N,In7*
X77724000Y-110998000D03*
X86187608Y-102616000D03*
G04 #@! TO.N,In8*
X78167000Y-103251000D03*
X83023010Y-105029002D03*
G04 #@! TO.N,Net-(R27-Pad2)*
X71247000Y-49276000D03*
X97790000Y-101473000D03*
X98425000Y-105664000D03*
X80856056Y-61920032D03*
G04 #@! TO.N,In9*
X103285990Y-95377000D03*
X110998000Y-89154000D03*
G04 #@! TO.N,In10*
X77978000Y-75311000D03*
X89154000Y-90551000D03*
X93218000Y-94996000D03*
X88655990Y-86106004D03*
G04 #@! TO.N,Net-(U10-Pad25)*
X97155000Y-90297000D03*
X96393000Y-85979000D03*
X93599000Y-76962000D03*
X90297000Y-73152000D03*
G04 #@! TO.N,Net-(U10-Pad26)*
X97409000Y-86741000D03*
X97408994Y-88519000D03*
G04 #@! TD*
D21*
G04 #@! TO.N,VBUS*
X93726000Y-60325000D02*
X93853000Y-60452000D01*
X93853000Y-60452000D02*
X94996000Y-61595000D01*
X106349800Y-60629800D02*
X106934000Y-61214000D01*
X104978200Y-60629800D02*
X106349800Y-60629800D01*
X101981000Y-63627000D02*
X104978200Y-60629800D01*
X94996000Y-61595000D02*
X97028000Y-63627000D01*
X97028000Y-63627000D02*
X101981000Y-63627000D01*
D22*
G04 #@! TO.N,GND*
X72136000Y-75184000D02*
X72136000Y-88011000D01*
X72136000Y-88011000D02*
X72136000Y-100584000D01*
X72136000Y-100584000D02*
X72136000Y-112903000D01*
X114808000Y-88138000D02*
X114808000Y-74803000D01*
X132783856Y-133858000D02*
X132783856Y-133857995D01*
X53952327Y-134417913D02*
X53921981Y-134428531D01*
X55626000Y-137287000D02*
X53467000Y-135128000D01*
X53467000Y-135128000D02*
X53467000Y-134555695D01*
X132986969Y-134348031D02*
X129413000Y-137922000D01*
X84836000Y-134366000D02*
X81915000Y-137287000D01*
X107188000Y-137922000D02*
X103632000Y-134366000D01*
X129413000Y-137922000D02*
X107188000Y-137922000D01*
X81915000Y-137287000D02*
X55626000Y-137287000D01*
X103632000Y-134366000D02*
X84836000Y-134366000D01*
X72136000Y-67437000D02*
X72136000Y-75184000D01*
X72136000Y-62611000D02*
X72136000Y-67437000D01*
X49149000Y-129540000D02*
X52976969Y-133367970D01*
X52976969Y-133367970D02*
X52975204Y-133375705D01*
X49149000Y-60198000D02*
X49149000Y-129540000D01*
X49149000Y-60198000D02*
X49149000Y-56261000D01*
D23*
X49149000Y-56261000D02*
X49149000Y-47879000D01*
X49149000Y-47879000D02*
X52578000Y-44450000D01*
X53594000Y-44450000D02*
X56858169Y-47714169D01*
X52578000Y-44450000D02*
X53594000Y-44450000D01*
D22*
X116549259Y-112812741D02*
X116549259Y-102454415D01*
X116061821Y-101966977D02*
X115232881Y-101966977D01*
X114808000Y-88138000D02*
X114808000Y-101966360D01*
X115232881Y-101966977D02*
X114808617Y-101966977D01*
X114808000Y-114554000D02*
X116549259Y-112812741D01*
X116549259Y-102454415D02*
X116061821Y-101966977D01*
X114808000Y-101966360D02*
X114808617Y-101966977D01*
X97917000Y-55753000D02*
X96393000Y-57277000D01*
X92325991Y-59745097D02*
X92325991Y-59820009D01*
X96393000Y-57277000D02*
X94794088Y-57277000D01*
X94794088Y-57277000D02*
X92325991Y-59745097D01*
X91059000Y-61087000D02*
X91059000Y-65659000D01*
X92325991Y-59820009D02*
X91059000Y-61087000D01*
X127019001Y-52050999D02*
X130447898Y-48622102D01*
X101619001Y-52050999D02*
X127019001Y-52050999D01*
X100457000Y-53213000D02*
X101619001Y-52050999D01*
X114808000Y-114554000D02*
X114808000Y-125983999D01*
D24*
G04 #@! TO.N,+3V3*
X99834000Y-90043002D02*
X99834000Y-88277000D01*
X97708999Y-86151999D02*
X97409000Y-85852000D01*
X99834000Y-88277000D02*
X97708999Y-86151999D01*
X89281000Y-85090000D02*
X89281000Y-77593998D01*
X89281000Y-77593998D02*
X88965001Y-77277999D01*
D22*
X100838000Y-94150264D02*
X100838000Y-98806000D01*
X99822000Y-92710000D02*
X99822000Y-93134264D01*
X99822000Y-93134264D02*
X100838000Y-94150264D01*
X86995000Y-69933736D02*
X86995000Y-70358000D01*
X86995000Y-64135000D02*
X86995000Y-69933736D01*
X95377000Y-55753000D02*
X86995000Y-64135000D01*
D23*
G04 #@! TO.N,~RESET*
X105410000Y-94361000D02*
X103505000Y-96266000D01*
X103505000Y-96266000D02*
X103285990Y-96266000D01*
X91313000Y-51943000D02*
X96520000Y-51943000D01*
X96520000Y-51943000D02*
X96774000Y-51689000D01*
G04 #@! TO.N,VBACKUP*
X93899001Y-56512263D02*
X93899001Y-55659237D01*
X88646000Y-61341000D02*
X89070264Y-61341000D01*
X89070264Y-61341000D02*
X93899001Y-56512263D01*
X86106000Y-101346000D02*
X85433984Y-101346000D01*
X87503000Y-102743000D02*
X86106000Y-101346000D01*
X97569239Y-51988999D02*
X98760001Y-51988999D01*
X98887001Y-51861999D02*
X99187000Y-51562000D01*
X98760001Y-51988999D02*
X98887001Y-51861999D01*
X95075238Y-54483000D02*
X95678762Y-54483000D01*
X93899001Y-55659237D02*
X95075238Y-54483000D01*
X95678762Y-54483000D02*
X96439001Y-53722761D01*
X96439001Y-53722761D02*
X96439001Y-53119237D01*
X96439001Y-53119237D02*
X97569239Y-51988999D01*
X102079542Y-48866542D02*
X101483945Y-48866542D01*
X102408002Y-49195002D02*
X102079542Y-48866542D01*
X112094999Y-47071000D02*
X105027239Y-47071000D01*
X113157000Y-48133001D02*
X112094999Y-47071000D01*
X105027239Y-47071000D02*
X104267000Y-47831239D01*
X104267000Y-47831239D02*
X104267000Y-48434763D01*
X103506761Y-49195002D02*
X102408002Y-49195002D01*
X104267000Y-48434763D02*
X103506761Y-49195002D01*
G04 #@! TO.N,CANH*
X125857000Y-55753000D02*
X124587000Y-57023000D01*
X124587000Y-57023000D02*
X103505000Y-57023000D01*
X100076000Y-57912000D02*
X99314000Y-57912000D01*
X103505000Y-57023000D02*
X102616000Y-57912000D01*
X102616000Y-57912000D02*
X100076000Y-57912000D01*
G04 #@! TO.N,CANL*
X104394000Y-57531000D02*
X102934334Y-58990666D01*
X125857000Y-57531000D02*
X104394000Y-57531000D01*
X99537976Y-58990666D02*
X99237977Y-59290665D01*
X102934334Y-58990666D02*
X99537976Y-58990666D01*
X127000000Y-56388000D02*
X125857000Y-57531000D01*
X125857000Y-53213000D02*
X127000000Y-54356000D01*
X127000000Y-54356000D02*
X127000000Y-56388000D01*
G04 #@! TO.N,Net-(H1-Pad14)*
X76454000Y-49276001D02*
X77597000Y-48133001D01*
X76454000Y-54483000D02*
X76454000Y-49276001D01*
X76796206Y-58381206D02*
X76796206Y-57710858D01*
X79756000Y-61341000D02*
X76796206Y-58381206D01*
X76796206Y-57710858D02*
X76796206Y-57286594D01*
G04 #@! TO.N,Net-(H1-Pad13)*
X73670232Y-51185547D02*
X73670232Y-53985232D01*
X73670232Y-53985232D02*
X73787000Y-54102000D01*
X83312000Y-60909208D02*
X83312000Y-61087000D01*
X80289396Y-57886604D02*
X83312000Y-60909208D01*
G04 #@! TO.N,Net-(H1-Pad16)*
X86106000Y-49276000D02*
X86487000Y-49657000D01*
X86487000Y-49657000D02*
X86487000Y-54483000D01*
X86487000Y-57658000D02*
X86487000Y-60833000D01*
X86487000Y-60833000D02*
X86233000Y-61087000D01*
G04 #@! TO.N,Net-(H1-Pad15)*
X81280000Y-51816001D02*
X80137000Y-50673001D01*
X81280000Y-54102000D02*
X81280000Y-51816001D01*
X82568017Y-57937665D02*
X82268018Y-57637666D01*
X84622130Y-59991778D02*
X82568017Y-57937665D01*
X84622130Y-61451207D02*
X84622130Y-59991778D01*
G04 #@! TO.N,Net-(H1-Pad39)*
X107950000Y-85217000D02*
X108458000Y-84709000D01*
X108458000Y-84709000D02*
X108458000Y-79629000D01*
X104732938Y-58693011D02*
X101744323Y-61681626D01*
X128270000Y-57912000D02*
X127488989Y-58693011D01*
X127488989Y-58693011D02*
X104732938Y-58693011D01*
X101744323Y-61681626D02*
X101444324Y-61981625D01*
G04 #@! TO.N,Net-(H1-Pad47)*
X109555001Y-91231999D02*
X109855000Y-90932000D01*
X106553000Y-94996000D02*
X106553000Y-94234000D01*
X106553000Y-94234000D02*
X109555001Y-91231999D01*
X109982000Y-79375000D02*
X109392999Y-78785999D01*
X109392999Y-78785999D02*
X109093000Y-78486000D01*
X109982000Y-81026000D02*
X109982000Y-79375000D01*
X100609604Y-61659376D02*
X100909603Y-61359377D01*
X97219376Y-61659376D02*
X100609604Y-61659376D01*
X94361000Y-58801000D02*
X97219376Y-61659376D01*
X92121000Y-49611000D02*
X111714000Y-49611000D01*
X111714000Y-49611000D02*
X111760000Y-49657000D01*
X91694000Y-50038000D02*
X92121000Y-49611000D01*
G04 #@! TO.N,SWDSWO*
X83139999Y-65613001D02*
X83393001Y-65613001D01*
X62992000Y-59309000D02*
X76835998Y-59309000D01*
X52578000Y-48895000D02*
X62992000Y-59309000D01*
X83393001Y-65613001D02*
X83693000Y-65913000D01*
X76835998Y-59309000D02*
X83139999Y-65613001D01*
X83693000Y-76962000D02*
X83092998Y-77562002D01*
X83092998Y-80044990D02*
X86187009Y-83139001D01*
X83092998Y-77562002D02*
X83092998Y-80044990D01*
X86187009Y-83139001D02*
X86487008Y-83439000D01*
G04 #@! TO.N,SWDIO*
X52578000Y-53975000D02*
X53427999Y-54824999D01*
X53427999Y-54824999D02*
X58420000Y-59817000D01*
X58420000Y-59817000D02*
X75692000Y-59817000D01*
X75692000Y-59817000D02*
X75946000Y-59817000D01*
X82931000Y-66548000D02*
X82931000Y-66123736D01*
X82931000Y-66123736D02*
X76624264Y-59817000D01*
X76624264Y-59817000D02*
X75692000Y-59817000D01*
X88108270Y-82901270D02*
X83693000Y-78486000D01*
G04 #@! TO.N,SWDCLK*
X76962000Y-61398700D02*
X75780311Y-60217011D01*
X77759997Y-90839999D02*
X76962000Y-90042002D01*
X80425001Y-90839999D02*
X77759997Y-90839999D01*
X86636536Y-91716536D02*
X81301538Y-91716536D01*
X87249000Y-92329000D02*
X86636536Y-91716536D01*
X81301538Y-91716536D02*
X80425001Y-90839999D01*
X56280011Y-60217011D02*
X53427999Y-57364999D01*
X53427999Y-57364999D02*
X52578000Y-56515000D01*
X76962000Y-90042002D02*
X76962000Y-61398700D01*
X75780311Y-60217011D02*
X56280011Y-60217011D01*
G04 #@! TO.N,Net-(J2-Pad2)*
X107061000Y-114808000D02*
X107061000Y-116098236D01*
X107442000Y-114427000D02*
X107061000Y-114808000D01*
X107061000Y-116098236D02*
X107061000Y-116522500D01*
G04 #@! TO.N,Net-(J2-Pad1)*
X107950000Y-115189000D02*
X107950000Y-117411500D01*
X107950000Y-117411500D02*
X107886500Y-117475000D01*
G04 #@! TO.N,Tx*
X103124000Y-93726000D02*
X106045000Y-90805000D01*
G04 #@! TO.N,Rx*
X102870000Y-92964000D02*
X104775000Y-91059000D01*
X104775000Y-84709000D02*
X105410000Y-84074000D01*
X104775000Y-85470998D02*
X104775000Y-84709000D01*
G04 #@! TO.N,ADC0*
X97028000Y-100711000D02*
X97327999Y-100411001D01*
X97327999Y-100411001D02*
X98298000Y-99441000D01*
X98298000Y-99441000D02*
X105410000Y-99441000D01*
G04 #@! TO.N,ADC1*
X104013000Y-90534756D02*
X104013000Y-89535000D01*
X101727000Y-96520000D02*
X101727000Y-92820756D01*
X101727000Y-92820756D02*
X104013000Y-90534756D01*
X104521000Y-58293000D02*
X102281007Y-60532993D01*
X99613999Y-60533011D02*
X99314000Y-60833010D01*
X99614017Y-60532993D02*
X99613999Y-60533011D01*
X126365000Y-58293000D02*
X104521000Y-58293000D01*
X129159000Y-55499000D02*
X126365000Y-58293000D01*
X102281007Y-60532993D02*
X99614017Y-60532993D01*
G04 #@! TO.N,GPIO1*
X81661000Y-86995000D02*
X81657968Y-86995000D01*
X85217000Y-90551000D02*
X81661000Y-86995000D01*
G04 #@! TO.N,GPIO2*
X87757000Y-94785264D02*
X87038264Y-95504000D01*
X87757000Y-94361000D02*
X87757000Y-94785264D01*
X82676994Y-95504000D02*
X80010000Y-92837006D01*
X87038264Y-95504000D02*
X82676994Y-95504000D01*
G04 #@! TO.N,GPIO3*
X81757988Y-93427792D02*
X81757988Y-92670790D01*
X86589731Y-95103989D02*
X83434185Y-95103989D01*
X83434185Y-95103989D02*
X81757988Y-93427792D01*
X86952290Y-94741430D02*
X86589731Y-95103989D01*
X81757988Y-92670790D02*
X82057987Y-92370791D01*
G04 #@! TO.N,GPIO4*
X85090000Y-94503979D02*
X83853843Y-93267822D01*
X83853843Y-93267822D02*
X82882254Y-93267822D01*
X82882254Y-93267822D02*
X82457990Y-93267822D01*
G04 #@! TO.N,In1*
X105410000Y-107950000D02*
X103886000Y-106426000D01*
X109728000Y-113550000D02*
X109728000Y-112691180D01*
X109728000Y-112691180D02*
X107268989Y-110232169D01*
X107268989Y-110232169D02*
X106968990Y-109932170D01*
G04 #@! TO.N,In2*
X108613501Y-112804501D02*
X106852999Y-111043999D01*
X108613501Y-117757501D02*
X108613501Y-112804501D01*
X106852999Y-111043999D02*
X106553000Y-110744000D01*
X110363000Y-119507000D02*
X108613501Y-117757501D01*
G04 #@! TO.N,In3*
X93091000Y-89027000D02*
X93091000Y-88011998D01*
X97365735Y-84454997D02*
X97789999Y-84454997D01*
X93091000Y-88011998D02*
X96648001Y-84454997D01*
X96648001Y-84454997D02*
X97365735Y-84454997D01*
X103312978Y-78821001D02*
X103012979Y-79121000D01*
X106949979Y-75184000D02*
X103312978Y-78821001D01*
X110236000Y-75184000D02*
X106949979Y-75184000D01*
G04 #@! TO.N,In4*
X93726000Y-94234000D02*
X98298000Y-98806000D01*
X109666010Y-103085913D02*
X110235999Y-102515924D01*
X102577913Y-103085913D02*
X109666010Y-103085913D01*
G04 #@! TO.N,In5*
X78105000Y-62865000D02*
X93218000Y-77978000D01*
G04 #@! TO.N,In6*
X78764000Y-90424000D02*
X80574702Y-90424000D01*
X80574702Y-90424000D02*
X81463702Y-91313000D01*
X78117000Y-89777000D02*
X78764000Y-90424000D01*
X81463702Y-91313000D02*
X87459736Y-91313000D01*
X87459736Y-91313000D02*
X87884000Y-91313000D01*
G04 #@! TO.N,In7*
X78148264Y-110998000D02*
X86187608Y-102958656D01*
X86187608Y-102958656D02*
X86187608Y-102616000D01*
X77724000Y-110998000D02*
X78148264Y-110998000D01*
G04 #@! TO.N,In8*
X82598746Y-105029002D02*
X83023010Y-105029002D01*
X79945002Y-105029002D02*
X82598746Y-105029002D01*
X78167000Y-103251000D02*
X79945002Y-105029002D01*
G04 #@! TO.N,Net-(R27-Pad2)*
X98425000Y-102108000D02*
X98425000Y-105664000D01*
X97790000Y-101473000D02*
X98425000Y-102108000D01*
X76355809Y-56838989D02*
X76508205Y-56686593D01*
X76508205Y-56686593D02*
X77075893Y-56686593D01*
X80856056Y-61495768D02*
X80856056Y-61920032D01*
X80856056Y-60466756D02*
X80856056Y-61495768D01*
X77075893Y-56686593D02*
X80856056Y-60466756D01*
X72031227Y-56838989D02*
X76355809Y-56838989D01*
X71247000Y-49276000D02*
X71247000Y-56054762D01*
X71247000Y-56054762D02*
X72031227Y-56838989D01*
G04 #@! TO.N,In9*
X110573736Y-89154000D02*
X110998000Y-89154000D01*
X103285990Y-95377000D02*
X109508990Y-89154000D01*
X109508990Y-89154000D02*
X110573736Y-89154000D01*
G04 #@! TO.N,In10*
X93174736Y-94996000D02*
X93218000Y-94996000D01*
X89154000Y-90551000D02*
X89154000Y-90975264D01*
X89154000Y-90975264D02*
X93174736Y-94996000D01*
X77978000Y-75311000D02*
X77978000Y-75945004D01*
X88139000Y-86106004D02*
X88231726Y-86106004D01*
X77978000Y-75945004D02*
X88139000Y-86106004D01*
X88231726Y-86106004D02*
X88655990Y-86106004D01*
G04 #@! TO.N,Net-(U10-Pad25)*
X97155000Y-90297000D02*
X97155000Y-89662000D01*
X97155000Y-89662000D02*
X97155000Y-89535000D01*
X97155000Y-89535000D02*
X96393000Y-88773000D01*
X96393000Y-88773000D02*
X96393000Y-85979000D01*
X93599000Y-76962000D02*
X93299001Y-76662001D01*
X93299001Y-76662001D02*
X90551000Y-73914000D01*
X90551000Y-73914000D02*
X90297000Y-73660000D01*
X90297000Y-73660000D02*
X90297000Y-73152000D01*
G04 #@! TO.N,Net-(U10-Pad26)*
X97409000Y-88518994D02*
X97408994Y-88519000D01*
X97409000Y-86741000D02*
X97409000Y-88518994D01*
G04 #@! TD*
D25*
G04 #@! TO.N,GNDPWR*
G36*
X137530000Y-59304162D02*
X137530001Y-137643174D01*
X137501925Y-137793921D01*
X137472076Y-137842347D01*
X137426800Y-137876775D01*
X137308615Y-137910999D01*
X131017819Y-137910999D01*
X131751478Y-137177341D01*
X132735654Y-137585000D01*
X134218346Y-137585000D01*
X135588176Y-137017598D01*
X136636598Y-135969176D01*
X137204000Y-134599346D01*
X137204000Y-133116654D01*
X136636598Y-131746824D01*
X135588176Y-130698402D01*
X134218346Y-130131000D01*
X132735654Y-130131000D01*
X131365824Y-130698402D01*
X130317402Y-131746824D01*
X129750000Y-133116654D01*
X129750000Y-134599346D01*
X130157659Y-135583522D01*
X128946182Y-136795000D01*
X107654819Y-136795000D01*
X104507400Y-133647582D01*
X104444522Y-133553478D01*
X104071733Y-133304389D01*
X103742999Y-133239000D01*
X103742998Y-133239000D01*
X103632000Y-133216921D01*
X103521002Y-133239000D01*
X84946998Y-133239000D01*
X84836000Y-133216921D01*
X84725002Y-133239000D01*
X84725001Y-133239000D01*
X84396267Y-133304389D01*
X84396266Y-133304390D01*
X84396265Y-133304390D01*
X84279162Y-133382636D01*
X84023478Y-133553478D01*
X83960602Y-133647579D01*
X81448182Y-136160000D01*
X56435774Y-136160000D01*
X56626598Y-135969176D01*
X57194000Y-134599346D01*
X57194000Y-133116654D01*
X56626598Y-131746824D01*
X55578176Y-130698402D01*
X54208346Y-130131000D01*
X52725654Y-130131000D01*
X51741477Y-130538659D01*
X51307085Y-130104267D01*
X92290000Y-130104267D01*
X92290000Y-131079733D01*
X92663294Y-131980947D01*
X93353053Y-132670706D01*
X94254267Y-133044000D01*
X95229733Y-133044000D01*
X96130947Y-132670706D01*
X96820706Y-131980947D01*
X97194000Y-131079733D01*
X97194000Y-130104267D01*
X96820706Y-129203053D01*
X96130947Y-128513294D01*
X95229733Y-128140000D01*
X94254267Y-128140000D01*
X93353053Y-128513294D01*
X92663294Y-129203053D01*
X92290000Y-130104267D01*
X51307085Y-130104267D01*
X50276000Y-129073182D01*
X50276000Y-116335500D01*
X54811339Y-116335500D01*
X54811339Y-118360500D01*
X54883285Y-118722197D01*
X55088170Y-119028830D01*
X55394803Y-119233715D01*
X55756500Y-119305661D01*
X56172784Y-119305661D01*
X55670362Y-119513771D01*
X55124771Y-120059362D01*
X54829500Y-120772209D01*
X54829500Y-121543791D01*
X55124771Y-122256638D01*
X55670362Y-122802229D01*
X56383209Y-123097500D01*
X57154791Y-123097500D01*
X57867638Y-122802229D01*
X58413229Y-122256638D01*
X58708500Y-121543791D01*
X58708500Y-120772209D01*
X58413229Y-120059362D01*
X57867638Y-119513771D01*
X57365216Y-119305661D01*
X57781500Y-119305661D01*
X58143197Y-119233715D01*
X58449830Y-119028830D01*
X58654715Y-118722197D01*
X58726661Y-118360500D01*
X58726661Y-116335500D01*
X58654715Y-115973803D01*
X58449830Y-115667170D01*
X58143197Y-115462285D01*
X57781500Y-115390339D01*
X55756500Y-115390339D01*
X55394803Y-115462285D01*
X55088170Y-115667170D01*
X54883285Y-115973803D01*
X54811339Y-116335500D01*
X50276000Y-116335500D01*
X50276000Y-103762500D01*
X54811339Y-103762500D01*
X54811339Y-105787500D01*
X54883285Y-106149197D01*
X55088170Y-106455830D01*
X55394803Y-106660715D01*
X55756500Y-106732661D01*
X56172784Y-106732661D01*
X55670362Y-106940771D01*
X55124771Y-107486362D01*
X54829500Y-108199209D01*
X54829500Y-108970791D01*
X55124771Y-109683638D01*
X55670362Y-110229229D01*
X56383209Y-110524500D01*
X57154791Y-110524500D01*
X57867638Y-110229229D01*
X58413229Y-109683638D01*
X58708500Y-108970791D01*
X58708500Y-108199209D01*
X58413229Y-107486362D01*
X57867638Y-106940771D01*
X57365216Y-106732661D01*
X57781500Y-106732661D01*
X58143197Y-106660715D01*
X58449830Y-106455830D01*
X58654715Y-106149197D01*
X58726661Y-105787500D01*
X58726661Y-103762500D01*
X58654715Y-103400803D01*
X58449830Y-103094170D01*
X58143197Y-102889285D01*
X57781500Y-102817339D01*
X55756500Y-102817339D01*
X55394803Y-102889285D01*
X55088170Y-103094170D01*
X54883285Y-103400803D01*
X54811339Y-103762500D01*
X50276000Y-103762500D01*
X50276000Y-90935500D01*
X54811339Y-90935500D01*
X54811339Y-92960500D01*
X54883285Y-93322197D01*
X55088170Y-93628830D01*
X55394803Y-93833715D01*
X55756500Y-93905661D01*
X56172784Y-93905661D01*
X55670362Y-94113771D01*
X55124771Y-94659362D01*
X54829500Y-95372209D01*
X54829500Y-96143791D01*
X55124771Y-96856638D01*
X55670362Y-97402229D01*
X56383209Y-97697500D01*
X57154791Y-97697500D01*
X57867638Y-97402229D01*
X58413229Y-96856638D01*
X58708500Y-96143791D01*
X58708500Y-95372209D01*
X58413229Y-94659362D01*
X57867638Y-94113771D01*
X57365216Y-93905661D01*
X57781500Y-93905661D01*
X58143197Y-93833715D01*
X58449830Y-93628830D01*
X58654715Y-93322197D01*
X58726661Y-92960500D01*
X58726661Y-90935500D01*
X58654715Y-90573803D01*
X58449830Y-90267170D01*
X58143197Y-90062285D01*
X57781500Y-89990339D01*
X55756500Y-89990339D01*
X55394803Y-90062285D01*
X55088170Y-90267170D01*
X54883285Y-90573803D01*
X54811339Y-90935500D01*
X50276000Y-90935500D01*
X50276000Y-78108500D01*
X54811339Y-78108500D01*
X54811339Y-80133500D01*
X54883285Y-80495197D01*
X55088170Y-80801830D01*
X55394803Y-81006715D01*
X55756500Y-81078661D01*
X56172784Y-81078661D01*
X55670362Y-81286771D01*
X55124771Y-81832362D01*
X54829500Y-82545209D01*
X54829500Y-83316791D01*
X55124771Y-84029638D01*
X55670362Y-84575229D01*
X56383209Y-84870500D01*
X57154791Y-84870500D01*
X57867638Y-84575229D01*
X58413229Y-84029638D01*
X58708500Y-83316791D01*
X58708500Y-82545209D01*
X58413229Y-81832362D01*
X57867638Y-81286771D01*
X57365216Y-81078661D01*
X57781500Y-81078661D01*
X58143197Y-81006715D01*
X58449830Y-80801830D01*
X58654715Y-80495197D01*
X58726661Y-80133500D01*
X58726661Y-78108500D01*
X58654715Y-77746803D01*
X58449830Y-77440170D01*
X58143197Y-77235285D01*
X57781500Y-77163339D01*
X55756500Y-77163339D01*
X55394803Y-77235285D01*
X55088170Y-77440170D01*
X54883285Y-77746803D01*
X54811339Y-78108500D01*
X50276000Y-78108500D01*
X50276000Y-65408500D01*
X54811339Y-65408500D01*
X54811339Y-67433500D01*
X54883285Y-67795197D01*
X55088170Y-68101830D01*
X55394803Y-68306715D01*
X55756500Y-68378661D01*
X56172784Y-68378661D01*
X55670362Y-68586771D01*
X55124771Y-69132362D01*
X54829500Y-69845209D01*
X54829500Y-70616791D01*
X55124771Y-71329638D01*
X55670362Y-71875229D01*
X56383209Y-72170500D01*
X57154791Y-72170500D01*
X57867638Y-71875229D01*
X58413229Y-71329638D01*
X58708500Y-70616791D01*
X58708500Y-69845209D01*
X58413229Y-69132362D01*
X57867638Y-68586771D01*
X57365216Y-68378661D01*
X57781500Y-68378661D01*
X58143197Y-68306715D01*
X58449830Y-68101830D01*
X58654715Y-67795197D01*
X58726661Y-67433500D01*
X58726661Y-65408500D01*
X58654715Y-65046803D01*
X58449830Y-64740170D01*
X58143197Y-64535285D01*
X57781500Y-64463339D01*
X55756500Y-64463339D01*
X55394803Y-64535285D01*
X55088170Y-64740170D01*
X54883285Y-65046803D01*
X54811339Y-65408500D01*
X50276000Y-65408500D01*
X50276000Y-63661788D01*
X68960473Y-64005674D01*
X68707001Y-124078464D01*
X68716463Y-124127105D01*
X68744197Y-124168803D01*
X71792197Y-127216803D01*
X71833399Y-127244333D01*
X71884189Y-127253981D01*
X79250189Y-127126981D01*
X79298616Y-127116477D01*
X79339337Y-127088241D01*
X79357485Y-127064359D01*
X82383297Y-121917000D01*
X91281839Y-121917000D01*
X91281839Y-123447000D01*
X91353785Y-123808697D01*
X91558670Y-124115330D01*
X91865303Y-124320215D01*
X92227000Y-124392161D01*
X93757000Y-124392161D01*
X94118697Y-124320215D01*
X94425330Y-124115330D01*
X94630215Y-123808697D01*
X94658920Y-123664387D01*
X95689218Y-123664387D01*
X95759051Y-123906883D01*
X96283586Y-124094132D01*
X96839850Y-124066396D01*
X97224949Y-123906883D01*
X97294782Y-123664387D01*
X96492000Y-122861605D01*
X95689218Y-123664387D01*
X94658920Y-123664387D01*
X94702161Y-123447000D01*
X94702161Y-122473586D01*
X95079868Y-122473586D01*
X95107604Y-123029850D01*
X95267117Y-123414949D01*
X95509613Y-123484782D01*
X96312395Y-122682000D01*
X96671605Y-122682000D01*
X97474387Y-123484782D01*
X97716883Y-123414949D01*
X97904132Y-122890414D01*
X97876396Y-122334150D01*
X97716883Y-121949051D01*
X97474387Y-121879218D01*
X96671605Y-122682000D01*
X96312395Y-122682000D01*
X95509613Y-121879218D01*
X95267117Y-121949051D01*
X95079868Y-122473586D01*
X94702161Y-122473586D01*
X94702161Y-121917000D01*
X94658921Y-121699613D01*
X95689218Y-121699613D01*
X96492000Y-122502395D01*
X97294782Y-121699613D01*
X97224949Y-121457117D01*
X96700414Y-121269868D01*
X96144150Y-121297604D01*
X95759051Y-121457117D01*
X95689218Y-121699613D01*
X94658921Y-121699613D01*
X94630215Y-121555303D01*
X94425330Y-121248670D01*
X94118697Y-121043785D01*
X93757000Y-120971839D01*
X92227000Y-120971839D01*
X91865303Y-121043785D01*
X91558670Y-121248670D01*
X91353785Y-121555303D01*
X91281839Y-121917000D01*
X82383297Y-121917000D01*
X90369201Y-108331784D01*
X102012742Y-108456983D01*
X105729218Y-121060683D01*
X105585017Y-121032000D01*
X105234983Y-121032000D01*
X104716649Y-121135103D01*
X104128855Y-121527855D01*
X103736103Y-122115649D01*
X103598187Y-122809000D01*
X103736103Y-123502351D01*
X104128855Y-124090145D01*
X104716649Y-124482897D01*
X105234983Y-124586000D01*
X105585017Y-124586000D01*
X106103351Y-124482897D01*
X106402194Y-124283216D01*
X106431670Y-124327330D01*
X106738303Y-124532215D01*
X106753782Y-124535294D01*
X107828185Y-128178920D01*
X107851204Y-128222802D01*
X107889263Y-128254535D01*
X107950920Y-128269997D01*
X125476920Y-128142997D01*
X125525450Y-128132977D01*
X125555336Y-128115170D01*
X128730336Y-125575170D01*
X128762248Y-125537261D01*
X128777999Y-125476510D01*
X128787804Y-123035029D01*
X128800803Y-123043715D01*
X129162500Y-123115661D01*
X131187500Y-123115661D01*
X131549197Y-123043715D01*
X131855830Y-122838830D01*
X132060715Y-122532197D01*
X132132661Y-122170500D01*
X132132661Y-120145500D01*
X132060715Y-119783803D01*
X131855830Y-119477170D01*
X131549197Y-119272285D01*
X131187500Y-119200339D01*
X130771216Y-119200339D01*
X131273638Y-118992229D01*
X131819229Y-118446638D01*
X132114500Y-117733791D01*
X132114500Y-116962209D01*
X131819229Y-116249362D01*
X131273638Y-115703771D01*
X130560791Y-115408500D01*
X129789209Y-115408500D01*
X129076362Y-115703771D01*
X128816202Y-115963931D01*
X128838233Y-110478160D01*
X129162500Y-110542661D01*
X131187500Y-110542661D01*
X131549197Y-110470715D01*
X131855830Y-110265830D01*
X132060715Y-109959197D01*
X132132661Y-109597500D01*
X132132661Y-107572500D01*
X132060715Y-107210803D01*
X131855830Y-106904170D01*
X131549197Y-106699285D01*
X131187500Y-106627339D01*
X130771216Y-106627339D01*
X131273638Y-106419229D01*
X131819229Y-105873638D01*
X132114500Y-105160791D01*
X132114500Y-104389209D01*
X131819229Y-103676362D01*
X131273638Y-103130771D01*
X130560791Y-102835500D01*
X129789209Y-102835500D01*
X129076362Y-103130771D01*
X128866900Y-103340233D01*
X128889197Y-97788298D01*
X129162500Y-97842661D01*
X131187500Y-97842661D01*
X131549197Y-97770715D01*
X131855830Y-97565830D01*
X132060715Y-97259197D01*
X132132661Y-96897500D01*
X132132661Y-94872500D01*
X132060715Y-94510803D01*
X131855830Y-94204170D01*
X131549197Y-93999285D01*
X131187500Y-93927339D01*
X130771216Y-93927339D01*
X131273638Y-93719229D01*
X131819229Y-93173638D01*
X132114500Y-92460791D01*
X132114500Y-91689209D01*
X131819229Y-90976362D01*
X131273638Y-90430771D01*
X130560791Y-90135500D01*
X129789209Y-90135500D01*
X129076362Y-90430771D01*
X128918109Y-90589024D01*
X128941179Y-84844638D01*
X129162500Y-84888661D01*
X131187500Y-84888661D01*
X131549197Y-84816715D01*
X131855830Y-84611830D01*
X132060715Y-84305197D01*
X132132661Y-83943500D01*
X132132661Y-81918500D01*
X132060715Y-81556803D01*
X131855830Y-81250170D01*
X131549197Y-81045285D01*
X131187500Y-80973339D01*
X130771216Y-80973339D01*
X131273638Y-80765229D01*
X131819229Y-80219638D01*
X132114500Y-79506791D01*
X132114500Y-78735209D01*
X131819229Y-78022362D01*
X131273638Y-77476771D01*
X130560791Y-77181500D01*
X129789209Y-77181500D01*
X129076362Y-77476771D01*
X128970343Y-77582790D01*
X128993671Y-71774079D01*
X129162500Y-71807661D01*
X131187500Y-71807661D01*
X131549197Y-71735715D01*
X131855830Y-71530830D01*
X132060715Y-71224197D01*
X132132661Y-70862500D01*
X132132661Y-68837500D01*
X132060715Y-68475803D01*
X131855830Y-68169170D01*
X131549197Y-67964285D01*
X131187500Y-67892339D01*
X130771216Y-67892339D01*
X131273638Y-67684229D01*
X131819229Y-67138638D01*
X132114500Y-66425791D01*
X132114500Y-65654209D01*
X131819229Y-64941362D01*
X131273638Y-64395771D01*
X130560791Y-64100500D01*
X129789209Y-64100500D01*
X129076362Y-64395771D01*
X129023089Y-64449044D01*
X129031999Y-62230510D01*
X129022527Y-62181871D01*
X128995162Y-62140559D01*
X128954072Y-62112863D01*
X128905000Y-62103000D01*
X108657572Y-62103000D01*
X108749194Y-61965878D01*
X108898751Y-61214000D01*
X108749194Y-60462123D01*
X108430798Y-59985609D01*
X108165200Y-59720011D01*
X127387840Y-59720011D01*
X127488989Y-59740131D01*
X127590138Y-59720011D01*
X127590139Y-59720011D01*
X127889704Y-59660424D01*
X128229415Y-59433437D01*
X128286715Y-59347681D01*
X128361740Y-59272656D01*
X137530000Y-59304162D01*
X137530000Y-59304162D01*
G37*
X137530000Y-59304162D02*
X137530001Y-137643174D01*
X137501925Y-137793921D01*
X137472076Y-137842347D01*
X137426800Y-137876775D01*
X137308615Y-137910999D01*
X131017819Y-137910999D01*
X131751478Y-137177341D01*
X132735654Y-137585000D01*
X134218346Y-137585000D01*
X135588176Y-137017598D01*
X136636598Y-135969176D01*
X137204000Y-134599346D01*
X137204000Y-133116654D01*
X136636598Y-131746824D01*
X135588176Y-130698402D01*
X134218346Y-130131000D01*
X132735654Y-130131000D01*
X131365824Y-130698402D01*
X130317402Y-131746824D01*
X129750000Y-133116654D01*
X129750000Y-134599346D01*
X130157659Y-135583522D01*
X128946182Y-136795000D01*
X107654819Y-136795000D01*
X104507400Y-133647582D01*
X104444522Y-133553478D01*
X104071733Y-133304389D01*
X103742999Y-133239000D01*
X103742998Y-133239000D01*
X103632000Y-133216921D01*
X103521002Y-133239000D01*
X84946998Y-133239000D01*
X84836000Y-133216921D01*
X84725002Y-133239000D01*
X84725001Y-133239000D01*
X84396267Y-133304389D01*
X84396266Y-133304390D01*
X84396265Y-133304390D01*
X84279162Y-133382636D01*
X84023478Y-133553478D01*
X83960602Y-133647579D01*
X81448182Y-136160000D01*
X56435774Y-136160000D01*
X56626598Y-135969176D01*
X57194000Y-134599346D01*
X57194000Y-133116654D01*
X56626598Y-131746824D01*
X55578176Y-130698402D01*
X54208346Y-130131000D01*
X52725654Y-130131000D01*
X51741477Y-130538659D01*
X51307085Y-130104267D01*
X92290000Y-130104267D01*
X92290000Y-131079733D01*
X92663294Y-131980947D01*
X93353053Y-132670706D01*
X94254267Y-133044000D01*
X95229733Y-133044000D01*
X96130947Y-132670706D01*
X96820706Y-131980947D01*
X97194000Y-131079733D01*
X97194000Y-130104267D01*
X96820706Y-129203053D01*
X96130947Y-128513294D01*
X95229733Y-128140000D01*
X94254267Y-128140000D01*
X93353053Y-128513294D01*
X92663294Y-129203053D01*
X92290000Y-130104267D01*
X51307085Y-130104267D01*
X50276000Y-129073182D01*
X50276000Y-116335500D01*
X54811339Y-116335500D01*
X54811339Y-118360500D01*
X54883285Y-118722197D01*
X55088170Y-119028830D01*
X55394803Y-119233715D01*
X55756500Y-119305661D01*
X56172784Y-119305661D01*
X55670362Y-119513771D01*
X55124771Y-120059362D01*
X54829500Y-120772209D01*
X54829500Y-121543791D01*
X55124771Y-122256638D01*
X55670362Y-122802229D01*
X56383209Y-123097500D01*
X57154791Y-123097500D01*
X57867638Y-122802229D01*
X58413229Y-122256638D01*
X58708500Y-121543791D01*
X58708500Y-120772209D01*
X58413229Y-120059362D01*
X57867638Y-119513771D01*
X57365216Y-119305661D01*
X57781500Y-119305661D01*
X58143197Y-119233715D01*
X58449830Y-119028830D01*
X58654715Y-118722197D01*
X58726661Y-118360500D01*
X58726661Y-116335500D01*
X58654715Y-115973803D01*
X58449830Y-115667170D01*
X58143197Y-115462285D01*
X57781500Y-115390339D01*
X55756500Y-115390339D01*
X55394803Y-115462285D01*
X55088170Y-115667170D01*
X54883285Y-115973803D01*
X54811339Y-116335500D01*
X50276000Y-116335500D01*
X50276000Y-103762500D01*
X54811339Y-103762500D01*
X54811339Y-105787500D01*
X54883285Y-106149197D01*
X55088170Y-106455830D01*
X55394803Y-106660715D01*
X55756500Y-106732661D01*
X56172784Y-106732661D01*
X55670362Y-106940771D01*
X55124771Y-107486362D01*
X54829500Y-108199209D01*
X54829500Y-108970791D01*
X55124771Y-109683638D01*
X55670362Y-110229229D01*
X56383209Y-110524500D01*
X57154791Y-110524500D01*
X57867638Y-110229229D01*
X58413229Y-109683638D01*
X58708500Y-108970791D01*
X58708500Y-108199209D01*
X58413229Y-107486362D01*
X57867638Y-106940771D01*
X57365216Y-106732661D01*
X57781500Y-106732661D01*
X58143197Y-106660715D01*
X58449830Y-106455830D01*
X58654715Y-106149197D01*
X58726661Y-105787500D01*
X58726661Y-103762500D01*
X58654715Y-103400803D01*
X58449830Y-103094170D01*
X58143197Y-102889285D01*
X57781500Y-102817339D01*
X55756500Y-102817339D01*
X55394803Y-102889285D01*
X55088170Y-103094170D01*
X54883285Y-103400803D01*
X54811339Y-103762500D01*
X50276000Y-103762500D01*
X50276000Y-90935500D01*
X54811339Y-90935500D01*
X54811339Y-92960500D01*
X54883285Y-93322197D01*
X55088170Y-93628830D01*
X55394803Y-93833715D01*
X55756500Y-93905661D01*
X56172784Y-93905661D01*
X55670362Y-94113771D01*
X55124771Y-94659362D01*
X54829500Y-95372209D01*
X54829500Y-96143791D01*
X55124771Y-96856638D01*
X55670362Y-97402229D01*
X56383209Y-97697500D01*
X57154791Y-97697500D01*
X57867638Y-97402229D01*
X58413229Y-96856638D01*
X58708500Y-96143791D01*
X58708500Y-95372209D01*
X58413229Y-94659362D01*
X57867638Y-94113771D01*
X57365216Y-93905661D01*
X57781500Y-93905661D01*
X58143197Y-93833715D01*
X58449830Y-93628830D01*
X58654715Y-93322197D01*
X58726661Y-92960500D01*
X58726661Y-90935500D01*
X58654715Y-90573803D01*
X58449830Y-90267170D01*
X58143197Y-90062285D01*
X57781500Y-89990339D01*
X55756500Y-89990339D01*
X55394803Y-90062285D01*
X55088170Y-90267170D01*
X54883285Y-90573803D01*
X54811339Y-90935500D01*
X50276000Y-90935500D01*
X50276000Y-78108500D01*
X54811339Y-78108500D01*
X54811339Y-80133500D01*
X54883285Y-80495197D01*
X55088170Y-80801830D01*
X55394803Y-81006715D01*
X55756500Y-81078661D01*
X56172784Y-81078661D01*
X55670362Y-81286771D01*
X55124771Y-81832362D01*
X54829500Y-82545209D01*
X54829500Y-83316791D01*
X55124771Y-84029638D01*
X55670362Y-84575229D01*
X56383209Y-84870500D01*
X57154791Y-84870500D01*
X57867638Y-84575229D01*
X58413229Y-84029638D01*
X58708500Y-83316791D01*
X58708500Y-82545209D01*
X58413229Y-81832362D01*
X57867638Y-81286771D01*
X57365216Y-81078661D01*
X57781500Y-81078661D01*
X58143197Y-81006715D01*
X58449830Y-80801830D01*
X58654715Y-80495197D01*
X58726661Y-80133500D01*
X58726661Y-78108500D01*
X58654715Y-77746803D01*
X58449830Y-77440170D01*
X58143197Y-77235285D01*
X57781500Y-77163339D01*
X55756500Y-77163339D01*
X55394803Y-77235285D01*
X55088170Y-77440170D01*
X54883285Y-77746803D01*
X54811339Y-78108500D01*
X50276000Y-78108500D01*
X50276000Y-65408500D01*
X54811339Y-65408500D01*
X54811339Y-67433500D01*
X54883285Y-67795197D01*
X55088170Y-68101830D01*
X55394803Y-68306715D01*
X55756500Y-68378661D01*
X56172784Y-68378661D01*
X55670362Y-68586771D01*
X55124771Y-69132362D01*
X54829500Y-69845209D01*
X54829500Y-70616791D01*
X55124771Y-71329638D01*
X55670362Y-71875229D01*
X56383209Y-72170500D01*
X57154791Y-72170500D01*
X57867638Y-71875229D01*
X58413229Y-71329638D01*
X58708500Y-70616791D01*
X58708500Y-69845209D01*
X58413229Y-69132362D01*
X57867638Y-68586771D01*
X57365216Y-68378661D01*
X57781500Y-68378661D01*
X58143197Y-68306715D01*
X58449830Y-68101830D01*
X58654715Y-67795197D01*
X58726661Y-67433500D01*
X58726661Y-65408500D01*
X58654715Y-65046803D01*
X58449830Y-64740170D01*
X58143197Y-64535285D01*
X57781500Y-64463339D01*
X55756500Y-64463339D01*
X55394803Y-64535285D01*
X55088170Y-64740170D01*
X54883285Y-65046803D01*
X54811339Y-65408500D01*
X50276000Y-65408500D01*
X50276000Y-63661788D01*
X68960473Y-64005674D01*
X68707001Y-124078464D01*
X68716463Y-124127105D01*
X68744197Y-124168803D01*
X71792197Y-127216803D01*
X71833399Y-127244333D01*
X71884189Y-127253981D01*
X79250189Y-127126981D01*
X79298616Y-127116477D01*
X79339337Y-127088241D01*
X79357485Y-127064359D01*
X82383297Y-121917000D01*
X91281839Y-121917000D01*
X91281839Y-123447000D01*
X91353785Y-123808697D01*
X91558670Y-124115330D01*
X91865303Y-124320215D01*
X92227000Y-124392161D01*
X93757000Y-124392161D01*
X94118697Y-124320215D01*
X94425330Y-124115330D01*
X94630215Y-123808697D01*
X94658920Y-123664387D01*
X95689218Y-123664387D01*
X95759051Y-123906883D01*
X96283586Y-124094132D01*
X96839850Y-124066396D01*
X97224949Y-123906883D01*
X97294782Y-123664387D01*
X96492000Y-122861605D01*
X95689218Y-123664387D01*
X94658920Y-123664387D01*
X94702161Y-123447000D01*
X94702161Y-122473586D01*
X95079868Y-122473586D01*
X95107604Y-123029850D01*
X95267117Y-123414949D01*
X95509613Y-123484782D01*
X96312395Y-122682000D01*
X96671605Y-122682000D01*
X97474387Y-123484782D01*
X97716883Y-123414949D01*
X97904132Y-122890414D01*
X97876396Y-122334150D01*
X97716883Y-121949051D01*
X97474387Y-121879218D01*
X96671605Y-122682000D01*
X96312395Y-122682000D01*
X95509613Y-121879218D01*
X95267117Y-121949051D01*
X95079868Y-122473586D01*
X94702161Y-122473586D01*
X94702161Y-121917000D01*
X94658921Y-121699613D01*
X95689218Y-121699613D01*
X96492000Y-122502395D01*
X97294782Y-121699613D01*
X97224949Y-121457117D01*
X96700414Y-121269868D01*
X96144150Y-121297604D01*
X95759051Y-121457117D01*
X95689218Y-121699613D01*
X94658921Y-121699613D01*
X94630215Y-121555303D01*
X94425330Y-121248670D01*
X94118697Y-121043785D01*
X93757000Y-120971839D01*
X92227000Y-120971839D01*
X91865303Y-121043785D01*
X91558670Y-121248670D01*
X91353785Y-121555303D01*
X91281839Y-121917000D01*
X82383297Y-121917000D01*
X90369201Y-108331784D01*
X102012742Y-108456983D01*
X105729218Y-121060683D01*
X105585017Y-121032000D01*
X105234983Y-121032000D01*
X104716649Y-121135103D01*
X104128855Y-121527855D01*
X103736103Y-122115649D01*
X103598187Y-122809000D01*
X103736103Y-123502351D01*
X104128855Y-124090145D01*
X104716649Y-124482897D01*
X105234983Y-124586000D01*
X105585017Y-124586000D01*
X106103351Y-124482897D01*
X106402194Y-124283216D01*
X106431670Y-124327330D01*
X106738303Y-124532215D01*
X106753782Y-124535294D01*
X107828185Y-128178920D01*
X107851204Y-128222802D01*
X107889263Y-128254535D01*
X107950920Y-128269997D01*
X125476920Y-128142997D01*
X125525450Y-128132977D01*
X125555336Y-128115170D01*
X128730336Y-125575170D01*
X128762248Y-125537261D01*
X128777999Y-125476510D01*
X128787804Y-123035029D01*
X128800803Y-123043715D01*
X129162500Y-123115661D01*
X131187500Y-123115661D01*
X131549197Y-123043715D01*
X131855830Y-122838830D01*
X132060715Y-122532197D01*
X132132661Y-122170500D01*
X132132661Y-120145500D01*
X132060715Y-119783803D01*
X131855830Y-119477170D01*
X131549197Y-119272285D01*
X131187500Y-119200339D01*
X130771216Y-119200339D01*
X131273638Y-118992229D01*
X131819229Y-118446638D01*
X132114500Y-117733791D01*
X132114500Y-116962209D01*
X131819229Y-116249362D01*
X131273638Y-115703771D01*
X130560791Y-115408500D01*
X129789209Y-115408500D01*
X129076362Y-115703771D01*
X128816202Y-115963931D01*
X128838233Y-110478160D01*
X129162500Y-110542661D01*
X131187500Y-110542661D01*
X131549197Y-110470715D01*
X131855830Y-110265830D01*
X132060715Y-109959197D01*
X132132661Y-109597500D01*
X132132661Y-107572500D01*
X132060715Y-107210803D01*
X131855830Y-106904170D01*
X131549197Y-106699285D01*
X131187500Y-106627339D01*
X130771216Y-106627339D01*
X131273638Y-106419229D01*
X131819229Y-105873638D01*
X132114500Y-105160791D01*
X132114500Y-104389209D01*
X131819229Y-103676362D01*
X131273638Y-103130771D01*
X130560791Y-102835500D01*
X129789209Y-102835500D01*
X129076362Y-103130771D01*
X128866900Y-103340233D01*
X128889197Y-97788298D01*
X129162500Y-97842661D01*
X131187500Y-97842661D01*
X131549197Y-97770715D01*
X131855830Y-97565830D01*
X132060715Y-97259197D01*
X132132661Y-96897500D01*
X132132661Y-94872500D01*
X132060715Y-94510803D01*
X131855830Y-94204170D01*
X131549197Y-93999285D01*
X131187500Y-93927339D01*
X130771216Y-93927339D01*
X131273638Y-93719229D01*
X131819229Y-93173638D01*
X132114500Y-92460791D01*
X132114500Y-91689209D01*
X131819229Y-90976362D01*
X131273638Y-90430771D01*
X130560791Y-90135500D01*
X129789209Y-90135500D01*
X129076362Y-90430771D01*
X128918109Y-90589024D01*
X128941179Y-84844638D01*
X129162500Y-84888661D01*
X131187500Y-84888661D01*
X131549197Y-84816715D01*
X131855830Y-84611830D01*
X132060715Y-84305197D01*
X132132661Y-83943500D01*
X132132661Y-81918500D01*
X132060715Y-81556803D01*
X131855830Y-81250170D01*
X131549197Y-81045285D01*
X131187500Y-80973339D01*
X130771216Y-80973339D01*
X131273638Y-80765229D01*
X131819229Y-80219638D01*
X132114500Y-79506791D01*
X132114500Y-78735209D01*
X131819229Y-78022362D01*
X131273638Y-77476771D01*
X130560791Y-77181500D01*
X129789209Y-77181500D01*
X129076362Y-77476771D01*
X128970343Y-77582790D01*
X128993671Y-71774079D01*
X129162500Y-71807661D01*
X131187500Y-71807661D01*
X131549197Y-71735715D01*
X131855830Y-71530830D01*
X132060715Y-71224197D01*
X132132661Y-70862500D01*
X132132661Y-68837500D01*
X132060715Y-68475803D01*
X131855830Y-68169170D01*
X131549197Y-67964285D01*
X131187500Y-67892339D01*
X130771216Y-67892339D01*
X131273638Y-67684229D01*
X131819229Y-67138638D01*
X132114500Y-66425791D01*
X132114500Y-65654209D01*
X131819229Y-64941362D01*
X131273638Y-64395771D01*
X130560791Y-64100500D01*
X129789209Y-64100500D01*
X129076362Y-64395771D01*
X129023089Y-64449044D01*
X129031999Y-62230510D01*
X129022527Y-62181871D01*
X128995162Y-62140559D01*
X128954072Y-62112863D01*
X128905000Y-62103000D01*
X108657572Y-62103000D01*
X108749194Y-61965878D01*
X108898751Y-61214000D01*
X108749194Y-60462123D01*
X108430798Y-59985609D01*
X108165200Y-59720011D01*
X127387840Y-59720011D01*
X127488989Y-59740131D01*
X127590138Y-59720011D01*
X127590139Y-59720011D01*
X127889704Y-59660424D01*
X128229415Y-59433437D01*
X128286715Y-59347681D01*
X128361740Y-59272656D01*
X137530000Y-59304162D01*
G36*
X129076362Y-118992229D02*
X129578784Y-119200339D01*
X129162500Y-119200339D01*
X128802917Y-119271864D01*
X128805130Y-118720997D01*
X129076362Y-118992229D01*
X129076362Y-118992229D01*
G37*
X129076362Y-118992229D02*
X129578784Y-119200339D01*
X129162500Y-119200339D01*
X128802917Y-119271864D01*
X128805130Y-118720997D01*
X129076362Y-118992229D01*
G36*
X129076362Y-106419229D02*
X129578784Y-106627339D01*
X129162500Y-106627339D01*
X128853452Y-106688813D01*
X128855422Y-106198289D01*
X129076362Y-106419229D01*
X129076362Y-106419229D01*
G37*
X129076362Y-106419229D02*
X129578784Y-106627339D01*
X129162500Y-106627339D01*
X128853452Y-106688813D01*
X128855422Y-106198289D01*
X129076362Y-106419229D01*
G36*
X129076362Y-93719229D02*
X129578784Y-93927339D01*
X129162500Y-93927339D01*
X128904496Y-93978659D01*
X128906222Y-93549089D01*
X129076362Y-93719229D01*
X129076362Y-93719229D01*
G37*
X129076362Y-93719229D02*
X129578784Y-93927339D01*
X129162500Y-93927339D01*
X128904496Y-93978659D01*
X128906222Y-93549089D01*
X129076362Y-93719229D01*
G36*
X129076362Y-80765229D02*
X129578784Y-80973339D01*
X129162500Y-80973339D01*
X128956562Y-81014303D01*
X128958038Y-80646905D01*
X129076362Y-80765229D01*
X129076362Y-80765229D01*
G37*
X129076362Y-80765229D02*
X129578784Y-80973339D01*
X129162500Y-80973339D01*
X128956562Y-81014303D01*
X128958038Y-80646905D01*
X129076362Y-80765229D01*
G36*
X129076362Y-67684229D02*
X129578784Y-67892339D01*
X129162500Y-67892339D01*
X129009138Y-67922845D01*
X129010362Y-67618229D01*
X129076362Y-67684229D01*
X129076362Y-67684229D01*
G37*
X129076362Y-67684229D02*
X129578784Y-67892339D01*
X129162500Y-67892339D01*
X129009138Y-67922845D01*
X129010362Y-67618229D01*
X129076362Y-67684229D01*
G36*
X115374007Y-128711457D02*
X106683431Y-129901947D01*
X106802480Y-124782840D01*
X115374007Y-128711457D01*
X115374007Y-128711457D01*
G37*
X115374007Y-128711457D02*
X106683431Y-129901947D01*
X106802480Y-124782840D01*
X115374007Y-128711457D01*
G36*
X135508514Y-128016000D02*
X117856000Y-128016000D01*
X117856000Y-120145500D01*
X128217339Y-120145500D01*
X128217339Y-122170500D01*
X128289285Y-122532197D01*
X128494170Y-122838830D01*
X128800803Y-123043715D01*
X129162500Y-123115661D01*
X131187500Y-123115661D01*
X131549197Y-123043715D01*
X131855830Y-122838830D01*
X132060715Y-122532197D01*
X132132661Y-122170500D01*
X132132661Y-120145500D01*
X132060715Y-119783803D01*
X131855830Y-119477170D01*
X131549197Y-119272285D01*
X131187500Y-119200339D01*
X130771216Y-119200339D01*
X131273638Y-118992229D01*
X131819229Y-118446638D01*
X132114500Y-117733791D01*
X132114500Y-116962209D01*
X131819229Y-116249362D01*
X131273638Y-115703771D01*
X130560791Y-115408500D01*
X129789209Y-115408500D01*
X129076362Y-115703771D01*
X128530771Y-116249362D01*
X128235500Y-116962209D01*
X128235500Y-117733791D01*
X128530771Y-118446638D01*
X129076362Y-118992229D01*
X129578784Y-119200339D01*
X129162500Y-119200339D01*
X128800803Y-119272285D01*
X128494170Y-119477170D01*
X128289285Y-119783803D01*
X128217339Y-120145500D01*
X117856000Y-120145500D01*
X117856000Y-107572500D01*
X128217339Y-107572500D01*
X128217339Y-109597500D01*
X128289285Y-109959197D01*
X128494170Y-110265830D01*
X128800803Y-110470715D01*
X129162500Y-110542661D01*
X131187500Y-110542661D01*
X131549197Y-110470715D01*
X131855830Y-110265830D01*
X132060715Y-109959197D01*
X132132661Y-109597500D01*
X132132661Y-107572500D01*
X132060715Y-107210803D01*
X131855830Y-106904170D01*
X131549197Y-106699285D01*
X131187500Y-106627339D01*
X130771216Y-106627339D01*
X131273638Y-106419229D01*
X131819229Y-105873638D01*
X132114500Y-105160791D01*
X132114500Y-104389209D01*
X131819229Y-103676362D01*
X131273638Y-103130771D01*
X130560791Y-102835500D01*
X129789209Y-102835500D01*
X129076362Y-103130771D01*
X128530771Y-103676362D01*
X128235500Y-104389209D01*
X128235500Y-105160791D01*
X128530771Y-105873638D01*
X129076362Y-106419229D01*
X129578784Y-106627339D01*
X129162500Y-106627339D01*
X128800803Y-106699285D01*
X128494170Y-106904170D01*
X128289285Y-107210803D01*
X128217339Y-107572500D01*
X117856000Y-107572500D01*
X117856000Y-94872500D01*
X128217339Y-94872500D01*
X128217339Y-96897500D01*
X128289285Y-97259197D01*
X128494170Y-97565830D01*
X128800803Y-97770715D01*
X129162500Y-97842661D01*
X131187500Y-97842661D01*
X131549197Y-97770715D01*
X131855830Y-97565830D01*
X132060715Y-97259197D01*
X132132661Y-96897500D01*
X132132661Y-94872500D01*
X132060715Y-94510803D01*
X131855830Y-94204170D01*
X131549197Y-93999285D01*
X131187500Y-93927339D01*
X130771216Y-93927339D01*
X131273638Y-93719229D01*
X131819229Y-93173638D01*
X132114500Y-92460791D01*
X132114500Y-91689209D01*
X131819229Y-90976362D01*
X131273638Y-90430771D01*
X130560791Y-90135500D01*
X129789209Y-90135500D01*
X129076362Y-90430771D01*
X128530771Y-90976362D01*
X128235500Y-91689209D01*
X128235500Y-92460791D01*
X128530771Y-93173638D01*
X129076362Y-93719229D01*
X129578784Y-93927339D01*
X129162500Y-93927339D01*
X128800803Y-93999285D01*
X128494170Y-94204170D01*
X128289285Y-94510803D01*
X128217339Y-94872500D01*
X117856000Y-94872500D01*
X117856000Y-81918500D01*
X128217339Y-81918500D01*
X128217339Y-83943500D01*
X128289285Y-84305197D01*
X128494170Y-84611830D01*
X128800803Y-84816715D01*
X129162500Y-84888661D01*
X131187500Y-84888661D01*
X131549197Y-84816715D01*
X131855830Y-84611830D01*
X132060715Y-84305197D01*
X132132661Y-83943500D01*
X132132661Y-81918500D01*
X132060715Y-81556803D01*
X131855830Y-81250170D01*
X131549197Y-81045285D01*
X131187500Y-80973339D01*
X130771216Y-80973339D01*
X131273638Y-80765229D01*
X131819229Y-80219638D01*
X132114500Y-79506791D01*
X132114500Y-78735209D01*
X131819229Y-78022362D01*
X131273638Y-77476771D01*
X130560791Y-77181500D01*
X129789209Y-77181500D01*
X129076362Y-77476771D01*
X128530771Y-78022362D01*
X128235500Y-78735209D01*
X128235500Y-79506791D01*
X128530771Y-80219638D01*
X129076362Y-80765229D01*
X129578784Y-80973339D01*
X129162500Y-80973339D01*
X128800803Y-81045285D01*
X128494170Y-81250170D01*
X128289285Y-81556803D01*
X128217339Y-81918500D01*
X117856000Y-81918500D01*
X117856000Y-68837500D01*
X128217339Y-68837500D01*
X128217339Y-70862500D01*
X128289285Y-71224197D01*
X128494170Y-71530830D01*
X128800803Y-71735715D01*
X129162500Y-71807661D01*
X131187500Y-71807661D01*
X131549197Y-71735715D01*
X131855830Y-71530830D01*
X132060715Y-71224197D01*
X132132661Y-70862500D01*
X132132661Y-68837500D01*
X132060715Y-68475803D01*
X131855830Y-68169170D01*
X131549197Y-67964285D01*
X131187500Y-67892339D01*
X130771216Y-67892339D01*
X131273638Y-67684229D01*
X131819229Y-67138638D01*
X132114500Y-66425791D01*
X132114500Y-65654209D01*
X131819229Y-64941362D01*
X131273638Y-64395771D01*
X130560791Y-64100500D01*
X129789209Y-64100500D01*
X129076362Y-64395771D01*
X128530771Y-64941362D01*
X128235500Y-65654209D01*
X128235500Y-66425791D01*
X128530771Y-67138638D01*
X129076362Y-67684229D01*
X129578784Y-67892339D01*
X129162500Y-67892339D01*
X128800803Y-67964285D01*
X128494170Y-68169170D01*
X128289285Y-68475803D01*
X128217339Y-68837500D01*
X117856000Y-68837500D01*
X117856000Y-61722000D01*
X135255484Y-61722000D01*
X135508514Y-128016000D01*
X135508514Y-128016000D01*
G37*
X135508514Y-128016000D02*
X117856000Y-128016000D01*
X117856000Y-120145500D01*
X128217339Y-120145500D01*
X128217339Y-122170500D01*
X128289285Y-122532197D01*
X128494170Y-122838830D01*
X128800803Y-123043715D01*
X129162500Y-123115661D01*
X131187500Y-123115661D01*
X131549197Y-123043715D01*
X131855830Y-122838830D01*
X132060715Y-122532197D01*
X132132661Y-122170500D01*
X132132661Y-120145500D01*
X132060715Y-119783803D01*
X131855830Y-119477170D01*
X131549197Y-119272285D01*
X131187500Y-119200339D01*
X130771216Y-119200339D01*
X131273638Y-118992229D01*
X131819229Y-118446638D01*
X132114500Y-117733791D01*
X132114500Y-116962209D01*
X131819229Y-116249362D01*
X131273638Y-115703771D01*
X130560791Y-115408500D01*
X129789209Y-115408500D01*
X129076362Y-115703771D01*
X128530771Y-116249362D01*
X128235500Y-116962209D01*
X128235500Y-117733791D01*
X128530771Y-118446638D01*
X129076362Y-118992229D01*
X129578784Y-119200339D01*
X129162500Y-119200339D01*
X128800803Y-119272285D01*
X128494170Y-119477170D01*
X128289285Y-119783803D01*
X128217339Y-120145500D01*
X117856000Y-120145500D01*
X117856000Y-107572500D01*
X128217339Y-107572500D01*
X128217339Y-109597500D01*
X128289285Y-109959197D01*
X128494170Y-110265830D01*
X128800803Y-110470715D01*
X129162500Y-110542661D01*
X131187500Y-110542661D01*
X131549197Y-110470715D01*
X131855830Y-110265830D01*
X132060715Y-109959197D01*
X132132661Y-109597500D01*
X132132661Y-107572500D01*
X132060715Y-107210803D01*
X131855830Y-106904170D01*
X131549197Y-106699285D01*
X131187500Y-106627339D01*
X130771216Y-106627339D01*
X131273638Y-106419229D01*
X131819229Y-105873638D01*
X132114500Y-105160791D01*
X132114500Y-104389209D01*
X131819229Y-103676362D01*
X131273638Y-103130771D01*
X130560791Y-102835500D01*
X129789209Y-102835500D01*
X129076362Y-103130771D01*
X128530771Y-103676362D01*
X128235500Y-104389209D01*
X128235500Y-105160791D01*
X128530771Y-105873638D01*
X129076362Y-106419229D01*
X129578784Y-106627339D01*
X129162500Y-106627339D01*
X128800803Y-106699285D01*
X128494170Y-106904170D01*
X128289285Y-107210803D01*
X128217339Y-107572500D01*
X117856000Y-107572500D01*
X117856000Y-94872500D01*
X128217339Y-94872500D01*
X128217339Y-96897500D01*
X128289285Y-97259197D01*
X128494170Y-97565830D01*
X128800803Y-97770715D01*
X129162500Y-97842661D01*
X131187500Y-97842661D01*
X131549197Y-97770715D01*
X131855830Y-97565830D01*
X132060715Y-97259197D01*
X132132661Y-96897500D01*
X132132661Y-94872500D01*
X132060715Y-94510803D01*
X131855830Y-94204170D01*
X131549197Y-93999285D01*
X131187500Y-93927339D01*
X130771216Y-93927339D01*
X131273638Y-93719229D01*
X131819229Y-93173638D01*
X132114500Y-92460791D01*
X132114500Y-91689209D01*
X131819229Y-90976362D01*
X131273638Y-90430771D01*
X130560791Y-90135500D01*
X129789209Y-90135500D01*
X129076362Y-90430771D01*
X128530771Y-90976362D01*
X128235500Y-91689209D01*
X128235500Y-92460791D01*
X128530771Y-93173638D01*
X129076362Y-93719229D01*
X129578784Y-93927339D01*
X129162500Y-93927339D01*
X128800803Y-93999285D01*
X128494170Y-94204170D01*
X128289285Y-94510803D01*
X128217339Y-94872500D01*
X117856000Y-94872500D01*
X117856000Y-81918500D01*
X128217339Y-81918500D01*
X128217339Y-83943500D01*
X128289285Y-84305197D01*
X128494170Y-84611830D01*
X128800803Y-84816715D01*
X129162500Y-84888661D01*
X131187500Y-84888661D01*
X131549197Y-84816715D01*
X131855830Y-84611830D01*
X132060715Y-84305197D01*
X132132661Y-83943500D01*
X132132661Y-81918500D01*
X132060715Y-81556803D01*
X131855830Y-81250170D01*
X131549197Y-81045285D01*
X131187500Y-80973339D01*
X130771216Y-80973339D01*
X131273638Y-80765229D01*
X131819229Y-80219638D01*
X132114500Y-79506791D01*
X132114500Y-78735209D01*
X131819229Y-78022362D01*
X131273638Y-77476771D01*
X130560791Y-77181500D01*
X129789209Y-77181500D01*
X129076362Y-77476771D01*
X128530771Y-78022362D01*
X128235500Y-78735209D01*
X128235500Y-79506791D01*
X128530771Y-80219638D01*
X129076362Y-80765229D01*
X129578784Y-80973339D01*
X129162500Y-80973339D01*
X128800803Y-81045285D01*
X128494170Y-81250170D01*
X128289285Y-81556803D01*
X128217339Y-81918500D01*
X117856000Y-81918500D01*
X117856000Y-68837500D01*
X128217339Y-68837500D01*
X128217339Y-70862500D01*
X128289285Y-71224197D01*
X128494170Y-71530830D01*
X128800803Y-71735715D01*
X129162500Y-71807661D01*
X131187500Y-71807661D01*
X131549197Y-71735715D01*
X131855830Y-71530830D01*
X132060715Y-71224197D01*
X132132661Y-70862500D01*
X132132661Y-68837500D01*
X132060715Y-68475803D01*
X131855830Y-68169170D01*
X131549197Y-67964285D01*
X131187500Y-67892339D01*
X130771216Y-67892339D01*
X131273638Y-67684229D01*
X131819229Y-67138638D01*
X132114500Y-66425791D01*
X132114500Y-65654209D01*
X131819229Y-64941362D01*
X131273638Y-64395771D01*
X130560791Y-64100500D01*
X129789209Y-64100500D01*
X129076362Y-64395771D01*
X128530771Y-64941362D01*
X128235500Y-65654209D01*
X128235500Y-66425791D01*
X128530771Y-67138638D01*
X129076362Y-67684229D01*
X129578784Y-67892339D01*
X129162500Y-67892339D01*
X128800803Y-67964285D01*
X128494170Y-68169170D01*
X128289285Y-68475803D01*
X128217339Y-68837500D01*
X117856000Y-68837500D01*
X117856000Y-61722000D01*
X135255484Y-61722000D01*
X135508514Y-128016000D01*
G04 #@! TO.N,GND*
G36*
X83199110Y-43675030D02*
X83459398Y-43723507D01*
X83520022Y-43760876D01*
X84205113Y-46387058D01*
X84226735Y-46431644D01*
X84263774Y-46464563D01*
X84328000Y-46482000D01*
X85034311Y-46482000D01*
X85110200Y-46503976D01*
X85110203Y-46503977D01*
X85110204Y-46503977D01*
X85538601Y-46583763D01*
X85595250Y-46595031D01*
X103638749Y-46595035D01*
X103653889Y-46592024D01*
X103724727Y-46588559D01*
X103736328Y-46585806D01*
X103748200Y-46586970D01*
X103868500Y-46564565D01*
X104153620Y-46482000D01*
X104267000Y-46482000D01*
X104315601Y-46472333D01*
X104356803Y-46444803D01*
X104380592Y-46411796D01*
X104383713Y-46405554D01*
X104391533Y-46403385D01*
X104495693Y-46339179D01*
X104495702Y-46339175D01*
X104495705Y-46339172D01*
X104845485Y-46073193D01*
X104882000Y-46032923D01*
X104925644Y-46000510D01*
X104999713Y-45903104D01*
X105136827Y-45680660D01*
X128664265Y-45680660D01*
X130937000Y-47953395D01*
X133209735Y-45680660D01*
X132891499Y-45226797D01*
X131630566Y-44700064D01*
X130264044Y-44695965D01*
X128999973Y-45215122D01*
X128982501Y-45226797D01*
X128664265Y-45680660D01*
X105136827Y-45680660D01*
X105230290Y-45529035D01*
X105249858Y-45478322D01*
X105278908Y-45432371D01*
X105312945Y-45314831D01*
X105392716Y-44886513D01*
X105404000Y-44829785D01*
X105404000Y-44364979D01*
X105707025Y-43758930D01*
X105724383Y-43745730D01*
X105920255Y-43689009D01*
X137706502Y-43814153D01*
X137734655Y-43831506D01*
X137799169Y-43916346D01*
X137930000Y-51046670D01*
X137930000Y-57405323D01*
X128975244Y-57453554D01*
X128971097Y-57443542D01*
X128738458Y-57210903D01*
X128452328Y-57092384D01*
X129218712Y-56326000D01*
X129323501Y-56326000D01*
X129627458Y-56200097D01*
X129860097Y-55967458D01*
X129986000Y-55663501D01*
X129986000Y-55334499D01*
X129860097Y-55030542D01*
X129627458Y-54797903D01*
X129323501Y-54672000D01*
X128994499Y-54672000D01*
X128690542Y-54797903D01*
X128457903Y-55030542D01*
X128332000Y-55334499D01*
X128332000Y-55439288D01*
X127627000Y-56144288D01*
X127627000Y-54417745D01*
X127639282Y-54355999D01*
X127627000Y-54294251D01*
X127627000Y-54294250D01*
X127590620Y-54111357D01*
X127452041Y-53903959D01*
X127399694Y-53868982D01*
X127103270Y-53572558D01*
X127146000Y-53469398D01*
X127146000Y-52956602D01*
X126949761Y-52482840D01*
X126587160Y-52120239D01*
X126159269Y-51943001D01*
X126587160Y-51765762D01*
X126949761Y-51403161D01*
X127146000Y-50929399D01*
X127146000Y-50585340D01*
X128664265Y-50585340D01*
X128982501Y-51039203D01*
X130243434Y-51565936D01*
X131609956Y-51570035D01*
X132874027Y-51050878D01*
X132891499Y-51039203D01*
X133209735Y-50585340D01*
X130937000Y-48312605D01*
X128664265Y-50585340D01*
X127146000Y-50585340D01*
X127146000Y-50416603D01*
X126949761Y-49942841D01*
X126587160Y-49580240D01*
X126159268Y-49403001D01*
X126587160Y-49225762D01*
X126949761Y-48863161D01*
X126973456Y-48805956D01*
X127499965Y-48805956D01*
X128019122Y-50070027D01*
X128030797Y-50087499D01*
X128484660Y-50405735D01*
X130757395Y-48133000D01*
X131116605Y-48133000D01*
X133389340Y-50405735D01*
X133843203Y-50087499D01*
X134369936Y-48826566D01*
X134374035Y-47460044D01*
X133854878Y-46195973D01*
X133843203Y-46178501D01*
X133389340Y-45860265D01*
X131116605Y-48133000D01*
X130757395Y-48133000D01*
X128484660Y-45860265D01*
X128030797Y-46178501D01*
X127504064Y-47439434D01*
X127499965Y-48805956D01*
X126973456Y-48805956D01*
X127146000Y-48389399D01*
X127146000Y-47876603D01*
X126949761Y-47402841D01*
X126587160Y-47040240D01*
X126113398Y-46844001D01*
X125600602Y-46844001D01*
X125126840Y-47040240D01*
X124764239Y-47402841D01*
X124587000Y-47830733D01*
X124409761Y-47402841D01*
X124047160Y-47040240D01*
X123573398Y-46844001D01*
X123060602Y-46844001D01*
X122586840Y-47040240D01*
X122224239Y-47402841D01*
X122047000Y-47830733D01*
X121869761Y-47402841D01*
X121507160Y-47040240D01*
X121033398Y-46844001D01*
X120520602Y-46844001D01*
X120046840Y-47040240D01*
X119684239Y-47402841D01*
X119507000Y-47830733D01*
X119329761Y-47402841D01*
X118967160Y-47040240D01*
X118493398Y-46844001D01*
X117980602Y-46844001D01*
X117506840Y-47040240D01*
X117144239Y-47402841D01*
X116967000Y-47830733D01*
X116789761Y-47402841D01*
X116427160Y-47040240D01*
X115953398Y-46844001D01*
X115440602Y-46844001D01*
X114966840Y-47040240D01*
X114604239Y-47402841D01*
X114427000Y-47830733D01*
X114249761Y-47402841D01*
X113887160Y-47040240D01*
X113413398Y-46844001D01*
X112900602Y-46844001D01*
X112797442Y-46886731D01*
X112582019Y-46671309D01*
X112547040Y-46618959D01*
X112339642Y-46480380D01*
X112156749Y-46444000D01*
X112156745Y-46444000D01*
X112094999Y-46431718D01*
X112033253Y-46444000D01*
X105088983Y-46444000D01*
X105027238Y-46431718D01*
X104965493Y-46444000D01*
X104965489Y-46444000D01*
X104782596Y-46480380D01*
X104575198Y-46618959D01*
X104540220Y-46671307D01*
X103949224Y-47262304D01*
X103727160Y-47040240D01*
X103253398Y-46844001D01*
X102740602Y-46844001D01*
X102266840Y-47040240D01*
X101904239Y-47402841D01*
X101727000Y-47830733D01*
X101549761Y-47402841D01*
X101187160Y-47040240D01*
X100713398Y-46844001D01*
X100200602Y-46844001D01*
X99726840Y-47040240D01*
X99364239Y-47402841D01*
X99187000Y-47830733D01*
X99009761Y-47402841D01*
X98647160Y-47040240D01*
X98173398Y-46844001D01*
X97660602Y-46844001D01*
X97186840Y-47040240D01*
X96824239Y-47402841D01*
X96647000Y-47830733D01*
X96469761Y-47402841D01*
X96107160Y-47040240D01*
X95633398Y-46844001D01*
X95120602Y-46844001D01*
X94646840Y-47040240D01*
X94284239Y-47402841D01*
X94107000Y-47830733D01*
X93929761Y-47402841D01*
X93567160Y-47040240D01*
X93093398Y-46844001D01*
X92580602Y-46844001D01*
X92106840Y-47040240D01*
X91744239Y-47402841D01*
X91567000Y-47830733D01*
X91389761Y-47402841D01*
X91027160Y-47040240D01*
X90553398Y-46844001D01*
X90040602Y-46844001D01*
X89566840Y-47040240D01*
X89204239Y-47402841D01*
X89027000Y-47830733D01*
X88849761Y-47402841D01*
X88487160Y-47040240D01*
X88013398Y-46844001D01*
X87500602Y-46844001D01*
X87026840Y-47040240D01*
X86664239Y-47402841D01*
X86487000Y-47830733D01*
X86309761Y-47402841D01*
X85947160Y-47040240D01*
X85473398Y-46844001D01*
X84960602Y-46844001D01*
X84486840Y-47040240D01*
X84124239Y-47402841D01*
X83947000Y-47830733D01*
X83769761Y-47402841D01*
X83407160Y-47040240D01*
X82933398Y-46844001D01*
X82420602Y-46844001D01*
X81946840Y-47040240D01*
X81584239Y-47402841D01*
X81407000Y-47830733D01*
X81229761Y-47402841D01*
X80867160Y-47040240D01*
X80393398Y-46844001D01*
X79880602Y-46844001D01*
X79406840Y-47040240D01*
X79044239Y-47402841D01*
X78867000Y-47830733D01*
X78689761Y-47402841D01*
X78327160Y-47040240D01*
X77853398Y-46844001D01*
X77340602Y-46844001D01*
X76866840Y-47040240D01*
X76504239Y-47402841D01*
X76327000Y-47830733D01*
X76149761Y-47402841D01*
X75787160Y-47040240D01*
X75313398Y-46844001D01*
X74800602Y-46844001D01*
X74326840Y-47040240D01*
X73964239Y-47402841D01*
X73787000Y-47830733D01*
X73609761Y-47402841D01*
X73247160Y-47040240D01*
X72773398Y-46844001D01*
X72260602Y-46844001D01*
X71786840Y-47040240D01*
X71424239Y-47402841D01*
X71247000Y-47830733D01*
X71069761Y-47402841D01*
X70707160Y-47040240D01*
X70233398Y-46844001D01*
X69720602Y-46844001D01*
X69246840Y-47040240D01*
X68884239Y-47402841D01*
X68707000Y-47830733D01*
X68529761Y-47402841D01*
X68167160Y-47040240D01*
X67693398Y-46844001D01*
X67180602Y-46844001D01*
X66706840Y-47040240D01*
X66344239Y-47402841D01*
X66167000Y-47830733D01*
X65989761Y-47402841D01*
X65627160Y-47040240D01*
X65153398Y-46844001D01*
X64640602Y-46844001D01*
X64166840Y-47040240D01*
X63804239Y-47402841D01*
X63627000Y-47830733D01*
X63449761Y-47402841D01*
X63087160Y-47040240D01*
X62613398Y-46844001D01*
X62100602Y-46844001D01*
X61626840Y-47040240D01*
X61264239Y-47402841D01*
X61068000Y-47876603D01*
X61068000Y-48389399D01*
X61264239Y-48863161D01*
X61626840Y-49225762D01*
X61983938Y-49373677D01*
X61595000Y-49373677D01*
X61389375Y-49414578D01*
X61215055Y-49531056D01*
X61098577Y-49705376D01*
X61057676Y-49911001D01*
X61057676Y-51435001D01*
X61098577Y-51640626D01*
X61215055Y-51814946D01*
X61389375Y-51931424D01*
X61595000Y-51972325D01*
X61983935Y-51972325D01*
X61626840Y-52120239D01*
X61264239Y-52482840D01*
X61068000Y-52956602D01*
X61068000Y-53469398D01*
X61264239Y-53943160D01*
X61626840Y-54305761D01*
X61983938Y-54453676D01*
X61595000Y-54453676D01*
X61389375Y-54494577D01*
X61215055Y-54611055D01*
X61098577Y-54785375D01*
X61057676Y-54991000D01*
X61057676Y-56487964D01*
X55814394Y-51244683D01*
X56583434Y-51565936D01*
X57949956Y-51570035D01*
X59214027Y-51050878D01*
X59231499Y-51039203D01*
X59549735Y-50585340D01*
X57277000Y-48312605D01*
X57262858Y-48326748D01*
X57083253Y-48147143D01*
X57097395Y-48133000D01*
X57456605Y-48133000D01*
X59729340Y-50405735D01*
X60183203Y-50087499D01*
X60709936Y-48826566D01*
X60714035Y-47460044D01*
X60194878Y-46195973D01*
X60183203Y-46178501D01*
X59729340Y-45860265D01*
X57456605Y-48133000D01*
X57097395Y-48133000D01*
X54824660Y-45860265D01*
X54370797Y-46178501D01*
X53844064Y-47439434D01*
X53841461Y-48307367D01*
X53570762Y-47902238D01*
X53115279Y-47597894D01*
X52713623Y-47518000D01*
X52442377Y-47518000D01*
X52040721Y-47597894D01*
X51585238Y-47902238D01*
X51280894Y-48357721D01*
X51174023Y-48895000D01*
X51280894Y-49432279D01*
X51585238Y-49887762D01*
X52000154Y-50165000D01*
X51585238Y-50442238D01*
X51280894Y-50897721D01*
X51174023Y-51435000D01*
X51280894Y-51972279D01*
X51585238Y-52427762D01*
X52000154Y-52705000D01*
X51585238Y-52982238D01*
X51280894Y-53437721D01*
X51174023Y-53975000D01*
X51280894Y-54512279D01*
X51585238Y-54967762D01*
X52000154Y-55245000D01*
X51585238Y-55522238D01*
X51280894Y-55977721D01*
X51174023Y-56515000D01*
X51280894Y-57052279D01*
X51585238Y-57507762D01*
X51940636Y-57745231D01*
X51696642Y-57859817D01*
X51306355Y-58288076D01*
X51136524Y-58698110D01*
X51257845Y-58928000D01*
X52451000Y-58928000D01*
X52451000Y-58908000D01*
X52705000Y-58908000D01*
X52705000Y-58928000D01*
X53898155Y-58928000D01*
X53969361Y-58793072D01*
X55792991Y-60616703D01*
X55827970Y-60669052D01*
X56035368Y-60807631D01*
X56218261Y-60844011D01*
X56218264Y-60844011D01*
X56280010Y-60856293D01*
X56341756Y-60844011D01*
X75520600Y-60844011D01*
X76335001Y-61658413D01*
X76335000Y-89980256D01*
X76322718Y-90042002D01*
X76335000Y-90103748D01*
X76335000Y-90103751D01*
X76371380Y-90286644D01*
X76509959Y-90494043D01*
X76562309Y-90529022D01*
X77272977Y-91239691D01*
X77307956Y-91292040D01*
X77515354Y-91430619D01*
X77698247Y-91466999D01*
X77698250Y-91466999D01*
X77759996Y-91479281D01*
X77821742Y-91466999D01*
X80165290Y-91466999D01*
X80814518Y-92116228D01*
X80849497Y-92168577D01*
X80901845Y-92203555D01*
X80901846Y-92203556D01*
X81002930Y-92271098D01*
X81056895Y-92307156D01*
X81224588Y-92340512D01*
X81167368Y-92426148D01*
X81162734Y-92449446D01*
X81130988Y-92609040D01*
X81130988Y-92609044D01*
X81118706Y-92670790D01*
X81130988Y-92732536D01*
X81130988Y-93071283D01*
X80837000Y-92777295D01*
X80837000Y-92672505D01*
X80711097Y-92368548D01*
X80478458Y-92135909D01*
X80174501Y-92010006D01*
X79845499Y-92010006D01*
X79541542Y-92135909D01*
X79308903Y-92368548D01*
X79183000Y-92672505D01*
X79183000Y-93001507D01*
X79308903Y-93305464D01*
X79541542Y-93538103D01*
X79845499Y-93664006D01*
X79950289Y-93664006D01*
X82189975Y-95903693D01*
X82224953Y-95956041D01*
X82432351Y-96094620D01*
X82615244Y-96131000D01*
X82615247Y-96131000D01*
X82676993Y-96143282D01*
X82738739Y-96131000D01*
X86976518Y-96131000D01*
X87038264Y-96143282D01*
X87100010Y-96131000D01*
X87100014Y-96131000D01*
X87282907Y-96094620D01*
X87490305Y-95956041D01*
X87525284Y-95903691D01*
X88156693Y-95272283D01*
X88209041Y-95237305D01*
X88347620Y-95029907D01*
X88369960Y-94917595D01*
X88458097Y-94829458D01*
X88584000Y-94525501D01*
X88584000Y-94196499D01*
X88458097Y-93892542D01*
X88225458Y-93659903D01*
X87921501Y-93534000D01*
X87592499Y-93534000D01*
X87288542Y-93659903D01*
X87055903Y-93892542D01*
X87046837Y-93914430D01*
X86787789Y-93914430D01*
X86483832Y-94040333D01*
X86251193Y-94272972D01*
X86166686Y-94476989D01*
X85917000Y-94476989D01*
X85917000Y-94339478D01*
X85791097Y-94035521D01*
X85558458Y-93802882D01*
X85254501Y-93676979D01*
X85149712Y-93676979D01*
X84340863Y-92868131D01*
X84305884Y-92815781D01*
X84098486Y-92677202D01*
X83915593Y-92640822D01*
X83915589Y-92640822D01*
X83853843Y-92628540D01*
X83792097Y-92640822D01*
X83000545Y-92640822D01*
X82926448Y-92566725D01*
X82879946Y-92547463D01*
X82884987Y-92535292D01*
X82884987Y-92343536D01*
X86376825Y-92343536D01*
X86422000Y-92388711D01*
X86422000Y-92493501D01*
X86547903Y-92797458D01*
X86780542Y-93030097D01*
X87084499Y-93156000D01*
X87413501Y-93156000D01*
X87717458Y-93030097D01*
X87950097Y-92797458D01*
X88076000Y-92493501D01*
X88076000Y-92164499D01*
X88063311Y-92133865D01*
X88352458Y-92014097D01*
X88585097Y-91781458D01*
X88711000Y-91477501D01*
X88711000Y-91433345D01*
X88754307Y-91462282D01*
X92391000Y-95098976D01*
X92391000Y-95160501D01*
X92516903Y-95464458D01*
X92749542Y-95697097D01*
X93053499Y-95823000D01*
X93382501Y-95823000D01*
X93686458Y-95697097D01*
X93919097Y-95464458D01*
X93963221Y-95357932D01*
X97471000Y-98865712D01*
X97471000Y-98970501D01*
X97591317Y-99260972D01*
X96968289Y-99884000D01*
X96863499Y-99884000D01*
X96559542Y-100009903D01*
X96326903Y-100242542D01*
X96201000Y-100546499D01*
X96201000Y-100875501D01*
X96326903Y-101179458D01*
X96559542Y-101412097D01*
X96863499Y-101538000D01*
X96963000Y-101538000D01*
X96963000Y-101637501D01*
X97088903Y-101941458D01*
X97321542Y-102174097D01*
X97625499Y-102300000D01*
X97730288Y-102300000D01*
X97798000Y-102367712D01*
X97798001Y-105121444D01*
X97723903Y-105195542D01*
X97598000Y-105499499D01*
X97598000Y-105828501D01*
X97723903Y-106132458D01*
X97956542Y-106365097D01*
X98260499Y-106491000D01*
X98589501Y-106491000D01*
X98893458Y-106365097D01*
X98997056Y-106261499D01*
X103059000Y-106261499D01*
X103059000Y-106590501D01*
X103184903Y-106894458D01*
X103417542Y-107127097D01*
X103721499Y-107253000D01*
X103826289Y-107253000D01*
X104583000Y-108009712D01*
X104583000Y-108114501D01*
X104708903Y-108418458D01*
X104941542Y-108651097D01*
X105245499Y-108777000D01*
X105574501Y-108777000D01*
X105878458Y-108651097D01*
X106111097Y-108418458D01*
X106237000Y-108114501D01*
X106237000Y-107785499D01*
X106111097Y-107481542D01*
X105878458Y-107248903D01*
X105574501Y-107123000D01*
X105469712Y-107123000D01*
X104713000Y-106366289D01*
X104713000Y-106261499D01*
X104587097Y-105957542D01*
X104354458Y-105724903D01*
X104050501Y-105599000D01*
X103721499Y-105599000D01*
X103417542Y-105724903D01*
X103184903Y-105957542D01*
X103059000Y-106261499D01*
X98997056Y-106261499D01*
X99126097Y-106132458D01*
X99252000Y-105828501D01*
X99252000Y-105499499D01*
X99126097Y-105195542D01*
X99052000Y-105121445D01*
X99052000Y-102832499D01*
X101916000Y-102832499D01*
X101916000Y-103161501D01*
X102041903Y-103465458D01*
X102274542Y-103698097D01*
X102578499Y-103824000D01*
X102907501Y-103824000D01*
X103175689Y-103712913D01*
X109604264Y-103712913D01*
X109666010Y-103725195D01*
X109727756Y-103712913D01*
X109727760Y-103712913D01*
X109910653Y-103676533D01*
X110118051Y-103537954D01*
X110153030Y-103485604D01*
X110295710Y-103342924D01*
X110400500Y-103342924D01*
X110704457Y-103217021D01*
X110937096Y-102984382D01*
X111062999Y-102680425D01*
X111062999Y-102351423D01*
X110937096Y-102047466D01*
X110704457Y-101814827D01*
X110400500Y-101688924D01*
X110071498Y-101688924D01*
X109767541Y-101814827D01*
X109534902Y-102047466D01*
X109408999Y-102351423D01*
X109408999Y-102456213D01*
X109406299Y-102458913D01*
X103374468Y-102458913D01*
X103211458Y-102295903D01*
X102907501Y-102170000D01*
X102578499Y-102170000D01*
X102274542Y-102295903D01*
X102041903Y-102528542D01*
X101916000Y-102832499D01*
X99052000Y-102832499D01*
X99052000Y-102169746D01*
X99064282Y-102108000D01*
X99052000Y-102046254D01*
X99052000Y-102046250D01*
X99015620Y-101863357D01*
X98936999Y-101745692D01*
X98912020Y-101708308D01*
X98912019Y-101708307D01*
X98877041Y-101655959D01*
X98824694Y-101620982D01*
X98617000Y-101413288D01*
X98617000Y-101308499D01*
X98491097Y-101004542D01*
X98258458Y-100771903D01*
X97972327Y-100653384D01*
X98557712Y-100068000D01*
X104867445Y-100068000D01*
X104941542Y-100142097D01*
X105245499Y-100268000D01*
X105574501Y-100268000D01*
X105878458Y-100142097D01*
X106111097Y-99909458D01*
X106237000Y-99605501D01*
X106237000Y-99276499D01*
X106111097Y-98972542D01*
X105878458Y-98739903D01*
X105574501Y-98614000D01*
X105245499Y-98614000D01*
X104941542Y-98739903D01*
X104867445Y-98814000D01*
X101665000Y-98814000D01*
X101665000Y-98641499D01*
X101565000Y-98400077D01*
X101565000Y-97347000D01*
X101891501Y-97347000D01*
X102195458Y-97221097D01*
X102428097Y-96988458D01*
X102554000Y-96684501D01*
X102554000Y-96659876D01*
X102584893Y-96734458D01*
X102817532Y-96967097D01*
X103121489Y-97093000D01*
X103450491Y-97093000D01*
X103754448Y-96967097D01*
X103987087Y-96734458D01*
X104032224Y-96625487D01*
X105469711Y-95188000D01*
X105574501Y-95188000D01*
X105726000Y-95125247D01*
X105726000Y-95160501D01*
X105851903Y-95464458D01*
X106084542Y-95697097D01*
X106388499Y-95823000D01*
X106717501Y-95823000D01*
X107021458Y-95697097D01*
X107254097Y-95464458D01*
X107380000Y-95160501D01*
X107380000Y-94831499D01*
X107254097Y-94527542D01*
X107200133Y-94473578D01*
X109914712Y-91759000D01*
X110019501Y-91759000D01*
X110323458Y-91633097D01*
X110556097Y-91400458D01*
X110682000Y-91096501D01*
X110682000Y-90767499D01*
X110556097Y-90463542D01*
X110323458Y-90230903D01*
X110019501Y-90105000D01*
X109690499Y-90105000D01*
X109386542Y-90230903D01*
X109153903Y-90463542D01*
X109028000Y-90767499D01*
X109028000Y-90872288D01*
X106153308Y-93746981D01*
X106100960Y-93781959D01*
X106065982Y-93834307D01*
X106065981Y-93834308D01*
X106060727Y-93842172D01*
X105884128Y-93665573D01*
X109768702Y-89781000D01*
X110455445Y-89781000D01*
X110529542Y-89855097D01*
X110833499Y-89981000D01*
X111162501Y-89981000D01*
X111466458Y-89855097D01*
X111699097Y-89622458D01*
X111825000Y-89318501D01*
X111825000Y-88989499D01*
X111699097Y-88685542D01*
X111466458Y-88452903D01*
X111162501Y-88327000D01*
X110833499Y-88327000D01*
X110529542Y-88452903D01*
X110455445Y-88527000D01*
X109570736Y-88527000D01*
X109508990Y-88514718D01*
X109447244Y-88527000D01*
X109447240Y-88527000D01*
X109264347Y-88563380D01*
X109056949Y-88701959D01*
X109021971Y-88754307D01*
X106872000Y-90904278D01*
X106872000Y-90640499D01*
X106746097Y-90336542D01*
X106513458Y-90103903D01*
X106209501Y-89978000D01*
X105880499Y-89978000D01*
X105576542Y-90103903D01*
X105343903Y-90336542D01*
X105308227Y-90422672D01*
X105243458Y-90357903D01*
X104939501Y-90232000D01*
X104640000Y-90232000D01*
X104640000Y-90077555D01*
X104714097Y-90003458D01*
X104840000Y-89699501D01*
X104840000Y-89370499D01*
X104714097Y-89066542D01*
X104481458Y-88833903D01*
X104177501Y-88708000D01*
X103848499Y-88708000D01*
X103544542Y-88833903D01*
X103311903Y-89066542D01*
X103186000Y-89370499D01*
X103186000Y-89699501D01*
X103311903Y-90003458D01*
X103386000Y-90077555D01*
X103386000Y-90275044D01*
X101327307Y-92333738D01*
X101274960Y-92368715D01*
X101239982Y-92421063D01*
X101239981Y-92421064D01*
X101136380Y-92576114D01*
X101087718Y-92820756D01*
X101100001Y-92882507D01*
X101100001Y-93384132D01*
X100631827Y-92915959D01*
X100649000Y-92874501D01*
X100649000Y-92545499D01*
X100523097Y-92241542D01*
X100290458Y-92008903D01*
X99986501Y-91883000D01*
X99657499Y-91883000D01*
X99353542Y-92008903D01*
X99120903Y-92241542D01*
X98995000Y-92545499D01*
X98995000Y-92874501D01*
X99087844Y-93098646D01*
X99080759Y-93134264D01*
X99095000Y-93205859D01*
X99095000Y-93205863D01*
X99137182Y-93417925D01*
X99297864Y-93658401D01*
X99358562Y-93698958D01*
X100111000Y-94451397D01*
X100111001Y-98400075D01*
X100011000Y-98641499D01*
X100011000Y-98814000D01*
X99125000Y-98814000D01*
X99125000Y-98641499D01*
X98999097Y-98337542D01*
X98766458Y-98104903D01*
X98462501Y-97979000D01*
X98357712Y-97979000D01*
X94553000Y-94174289D01*
X94553000Y-94069499D01*
X94427097Y-93765542D01*
X94194458Y-93532903D01*
X93890501Y-93407000D01*
X93561499Y-93407000D01*
X93257542Y-93532903D01*
X93024903Y-93765542D01*
X92968107Y-93902659D01*
X89922406Y-90856959D01*
X89981000Y-90715501D01*
X89981000Y-90386499D01*
X89855097Y-90082542D01*
X89622458Y-89849903D01*
X89318501Y-89724000D01*
X88989499Y-89724000D01*
X88685542Y-89849903D01*
X88452903Y-90082542D01*
X88327000Y-90386499D01*
X88327000Y-90601358D01*
X88048501Y-90486000D01*
X87719499Y-90486000D01*
X87415542Y-90611903D01*
X87341445Y-90686000D01*
X86044000Y-90686000D01*
X86044000Y-90386499D01*
X85918097Y-90082542D01*
X85685458Y-89849903D01*
X85381501Y-89724000D01*
X85276712Y-89724000D01*
X84415211Y-88862499D01*
X92264000Y-88862499D01*
X92264000Y-89191501D01*
X92389903Y-89495458D01*
X92622542Y-89728097D01*
X92926499Y-89854000D01*
X93255501Y-89854000D01*
X93559458Y-89728097D01*
X93792097Y-89495458D01*
X93918000Y-89191501D01*
X93918000Y-88862499D01*
X93792097Y-88558542D01*
X93718000Y-88484445D01*
X93718000Y-88271709D01*
X95648071Y-86341638D01*
X95691903Y-86447458D01*
X95766001Y-86521556D01*
X95766000Y-88711254D01*
X95753718Y-88773000D01*
X95766000Y-88834746D01*
X95766000Y-88834749D01*
X95802380Y-89017642D01*
X95940959Y-89225041D01*
X95993310Y-89260021D01*
X96507867Y-89774578D01*
X96453903Y-89828542D01*
X96328000Y-90132499D01*
X96328000Y-90461501D01*
X96453903Y-90765458D01*
X96686542Y-90998097D01*
X96990499Y-91124000D01*
X97319501Y-91124000D01*
X97623458Y-90998097D01*
X97856097Y-90765458D01*
X97982000Y-90461501D01*
X97982000Y-90132499D01*
X97856097Y-89828542D01*
X97782000Y-89754445D01*
X97782000Y-89596746D01*
X97794282Y-89535000D01*
X97782000Y-89473254D01*
X97782000Y-89473251D01*
X97745620Y-89290358D01*
X97745620Y-89290357D01*
X97737428Y-89278097D01*
X97877452Y-89220097D01*
X98110091Y-88987458D01*
X98235994Y-88683501D01*
X98235994Y-88354499D01*
X98110091Y-88050542D01*
X98036000Y-87976451D01*
X98036000Y-87401066D01*
X99182001Y-88547068D01*
X99182000Y-89525447D01*
X99132903Y-89574544D01*
X99007000Y-89878501D01*
X99007000Y-90207503D01*
X99132903Y-90511460D01*
X99365542Y-90744099D01*
X99669499Y-90870002D01*
X99998501Y-90870002D01*
X100302458Y-90744099D01*
X100535097Y-90511460D01*
X100661000Y-90207503D01*
X100661000Y-89878501D01*
X100535097Y-89574544D01*
X100486000Y-89525447D01*
X100486000Y-88341209D01*
X100498772Y-88276999D01*
X100486000Y-88212789D01*
X100486000Y-88212786D01*
X100448170Y-88022602D01*
X100304065Y-87806935D01*
X100249628Y-87770561D01*
X98236000Y-85756934D01*
X98236000Y-85687499D01*
X98110097Y-85383542D01*
X98033052Y-85306497D01*
X103948000Y-85306497D01*
X103948000Y-85635499D01*
X104073903Y-85939456D01*
X104306542Y-86172095D01*
X104610499Y-86297998D01*
X104939501Y-86297998D01*
X105243458Y-86172095D01*
X105476097Y-85939456D01*
X105602000Y-85635499D01*
X105602000Y-85306497D01*
X105496791Y-85052499D01*
X107123000Y-85052499D01*
X107123000Y-85381501D01*
X107248903Y-85685458D01*
X107481542Y-85918097D01*
X107785499Y-86044000D01*
X108114501Y-86044000D01*
X108418458Y-85918097D01*
X108651097Y-85685458D01*
X108777000Y-85381501D01*
X108777000Y-85276712D01*
X108857694Y-85196018D01*
X108910041Y-85161041D01*
X109048620Y-84953643D01*
X109085000Y-84770750D01*
X109085000Y-84770746D01*
X109097282Y-84709001D01*
X109085000Y-84647256D01*
X109085000Y-80171555D01*
X109159097Y-80097458D01*
X109285000Y-79793501D01*
X109285000Y-79564712D01*
X109355001Y-79634712D01*
X109355000Y-80483445D01*
X109280903Y-80557542D01*
X109155000Y-80861499D01*
X109155000Y-81190501D01*
X109280903Y-81494458D01*
X109513542Y-81727097D01*
X109817499Y-81853000D01*
X110146501Y-81853000D01*
X110450458Y-81727097D01*
X110683097Y-81494458D01*
X110809000Y-81190501D01*
X110809000Y-80861499D01*
X110683097Y-80557542D01*
X110609000Y-80483445D01*
X110609000Y-79436744D01*
X110621282Y-79374999D01*
X110609000Y-79313254D01*
X110609000Y-79313250D01*
X110572620Y-79130357D01*
X110434041Y-78922959D01*
X110381693Y-78887981D01*
X109920000Y-78426289D01*
X109920000Y-78321499D01*
X109794097Y-78017542D01*
X109561458Y-77784903D01*
X109257501Y-77659000D01*
X108928499Y-77659000D01*
X108624542Y-77784903D01*
X108391903Y-78017542D01*
X108266000Y-78321499D01*
X108266000Y-78650501D01*
X108328753Y-78802000D01*
X108293499Y-78802000D01*
X107989542Y-78927903D01*
X107756903Y-79160542D01*
X107631000Y-79464499D01*
X107631000Y-79793501D01*
X107756903Y-80097458D01*
X107831001Y-80171556D01*
X107831000Y-84390000D01*
X107785499Y-84390000D01*
X107481542Y-84515903D01*
X107248903Y-84748542D01*
X107123000Y-85052499D01*
X105496791Y-85052499D01*
X105476097Y-85002540D01*
X105422134Y-84948577D01*
X105469711Y-84901000D01*
X105574501Y-84901000D01*
X105878458Y-84775097D01*
X106111097Y-84542458D01*
X106237000Y-84238501D01*
X106237000Y-83909499D01*
X106111097Y-83605542D01*
X105878458Y-83372903D01*
X105574501Y-83247000D01*
X105245499Y-83247000D01*
X104941542Y-83372903D01*
X104708903Y-83605542D01*
X104583000Y-83909499D01*
X104583000Y-84014289D01*
X104375308Y-84221981D01*
X104322960Y-84256959D01*
X104287982Y-84309307D01*
X104287981Y-84309308D01*
X104184380Y-84464358D01*
X104181105Y-84480824D01*
X104148000Y-84647250D01*
X104148000Y-84647254D01*
X104135718Y-84709000D01*
X104148000Y-84770746D01*
X104148000Y-84928443D01*
X104073903Y-85002540D01*
X103948000Y-85306497D01*
X98033052Y-85306497D01*
X97992721Y-85266166D01*
X98258457Y-85156094D01*
X98491096Y-84923455D01*
X98616999Y-84619498D01*
X98616999Y-84290496D01*
X98491096Y-83986539D01*
X98258457Y-83753900D01*
X97954500Y-83627997D01*
X97625498Y-83627997D01*
X97321541Y-83753900D01*
X97247444Y-83827997D01*
X96709746Y-83827997D01*
X96648000Y-83815715D01*
X96586254Y-83827997D01*
X96586251Y-83827997D01*
X96403358Y-83864377D01*
X96363453Y-83891041D01*
X96195960Y-84002956D01*
X96160982Y-84055304D01*
X92691307Y-87524980D01*
X92638960Y-87559957D01*
X92603982Y-87612305D01*
X92603981Y-87612306D01*
X92500380Y-87767356D01*
X92451718Y-88011998D01*
X92464001Y-88073749D01*
X92464001Y-88484444D01*
X92389903Y-88558542D01*
X92264000Y-88862499D01*
X84415211Y-88862499D01*
X82484968Y-86932257D01*
X82484968Y-86830499D01*
X82359065Y-86526542D01*
X82126426Y-86293903D01*
X81822469Y-86168000D01*
X81493467Y-86168000D01*
X81189510Y-86293903D01*
X80956871Y-86526542D01*
X80830968Y-86830499D01*
X80830968Y-87159501D01*
X80956871Y-87463458D01*
X81189510Y-87696097D01*
X81493467Y-87822000D01*
X81601289Y-87822000D01*
X84390000Y-90610712D01*
X84390000Y-90686000D01*
X81723414Y-90686000D01*
X81061722Y-90024309D01*
X81026743Y-89971959D01*
X80819345Y-89833380D01*
X80636452Y-89797000D01*
X80636448Y-89797000D01*
X80574702Y-89784718D01*
X80512956Y-89797000D01*
X79023712Y-89797000D01*
X78944000Y-89717288D01*
X78944000Y-89612499D01*
X78818097Y-89308542D01*
X78585458Y-89075903D01*
X78281501Y-88950000D01*
X77952499Y-88950000D01*
X77648542Y-89075903D01*
X77589000Y-89135445D01*
X77589000Y-76442715D01*
X87651981Y-86505697D01*
X87686959Y-86558045D01*
X87894357Y-86696624D01*
X88077250Y-86733004D01*
X88077253Y-86733004D01*
X88122419Y-86741988D01*
X88187532Y-86807101D01*
X88491489Y-86933004D01*
X88820491Y-86933004D01*
X89124448Y-86807101D01*
X89357087Y-86574462D01*
X89482990Y-86270505D01*
X89482990Y-85941503D01*
X89468837Y-85907334D01*
X89749458Y-85791097D01*
X89982097Y-85558458D01*
X90108000Y-85254501D01*
X90108000Y-84925499D01*
X89982097Y-84621542D01*
X89933000Y-84572445D01*
X89933000Y-78956499D01*
X102185979Y-78956499D01*
X102185979Y-79285501D01*
X102311882Y-79589458D01*
X102544521Y-79822097D01*
X102848478Y-79948000D01*
X103177480Y-79948000D01*
X103481437Y-79822097D01*
X103714076Y-79589458D01*
X103839979Y-79285501D01*
X103839979Y-79180711D01*
X107209691Y-75811000D01*
X109693445Y-75811000D01*
X109767542Y-75885097D01*
X110071499Y-76011000D01*
X110400501Y-76011000D01*
X110704458Y-75885097D01*
X110937097Y-75652458D01*
X111063000Y-75348501D01*
X111063000Y-75019499D01*
X110937097Y-74715542D01*
X110704458Y-74482903D01*
X110400501Y-74357000D01*
X110071499Y-74357000D01*
X109767542Y-74482903D01*
X109693445Y-74557000D01*
X107011724Y-74557000D01*
X106949978Y-74544718D01*
X106888232Y-74557000D01*
X106888229Y-74557000D01*
X106705336Y-74593380D01*
X106497938Y-74731959D01*
X106462960Y-74784307D01*
X102953268Y-78294000D01*
X102848478Y-78294000D01*
X102544521Y-78419903D01*
X102311882Y-78652542D01*
X102185979Y-78956499D01*
X89933000Y-78956499D01*
X89933000Y-77658207D01*
X89945772Y-77593997D01*
X89933000Y-77529787D01*
X89933000Y-77529784D01*
X89895170Y-77339600D01*
X89792001Y-77185198D01*
X89792001Y-77113498D01*
X89666098Y-76809541D01*
X89433459Y-76576902D01*
X89129502Y-76450999D01*
X88800500Y-76450999D01*
X88496543Y-76576902D01*
X88263904Y-76809541D01*
X88138001Y-77113498D01*
X88138001Y-77442500D01*
X88263904Y-77746457D01*
X88496543Y-77979096D01*
X88629001Y-78033962D01*
X88629000Y-82252445D01*
X88576728Y-82200173D01*
X88272771Y-82074270D01*
X88167981Y-82074270D01*
X84520000Y-78426289D01*
X84520000Y-78321499D01*
X84394097Y-78017542D01*
X84161458Y-77784903D01*
X84014425Y-77724000D01*
X84161458Y-77663097D01*
X84394097Y-77430458D01*
X84520000Y-77126501D01*
X84520000Y-76797499D01*
X84394097Y-76493542D01*
X84161458Y-76260903D01*
X83857501Y-76135000D01*
X83528499Y-76135000D01*
X83224542Y-76260903D01*
X82991903Y-76493542D01*
X82866000Y-76797499D01*
X82866000Y-76902289D01*
X82693307Y-77074982D01*
X82640957Y-77109961D01*
X82502378Y-77317360D01*
X82465998Y-77500253D01*
X82465998Y-77500256D01*
X82453716Y-77562002D01*
X82465998Y-77623748D01*
X82465999Y-79546291D01*
X78684975Y-75765268D01*
X78805000Y-75475501D01*
X78805000Y-75146499D01*
X78679097Y-74842542D01*
X78446458Y-74609903D01*
X78142501Y-74484000D01*
X77813499Y-74484000D01*
X77589000Y-74576990D01*
X77589000Y-63518555D01*
X77636542Y-63566097D01*
X77940499Y-63692000D01*
X78045289Y-63692000D01*
X92391000Y-78037712D01*
X92391000Y-78142501D01*
X92516903Y-78446458D01*
X92749542Y-78679097D01*
X93053499Y-78805000D01*
X93382501Y-78805000D01*
X93686458Y-78679097D01*
X93919097Y-78446458D01*
X94045000Y-78142501D01*
X94045000Y-77813499D01*
X93995114Y-77693063D01*
X94067458Y-77663097D01*
X94300097Y-77430458D01*
X94426000Y-77126501D01*
X94426000Y-76797499D01*
X94300097Y-76493542D01*
X94067458Y-76260903D01*
X93763501Y-76135000D01*
X93658712Y-76135000D01*
X91040880Y-73517169D01*
X91124000Y-73316501D01*
X91124000Y-72987499D01*
X90998097Y-72683542D01*
X90765458Y-72450903D01*
X90461501Y-72325000D01*
X90132499Y-72325000D01*
X89828542Y-72450903D01*
X89595903Y-72683542D01*
X89470000Y-72987499D01*
X89470000Y-73316501D01*
X89488941Y-73362230D01*
X87267130Y-71140419D01*
X87463458Y-71059097D01*
X87696097Y-70826458D01*
X87822000Y-70522501D01*
X87822000Y-70193499D01*
X87722000Y-69952077D01*
X87722000Y-64436132D01*
X92252503Y-59905629D01*
X92169086Y-60325000D01*
X92287598Y-60920805D01*
X92539905Y-61298408D01*
X92666905Y-61425408D01*
X94022591Y-62781095D01*
X94022594Y-62781097D01*
X95841904Y-64600408D01*
X95927095Y-64727905D01*
X96432194Y-65065402D01*
X96877607Y-65154000D01*
X96877611Y-65154000D01*
X97028000Y-65183914D01*
X97178389Y-65154000D01*
X101830611Y-65154000D01*
X101981000Y-65183914D01*
X102131389Y-65154000D01*
X102131393Y-65154000D01*
X102576806Y-65065402D01*
X103081905Y-64727905D01*
X103167098Y-64600406D01*
X103798908Y-63968596D01*
X116331476Y-63756180D01*
X116078440Y-126255977D01*
X114582829Y-126486071D01*
X109337324Y-123050961D01*
X109337324Y-121959000D01*
X109296423Y-121753375D01*
X109179945Y-121579055D01*
X109005625Y-121462577D01*
X108800000Y-121421676D01*
X107364432Y-121421676D01*
X104178355Y-110579499D01*
X105726000Y-110579499D01*
X105726000Y-110908501D01*
X105851903Y-111212458D01*
X106084542Y-111445097D01*
X106388499Y-111571000D01*
X106493289Y-111571000D01*
X107986502Y-113064213D01*
X107986502Y-113801947D01*
X107910458Y-113725903D01*
X107606501Y-113600000D01*
X107277499Y-113600000D01*
X106973542Y-113725903D01*
X106740903Y-113958542D01*
X106615000Y-114262499D01*
X106615000Y-114351923D01*
X106608959Y-114355959D01*
X106470380Y-114563358D01*
X106434000Y-114746251D01*
X106434000Y-114746254D01*
X106421718Y-114808000D01*
X106434000Y-114869747D01*
X106434001Y-115979944D01*
X106359903Y-116054042D01*
X106234000Y-116357999D01*
X106234000Y-116687001D01*
X106359903Y-116990958D01*
X106592542Y-117223597D01*
X106896499Y-117349500D01*
X107059500Y-117349500D01*
X107059500Y-117639501D01*
X107185403Y-117943458D01*
X107418042Y-118176097D01*
X107721999Y-118302000D01*
X108051001Y-118302000D01*
X108204609Y-118238373D01*
X108213810Y-118244521D01*
X109536000Y-119566712D01*
X109536000Y-119671501D01*
X109661903Y-119975458D01*
X109894542Y-120208097D01*
X110198499Y-120334000D01*
X110527501Y-120334000D01*
X110831458Y-120208097D01*
X111064097Y-119975458D01*
X111190000Y-119671501D01*
X111190000Y-119342499D01*
X111064097Y-119038542D01*
X110831458Y-118805903D01*
X110527501Y-118680000D01*
X110422712Y-118680000D01*
X109240501Y-117497790D01*
X109240501Y-114232056D01*
X109259542Y-114251097D01*
X109563499Y-114377000D01*
X109892501Y-114377000D01*
X110196458Y-114251097D01*
X110429097Y-114018458D01*
X110555000Y-113714501D01*
X110555000Y-113385499D01*
X110429097Y-113081542D01*
X110355000Y-113007445D01*
X110355000Y-112752926D01*
X110367282Y-112691180D01*
X110355000Y-112629434D01*
X110355000Y-112629430D01*
X110318620Y-112446537D01*
X110180041Y-112239139D01*
X110127693Y-112204161D01*
X107795990Y-109872459D01*
X107795990Y-109767669D01*
X107670087Y-109463712D01*
X107437448Y-109231073D01*
X107133491Y-109105170D01*
X106804489Y-109105170D01*
X106500532Y-109231073D01*
X106267893Y-109463712D01*
X106141990Y-109767669D01*
X106141990Y-110019107D01*
X106084542Y-110042903D01*
X105851903Y-110275542D01*
X105726000Y-110579499D01*
X104178355Y-110579499D01*
X103245848Y-107406194D01*
X103222870Y-107362290D01*
X103184841Y-107330522D01*
X103124000Y-107315000D01*
X102236289Y-107315000D01*
X89537539Y-107061025D01*
X89488755Y-107069719D01*
X89447011Y-107096420D01*
X89425573Y-107123543D01*
X78540413Y-125603000D01*
X72305333Y-125603000D01*
X70357869Y-124142402D01*
X70330429Y-110833499D01*
X76897000Y-110833499D01*
X76897000Y-111162501D01*
X77022903Y-111466458D01*
X77255542Y-111699097D01*
X77559499Y-111825000D01*
X77888501Y-111825000D01*
X78192458Y-111699097D01*
X78280594Y-111610961D01*
X78392907Y-111588620D01*
X78600305Y-111450041D01*
X78635285Y-111397691D01*
X86587302Y-103445674D01*
X86639649Y-103410697D01*
X86684934Y-103342924D01*
X86691151Y-103333619D01*
X86778228Y-103203299D01*
X86780305Y-103192858D01*
X86790129Y-103183034D01*
X86801903Y-103211458D01*
X87034542Y-103444097D01*
X87338499Y-103570000D01*
X87667501Y-103570000D01*
X87971458Y-103444097D01*
X88204097Y-103211458D01*
X88330000Y-102907501D01*
X88330000Y-102578499D01*
X88204097Y-102274542D01*
X87971458Y-102041903D01*
X87667501Y-101916000D01*
X87562712Y-101916000D01*
X86593020Y-100946309D01*
X86558041Y-100893959D01*
X86350643Y-100755380D01*
X86167750Y-100719000D01*
X86167746Y-100719000D01*
X86106000Y-100706718D01*
X86044254Y-100719000D01*
X85976539Y-100719000D01*
X85902442Y-100644903D01*
X85598485Y-100519000D01*
X85269483Y-100519000D01*
X84965526Y-100644903D01*
X84732887Y-100877542D01*
X84606984Y-101181499D01*
X84606984Y-101510501D01*
X84732887Y-101814458D01*
X84965526Y-102047097D01*
X85269483Y-102173000D01*
X85475966Y-102173000D01*
X85360608Y-102451499D01*
X85360608Y-102780501D01*
X85395299Y-102864253D01*
X83711558Y-104547995D01*
X83491468Y-104327905D01*
X83187511Y-104202002D01*
X82858509Y-104202002D01*
X82554552Y-104327905D01*
X82480455Y-104402002D01*
X80204714Y-104402002D01*
X78994000Y-103191289D01*
X78994000Y-103086499D01*
X78868097Y-102782542D01*
X78635458Y-102549903D01*
X78331501Y-102424000D01*
X78002499Y-102424000D01*
X77698542Y-102549903D01*
X77465903Y-102782542D01*
X77340000Y-103086499D01*
X77340000Y-103415501D01*
X77465903Y-103719458D01*
X77698542Y-103952097D01*
X78002499Y-104078000D01*
X78107289Y-104078000D01*
X79457983Y-105428695D01*
X79492961Y-105481043D01*
X79545309Y-105516021D01*
X79545310Y-105516022D01*
X79667854Y-105597903D01*
X79700359Y-105619622D01*
X79883252Y-105656002D01*
X79883256Y-105656002D01*
X79945002Y-105668284D01*
X80006748Y-105656002D01*
X82480455Y-105656002D01*
X82542003Y-105717550D01*
X78029959Y-110229594D01*
X77888501Y-110171000D01*
X77559499Y-110171000D01*
X77255542Y-110296903D01*
X77022903Y-110529542D01*
X76897000Y-110833499D01*
X70330429Y-110833499D01*
X70231000Y-62610738D01*
X70221232Y-62562157D01*
X70193617Y-62521012D01*
X70152359Y-62493567D01*
X70104000Y-62484000D01*
X53957566Y-62484000D01*
X53965324Y-62445000D01*
X53965324Y-60745000D01*
X53924423Y-60539375D01*
X53807945Y-60365055D01*
X53633625Y-60248577D01*
X53487339Y-60219479D01*
X53849645Y-59821924D01*
X54019476Y-59411890D01*
X53898155Y-59182000D01*
X52705000Y-59182000D01*
X52705000Y-59202000D01*
X52451000Y-59202000D01*
X52451000Y-59182000D01*
X51257845Y-59182000D01*
X51136524Y-59411890D01*
X51306355Y-59821924D01*
X51668661Y-60219479D01*
X51522375Y-60248577D01*
X51348055Y-60365055D01*
X51231577Y-60539375D01*
X51190676Y-60745000D01*
X51190676Y-62445000D01*
X51198434Y-62484000D01*
X49023693Y-62484000D01*
X49246253Y-45680660D01*
X55004265Y-45680660D01*
X57277000Y-47953395D01*
X59549735Y-45680660D01*
X59231499Y-45226797D01*
X57970566Y-44700064D01*
X56604044Y-44695965D01*
X55339973Y-45215122D01*
X55322501Y-45226797D01*
X55004265Y-45680660D01*
X49246253Y-45680660D01*
X49271246Y-43793741D01*
X49334383Y-43745731D01*
X49573822Y-43676394D01*
X49602333Y-43675000D01*
X83199110Y-43675030D01*
X83199110Y-43675030D01*
G37*
X83199110Y-43675030D02*
X83459398Y-43723507D01*
X83520022Y-43760876D01*
X84205113Y-46387058D01*
X84226735Y-46431644D01*
X84263774Y-46464563D01*
X84328000Y-46482000D01*
X85034311Y-46482000D01*
X85110200Y-46503976D01*
X85110203Y-46503977D01*
X85110204Y-46503977D01*
X85538601Y-46583763D01*
X85595250Y-46595031D01*
X103638749Y-46595035D01*
X103653889Y-46592024D01*
X103724727Y-46588559D01*
X103736328Y-46585806D01*
X103748200Y-46586970D01*
X103868500Y-46564565D01*
X104153620Y-46482000D01*
X104267000Y-46482000D01*
X104315601Y-46472333D01*
X104356803Y-46444803D01*
X104380592Y-46411796D01*
X104383713Y-46405554D01*
X104391533Y-46403385D01*
X104495693Y-46339179D01*
X104495702Y-46339175D01*
X104495705Y-46339172D01*
X104845485Y-46073193D01*
X104882000Y-46032923D01*
X104925644Y-46000510D01*
X104999713Y-45903104D01*
X105136827Y-45680660D01*
X128664265Y-45680660D01*
X130937000Y-47953395D01*
X133209735Y-45680660D01*
X132891499Y-45226797D01*
X131630566Y-44700064D01*
X130264044Y-44695965D01*
X128999973Y-45215122D01*
X128982501Y-45226797D01*
X128664265Y-45680660D01*
X105136827Y-45680660D01*
X105230290Y-45529035D01*
X105249858Y-45478322D01*
X105278908Y-45432371D01*
X105312945Y-45314831D01*
X105392716Y-44886513D01*
X105404000Y-44829785D01*
X105404000Y-44364979D01*
X105707025Y-43758930D01*
X105724383Y-43745730D01*
X105920255Y-43689009D01*
X137706502Y-43814153D01*
X137734655Y-43831506D01*
X137799169Y-43916346D01*
X137930000Y-51046670D01*
X137930000Y-57405323D01*
X128975244Y-57453554D01*
X128971097Y-57443542D01*
X128738458Y-57210903D01*
X128452328Y-57092384D01*
X129218712Y-56326000D01*
X129323501Y-56326000D01*
X129627458Y-56200097D01*
X129860097Y-55967458D01*
X129986000Y-55663501D01*
X129986000Y-55334499D01*
X129860097Y-55030542D01*
X129627458Y-54797903D01*
X129323501Y-54672000D01*
X128994499Y-54672000D01*
X128690542Y-54797903D01*
X128457903Y-55030542D01*
X128332000Y-55334499D01*
X128332000Y-55439288D01*
X127627000Y-56144288D01*
X127627000Y-54417745D01*
X127639282Y-54355999D01*
X127627000Y-54294251D01*
X127627000Y-54294250D01*
X127590620Y-54111357D01*
X127452041Y-53903959D01*
X127399694Y-53868982D01*
X127103270Y-53572558D01*
X127146000Y-53469398D01*
X127146000Y-52956602D01*
X126949761Y-52482840D01*
X126587160Y-52120239D01*
X126159269Y-51943001D01*
X126587160Y-51765762D01*
X126949761Y-51403161D01*
X127146000Y-50929399D01*
X127146000Y-50585340D01*
X128664265Y-50585340D01*
X128982501Y-51039203D01*
X130243434Y-51565936D01*
X131609956Y-51570035D01*
X132874027Y-51050878D01*
X132891499Y-51039203D01*
X133209735Y-50585340D01*
X130937000Y-48312605D01*
X128664265Y-50585340D01*
X127146000Y-50585340D01*
X127146000Y-50416603D01*
X126949761Y-49942841D01*
X126587160Y-49580240D01*
X126159268Y-49403001D01*
X126587160Y-49225762D01*
X126949761Y-48863161D01*
X126973456Y-48805956D01*
X127499965Y-48805956D01*
X128019122Y-50070027D01*
X128030797Y-50087499D01*
X128484660Y-50405735D01*
X130757395Y-48133000D01*
X131116605Y-48133000D01*
X133389340Y-50405735D01*
X133843203Y-50087499D01*
X134369936Y-48826566D01*
X134374035Y-47460044D01*
X133854878Y-46195973D01*
X133843203Y-46178501D01*
X133389340Y-45860265D01*
X131116605Y-48133000D01*
X130757395Y-48133000D01*
X128484660Y-45860265D01*
X128030797Y-46178501D01*
X127504064Y-47439434D01*
X127499965Y-48805956D01*
X126973456Y-48805956D01*
X127146000Y-48389399D01*
X127146000Y-47876603D01*
X126949761Y-47402841D01*
X126587160Y-47040240D01*
X126113398Y-46844001D01*
X125600602Y-46844001D01*
X125126840Y-47040240D01*
X124764239Y-47402841D01*
X124587000Y-47830733D01*
X124409761Y-47402841D01*
X124047160Y-47040240D01*
X123573398Y-46844001D01*
X123060602Y-46844001D01*
X122586840Y-47040240D01*
X122224239Y-47402841D01*
X122047000Y-47830733D01*
X121869761Y-47402841D01*
X121507160Y-47040240D01*
X121033398Y-46844001D01*
X120520602Y-46844001D01*
X120046840Y-47040240D01*
X119684239Y-47402841D01*
X119507000Y-47830733D01*
X119329761Y-47402841D01*
X118967160Y-47040240D01*
X118493398Y-46844001D01*
X117980602Y-46844001D01*
X117506840Y-47040240D01*
X117144239Y-47402841D01*
X116967000Y-47830733D01*
X116789761Y-47402841D01*
X116427160Y-47040240D01*
X115953398Y-46844001D01*
X115440602Y-46844001D01*
X114966840Y-47040240D01*
X114604239Y-47402841D01*
X114427000Y-47830733D01*
X114249761Y-47402841D01*
X113887160Y-47040240D01*
X113413398Y-46844001D01*
X112900602Y-46844001D01*
X112797442Y-46886731D01*
X112582019Y-46671309D01*
X112547040Y-46618959D01*
X112339642Y-46480380D01*
X112156749Y-46444000D01*
X112156745Y-46444000D01*
X112094999Y-46431718D01*
X112033253Y-46444000D01*
X105088983Y-46444000D01*
X105027238Y-46431718D01*
X104965493Y-46444000D01*
X104965489Y-46444000D01*
X104782596Y-46480380D01*
X104575198Y-46618959D01*
X104540220Y-46671307D01*
X103949224Y-47262304D01*
X103727160Y-47040240D01*
X103253398Y-46844001D01*
X102740602Y-46844001D01*
X102266840Y-47040240D01*
X101904239Y-47402841D01*
X101727000Y-47830733D01*
X101549761Y-47402841D01*
X101187160Y-47040240D01*
X100713398Y-46844001D01*
X100200602Y-46844001D01*
X99726840Y-47040240D01*
X99364239Y-47402841D01*
X99187000Y-47830733D01*
X99009761Y-47402841D01*
X98647160Y-47040240D01*
X98173398Y-46844001D01*
X97660602Y-46844001D01*
X97186840Y-47040240D01*
X96824239Y-47402841D01*
X96647000Y-47830733D01*
X96469761Y-47402841D01*
X96107160Y-47040240D01*
X95633398Y-46844001D01*
X95120602Y-46844001D01*
X94646840Y-47040240D01*
X94284239Y-47402841D01*
X94107000Y-47830733D01*
X93929761Y-47402841D01*
X93567160Y-47040240D01*
X93093398Y-46844001D01*
X92580602Y-46844001D01*
X92106840Y-47040240D01*
X91744239Y-47402841D01*
X91567000Y-47830733D01*
X91389761Y-47402841D01*
X91027160Y-47040240D01*
X90553398Y-46844001D01*
X90040602Y-46844001D01*
X89566840Y-47040240D01*
X89204239Y-47402841D01*
X89027000Y-47830733D01*
X88849761Y-47402841D01*
X88487160Y-47040240D01*
X88013398Y-46844001D01*
X87500602Y-46844001D01*
X87026840Y-47040240D01*
X86664239Y-47402841D01*
X86487000Y-47830733D01*
X86309761Y-47402841D01*
X85947160Y-47040240D01*
X85473398Y-46844001D01*
X84960602Y-46844001D01*
X84486840Y-47040240D01*
X84124239Y-47402841D01*
X83947000Y-47830733D01*
X83769761Y-47402841D01*
X83407160Y-47040240D01*
X82933398Y-46844001D01*
X82420602Y-46844001D01*
X81946840Y-47040240D01*
X81584239Y-47402841D01*
X81407000Y-47830733D01*
X81229761Y-47402841D01*
X80867160Y-47040240D01*
X80393398Y-46844001D01*
X79880602Y-46844001D01*
X79406840Y-47040240D01*
X79044239Y-47402841D01*
X78867000Y-47830733D01*
X78689761Y-47402841D01*
X78327160Y-47040240D01*
X77853398Y-46844001D01*
X77340602Y-46844001D01*
X76866840Y-47040240D01*
X76504239Y-47402841D01*
X76327000Y-47830733D01*
X76149761Y-47402841D01*
X75787160Y-47040240D01*
X75313398Y-46844001D01*
X74800602Y-46844001D01*
X74326840Y-47040240D01*
X73964239Y-47402841D01*
X73787000Y-47830733D01*
X73609761Y-47402841D01*
X73247160Y-47040240D01*
X72773398Y-46844001D01*
X72260602Y-46844001D01*
X71786840Y-47040240D01*
X71424239Y-47402841D01*
X71247000Y-47830733D01*
X71069761Y-47402841D01*
X70707160Y-47040240D01*
X70233398Y-46844001D01*
X69720602Y-46844001D01*
X69246840Y-47040240D01*
X68884239Y-47402841D01*
X68707000Y-47830733D01*
X68529761Y-47402841D01*
X68167160Y-47040240D01*
X67693398Y-46844001D01*
X67180602Y-46844001D01*
X66706840Y-47040240D01*
X66344239Y-47402841D01*
X66167000Y-47830733D01*
X65989761Y-47402841D01*
X65627160Y-47040240D01*
X65153398Y-46844001D01*
X64640602Y-46844001D01*
X64166840Y-47040240D01*
X63804239Y-47402841D01*
X63627000Y-47830733D01*
X63449761Y-47402841D01*
X63087160Y-47040240D01*
X62613398Y-46844001D01*
X62100602Y-46844001D01*
X61626840Y-47040240D01*
X61264239Y-47402841D01*
X61068000Y-47876603D01*
X61068000Y-48389399D01*
X61264239Y-48863161D01*
X61626840Y-49225762D01*
X61983938Y-49373677D01*
X61595000Y-49373677D01*
X61389375Y-49414578D01*
X61215055Y-49531056D01*
X61098577Y-49705376D01*
X61057676Y-49911001D01*
X61057676Y-51435001D01*
X61098577Y-51640626D01*
X61215055Y-51814946D01*
X61389375Y-51931424D01*
X61595000Y-51972325D01*
X61983935Y-51972325D01*
X61626840Y-52120239D01*
X61264239Y-52482840D01*
X61068000Y-52956602D01*
X61068000Y-53469398D01*
X61264239Y-53943160D01*
X61626840Y-54305761D01*
X61983938Y-54453676D01*
X61595000Y-54453676D01*
X61389375Y-54494577D01*
X61215055Y-54611055D01*
X61098577Y-54785375D01*
X61057676Y-54991000D01*
X61057676Y-56487964D01*
X55814394Y-51244683D01*
X56583434Y-51565936D01*
X57949956Y-51570035D01*
X59214027Y-51050878D01*
X59231499Y-51039203D01*
X59549735Y-50585340D01*
X57277000Y-48312605D01*
X57262858Y-48326748D01*
X57083253Y-48147143D01*
X57097395Y-48133000D01*
X57456605Y-48133000D01*
X59729340Y-50405735D01*
X60183203Y-50087499D01*
X60709936Y-48826566D01*
X60714035Y-47460044D01*
X60194878Y-46195973D01*
X60183203Y-46178501D01*
X59729340Y-45860265D01*
X57456605Y-48133000D01*
X57097395Y-48133000D01*
X54824660Y-45860265D01*
X54370797Y-46178501D01*
X53844064Y-47439434D01*
X53841461Y-48307367D01*
X53570762Y-47902238D01*
X53115279Y-47597894D01*
X52713623Y-47518000D01*
X52442377Y-47518000D01*
X52040721Y-47597894D01*
X51585238Y-47902238D01*
X51280894Y-48357721D01*
X51174023Y-48895000D01*
X51280894Y-49432279D01*
X51585238Y-49887762D01*
X52000154Y-50165000D01*
X51585238Y-50442238D01*
X51280894Y-50897721D01*
X51174023Y-51435000D01*
X51280894Y-51972279D01*
X51585238Y-52427762D01*
X52000154Y-52705000D01*
X51585238Y-52982238D01*
X51280894Y-53437721D01*
X51174023Y-53975000D01*
X51280894Y-54512279D01*
X51585238Y-54967762D01*
X52000154Y-55245000D01*
X51585238Y-55522238D01*
X51280894Y-55977721D01*
X51174023Y-56515000D01*
X51280894Y-57052279D01*
X51585238Y-57507762D01*
X51940636Y-57745231D01*
X51696642Y-57859817D01*
X51306355Y-58288076D01*
X51136524Y-58698110D01*
X51257845Y-58928000D01*
X52451000Y-58928000D01*
X52451000Y-58908000D01*
X52705000Y-58908000D01*
X52705000Y-58928000D01*
X53898155Y-58928000D01*
X53969361Y-58793072D01*
X55792991Y-60616703D01*
X55827970Y-60669052D01*
X56035368Y-60807631D01*
X56218261Y-60844011D01*
X56218264Y-60844011D01*
X56280010Y-60856293D01*
X56341756Y-60844011D01*
X75520600Y-60844011D01*
X76335001Y-61658413D01*
X76335000Y-89980256D01*
X76322718Y-90042002D01*
X76335000Y-90103748D01*
X76335000Y-90103751D01*
X76371380Y-90286644D01*
X76509959Y-90494043D01*
X76562309Y-90529022D01*
X77272977Y-91239691D01*
X77307956Y-91292040D01*
X77515354Y-91430619D01*
X77698247Y-91466999D01*
X77698250Y-91466999D01*
X77759996Y-91479281D01*
X77821742Y-91466999D01*
X80165290Y-91466999D01*
X80814518Y-92116228D01*
X80849497Y-92168577D01*
X80901845Y-92203555D01*
X80901846Y-92203556D01*
X81002930Y-92271098D01*
X81056895Y-92307156D01*
X81224588Y-92340512D01*
X81167368Y-92426148D01*
X81162734Y-92449446D01*
X81130988Y-92609040D01*
X81130988Y-92609044D01*
X81118706Y-92670790D01*
X81130988Y-92732536D01*
X81130988Y-93071283D01*
X80837000Y-92777295D01*
X80837000Y-92672505D01*
X80711097Y-92368548D01*
X80478458Y-92135909D01*
X80174501Y-92010006D01*
X79845499Y-92010006D01*
X79541542Y-92135909D01*
X79308903Y-92368548D01*
X79183000Y-92672505D01*
X79183000Y-93001507D01*
X79308903Y-93305464D01*
X79541542Y-93538103D01*
X79845499Y-93664006D01*
X79950289Y-93664006D01*
X82189975Y-95903693D01*
X82224953Y-95956041D01*
X82432351Y-96094620D01*
X82615244Y-96131000D01*
X82615247Y-96131000D01*
X82676993Y-96143282D01*
X82738739Y-96131000D01*
X86976518Y-96131000D01*
X87038264Y-96143282D01*
X87100010Y-96131000D01*
X87100014Y-96131000D01*
X87282907Y-96094620D01*
X87490305Y-95956041D01*
X87525284Y-95903691D01*
X88156693Y-95272283D01*
X88209041Y-95237305D01*
X88347620Y-95029907D01*
X88369960Y-94917595D01*
X88458097Y-94829458D01*
X88584000Y-94525501D01*
X88584000Y-94196499D01*
X88458097Y-93892542D01*
X88225458Y-93659903D01*
X87921501Y-93534000D01*
X87592499Y-93534000D01*
X87288542Y-93659903D01*
X87055903Y-93892542D01*
X87046837Y-93914430D01*
X86787789Y-93914430D01*
X86483832Y-94040333D01*
X86251193Y-94272972D01*
X86166686Y-94476989D01*
X85917000Y-94476989D01*
X85917000Y-94339478D01*
X85791097Y-94035521D01*
X85558458Y-93802882D01*
X85254501Y-93676979D01*
X85149712Y-93676979D01*
X84340863Y-92868131D01*
X84305884Y-92815781D01*
X84098486Y-92677202D01*
X83915593Y-92640822D01*
X83915589Y-92640822D01*
X83853843Y-92628540D01*
X83792097Y-92640822D01*
X83000545Y-92640822D01*
X82926448Y-92566725D01*
X82879946Y-92547463D01*
X82884987Y-92535292D01*
X82884987Y-92343536D01*
X86376825Y-92343536D01*
X86422000Y-92388711D01*
X86422000Y-92493501D01*
X86547903Y-92797458D01*
X86780542Y-93030097D01*
X87084499Y-93156000D01*
X87413501Y-93156000D01*
X87717458Y-93030097D01*
X87950097Y-92797458D01*
X88076000Y-92493501D01*
X88076000Y-92164499D01*
X88063311Y-92133865D01*
X88352458Y-92014097D01*
X88585097Y-91781458D01*
X88711000Y-91477501D01*
X88711000Y-91433345D01*
X88754307Y-91462282D01*
X92391000Y-95098976D01*
X92391000Y-95160501D01*
X92516903Y-95464458D01*
X92749542Y-95697097D01*
X93053499Y-95823000D01*
X93382501Y-95823000D01*
X93686458Y-95697097D01*
X93919097Y-95464458D01*
X93963221Y-95357932D01*
X97471000Y-98865712D01*
X97471000Y-98970501D01*
X97591317Y-99260972D01*
X96968289Y-99884000D01*
X96863499Y-99884000D01*
X96559542Y-100009903D01*
X96326903Y-100242542D01*
X96201000Y-100546499D01*
X96201000Y-100875501D01*
X96326903Y-101179458D01*
X96559542Y-101412097D01*
X96863499Y-101538000D01*
X96963000Y-101538000D01*
X96963000Y-101637501D01*
X97088903Y-101941458D01*
X97321542Y-102174097D01*
X97625499Y-102300000D01*
X97730288Y-102300000D01*
X97798000Y-102367712D01*
X97798001Y-105121444D01*
X97723903Y-105195542D01*
X97598000Y-105499499D01*
X97598000Y-105828501D01*
X97723903Y-106132458D01*
X97956542Y-106365097D01*
X98260499Y-106491000D01*
X98589501Y-106491000D01*
X98893458Y-106365097D01*
X98997056Y-106261499D01*
X103059000Y-106261499D01*
X103059000Y-106590501D01*
X103184903Y-106894458D01*
X103417542Y-107127097D01*
X103721499Y-107253000D01*
X103826289Y-107253000D01*
X104583000Y-108009712D01*
X104583000Y-108114501D01*
X104708903Y-108418458D01*
X104941542Y-108651097D01*
X105245499Y-108777000D01*
X105574501Y-108777000D01*
X105878458Y-108651097D01*
X106111097Y-108418458D01*
X106237000Y-108114501D01*
X106237000Y-107785499D01*
X106111097Y-107481542D01*
X105878458Y-107248903D01*
X105574501Y-107123000D01*
X105469712Y-107123000D01*
X104713000Y-106366289D01*
X104713000Y-106261499D01*
X104587097Y-105957542D01*
X104354458Y-105724903D01*
X104050501Y-105599000D01*
X103721499Y-105599000D01*
X103417542Y-105724903D01*
X103184903Y-105957542D01*
X103059000Y-106261499D01*
X98997056Y-106261499D01*
X99126097Y-106132458D01*
X99252000Y-105828501D01*
X99252000Y-105499499D01*
X99126097Y-105195542D01*
X99052000Y-105121445D01*
X99052000Y-102832499D01*
X101916000Y-102832499D01*
X101916000Y-103161501D01*
X102041903Y-103465458D01*
X102274542Y-103698097D01*
X102578499Y-103824000D01*
X102907501Y-103824000D01*
X103175689Y-103712913D01*
X109604264Y-103712913D01*
X109666010Y-103725195D01*
X109727756Y-103712913D01*
X109727760Y-103712913D01*
X109910653Y-103676533D01*
X110118051Y-103537954D01*
X110153030Y-103485604D01*
X110295710Y-103342924D01*
X110400500Y-103342924D01*
X110704457Y-103217021D01*
X110937096Y-102984382D01*
X111062999Y-102680425D01*
X111062999Y-102351423D01*
X110937096Y-102047466D01*
X110704457Y-101814827D01*
X110400500Y-101688924D01*
X110071498Y-101688924D01*
X109767541Y-101814827D01*
X109534902Y-102047466D01*
X109408999Y-102351423D01*
X109408999Y-102456213D01*
X109406299Y-102458913D01*
X103374468Y-102458913D01*
X103211458Y-102295903D01*
X102907501Y-102170000D01*
X102578499Y-102170000D01*
X102274542Y-102295903D01*
X102041903Y-102528542D01*
X101916000Y-102832499D01*
X99052000Y-102832499D01*
X99052000Y-102169746D01*
X99064282Y-102108000D01*
X99052000Y-102046254D01*
X99052000Y-102046250D01*
X99015620Y-101863357D01*
X98936999Y-101745692D01*
X98912020Y-101708308D01*
X98912019Y-101708307D01*
X98877041Y-101655959D01*
X98824694Y-101620982D01*
X98617000Y-101413288D01*
X98617000Y-101308499D01*
X98491097Y-101004542D01*
X98258458Y-100771903D01*
X97972327Y-100653384D01*
X98557712Y-100068000D01*
X104867445Y-100068000D01*
X104941542Y-100142097D01*
X105245499Y-100268000D01*
X105574501Y-100268000D01*
X105878458Y-100142097D01*
X106111097Y-99909458D01*
X106237000Y-99605501D01*
X106237000Y-99276499D01*
X106111097Y-98972542D01*
X105878458Y-98739903D01*
X105574501Y-98614000D01*
X105245499Y-98614000D01*
X104941542Y-98739903D01*
X104867445Y-98814000D01*
X101665000Y-98814000D01*
X101665000Y-98641499D01*
X101565000Y-98400077D01*
X101565000Y-97347000D01*
X101891501Y-97347000D01*
X102195458Y-97221097D01*
X102428097Y-96988458D01*
X102554000Y-96684501D01*
X102554000Y-96659876D01*
X102584893Y-96734458D01*
X102817532Y-96967097D01*
X103121489Y-97093000D01*
X103450491Y-97093000D01*
X103754448Y-96967097D01*
X103987087Y-96734458D01*
X104032224Y-96625487D01*
X105469711Y-95188000D01*
X105574501Y-95188000D01*
X105726000Y-95125247D01*
X105726000Y-95160501D01*
X105851903Y-95464458D01*
X106084542Y-95697097D01*
X106388499Y-95823000D01*
X106717501Y-95823000D01*
X107021458Y-95697097D01*
X107254097Y-95464458D01*
X107380000Y-95160501D01*
X107380000Y-94831499D01*
X107254097Y-94527542D01*
X107200133Y-94473578D01*
X109914712Y-91759000D01*
X110019501Y-91759000D01*
X110323458Y-91633097D01*
X110556097Y-91400458D01*
X110682000Y-91096501D01*
X110682000Y-90767499D01*
X110556097Y-90463542D01*
X110323458Y-90230903D01*
X110019501Y-90105000D01*
X109690499Y-90105000D01*
X109386542Y-90230903D01*
X109153903Y-90463542D01*
X109028000Y-90767499D01*
X109028000Y-90872288D01*
X106153308Y-93746981D01*
X106100960Y-93781959D01*
X106065982Y-93834307D01*
X106065981Y-93834308D01*
X106060727Y-93842172D01*
X105884128Y-93665573D01*
X109768702Y-89781000D01*
X110455445Y-89781000D01*
X110529542Y-89855097D01*
X110833499Y-89981000D01*
X111162501Y-89981000D01*
X111466458Y-89855097D01*
X111699097Y-89622458D01*
X111825000Y-89318501D01*
X111825000Y-88989499D01*
X111699097Y-88685542D01*
X111466458Y-88452903D01*
X111162501Y-88327000D01*
X110833499Y-88327000D01*
X110529542Y-88452903D01*
X110455445Y-88527000D01*
X109570736Y-88527000D01*
X109508990Y-88514718D01*
X109447244Y-88527000D01*
X109447240Y-88527000D01*
X109264347Y-88563380D01*
X109056949Y-88701959D01*
X109021971Y-88754307D01*
X106872000Y-90904278D01*
X106872000Y-90640499D01*
X106746097Y-90336542D01*
X106513458Y-90103903D01*
X106209501Y-89978000D01*
X105880499Y-89978000D01*
X105576542Y-90103903D01*
X105343903Y-90336542D01*
X105308227Y-90422672D01*
X105243458Y-90357903D01*
X104939501Y-90232000D01*
X104640000Y-90232000D01*
X104640000Y-90077555D01*
X104714097Y-90003458D01*
X104840000Y-89699501D01*
X104840000Y-89370499D01*
X104714097Y-89066542D01*
X104481458Y-88833903D01*
X104177501Y-88708000D01*
X103848499Y-88708000D01*
X103544542Y-88833903D01*
X103311903Y-89066542D01*
X103186000Y-89370499D01*
X103186000Y-89699501D01*
X103311903Y-90003458D01*
X103386000Y-90077555D01*
X103386000Y-90275044D01*
X101327307Y-92333738D01*
X101274960Y-92368715D01*
X101239982Y-92421063D01*
X101239981Y-92421064D01*
X101136380Y-92576114D01*
X101087718Y-92820756D01*
X101100001Y-92882507D01*
X101100001Y-93384132D01*
X100631827Y-92915959D01*
X100649000Y-92874501D01*
X100649000Y-92545499D01*
X100523097Y-92241542D01*
X100290458Y-92008903D01*
X99986501Y-91883000D01*
X99657499Y-91883000D01*
X99353542Y-92008903D01*
X99120903Y-92241542D01*
X98995000Y-92545499D01*
X98995000Y-92874501D01*
X99087844Y-93098646D01*
X99080759Y-93134264D01*
X99095000Y-93205859D01*
X99095000Y-93205863D01*
X99137182Y-93417925D01*
X99297864Y-93658401D01*
X99358562Y-93698958D01*
X100111000Y-94451397D01*
X100111001Y-98400075D01*
X100011000Y-98641499D01*
X100011000Y-98814000D01*
X99125000Y-98814000D01*
X99125000Y-98641499D01*
X98999097Y-98337542D01*
X98766458Y-98104903D01*
X98462501Y-97979000D01*
X98357712Y-97979000D01*
X94553000Y-94174289D01*
X94553000Y-94069499D01*
X94427097Y-93765542D01*
X94194458Y-93532903D01*
X93890501Y-93407000D01*
X93561499Y-93407000D01*
X93257542Y-93532903D01*
X93024903Y-93765542D01*
X92968107Y-93902659D01*
X89922406Y-90856959D01*
X89981000Y-90715501D01*
X89981000Y-90386499D01*
X89855097Y-90082542D01*
X89622458Y-89849903D01*
X89318501Y-89724000D01*
X88989499Y-89724000D01*
X88685542Y-89849903D01*
X88452903Y-90082542D01*
X88327000Y-90386499D01*
X88327000Y-90601358D01*
X88048501Y-90486000D01*
X87719499Y-90486000D01*
X87415542Y-90611903D01*
X87341445Y-90686000D01*
X86044000Y-90686000D01*
X86044000Y-90386499D01*
X85918097Y-90082542D01*
X85685458Y-89849903D01*
X85381501Y-89724000D01*
X85276712Y-89724000D01*
X84415211Y-88862499D01*
X92264000Y-88862499D01*
X92264000Y-89191501D01*
X92389903Y-89495458D01*
X92622542Y-89728097D01*
X92926499Y-89854000D01*
X93255501Y-89854000D01*
X93559458Y-89728097D01*
X93792097Y-89495458D01*
X93918000Y-89191501D01*
X93918000Y-88862499D01*
X93792097Y-88558542D01*
X93718000Y-88484445D01*
X93718000Y-88271709D01*
X95648071Y-86341638D01*
X95691903Y-86447458D01*
X95766001Y-86521556D01*
X95766000Y-88711254D01*
X95753718Y-88773000D01*
X95766000Y-88834746D01*
X95766000Y-88834749D01*
X95802380Y-89017642D01*
X95940959Y-89225041D01*
X95993310Y-89260021D01*
X96507867Y-89774578D01*
X96453903Y-89828542D01*
X96328000Y-90132499D01*
X96328000Y-90461501D01*
X96453903Y-90765458D01*
X96686542Y-90998097D01*
X96990499Y-91124000D01*
X97319501Y-91124000D01*
X97623458Y-90998097D01*
X97856097Y-90765458D01*
X97982000Y-90461501D01*
X97982000Y-90132499D01*
X97856097Y-89828542D01*
X97782000Y-89754445D01*
X97782000Y-89596746D01*
X97794282Y-89535000D01*
X97782000Y-89473254D01*
X97782000Y-89473251D01*
X97745620Y-89290358D01*
X97745620Y-89290357D01*
X97737428Y-89278097D01*
X97877452Y-89220097D01*
X98110091Y-88987458D01*
X98235994Y-88683501D01*
X98235994Y-88354499D01*
X98110091Y-88050542D01*
X98036000Y-87976451D01*
X98036000Y-87401066D01*
X99182001Y-88547068D01*
X99182000Y-89525447D01*
X99132903Y-89574544D01*
X99007000Y-89878501D01*
X99007000Y-90207503D01*
X99132903Y-90511460D01*
X99365542Y-90744099D01*
X99669499Y-90870002D01*
X99998501Y-90870002D01*
X100302458Y-90744099D01*
X100535097Y-90511460D01*
X100661000Y-90207503D01*
X100661000Y-89878501D01*
X100535097Y-89574544D01*
X100486000Y-89525447D01*
X100486000Y-88341209D01*
X100498772Y-88276999D01*
X100486000Y-88212789D01*
X100486000Y-88212786D01*
X100448170Y-88022602D01*
X100304065Y-87806935D01*
X100249628Y-87770561D01*
X98236000Y-85756934D01*
X98236000Y-85687499D01*
X98110097Y-85383542D01*
X98033052Y-85306497D01*
X103948000Y-85306497D01*
X103948000Y-85635499D01*
X104073903Y-85939456D01*
X104306542Y-86172095D01*
X104610499Y-86297998D01*
X104939501Y-86297998D01*
X105243458Y-86172095D01*
X105476097Y-85939456D01*
X105602000Y-85635499D01*
X105602000Y-85306497D01*
X105496791Y-85052499D01*
X107123000Y-85052499D01*
X107123000Y-85381501D01*
X107248903Y-85685458D01*
X107481542Y-85918097D01*
X107785499Y-86044000D01*
X108114501Y-86044000D01*
X108418458Y-85918097D01*
X108651097Y-85685458D01*
X108777000Y-85381501D01*
X108777000Y-85276712D01*
X108857694Y-85196018D01*
X108910041Y-85161041D01*
X109048620Y-84953643D01*
X109085000Y-84770750D01*
X109085000Y-84770746D01*
X109097282Y-84709001D01*
X109085000Y-84647256D01*
X109085000Y-80171555D01*
X109159097Y-80097458D01*
X109285000Y-79793501D01*
X109285000Y-79564712D01*
X109355001Y-79634712D01*
X109355000Y-80483445D01*
X109280903Y-80557542D01*
X109155000Y-80861499D01*
X109155000Y-81190501D01*
X109280903Y-81494458D01*
X109513542Y-81727097D01*
X109817499Y-81853000D01*
X110146501Y-81853000D01*
X110450458Y-81727097D01*
X110683097Y-81494458D01*
X110809000Y-81190501D01*
X110809000Y-80861499D01*
X110683097Y-80557542D01*
X110609000Y-80483445D01*
X110609000Y-79436744D01*
X110621282Y-79374999D01*
X110609000Y-79313254D01*
X110609000Y-79313250D01*
X110572620Y-79130357D01*
X110434041Y-78922959D01*
X110381693Y-78887981D01*
X109920000Y-78426289D01*
X109920000Y-78321499D01*
X109794097Y-78017542D01*
X109561458Y-77784903D01*
X109257501Y-77659000D01*
X108928499Y-77659000D01*
X108624542Y-77784903D01*
X108391903Y-78017542D01*
X108266000Y-78321499D01*
X108266000Y-78650501D01*
X108328753Y-78802000D01*
X108293499Y-78802000D01*
X107989542Y-78927903D01*
X107756903Y-79160542D01*
X107631000Y-79464499D01*
X107631000Y-79793501D01*
X107756903Y-80097458D01*
X107831001Y-80171556D01*
X107831000Y-84390000D01*
X107785499Y-84390000D01*
X107481542Y-84515903D01*
X107248903Y-84748542D01*
X107123000Y-85052499D01*
X105496791Y-85052499D01*
X105476097Y-85002540D01*
X105422134Y-84948577D01*
X105469711Y-84901000D01*
X105574501Y-84901000D01*
X105878458Y-84775097D01*
X106111097Y-84542458D01*
X106237000Y-84238501D01*
X106237000Y-83909499D01*
X106111097Y-83605542D01*
X105878458Y-83372903D01*
X105574501Y-83247000D01*
X105245499Y-83247000D01*
X104941542Y-83372903D01*
X104708903Y-83605542D01*
X104583000Y-83909499D01*
X104583000Y-84014289D01*
X104375308Y-84221981D01*
X104322960Y-84256959D01*
X104287982Y-84309307D01*
X104287981Y-84309308D01*
X104184380Y-84464358D01*
X104181105Y-84480824D01*
X104148000Y-84647250D01*
X104148000Y-84647254D01*
X104135718Y-84709000D01*
X104148000Y-84770746D01*
X104148000Y-84928443D01*
X104073903Y-85002540D01*
X103948000Y-85306497D01*
X98033052Y-85306497D01*
X97992721Y-85266166D01*
X98258457Y-85156094D01*
X98491096Y-84923455D01*
X98616999Y-84619498D01*
X98616999Y-84290496D01*
X98491096Y-83986539D01*
X98258457Y-83753900D01*
X97954500Y-83627997D01*
X97625498Y-83627997D01*
X97321541Y-83753900D01*
X97247444Y-83827997D01*
X96709746Y-83827997D01*
X96648000Y-83815715D01*
X96586254Y-83827997D01*
X96586251Y-83827997D01*
X96403358Y-83864377D01*
X96363453Y-83891041D01*
X96195960Y-84002956D01*
X96160982Y-84055304D01*
X92691307Y-87524980D01*
X92638960Y-87559957D01*
X92603982Y-87612305D01*
X92603981Y-87612306D01*
X92500380Y-87767356D01*
X92451718Y-88011998D01*
X92464001Y-88073749D01*
X92464001Y-88484444D01*
X92389903Y-88558542D01*
X92264000Y-88862499D01*
X84415211Y-88862499D01*
X82484968Y-86932257D01*
X82484968Y-86830499D01*
X82359065Y-86526542D01*
X82126426Y-86293903D01*
X81822469Y-86168000D01*
X81493467Y-86168000D01*
X81189510Y-86293903D01*
X80956871Y-86526542D01*
X80830968Y-86830499D01*
X80830968Y-87159501D01*
X80956871Y-87463458D01*
X81189510Y-87696097D01*
X81493467Y-87822000D01*
X81601289Y-87822000D01*
X84390000Y-90610712D01*
X84390000Y-90686000D01*
X81723414Y-90686000D01*
X81061722Y-90024309D01*
X81026743Y-89971959D01*
X80819345Y-89833380D01*
X80636452Y-89797000D01*
X80636448Y-89797000D01*
X80574702Y-89784718D01*
X80512956Y-89797000D01*
X79023712Y-89797000D01*
X78944000Y-89717288D01*
X78944000Y-89612499D01*
X78818097Y-89308542D01*
X78585458Y-89075903D01*
X78281501Y-88950000D01*
X77952499Y-88950000D01*
X77648542Y-89075903D01*
X77589000Y-89135445D01*
X77589000Y-76442715D01*
X87651981Y-86505697D01*
X87686959Y-86558045D01*
X87894357Y-86696624D01*
X88077250Y-86733004D01*
X88077253Y-86733004D01*
X88122419Y-86741988D01*
X88187532Y-86807101D01*
X88491489Y-86933004D01*
X88820491Y-86933004D01*
X89124448Y-86807101D01*
X89357087Y-86574462D01*
X89482990Y-86270505D01*
X89482990Y-85941503D01*
X89468837Y-85907334D01*
X89749458Y-85791097D01*
X89982097Y-85558458D01*
X90108000Y-85254501D01*
X90108000Y-84925499D01*
X89982097Y-84621542D01*
X89933000Y-84572445D01*
X89933000Y-78956499D01*
X102185979Y-78956499D01*
X102185979Y-79285501D01*
X102311882Y-79589458D01*
X102544521Y-79822097D01*
X102848478Y-79948000D01*
X103177480Y-79948000D01*
X103481437Y-79822097D01*
X103714076Y-79589458D01*
X103839979Y-79285501D01*
X103839979Y-79180711D01*
X107209691Y-75811000D01*
X109693445Y-75811000D01*
X109767542Y-75885097D01*
X110071499Y-76011000D01*
X110400501Y-76011000D01*
X110704458Y-75885097D01*
X110937097Y-75652458D01*
X111063000Y-75348501D01*
X111063000Y-75019499D01*
X110937097Y-74715542D01*
X110704458Y-74482903D01*
X110400501Y-74357000D01*
X110071499Y-74357000D01*
X109767542Y-74482903D01*
X109693445Y-74557000D01*
X107011724Y-74557000D01*
X106949978Y-74544718D01*
X106888232Y-74557000D01*
X106888229Y-74557000D01*
X106705336Y-74593380D01*
X106497938Y-74731959D01*
X106462960Y-74784307D01*
X102953268Y-78294000D01*
X102848478Y-78294000D01*
X102544521Y-78419903D01*
X102311882Y-78652542D01*
X102185979Y-78956499D01*
X89933000Y-78956499D01*
X89933000Y-77658207D01*
X89945772Y-77593997D01*
X89933000Y-77529787D01*
X89933000Y-77529784D01*
X89895170Y-77339600D01*
X89792001Y-77185198D01*
X89792001Y-77113498D01*
X89666098Y-76809541D01*
X89433459Y-76576902D01*
X89129502Y-76450999D01*
X88800500Y-76450999D01*
X88496543Y-76576902D01*
X88263904Y-76809541D01*
X88138001Y-77113498D01*
X88138001Y-77442500D01*
X88263904Y-77746457D01*
X88496543Y-77979096D01*
X88629001Y-78033962D01*
X88629000Y-82252445D01*
X88576728Y-82200173D01*
X88272771Y-82074270D01*
X88167981Y-82074270D01*
X84520000Y-78426289D01*
X84520000Y-78321499D01*
X84394097Y-78017542D01*
X84161458Y-77784903D01*
X84014425Y-77724000D01*
X84161458Y-77663097D01*
X84394097Y-77430458D01*
X84520000Y-77126501D01*
X84520000Y-76797499D01*
X84394097Y-76493542D01*
X84161458Y-76260903D01*
X83857501Y-76135000D01*
X83528499Y-76135000D01*
X83224542Y-76260903D01*
X82991903Y-76493542D01*
X82866000Y-76797499D01*
X82866000Y-76902289D01*
X82693307Y-77074982D01*
X82640957Y-77109961D01*
X82502378Y-77317360D01*
X82465998Y-77500253D01*
X82465998Y-77500256D01*
X82453716Y-77562002D01*
X82465998Y-77623748D01*
X82465999Y-79546291D01*
X78684975Y-75765268D01*
X78805000Y-75475501D01*
X78805000Y-75146499D01*
X78679097Y-74842542D01*
X78446458Y-74609903D01*
X78142501Y-74484000D01*
X77813499Y-74484000D01*
X77589000Y-74576990D01*
X77589000Y-63518555D01*
X77636542Y-63566097D01*
X77940499Y-63692000D01*
X78045289Y-63692000D01*
X92391000Y-78037712D01*
X92391000Y-78142501D01*
X92516903Y-78446458D01*
X92749542Y-78679097D01*
X93053499Y-78805000D01*
X93382501Y-78805000D01*
X93686458Y-78679097D01*
X93919097Y-78446458D01*
X94045000Y-78142501D01*
X94045000Y-77813499D01*
X93995114Y-77693063D01*
X94067458Y-77663097D01*
X94300097Y-77430458D01*
X94426000Y-77126501D01*
X94426000Y-76797499D01*
X94300097Y-76493542D01*
X94067458Y-76260903D01*
X93763501Y-76135000D01*
X93658712Y-76135000D01*
X91040880Y-73517169D01*
X91124000Y-73316501D01*
X91124000Y-72987499D01*
X90998097Y-72683542D01*
X90765458Y-72450903D01*
X90461501Y-72325000D01*
X90132499Y-72325000D01*
X89828542Y-72450903D01*
X89595903Y-72683542D01*
X89470000Y-72987499D01*
X89470000Y-73316501D01*
X89488941Y-73362230D01*
X87267130Y-71140419D01*
X87463458Y-71059097D01*
X87696097Y-70826458D01*
X87822000Y-70522501D01*
X87822000Y-70193499D01*
X87722000Y-69952077D01*
X87722000Y-64436132D01*
X92252503Y-59905629D01*
X92169086Y-60325000D01*
X92287598Y-60920805D01*
X92539905Y-61298408D01*
X92666905Y-61425408D01*
X94022591Y-62781095D01*
X94022594Y-62781097D01*
X95841904Y-64600408D01*
X95927095Y-64727905D01*
X96432194Y-65065402D01*
X96877607Y-65154000D01*
X96877611Y-65154000D01*
X97028000Y-65183914D01*
X97178389Y-65154000D01*
X101830611Y-65154000D01*
X101981000Y-65183914D01*
X102131389Y-65154000D01*
X102131393Y-65154000D01*
X102576806Y-65065402D01*
X103081905Y-64727905D01*
X103167098Y-64600406D01*
X103798908Y-63968596D01*
X116331476Y-63756180D01*
X116078440Y-126255977D01*
X114582829Y-126486071D01*
X109337324Y-123050961D01*
X109337324Y-121959000D01*
X109296423Y-121753375D01*
X109179945Y-121579055D01*
X109005625Y-121462577D01*
X108800000Y-121421676D01*
X107364432Y-121421676D01*
X104178355Y-110579499D01*
X105726000Y-110579499D01*
X105726000Y-110908501D01*
X105851903Y-111212458D01*
X106084542Y-111445097D01*
X106388499Y-111571000D01*
X106493289Y-111571000D01*
X107986502Y-113064213D01*
X107986502Y-113801947D01*
X107910458Y-113725903D01*
X107606501Y-113600000D01*
X107277499Y-113600000D01*
X106973542Y-113725903D01*
X106740903Y-113958542D01*
X106615000Y-114262499D01*
X106615000Y-114351923D01*
X106608959Y-114355959D01*
X106470380Y-114563358D01*
X106434000Y-114746251D01*
X106434000Y-114746254D01*
X106421718Y-114808000D01*
X106434000Y-114869747D01*
X106434001Y-115979944D01*
X106359903Y-116054042D01*
X106234000Y-116357999D01*
X106234000Y-116687001D01*
X106359903Y-116990958D01*
X106592542Y-117223597D01*
X106896499Y-117349500D01*
X107059500Y-117349500D01*
X107059500Y-117639501D01*
X107185403Y-117943458D01*
X107418042Y-118176097D01*
X107721999Y-118302000D01*
X108051001Y-118302000D01*
X108204609Y-118238373D01*
X108213810Y-118244521D01*
X109536000Y-119566712D01*
X109536000Y-119671501D01*
X109661903Y-119975458D01*
X109894542Y-120208097D01*
X110198499Y-120334000D01*
X110527501Y-120334000D01*
X110831458Y-120208097D01*
X111064097Y-119975458D01*
X111190000Y-119671501D01*
X111190000Y-119342499D01*
X111064097Y-119038542D01*
X110831458Y-118805903D01*
X110527501Y-118680000D01*
X110422712Y-118680000D01*
X109240501Y-117497790D01*
X109240501Y-114232056D01*
X109259542Y-114251097D01*
X109563499Y-114377000D01*
X109892501Y-114377000D01*
X110196458Y-114251097D01*
X110429097Y-114018458D01*
X110555000Y-113714501D01*
X110555000Y-113385499D01*
X110429097Y-113081542D01*
X110355000Y-113007445D01*
X110355000Y-112752926D01*
X110367282Y-112691180D01*
X110355000Y-112629434D01*
X110355000Y-112629430D01*
X110318620Y-112446537D01*
X110180041Y-112239139D01*
X110127693Y-112204161D01*
X107795990Y-109872459D01*
X107795990Y-109767669D01*
X107670087Y-109463712D01*
X107437448Y-109231073D01*
X107133491Y-109105170D01*
X106804489Y-109105170D01*
X106500532Y-109231073D01*
X106267893Y-109463712D01*
X106141990Y-109767669D01*
X106141990Y-110019107D01*
X106084542Y-110042903D01*
X105851903Y-110275542D01*
X105726000Y-110579499D01*
X104178355Y-110579499D01*
X103245848Y-107406194D01*
X103222870Y-107362290D01*
X103184841Y-107330522D01*
X103124000Y-107315000D01*
X102236289Y-107315000D01*
X89537539Y-107061025D01*
X89488755Y-107069719D01*
X89447011Y-107096420D01*
X89425573Y-107123543D01*
X78540413Y-125603000D01*
X72305333Y-125603000D01*
X70357869Y-124142402D01*
X70330429Y-110833499D01*
X76897000Y-110833499D01*
X76897000Y-111162501D01*
X77022903Y-111466458D01*
X77255542Y-111699097D01*
X77559499Y-111825000D01*
X77888501Y-111825000D01*
X78192458Y-111699097D01*
X78280594Y-111610961D01*
X78392907Y-111588620D01*
X78600305Y-111450041D01*
X78635285Y-111397691D01*
X86587302Y-103445674D01*
X86639649Y-103410697D01*
X86684934Y-103342924D01*
X86691151Y-103333619D01*
X86778228Y-103203299D01*
X86780305Y-103192858D01*
X86790129Y-103183034D01*
X86801903Y-103211458D01*
X87034542Y-103444097D01*
X87338499Y-103570000D01*
X87667501Y-103570000D01*
X87971458Y-103444097D01*
X88204097Y-103211458D01*
X88330000Y-102907501D01*
X88330000Y-102578499D01*
X88204097Y-102274542D01*
X87971458Y-102041903D01*
X87667501Y-101916000D01*
X87562712Y-101916000D01*
X86593020Y-100946309D01*
X86558041Y-100893959D01*
X86350643Y-100755380D01*
X86167750Y-100719000D01*
X86167746Y-100719000D01*
X86106000Y-100706718D01*
X86044254Y-100719000D01*
X85976539Y-100719000D01*
X85902442Y-100644903D01*
X85598485Y-100519000D01*
X85269483Y-100519000D01*
X84965526Y-100644903D01*
X84732887Y-100877542D01*
X84606984Y-101181499D01*
X84606984Y-101510501D01*
X84732887Y-101814458D01*
X84965526Y-102047097D01*
X85269483Y-102173000D01*
X85475966Y-102173000D01*
X85360608Y-102451499D01*
X85360608Y-102780501D01*
X85395299Y-102864253D01*
X83711558Y-104547995D01*
X83491468Y-104327905D01*
X83187511Y-104202002D01*
X82858509Y-104202002D01*
X82554552Y-104327905D01*
X82480455Y-104402002D01*
X80204714Y-104402002D01*
X78994000Y-103191289D01*
X78994000Y-103086499D01*
X78868097Y-102782542D01*
X78635458Y-102549903D01*
X78331501Y-102424000D01*
X78002499Y-102424000D01*
X77698542Y-102549903D01*
X77465903Y-102782542D01*
X77340000Y-103086499D01*
X77340000Y-103415501D01*
X77465903Y-103719458D01*
X77698542Y-103952097D01*
X78002499Y-104078000D01*
X78107289Y-104078000D01*
X79457983Y-105428695D01*
X79492961Y-105481043D01*
X79545309Y-105516021D01*
X79545310Y-105516022D01*
X79667854Y-105597903D01*
X79700359Y-105619622D01*
X79883252Y-105656002D01*
X79883256Y-105656002D01*
X79945002Y-105668284D01*
X80006748Y-105656002D01*
X82480455Y-105656002D01*
X82542003Y-105717550D01*
X78029959Y-110229594D01*
X77888501Y-110171000D01*
X77559499Y-110171000D01*
X77255542Y-110296903D01*
X77022903Y-110529542D01*
X76897000Y-110833499D01*
X70330429Y-110833499D01*
X70231000Y-62610738D01*
X70221232Y-62562157D01*
X70193617Y-62521012D01*
X70152359Y-62493567D01*
X70104000Y-62484000D01*
X53957566Y-62484000D01*
X53965324Y-62445000D01*
X53965324Y-60745000D01*
X53924423Y-60539375D01*
X53807945Y-60365055D01*
X53633625Y-60248577D01*
X53487339Y-60219479D01*
X53849645Y-59821924D01*
X54019476Y-59411890D01*
X53898155Y-59182000D01*
X52705000Y-59182000D01*
X52705000Y-59202000D01*
X52451000Y-59202000D01*
X52451000Y-59182000D01*
X51257845Y-59182000D01*
X51136524Y-59411890D01*
X51306355Y-59821924D01*
X51668661Y-60219479D01*
X51522375Y-60248577D01*
X51348055Y-60365055D01*
X51231577Y-60539375D01*
X51190676Y-60745000D01*
X51190676Y-62445000D01*
X51198434Y-62484000D01*
X49023693Y-62484000D01*
X49246253Y-45680660D01*
X55004265Y-45680660D01*
X57277000Y-47953395D01*
X59549735Y-45680660D01*
X59231499Y-45226797D01*
X57970566Y-44700064D01*
X56604044Y-44695965D01*
X55339973Y-45215122D01*
X55322501Y-45226797D01*
X55004265Y-45680660D01*
X49246253Y-45680660D01*
X49271246Y-43793741D01*
X49334383Y-43745731D01*
X49573822Y-43676394D01*
X49602333Y-43675000D01*
X83199110Y-43675030D01*
G36*
X101904239Y-51403161D02*
X102266840Y-51765762D01*
X102694731Y-51943001D01*
X102266840Y-52120239D01*
X101904239Y-52482840D01*
X101792022Y-52753756D01*
X101679397Y-52481857D01*
X101437213Y-52412392D01*
X100636605Y-53213000D01*
X101437213Y-54013608D01*
X101679397Y-53944143D01*
X101783629Y-53651983D01*
X101904239Y-53943160D01*
X102266840Y-54305761D01*
X102694732Y-54483000D01*
X102266840Y-54660239D01*
X101904239Y-55022840D01*
X101792022Y-55293756D01*
X101679397Y-55021857D01*
X101437213Y-54952392D01*
X100636605Y-55753000D01*
X101437213Y-56553608D01*
X101679397Y-56484143D01*
X101783629Y-56191983D01*
X101904239Y-56483160D01*
X102266840Y-56845761D01*
X102640678Y-57000610D01*
X102407219Y-57234069D01*
X101844260Y-57277374D01*
X101817035Y-57285000D01*
X99856555Y-57285000D01*
X99782458Y-57210903D01*
X99478501Y-57085000D01*
X99149499Y-57085000D01*
X98845542Y-57210903D01*
X98612903Y-57443542D01*
X98487000Y-57747499D01*
X98487000Y-58076501D01*
X98612903Y-58380458D01*
X98806638Y-58574193D01*
X98769519Y-58589568D01*
X98536880Y-58822207D01*
X98410977Y-59126164D01*
X98410977Y-59455166D01*
X98536880Y-59759123D01*
X98769519Y-59991762D01*
X98976708Y-60077582D01*
X98845542Y-60131913D01*
X98612903Y-60364552D01*
X98487000Y-60668509D01*
X98487000Y-60997511D01*
X98501442Y-61032376D01*
X97479088Y-61032376D01*
X95188000Y-58741289D01*
X95188000Y-58636499D01*
X95062097Y-58332542D01*
X94829458Y-58099903D01*
X94525501Y-57974000D01*
X94196499Y-57974000D01*
X94175389Y-57982744D01*
X95117442Y-57040691D01*
X95120602Y-57042000D01*
X95633398Y-57042000D01*
X96107160Y-56845761D01*
X96219708Y-56733213D01*
X97116392Y-56733213D01*
X97185857Y-56975397D01*
X97709302Y-57162144D01*
X98264368Y-57134362D01*
X98648143Y-56975397D01*
X98717608Y-56733213D01*
X99656392Y-56733213D01*
X99725857Y-56975397D01*
X100249302Y-57162144D01*
X100804368Y-57134362D01*
X101188143Y-56975397D01*
X101257608Y-56733213D01*
X100457000Y-55932605D01*
X99656392Y-56733213D01*
X98717608Y-56733213D01*
X97917000Y-55932605D01*
X97116392Y-56733213D01*
X96219708Y-56733213D01*
X96469761Y-56483160D01*
X96581978Y-56212244D01*
X96694603Y-56484143D01*
X96936787Y-56553608D01*
X97737395Y-55753000D01*
X98096605Y-55753000D01*
X98897213Y-56553608D01*
X99139397Y-56484143D01*
X99183453Y-56360656D01*
X99234603Y-56484143D01*
X99476787Y-56553608D01*
X100277395Y-55753000D01*
X99476787Y-54952392D01*
X99234603Y-55021857D01*
X99190547Y-55145344D01*
X99139397Y-55021857D01*
X98897213Y-54952392D01*
X98096605Y-55753000D01*
X97737395Y-55753000D01*
X96936787Y-54952392D01*
X96694603Y-55021857D01*
X96590371Y-55314017D01*
X96469761Y-55022840D01*
X96247697Y-54800776D01*
X96838695Y-54209779D01*
X96863487Y-54193213D01*
X97116392Y-54193213D01*
X97185857Y-54435397D01*
X97309344Y-54479453D01*
X97185857Y-54530603D01*
X97116392Y-54772787D01*
X97917000Y-55573395D01*
X98717608Y-54772787D01*
X98648143Y-54530603D01*
X98524656Y-54486547D01*
X98648143Y-54435397D01*
X98717608Y-54193213D01*
X99656392Y-54193213D01*
X99725857Y-54435397D01*
X99849344Y-54479453D01*
X99725857Y-54530603D01*
X99656392Y-54772787D01*
X100457000Y-55573395D01*
X101257608Y-54772787D01*
X101188143Y-54530603D01*
X101064656Y-54486547D01*
X101188143Y-54435397D01*
X101257608Y-54193213D01*
X100457000Y-53392605D01*
X99656392Y-54193213D01*
X98717608Y-54193213D01*
X97917000Y-53392605D01*
X97116392Y-54193213D01*
X96863487Y-54193213D01*
X96891042Y-54174802D01*
X97029621Y-53967404D01*
X97041199Y-53909196D01*
X97737395Y-53213000D01*
X97723253Y-53198858D01*
X97902858Y-53019253D01*
X97917000Y-53033395D01*
X97931143Y-53019253D01*
X98110748Y-53198858D01*
X98096605Y-53213000D01*
X98897213Y-54013608D01*
X99139397Y-53944143D01*
X99183453Y-53820656D01*
X99234603Y-53944143D01*
X99476787Y-54013608D01*
X100277395Y-53213000D01*
X100263253Y-53198858D01*
X100442858Y-53019253D01*
X100457000Y-53033395D01*
X101257608Y-52232787D01*
X101188143Y-51990603D01*
X100895985Y-51886371D01*
X101187160Y-51765762D01*
X101549761Y-51403161D01*
X101727000Y-50975269D01*
X101904239Y-51403161D01*
X101904239Y-51403161D01*
G37*
X101904239Y-51403161D02*
X102266840Y-51765762D01*
X102694731Y-51943001D01*
X102266840Y-52120239D01*
X101904239Y-52482840D01*
X101792022Y-52753756D01*
X101679397Y-52481857D01*
X101437213Y-52412392D01*
X100636605Y-53213000D01*
X101437213Y-54013608D01*
X101679397Y-53944143D01*
X101783629Y-53651983D01*
X101904239Y-53943160D01*
X102266840Y-54305761D01*
X102694732Y-54483000D01*
X102266840Y-54660239D01*
X101904239Y-55022840D01*
X101792022Y-55293756D01*
X101679397Y-55021857D01*
X101437213Y-54952392D01*
X100636605Y-55753000D01*
X101437213Y-56553608D01*
X101679397Y-56484143D01*
X101783629Y-56191983D01*
X101904239Y-56483160D01*
X102266840Y-56845761D01*
X102640678Y-57000610D01*
X102407219Y-57234069D01*
X101844260Y-57277374D01*
X101817035Y-57285000D01*
X99856555Y-57285000D01*
X99782458Y-57210903D01*
X99478501Y-57085000D01*
X99149499Y-57085000D01*
X98845542Y-57210903D01*
X98612903Y-57443542D01*
X98487000Y-57747499D01*
X98487000Y-58076501D01*
X98612903Y-58380458D01*
X98806638Y-58574193D01*
X98769519Y-58589568D01*
X98536880Y-58822207D01*
X98410977Y-59126164D01*
X98410977Y-59455166D01*
X98536880Y-59759123D01*
X98769519Y-59991762D01*
X98976708Y-60077582D01*
X98845542Y-60131913D01*
X98612903Y-60364552D01*
X98487000Y-60668509D01*
X98487000Y-60997511D01*
X98501442Y-61032376D01*
X97479088Y-61032376D01*
X95188000Y-58741289D01*
X95188000Y-58636499D01*
X95062097Y-58332542D01*
X94829458Y-58099903D01*
X94525501Y-57974000D01*
X94196499Y-57974000D01*
X94175389Y-57982744D01*
X95117442Y-57040691D01*
X95120602Y-57042000D01*
X95633398Y-57042000D01*
X96107160Y-56845761D01*
X96219708Y-56733213D01*
X97116392Y-56733213D01*
X97185857Y-56975397D01*
X97709302Y-57162144D01*
X98264368Y-57134362D01*
X98648143Y-56975397D01*
X98717608Y-56733213D01*
X99656392Y-56733213D01*
X99725857Y-56975397D01*
X100249302Y-57162144D01*
X100804368Y-57134362D01*
X101188143Y-56975397D01*
X101257608Y-56733213D01*
X100457000Y-55932605D01*
X99656392Y-56733213D01*
X98717608Y-56733213D01*
X97917000Y-55932605D01*
X97116392Y-56733213D01*
X96219708Y-56733213D01*
X96469761Y-56483160D01*
X96581978Y-56212244D01*
X96694603Y-56484143D01*
X96936787Y-56553608D01*
X97737395Y-55753000D01*
X98096605Y-55753000D01*
X98897213Y-56553608D01*
X99139397Y-56484143D01*
X99183453Y-56360656D01*
X99234603Y-56484143D01*
X99476787Y-56553608D01*
X100277395Y-55753000D01*
X99476787Y-54952392D01*
X99234603Y-55021857D01*
X99190547Y-55145344D01*
X99139397Y-55021857D01*
X98897213Y-54952392D01*
X98096605Y-55753000D01*
X97737395Y-55753000D01*
X96936787Y-54952392D01*
X96694603Y-55021857D01*
X96590371Y-55314017D01*
X96469761Y-55022840D01*
X96247697Y-54800776D01*
X96838695Y-54209779D01*
X96863487Y-54193213D01*
X97116392Y-54193213D01*
X97185857Y-54435397D01*
X97309344Y-54479453D01*
X97185857Y-54530603D01*
X97116392Y-54772787D01*
X97917000Y-55573395D01*
X98717608Y-54772787D01*
X98648143Y-54530603D01*
X98524656Y-54486547D01*
X98648143Y-54435397D01*
X98717608Y-54193213D01*
X99656392Y-54193213D01*
X99725857Y-54435397D01*
X99849344Y-54479453D01*
X99725857Y-54530603D01*
X99656392Y-54772787D01*
X100457000Y-55573395D01*
X101257608Y-54772787D01*
X101188143Y-54530603D01*
X101064656Y-54486547D01*
X101188143Y-54435397D01*
X101257608Y-54193213D01*
X100457000Y-53392605D01*
X99656392Y-54193213D01*
X98717608Y-54193213D01*
X97917000Y-53392605D01*
X97116392Y-54193213D01*
X96863487Y-54193213D01*
X96891042Y-54174802D01*
X97029621Y-53967404D01*
X97041199Y-53909196D01*
X97737395Y-53213000D01*
X97723253Y-53198858D01*
X97902858Y-53019253D01*
X97917000Y-53033395D01*
X97931143Y-53019253D01*
X98110748Y-53198858D01*
X98096605Y-53213000D01*
X98897213Y-54013608D01*
X99139397Y-53944143D01*
X99183453Y-53820656D01*
X99234603Y-53944143D01*
X99476787Y-54013608D01*
X100277395Y-53213000D01*
X100263253Y-53198858D01*
X100442858Y-53019253D01*
X100457000Y-53033395D01*
X101257608Y-52232787D01*
X101188143Y-51990603D01*
X100895985Y-51886371D01*
X101187160Y-51765762D01*
X101549761Y-51403161D01*
X101727000Y-50975269D01*
X101904239Y-51403161D01*
G04 #@! TD*
M02*
